%TF.GenerationSoftware,Altium Limited,Altium Designer,24.9.1 (31)*%
G04 Layer_Color=255*
%FSLAX45Y45*%
%MOMM*%
%TF.SameCoordinates,E37428AF-A4AF-452D-A059-51B4F3D01195*%
%TF.FilePolarity,Positive*%
%TF.FileFunction,Pads,Bot*%
%TF.Part,Single*%
G01*
G75*
%TA.AperFunction,SMDPad,CuDef*%
%ADD13R,1.15814X1.01213*%
%ADD24R,1.01213X1.15814*%
%TA.AperFunction,ComponentPad*%
%ADD31C,1.60000*%
%ADD32R,1.60000X1.60000*%
%ADD33C,2.00000*%
%ADD34R,2.00000X2.00000*%
%ADD35C,2.70000*%
G04:AMPARAMS|DCode=36|XSize=2.7mm|YSize=2.7mm|CornerRadius=0.675mm|HoleSize=0mm|Usage=FLASHONLY|Rotation=90.000|XOffset=0mm|YOffset=0mm|HoleType=Round|Shape=RoundedRectangle|*
%AMROUNDEDRECTD36*
21,1,2.70000,1.35000,0,0,90.0*
21,1,1.35000,2.70000,0,0,90.0*
1,1,1.35000,0.67500,0.67500*
1,1,1.35000,0.67500,-0.67500*
1,1,1.35000,-0.67500,-0.67500*
1,1,1.35000,-0.67500,0.67500*
%
%ADD36ROUNDEDRECTD36*%
%ADD37C,3.00000*%
%ADD38R,1.55000X1.55000*%
%ADD39C,1.55000*%
%ADD40R,2.75000X2.75000*%
%ADD41C,2.75000*%
D13*
X13527301Y8150000D02*
D03*
X13692699D02*
D03*
X13972699Y7410000D02*
D03*
X13807301D02*
D03*
D24*
X13320000Y7607301D02*
D03*
Y7772699D02*
D03*
D31*
X12788900Y10185400D02*
D03*
X13042900D02*
D03*
X13296899D02*
D03*
X13550900D02*
D03*
X12788900Y9931400D02*
D03*
X13042900D02*
D03*
X13296899D02*
D03*
X13550900D02*
D03*
X13804900D02*
D03*
D32*
Y10185400D02*
D03*
D33*
X10693298Y6515100D02*
D03*
X10493299Y7115099D02*
D03*
Y5915101D02*
D03*
X9273301D02*
D03*
X10505999Y10518699D02*
D03*
Y9318701D02*
D03*
X9286001D02*
D03*
X10705998Y9918700D02*
D03*
X9273301Y4213301D02*
D03*
X10493299D02*
D03*
Y5413299D02*
D03*
X10693298Y4813300D02*
D03*
X9286001Y7616901D02*
D03*
X10505999D02*
D03*
Y8816899D02*
D03*
X10705998Y8216900D02*
D03*
D34*
X9273301Y7115099D02*
D03*
X9286001Y10518699D02*
D03*
X9273301Y5413299D02*
D03*
X9286001Y8816899D02*
D03*
D35*
X16361501Y6091499D02*
D03*
X15811501D02*
D03*
Y6511498D02*
D03*
Y6931503D02*
D03*
Y7351502D02*
D03*
Y7771501D02*
D03*
Y8191500D02*
D03*
Y8611499D02*
D03*
Y9031498D02*
D03*
Y9451503D02*
D03*
Y9871502D02*
D03*
Y10291501D02*
D03*
Y10711500D02*
D03*
X16361501Y6511498D02*
D03*
Y7351502D02*
D03*
Y9031498D02*
D03*
Y10291501D02*
D03*
Y9871502D02*
D03*
Y9451503D02*
D03*
Y8611499D02*
D03*
Y8191500D02*
D03*
Y7771501D02*
D03*
Y6931503D02*
D03*
D36*
Y10711500D02*
D03*
D37*
X17091502D02*
D03*
Y6091499D02*
D03*
D38*
X12344400Y8724900D02*
D03*
D39*
X12598400D02*
D03*
X12852400D02*
D03*
D40*
X16306799Y5131699D02*
D03*
D41*
X15756799D02*
D03*
X16306799Y4711700D02*
D03*
X15756799D02*
D03*
%TF.MD5,381f11c4c1c8ea2a4397d8c51fd70caf*%
M02*
