%TF.GenerationSoftware,Altium Limited,Altium Designer,24.9.1 (31)*%
G04 Layer_Physical_Order=1*
G04 Layer_Color=255*
%FSLAX45Y45*%
%MOMM*%
%TF.SameCoordinates,E37428AF-A4AF-452D-A059-51B4F3D01195*%
%TF.FilePolarity,Positive*%
%TF.FileFunction,Copper,L1,Top,Signal*%
%TF.Part,Single*%
G01*
G75*
%TA.AperFunction,SMDPad,CuDef*%
%ADD10R,0.90000X0.80000*%
%TA.AperFunction,SMDPad,SMDef*%
%ADD11R,1.47320X0.50800*%
%ADD12R,0.50800X1.47320*%
%TA.AperFunction,SMDPad,CuDef*%
%ADD13R,1.15814X1.01213*%
%ADD14R,1.06213X1.13504*%
%ADD15R,1.13504X1.06213*%
%ADD16R,0.80000X0.90000*%
G04:AMPARAMS|DCode=17|XSize=1.55748mm|YSize=0.74248mm|CornerRadius=0.37124mm|HoleSize=0mm|Usage=FLASHONLY|Rotation=270.000|XOffset=0mm|YOffset=0mm|HoleType=Round|Shape=RoundedRectangle|*
%AMROUNDEDRECTD17*
21,1,1.55748,0.00000,0,0,270.0*
21,1,0.81501,0.74248,0,0,270.0*
1,1,0.74247,0.00000,-0.40750*
1,1,0.74247,0.00000,0.40750*
1,1,0.74247,0.00000,0.40750*
1,1,0.74247,0.00000,-0.40750*
%
%ADD17ROUNDEDRECTD17*%
%ADD18R,0.74248X1.55748*%
%ADD19R,1.40000X1.60000*%
%ADD20R,1.10620X1.35523*%
%TA.AperFunction,SMDPad,SMDef*%
%ADD21R,2.20000X1.60000*%
%TA.AperFunction,SMDPad,CuDef*%
%ADD22R,1.55439X0.57213*%
G04:AMPARAMS|DCode=23|XSize=1.55439mm|YSize=0.57213mm|CornerRadius=0.28606mm|HoleSize=0mm|Usage=FLASHONLY|Rotation=0.000|XOffset=0mm|YOffset=0mm|HoleType=Round|Shape=RoundedRectangle|*
%AMROUNDEDRECTD23*
21,1,1.55439,0.00000,0,0,0.0*
21,1,0.98226,0.57213,0,0,0.0*
1,1,0.57213,0.49113,0.00000*
1,1,0.57213,-0.49113,0.00000*
1,1,0.57213,-0.49113,0.00000*
1,1,0.57213,0.49113,0.00000*
%
%ADD23ROUNDEDRECTD23*%
%ADD24R,1.01213X1.15814*%
%TA.AperFunction,Conductor*%
%ADD25C,0.25400*%
%ADD26C,0.38100*%
%ADD27C,0.55400*%
%ADD28C,0.76200*%
%ADD29C,0.55880*%
%ADD30C,0.10160*%
%TA.AperFunction,ComponentPad*%
%ADD31C,1.60000*%
%ADD32R,1.60000X1.60000*%
%ADD33C,2.00000*%
%ADD34R,2.00000X2.00000*%
%ADD35C,2.70000*%
G04:AMPARAMS|DCode=36|XSize=2.7mm|YSize=2.7mm|CornerRadius=0.675mm|HoleSize=0mm|Usage=FLASHONLY|Rotation=90.000|XOffset=0mm|YOffset=0mm|HoleType=Round|Shape=RoundedRectangle|*
%AMROUNDEDRECTD36*
21,1,2.70000,1.35000,0,0,90.0*
21,1,1.35000,2.70000,0,0,90.0*
1,1,1.35000,0.67500,0.67500*
1,1,1.35000,0.67500,-0.67500*
1,1,1.35000,-0.67500,-0.67500*
1,1,1.35000,-0.67500,0.67500*
%
%ADD36ROUNDEDRECTD36*%
%ADD37C,3.00000*%
%ADD38R,1.55000X1.55000*%
%ADD39C,1.55000*%
%ADD40R,2.75000X2.75000*%
%ADD41C,2.75000*%
%TA.AperFunction,ViaPad*%
%ADD42C,0.50000*%
%ADD43C,0.45720*%
%ADD44C,1.27000*%
%ADD45C,5.00000*%
G36*
X17800000Y3250000D02*
X8400000D01*
Y11450000D01*
X17800000D01*
Y3250000D01*
D02*
G37*
%LPC*%
G36*
X15827298Y10871900D02*
X15795702D01*
X15764713Y10865736D01*
X15735522Y10853645D01*
X15709251Y10836091D01*
X15686909Y10813749D01*
X15669354Y10787478D01*
X15657265Y10758287D01*
X15651100Y10727298D01*
Y10695702D01*
X15657265Y10664713D01*
X15669354Y10635522D01*
X15673853Y10628790D01*
X15237930Y10192869D01*
X15229510Y10180266D01*
X15226553Y10165400D01*
Y9579191D01*
X14391753Y8744389D01*
X14380605D01*
X14365739Y8741432D01*
X14353137Y8733011D01*
X14338211Y8718085D01*
X14329790D01*
X14312051Y8710738D01*
X14298476Y8697162D01*
X14291129Y8679424D01*
Y8660226D01*
X14298476Y8642488D01*
X14312051Y8628912D01*
X14329790Y8621565D01*
X14348988D01*
X14366727Y8628912D01*
X14380302Y8642488D01*
X14385828Y8655827D01*
X14396696Y8666696D01*
X14407843D01*
X14422710Y8669653D01*
X14435310Y8678074D01*
X15292870Y9535631D01*
X15301289Y9548234D01*
X15304247Y9563100D01*
Y10149309D01*
X15728790Y10573853D01*
X15735522Y10569355D01*
X15764713Y10557264D01*
X15795702Y10551100D01*
X15827298D01*
X15858287Y10557264D01*
X15887479Y10569355D01*
X15913750Y10586909D01*
X15936092Y10609251D01*
X15953645Y10635522D01*
X15965736Y10664713D01*
X15971899Y10695702D01*
Y10727298D01*
X15965736Y10758287D01*
X15953645Y10787478D01*
X15936092Y10813749D01*
X15913750Y10836091D01*
X15887479Y10853645D01*
X15858287Y10865736D01*
X15827298Y10871900D01*
D02*
G37*
G36*
X16429001Y10872702D02*
X16294000D01*
X16269749Y10869509D01*
X16247151Y10860148D01*
X16227744Y10845257D01*
X16212854Y10825851D01*
X16203493Y10803252D01*
X16200301Y10779000D01*
Y10644000D01*
X16203493Y10619748D01*
X16206808Y10611744D01*
X16038031Y10442967D01*
X16029611Y10430364D01*
X16026653Y10415499D01*
Y9820491D01*
X15943411Y9737248D01*
X15916681D01*
X15914438Y9744640D01*
X15914247Y9747408D01*
X15936092Y9769252D01*
X15953645Y9795524D01*
X15965736Y9824715D01*
X15971899Y9855704D01*
Y9887300D01*
X15965736Y9918289D01*
X15953645Y9947480D01*
X15936092Y9973751D01*
X15913750Y9996093D01*
X15887479Y10013646D01*
X15858287Y10025738D01*
X15827298Y10031902D01*
X15795702D01*
X15764713Y10025738D01*
X15735522Y10013646D01*
X15709251Y9996093D01*
X15686909Y9973751D01*
X15669354Y9947480D01*
X15657265Y9918289D01*
X15651100Y9887300D01*
Y9863546D01*
X15641299D01*
X15626434Y9860589D01*
X15613831Y9852168D01*
X15415730Y9654069D01*
X15407310Y9641466D01*
X15404353Y9626600D01*
Y9502991D01*
X14517117Y8615754D01*
X14506093Y8619099D01*
X14505635Y8621398D01*
X15381769Y9497531D01*
X15390189Y9510134D01*
X15393147Y9525000D01*
Y9818210D01*
X15728790Y10153854D01*
X15735522Y10149356D01*
X15764713Y10137265D01*
X15795702Y10131101D01*
X15827298D01*
X15858287Y10137265D01*
X15887479Y10149356D01*
X15913750Y10166910D01*
X15936092Y10189252D01*
X15953645Y10215523D01*
X15965736Y10244714D01*
X15971899Y10275703D01*
Y10307299D01*
X15965736Y10338288D01*
X15953645Y10367479D01*
X15936092Y10393750D01*
X15913750Y10416092D01*
X15887479Y10433646D01*
X15858287Y10445737D01*
X15827298Y10451901D01*
X15795702D01*
X15764713Y10445737D01*
X15735522Y10433646D01*
X15709251Y10416092D01*
X15686909Y10393750D01*
X15669354Y10367479D01*
X15657265Y10338288D01*
X15651100Y10307299D01*
Y10275703D01*
X15657265Y10244714D01*
X15669354Y10215523D01*
X15673853Y10208791D01*
X15326831Y9861769D01*
X15318411Y9849167D01*
X15315453Y9834301D01*
Y9541091D01*
X14434267Y8659904D01*
X14425845Y8647301D01*
X14422890Y8632436D01*
Y8613325D01*
X14416003Y8606438D01*
X14402663Y8600913D01*
X14389087Y8587337D01*
X14381740Y8569599D01*
Y8550400D01*
X14389087Y8532663D01*
X14402663Y8519087D01*
X14420401Y8511740D01*
X14439600D01*
X14457336Y8519087D01*
X14467093Y8528843D01*
X14477254Y8524635D01*
Y8411403D01*
X14475188Y8409337D01*
X14467841Y8391599D01*
Y8372401D01*
X14475188Y8354663D01*
X14488763Y8341087D01*
X14506500Y8333740D01*
X14525699D01*
X14543437Y8341087D01*
X14555994Y8353644D01*
X14560764Y8352967D01*
X14566153Y8350529D01*
Y8309803D01*
X14564087Y8307737D01*
X14556740Y8289999D01*
Y8270966D01*
X14556256Y8270497D01*
X14548010Y8265328D01*
X14403870Y8409469D01*
X14391266Y8417889D01*
X14376401Y8420847D01*
X14278802D01*
X14276736Y8422913D01*
X14259000Y8430260D01*
X14239801D01*
X14222063Y8422913D01*
X14208487Y8409337D01*
X14201140Y8391599D01*
Y8372401D01*
X14208487Y8354663D01*
X14222063Y8341087D01*
X14239801Y8333740D01*
X14259000D01*
X14276736Y8341087D01*
X14278802Y8343153D01*
X14360310D01*
X14386540Y8316923D01*
X14381535Y8307560D01*
X14373860Y8309087D01*
X14278802D01*
X14276736Y8311153D01*
X14259000Y8318500D01*
X14239801D01*
X14222063Y8311153D01*
X14208487Y8297577D01*
X14201140Y8279839D01*
Y8260641D01*
X14203133Y8255828D01*
X14197488Y8247380D01*
X14178281D01*
Y8145780D01*
Y8067040D01*
Y7985760D01*
Y7907020D01*
Y7825740D01*
Y7816850D01*
X14277341D01*
X14376401D01*
Y7835153D01*
X14474609D01*
X14528006Y7781757D01*
X14540610Y7773336D01*
X14553296Y7770812D01*
Y7709094D01*
X14782947D01*
Y7785100D01*
Y7861106D01*
X14558531D01*
X14518169Y7901469D01*
X14505566Y7909889D01*
X14490700Y7912847D01*
X14376401D01*
Y7985760D01*
Y8067040D01*
Y8145780D01*
Y8199488D01*
X14385786Y8203376D01*
X14526730Y8062431D01*
X14539334Y8054011D01*
X14554201Y8051053D01*
X14859000D01*
X14873866Y8054011D01*
X14886469Y8062431D01*
X15585191Y8761153D01*
X15728473D01*
X15731555Y8750993D01*
X15709251Y8736090D01*
X15686909Y8713748D01*
X15669354Y8687477D01*
X15657265Y8658286D01*
X15651100Y8627297D01*
Y8595701D01*
X15657265Y8564712D01*
X15669354Y8535521D01*
X15686909Y8509250D01*
X15709251Y8486908D01*
X15735522Y8469354D01*
X15764713Y8457263D01*
X15795702Y8451099D01*
X15827298D01*
X15858287Y8457263D01*
X15887479Y8469354D01*
X15913750Y8486908D01*
X15936092Y8509250D01*
X15953645Y8535521D01*
X15965736Y8564712D01*
X15971899Y8595701D01*
Y8627297D01*
X15965736Y8658286D01*
X15953645Y8687477D01*
X15936092Y8713748D01*
X15913750Y8736090D01*
X15891444Y8750993D01*
X15894527Y8761153D01*
X15970000D01*
X15984866Y8764110D01*
X15997469Y8772531D01*
X16201498Y8976560D01*
X16211462Y8974578D01*
X16219357Y8955520D01*
X16236911Y8929249D01*
X16259251Y8906908D01*
X16285522Y8889354D01*
X16314714Y8877262D01*
X16345703Y8871098D01*
X16377299D01*
X16408289Y8877262D01*
X16437479Y8889354D01*
X16463751Y8906908D01*
X16486092Y8929249D01*
X16503645Y8955520D01*
X16515736Y8984711D01*
X16521901Y9015700D01*
Y9047296D01*
X16515736Y9078285D01*
X16503645Y9107476D01*
X16486092Y9133748D01*
X16463751Y9156089D01*
X16437479Y9173643D01*
X16408289Y9185734D01*
X16377299Y9191898D01*
X16345703D01*
X16314714Y9185734D01*
X16285522Y9173643D01*
X16259251Y9156089D01*
X16236911Y9133748D01*
X16219357Y9107476D01*
X16207266Y9078285D01*
X16205685Y9070345D01*
X16201498D01*
X16186633Y9067388D01*
X16174030Y9058967D01*
X15953909Y8838846D01*
X15569099D01*
X15554234Y8835889D01*
X15541631Y8827469D01*
X14842909Y8128747D01*
X14576640D01*
X14575662Y8130378D01*
X14577560Y8134992D01*
X14581767Y8139953D01*
X14820900D01*
X14835767Y8142911D01*
X14848369Y8151331D01*
X15642886Y8945850D01*
X15675816D01*
X15686909Y8929249D01*
X15709251Y8906908D01*
X15735522Y8889354D01*
X15764713Y8877262D01*
X15795702Y8871098D01*
X15827298D01*
X15858287Y8877262D01*
X15887479Y8889354D01*
X15913750Y8906908D01*
X15936092Y8929249D01*
X15953645Y8955520D01*
X15965736Y8984711D01*
X15971899Y9015700D01*
Y9047296D01*
X15965736Y9078285D01*
X15953645Y9107476D01*
X15936092Y9133748D01*
X15913750Y9156089D01*
X15887479Y9173643D01*
X15858287Y9185734D01*
X15827298Y9191898D01*
X15795702D01*
X15764713Y9185734D01*
X15752296Y9180591D01*
X15746542Y9189205D01*
X15796893Y9239556D01*
X15883200D01*
X15898067Y9242513D01*
X15910669Y9250934D01*
X16126418Y9466683D01*
X16134839Y9479286D01*
X16137796Y9494152D01*
Y9542359D01*
X16313292Y9717855D01*
X16314714Y9717266D01*
X16345703Y9711102D01*
X16377299D01*
X16408289Y9717266D01*
X16437479Y9729357D01*
X16463751Y9746911D01*
X16486092Y9769252D01*
X16503645Y9795524D01*
X16515736Y9824715D01*
X16521901Y9855704D01*
Y9887300D01*
X16515736Y9918289D01*
X16503645Y9947480D01*
X16486092Y9973751D01*
X16463751Y9996093D01*
X16437479Y10013646D01*
X16408289Y10025738D01*
X16377299Y10031902D01*
X16345703D01*
X16314714Y10025738D01*
X16285522Y10013646D01*
X16259251Y9996093D01*
X16236911Y9973751D01*
X16219357Y9947480D01*
X16216107Y9939633D01*
X16205946Y9941654D01*
Y10081009D01*
X16278792Y10153854D01*
X16285522Y10149356D01*
X16314714Y10137265D01*
X16345703Y10131101D01*
X16377299D01*
X16408289Y10137265D01*
X16437479Y10149356D01*
X16463751Y10166910D01*
X16486092Y10189252D01*
X16503645Y10215523D01*
X16515736Y10244714D01*
X16521901Y10275703D01*
Y10307299D01*
X16515736Y10338288D01*
X16503645Y10367479D01*
X16486092Y10393750D01*
X16463751Y10416092D01*
X16437479Y10433646D01*
X16408289Y10445737D01*
X16377299Y10451901D01*
X16345703D01*
X16314714Y10445737D01*
X16285522Y10433646D01*
X16259251Y10416092D01*
X16236911Y10393750D01*
X16219357Y10367479D01*
X16207266Y10338288D01*
X16201102Y10307299D01*
Y10275703D01*
X16207266Y10244714D01*
X16219357Y10215523D01*
X16223856Y10208791D01*
X16139632Y10124568D01*
X16131210Y10111965D01*
X16128253Y10097099D01*
Y9782391D01*
X16011308Y9665447D01*
X15995853D01*
X15991644Y9675607D01*
X16092969Y9776931D01*
X16101389Y9789534D01*
X16104347Y9804400D01*
Y10399408D01*
X16261745Y10556807D01*
X16269749Y10553491D01*
X16294000Y10550298D01*
X16429001D01*
X16453253Y10553491D01*
X16475851Y10562852D01*
X16495259Y10577743D01*
X16510149Y10597149D01*
X16519510Y10619748D01*
X16522704Y10644000D01*
Y10779000D01*
X16519510Y10803252D01*
X16510149Y10825851D01*
X16495259Y10845257D01*
X16475851Y10860148D01*
X16453253Y10869509D01*
X16429001Y10872702D01*
D02*
G37*
G36*
X17108778Y10886900D02*
X17074226D01*
X17040340Y10880159D01*
X17008420Y10866937D01*
X16979692Y10847742D01*
X16955260Y10823311D01*
X16936066Y10794583D01*
X16922842Y10762662D01*
X16916103Y10728775D01*
Y10694225D01*
X16922842Y10660338D01*
X16936066Y10628417D01*
X16955260Y10599689D01*
X16979692Y10575258D01*
X17008420Y10556063D01*
X17040340Y10542841D01*
X17074226Y10536100D01*
X17108778D01*
X17142665Y10542841D01*
X17174585Y10556063D01*
X17203313Y10575258D01*
X17227745Y10599689D01*
X17246941Y10628417D01*
X17260162Y10660338D01*
X17266902Y10694225D01*
Y10728775D01*
X17260162Y10762662D01*
X17246941Y10794583D01*
X17227745Y10823311D01*
X17203313Y10847742D01*
X17174585Y10866937D01*
X17142665Y10880159D01*
X17108778Y10886900D01*
D02*
G37*
G36*
X10522508Y10644099D02*
X10489490D01*
X10457596Y10635553D01*
X10429001Y10619044D01*
X10405654Y10595696D01*
X10389145Y10567101D01*
X10380599Y10535208D01*
Y10502190D01*
X10384261Y10488523D01*
X10296718Y10400980D01*
X10282683Y10379975D01*
X10277755Y10355199D01*
Y9250975D01*
X10282683Y9226198D01*
X10296718Y9205194D01*
X10441255Y9060657D01*
Y8924318D01*
X10429001Y8917244D01*
X10405654Y8893896D01*
X10389145Y8865301D01*
X10380599Y8833408D01*
Y8800390D01*
X10384261Y8786723D01*
X10296718Y8699180D01*
X10282683Y8678175D01*
X10277755Y8653399D01*
Y7492014D01*
X10282683Y7467238D01*
X10296718Y7446234D01*
X10428555Y7314397D01*
Y7222518D01*
X10416301Y7215444D01*
X10392954Y7192096D01*
X10376445Y7163501D01*
X10367899Y7131608D01*
Y7098590D01*
X10371561Y7084923D01*
X10284018Y6997380D01*
X10269983Y6976375D01*
X10265055Y6951599D01*
Y5847375D01*
X10269983Y5822598D01*
X10284018Y5801594D01*
X10428555Y5657057D01*
Y5520718D01*
X10416301Y5513644D01*
X10392954Y5490296D01*
X10376445Y5461701D01*
X10367899Y5429808D01*
Y5396790D01*
X10376445Y5364896D01*
X10392954Y5336301D01*
X10416301Y5312954D01*
X10444896Y5296445D01*
X10476790Y5287899D01*
X10509808D01*
X10541701Y5296445D01*
X10570296Y5312954D01*
X10593644Y5336301D01*
X10597583Y5343124D01*
X11062676D01*
Y5299164D01*
X11187724D01*
Y5337694D01*
X11597218D01*
X11621995Y5342622D01*
X11642999Y5356657D01*
X11996802Y5710454D01*
X12407402D01*
Y5562600D01*
X12409374Y5552689D01*
X12414988Y5544288D01*
X12423389Y5538674D01*
X12433300Y5536702D01*
Y5143500D01*
Y5126700D01*
X12639418D01*
X12648702Y5123699D01*
Y4927600D01*
X12650674Y4917689D01*
X12656288Y4909288D01*
X12664689Y4903674D01*
X12674600Y4901702D01*
X13167018D01*
X13170906Y4892316D01*
X13066293Y4787706D01*
X12953853D01*
Y4711700D01*
Y4635694D01*
X13035452D01*
Y4533706D01*
X12953853D01*
Y4457700D01*
Y4381694D01*
X13035452D01*
Y4171803D01*
X13040382Y4147026D01*
X13054416Y4126022D01*
X13085410Y4095029D01*
X12909280Y3918900D01*
X12898296D01*
X12875687Y3912842D01*
X12855414Y3901138D01*
X12838863Y3884586D01*
X12827158Y3864314D01*
X12821100Y3841704D01*
Y3818296D01*
X12827158Y3795686D01*
X12838863Y3775414D01*
X12855414Y3758862D01*
X12875687Y3747158D01*
X12898296Y3741100D01*
X12921704D01*
X12944315Y3747158D01*
X12964586Y3758862D01*
X12981139Y3775414D01*
X12992842Y3795686D01*
X12998900Y3818296D01*
Y3825396D01*
X13218759Y4045256D01*
X15705099D01*
X15729877Y4050184D01*
X15750880Y4064219D01*
X16246866Y4560204D01*
X16259283Y4555060D01*
X16290756Y4548800D01*
X16322844D01*
X16354317Y4555060D01*
X16383961Y4567340D01*
X16410643Y4585167D01*
X16433333Y4607857D01*
X16451160Y4634538D01*
X16463440Y4664184D01*
X16469701Y4695656D01*
Y4727744D01*
X16463440Y4759216D01*
X16451160Y4788862D01*
X16433333Y4815543D01*
X16410643Y4838233D01*
X16383961Y4856060D01*
X16354317Y4868340D01*
X16322844Y4874600D01*
X16290756D01*
X16259283Y4868340D01*
X16229639Y4856060D01*
X16202957Y4838233D01*
X16180267Y4815543D01*
X16162440Y4788862D01*
X16150160Y4759216D01*
X16143900Y4727744D01*
Y4695656D01*
X16150160Y4664184D01*
X16155304Y4651766D01*
X15678282Y4174744D01*
X13188818D01*
X13164941Y4198621D01*
Y4381694D01*
X13183504D01*
Y4533706D01*
X13164941D01*
Y4635694D01*
X13183504D01*
Y4653453D01*
X13241898D01*
X13311009Y4584343D01*
Y4518893D01*
X13517393D01*
Y4421907D01*
X13412212D01*
Y4343400D01*
Y4264893D01*
X13638391D01*
Y4421907D01*
X13595087D01*
Y4518893D01*
X13638391D01*
Y4675907D01*
X13595087D01*
Y4680961D01*
X13592130Y4695827D01*
X13583708Y4708429D01*
X13517915Y4774222D01*
Y4811147D01*
X13525769Y4817593D01*
X13535616Y4815634D01*
X13612355D01*
X13659926Y4768062D01*
X13677570Y4756273D01*
X13698383Y4752133D01*
X13843195D01*
Y4723790D01*
Y4558396D01*
X13995206D01*
Y4577538D01*
X14094693D01*
Y4560709D01*
X14251707D01*
Y4578117D01*
X14348692D01*
Y4560709D01*
X14505707D01*
Y4723787D01*
Y4888091D01*
X14466048D01*
Y5448300D01*
X14463089Y5463166D01*
X14454669Y5475769D01*
X14276869Y5653569D01*
X14264265Y5661989D01*
X14249400Y5664947D01*
X13691098D01*
Y5734800D01*
X13689127Y5744710D01*
X13683511Y5753112D01*
X13647021Y5789604D01*
Y5982928D01*
X13735345Y6071253D01*
X13735347Y6071254D01*
X13745171Y6085957D01*
X13748621Y6103300D01*
Y6184811D01*
X14254601D01*
Y6159600D01*
X14385400D01*
Y6300400D01*
X14254601D01*
Y6275453D01*
X13748621D01*
Y6927475D01*
X13757068Y6933120D01*
X13760400Y6931740D01*
X13779599D01*
X13797337Y6939087D01*
X13810913Y6952663D01*
X13818260Y6970401D01*
Y6989599D01*
X13810913Y7007337D01*
X13797337Y7020913D01*
X13779599Y7028260D01*
X13760400D01*
X13757068Y7026880D01*
X13748621Y7032525D01*
Y7124700D01*
X13762990D01*
Y7223760D01*
Y7322820D01*
X13748621D01*
Y7404638D01*
X13748260Y7406451D01*
Y7419599D01*
X13745322Y7426695D01*
Y7566411D01*
X13774716Y7595807D01*
X13774718Y7595807D01*
X13784541Y7610510D01*
X13787991Y7627854D01*
X13787991Y7627855D01*
Y7782202D01*
X13814087Y7808298D01*
X13823911Y7823001D01*
X13827361Y7840345D01*
Y8138229D01*
X13828259Y8140401D01*
Y8159599D01*
X13827361Y8161771D01*
Y8272780D01*
X13842253D01*
Y7583313D01*
X13845210Y7568447D01*
X13853632Y7555844D01*
X14077269Y7332207D01*
X14073381Y7322820D01*
X13801089D01*
Y7223760D01*
Y7124700D01*
X13824474D01*
Y7029780D01*
X13827431Y7014914D01*
X13835851Y7002312D01*
X14144508Y6693654D01*
X14144711Y6692634D01*
X14149600Y6685318D01*
Y6614600D01*
X14267107D01*
X14272966Y6604440D01*
X14272192Y6600551D01*
Y6537129D01*
X14235463Y6500400D01*
X14159599D01*
Y6359600D01*
X14290401D01*
Y6445463D01*
X14338507Y6493570D01*
X14339439Y6494966D01*
X14349600Y6491884D01*
Y6359600D01*
X14480400D01*
Y6500400D01*
X14462820D01*
Y6519599D01*
X14490401D01*
Y6536479D01*
X14542909D01*
Y6500093D01*
X14560316D01*
Y6403107D01*
X14542909D01*
Y6246093D01*
X14742818D01*
Y5941861D01*
X14746268Y5924517D01*
X14756091Y5909814D01*
X15109953Y5555953D01*
X15124657Y5546129D01*
X15142000Y5542679D01*
X15142001Y5542679D01*
X15831728D01*
X16143900Y5230506D01*
Y4968799D01*
X16469701D01*
Y5294599D01*
X16207993D01*
X15882545Y5620047D01*
X15867844Y5629871D01*
X15850499Y5633321D01*
X15160773D01*
X14833459Y5960633D01*
Y6246093D01*
X14870291D01*
Y6403107D01*
X14689806D01*
Y6500093D01*
X14769089D01*
Y6578600D01*
X14788139D01*
Y6597650D01*
X14870291D01*
Y6641154D01*
X14933910D01*
X14949210Y6625854D01*
Y6624266D01*
X14952167Y6609400D01*
X14960587Y6596797D01*
X14981740Y6575644D01*
Y6570401D01*
X14989087Y6552663D01*
X15002663Y6539087D01*
X15020399Y6531740D01*
X15039600D01*
X15057336Y6539087D01*
X15070914Y6552663D01*
X15078259Y6570401D01*
Y6589599D01*
X15070914Y6607337D01*
X15057336Y6620913D01*
X15039600Y6628260D01*
X15038998D01*
X15026901Y6640357D01*
Y6641944D01*
X15023946Y6656810D01*
X15015524Y6669413D01*
X14977467Y6707469D01*
X14964867Y6715890D01*
X14950000Y6718847D01*
X14490401D01*
Y6755951D01*
X14420000D01*
X14349600D01*
Y6709601D01*
X14350783D01*
X14354993Y6699441D01*
X14299786Y6644237D01*
X14290401Y6648125D01*
Y6745400D01*
X14202637D01*
X13902167Y7045871D01*
Y7059115D01*
X13912328Y7063324D01*
X13917262Y7058387D01*
X13935001Y7051040D01*
X13954199D01*
X13971938Y7058387D01*
X13982700Y7069150D01*
X13993463Y7058387D01*
X14011201Y7051040D01*
X14030399D01*
X14048137Y7058387D01*
X14058939Y7069189D01*
X14065250Y7070967D01*
X14071561Y7069189D01*
X14082362Y7058387D01*
X14100101Y7051040D01*
X14119299D01*
X14137038Y7058387D01*
X14150613Y7071963D01*
X14157961Y7089701D01*
Y7108899D01*
X14151976Y7123346D01*
X14152879Y7124700D01*
X14152879D01*
Y7165708D01*
X14162267Y7169596D01*
X14341936Y6989927D01*
X14349088Y6972663D01*
X14362663Y6959087D01*
X14380402Y6951740D01*
X14399599D01*
X14417337Y6959087D01*
X14430913Y6972663D01*
X14438260Y6990401D01*
Y7009599D01*
X14430913Y7027337D01*
X14417337Y7040913D01*
X14399599Y7048260D01*
X14393477D01*
X14194379Y7247358D01*
Y7275196D01*
X14203766Y7279084D01*
X14512617Y6970231D01*
X14525221Y6961811D01*
X14540086Y6958853D01*
X14791493D01*
Y6877848D01*
X14897215D01*
X15066650Y6708412D01*
X15079254Y6699991D01*
X15094119Y6697034D01*
X15488029D01*
X15652206Y6532857D01*
X15651100Y6527296D01*
Y6495700D01*
X15657265Y6464711D01*
X15669354Y6435520D01*
X15686909Y6409249D01*
X15709251Y6386907D01*
X15735522Y6369354D01*
X15764713Y6357262D01*
X15795702Y6351098D01*
X15827298D01*
X15858287Y6357262D01*
X15887479Y6369354D01*
X15913750Y6386907D01*
X15936092Y6409249D01*
X15953645Y6435520D01*
X15965736Y6464711D01*
X15971899Y6495700D01*
Y6527296D01*
X15965736Y6558285D01*
X15953645Y6587476D01*
X15936092Y6613748D01*
X15913750Y6636089D01*
X15887479Y6653643D01*
X15858287Y6665734D01*
X15827298Y6671898D01*
X15795702D01*
X15764713Y6665734D01*
X15735522Y6653643D01*
X15709251Y6636089D01*
X15686909Y6613748D01*
X15681702Y6613235D01*
X15531589Y6763349D01*
X15518987Y6771770D01*
X15504120Y6774727D01*
X15110211D01*
X14948508Y6936431D01*
Y7058335D01*
X15031493D01*
Y6876309D01*
X15115109D01*
X15148886Y6842531D01*
X15161488Y6834111D01*
X15176353Y6831153D01*
X15553909D01*
X15682532Y6702531D01*
X15695134Y6694111D01*
X15710001Y6691153D01*
X15903909D01*
X16041154Y6553909D01*
Y6350000D01*
X16044112Y6335134D01*
X16052531Y6322531D01*
X16215909Y6159154D01*
X16207266Y6138286D01*
X16201102Y6107297D01*
Y6075701D01*
X16207266Y6044712D01*
X16219357Y6015521D01*
X16236911Y5989250D01*
X16259251Y5966908D01*
X16285522Y5949354D01*
X16314714Y5937263D01*
X16345703Y5931099D01*
X16377299D01*
X16408289Y5937263D01*
X16437479Y5949354D01*
X16463751Y5966908D01*
X16486092Y5989250D01*
X16503645Y6015521D01*
X16505292Y6019492D01*
X16515256Y6017510D01*
Y4226818D01*
X16011263Y3722824D01*
X10458738D01*
X9104744Y5076818D01*
Y5654982D01*
X9243125Y5793363D01*
X9256792Y5789701D01*
X9289810D01*
X9321704Y5798247D01*
X9350299Y5814756D01*
X9373646Y5838104D01*
X9390155Y5866699D01*
X9398701Y5898592D01*
Y5931610D01*
X9390155Y5963504D01*
X9373646Y5992099D01*
X9350299Y6015446D01*
X9321704Y6031955D01*
X9289810Y6040501D01*
X9256792D01*
X9224899Y6031955D01*
X9196304Y6015446D01*
X9172956Y5992099D01*
X9156447Y5963504D01*
X9147901Y5931610D01*
Y5898592D01*
X9151563Y5884925D01*
X8994219Y5727581D01*
X8980184Y5706576D01*
X8975256Y5681800D01*
Y5050000D01*
X8980184Y5025224D01*
X8994219Y5004219D01*
X10386139Y3612299D01*
X10407144Y3598264D01*
X10431920Y3593336D01*
X16038080D01*
X16062857Y3598264D01*
X16083861Y3612299D01*
X16625781Y4154219D01*
X16639816Y4175223D01*
X16644743Y4200000D01*
Y6675363D01*
X16639816Y6700140D01*
X16625781Y6721144D01*
X16581145Y6765781D01*
X16560139Y6779816D01*
X16535362Y6784744D01*
X16448862D01*
X16445779Y6794904D01*
X16463751Y6806912D01*
X16486092Y6829253D01*
X16503645Y6855525D01*
X16515736Y6884715D01*
X16521901Y6915704D01*
Y6947301D01*
X16515736Y6978290D01*
X16503645Y7007481D01*
X16486092Y7033752D01*
X16463751Y7056093D01*
X16450278Y7065096D01*
X16453360Y7075256D01*
X16593182D01*
X16685255Y6983182D01*
Y4166818D01*
X16073183Y3554744D01*
X10386818D01*
X8924744Y5016818D01*
Y6674980D01*
X9239463Y6989699D01*
X9398701D01*
Y7240499D01*
X9147901D01*
Y7081261D01*
X8814219Y6747579D01*
X8800184Y6726574D01*
X8795256Y6701798D01*
Y4990000D01*
X8800184Y4965223D01*
X8814219Y4944219D01*
X10314219Y3444219D01*
X10335224Y3430184D01*
X10360000Y3425256D01*
X16100000D01*
X16124776Y3430184D01*
X16145781Y3444219D01*
X16795781Y4094219D01*
X16809816Y4115224D01*
X16814745Y4140000D01*
Y7010000D01*
X16809816Y7034776D01*
X16795781Y7055781D01*
X16665781Y7185781D01*
X16644775Y7199816D01*
X16620000Y7204744D01*
X16448863D01*
X16445781Y7214904D01*
X16463751Y7226911D01*
X16486092Y7249252D01*
X16503645Y7275524D01*
X16515736Y7304715D01*
X16521901Y7335704D01*
Y7367300D01*
X16515736Y7398289D01*
X16503645Y7427480D01*
X16486092Y7453751D01*
X16463751Y7476092D01*
X16437479Y7493646D01*
X16408289Y7505738D01*
X16377299Y7511902D01*
X16345703D01*
X16314714Y7505738D01*
X16285522Y7493646D01*
X16259251Y7476092D01*
X16236911Y7453751D01*
X16219357Y7427480D01*
X16207266Y7398289D01*
X16201102Y7367300D01*
Y7335704D01*
X16207266Y7304715D01*
X16219357Y7275524D01*
X16236911Y7249252D01*
X16259251Y7226911D01*
X16277222Y7214904D01*
X16274139Y7204744D01*
X16254662D01*
X16099205Y7360201D01*
X16078200Y7374235D01*
X16053424Y7379164D01*
X15969540D01*
X15965736Y7398289D01*
X15953645Y7427480D01*
X15936092Y7453751D01*
X15913750Y7476092D01*
X15887479Y7493646D01*
X15858287Y7505738D01*
X15827298Y7511902D01*
X15795702D01*
X15764713Y7505738D01*
X15735522Y7493646D01*
X15709251Y7476092D01*
X15686909Y7453751D01*
X15669354Y7427480D01*
X15657265Y7398289D01*
X15651100Y7367300D01*
Y7335704D01*
X15657265Y7304715D01*
X15669354Y7275524D01*
X15686909Y7249252D01*
X15709251Y7226911D01*
X15735522Y7209357D01*
X15764713Y7197266D01*
X15795702Y7191102D01*
X15827298D01*
X15858287Y7197266D01*
X15887479Y7209357D01*
X15913750Y7226911D01*
X15936092Y7249252D01*
X15936374Y7249676D01*
X16026607D01*
X16182063Y7094219D01*
X16203067Y7080184D01*
X16227844Y7075256D01*
X16269643D01*
X16272725Y7065096D01*
X16259251Y7056093D01*
X16236911Y7033752D01*
X16219357Y7007481D01*
X16207266Y6978290D01*
X16201102Y6947301D01*
Y6915704D01*
X16207266Y6884715D01*
X16219357Y6855525D01*
X16236911Y6829253D01*
X16259251Y6806912D01*
X16277223Y6794904D01*
X16274141Y6784744D01*
X16196819D01*
X16190569Y6790994D01*
X16189816Y6794777D01*
X16175781Y6815781D01*
X16051360Y6940202D01*
X16030356Y6954236D01*
X16005579Y6959165D01*
X15969540D01*
X15965736Y6978290D01*
X15953645Y7007481D01*
X15936092Y7033752D01*
X15913750Y7056093D01*
X15887479Y7073647D01*
X15858287Y7085738D01*
X15827298Y7091903D01*
X15795702D01*
X15764713Y7085738D01*
X15735522Y7073647D01*
X15709251Y7056093D01*
X15686909Y7033752D01*
X15669354Y7007481D01*
X15657265Y6978290D01*
X15651100Y6947301D01*
Y6915704D01*
X15657265Y6884715D01*
X15669354Y6855525D01*
X15686909Y6829253D01*
X15709251Y6806912D01*
X15735522Y6789358D01*
X15760512Y6779007D01*
X15758492Y6768847D01*
X15726089D01*
X15597469Y6897469D01*
X15584866Y6905889D01*
X15570000Y6908846D01*
X15192445D01*
X15188507Y6912785D01*
Y6925324D01*
X15193796Y6928859D01*
X15337469Y7072531D01*
X15345889Y7085134D01*
X15348846Y7100000D01*
Y7220000D01*
X15345889Y7234866D01*
X15337469Y7247469D01*
X15207469Y7377469D01*
X15194865Y7385889D01*
X15180000Y7388847D01*
X15049403D01*
X15047337Y7390913D01*
X15029599Y7398260D01*
X15010400D01*
X14992664Y7390913D01*
X14979086Y7377337D01*
X14971741Y7359599D01*
Y7340401D01*
X14979086Y7322663D01*
X14992664Y7309087D01*
X15010400Y7301740D01*
X15029599D01*
X15047337Y7309087D01*
X15049403Y7311154D01*
X15163908D01*
X15271153Y7203909D01*
Y7116091D01*
X15198666Y7043604D01*
X15188507Y7047812D01*
Y7203691D01*
X15031493D01*
Y7187823D01*
X14948508D01*
Y7205231D01*
X14791493D01*
Y7194310D01*
X14723810D01*
Y7217985D01*
Y7404308D01*
X14704593D01*
Y7467794D01*
X14782947D01*
Y7543800D01*
Y7619806D01*
X14608234D01*
X14492769Y7735271D01*
X14480167Y7743692D01*
X14465300Y7746649D01*
X14376401D01*
Y7778750D01*
X14277341D01*
X14178281D01*
Y7747000D01*
Y7668260D01*
Y7586980D01*
Y7492632D01*
X14168893Y7488744D01*
X14021547Y7636091D01*
Y8272780D01*
X14152879D01*
Y8470900D01*
X13722350D01*
Y8371840D01*
Y8272780D01*
X13736719D01*
Y8171620D01*
X13731740Y8159599D01*
Y8140401D01*
X13736719Y8128380D01*
Y7884294D01*
X13727332Y7880406D01*
X13699152Y7908587D01*
X13684448Y7918411D01*
X13667105Y7921861D01*
X13345049D01*
X13329599Y7928260D01*
X13310400D01*
X13303305Y7925321D01*
X13228320D01*
Y7985760D01*
Y8067040D01*
Y8168089D01*
X13236768Y8173733D01*
X13241582Y8171740D01*
X13260779D01*
X13278517Y8179087D01*
X13292093Y8192663D01*
X13293729Y8196611D01*
X13321072Y8223956D01*
X13331233Y8219748D01*
Y8215418D01*
X13334190Y8200553D01*
X13341740Y8189254D01*
Y8180400D01*
X13349088Y8162663D01*
X13362663Y8149087D01*
X13380400Y8141740D01*
X13399599D01*
X13417337Y8149087D01*
X13430913Y8162663D01*
X13438260Y8180400D01*
Y8195498D01*
X13438480Y8195644D01*
X13457677D01*
X13475415Y8202991D01*
X13488991Y8216567D01*
X13496338Y8234305D01*
Y8244875D01*
X13500429Y8250999D01*
X13503387Y8265865D01*
Y8272780D01*
X13684250D01*
Y8371840D01*
Y8470900D01*
X13276212D01*
X13272324Y8480287D01*
X13679968Y8887931D01*
X13688390Y8900534D01*
X13691347Y8915400D01*
Y9750209D01*
X13772185Y9831048D01*
X13791023Y9826000D01*
X13818776D01*
X13845583Y9833183D01*
X13869617Y9847059D01*
X13889241Y9866683D01*
X13903117Y9890717D01*
X13910300Y9917524D01*
Y9945276D01*
X13903117Y9972083D01*
X13889241Y9996117D01*
X13869617Y10015741D01*
X13845583Y10029617D01*
X13818776Y10036800D01*
X13791023D01*
X13764217Y10029617D01*
X13740182Y10015741D01*
X13720560Y9996117D01*
X13706683Y9972083D01*
X13699500Y9945276D01*
Y9917524D01*
X13706683Y9890717D01*
X13712282Y9881019D01*
X13625031Y9793769D01*
X13616611Y9781166D01*
X13613654Y9766300D01*
Y8931491D01*
X13029939Y8347777D01*
X13020554Y8351665D01*
Y8374251D01*
X13578369Y8932066D01*
X13586789Y8944669D01*
X13589748Y8959535D01*
Y9832691D01*
X13591583Y9833183D01*
X13615617Y9847059D01*
X13635242Y9866683D01*
X13649117Y9890717D01*
X13656300Y9917524D01*
Y9945276D01*
X13649117Y9972083D01*
X13635242Y9996117D01*
X13615617Y10015741D01*
X13591583Y10029617D01*
X13564777Y10036800D01*
X13537024D01*
X13510217Y10029617D01*
X13486183Y10015741D01*
X13466559Y9996117D01*
X13452682Y9972083D01*
X13445500Y9945276D01*
Y9917524D01*
X13452682Y9890717D01*
X13466559Y9866683D01*
X13486183Y9847059D01*
X13510217Y9833183D01*
X13512053Y9832691D01*
Y8975626D01*
X12954237Y8417810D01*
X12945818Y8405207D01*
X12942860Y8390341D01*
Y8291691D01*
X12903947D01*
Y8331200D01*
X12900989Y8346066D01*
X12892569Y8358669D01*
X12875587Y8375650D01*
X13476768Y8976831D01*
X13485188Y8989434D01*
X13488147Y9004300D01*
Y9766300D01*
X13485188Y9781166D01*
X13476768Y9793769D01*
X13389519Y9881019D01*
X13395117Y9890717D01*
X13402299Y9917524D01*
Y9945276D01*
X13395117Y9972083D01*
X13381241Y9996117D01*
X13361617Y10015741D01*
X13337582Y10029617D01*
X13310776Y10036800D01*
X13283025D01*
X13256216Y10029617D01*
X13232182Y10015741D01*
X13212560Y9996117D01*
X13198683Y9972083D01*
X13191499Y9945276D01*
Y9917524D01*
X13198683Y9890717D01*
X13212560Y9866683D01*
X13232182Y9847059D01*
X13256216Y9833183D01*
X13283025Y9826000D01*
X13310776D01*
X13329614Y9831048D01*
X13410452Y9750209D01*
Y9020391D01*
X12820650Y8430587D01*
X12637247Y8613991D01*
Y8628779D01*
X12638118Y8629012D01*
X12661582Y8642560D01*
X12680740Y8661718D01*
X12694288Y8685182D01*
X12701300Y8711353D01*
Y8738447D01*
X12694288Y8764618D01*
X12680740Y8788082D01*
X12661582Y8807240D01*
X12638118Y8820788D01*
X12611947Y8827800D01*
X12584853D01*
X12558682Y8820788D01*
X12535218Y8807240D01*
X12516060Y8788082D01*
X12502512Y8764618D01*
X12495500Y8738447D01*
Y8711353D01*
X12502512Y8685182D01*
X12516060Y8661718D01*
X12535218Y8642560D01*
X12558682Y8629012D01*
X12559553Y8628779D01*
Y8597900D01*
X12562511Y8583034D01*
X12570931Y8570431D01*
X12793181Y8348181D01*
X12826253Y8315109D01*
Y8291691D01*
X12786593D01*
Y8127387D01*
Y7964309D01*
X12888667D01*
X13002731Y7850245D01*
X13015334Y7841824D01*
X13030200Y7838867D01*
Y7816850D01*
X13129260D01*
X13228320D01*
Y7834679D01*
X13302641D01*
X13302657Y7834669D01*
X13303951Y7834412D01*
X13310400Y7831740D01*
X13317381D01*
X13320000Y7831219D01*
X13648332D01*
X13697350Y7782203D01*
Y7646626D01*
X13667953Y7617230D01*
X13658128Y7602527D01*
X13654678Y7585184D01*
Y7426695D01*
X13651740Y7419599D01*
Y7400400D01*
X13657979Y7385338D01*
Y7322820D01*
X13253720D01*
Y7124700D01*
X13265672D01*
Y6879095D01*
X13261740Y6869599D01*
Y6850401D01*
X13269087Y6832663D01*
X13282663Y6819087D01*
X13300401Y6811740D01*
X13319598D01*
X13337337Y6819087D01*
X13350912Y6832663D01*
X13358260Y6850401D01*
Y6869599D01*
X13358223Y6869690D01*
X13365999Y6877466D01*
X13376201Y6873240D01*
X13395399D01*
X13413136Y6880587D01*
X13426714Y6894163D01*
X13434061Y6911901D01*
Y6927511D01*
X13441302Y6933816D01*
X13443446Y6934620D01*
X13450401Y6931740D01*
X13469598D01*
X13487337Y6939087D01*
X13500912Y6952663D01*
X13508260Y6970401D01*
Y6989599D01*
X13504791Y6997972D01*
X13506262Y7001579D01*
X13506729Y7002127D01*
X13519191Y7006383D01*
X13530402Y7001740D01*
X13549600D01*
X13567337Y7009087D01*
X13575552Y7017304D01*
X13585713Y7013095D01*
Y6966091D01*
X13512532Y6892909D01*
X13504111Y6880306D01*
X13501154Y6865440D01*
Y6509403D01*
X13499088Y6507337D01*
X13491740Y6489599D01*
Y6470401D01*
X13499088Y6452663D01*
X13512663Y6439087D01*
X13530402Y6431740D01*
X13549600D01*
X13567337Y6439087D01*
X13580913Y6452663D01*
X13588260Y6470401D01*
Y6489599D01*
X13580913Y6507337D01*
X13578847Y6509403D01*
Y6849350D01*
X13647820Y6918322D01*
X13657979Y6914114D01*
Y6230132D01*
Y6122073D01*
X13569653Y6033747D01*
X13559830Y6019044D01*
X13556380Y6001700D01*
Y5804398D01*
X12760264D01*
X12743683Y5820979D01*
X12722678Y5835014D01*
X12697902Y5839942D01*
X11969984D01*
X11945207Y5835014D01*
X11924203Y5820979D01*
X11570401Y5467182D01*
X11187724D01*
Y5505712D01*
X11062676D01*
Y5472612D01*
X10603854D01*
X10593644Y5490296D01*
X10570296Y5513644D01*
X10558043Y5520718D01*
Y5683875D01*
X10553115Y5708652D01*
X10539080Y5729656D01*
X10488421Y5780314D01*
X10492309Y5789701D01*
X10509808D01*
X10541701Y5798247D01*
X10570296Y5814756D01*
X10593644Y5838104D01*
X10600718Y5850357D01*
X10806201D01*
X10830978Y5855285D01*
X10851982Y5869320D01*
X11140262Y6157600D01*
X11197200D01*
Y6288400D01*
X11189944D01*
Y6764162D01*
X11188948Y6769168D01*
Y6804912D01*
X11184096Y6829308D01*
X11170277Y6849989D01*
X11149595Y6863808D01*
X11125200Y6868661D01*
X11100805Y6863808D01*
X11080123Y6849989D01*
X11066304Y6829308D01*
X11061452Y6804912D01*
Y6769168D01*
X11060456Y6764162D01*
Y6288400D01*
X11056400D01*
Y6256862D01*
X10779384Y5979845D01*
X10600718D01*
X10593644Y5992099D01*
X10570296Y6015446D01*
X10541701Y6031955D01*
X10509808Y6040501D01*
X10476790D01*
X10444896Y6031955D01*
X10416301Y6015446D01*
X10403930Y6003075D01*
X10394543Y6006963D01*
Y6924781D01*
X10463123Y6993361D01*
X10476790Y6989699D01*
X10509808D01*
X10541701Y6998245D01*
X10570296Y7014754D01*
X10593644Y7038101D01*
X10600718Y7050355D01*
X11062676D01*
Y7000964D01*
X11187724D01*
Y7093075D01*
X11189944Y7104238D01*
Y7114123D01*
X11187724Y7125286D01*
Y7207512D01*
X11062676D01*
Y7179843D01*
X10600718D01*
X10593644Y7192096D01*
X10570296Y7215444D01*
X10558043Y7222518D01*
Y7341215D01*
X10553115Y7365991D01*
X10539080Y7386996D01*
X10410422Y7515653D01*
X10411051Y7520138D01*
X10421815Y7523743D01*
X10429001Y7516556D01*
X10457596Y7500047D01*
X10489490Y7491501D01*
X10522508D01*
X10554401Y7500047D01*
X10582996Y7516556D01*
X10606344Y7539904D01*
X10613418Y7552157D01*
X10813898D01*
X10838674Y7557085D01*
X10859678Y7571120D01*
X11147963Y7859400D01*
X11197200D01*
Y7990200D01*
X11189944D01*
Y8465962D01*
X11188948Y8470968D01*
Y8506712D01*
X11184096Y8531108D01*
X11170277Y8551789D01*
X11149595Y8565608D01*
X11125200Y8570461D01*
X11100805Y8565608D01*
X11080123Y8551789D01*
X11066304Y8531108D01*
X11061452Y8506712D01*
Y8470968D01*
X11060456Y8465962D01*
Y7990200D01*
X11056400D01*
Y7950961D01*
X10787080Y7681645D01*
X10613418D01*
X10606344Y7693899D01*
X10582996Y7717246D01*
X10554401Y7733755D01*
X10522508Y7742301D01*
X10489490D01*
X10457596Y7733755D01*
X10429001Y7717246D01*
X10416630Y7704875D01*
X10407243Y7708763D01*
Y8626581D01*
X10475823Y8695161D01*
X10489490Y8691499D01*
X10522508D01*
X10554401Y8700045D01*
X10582996Y8716554D01*
X10606344Y8739901D01*
X10613418Y8752155D01*
X11062676D01*
Y8702764D01*
X11187724D01*
Y8794875D01*
X11189944Y8806038D01*
Y8815923D01*
X11187724Y8827086D01*
Y8909312D01*
X11062676D01*
Y8881643D01*
X10613418D01*
X10606344Y8893896D01*
X10582996Y8917244D01*
X10570743Y8924318D01*
Y9087475D01*
X10565815Y9112252D01*
X10551780Y9133256D01*
X10501121Y9183914D01*
X10505009Y9193301D01*
X10522508D01*
X10554401Y9201847D01*
X10582996Y9218356D01*
X10606344Y9241704D01*
X10613418Y9253957D01*
X10813898D01*
X10838674Y9258885D01*
X10859678Y9272920D01*
X11160823Y9574060D01*
X12659374D01*
X12931233Y9302201D01*
X12931100Y9301704D01*
Y9278296D01*
X12937160Y9255686D01*
X12948862Y9235414D01*
X12965414Y9218862D01*
X12985686Y9207158D01*
X13008296Y9201100D01*
X13031705D01*
X13054314Y9207158D01*
X13074586Y9218862D01*
X13091138Y9235414D01*
X13102843Y9255686D01*
X13108900Y9278296D01*
Y9301704D01*
X13102843Y9324314D01*
X13091138Y9344586D01*
X13074586Y9361138D01*
X13054314Y9372842D01*
X13031705Y9378900D01*
X13008296D01*
X13007799Y9378767D01*
X12720083Y9666483D01*
X12702519Y9678219D01*
X12681800Y9682341D01*
X12681799Y9682341D01*
X11189944D01*
Y10167762D01*
X11188948Y10172768D01*
Y10208512D01*
X11184096Y10232908D01*
X11170277Y10253589D01*
X11149595Y10267408D01*
X11125200Y10272261D01*
X11100805Y10267408D01*
X11080123Y10253589D01*
X11066304Y10232908D01*
X11061452Y10208512D01*
Y10172768D01*
X11060456Y10167762D01*
Y9656817D01*
X10787080Y9383445D01*
X10613418D01*
X10606344Y9395699D01*
X10582996Y9419046D01*
X10554401Y9435555D01*
X10522508Y9444101D01*
X10489490D01*
X10457596Y9435555D01*
X10429001Y9419046D01*
X10416630Y9406675D01*
X10407243Y9410563D01*
Y10328381D01*
X10475823Y10396961D01*
X10489490Y10393299D01*
X10522508D01*
X10554401Y10401845D01*
X10582996Y10418354D01*
X10606344Y10441701D01*
X10613418Y10453955D01*
X11062676D01*
Y10404564D01*
X11187724D01*
Y10496675D01*
X11189944Y10507838D01*
Y10517723D01*
X11187724Y10528886D01*
Y10611112D01*
X11062676D01*
Y10583443D01*
X10613418D01*
X10606344Y10595696D01*
X10582996Y10619044D01*
X10554401Y10635553D01*
X10522508Y10644099D01*
D02*
G37*
G36*
X9411401D02*
X9160601D01*
Y10393299D01*
X9411401D01*
Y10644099D01*
D02*
G37*
G36*
X13310776Y10290800D02*
X13283025D01*
X13256216Y10283617D01*
X13232182Y10269741D01*
X13212560Y10250117D01*
X13198683Y10226083D01*
X13191499Y10199276D01*
Y10171524D01*
X13198683Y10144717D01*
X13212560Y10120683D01*
X13232182Y10101059D01*
X13256216Y10087183D01*
X13283025Y10080000D01*
X13310776D01*
X13337582Y10087183D01*
X13361617Y10101059D01*
X13381241Y10120683D01*
X13395117Y10144717D01*
X13402299Y10171524D01*
Y10199276D01*
X13395117Y10226083D01*
X13381241Y10250117D01*
X13361617Y10269741D01*
X13337582Y10283617D01*
X13310776Y10290800D01*
D02*
G37*
G36*
X13056776D02*
X13029024D01*
X13002217Y10283617D01*
X12978183Y10269741D01*
X12958559Y10250117D01*
X12944682Y10226083D01*
X12937500Y10199276D01*
Y10171524D01*
X12944682Y10144717D01*
X12958559Y10120683D01*
X12978183Y10101059D01*
X13002217Y10087183D01*
X13029024Y10080000D01*
X13056776D01*
X13083583Y10087183D01*
X13107617Y10101059D01*
X13127242Y10120683D01*
X13141116Y10144717D01*
X13148300Y10171524D01*
Y10199276D01*
X13141116Y10226083D01*
X13127242Y10250117D01*
X13107617Y10269741D01*
X13083583Y10283617D01*
X13056776Y10290800D01*
D02*
G37*
G36*
X12802776D02*
X12775024D01*
X12748217Y10283617D01*
X12724183Y10269741D01*
X12704559Y10250117D01*
X12690683Y10226083D01*
X12683500Y10199276D01*
Y10171524D01*
X12690683Y10144717D01*
X12704559Y10120683D01*
X12724183Y10101059D01*
X12748217Y10087183D01*
X12775024Y10080000D01*
X12802776D01*
X12829584Y10087183D01*
X12853616Y10101059D01*
X12873241Y10120683D01*
X12887117Y10144717D01*
X12894299Y10171524D01*
Y10199276D01*
X12887117Y10226083D01*
X12873241Y10250117D01*
X12853616Y10269741D01*
X12829584Y10283617D01*
X12802776Y10290800D01*
D02*
G37*
G36*
X13056776Y10036800D02*
X13029024D01*
X13002217Y10029617D01*
X12978183Y10015741D01*
X12958559Y9996117D01*
X12944682Y9972083D01*
X12937500Y9945276D01*
Y9917524D01*
X12944682Y9890717D01*
X12958559Y9866683D01*
X12978183Y9847059D01*
X13002217Y9833183D01*
X13029024Y9826000D01*
X13056776D01*
X13083583Y9833183D01*
X13107617Y9847059D01*
X13127242Y9866683D01*
X13141116Y9890717D01*
X13148300Y9917524D01*
Y9945276D01*
X13141116Y9972083D01*
X13127242Y9996117D01*
X13107617Y10015741D01*
X13083583Y10029617D01*
X13056776Y10036800D01*
D02*
G37*
G36*
X12802776D02*
X12775024D01*
X12748217Y10029617D01*
X12724183Y10015741D01*
X12704559Y9996117D01*
X12690683Y9972083D01*
X12683500Y9945276D01*
Y9917524D01*
X12690683Y9890717D01*
X12704559Y9866683D01*
X12724183Y9847059D01*
X12748217Y9833183D01*
X12775024Y9826000D01*
X12802776D01*
X12829584Y9833183D01*
X12853616Y9847059D01*
X12873241Y9866683D01*
X12887117Y9890717D01*
X12894299Y9917524D01*
Y9945276D01*
X12887117Y9972083D01*
X12873241Y9996117D01*
X12853616Y10015741D01*
X12829584Y10029617D01*
X12802776Y10036800D01*
D02*
G37*
G36*
X10722508Y10044100D02*
X10689489D01*
X10657596Y10035554D01*
X10629001Y10019045D01*
X10605653Y9995697D01*
X10589144Y9967102D01*
X10580598Y9935209D01*
Y9902191D01*
X10589144Y9870298D01*
X10605653Y9841703D01*
X10629001Y9818355D01*
X10657596Y9801846D01*
X10689489Y9793300D01*
X10722508D01*
X10754401Y9801846D01*
X10782996Y9818355D01*
X10806343Y9841703D01*
X10822853Y9870298D01*
X10831398Y9902191D01*
Y9935209D01*
X10822853Y9967102D01*
X10806343Y9995697D01*
X10782996Y10019045D01*
X10754401Y10035554D01*
X10722508Y10044100D01*
D02*
G37*
G36*
X16377299Y9611903D02*
X16345703D01*
X16314714Y9605738D01*
X16285522Y9593647D01*
X16259251Y9576093D01*
X16236911Y9553752D01*
X16219357Y9527481D01*
X16207266Y9498290D01*
X16201102Y9467301D01*
Y9435705D01*
X16207266Y9404716D01*
X16219357Y9375525D01*
X16236911Y9349253D01*
X16259251Y9326912D01*
X16285522Y9309358D01*
X16314714Y9297267D01*
X16345703Y9291103D01*
X16377299D01*
X16408289Y9297267D01*
X16437479Y9309358D01*
X16463751Y9326912D01*
X16486092Y9349253D01*
X16503645Y9375525D01*
X16515736Y9404716D01*
X16521901Y9435705D01*
Y9467301D01*
X16515736Y9498290D01*
X16503645Y9527481D01*
X16486092Y9553752D01*
X16463751Y9576093D01*
X16437479Y9593647D01*
X16408289Y9605738D01*
X16377299Y9611903D01*
D02*
G37*
G36*
X9302510Y9444101D02*
X9269492D01*
X9237599Y9435555D01*
X9209004Y9419046D01*
X9185656Y9395699D01*
X9169147Y9367104D01*
X9160601Y9335210D01*
Y9302192D01*
X9169147Y9270299D01*
X9185656Y9241704D01*
X9209004Y9218356D01*
X9237599Y9201847D01*
X9269492Y9193301D01*
X9302510D01*
X9334404Y9201847D01*
X9362999Y9218356D01*
X9386346Y9241704D01*
X9402855Y9270299D01*
X9411401Y9302192D01*
Y9335210D01*
X9402855Y9367104D01*
X9386346Y9395699D01*
X9362999Y9419046D01*
X9334404Y9435555D01*
X9302510Y9444101D01*
D02*
G37*
G36*
X9411401Y8942299D02*
X9160601D01*
Y8691499D01*
X9411401D01*
Y8942299D01*
D02*
G37*
G36*
X12865947Y8827800D02*
X12838853D01*
X12812682Y8820788D01*
X12789218Y8807240D01*
X12770060Y8788082D01*
X12756512Y8764618D01*
X12749500Y8738447D01*
Y8711353D01*
X12756512Y8685182D01*
X12770060Y8661718D01*
X12789218Y8642560D01*
X12812682Y8629012D01*
X12838853Y8622000D01*
X12865947D01*
X12892117Y8629012D01*
X12915582Y8642560D01*
X12934740Y8661718D01*
X12948288Y8685182D01*
X12955299Y8711353D01*
Y8738447D01*
X12948288Y8764618D01*
X12934740Y8788082D01*
X12915582Y8807240D01*
X12892117Y8820788D01*
X12865947Y8827800D01*
D02*
G37*
G36*
X16169598Y8848260D02*
X16150401D01*
X16132663Y8840913D01*
X16119087Y8827337D01*
X16111740Y8809599D01*
Y8790401D01*
X16119087Y8772663D01*
X16121153Y8770597D01*
Y8536091D01*
X16023909Y8438846D01*
X15700000D01*
X15685133Y8435889D01*
X15672533Y8427469D01*
X15562531Y8317469D01*
X15554111Y8304866D01*
X15551154Y8290000D01*
Y7159403D01*
X15549088Y7157337D01*
X15541740Y7139599D01*
Y7120401D01*
X15549088Y7102663D01*
X15562663Y7089087D01*
X15580402Y7081740D01*
X15599599D01*
X15617337Y7089087D01*
X15630913Y7102663D01*
X15638260Y7120401D01*
Y7139599D01*
X15630913Y7157337D01*
X15628847Y7159403D01*
Y8273909D01*
X15716090Y8361153D01*
X15790144D01*
X15791144Y8350993D01*
X15764713Y8345736D01*
X15735522Y8333645D01*
X15709251Y8316091D01*
X15686909Y8293749D01*
X15669354Y8267478D01*
X15657265Y8238287D01*
X15651100Y8207298D01*
Y8175702D01*
X15657265Y8144713D01*
X15669354Y8115522D01*
X15686909Y8089251D01*
X15709251Y8066909D01*
X15735522Y8049355D01*
X15764713Y8037264D01*
X15795702Y8031100D01*
X15827298D01*
X15858287Y8037264D01*
X15887479Y8049355D01*
X15913750Y8066909D01*
X15936092Y8089251D01*
X15953645Y8115522D01*
X15965736Y8144713D01*
X15971899Y8175702D01*
Y8207298D01*
X15965736Y8238287D01*
X15953645Y8267478D01*
X15936092Y8293749D01*
X15913750Y8316091D01*
X15887479Y8333645D01*
X15858287Y8345736D01*
X15831856Y8350993D01*
X15832857Y8361153D01*
X16039999D01*
X16054866Y8364111D01*
X16067468Y8372531D01*
X16187469Y8492531D01*
X16195889Y8505134D01*
X16198846Y8520000D01*
Y8558488D01*
X16209006Y8560509D01*
X16219357Y8535521D01*
X16236911Y8509250D01*
X16259251Y8486908D01*
X16285522Y8469354D01*
X16314714Y8457263D01*
X16345703Y8451099D01*
X16377299D01*
X16408289Y8457263D01*
X16437479Y8469354D01*
X16463751Y8486908D01*
X16486092Y8509250D01*
X16503645Y8535521D01*
X16515736Y8564712D01*
X16521901Y8595701D01*
Y8627297D01*
X16515736Y8658286D01*
X16503645Y8687477D01*
X16486092Y8713748D01*
X16463751Y8736090D01*
X16437479Y8753644D01*
X16408289Y8765735D01*
X16377299Y8771899D01*
X16345703D01*
X16314714Y8765735D01*
X16285522Y8753644D01*
X16259251Y8736090D01*
X16236911Y8713748D01*
X16219357Y8687477D01*
X16209006Y8662489D01*
X16198846Y8664510D01*
Y8770597D01*
X16200912Y8772663D01*
X16208260Y8790401D01*
Y8809599D01*
X16200912Y8827337D01*
X16187337Y8840913D01*
X16169598Y8848260D01*
D02*
G37*
G36*
X12639599Y8298260D02*
X12620400D01*
X12602663Y8290913D01*
X12600597Y8288847D01*
X12201901D01*
X12187036Y8285889D01*
X12174433Y8277469D01*
X11765610Y7868645D01*
X11397200D01*
Y7895199D01*
X11256400D01*
Y7764399D01*
X11397200D01*
Y7790952D01*
X11781700D01*
X11796566Y7793909D01*
X11809169Y7802330D01*
X12217992Y8211154D01*
X12600597D01*
X12602663Y8209087D01*
X12620400Y8201740D01*
X12639599D01*
X12657337Y8209087D01*
X12670913Y8222663D01*
X12678260Y8240401D01*
Y8259599D01*
X12670913Y8277337D01*
X12657337Y8290913D01*
X12639599Y8298260D01*
D02*
G37*
G36*
X10722508Y8342300D02*
X10689489D01*
X10657596Y8333754D01*
X10629001Y8317245D01*
X10605653Y8293897D01*
X10589144Y8265302D01*
X10580598Y8233409D01*
Y8200391D01*
X10589144Y8168498D01*
X10605653Y8139903D01*
X10629001Y8116555D01*
X10657596Y8100046D01*
X10689489Y8091500D01*
X10722508D01*
X10754401Y8100046D01*
X10782996Y8116555D01*
X10806343Y8139903D01*
X10822853Y8168498D01*
X10831398Y8200391D01*
Y8233409D01*
X10822853Y8265302D01*
X10806343Y8293897D01*
X10782996Y8317245D01*
X10754401Y8333754D01*
X10722508Y8342300D01*
D02*
G37*
G36*
X11397200Y8085201D02*
X11345850D01*
Y8038851D01*
X11397200D01*
Y8085201D01*
D02*
G37*
G36*
X11307750D02*
X11256400D01*
Y8038851D01*
X11307750D01*
Y8085201D01*
D02*
G37*
G36*
X16377299Y8351900D02*
X16345703D01*
X16314714Y8345736D01*
X16285522Y8333645D01*
X16259251Y8316091D01*
X16236911Y8293749D01*
X16219357Y8267478D01*
X16207266Y8238287D01*
X16201102Y8207298D01*
Y8175702D01*
X16207266Y8144713D01*
X16219357Y8115522D01*
X16236911Y8089251D01*
X16259251Y8066909D01*
X16285522Y8049355D01*
X16314714Y8037264D01*
X16345703Y8031100D01*
X16377299D01*
X16408289Y8037264D01*
X16437479Y8049355D01*
X16463751Y8066909D01*
X16486092Y8089251D01*
X16503645Y8115522D01*
X16515736Y8144713D01*
X16521901Y8175702D01*
Y8207298D01*
X16515736Y8238287D01*
X16503645Y8267478D01*
X16486092Y8293749D01*
X16463751Y8316091D01*
X16437479Y8333645D01*
X16408289Y8345736D01*
X16377299Y8351900D01*
D02*
G37*
G36*
X11397200Y8000751D02*
X11345850D01*
Y7954401D01*
X11397200D01*
Y8000751D01*
D02*
G37*
G36*
X11307750D02*
X11256400D01*
Y7954401D01*
X11307750D01*
Y8000751D01*
D02*
G37*
G36*
X12566099Y7877302D02*
X12375299D01*
Y7833791D01*
X12331506D01*
Y7849504D01*
X12179494D01*
Y7682890D01*
Y7619853D01*
X12255500D01*
X12331506D01*
Y7704303D01*
X12375299D01*
Y7666502D01*
X12502006D01*
X12542945Y7625565D01*
X12557648Y7615741D01*
X12574992Y7612291D01*
X12574994Y7612292D01*
X12794097D01*
X12811440Y7615741D01*
X12826144Y7625566D01*
X12874316Y7673739D01*
X12894078D01*
X12898286Y7663579D01*
X12732005Y7497298D01*
X12605301D01*
Y7298261D01*
X12545847Y7238806D01*
X12407753D01*
Y7162800D01*
Y7086794D01*
X12637404D01*
Y7147240D01*
X12734183Y7244019D01*
X12748218Y7265024D01*
X12752490Y7286498D01*
X12796101D01*
Y7433207D01*
X12955353Y7592459D01*
X13030200D01*
Y7508240D01*
Y7426960D01*
Y7348220D01*
X13151154D01*
Y6699403D01*
X13149088Y6697337D01*
X13141740Y6679600D01*
Y6660401D01*
X13149088Y6642663D01*
X13162663Y6629087D01*
X13180402Y6621740D01*
X13199599D01*
X13217337Y6629087D01*
X13230913Y6642663D01*
X13238260Y6660401D01*
Y6679600D01*
X13230913Y6697337D01*
X13228847Y6699403D01*
Y7386320D01*
X13228320Y7388967D01*
Y7438913D01*
X13343082D01*
X13360400Y7431740D01*
X13379599D01*
X13397337Y7439087D01*
X13410913Y7452663D01*
X13418260Y7470401D01*
Y7489599D01*
X13410913Y7507337D01*
X13409177Y7509073D01*
X13412712Y7519906D01*
X13422636Y7521881D01*
X13435239Y7530301D01*
X13499409Y7594472D01*
X13507829Y7607075D01*
X13510786Y7621941D01*
Y7645850D01*
X13546678Y7681740D01*
X13549600D01*
X13567337Y7689087D01*
X13580913Y7702663D01*
X13588260Y7720401D01*
Y7739599D01*
X13580913Y7757337D01*
X13567337Y7770913D01*
X13549600Y7778260D01*
X13530402D01*
X13512663Y7770913D01*
X13499088Y7757337D01*
X13491740Y7739599D01*
Y7736677D01*
X13444472Y7689409D01*
X13436050Y7676807D01*
X13433093Y7661941D01*
Y7638031D01*
X13391679Y7596617D01*
X13228320D01*
Y7668260D01*
Y7747000D01*
Y7778750D01*
X13129260D01*
X13030200D01*
Y7764381D01*
X12855547D01*
X12855545Y7764381D01*
X12838200Y7760931D01*
X12823499Y7751107D01*
X12823497Y7751106D01*
X12805489Y7733096D01*
X12796101Y7736984D01*
Y7752852D01*
X12700701D01*
X12605301D01*
Y7702933D01*
X12593763D01*
X12566099Y7730596D01*
Y7877302D01*
D02*
G37*
G36*
X14885304Y7861106D02*
X14821046D01*
Y7804150D01*
X14885304D01*
Y7861106D01*
D02*
G37*
G36*
X12796101Y7877302D02*
X12719751D01*
Y7790952D01*
X12796101D01*
Y7877302D01*
D02*
G37*
G36*
X12681651D02*
X12605301D01*
Y7790952D01*
X12681651D01*
Y7877302D01*
D02*
G37*
G36*
X14885304Y7766050D02*
X14821046D01*
Y7709094D01*
X14885304D01*
Y7766050D01*
D02*
G37*
G36*
X16377299Y7931901D02*
X16345703D01*
X16314714Y7925737D01*
X16285522Y7913646D01*
X16259251Y7896092D01*
X16236911Y7873750D01*
X16219357Y7847479D01*
X16207266Y7818288D01*
X16201102Y7787299D01*
Y7755703D01*
X16207266Y7724714D01*
X16219357Y7695523D01*
X16236911Y7669252D01*
X16259251Y7646910D01*
X16285522Y7629356D01*
X16314714Y7617265D01*
X16345703Y7611101D01*
X16377299D01*
X16408289Y7617265D01*
X16437479Y7629356D01*
X16463751Y7646910D01*
X16486092Y7669252D01*
X16503645Y7695523D01*
X16515736Y7724714D01*
X16521901Y7755703D01*
Y7787299D01*
X16515736Y7818288D01*
X16503645Y7847479D01*
X16486092Y7873750D01*
X16463751Y7896092D01*
X16437479Y7913646D01*
X16408289Y7925737D01*
X16377299Y7931901D01*
D02*
G37*
G36*
X15827298D02*
X15795702D01*
X15764713Y7925737D01*
X15735522Y7913646D01*
X15709251Y7896092D01*
X15686909Y7873750D01*
X15669354Y7847479D01*
X15657265Y7818288D01*
X15651100Y7787299D01*
Y7755703D01*
X15657265Y7724714D01*
X15669354Y7695523D01*
X15686909Y7669252D01*
X15709251Y7646910D01*
X15735522Y7629356D01*
X15764713Y7617265D01*
X15795702Y7611101D01*
X15827298D01*
X15858287Y7617265D01*
X15887479Y7629356D01*
X15913750Y7646910D01*
X15936092Y7669252D01*
X15953645Y7695523D01*
X15965736Y7724714D01*
X15971899Y7755703D01*
Y7787299D01*
X15965736Y7818288D01*
X15953645Y7847479D01*
X15936092Y7873750D01*
X15913750Y7896092D01*
X15887479Y7913646D01*
X15858287Y7925737D01*
X15827298Y7931901D01*
D02*
G37*
G36*
X14885304Y7619806D02*
X14821046D01*
Y7562850D01*
X14885304D01*
Y7619806D01*
D02*
G37*
G36*
X12331506Y7581753D02*
X12274550D01*
Y7517496D01*
X12331506D01*
Y7581753D01*
D02*
G37*
G36*
X12236450D02*
X12179494D01*
Y7517496D01*
X12236450D01*
Y7581753D01*
D02*
G37*
G36*
X9302510Y7742301D02*
X9269492D01*
X9237599Y7733755D01*
X9209004Y7717246D01*
X9185656Y7693899D01*
X9169147Y7665304D01*
X9160601Y7633410D01*
Y7600392D01*
X9169147Y7568499D01*
X9185656Y7539904D01*
X9209004Y7516556D01*
X9237599Y7500047D01*
X9269492Y7491501D01*
X9302510D01*
X9334404Y7500047D01*
X9362999Y7516556D01*
X9386346Y7539904D01*
X9402855Y7568499D01*
X9411401Y7600392D01*
Y7633410D01*
X9402855Y7665304D01*
X9386346Y7693899D01*
X9362999Y7717246D01*
X9334404Y7733755D01*
X9302510Y7742301D01*
D02*
G37*
G36*
X14885304Y7524750D02*
X14821046D01*
Y7467794D01*
X14885304D01*
Y7524750D01*
D02*
G37*
G36*
X12566099Y7497298D02*
X12489749D01*
Y7410948D01*
X12566099D01*
Y7497298D01*
D02*
G37*
G36*
X12451649D02*
X12375299D01*
Y7410948D01*
X12451649D01*
Y7497298D01*
D02*
G37*
G36*
X12566099Y7372848D02*
X12489749D01*
Y7286498D01*
X12566099D01*
Y7372848D01*
D02*
G37*
G36*
X12451649D02*
X12375299D01*
Y7286498D01*
X12451649D01*
Y7372848D01*
D02*
G37*
G36*
X12369653Y7238806D02*
X12305396D01*
Y7181850D01*
X12369653D01*
Y7238806D01*
D02*
G37*
G36*
Y7143750D02*
X12305396D01*
Y7086794D01*
X12369653D01*
Y7143750D01*
D02*
G37*
G36*
X14490401Y6840401D02*
X14439049D01*
Y6794051D01*
X14490401D01*
Y6840401D01*
D02*
G37*
G36*
X14400949D02*
X14349600D01*
Y6794051D01*
X14400949D01*
Y6840401D01*
D02*
G37*
G36*
X14870291Y6559550D02*
X14807188D01*
Y6500093D01*
X14870291D01*
Y6559550D01*
D02*
G37*
G36*
X10709808Y6640500D02*
X10676789D01*
X10644896Y6631954D01*
X10616301Y6615445D01*
X10592953Y6592097D01*
X10576444Y6563502D01*
X10567898Y6531609D01*
Y6498591D01*
X10576444Y6466698D01*
X10592953Y6438103D01*
X10616301Y6414755D01*
X10644896Y6398246D01*
X10676789Y6389700D01*
X10709808D01*
X10741701Y6398246D01*
X10770296Y6414755D01*
X10793643Y6438103D01*
X10810153Y6466698D01*
X10818698Y6498591D01*
Y6531609D01*
X10810153Y6563502D01*
X10793643Y6592097D01*
X10770296Y6615445D01*
X10741701Y6631954D01*
X10709808Y6640500D01*
D02*
G37*
G36*
X11397200Y6383401D02*
X11345850D01*
Y6337051D01*
X11397200D01*
Y6383401D01*
D02*
G37*
G36*
X11307750D02*
X11256400D01*
Y6337051D01*
X11307750D01*
Y6383401D01*
D02*
G37*
G36*
X11397200Y6298951D02*
X11345850D01*
Y6252601D01*
X11397200D01*
Y6298951D01*
D02*
G37*
G36*
X11307750D02*
X11256400D01*
Y6252601D01*
X11307750D01*
Y6298951D01*
D02*
G37*
G36*
X15827298Y6251899D02*
X15795702D01*
X15764713Y6245735D01*
X15735522Y6233644D01*
X15709251Y6216090D01*
X15686909Y6193748D01*
X15669354Y6167477D01*
X15657265Y6138286D01*
X15655685Y6130346D01*
X15538507D01*
Y6173691D01*
X15381493D01*
Y6128847D01*
X15159402D01*
X15157336Y6130913D01*
X15139600Y6138260D01*
X15120401D01*
X15102663Y6130913D01*
X15089087Y6117337D01*
X15081740Y6099599D01*
Y6080401D01*
X15089087Y6062663D01*
X15102663Y6049087D01*
X15120401Y6041740D01*
X15139600D01*
X15157336Y6049087D01*
X15159402Y6051154D01*
X15381493D01*
Y6009387D01*
Y5947511D01*
X15460001D01*
X15538507D01*
Y6009387D01*
Y6052653D01*
X15655685D01*
X15657265Y6044712D01*
X15669354Y6015521D01*
X15686909Y5989250D01*
X15709251Y5966908D01*
X15735522Y5949354D01*
X15764713Y5937263D01*
X15795702Y5931099D01*
X15827298D01*
X15858287Y5937263D01*
X15887479Y5949354D01*
X15913750Y5966908D01*
X15936092Y5989250D01*
X15953645Y6015521D01*
X15965736Y6044712D01*
X15971899Y6075701D01*
Y6107297D01*
X15965736Y6138286D01*
X15953645Y6167477D01*
X15936092Y6193748D01*
X15913750Y6216090D01*
X15887479Y6233644D01*
X15858287Y6245735D01*
X15827298Y6251899D01*
D02*
G37*
G36*
X11397200Y6193399D02*
X11256400D01*
Y6062599D01*
X11397200D01*
Y6091153D01*
X11550597D01*
X11552663Y6089087D01*
X11570401Y6081740D01*
X11589599D01*
X11607337Y6089087D01*
X11620913Y6102663D01*
X11628260Y6120401D01*
Y6139599D01*
X11620913Y6157337D01*
X11607337Y6170913D01*
X11589599Y6178260D01*
X11570401D01*
X11552663Y6170913D01*
X11550597Y6168846D01*
X11397200D01*
Y6193399D01*
D02*
G37*
G36*
X17108778Y6266899D02*
X17074226D01*
X17040340Y6260158D01*
X17008420Y6246936D01*
X16979692Y6227741D01*
X16955260Y6203310D01*
X16936066Y6174582D01*
X16922842Y6142661D01*
X16916103Y6108774D01*
Y6074224D01*
X16922842Y6040337D01*
X16936066Y6008416D01*
X16955260Y5979688D01*
X16979692Y5955257D01*
X17008420Y5936062D01*
X17040340Y5922840D01*
X17074226Y5916099D01*
X17108778D01*
X17142665Y5922840D01*
X17174585Y5936062D01*
X17203313Y5955257D01*
X17227745Y5979688D01*
X17246941Y6008416D01*
X17260162Y6040337D01*
X17266902Y6074224D01*
Y6108774D01*
X17260162Y6142661D01*
X17246941Y6174582D01*
X17227745Y6203310D01*
X17203313Y6227741D01*
X17174585Y6246936D01*
X17142665Y6260158D01*
X17108778Y6266899D01*
D02*
G37*
G36*
X15538507Y5909411D02*
X15479051D01*
Y5846309D01*
X15538507D01*
Y5909411D01*
D02*
G37*
G36*
X15440952D02*
X15381493D01*
Y5846309D01*
X15440952D01*
Y5909411D01*
D02*
G37*
G36*
X10171704Y6388900D02*
X10148296D01*
X10125686Y6382842D01*
X10105414Y6371138D01*
X10088862Y6354586D01*
X10077158Y6334314D01*
X10071100Y6311704D01*
Y6302659D01*
X9307139Y5538699D01*
X9147901D01*
Y5287899D01*
X9398701D01*
Y5447137D01*
X10162664Y6211100D01*
X10171704D01*
X10194314Y6217159D01*
X10214586Y6228862D01*
X10231138Y6245414D01*
X10242842Y6265686D01*
X10248900Y6288296D01*
Y6311704D01*
X10242842Y6334314D01*
X10231138Y6354586D01*
X10214586Y6371138D01*
X10194314Y6382842D01*
X10171704Y6388900D01*
D02*
G37*
G36*
X15772842Y5294599D02*
X15740755D01*
X15709283Y5288339D01*
X15679637Y5276059D01*
X15652956Y5258232D01*
X15630266Y5235542D01*
X15612439Y5208861D01*
X15600159Y5179215D01*
X15593900Y5147743D01*
Y5115655D01*
X15600159Y5084183D01*
X15612439Y5054537D01*
X15630266Y5027857D01*
X15652956Y5005167D01*
X15679637Y4987339D01*
X15709283Y4975059D01*
X15740755Y4968799D01*
X15772842D01*
X15804315Y4975059D01*
X15833960Y4987339D01*
X15860641Y5005167D01*
X15883331Y5027857D01*
X15901158Y5054537D01*
X15913438Y5084183D01*
X15919698Y5115655D01*
Y5147743D01*
X15913438Y5179215D01*
X15901158Y5208861D01*
X15883331Y5235542D01*
X15860641Y5258232D01*
X15833960Y5276059D01*
X15804315Y5288339D01*
X15772842Y5294599D01*
D02*
G37*
G36*
X12915753Y4787706D02*
X12851495D01*
Y4730750D01*
X12915753D01*
Y4787706D01*
D02*
G37*
G36*
X10709808Y4938700D02*
X10676789D01*
X10644896Y4930154D01*
X10616301Y4913645D01*
X10592953Y4890297D01*
X10576444Y4861702D01*
X10567898Y4829809D01*
Y4796791D01*
X10576444Y4764898D01*
X10592953Y4736303D01*
X10616301Y4712955D01*
X10644896Y4696446D01*
X10676789Y4687900D01*
X10709808D01*
X10741701Y4696446D01*
X10770296Y4712955D01*
X10793643Y4736303D01*
X10810153Y4764898D01*
X10818698Y4796791D01*
Y4829809D01*
X10810153Y4861702D01*
X10793643Y4890297D01*
X10770296Y4913645D01*
X10741701Y4930154D01*
X10709808Y4938700D01*
D02*
G37*
G36*
X12915753Y4692650D02*
X12851495D01*
Y4635694D01*
X12915753D01*
Y4692650D01*
D02*
G37*
G36*
X11397200Y4681601D02*
X11345850D01*
Y4635251D01*
X11397200D01*
Y4681601D01*
D02*
G37*
G36*
X11307750D02*
X11256400D01*
Y4635251D01*
X11307750D01*
Y4681601D01*
D02*
G37*
G36*
X11397200Y4597151D02*
X11345850D01*
Y4550801D01*
X11397200D01*
Y4597151D01*
D02*
G37*
G36*
X11307750D02*
X11256400D01*
Y4550801D01*
X11307750D01*
Y4597151D01*
D02*
G37*
G36*
X12915753Y4533706D02*
X12851495D01*
Y4476750D01*
X12915753D01*
Y4533706D01*
D02*
G37*
G36*
X11519600Y4548260D02*
X11500401D01*
X11482663Y4540913D01*
X11469087Y4527337D01*
X11461740Y4509599D01*
Y4506677D01*
X11420108Y4465045D01*
X11397200D01*
Y4491599D01*
X11256400D01*
Y4360799D01*
X11397200D01*
Y4387352D01*
X11436199D01*
X11451065Y4390309D01*
X11463668Y4398730D01*
X11516677Y4451740D01*
X11519600D01*
X11537337Y4459087D01*
X11550913Y4472663D01*
X11558260Y4490400D01*
Y4509599D01*
X11550913Y4527337D01*
X11537337Y4540913D01*
X11519600Y4548260D01*
D02*
G37*
G36*
X12915753Y4438650D02*
X12851495D01*
Y4381694D01*
X12915753D01*
Y4438650D01*
D02*
G37*
G36*
X13374110Y4421907D02*
X13311009D01*
Y4362450D01*
X13374110D01*
Y4421907D01*
D02*
G37*
G36*
X11125200Y5166861D02*
X11100805Y5162008D01*
X11080123Y5148189D01*
X11066304Y5127508D01*
X11061452Y5103112D01*
Y5067245D01*
X11060456Y5062157D01*
X11061259Y5058189D01*
Y4586600D01*
X11056400D01*
Y4547361D01*
X10787080Y4278045D01*
X10600718D01*
X10593644Y4290299D01*
X10570296Y4313646D01*
X10541701Y4330155D01*
X10509808Y4338701D01*
X10476790D01*
X10444896Y4330155D01*
X10416301Y4313646D01*
X10392954Y4290299D01*
X10376445Y4261704D01*
X10367899Y4229810D01*
Y4196792D01*
X10376445Y4164899D01*
X10392954Y4136304D01*
X10416301Y4112956D01*
X10444896Y4096447D01*
X10476790Y4087901D01*
X10509808D01*
X10541701Y4096447D01*
X10570296Y4112956D01*
X10593644Y4136304D01*
X10600718Y4148557D01*
X10813898D01*
X10838674Y4153485D01*
X10859678Y4167520D01*
X11147963Y4455800D01*
X11197200D01*
Y4586600D01*
X11190747D01*
Y5061565D01*
X11190726Y5061667D01*
X11190746Y5061770D01*
X11188948Y5070662D01*
Y5103112D01*
X11184096Y5127508D01*
X11170277Y5148189D01*
X11149595Y5162008D01*
X11125200Y5166861D01*
D02*
G37*
G36*
X13374110Y4324350D02*
X13311009D01*
Y4264893D01*
X13374110D01*
Y4324350D01*
D02*
G37*
G36*
X9289810Y4338701D02*
X9256792D01*
X9224899Y4330155D01*
X9196304Y4313646D01*
X9172956Y4290299D01*
X9156447Y4261704D01*
X9147901Y4229810D01*
Y4196792D01*
X9156447Y4164899D01*
X9172956Y4136304D01*
X9196304Y4112956D01*
X9224899Y4096447D01*
X9256792Y4087901D01*
X9289810D01*
X9321704Y4096447D01*
X9350299Y4112956D01*
X9373646Y4136304D01*
X9390155Y4164899D01*
X9398701Y4196792D01*
Y4229810D01*
X9390155Y4261704D01*
X9373646Y4290299D01*
X9350299Y4313646D01*
X9321704Y4330155D01*
X9289810Y4338701D01*
D02*
G37*
%LPD*%
G36*
X16219357Y9795524D02*
X16236911Y9769252D01*
X16245863Y9760300D01*
X16071481Y9585918D01*
X16063060Y9573315D01*
X16060103Y9558450D01*
Y9510243D01*
X15980804Y9430945D01*
X15973994Y9434586D01*
X15971899Y9436408D01*
Y9467301D01*
X15965736Y9498290D01*
X15953645Y9527481D01*
X15936092Y9553752D01*
X15913750Y9576093D01*
X15910851Y9578031D01*
X15913799Y9587753D01*
X16027400D01*
X16042265Y9590711D01*
X16054869Y9599131D01*
X16194569Y9738831D01*
X16202989Y9751434D01*
X16205946Y9766300D01*
Y9801349D01*
X16216107Y9803370D01*
X16219357Y9795524D01*
D02*
G37*
G36*
X15667728Y9379454D02*
X15669354Y9375525D01*
X15673853Y9368793D01*
X14786121Y8481060D01*
X14773366D01*
X14772897Y8481544D01*
X14767728Y8489790D01*
X15651717Y9373780D01*
X15656264Y9380583D01*
X15667728Y9379454D01*
D02*
G37*
G36*
X15686909Y9769252D02*
X15708752Y9747408D01*
X15708562Y9744640D01*
X15706319Y9737248D01*
X15654703D01*
X15639836Y9734291D01*
X15627232Y9725870D01*
X15504631Y9603269D01*
X15496211Y9590666D01*
X15493253Y9575800D01*
Y9464891D01*
X14577531Y8549169D01*
X14569112Y8536566D01*
X14566153Y8521700D01*
Y8424005D01*
X14558253Y8418620D01*
X14555994Y8418771D01*
X14554947Y8420470D01*
Y8543709D01*
X15470670Y9459431D01*
X15479089Y9472034D01*
X15482047Y9486900D01*
Y9610509D01*
X15657391Y9785853D01*
X15675816D01*
X15686909Y9769252D01*
D02*
G37*
G36*
X15735522Y9309358D02*
X15742136Y9306619D01*
X15744118Y9296654D01*
X14776123Y8328660D01*
X14773201D01*
X14755463Y8321313D01*
X14741887Y8307737D01*
X14734540Y8289999D01*
Y8270801D01*
X14741887Y8253063D01*
X14755463Y8239487D01*
X14773201Y8232140D01*
X14792400D01*
X14810136Y8239487D01*
X14823714Y8253063D01*
X14831059Y8270801D01*
Y8273723D01*
X15653793Y9096456D01*
X15662407Y9090701D01*
X15657265Y9078285D01*
X15651100Y9047296D01*
Y9023543D01*
X15626796D01*
X15611929Y9020586D01*
X15599329Y9012165D01*
X14804810Y8217647D01*
X14598019D01*
X14594385Y8222469D01*
X14599818Y8232140D01*
X14614600D01*
X14632336Y8239487D01*
X14645914Y8253063D01*
X14653259Y8270801D01*
Y8289999D01*
X14646704Y8305826D01*
X14647626Y8307556D01*
X14658678Y8309770D01*
X14660440Y8309111D01*
X14666563Y8302987D01*
X14684302Y8295640D01*
X14703499D01*
X14721237Y8302987D01*
X14734813Y8316563D01*
X14742160Y8334301D01*
Y8353499D01*
X14734813Y8371237D01*
X14732747Y8373303D01*
Y8401329D01*
X14738136Y8403767D01*
X14742908Y8404444D01*
X14755463Y8391887D01*
X14773201Y8384540D01*
X14792400D01*
X14810136Y8391887D01*
X14823714Y8405463D01*
X14826057Y8411122D01*
X15728790Y9313856D01*
X15735522Y9309358D01*
D02*
G37*
G36*
X15709656Y9649395D02*
X15596780Y9536520D01*
X15588359Y9523917D01*
X15585402Y9509051D01*
Y9417339D01*
X14666431Y8498369D01*
X14658011Y8485766D01*
X14655054Y8470900D01*
Y8382370D01*
X14654007Y8380671D01*
X14651746Y8380520D01*
X14643848Y8385905D01*
Y8505609D01*
X15559569Y9421331D01*
X15567989Y9433934D01*
X15570947Y9448800D01*
Y9559709D01*
X15670792Y9659555D01*
X15705447D01*
X15709656Y9649395D01*
D02*
G37*
G36*
X14553296Y7564870D02*
Y7467794D01*
X14575105D01*
Y7404308D01*
X14562390D01*
Y7228847D01*
X14539403D01*
X14537337Y7230913D01*
X14519598Y7238260D01*
X14500401D01*
X14482663Y7230913D01*
X14469087Y7217337D01*
X14461740Y7199600D01*
Y7180401D01*
X14469087Y7162663D01*
X14482663Y7149087D01*
X14500401Y7141740D01*
X14519598D01*
X14537337Y7149087D01*
X14539403Y7151154D01*
X14562390D01*
Y7062892D01*
X14723810D01*
Y7064822D01*
X14791493D01*
Y7036547D01*
X14556178D01*
X14253891Y7338833D01*
X14257779Y7348220D01*
X14316843D01*
X14362531Y7302531D01*
X14375134Y7294111D01*
X14389999Y7291154D01*
X14470596D01*
X14472662Y7289087D01*
X14490401Y7281740D01*
X14509599D01*
X14527338Y7289087D01*
X14540913Y7302663D01*
X14548260Y7320401D01*
Y7339599D01*
X14540913Y7357337D01*
X14527338Y7370913D01*
X14509599Y7378260D01*
X14490401D01*
X14472662Y7370913D01*
X14470596Y7368847D01*
X14406091D01*
X14376401Y7398537D01*
Y7440183D01*
X14424467D01*
X14425262Y7439387D01*
X14443001Y7432040D01*
X14462199D01*
X14479938Y7439387D01*
X14493513Y7452963D01*
X14500861Y7470701D01*
Y7489899D01*
X14493513Y7507637D01*
X14479938Y7521213D01*
X14464867Y7527456D01*
X14462199Y7528560D01*
X14459372Y7538720D01*
X14462759Y7546901D01*
Y7566099D01*
X14455412Y7583837D01*
X14441837Y7597413D01*
X14426765Y7603656D01*
X14424100Y7604760D01*
X14421272Y7614920D01*
X14424660Y7623101D01*
Y7642299D01*
X14417827Y7658796D01*
X14421667Y7668956D01*
X14449210D01*
X14553296Y7564870D01*
D02*
G37*
G36*
X13940823Y8261695D02*
X13942531Y8259138D01*
X13943854Y8257816D01*
Y7620000D01*
X13946811Y7605134D01*
X13955231Y7592531D01*
X14136893Y7410869D01*
Y7395731D01*
X14127507Y7391843D01*
X13919946Y7599404D01*
Y8271891D01*
X13930107Y8272412D01*
X13940823Y8261695D01*
D02*
G37*
G36*
X16069432Y6739006D02*
X16070184Y6735224D01*
X16084219Y6714219D01*
X16124219Y6674219D01*
X16145222Y6660184D01*
X16170000Y6655256D01*
X16269650D01*
X16272733Y6645096D01*
X16259251Y6636089D01*
X16236911Y6613748D01*
X16219357Y6587476D01*
X16207266Y6558285D01*
X16201102Y6527296D01*
Y6495700D01*
X16207266Y6464711D01*
X16219357Y6435520D01*
X16236911Y6409249D01*
X16259251Y6386907D01*
X16285522Y6369354D01*
X16314714Y6357262D01*
X16345703Y6351098D01*
X16377299D01*
X16408289Y6357262D01*
X16437479Y6369354D01*
X16463751Y6386907D01*
X16486092Y6409249D01*
X16503645Y6435520D01*
X16505292Y6439492D01*
X16515256Y6437510D01*
Y6165488D01*
X16505292Y6163506D01*
X16503645Y6167477D01*
X16486092Y6193748D01*
X16463751Y6216090D01*
X16437479Y6233644D01*
X16408289Y6245735D01*
X16377299Y6251899D01*
X16345703D01*
X16314714Y6245735D01*
X16285522Y6233644D01*
X16265004Y6219933D01*
X16118848Y6366091D01*
Y6570000D01*
X16115891Y6584866D01*
X16107469Y6597468D01*
X15947469Y6757469D01*
X15934866Y6765889D01*
X15920000Y6768847D01*
X15864510D01*
X15862488Y6779007D01*
X15887479Y6789358D01*
X15913750Y6806912D01*
X15936092Y6829253D01*
X15936374Y6829676D01*
X15978761D01*
X16069432Y6739006D01*
D02*
G37*
G36*
X13665199Y5734800D02*
Y5562600D01*
X12433300D01*
Y5765800D01*
X12446000Y5778500D01*
X13621500D01*
X13665199Y5734800D01*
D02*
G37*
G36*
X14388353Y5432209D02*
Y4888091D01*
X14348692D01*
Y4707605D01*
X14251707D01*
Y4888091D01*
X14237944D01*
Y4979809D01*
X14251707D01*
Y5142887D01*
Y5205989D01*
X14173199D01*
X14094693D01*
Y5142887D01*
Y4979809D01*
X14108456D01*
Y4888091D01*
X14094693D01*
Y4871262D01*
X13995206D01*
Y4890404D01*
X13843195D01*
Y4860903D01*
X13720911D01*
X13673985Y4907826D01*
X13672777Y4909636D01*
X13667563Y4913119D01*
Y4923279D01*
X13672777Y4926763D01*
X13684714Y4944628D01*
X13688905Y4965700D01*
X13684714Y4986772D01*
X13678410Y4996207D01*
X13683841Y5006367D01*
X13843195D01*
Y4977496D01*
X13995206D01*
Y5142890D01*
Y5309504D01*
X13843195D01*
Y5265044D01*
X13621146D01*
X13606281Y5262087D01*
X13593677Y5253666D01*
X13454720Y5114708D01*
X13383722D01*
Y5060701D01*
X13364671D01*
Y5041651D01*
X13261552D01*
Y5039340D01*
X13251393Y5035132D01*
X13156462Y5130062D01*
X13170450Y5144050D01*
Y5536702D01*
X13271693D01*
Y5486253D01*
X13347701D01*
X13423706D01*
Y5536702D01*
X13525694D01*
Y5486253D01*
X13601700D01*
X13677705D01*
Y5540408D01*
X13683511Y5544288D01*
X13689127Y5552689D01*
X13691098Y5562600D01*
Y5587253D01*
X14233308D01*
X14388353Y5432209D01*
D02*
G37*
G36*
X13843195Y5115137D02*
X13637003D01*
X13633841Y5115766D01*
X13578928D01*
X13575040Y5125153D01*
X13637238Y5187351D01*
X13843195D01*
Y5115137D01*
D02*
G37*
G36*
X13246100Y5003800D02*
X13436600D01*
Y4927600D01*
X12674600D01*
Y5123700D01*
X12675843Y5126700D01*
X13123199D01*
X13246100Y5003800D01*
D02*
G37*
G36*
X13440222Y4812121D02*
Y4758131D01*
X13443179Y4743265D01*
X13451601Y4730663D01*
X13496970Y4685293D01*
X13493082Y4675907D01*
X13402570D01*
X13314497Y4763978D01*
X13293494Y4778013D01*
X13268716Y4782941D01*
X13228629D01*
X13224741Y4792328D01*
X13248727Y4816314D01*
X13312141D01*
X13315559Y4815634D01*
X13413785D01*
X13430061Y4818872D01*
X13440222Y4812121D01*
D02*
G37*
%LPC*%
G36*
X13677705Y5448153D02*
X13620750D01*
Y5383896D01*
X13677705D01*
Y5448153D01*
D02*
G37*
G36*
X13582651D02*
X13525694D01*
Y5383896D01*
X13582651D01*
Y5448153D01*
D02*
G37*
G36*
X13423706D02*
X13366750D01*
Y5383896D01*
X13423706D01*
Y5448153D01*
D02*
G37*
G36*
X13328650D02*
X13271693D01*
Y5383896D01*
X13328650D01*
Y5448153D01*
D02*
G37*
G36*
X14251707Y5307191D02*
X14192250D01*
Y5244089D01*
X14251707D01*
Y5307191D01*
D02*
G37*
G36*
X14154150D02*
X14094693D01*
Y5244089D01*
X14154150D01*
Y5307191D01*
D02*
G37*
G36*
X13345622Y5114708D02*
X13261552D01*
Y5079751D01*
X13345622D01*
Y5114708D01*
D02*
G37*
%LPD*%
D10*
X11326800Y7829799D02*
D03*
Y8019801D02*
D03*
X11126800Y7924800D02*
D03*
Y4521200D02*
D03*
X11326800Y4616201D02*
D03*
Y4426199D02*
D03*
X11126800Y6223000D02*
D03*
X11326800Y6318001D02*
D03*
Y6127999D02*
D03*
X14420000Y6584999D02*
D03*
Y6775001D02*
D03*
X14220000Y6680000D02*
D03*
D11*
X13129260Y8196580D02*
D03*
Y8117840D02*
D03*
Y8036560D02*
D03*
Y7957820D02*
D03*
Y7876540D02*
D03*
Y7797800D02*
D03*
Y7719060D02*
D03*
Y7637780D02*
D03*
Y7559040D02*
D03*
Y7477760D02*
D03*
X14277341Y7399020D02*
D03*
Y7477760D02*
D03*
Y7559040D02*
D03*
Y7637780D02*
D03*
Y7719060D02*
D03*
Y7797800D02*
D03*
Y7876540D02*
D03*
Y7957820D02*
D03*
Y8036560D02*
D03*
Y8117840D02*
D03*
Y8196580D02*
D03*
X13129260Y7399020D02*
D03*
D12*
X13304520Y7223760D02*
D03*
X13383260D02*
D03*
X13464540D02*
D03*
X13543280D02*
D03*
X13624561D02*
D03*
X13703300D02*
D03*
X13782040D02*
D03*
X13863319D02*
D03*
X13942059D02*
D03*
X14023340D02*
D03*
X14102080D02*
D03*
Y8371840D02*
D03*
X14023340D02*
D03*
X13782040D02*
D03*
X13703300D02*
D03*
X13624561D02*
D03*
X13543280D02*
D03*
X13464540D02*
D03*
X13383260D02*
D03*
X13304520D02*
D03*
X13942059D02*
D03*
X13863319D02*
D03*
D13*
X14801997Y7543800D02*
D03*
X14636603D02*
D03*
X14801997Y7785100D02*
D03*
X14636603D02*
D03*
X12554097Y7162800D02*
D03*
X12388703D02*
D03*
X13100197Y4457700D02*
D03*
X12934802D02*
D03*
X13100197Y4711700D02*
D03*
X12934802D02*
D03*
D14*
X15110001Y6958461D02*
D03*
Y7121539D02*
D03*
X14870000Y6960000D02*
D03*
Y7123079D02*
D03*
X15460001Y5928461D02*
D03*
Y6091539D02*
D03*
X14173199Y4805939D02*
D03*
Y4642861D02*
D03*
Y5061961D02*
D03*
Y5225039D02*
D03*
X12865100Y8209539D02*
D03*
Y8046461D02*
D03*
X14427200Y4805939D02*
D03*
Y4642861D02*
D03*
D15*
X14625061Y6324600D02*
D03*
X14788139D02*
D03*
X14625061Y6578600D02*
D03*
X14788139D02*
D03*
X13393161Y4597400D02*
D03*
X13556239D02*
D03*
Y4343400D02*
D03*
X13393161D02*
D03*
D16*
X14320000Y6230000D02*
D03*
X14225000Y6430000D02*
D03*
X14414999D02*
D03*
D17*
X11125200Y5062362D02*
D03*
Y6764162D02*
D03*
Y8465962D02*
D03*
Y10167762D02*
D03*
D18*
Y5402438D02*
D03*
Y7104238D02*
D03*
Y8806038D02*
D03*
Y10507838D02*
D03*
D19*
X12470699Y7391898D02*
D03*
Y7771902D02*
D03*
X12700701D02*
D03*
Y7391898D02*
D03*
D20*
X14643100Y7311146D02*
D03*
Y7156054D02*
D03*
D21*
X12801601Y5666699D02*
D03*
Y5026701D02*
D03*
D22*
X13364671Y5060701D02*
D03*
D23*
Y4965700D02*
D03*
Y4870699D02*
D03*
X13584727D02*
D03*
Y4965700D02*
D03*
Y5060701D02*
D03*
D24*
X13919200Y5060803D02*
D03*
Y5226197D02*
D03*
X12255500Y7766197D02*
D03*
Y7600803D02*
D03*
X13347701Y5467203D02*
D03*
Y5632597D02*
D03*
X13601700Y5467203D02*
D03*
Y5632597D02*
D03*
X13919200Y4641703D02*
D03*
Y4807097D02*
D03*
D25*
X11781700Y7829799D02*
X12201901Y8250000D01*
X12630000D01*
X11326800Y7829799D02*
X11781700D01*
X12865100Y8209539D02*
Y8331200D01*
X12820650Y8375650D02*
X12865100Y8331200D01*
X13370081Y8215418D02*
X13389999Y8195498D01*
Y8190000D02*
Y8195498D01*
X13370081Y8215418D02*
Y8274790D01*
X13370560Y8275270D02*
Y8359140D01*
X13370081Y8274790D02*
X13370560Y8275270D01*
X13448077Y8249403D02*
X13464540Y8265865D01*
Y8371840D01*
X13448077Y8243904D02*
Y8249403D01*
X13370560Y8359140D02*
X13383260Y8371840D01*
X13266068Y8223888D02*
X13302260Y8260080D01*
X13251180Y8220000D02*
X13255067Y8223888D01*
X13302260Y8260080D02*
Y8369580D01*
X13255067Y8223888D02*
X13266068D01*
X13539999Y6865440D02*
X13624561Y6950000D01*
X13539999Y6480000D02*
Y6865440D01*
X13624561Y6950000D02*
Y7223760D01*
X13539999Y7050000D02*
X13543280Y7053280D01*
Y7223760D01*
X13881100Y7583313D02*
Y8296001D01*
X13876019Y8301081D02*
Y8359140D01*
Y8301081D02*
X13881100Y8296001D01*
Y7583313D02*
X14155533Y7308880D01*
X14389999Y7330000D02*
X14500000D01*
X14325600Y7399020D02*
X14338300Y7386320D01*
Y7381700D02*
X14389999Y7330000D01*
X14277341Y7399020D02*
X14325600D01*
X14338300Y7381700D02*
Y7386320D01*
X13367760Y7477760D02*
X13370000Y7480000D01*
X13129260Y7477760D02*
X13367760D01*
X14430000Y8560000D02*
Y8565498D01*
X14461736Y8597234D02*
Y8632436D01*
X14430000Y8565498D02*
X14461736Y8597234D01*
Y8632436D02*
X15354300Y9525000D01*
Y9834301D01*
X14249400Y8382000D02*
X14376401D01*
X14249400Y8270240D02*
X14373860D01*
X14407843Y8705543D02*
X15265401Y9563100D01*
X14344888Y8669825D02*
X14380605Y8705543D01*
X14339389Y8669825D02*
X14344888D01*
X14380605Y8705543D02*
X14407843D01*
X15265401Y9563100D02*
Y10165400D01*
X14516100Y8382000D02*
Y8559800D01*
X15443201Y9486900D01*
X13471941Y7661941D02*
X13539999Y7730000D01*
X13471941Y7621941D02*
Y7661941D01*
X13407770Y7557770D02*
X13471941Y7621941D01*
X14605000Y8280400D02*
Y8521700D01*
X15532100Y9448800D01*
X13130530Y7557770D02*
X13407770D01*
X15030000Y6580000D02*
Y6582322D01*
X14988055Y6624266D02*
X15030000Y6582322D01*
X14988055Y6624266D02*
Y6641944D01*
X14950000Y6680000D02*
X14988055Y6641944D01*
X14390488Y6680000D02*
X14950000D01*
X15089999Y6956354D02*
X15128177Y6918177D01*
X15710001Y6730000D02*
X15920000D01*
X15089999Y6956354D02*
Y6960000D01*
Y6956354D02*
X15128177Y6918177D01*
X15920000Y6730000D02*
X16080000Y6570000D01*
X15570000Y6870000D02*
X15710001Y6730000D01*
X15310001Y7100000D02*
Y7220000D01*
X15020000Y7350000D02*
X15180000D01*
X15310001Y7220000D01*
X15166328Y6956327D02*
X15310001Y7100000D01*
X15504120Y6735880D02*
X15681700Y6558300D01*
X15094119Y6735880D02*
X15504120D01*
X15681700Y6558300D02*
X15764697D01*
X15811501Y6511498D01*
X14510001Y7190000D02*
X14600490D01*
X15128177Y6918177D02*
X15176353Y6870000D01*
X15128177Y6918177D02*
Y6954098D01*
X15130408Y6956327D02*
X15166328D01*
X15128177Y6954098D02*
X15130408Y6956327D01*
X16080000Y6350000D02*
X16338501Y6091499D01*
X16361501D01*
X16080000Y6350000D02*
Y6570000D01*
X15130000Y6090000D02*
X15458461D01*
X15460001Y6091539D01*
X15460040Y6091499D01*
X15811501D01*
X14155533Y7231268D02*
X14388400Y6998400D01*
X14540086Y6997700D02*
X14832300D01*
X15176353Y6870000D02*
X15570000D01*
X14914052Y6915948D02*
X15094119Y6735880D01*
X14870000Y6956354D02*
Y6960000D01*
Y6956354D02*
X14910406Y6915948D01*
X14914052D01*
X14832300Y6997700D02*
X14870000Y6960000D01*
X14175740Y7362047D02*
X14540086Y6997700D01*
X16160001Y8520000D02*
Y8800000D01*
X16201498Y9031498D02*
X16361501D01*
X15970000Y8800000D02*
X16201498Y9031498D01*
X15569099Y8800000D02*
X15970000D01*
X14859000Y8089900D02*
X15569099Y8800000D01*
X16039999Y8400000D02*
X16160001Y8520000D01*
X15700000Y8400000D02*
X16039999D01*
X15589999Y8290000D02*
X15700000Y8400000D01*
X15589999Y7130000D02*
Y8290000D01*
X14225000Y6435000D02*
X14311038Y6521039D01*
Y6600551D01*
X14225000Y6430000D02*
Y6435000D01*
X14311038Y6600551D02*
X14390488Y6680000D01*
X11328801Y6130000D02*
X11580000D01*
X11326800Y6127999D02*
X11328801Y6130000D01*
X11436199Y4426199D02*
X11510000Y4500000D01*
X11326800Y4426199D02*
X11436199D01*
X13302260Y8369580D02*
X13304520Y8371840D01*
X12820650Y8375650D02*
X13449300Y9004300D01*
X12981706Y8390341D02*
X13550900Y8959535D01*
X13652499Y8915400D02*
Y9766300D01*
X13804900Y9918700D02*
Y9931400D01*
X13296899Y9918700D02*
X13449300Y9766300D01*
X13017265Y8280166D02*
X13652499Y8915400D01*
Y9766300D02*
X13804900Y9918700D01*
X13550900Y8959535D02*
Y9931400D01*
X13449300Y9004300D02*
Y9766300D01*
X13462270Y7221490D02*
X13464540Y7223760D01*
X13460001Y6980000D02*
X13462270Y6982270D01*
Y7221490D01*
X13463271Y7225030D02*
X13464540Y7223760D01*
X14643100Y7136054D02*
Y7147390D01*
X14600490Y7190000D02*
X14643100Y7147390D01*
X14175740Y7362047D02*
Y7426960D01*
X13708299Y6980000D02*
X13770000D01*
X13703300Y6985000D02*
X13708299Y6980000D01*
X13177299Y7399020D02*
X13189999Y7386320D01*
X13129260Y7399020D02*
X13177299D01*
X13189999Y6670000D02*
Y7386320D01*
X13304520Y6870979D02*
Y7223760D01*
Y6870979D02*
X13310001Y6865499D01*
Y6860000D02*
Y6865499D01*
X13942059Y7101840D02*
Y7223760D01*
Y7101840D02*
X13944600Y7099300D01*
X14022070Y7100570D02*
Y7222490D01*
X14109700Y7099300D02*
Y7112000D01*
X14102080Y7119620D02*
X14109700Y7112000D01*
X14102080Y7119620D02*
Y7223760D01*
X14020799Y7099300D02*
X14022070Y7100570D01*
X13383260Y6924040D02*
X13385800Y6921500D01*
X13383260Y6924040D02*
Y7223760D01*
X14155533Y7231268D02*
Y7308880D01*
X13982700Y7620000D02*
Y8273907D01*
Y7620000D02*
X14175740Y7426960D01*
X13970000Y8286607D02*
X13982700Y8273907D01*
X13970000Y8286607D02*
Y8287455D01*
X13954761Y8302695D02*
X13970000Y8287455D01*
X13942059Y8371840D02*
X13954761Y8359140D01*
Y8302695D02*
Y8359140D01*
X13863319Y8371840D02*
X13876019Y8359140D01*
X14022070Y7222490D02*
X14023340Y7223760D01*
X12981706Y8064500D02*
X13009647Y8036560D01*
X12981706Y8064500D02*
Y8390341D01*
X13017265Y8132719D02*
X13032146Y8117840D01*
X13017265Y8132719D02*
Y8280166D01*
X13009647Y8036560D02*
X13116560D01*
X14693900Y8343900D02*
Y8470900D01*
X14782800Y8432800D02*
X14786688Y8436688D01*
X14782800Y8280400D02*
X15780803Y9278403D01*
X14786688Y8436688D02*
X14796684D01*
X15811501Y9451503D01*
X14693900Y8470900D02*
X15624249Y9401249D01*
Y9509051D01*
X15883200Y9278403D02*
X16098950Y9494152D01*
X16361501Y9821001D02*
Y9871502D01*
X16098950Y9494152D02*
Y9558450D01*
X16361501Y9821001D01*
X15959502Y9698402D02*
X16065500Y9804400D01*
X15654703Y9698402D02*
X15959502D01*
X16065500Y9804400D02*
Y10415499D01*
X16361501Y10711500D01*
X16167101Y9766300D02*
Y10097099D01*
X16027400Y9626600D02*
X16167101Y9766300D01*
Y10097099D02*
X16361501Y10291501D01*
X15741797Y9626600D02*
X16027400D01*
X15265401Y10165400D02*
X15811501Y10711500D01*
X15354300Y9834301D02*
X15811501Y10291501D01*
X15443201Y9626600D02*
X15641299Y9824700D01*
X15443201Y9486900D02*
Y9626600D01*
X15532100Y9448800D02*
Y9575800D01*
X15654703Y9698402D01*
X15641299Y9824700D02*
X15764697D01*
X15811501Y9871502D01*
X14612477Y7809225D02*
X14636603Y7785100D01*
X14279880Y7874000D02*
X14490700D01*
X14555475Y7809225D02*
X14612477D01*
X14490700Y7874000D02*
X14555475Y7809225D01*
X14554201Y8089900D02*
X14859000D01*
X14579601Y8178800D02*
X14820900D01*
X15626796Y8984696D01*
X14376401Y8382000D02*
X14579601Y8178800D01*
X14373860Y8270240D02*
X14554201Y8089900D01*
X15780803Y9278403D02*
X15883200D01*
X12598400Y8597900D02*
X12820650Y8375650D01*
X15626796Y8984696D02*
X15764697D01*
X15811501Y9031498D01*
X13129260Y7559040D02*
X13130530Y7557770D01*
X15624249Y9509051D02*
X15741797Y9626600D01*
X14278610Y7557770D02*
X14413229D01*
X14414500Y7556500D01*
X14451331Y7479030D02*
X14452600Y7480300D01*
X14278610Y7479030D02*
X14451331D01*
X14180602Y6707500D02*
Y6712499D01*
X13863319Y7029780D02*
X14180602Y6712499D01*
X14207901Y6680200D02*
X14212900D01*
X14180602Y6707500D02*
X14207901Y6680200D01*
X13863319Y7029780D02*
Y7223760D01*
X14277341Y7637780D02*
X14279880Y7635240D01*
X14373860D01*
X14376401Y7632700D01*
X14277341Y7559040D02*
X14278610Y7557770D01*
X14277341Y7477760D02*
X14278610Y7479030D01*
X13296899Y9918700D02*
Y9931400D01*
X14288602Y7707803D02*
X14465300D01*
X14277341Y7719060D02*
X14288602Y7707803D01*
X14465300D02*
X14629303Y7543800D01*
X14636603D01*
X12598400Y8597900D02*
Y8724900D01*
X14277341Y7876540D02*
X14279880Y7874000D01*
X13129260Y8196580D02*
Y8265160D01*
X13182600Y8318500D01*
X12865100Y8046461D02*
Y8050108D01*
X13032146Y8117840D02*
X13129260D01*
X12946146Y8026400D02*
Y8124845D01*
X12865100Y8205892D02*
X12946146Y8124845D01*
X12865100Y8205892D02*
Y8209539D01*
X13014726Y7957820D02*
X13116560D01*
X12946146Y8026400D02*
X13014726Y7957820D01*
X13030200Y7877713D02*
X13115387D01*
X12865100Y8042813D02*
X13030200Y7877713D01*
X12865100Y8042813D02*
Y8046461D01*
X13601700Y5632597D02*
X13608197Y5626100D01*
X14249400D01*
X13479070Y4758131D02*
Y4909155D01*
X13535614Y4965700D01*
X13470331Y5020518D02*
Y5075382D01*
X13556239Y4597400D02*
Y4680961D01*
X13364671Y4965700D02*
X13415508D01*
X13556239Y4343400D02*
Y4597400D01*
X13479070Y4758131D02*
X13556239Y4680961D01*
X13470331Y5075382D02*
X13621146Y5226197D01*
X13919200D01*
X13415508Y4965700D02*
X13470331Y5020518D01*
X13535614Y4965700D02*
X13584727D01*
X14249400Y5626100D02*
X14427200Y5448300D01*
Y4805939D02*
Y5448300D01*
D26*
X13320000Y7876540D02*
X13667105D01*
X13132719Y7880000D02*
X13320000D01*
X13129260Y7876540D02*
X13132719Y7880000D01*
X13782040Y7840345D02*
Y8371840D01*
X13700000Y7407938D02*
X13703300Y7404638D01*
X13700000Y7407938D02*
Y7585184D01*
X13703300Y6985000D02*
Y7404638D01*
X13700000Y7585184D02*
X13742670Y7627854D01*
Y7800975D01*
X15142000Y5588000D02*
X15850499D01*
X14788139Y5941861D02*
X15142000Y5588000D01*
X14788139Y5941861D02*
Y6324600D01*
X14417500Y6581800D02*
X14621861D01*
X14416299D02*
X14417500D01*
Y6582499D01*
Y6432500D02*
Y6581800D01*
X14414999Y6430000D02*
X14417500Y6432500D01*
Y6582499D02*
X14420000Y6584999D01*
X14412900Y6585199D02*
X14416299Y6581800D01*
X14621861D02*
X14625061Y6578600D01*
X13703300Y6230132D02*
Y6985000D01*
Y6103300D02*
Y6230132D01*
X14319868D01*
X14320000Y6230000D01*
X13601700Y6001700D02*
X13703300Y6103300D01*
X13601700Y5632597D02*
Y6001700D01*
X13742670Y7800975D02*
X13782040Y7840345D01*
X12574991Y7657612D02*
X12794097D01*
X12855545Y7719060D01*
X12470699Y7761900D02*
X12574991Y7657612D01*
X15850499Y5588000D02*
X16306799Y5131699D01*
X14412900Y6585199D02*
X14416202Y6581902D01*
X13667105Y7876540D02*
X13742670Y7800975D01*
X12855545Y7719060D02*
X13129260D01*
X12470699Y7761900D02*
Y7771902D01*
X12936581Y7637780D02*
X13129260D01*
X12700701Y7401900D02*
X12936581Y7637780D01*
X12700701Y7391898D02*
Y7401900D01*
D27*
X12681800Y9628200D02*
X13020000Y9290000D01*
X11125200Y9628200D02*
X12681800D01*
D28*
X8860000Y4990000D02*
X10360000Y3490000D01*
X8860000Y4990000D02*
Y6701798D01*
X10360000Y3490000D02*
X16100000D01*
X8860000Y6701798D02*
X9273301Y7115099D01*
X16100000Y3490000D02*
X16750000Y4140000D01*
Y7010000D01*
X9040000Y5050000D02*
Y5681800D01*
Y5050000D02*
X10431920Y3658080D01*
X9040000Y5681800D02*
X9273301Y5915101D01*
X10431920Y3658080D02*
X16038080D01*
X16620000Y7140000D02*
X16750000Y7010000D01*
X16038080Y3658080D02*
X16580000Y4200000D01*
X12911942Y3830000D02*
X13176971Y4095029D01*
X12910001Y3830000D02*
X12911942D01*
X13162000Y4110000D02*
X15705099D01*
X13100197Y4171803D02*
X13176971Y4095029D01*
X15705099Y4110000D02*
X16306799Y4711700D01*
X13081000Y4718197D02*
X13268716D01*
X13081000Y4705497D02*
X13093893D01*
X16535362Y6720000D02*
X16580000Y6675363D01*
Y4200000D02*
Y6675363D01*
X16170000Y6720000D02*
X16535362D01*
X16130000Y6760000D02*
X16170000Y6720000D01*
X16130000Y6760000D02*
Y6770000D01*
X16005579Y6894421D02*
X16130000Y6770000D01*
X15848582Y6894421D02*
X16005579D01*
X15811501Y6931503D02*
X15848582Y6894421D01*
X16227844Y7140000D02*
X16620000D01*
X15811501Y7351502D02*
X15848582Y7314420D01*
X16053424D01*
X16227844Y7140000D01*
X14870000Y7123079D02*
X15089999D01*
X14649586Y7129566D02*
X14863512D01*
X14643100Y7136054D02*
X14649586Y7129566D01*
X14863512D02*
X14870000Y7123079D01*
X14625061Y6324600D02*
Y6578600D01*
X11125200Y9628200D02*
Y10167762D01*
X10160000Y6299998D02*
Y6300000D01*
X9273301Y5413299D02*
X10160000Y6299998D01*
X10806201Y5915101D02*
X11125200Y6234100D01*
X13093893Y4705497D02*
X13100197Y4699193D01*
X14639848Y7294397D02*
Y7540549D01*
X14636603Y7543800D02*
X14639848Y7540549D01*
Y7294397D02*
X14643100Y7291146D01*
X10493299Y5915101D02*
X10806201D01*
X10493299Y4213301D02*
X10813898D01*
X11121801Y4521200D01*
X11126800D01*
X11126003Y4521998D02*
Y5061565D01*
X11125200Y5062362D02*
X11126003Y5061565D01*
Y4521998D02*
X11126800Y4521200D01*
X10813898Y7616901D02*
X11123402Y7926400D01*
X11125200D01*
X10505999Y7616901D02*
X10813898D01*
Y9318701D02*
X11123402Y9628200D01*
X10505999Y9318701D02*
X10813898D01*
X11123402Y9628200D02*
X11125200D01*
Y6234100D02*
Y6764162D01*
Y7926400D02*
Y8465962D01*
Y7104238D02*
Y7114123D01*
X10493299Y7115099D02*
X11124225D01*
X11125200Y7114123D01*
X10505999Y8816899D02*
X11124225D01*
X11125200Y8815923D01*
Y8806038D02*
Y8815923D01*
X11124225Y10518699D02*
X11125200Y10517723D01*
Y10507838D02*
Y10517723D01*
X10505999Y10518699D02*
X11124225D01*
X10342499Y9250975D02*
X10505999Y9087475D01*
X10342499Y9250975D02*
Y10355199D01*
X10505999Y8816899D02*
Y9087475D01*
X10342499Y10355199D02*
X10505999Y10518699D01*
X10342499Y7492014D02*
Y8653399D01*
X10505999Y8816899D01*
X10493299Y7115099D02*
Y7341215D01*
X10342499Y7492014D02*
X10493299Y7341215D01*
X10329799Y5847375D02*
X10493299Y5683875D01*
X10329799Y5847375D02*
Y6951599D01*
X10493299Y7115099D01*
Y5413299D02*
Y5683875D01*
X11125200Y5402438D02*
Y5406893D01*
X11124225Y5407868D02*
X11125200Y5406893D01*
X10498729Y5407868D02*
X11124225D01*
X10493299Y5413299D02*
X10498729Y5407868D01*
X11597218Y5402438D02*
X11969984Y5775198D01*
X12777003Y5666699D02*
X12801601D01*
X12735098Y5708599D02*
X12777003Y5666699D01*
X12735098Y5708599D02*
Y5738002D01*
X12697902Y5775198D02*
X12735098Y5738002D01*
X11969984Y5775198D02*
X12697902D01*
X11125200Y5402438D02*
X11597218D01*
X12255500Y7766197D02*
X12258350Y7769047D01*
X12467849D01*
X12470699Y7771902D01*
X12688402Y7289800D02*
Y7379599D01*
X12700701Y7391898D01*
X12561402Y7162800D02*
X12688402Y7289800D01*
X12554097Y7162800D02*
X12561402D01*
X14173199Y4805939D02*
Y5061961D01*
X14419839Y4635500D02*
X14427200Y4642861D01*
X14172621Y4806518D02*
X14173199Y4805939D01*
X13919200Y4641703D02*
X13919778Y4642282D01*
X13100197Y4457700D02*
Y4699193D01*
X14414500Y4635500D02*
X14419839D01*
X13268716Y4718197D02*
X13389513Y4597400D01*
X13919778Y4806518D02*
X14172621D01*
X13100197Y4171803D02*
Y4457700D01*
X14173199Y4642861D02*
X14427200D01*
X13919778Y4642282D02*
X14172621D01*
X13389513Y4597400D02*
X13393161D01*
X14172621Y4642282D02*
X14173199Y4642861D01*
D29*
X13698383Y4806518D02*
X13919778D01*
X13083698Y4728200D02*
X13226202Y4870699D01*
X13919148Y5060752D02*
X13919200Y5060803D01*
X13584779Y5060752D02*
X13919148D01*
X13584727Y4870699D02*
X13634203D01*
X13226202D02*
X13364671D01*
X13584727Y5060701D02*
X13584779Y5060752D01*
X13634203Y4870699D02*
X13698383Y4806518D01*
D30*
X12927502Y4711700D02*
X12934802D01*
D31*
X12788900Y10185400D02*
D03*
X13042900D02*
D03*
X13296899D02*
D03*
X13550900D02*
D03*
X12788900Y9931400D02*
D03*
X13042900D02*
D03*
X13296899D02*
D03*
X13550900D02*
D03*
X13804900D02*
D03*
D32*
Y10185400D02*
D03*
D33*
X10693298Y6515100D02*
D03*
X10493299Y7115099D02*
D03*
Y5915101D02*
D03*
X9273301D02*
D03*
X10505999Y10518699D02*
D03*
Y9318701D02*
D03*
X9286001D02*
D03*
X10705998Y9918700D02*
D03*
X9273301Y4213301D02*
D03*
X10493299D02*
D03*
Y5413299D02*
D03*
X10693298Y4813300D02*
D03*
X9286001Y7616901D02*
D03*
X10505999D02*
D03*
Y8816899D02*
D03*
X10705998Y8216900D02*
D03*
D34*
X9273301Y7115099D02*
D03*
X9286001Y10518699D02*
D03*
X9273301Y5413299D02*
D03*
X9286001Y8816899D02*
D03*
D35*
X16361501Y6091499D02*
D03*
X15811501D02*
D03*
Y6511498D02*
D03*
Y6931503D02*
D03*
Y7351502D02*
D03*
Y7771501D02*
D03*
Y8191500D02*
D03*
Y8611499D02*
D03*
Y9031498D02*
D03*
Y9451503D02*
D03*
Y9871502D02*
D03*
Y10291501D02*
D03*
Y10711500D02*
D03*
X16361501Y6511498D02*
D03*
Y7351502D02*
D03*
Y9031498D02*
D03*
Y10291501D02*
D03*
Y9871502D02*
D03*
Y9451503D02*
D03*
Y8611499D02*
D03*
Y8191500D02*
D03*
Y7771501D02*
D03*
Y6931503D02*
D03*
D36*
Y10711500D02*
D03*
D37*
X17091502D02*
D03*
Y6091499D02*
D03*
D38*
X12344400Y8724900D02*
D03*
D39*
X12598400D02*
D03*
X12852400D02*
D03*
D40*
X16306799Y5131699D02*
D03*
D41*
X15756799D02*
D03*
X16306799Y4711700D02*
D03*
X15756799D02*
D03*
D42*
X14089999Y7910000D02*
D03*
X13470000Y8000000D02*
D03*
X17653000Y11176000D02*
D03*
X17525999Y10922000D02*
D03*
X17653000Y10668000D02*
D03*
X17525999Y10414000D02*
D03*
X17653000Y10160000D02*
D03*
X17525999Y9906000D02*
D03*
X17653000Y9652000D02*
D03*
X17525999Y9398000D02*
D03*
X17653000Y9144000D02*
D03*
X17525999Y8890000D02*
D03*
X17653000Y8636000D02*
D03*
X17525999Y8382000D02*
D03*
X17653000Y8128000D02*
D03*
X17525999Y7874000D02*
D03*
X17653000Y7620000D02*
D03*
X17525999Y7366000D02*
D03*
X17653000Y7112000D02*
D03*
X17525999Y6858000D02*
D03*
X17653000Y6604000D02*
D03*
X17525999Y6350000D02*
D03*
X17653000Y6096000D02*
D03*
X17525999Y5842000D02*
D03*
X17653000Y5588000D02*
D03*
X17525999Y5334000D02*
D03*
X17653000Y5080000D02*
D03*
X17525999Y4826000D02*
D03*
X17653000Y4572000D02*
D03*
X17525999Y4318000D02*
D03*
X17653000Y4064000D02*
D03*
X17525999Y3302000D02*
D03*
X17399001Y11176000D02*
D03*
X17272000Y10922000D02*
D03*
X17399001Y10668000D02*
D03*
X17272000Y10414000D02*
D03*
X17399001Y10160000D02*
D03*
X17272000Y9906000D02*
D03*
X17399001Y9652000D02*
D03*
X17272000Y9398000D02*
D03*
X17399001Y9144000D02*
D03*
X17272000Y8890000D02*
D03*
X17399001Y8636000D02*
D03*
X17272000Y8382000D02*
D03*
X17399001Y8128000D02*
D03*
X17272000Y7874000D02*
D03*
X17399001Y7620000D02*
D03*
X17272000Y7366000D02*
D03*
X17399001Y7112000D02*
D03*
X17272000Y6858000D02*
D03*
X17399001Y6604000D02*
D03*
X17272000Y6350000D02*
D03*
X17399001Y6096000D02*
D03*
X17272000Y5842000D02*
D03*
X17399001Y5588000D02*
D03*
X17272000Y5334000D02*
D03*
X17399001Y5080000D02*
D03*
X17272000Y4826000D02*
D03*
X17399001Y4572000D02*
D03*
X17272000Y4318000D02*
D03*
X17399001Y4064000D02*
D03*
X17272000Y3302000D02*
D03*
X17145000Y11176000D02*
D03*
X17017999Y10922000D02*
D03*
Y10414000D02*
D03*
X17145000Y10160000D02*
D03*
X17017999Y9906000D02*
D03*
X17145000Y9652000D02*
D03*
X17017999Y9398000D02*
D03*
X17145000Y9144000D02*
D03*
X17017999Y8890000D02*
D03*
X17145000Y8636000D02*
D03*
X17017999Y8382000D02*
D03*
X17145000Y8128000D02*
D03*
X17017999Y7874000D02*
D03*
X17145000Y7620000D02*
D03*
X17017999Y7366000D02*
D03*
X17145000Y7112000D02*
D03*
X17017999Y6858000D02*
D03*
X17145000Y6604000D02*
D03*
X17017999Y6350000D02*
D03*
Y5842000D02*
D03*
X17145000Y5588000D02*
D03*
X17017999Y5334000D02*
D03*
X17145000Y5080000D02*
D03*
X17017999Y4826000D02*
D03*
X17145000Y4572000D02*
D03*
X17017999Y4318000D02*
D03*
X17145000Y4064000D02*
D03*
X17017999Y3810000D02*
D03*
Y3302000D02*
D03*
X16891000Y11176000D02*
D03*
Y7620000D02*
D03*
X16764000Y7366000D02*
D03*
X16891000Y7112000D02*
D03*
Y6604000D02*
D03*
Y6096000D02*
D03*
Y5588000D02*
D03*
Y5080000D02*
D03*
Y4572000D02*
D03*
Y4064000D02*
D03*
X16764000Y3810000D02*
D03*
X16891000Y3556000D02*
D03*
X16764000Y3302000D02*
D03*
X16510001Y10414000D02*
D03*
Y8890000D02*
D03*
Y8382000D02*
D03*
X16637000Y3556000D02*
D03*
X16510001Y3302000D02*
D03*
X16383000Y9652000D02*
D03*
X16256000Y8382000D02*
D03*
Y6350000D02*
D03*
Y5842000D02*
D03*
X16383000Y5588000D02*
D03*
X16256000Y5334000D02*
D03*
X16383000Y3556000D02*
D03*
X16256000Y3302000D02*
D03*
X16128999Y10668000D02*
D03*
X16002000Y7874000D02*
D03*
X16128999Y7620000D02*
D03*
Y6096000D02*
D03*
X16002000Y5842000D02*
D03*
X16128999Y5588000D02*
D03*
X16002000Y5334000D02*
D03*
Y4826000D02*
D03*
Y3810000D02*
D03*
Y3302000D02*
D03*
X15875000Y7112000D02*
D03*
X15748000Y5842000D02*
D03*
Y5334000D02*
D03*
X15875000Y4572000D02*
D03*
X15748000Y4318000D02*
D03*
X15875000Y4064000D02*
D03*
X15748000Y3302000D02*
D03*
X15621001Y10668000D02*
D03*
Y8636000D02*
D03*
X15494000Y6350000D02*
D03*
Y5334000D02*
D03*
X15621001Y4572000D02*
D03*
X15494000Y4318000D02*
D03*
Y3810000D02*
D03*
Y3302000D02*
D03*
X15367000Y10668000D02*
D03*
X15239999Y10414000D02*
D03*
X15367000Y10160000D02*
D03*
X15239999Y7874000D02*
D03*
X15367000Y6604000D02*
D03*
X15239999Y6350000D02*
D03*
Y5842000D02*
D03*
Y5334000D02*
D03*
X15367000Y5080000D02*
D03*
X15239999Y4826000D02*
D03*
X15367000Y4572000D02*
D03*
X15239999Y4318000D02*
D03*
Y3810000D02*
D03*
Y3302000D02*
D03*
X15113000Y10668000D02*
D03*
Y10160000D02*
D03*
X14986000Y9906000D02*
D03*
X15113000Y9652000D02*
D03*
X14986000Y9398000D02*
D03*
X15113000Y8128000D02*
D03*
Y7620000D02*
D03*
X14986000Y6350000D02*
D03*
Y5334000D02*
D03*
X15113000Y5080000D02*
D03*
X14986000Y4826000D02*
D03*
Y3810000D02*
D03*
Y3302000D02*
D03*
X14859000Y10160000D02*
D03*
X14732001Y9906000D02*
D03*
X14859000Y9652000D02*
D03*
X14732001Y9398000D02*
D03*
Y5842000D02*
D03*
X14859000Y5588000D02*
D03*
X14732001Y5334000D02*
D03*
X14859000Y5080000D02*
D03*
X14732001Y4826000D02*
D03*
X14859000Y4572000D02*
D03*
X14732001Y4318000D02*
D03*
Y3810000D02*
D03*
Y3302000D02*
D03*
X14605000Y10668000D02*
D03*
X14478000Y10414000D02*
D03*
X14605000Y10160000D02*
D03*
X14478000Y9906000D02*
D03*
X14605000Y9652000D02*
D03*
X14478000Y9398000D02*
D03*
X14605000Y9144000D02*
D03*
X14478000Y5842000D02*
D03*
X14605000Y5588000D02*
D03*
Y5080000D02*
D03*
Y4572000D02*
D03*
X14478000Y4318000D02*
D03*
Y3810000D02*
D03*
Y3302000D02*
D03*
X14350999Y10668000D02*
D03*
X14224001Y10414000D02*
D03*
X14350999Y10160000D02*
D03*
X14224001Y9906000D02*
D03*
X14350999Y9652000D02*
D03*
X14224001Y9398000D02*
D03*
X14350999Y9144000D02*
D03*
X14224001Y5842000D02*
D03*
X14350999Y5080000D02*
D03*
X14224001Y4318000D02*
D03*
Y3810000D02*
D03*
Y3302000D02*
D03*
X14097000Y10668000D02*
D03*
X13970000Y10414000D02*
D03*
X14097000Y10160000D02*
D03*
X13970000Y9906000D02*
D03*
X14097000Y9652000D02*
D03*
X13970000Y9398000D02*
D03*
X14097000Y9144000D02*
D03*
Y8636000D02*
D03*
X13970000Y6350000D02*
D03*
Y5842000D02*
D03*
Y4318000D02*
D03*
Y3810000D02*
D03*
Y3302000D02*
D03*
X13842999Y10668000D02*
D03*
X13716000Y10414000D02*
D03*
X13842999Y9652000D02*
D03*
Y9144000D02*
D03*
Y8636000D02*
D03*
X13716000Y5842000D02*
D03*
Y5334000D02*
D03*
Y4318000D02*
D03*
Y3810000D02*
D03*
Y3302000D02*
D03*
X13589000Y10668000D02*
D03*
X13462000Y10414000D02*
D03*
X13589000Y8636000D02*
D03*
X13462000Y7366000D02*
D03*
X13589000Y6096000D02*
D03*
X13462000Y5842000D02*
D03*
Y5334000D02*
D03*
Y3810000D02*
D03*
Y3302000D02*
D03*
X13335001Y10668000D02*
D03*
X13208000Y10414000D02*
D03*
X13335001Y9652000D02*
D03*
X13208000Y9398000D02*
D03*
X13335001Y9144000D02*
D03*
X13208000Y6350000D02*
D03*
X13335001Y6096000D02*
D03*
X13208000Y5842000D02*
D03*
Y3810000D02*
D03*
Y3302000D02*
D03*
X13081000Y10668000D02*
D03*
X12953999Y10414000D02*
D03*
X13081000Y9652000D02*
D03*
X12953999Y8890000D02*
D03*
X13081000Y7112000D02*
D03*
X12953999Y6858000D02*
D03*
X13081000Y6604000D02*
D03*
X12953999Y6350000D02*
D03*
X13081000Y6096000D02*
D03*
X12953999Y5842000D02*
D03*
Y4826000D02*
D03*
Y4318000D02*
D03*
Y3302000D02*
D03*
X12827000Y10668000D02*
D03*
X12700000Y10414000D02*
D03*
Y9398000D02*
D03*
Y8890000D02*
D03*
Y8382000D02*
D03*
Y6858000D02*
D03*
X12827000Y6604000D02*
D03*
X12700000Y6350000D02*
D03*
X12827000Y6096000D02*
D03*
X12700000Y4826000D02*
D03*
X12827000Y4572000D02*
D03*
X12700000Y4318000D02*
D03*
Y3302000D02*
D03*
X12573000Y10668000D02*
D03*
X12446000Y10414000D02*
D03*
X12573000Y10160000D02*
D03*
X12446000Y9906000D02*
D03*
Y9398000D02*
D03*
X12573000Y9144000D02*
D03*
X12446000Y8890000D02*
D03*
Y8382000D02*
D03*
X12573000Y8128000D02*
D03*
Y6604000D02*
D03*
X12446000Y6350000D02*
D03*
X12573000Y6096000D02*
D03*
X12446000Y4826000D02*
D03*
X12573000Y4572000D02*
D03*
X12446000Y4318000D02*
D03*
Y3302000D02*
D03*
X12319000Y10668000D02*
D03*
X12192000Y10414000D02*
D03*
X12319000Y10160000D02*
D03*
X12192000Y9906000D02*
D03*
Y9398000D02*
D03*
X12319000Y9144000D02*
D03*
X12192000Y8890000D02*
D03*
Y8382000D02*
D03*
X12319000Y8128000D02*
D03*
X12192000Y7366000D02*
D03*
Y6858000D02*
D03*
Y6350000D02*
D03*
X12319000Y6096000D02*
D03*
Y5588000D02*
D03*
X12192000Y5334000D02*
D03*
X12319000Y5080000D02*
D03*
X12192000Y4826000D02*
D03*
X12319000Y4572000D02*
D03*
X12192000Y4318000D02*
D03*
Y3302000D02*
D03*
X12065000Y10668000D02*
D03*
X11938000Y10414000D02*
D03*
X12065000Y10160000D02*
D03*
X11938000Y9906000D02*
D03*
Y9398000D02*
D03*
X12065000Y9144000D02*
D03*
X11938000Y8890000D02*
D03*
X12065000Y8636000D02*
D03*
X11938000Y8382000D02*
D03*
Y7874000D02*
D03*
X12065000Y7620000D02*
D03*
X11938000Y7366000D02*
D03*
X12065000Y7112000D02*
D03*
X11938000Y6858000D02*
D03*
X12065000Y6096000D02*
D03*
Y5588000D02*
D03*
X11938000Y5334000D02*
D03*
X12065000Y5080000D02*
D03*
X11938000Y4826000D02*
D03*
X12065000Y4572000D02*
D03*
X11938000Y4318000D02*
D03*
Y3302000D02*
D03*
X11811000Y10668000D02*
D03*
X11684000Y10414000D02*
D03*
X11811000Y10160000D02*
D03*
X11684000Y9906000D02*
D03*
Y9398000D02*
D03*
X11811000Y9144000D02*
D03*
X11684000Y8890000D02*
D03*
X11811000Y8636000D02*
D03*
X11684000Y8382000D02*
D03*
X11811000Y8128000D02*
D03*
Y7620000D02*
D03*
X11684000Y7366000D02*
D03*
X11811000Y7112000D02*
D03*
X11684000Y6858000D02*
D03*
X11811000Y6604000D02*
D03*
X11684000Y6350000D02*
D03*
Y5842000D02*
D03*
Y5334000D02*
D03*
X11811000Y5080000D02*
D03*
X11684000Y4826000D02*
D03*
X11811000Y4572000D02*
D03*
X11684000Y4318000D02*
D03*
Y3302000D02*
D03*
X11557000Y10668000D02*
D03*
X11430000Y10414000D02*
D03*
X11557000Y10160000D02*
D03*
X11430000Y9906000D02*
D03*
Y9398000D02*
D03*
X11557000Y9144000D02*
D03*
X11430000Y8890000D02*
D03*
X11557000Y8636000D02*
D03*
X11430000Y8382000D02*
D03*
X11557000Y8128000D02*
D03*
Y7620000D02*
D03*
X11430000Y7366000D02*
D03*
X11557000Y7112000D02*
D03*
X11430000Y6858000D02*
D03*
X11557000Y6604000D02*
D03*
X11430000Y6350000D02*
D03*
Y5842000D02*
D03*
Y4826000D02*
D03*
Y4318000D02*
D03*
Y3302000D02*
D03*
X11303000Y10668000D02*
D03*
Y10160000D02*
D03*
X11176000Y9398000D02*
D03*
X11303000Y9144000D02*
D03*
Y8636000D02*
D03*
Y8128000D02*
D03*
Y7620000D02*
D03*
X11176000Y7366000D02*
D03*
X11303000Y7112000D02*
D03*
Y6604000D02*
D03*
X11176000Y5842000D02*
D03*
X11303000Y5588000D02*
D03*
Y5080000D02*
D03*
X11176000Y4318000D02*
D03*
Y3302000D02*
D03*
X11049000Y10668000D02*
D03*
X10922000Y10414000D02*
D03*
Y9906000D02*
D03*
X11049000Y9144000D02*
D03*
Y8636000D02*
D03*
X10922000Y8382000D02*
D03*
Y7874000D02*
D03*
X11049000Y7620000D02*
D03*
X10922000Y7366000D02*
D03*
Y6858000D02*
D03*
Y6350000D02*
D03*
Y5842000D02*
D03*
X11049000Y5588000D02*
D03*
X10922000Y4826000D02*
D03*
Y3302000D02*
D03*
X10668000Y10922000D02*
D03*
X10795000Y9652000D02*
D03*
Y9144000D02*
D03*
Y8636000D02*
D03*
X10668000Y8382000D02*
D03*
Y7874000D02*
D03*
Y7366000D02*
D03*
Y6858000D02*
D03*
Y6350000D02*
D03*
X10795000Y6096000D02*
D03*
Y5588000D02*
D03*
Y5080000D02*
D03*
Y4572000D02*
D03*
X10668000Y4318000D02*
D03*
X10795000Y4064000D02*
D03*
X10668000Y3302000D02*
D03*
X10414000Y10922000D02*
D03*
X10541000Y10668000D02*
D03*
Y10160000D02*
D03*
Y8636000D02*
D03*
Y6096000D02*
D03*
Y5080000D02*
D03*
X10414000Y4826000D02*
D03*
X10541000Y4572000D02*
D03*
Y4064000D02*
D03*
X10414000Y3302000D02*
D03*
X10160000Y10922000D02*
D03*
X10287000Y10668000D02*
D03*
X10160000Y10414000D02*
D03*
Y9906000D02*
D03*
X10287000Y9144000D02*
D03*
X10160000Y8890000D02*
D03*
Y8382000D02*
D03*
Y7874000D02*
D03*
Y7366000D02*
D03*
X10287000Y7112000D02*
D03*
X10160000Y6858000D02*
D03*
Y5842000D02*
D03*
X10287000Y5588000D02*
D03*
X10160000Y5334000D02*
D03*
X10287000Y5080000D02*
D03*
X10160000Y4826000D02*
D03*
X10287000Y4572000D02*
D03*
X10160000Y4318000D02*
D03*
Y3302000D02*
D03*
X9906000Y10922000D02*
D03*
X10033000Y10668000D02*
D03*
X9906000Y10414000D02*
D03*
X10033000Y10160000D02*
D03*
X9906000Y9906000D02*
D03*
X10033000Y9652000D02*
D03*
X9906000Y9398000D02*
D03*
Y8890000D02*
D03*
X10033000Y8636000D02*
D03*
X9906000Y8382000D02*
D03*
X10033000Y8128000D02*
D03*
X9906000Y7874000D02*
D03*
Y3810000D02*
D03*
X10033000Y3556000D02*
D03*
X9906000Y3302000D02*
D03*
X9779000Y11176000D02*
D03*
Y10668000D02*
D03*
X9652000Y10414000D02*
D03*
X9779000Y10160000D02*
D03*
X9652000Y9906000D02*
D03*
X9779000Y9652000D02*
D03*
X9652000Y9398000D02*
D03*
X9779000Y9144000D02*
D03*
Y8636000D02*
D03*
X9652000Y8382000D02*
D03*
X9779000Y8128000D02*
D03*
X9652000Y7874000D02*
D03*
X9779000Y7620000D02*
D03*
X9652000Y7366000D02*
D03*
X9779000Y7112000D02*
D03*
X9652000Y6858000D02*
D03*
X9779000Y6604000D02*
D03*
X9652000Y6350000D02*
D03*
X9779000Y6096000D02*
D03*
Y5588000D02*
D03*
X9652000Y5334000D02*
D03*
X9779000Y5080000D02*
D03*
X9652000Y4826000D02*
D03*
X9779000Y4572000D02*
D03*
Y3556000D02*
D03*
X9652000Y3302000D02*
D03*
X9525000Y11176000D02*
D03*
X9398000Y10922000D02*
D03*
X9525000Y10160000D02*
D03*
X9398000Y9906000D02*
D03*
X9525000Y9652000D02*
D03*
Y9144000D02*
D03*
Y8636000D02*
D03*
X9398000Y8382000D02*
D03*
X9525000Y8128000D02*
D03*
X9398000Y7874000D02*
D03*
X9525000Y7620000D02*
D03*
X9398000Y7366000D02*
D03*
X9525000Y7112000D02*
D03*
X9398000Y6858000D02*
D03*
X9525000Y6604000D02*
D03*
X9398000Y6350000D02*
D03*
X9525000Y6096000D02*
D03*
Y5080000D02*
D03*
X9398000Y4826000D02*
D03*
Y4318000D02*
D03*
Y3810000D02*
D03*
X9525000Y3556000D02*
D03*
X9398000Y3302000D02*
D03*
X9271000Y11176000D02*
D03*
X9144000Y10922000D02*
D03*
X9271000Y10160000D02*
D03*
X9144000Y9906000D02*
D03*
X9271000Y9652000D02*
D03*
X9144000Y9398000D02*
D03*
X9271000Y9144000D02*
D03*
Y8636000D02*
D03*
X9144000Y8382000D02*
D03*
X9271000Y8128000D02*
D03*
X9144000Y7874000D02*
D03*
Y7366000D02*
D03*
Y6858000D02*
D03*
X9271000Y6604000D02*
D03*
X9144000Y6350000D02*
D03*
X9271000Y6096000D02*
D03*
Y5588000D02*
D03*
Y5080000D02*
D03*
X9144000Y4318000D02*
D03*
Y3810000D02*
D03*
X9271000Y3556000D02*
D03*
X9144000Y3302000D02*
D03*
X9017000Y10668000D02*
D03*
X8890000Y10414000D02*
D03*
X9017000Y10160000D02*
D03*
X8890000Y9906000D02*
D03*
X9017000Y9652000D02*
D03*
X8890000Y9398000D02*
D03*
X9017000Y9144000D02*
D03*
X8890000Y8890000D02*
D03*
X9017000Y8636000D02*
D03*
X8890000Y8382000D02*
D03*
X9017000Y8128000D02*
D03*
X8890000Y7874000D02*
D03*
X9017000Y7620000D02*
D03*
X8890000Y7366000D02*
D03*
X9017000Y7112000D02*
D03*
Y6604000D02*
D03*
Y6096000D02*
D03*
X8890000Y4826000D02*
D03*
X9017000Y4572000D02*
D03*
X8890000Y4318000D02*
D03*
X9017000Y4064000D02*
D03*
X8890000Y3302000D02*
D03*
X8763000Y10668000D02*
D03*
X8636000Y10414000D02*
D03*
X8763000Y10160000D02*
D03*
X8636000Y9906000D02*
D03*
X8763000Y9652000D02*
D03*
X8636000Y9398000D02*
D03*
X8763000Y9144000D02*
D03*
X8636000Y8890000D02*
D03*
X8763000Y8636000D02*
D03*
X8636000Y8382000D02*
D03*
X8763000Y8128000D02*
D03*
X8636000Y7874000D02*
D03*
X8763000Y7620000D02*
D03*
X8636000Y7366000D02*
D03*
X8763000Y7112000D02*
D03*
X8636000Y6858000D02*
D03*
X8763000Y6604000D02*
D03*
X8636000Y6350000D02*
D03*
X8763000Y6096000D02*
D03*
X8636000Y5842000D02*
D03*
X8763000Y5588000D02*
D03*
X8636000Y5334000D02*
D03*
X8763000Y5080000D02*
D03*
X8636000Y4826000D02*
D03*
X8763000Y4572000D02*
D03*
X8636000Y4318000D02*
D03*
X8763000Y4064000D02*
D03*
X8636000Y3302000D02*
D03*
D43*
X12630000Y8250000D02*
D03*
X13389999Y8190000D02*
D03*
X13448077Y8243904D02*
D03*
X13251180Y8220000D02*
D03*
X13539999Y6480000D02*
D03*
Y7050000D02*
D03*
X13320000Y7880000D02*
D03*
X13780000Y8150000D02*
D03*
X13700000Y7410000D02*
D03*
X14500000Y7330000D02*
D03*
X13370000Y7480000D02*
D03*
X14430000Y8560000D02*
D03*
X14339389Y8669825D02*
D03*
X14249400Y8382000D02*
D03*
Y8270240D02*
D03*
X14516100Y8382000D02*
D03*
X13539999Y7730000D02*
D03*
X14605000Y8280400D02*
D03*
X15030000Y6580000D02*
D03*
X14510001Y7190000D02*
D03*
X15130000Y6090000D02*
D03*
X14389999Y7000000D02*
D03*
X15020000Y7350000D02*
D03*
X16160001Y8800000D02*
D03*
X15589999Y7130000D02*
D03*
X11580000Y6130000D02*
D03*
X11510000Y4500000D02*
D03*
X13460001Y6980000D02*
D03*
X13770000D02*
D03*
X13189999Y6670000D02*
D03*
X13310001Y6860000D02*
D03*
X14109700Y7099300D02*
D03*
X13944600D02*
D03*
X14020799D02*
D03*
X13385800Y6921500D02*
D03*
X14693900Y8343900D02*
D03*
X14782800Y8432800D02*
D03*
Y8280400D02*
D03*
X14414500Y7556500D02*
D03*
X14452600Y7480300D02*
D03*
X14376401Y7632700D02*
D03*
X13423900Y4216400D02*
D03*
X13347701D02*
D03*
X13258800Y4318000D02*
D03*
X12801601Y4419600D02*
D03*
Y4495800D02*
D03*
Y4673600D02*
D03*
Y4749800D02*
D03*
X13182600Y8318500D02*
D03*
X14312900Y5270500D02*
D03*
X14135100Y5359400D02*
D03*
X14211301D02*
D03*
X13639799Y5334000D02*
D03*
X13563600D02*
D03*
X13385800D02*
D03*
X13309599D02*
D03*
X13398500Y5168900D02*
D03*
X13309599D02*
D03*
D44*
X13020000Y9290000D02*
D03*
X12910001Y3830000D02*
D03*
X10160000Y6300000D02*
D03*
D45*
X17400000Y3650000D02*
D03*
X8800000D02*
D03*
Y11050000D02*
D03*
X14900000Y10450000D02*
D03*
%TF.MD5,067e8eab10ee1dcaa165e1ff6c3426da*%
M02*
