%TF.GenerationSoftware,Altium Limited,Altium Designer,24.9.1 (31)*%
G04 Layer_Color=16711935*
%FSLAX45Y45*%
%MOMM*%
%TF.SameCoordinates,E37428AF-A4AF-452D-A059-51B4F3D01195*%
%TF.FilePolarity,Positive*%
%TF.FileFunction,Other,Mechanical_13*%
%TF.Part,Single*%
G01*
G75*
%TA.AperFunction,NonConductor*%
%ADD50C,0.26442*%
%ADD51C,0.10000*%
%ADD55C,0.00000*%
D50*
X12933681Y8317619D02*
X13018320Y8232980D01*
X12933681D02*
X13018320Y8317619D01*
X12933681Y8275299D02*
X13018320D01*
X12975999Y8232980D02*
Y8317619D01*
D51*
X12281901Y9600402D02*
Y10478399D01*
X14311899D01*
X12281901Y9600402D02*
X14311899D01*
Y10478399D01*
X12217400Y8849401D02*
X12979401D01*
X12217400Y8600399D02*
X12979401D01*
X12217400D02*
Y8849401D01*
X12979401Y8600399D02*
Y8849401D01*
D55*
X14081760Y8303260D02*
X14124940D01*
Y8409940D01*
X14081760D02*
X14124940D01*
X14081760Y8303260D02*
Y8409940D01*
X14000481Y8303260D02*
X14046201D01*
Y8409940D01*
X14000481D02*
X14046201D01*
X14000481Y8303260D02*
Y8409940D01*
X13921741Y8303260D02*
X13964920D01*
Y8409940D01*
X13921741D02*
X13964920D01*
X13921741Y8303260D02*
Y8409940D01*
X13840460Y8303260D02*
X13886180D01*
Y8409940D01*
X13840460D02*
X13886180D01*
X13840460Y8303260D02*
Y8409940D01*
X13761720Y8303260D02*
X13804900D01*
Y8409940D01*
X13761720D02*
X13804900D01*
X13761720Y8303260D02*
Y8409940D01*
X13680440Y8303260D02*
X13726160D01*
Y8409940D01*
X13680440D02*
X13726160D01*
X13680440Y8303260D02*
Y8409940D01*
X13601700Y8303260D02*
X13644881D01*
Y8409940D01*
X13601700D02*
X13644881D01*
X13601700Y8303260D02*
Y8409940D01*
X13520419Y8303260D02*
X13566141D01*
Y8409940D01*
X13520419D02*
X13566141D01*
X13520419Y8303260D02*
Y8409940D01*
X13441679Y8303260D02*
X13484860D01*
Y8409940D01*
X13441679D02*
X13484860D01*
X13441679Y8303260D02*
Y8409940D01*
X13360400Y8303260D02*
X13406120D01*
Y8409940D01*
X13360400D02*
X13406120D01*
X13360400Y8303260D02*
Y8409940D01*
X13281660Y8303260D02*
X13324840D01*
Y8409940D01*
X13281660D02*
X13324840D01*
X13281660Y8303260D02*
Y8409940D01*
X13197839Y8176260D02*
Y8219440D01*
X13091161D02*
X13197839D01*
X13091161Y8176260D02*
Y8219440D01*
Y8176260D02*
X13197839D01*
Y8094980D02*
Y8140700D01*
X13091161D02*
X13197839D01*
X13091161Y8094980D02*
Y8140700D01*
Y8094980D02*
X13197839D01*
Y8016240D02*
Y8059420D01*
X13091161D02*
X13197839D01*
X13091161Y8016240D02*
Y8059420D01*
Y8016240D02*
X13197839D01*
Y7934960D02*
Y7980680D01*
X13091161D02*
X13197839D01*
X13091161Y7934960D02*
Y7980680D01*
Y7934960D02*
X13197839D01*
Y7856220D02*
Y7899400D01*
X13091161D02*
X13197839D01*
X13091161Y7856220D02*
Y7899400D01*
Y7856220D02*
X13197839D01*
Y7774940D02*
Y7820660D01*
X13091161D02*
X13197839D01*
X13091161Y7774940D02*
Y7820660D01*
Y7774940D02*
X13197839D01*
Y7696200D02*
Y7739380D01*
X13091161D02*
X13197839D01*
X13091161Y7696200D02*
Y7739380D01*
Y7696200D02*
X13197839D01*
Y7614920D02*
Y7660640D01*
X13091161D02*
X13197839D01*
X13091161Y7614920D02*
Y7660640D01*
Y7614920D02*
X13197839D01*
Y7536180D02*
Y7579360D01*
X13091161D02*
X13197839D01*
X13091161Y7536180D02*
Y7579360D01*
Y7536180D02*
X13197839D01*
Y7454900D02*
Y7500620D01*
X13091161D02*
X13197839D01*
X13091161Y7454900D02*
Y7500620D01*
Y7454900D02*
X13197839D01*
Y7376160D02*
Y7419340D01*
X13091161D02*
X13197839D01*
X13091161Y7376160D02*
Y7419340D01*
Y7376160D02*
X13197839D01*
X13281660Y7292340D02*
X13324840D01*
X13281660Y7185660D02*
Y7292340D01*
Y7185660D02*
X13324840D01*
Y7292340D01*
X13360400D02*
X13406120D01*
X13360400Y7185660D02*
Y7292340D01*
Y7185660D02*
X13406120D01*
Y7292340D01*
X13441679D02*
X13484860D01*
X13441679Y7185660D02*
Y7292340D01*
Y7185660D02*
X13484860D01*
Y7292340D01*
X13520419D02*
X13566141D01*
X13520419Y7185660D02*
Y7292340D01*
Y7185660D02*
X13566141D01*
Y7292340D01*
X13601700D02*
X13644881D01*
X13601700Y7185660D02*
Y7292340D01*
Y7185660D02*
X13644881D01*
Y7292340D01*
X13680440D02*
X13726160D01*
X13680440Y7185660D02*
Y7292340D01*
Y7185660D02*
X13726160D01*
Y7292340D01*
X13761720D02*
X13804900D01*
X13761720Y7185660D02*
Y7292340D01*
Y7185660D02*
X13804900D01*
Y7292340D01*
X13840460D02*
X13886180D01*
X13840460Y7185660D02*
Y7292340D01*
Y7185660D02*
X13886180D01*
Y7292340D01*
X13921741D02*
X13964920D01*
X13921741Y7185660D02*
Y7292340D01*
Y7185660D02*
X13964920D01*
Y7292340D01*
X14000481D02*
X14046201D01*
X14000481Y7185660D02*
Y7292340D01*
Y7185660D02*
X14046201D01*
Y7292340D01*
X14081760D02*
X14124940D01*
X14081760Y7185660D02*
Y7292340D01*
Y7185660D02*
X14124940D01*
Y7292340D01*
X14208760Y7376160D02*
Y7419340D01*
Y7376160D02*
X14315440D01*
Y7419340D01*
X14208760D02*
X14315440D01*
X14208760Y7454900D02*
Y7500620D01*
Y7454900D02*
X14315440D01*
Y7500620D01*
X14208760D02*
X14315440D01*
X14208760Y7536180D02*
Y7579360D01*
Y7536180D02*
X14315440D01*
Y7579360D01*
X14208760D02*
X14315440D01*
X14208760Y7614920D02*
Y7660640D01*
Y7614920D02*
X14315440D01*
Y7660640D01*
X14208760D02*
X14315440D01*
X14208760Y7696200D02*
Y7739380D01*
Y7696200D02*
X14315440D01*
Y7739380D01*
X14208760D02*
X14315440D01*
X14208760Y7774940D02*
Y7820660D01*
Y7774940D02*
X14315440D01*
Y7820660D01*
X14208760D02*
X14315440D01*
X14208760Y7856220D02*
Y7899400D01*
Y7856220D02*
X14315440D01*
Y7899400D01*
X14208760D02*
X14315440D01*
X14208760Y7934960D02*
Y7980680D01*
Y7934960D02*
X14315440D01*
Y7980680D01*
X14208760D02*
X14315440D01*
X14208760Y8016240D02*
Y8059420D01*
Y8016240D02*
X14315440D01*
Y8059420D01*
X14208760D02*
X14315440D01*
X14208760Y8094980D02*
Y8140700D01*
Y8094980D02*
X14315440D01*
Y8140700D01*
X14208760D02*
X14315440D01*
X14208760Y8176260D02*
Y8219440D01*
Y8176260D02*
X14315440D01*
Y8219440D01*
X14208760D02*
X14315440D01*
X13197839Y8176260D02*
X13324840Y8303260D01*
X13197839Y7292340D02*
X14208760D01*
Y8303260D01*
X13197839D02*
X14208760D01*
X13197839Y7292340D02*
Y8303260D01*
%TF.MD5,16ea432abb7f465e747d24a55657ef81*%
M02*
