%TF.GenerationSoftware,Altium Limited,Altium Designer,24.9.1 (31)*%
G04 Layer_Color=16711935*
%FSLAX45Y45*%
%MOMM*%
%TF.SameCoordinates,E37428AF-A4AF-452D-A059-51B4F3D01195*%
%TF.FilePolarity,Negative*%
%TF.FileFunction,Soldermask,Bot*%
%TF.Part,Single*%
G01*
G75*
%TA.AperFunction,SMDPad,CuDef*%
%ADD13R,1.15814X1.01213*%
%ADD24R,1.01213X1.15814*%
%TA.AperFunction,ComponentPad*%
%ADD33C,2.00000*%
%ADD34R,2.00000X2.00000*%
%ADD40R,2.75000X2.75000*%
%ADD41C,2.75000*%
%TA.AperFunction,ViaPad*%
%ADD45C,5.00000*%
D13*
X13527301Y8150000D02*
D03*
X13692699D02*
D03*
X13972699Y7410000D02*
D03*
X13807301D02*
D03*
D24*
X13320000Y7607301D02*
D03*
Y7772699D02*
D03*
D33*
X10693298Y6515100D02*
D03*
X10493299Y7115099D02*
D03*
Y5915101D02*
D03*
X9273301D02*
D03*
X10505999Y10518699D02*
D03*
Y9318701D02*
D03*
X9286001D02*
D03*
X10705998Y9918700D02*
D03*
X9273301Y4213301D02*
D03*
X10493299D02*
D03*
Y5413299D02*
D03*
X10693298Y4813300D02*
D03*
X9286001Y7616901D02*
D03*
X10505999D02*
D03*
Y8816899D02*
D03*
X10705998Y8216900D02*
D03*
D34*
X9273301Y7115099D02*
D03*
X9286001Y10518699D02*
D03*
X9273301Y5413299D02*
D03*
X9286001Y8816899D02*
D03*
D40*
X16306799Y5131699D02*
D03*
D41*
X15756799D02*
D03*
X16306799Y4711700D02*
D03*
X15756799D02*
D03*
D45*
X17400000Y3650000D02*
D03*
X8800000D02*
D03*
Y11050000D02*
D03*
X14900000Y10450000D02*
D03*
%TF.MD5,c889297ef0b710a3253dcdce9446f972*%
M02*
