%TF.GenerationSoftware,Altium Limited,Altium Designer,25.8.1 (18)*%
G04 Layer_Color=32768*
%FSLAX45Y45*%
%MOMM*%
%TF.SameCoordinates,031978D1-9D18-463A-8735-F8186BF7E524*%
%TF.FilePolarity,Positive*%
%TF.FileFunction,Other,Top_Courtyard*%
%TF.Part,Single*%
G01*
G75*
%TA.AperFunction,NonConductor*%
%ADD73C,0.10000*%
%ADD74C,0.20000*%
%ADD119C,0.05000*%
D73*
X5019985Y3401205D02*
Y3501205D01*
X4969984Y3451205D02*
X5069985D01*
X5399961Y8688790D02*
X5499961D01*
X5449961Y8638790D02*
Y8738790D01*
X3365039Y11596210D02*
X5995039D01*
Y9186210D02*
Y11596210D01*
X3365039Y9186210D02*
X5995039D01*
X3365039D02*
Y11596210D01*
X4969987Y4551204D02*
X5069987D01*
X5019987Y4501204D02*
Y4601204D01*
X3410083Y4701216D02*
X3510083D01*
X3460082Y4651216D02*
Y4751216D01*
X3410087Y4111216D02*
X3510087D01*
X3460087Y4061216D02*
Y4161216D01*
X3407539Y5296210D02*
X3507539D01*
X3457538Y5246210D02*
Y5346210D01*
X4062539Y8658210D02*
X4162539D01*
X4112539Y8608210D02*
Y8708210D01*
X3410038Y3521210D02*
X3510038D01*
X3460038Y3471210D02*
Y3571210D01*
X6748039Y7212210D02*
X9132039D01*
Y10496210D01*
X6748039D02*
X9132039D01*
X6748039Y7212210D02*
Y10496210D01*
D74*
X615057Y4157385D02*
X1945057D01*
Y5387385D01*
X615057D02*
X1945057D01*
X615057Y4157385D02*
Y5387385D01*
X2441090Y2067410D02*
X2866588D01*
Y1727410D02*
Y2067410D01*
X2441090Y1727410D02*
X2866588D01*
X2441090D02*
Y2067410D01*
X3291290Y7415039D02*
Y7830039D01*
X3706290D01*
Y7415039D02*
Y7830039D01*
X3291290Y7415039D02*
X3706290D01*
X3297639Y6634211D02*
X3717639D01*
Y6314211D02*
Y6634211D01*
X3297639Y6314211D02*
X3717639D01*
X3297639D02*
Y6634211D01*
X3059433Y7420604D02*
Y7801818D01*
X3260646D01*
Y7420604D02*
Y7801818D01*
X3059433Y7420604D02*
X3260646D01*
X2819438Y7420551D02*
X3020651D01*
Y7801764D01*
X2819438D02*
X3020651D01*
X2819438Y7420551D02*
Y7801764D01*
X5879180Y6249433D02*
Y6450646D01*
X5497967D02*
X5879180D01*
X5497967Y6249433D02*
Y6450646D01*
Y6249433D02*
X5879180D01*
X5876517Y5969439D02*
Y6170652D01*
X5495304D02*
X5876517D01*
X5495304Y5969439D02*
Y6170652D01*
Y5969439D02*
X5876517D01*
X5308797Y6089996D02*
X5468797D01*
Y6329996D01*
X5308797D02*
X5468797D01*
X5308797Y6089996D02*
Y6329996D01*
X3705090Y3361227D02*
X4015090D01*
X3705090D02*
Y3681227D01*
X4015090D01*
Y3361227D02*
Y3681227D01*
X2796027Y2679521D02*
X3001849D01*
X2796027Y2293699D02*
Y2679521D01*
Y2293699D02*
X3001849D01*
Y2679521D01*
X3989396Y7230593D02*
Y7431806D01*
Y7230593D02*
X4370609D01*
Y7431806D01*
X3989396D02*
X4370609D01*
X614039Y5491211D02*
X1944039D01*
Y6721211D01*
X614039D02*
X1944039D01*
X614039Y5491211D02*
Y6721211D01*
X614039Y9491210D02*
X1944039D01*
Y10721210D01*
X614039D02*
X1944039D01*
X614039Y9491210D02*
Y10721210D01*
X6062540Y7169122D02*
X6317540D01*
X6062540Y6573300D02*
Y7169122D01*
Y6573300D02*
X6317540D01*
Y7169122D01*
X615039Y8156210D02*
X1945039D01*
Y9386210D01*
X615039D02*
X1945039D01*
X615039Y8156210D02*
Y9386210D01*
X3364736Y6048300D02*
Y6254122D01*
Y6048300D02*
X3750558D01*
Y6254122D01*
X3364736D02*
X3750558D01*
X615039Y6826850D02*
X1945039D01*
Y8056851D01*
X615039D02*
X1945039D01*
X615039Y6826850D02*
Y8056851D01*
X614039Y2822430D02*
X1944039D01*
Y4052430D01*
X614039D02*
X1944039D01*
X614039Y2822430D02*
Y4052430D01*
X2402556Y10559160D02*
Y11163160D01*
X2817556D01*
Y10559160D02*
Y11163160D01*
X2402556Y10559160D02*
X2817556D01*
X5652111Y2083766D02*
Y2338766D01*
Y2083766D02*
X6247933D01*
Y2338766D01*
X5652111D02*
X6247933D01*
D119*
X6325039Y1256210D02*
X8452539D01*
Y6486211D01*
X6325039D02*
X8452539D01*
X6325039Y1256210D02*
Y6486211D01*
X7730039Y3871210D02*
X7830039D01*
X7780039Y3821210D02*
Y3921210D01*
X4702538Y803710D02*
Y1328710D01*
Y803710D02*
X5127538D01*
Y1328710D01*
X4702538D02*
X5127538D01*
X5232539Y5848710D02*
Y7193710D01*
X3887539D02*
X5232539D01*
X3887539Y5848710D02*
Y7193710D01*
Y5848710D02*
X5232539D01*
X4679985Y3191205D02*
X5359985D01*
X4679985Y3711205D02*
X5359985D01*
Y3191205D02*
Y3711205D01*
X4679985Y3191205D02*
Y3711205D01*
X1422539Y401210D02*
X2447539D01*
X1422539D02*
Y1181210D01*
X2447539D01*
Y401210D02*
Y1181210D01*
X5315461Y8297790D02*
Y9079790D01*
Y8297790D02*
X5584461D01*
X5315461Y9079790D02*
X5584461D01*
Y8297790D02*
Y9079790D01*
X4679987Y4291204D02*
Y4811204D01*
X5359987Y4291204D02*
Y4811204D01*
X4679987D02*
X5359987D01*
X4679987Y4291204D02*
X5359987D01*
X2125046Y4940673D02*
X2355046D01*
Y5401673D01*
X2125046D02*
X2355046D01*
X2125046Y4940673D02*
Y5401673D01*
X6250027Y7598751D02*
Y8023751D01*
X5890027Y7598751D02*
X6250027D01*
X5890027D02*
Y8023751D01*
X6250027D01*
X2105032Y8991750D02*
X2335032D01*
X2105032Y8530750D02*
Y8991750D01*
Y8530750D02*
X2335032D01*
Y8991750D01*
X4607539Y7451710D02*
X5447539D01*
X4607539D02*
Y7916710D01*
X5447539D01*
Y7451710D02*
Y7916710D01*
X3635083Y4536216D02*
Y4866216D01*
X3285083Y4536216D02*
Y4866216D01*
Y4536216D02*
X3635083D01*
X3285083Y4866216D02*
X3635083D01*
X2117539Y9466210D02*
X2862539D01*
X2117539D02*
Y10016210D01*
X2862539D01*
Y9466210D02*
Y10016210D01*
X2125046Y6410319D02*
X2355046D01*
X2125046Y5949319D02*
Y6410319D01*
Y5949319D02*
X2355046D01*
Y6410319D01*
X1789539Y10956210D02*
X2250539D01*
X1789539D02*
Y11186211D01*
X2250539D01*
Y10956210D02*
Y11186211D01*
X6055038Y5316210D02*
X6285038D01*
X6055038Y4926210D02*
Y5316210D01*
Y4926210D02*
X6285038D01*
Y5316210D01*
X6282539Y3473509D02*
Y3863509D01*
X6052539Y3473509D02*
X6282539D01*
X6052539D02*
Y3863509D01*
X6282539D01*
X6282538Y3031689D02*
Y3421689D01*
X6052538Y3031689D02*
X6282538D01*
X6052538D02*
Y3421689D01*
X6282538D01*
X6055034Y6156252D02*
X6285034D01*
X6055034Y5766252D02*
Y6156252D01*
Y5766252D02*
X6285034D01*
Y6156252D01*
X6575046Y8116169D02*
Y8506170D01*
X6805046D01*
Y8116169D02*
Y8506170D01*
X6575046Y8116169D02*
X6805046D01*
X6855027Y7521250D02*
Y8041250D01*
X6505028Y7521250D02*
X6855027D01*
X6505028D02*
Y8041250D01*
X6855027D01*
X3635087Y3946216D02*
Y4276216D01*
X3285087Y3946216D02*
Y4276216D01*
Y3946216D02*
X3635087D01*
X3285087Y4276216D02*
X3635087D01*
X3632539Y5131210D02*
Y5461210D01*
X3282539Y5131210D02*
Y5461210D01*
Y5131210D02*
X3632539D01*
X3282539Y5461210D02*
X3632539D01*
X6355039Y6509211D02*
X7065039D01*
X6355039D02*
Y6953211D01*
X7065039D01*
Y6509211D02*
Y6953211D01*
X6235039Y1661210D02*
Y2061211D01*
X6005039Y1661210D02*
X6235039D01*
X6005039D02*
Y2061211D01*
X6235039D01*
X7135039Y6506210D02*
Y6736210D01*
Y6506210D02*
X7525039D01*
Y6736210D01*
X7135039D02*
X7525039D01*
X6282539Y3906210D02*
Y4296211D01*
X6052539Y3906210D02*
X6282539D01*
X6052539D02*
Y4296211D01*
X6282539D01*
X6055033Y5736261D02*
X6285033D01*
X6055033Y5346260D02*
Y5736261D01*
Y5346260D02*
X6285033D01*
Y5736261D01*
X2862586Y4136228D02*
Y4686228D01*
X2117586D02*
X2862586D01*
X2117586Y4136228D02*
Y4686228D01*
Y4136228D02*
X2862586D01*
X5137539Y8190210D02*
Y9088210D01*
X3087539Y8190210D02*
X5137539D01*
X3087539Y9088210D02*
X5137539D01*
X3087539Y8190210D02*
Y9088210D01*
X3635038Y3356210D02*
Y3686210D01*
X3285038Y3356210D02*
Y3686210D01*
Y3356210D02*
X3635038D01*
X3285038Y3686210D02*
X3635038D01*
X1510039Y1698710D02*
Y2723710D01*
X730039Y1698710D02*
X1510039D01*
X730039D02*
Y2723710D01*
X1510039D01*
X2117582Y6806227D02*
X2862582D01*
X2117582D02*
Y7356227D01*
X2862582D01*
Y6806227D02*
Y7356227D01*
X1538239Y1848611D02*
Y2688611D01*
Y1848611D02*
X2328239D01*
Y2688611D01*
X1538239D02*
X2328239D01*
X1933239Y2218611D02*
Y2318611D01*
X1883239Y2268611D02*
X1983239D01*
%TF.MD5,6a99930732eb981fd6349ec169b088fd*%
M02*
