%TF.GenerationSoftware,Altium Limited,Altium Designer,25.8.1 (18)*%
G04 Layer_Color=16711935*
%FSLAX45Y45*%
%MOMM*%
%TF.SameCoordinates,031978D1-9D18-463A-8735-F8186BF7E524*%
%TF.FilePolarity,Negative*%
%TF.FileFunction,Soldermask,Bot*%
%TF.Part,Single*%
G01*
G75*
%TA.AperFunction,SMDPad,CuDef*%
%ADD21R,1.15814X1.01213*%
%ADD30R,1.01213X1.15814*%
%ADD40R,1.30606X1.05822*%
%TA.AperFunction,ComponentPad*%
%ADD53C,1.45000*%
%ADD54C,2.15000*%
%ADD55R,1.45000X1.45000*%
%ADD63C,1.60000*%
%TA.AperFunction,ViaPad*%
%ADD69C,5.00000*%
%TA.AperFunction,SMDPad,CuDef*%
G04:AMPARAMS|DCode=82|XSize=0.9mm|YSize=1.1mm|CornerRadius=0.15mm|HoleSize=0mm|Usage=FLASHONLY|Rotation=180.000|XOffset=0mm|YOffset=0mm|HoleType=Round|Shape=RoundedRectangle|*
%AMROUNDEDRECTD82*
21,1,0.90000,0.80000,0,0,180.0*
21,1,0.60000,1.10000,0,0,180.0*
1,1,0.30000,-0.30000,0.40000*
1,1,0.30000,0.30000,0.40000*
1,1,0.30000,0.30000,-0.40000*
1,1,0.30000,-0.30000,-0.40000*
%
%ADD82ROUNDEDRECTD82*%
%TA.AperFunction,ComponentPad*%
%ADD101C,2.80000*%
G04:AMPARAMS|DCode=102|XSize=2.8mm|YSize=2.8mm|CornerRadius=0.725mm|HoleSize=0mm|Usage=FLASHONLY|Rotation=90.000|XOffset=0mm|YOffset=0mm|HoleType=Round|Shape=RoundedRectangle|*
%AMROUNDEDRECTD102*
21,1,2.80000,1.35000,0,0,90.0*
21,1,1.35000,2.80000,0,0,90.0*
1,1,1.45000,0.67500,0.67500*
1,1,1.45000,0.67500,-0.67500*
1,1,1.45000,-0.67500,-0.67500*
1,1,1.45000,-0.67500,0.67500*
%
%ADD102ROUNDEDRECTD102*%
%ADD103C,3.10000*%
%ADD104C,4.90000*%
%ADD105R,1.65000X1.65000*%
%ADD106C,2.05000*%
%ADD107C,1.70000*%
%ADD108C,1.65000*%
%ADD109R,1.70000X1.70000*%
%ADD110R,2.05000X2.05000*%
D21*
X4714606Y6191210D02*
D03*
X4409411Y6849405D02*
D03*
X4880004Y6191210D02*
D03*
X4244012Y6849405D02*
D03*
D30*
X5890047Y6577576D02*
D03*
X5370047Y6577578D02*
D03*
X5630046Y6577577D02*
D03*
X4890039Y6683078D02*
D03*
X4231845Y6371783D02*
D03*
X5630046Y6742976D02*
D03*
X5890047Y6742975D02*
D03*
X5370047Y6742977D02*
D03*
X4890039Y6848476D02*
D03*
X4231845Y6206384D02*
D03*
D40*
X5537600Y7007292D02*
D03*
X5382384D02*
D03*
D53*
X1791057Y5197385D02*
D03*
X1790039Y6531210D02*
D03*
X1790039Y10531210D02*
D03*
X1791039Y9196210D02*
D03*
X1791039Y7866850D02*
D03*
X1790039Y3862430D02*
D03*
D54*
X1071057Y5147385D02*
D03*
X771057Y4347385D02*
D03*
Y5147385D02*
D03*
X771039Y7016851D02*
D03*
X1070039Y6481211D02*
D03*
X770039D02*
D03*
Y5681211D02*
D03*
X770039Y9681210D02*
D03*
X1070039Y10481210D02*
D03*
X770039D02*
D03*
X771039Y8346210D02*
D03*
X1071039Y9146210D02*
D03*
X771039D02*
D03*
X771039Y7816851D02*
D03*
X1071040D02*
D03*
X770039Y3812430D02*
D03*
Y3012430D02*
D03*
X1070039Y3812430D02*
D03*
D55*
X1131057Y4447385D02*
D03*
X1130039Y3112430D02*
D03*
X1131039Y7116850D02*
D03*
X1131039Y8446210D02*
D03*
X1130039Y9781210D02*
D03*
X1130039Y5781210D02*
D03*
D63*
X7407039Y9265211D02*
D03*
Y8443210D02*
D03*
X7153039Y8854210D02*
D03*
Y9128210D02*
D03*
Y8306210D02*
D03*
Y9402211D02*
D03*
Y8580210D02*
D03*
X7407039Y8991210D02*
D03*
Y8717210D02*
D03*
D69*
X7610440Y11170401D02*
D03*
X7609744Y570408D02*
D03*
X610025Y11170340D02*
D03*
X609512Y569810D02*
D03*
D82*
X5326481Y5928797D02*
D03*
X5176481D02*
D03*
D101*
X6480039Y1561211D02*
D03*
X7030039Y2821212D02*
D03*
X6480039Y2821211D02*
D03*
Y1981211D02*
D03*
Y2401211D02*
D03*
Y3241211D02*
D03*
Y3661211D02*
D03*
Y4081211D02*
D03*
Y4501211D02*
D03*
Y4921211D02*
D03*
Y5341211D02*
D03*
Y5761211D02*
D03*
Y6181211D02*
D03*
X7030039Y4501211D02*
D03*
Y5761211D02*
D03*
Y5341211D02*
D03*
Y4921211D02*
D03*
Y4081211D02*
D03*
Y3661211D02*
D03*
Y3241211D02*
D03*
Y2401212D02*
D03*
Y1561212D02*
D03*
Y1981212D02*
D03*
D102*
Y6181211D02*
D03*
D103*
X7760039Y6181211D02*
D03*
Y1561210D02*
D03*
D104*
X7280039Y10103711D02*
D03*
Y7604710D02*
D03*
D105*
X5449961Y8942790D02*
D03*
D106*
X3770039Y10391210D02*
D03*
D107*
X4112539Y8785210D02*
D03*
Y8531210D02*
D03*
X4620539D02*
D03*
X4366539D02*
D03*
X3604539Y8785210D02*
D03*
X3858539D02*
D03*
X4366539D02*
D03*
X3604539Y8531210D02*
D03*
X3858539D02*
D03*
D108*
X5449961Y8688790D02*
D03*
Y8434790D02*
D03*
D109*
X4620539Y8785210D02*
D03*
D110*
X5770039Y10391210D02*
D03*
%TF.MD5,a538d9b96319fc68ccbe20cb5e60a0a6*%
M02*
