%TF.GenerationSoftware,Altium Limited,Altium Designer,25.8.1 (18)*%
G04 Layer_Color=65535*
%FSLAX45Y45*%
%MOMM*%
%TF.SameCoordinates,031978D1-9D18-463A-8735-F8186BF7E524*%
%TF.FilePolarity,Positive*%
%TF.FileFunction,Legend,Top*%
%TF.Part,Single*%
G01*
G75*
%TA.AperFunction,NonConductor*%
%ADD70C,0.25400*%
%ADD71C,0.25000*%
%ADD72C,0.40000*%
%ADD73C,0.10000*%
%ADD74C,0.20000*%
%ADD75C,0.15400*%
D70*
X5630000Y10390000D02*
G03*
X5630000Y10390000I-1060000J0D01*
G01*
X7930156Y11170000D02*
G03*
X7930156Y11170000I-320156J0D01*
G01*
X930156D02*
G03*
X930156Y11170000I-320156J0D01*
G01*
Y570000D02*
G03*
X930156Y570000I-320156J0D01*
G01*
X7930156D02*
G03*
X7930156Y570000I-320156J0D01*
G01*
X3735400Y536594D02*
X3802045D01*
X3768722Y569917D02*
Y503272D01*
X3835368Y486610D02*
X3868690D01*
X3852029D01*
Y586578D01*
X3835368Y569917D01*
X3985319Y486610D02*
X3918674D01*
X3985319Y553255D01*
Y569917D01*
X3968658Y586578D01*
X3935336D01*
X3918674Y569917D01*
X4018642Y586578D02*
Y519933D01*
X4051964Y486610D01*
X4085287Y519933D01*
Y586578D01*
X4218578D02*
Y486610D01*
X4268561D01*
X4285223Y503272D01*
Y519933D01*
Y536594D01*
X4268561Y553255D01*
X4218578D01*
X4335207D02*
X4368529D01*
X4385190Y536594D01*
Y486610D01*
X4335207D01*
X4318545Y503272D01*
X4335207Y519933D01*
X4385190D01*
X4435175Y569917D02*
Y553255D01*
X4418513D01*
X4451836D01*
X4435175D01*
Y503272D01*
X4451836Y486610D01*
X4651771Y586578D02*
X4618449D01*
X4601787Y569917D01*
Y503272D01*
X4618449Y486610D01*
X4651771D01*
X4668432Y503272D01*
Y569917D01*
X4651771Y586578D01*
X4701755D02*
Y486610D01*
Y519933D01*
X4768400Y586578D01*
X4718417Y536594D01*
X4768400Y486610D01*
X3735400Y309917D02*
X3802045D01*
X3768722Y343239D02*
Y276594D01*
X3835368Y343239D02*
X3852029Y359900D01*
X3885352D01*
X3902013Y343239D01*
Y326578D01*
X3885352Y309917D01*
X3868690D01*
X3885352D01*
X3902013Y293255D01*
Y276594D01*
X3885352Y259933D01*
X3852029D01*
X3835368Y276594D01*
X3935336Y259933D02*
Y276594D01*
X3951997D01*
Y259933D01*
X3935336D01*
X4018642Y343239D02*
X4035303Y359900D01*
X4068626D01*
X4085287Y343239D01*
Y326578D01*
X4068626Y309917D01*
X4051964D01*
X4068626D01*
X4085287Y293255D01*
Y276594D01*
X4068626Y259933D01*
X4035303D01*
X4018642Y276594D01*
X4118610Y359900D02*
Y293255D01*
X4151932Y259933D01*
X4185255Y293255D01*
Y359900D01*
X4318545Y326578D02*
Y259933D01*
Y293255D01*
X4335207Y309917D01*
X4351868Y326578D01*
X4368529D01*
X4468497Y259933D02*
X4435175D01*
X4418513Y276594D01*
Y309917D01*
X4435175Y326578D01*
X4468497D01*
X4485158Y309917D01*
Y293255D01*
X4418513D01*
X4551803Y226610D02*
X4568465D01*
X4585126Y243271D01*
Y326578D01*
X4535142D01*
X4518481Y309917D01*
Y276594D01*
X4535142Y259933D01*
X4585126D01*
X4768400Y359900D02*
X4735078D01*
X4718417Y343239D01*
Y276594D01*
X4735078Y259933D01*
X4768400D01*
X4785062Y276594D01*
Y343239D01*
X4768400Y359900D01*
X4818384D02*
Y259933D01*
Y293255D01*
X4885029Y359900D01*
X4835046Y309917D01*
X4885029Y259933D01*
X4065439Y2166578D02*
Y2099933D01*
X4098761Y2066611D01*
X4132084Y2099933D01*
Y2166578D01*
X4165407D02*
Y2066611D01*
X4215391D01*
X4232052Y2083272D01*
Y2099933D01*
Y2116594D01*
X4215391Y2133256D01*
X4165407D01*
X4282036D02*
X4315358D01*
X4332020Y2116594D01*
Y2066611D01*
X4282036D01*
X4265375Y2083272D01*
X4282036Y2099933D01*
X4332020D01*
X4382004Y2149917D02*
Y2133256D01*
X4365342D01*
X4398665D01*
X4382004D01*
Y2083272D01*
X4398665Y2066611D01*
X4565278D02*
Y2149917D01*
Y2116594D01*
X4548617D01*
X4581939D01*
X4565278D01*
Y2149917D01*
X4581939Y2166578D01*
X4648584Y2133256D02*
X4681907D01*
X4698568Y2116594D01*
Y2066611D01*
X4648584D01*
X4631923Y2083272D01*
X4648584Y2099933D01*
X4698568D01*
X4731891Y2133256D02*
Y2083272D01*
X4748552Y2066611D01*
X4798536D01*
Y2133256D01*
X4831859Y2066611D02*
X4865181D01*
X4848520D01*
Y2166578D01*
X4831859D01*
X4931826Y2149917D02*
Y2133256D01*
X4915165D01*
X4948487D01*
X4931826D01*
Y2083272D01*
X4948487Y2066611D01*
X5755439Y8539901D02*
Y8473255D01*
X5788762Y8439933D01*
X5822084Y8473255D01*
Y8539901D01*
X5922052D02*
Y8439933D01*
X5872068D01*
X5855407Y8456594D01*
Y8489917D01*
X5872068Y8506578D01*
X5922052D01*
X5955375Y8439933D02*
X5988697D01*
X5972036D01*
Y8506578D01*
X5955375D01*
X6038681Y8439933D02*
X6088665D01*
X6105326Y8456594D01*
X6088665Y8473255D01*
X6055342D01*
X6038681Y8489917D01*
X6055342Y8506578D01*
X6105326D01*
X6138649Y8406610D02*
Y8506578D01*
X6188633D01*
X6205294Y8489917D01*
Y8456594D01*
X6188633Y8439933D01*
X6138649D01*
X5061505Y749216D02*
Y850784D01*
X5112288D01*
X5129216Y833856D01*
Y800000D01*
X5112288Y783072D01*
X5061505D01*
X5230784Y833856D02*
X5213856Y850784D01*
X5180000D01*
X5163072Y833856D01*
Y816928D01*
X5180000Y800000D01*
X5213856D01*
X5230784Y783072D01*
Y766144D01*
X5213856Y749216D01*
X5180000D01*
X5163072Y766144D01*
X5264639Y749216D02*
X5298495D01*
X5281567D01*
Y850784D01*
X5264639Y833856D01*
X3605361Y7930784D02*
Y7846144D01*
X3622289Y7829216D01*
X3656144D01*
X3673072Y7846144D01*
Y7930784D01*
X3706928D02*
X3774639D01*
Y7913856D01*
X3706928Y7846144D01*
Y7829216D01*
X6926835Y1057680D02*
Y1159248D01*
X6977618D01*
X6994546Y1142320D01*
Y1108464D01*
X6977618Y1091536D01*
X6926835D01*
X7028402Y1159248D02*
Y1057680D01*
X7062257Y1091536D01*
X7096113Y1057680D01*
Y1159248D01*
X7129969Y1057680D02*
Y1159248D01*
X7180752D01*
X7197680Y1142320D01*
Y1108464D01*
X7180752Y1091536D01*
X7129969D01*
X7163825D02*
X7197680Y1057680D01*
X7231536Y1040753D02*
X7299248D01*
X7333103Y1159248D02*
X7366959D01*
X7350031D01*
Y1057680D01*
X7333103D01*
X7366959D01*
X7468526Y1159248D02*
X7434671D01*
X7417743Y1142320D01*
Y1074608D01*
X7434671Y1057680D01*
X7468526D01*
X7485454Y1074608D01*
Y1142320D01*
X7468526Y1159248D01*
X7519310Y1057680D02*
X7553166D01*
X7536238D01*
Y1159248D01*
X7519310Y1142320D01*
X3004577Y890426D02*
Y991993D01*
X3055360D01*
X3072288Y975066D01*
Y941210D01*
X3055360Y924282D01*
X3004577D01*
X3038433D02*
X3072288Y890426D01*
X3156928D02*
Y991993D01*
X3106144Y941210D01*
X3173855D01*
X3275423Y991993D02*
X3207711D01*
Y941210D01*
X3241567Y958138D01*
X3258495D01*
X3275423Y941210D01*
Y907354D01*
X3258495Y890426D01*
X3224639D01*
X3207711Y907354D01*
X5909255Y8094252D02*
X6010823D01*
Y8145035D01*
X5993895Y8161963D01*
X5926183D01*
X5909255Y8145035D01*
Y8094252D01*
X6010823Y8195819D02*
Y8229674D01*
Y8212747D01*
X5909255D01*
X5926183Y8195819D01*
X5909255Y8280458D02*
Y8348169D01*
X5926183D01*
X5993895Y8280458D01*
X6010823D01*
X5264616Y1700427D02*
Y1801994D01*
X5315399D01*
X5332327Y1785067D01*
Y1751211D01*
X5315399Y1734283D01*
X5264616D01*
X5298471D02*
X5332327Y1700427D01*
X5416967D02*
Y1801994D01*
X5366183Y1751211D01*
X5433894D01*
X5518534Y1700427D02*
Y1801994D01*
X5467750Y1751211D01*
X5535462D01*
X6420822Y8775787D02*
X6319255D01*
Y8826571D01*
X6336183Y8843499D01*
X6370039D01*
X6386967Y8826571D01*
Y8775787D01*
Y8809643D02*
X6420822Y8843499D01*
Y8928138D02*
X6319255D01*
X6370039Y8877355D01*
Y8945066D01*
X6336183Y8978922D02*
X6319255Y8995850D01*
Y9029705D01*
X6336183Y9046633D01*
X6353111D01*
X6370039Y9029705D01*
Y9012778D01*
Y9029705D01*
X6386967Y9046633D01*
X6403894D01*
X6420822Y9029705D01*
Y8995850D01*
X6403894Y8978922D01*
X3004577Y730426D02*
Y831994D01*
X3055360D01*
X3072288Y815066D01*
Y781210D01*
X3055360Y764282D01*
X3004577D01*
X3038433D02*
X3072288Y730426D01*
X3156928D02*
Y831994D01*
X3106144Y781210D01*
X3173855D01*
X3275423Y730426D02*
X3207711D01*
X3275423Y798138D01*
Y815066D01*
X3258495Y831994D01*
X3224639D01*
X3207711Y815066D01*
X3333041Y991993D02*
Y890426D01*
X3383824D01*
X3400752Y907354D01*
Y975066D01*
X3383824Y991993D01*
X3333041D01*
X3434608Y890426D02*
X3468464D01*
X3451536D01*
Y991993D01*
X3434608Y975066D01*
X3586959Y991993D02*
X3553103Y975066D01*
X3519247Y941210D01*
Y907354D01*
X3536175Y890426D01*
X3570031D01*
X3586959Y907354D01*
Y924282D01*
X3570031Y941210D01*
X3519247D01*
X3333041Y831994D02*
Y730426D01*
X3383824D01*
X3400752Y747354D01*
Y815066D01*
X3383824Y831994D01*
X3333041D01*
X3434608Y730426D02*
X3468464D01*
X3451536D01*
Y831994D01*
X3434608Y815066D01*
X3586959Y831994D02*
X3519247D01*
Y781210D01*
X3553103Y798138D01*
X3570031D01*
X3586959Y781210D01*
Y747354D01*
X3570031Y730426D01*
X3536175D01*
X3519247Y747354D01*
X365361Y5550784D02*
Y5449216D01*
Y5483072D01*
X433072Y5550784D01*
X382289Y5500000D01*
X433072Y5449216D01*
X466928Y5533856D02*
X483856Y5550784D01*
X517712D01*
X534640Y5533856D01*
Y5516928D01*
X517712Y5500000D01*
X500784D01*
X517712D01*
X534640Y5483072D01*
Y5466144D01*
X517712Y5449216D01*
X483856D01*
X466928Y5466144D01*
X1383111Y1215066D02*
X1366183Y1231994D01*
X1332328D01*
X1315400Y1215066D01*
Y1147355D01*
X1332328Y1130427D01*
X1366183D01*
X1383111Y1147355D01*
X1484678Y1130427D02*
X1416967D01*
X1484678Y1198138D01*
Y1215066D01*
X1467750Y1231994D01*
X1433895D01*
X1416967Y1215066D01*
X5339080Y9235440D02*
Y9337007D01*
X5389863D01*
X5406791Y9320079D01*
Y9286223D01*
X5389863Y9269296D01*
X5339080D01*
X5372936D02*
X5406791Y9235440D01*
X5508359Y9320079D02*
X5491431Y9337007D01*
X5457575D01*
X5440647Y9320079D01*
Y9303151D01*
X5457575Y9286223D01*
X5491431D01*
X5508359Y9269296D01*
Y9252368D01*
X5491431Y9235440D01*
X5457575D01*
X5440647Y9252368D01*
X5542214Y9337007D02*
X5609926D01*
X5576070D01*
Y9235440D01*
X5643782D02*
X5677637D01*
X5660710D01*
Y9337007D01*
X5643782Y9320079D01*
X5194577Y5489217D02*
Y5590784D01*
X5245361D01*
X5262289Y5573856D01*
Y5540000D01*
X5245361Y5523072D01*
X5194577D01*
X5228433D02*
X5262289Y5489217D01*
X5346928D02*
Y5590784D01*
X5296145Y5540000D01*
X5363856D01*
X5397712Y5573856D02*
X5414640Y5590784D01*
X5448495D01*
X5465423Y5573856D01*
Y5506144D01*
X5448495Y5489217D01*
X5414640D01*
X5397712Y5506144D01*
Y5573856D01*
X6062980Y10546080D02*
Y10647647D01*
X6113763D01*
X6130691Y10630719D01*
Y10596863D01*
X6113763Y10579936D01*
X6062980D01*
X6096836D02*
X6130691Y10546080D01*
X6164547Y10630719D02*
X6181475Y10647647D01*
X6215331D01*
X6232259Y10630719D01*
Y10613791D01*
X6215331Y10596863D01*
X6198403D01*
X6215331D01*
X6232259Y10579936D01*
Y10563008D01*
X6215331Y10546080D01*
X6181475D01*
X6164547Y10563008D01*
X6266114D02*
X6283042Y10546080D01*
X6316898D01*
X6333826Y10563008D01*
Y10630719D01*
X6316898Y10647647D01*
X6283042D01*
X6266114Y10630719D01*
Y10613791D01*
X6283042Y10596863D01*
X6333826D01*
X4071350Y7603110D02*
X4054422Y7620038D01*
X4020567D01*
X4003639Y7603110D01*
Y7535398D01*
X4020567Y7518470D01*
X4054422D01*
X4071350Y7535398D01*
X4105206Y7603110D02*
X4122134Y7620038D01*
X4155990D01*
X4172917Y7603110D01*
Y7586182D01*
X4155990Y7569254D01*
X4139062D01*
X4155990D01*
X4172917Y7552326D01*
Y7535398D01*
X4155990Y7518470D01*
X4122134D01*
X4105206Y7535398D01*
X4206773Y7620038D02*
X4274485D01*
Y7603110D01*
X4206773Y7535398D01*
Y7518470D01*
X5491505Y11360784D02*
Y11259216D01*
X5542288D01*
X5559216Y11276144D01*
Y11293072D01*
X5542288Y11310000D01*
X5491505D01*
X5542288D01*
X5559216Y11326928D01*
Y11343856D01*
X5542288Y11360784D01*
X5491505D01*
X5593072D02*
X5660783D01*
X5626928D01*
Y11259216D01*
X5694639D02*
X5728495D01*
X5711567D01*
Y11360784D01*
X5694639Y11343856D01*
X5329216Y6372289D02*
X5346144D01*
X5380000Y6406144D01*
X5346144Y6440000D01*
X5329216D01*
X5380000Y6406144D02*
X5430783D01*
Y6473856D02*
Y6507712D01*
Y6490784D01*
X5329216D01*
X5346144Y6473856D01*
X5672288Y6573856D02*
X5655361Y6590784D01*
X5621505D01*
X5604577Y6573856D01*
Y6506144D01*
X5621505Y6489216D01*
X5655361D01*
X5672288Y6506144D01*
X5706144Y6573856D02*
X5723072Y6590784D01*
X5756928D01*
X5773856Y6573856D01*
Y6556928D01*
X5756928Y6540000D01*
X5740000D01*
X5756928D01*
X5773856Y6523072D01*
Y6506144D01*
X5756928Y6489216D01*
X5723072D01*
X5706144Y6506144D01*
X5875423Y6590784D02*
X5841567Y6573856D01*
X5807712Y6540000D01*
Y6506144D01*
X5824639Y6489216D01*
X5858495D01*
X5875423Y6506144D01*
Y6523072D01*
X5858495Y6540000D01*
X5807712D01*
X5622127Y5906355D02*
X5605199Y5923283D01*
X5571343D01*
X5554415Y5906355D01*
Y5838644D01*
X5571343Y5821716D01*
X5605199D01*
X5622127Y5838644D01*
X5655983Y5906355D02*
X5672910Y5923283D01*
X5706766D01*
X5723694Y5906355D01*
Y5889427D01*
X5706766Y5872499D01*
X5689838D01*
X5706766D01*
X5723694Y5855571D01*
Y5838644D01*
X5706766Y5821716D01*
X5672910D01*
X5655983Y5838644D01*
X5825261Y5923283D02*
X5757550D01*
Y5872499D01*
X5791405Y5889427D01*
X5808333D01*
X5825261Y5872499D01*
Y5838644D01*
X5808333Y5821716D01*
X5774478D01*
X5757550Y5838644D01*
X4026144Y5422288D02*
X4009216Y5405361D01*
Y5371505D01*
X4026144Y5354577D01*
X4093855D01*
X4110783Y5371505D01*
Y5405361D01*
X4093855Y5422288D01*
X4026144Y5456144D02*
X4009216Y5473072D01*
Y5506928D01*
X4026144Y5523856D01*
X4043072D01*
X4060000Y5506928D01*
Y5490000D01*
Y5506928D01*
X4076928Y5523856D01*
X4093855D01*
X4110783Y5506928D01*
Y5473072D01*
X4093855Y5456144D01*
X4110783Y5608495D02*
X4009216D01*
X4060000Y5557712D01*
Y5625423D01*
X5502327Y6765066D02*
X5485399Y6781994D01*
X5451544D01*
X5434616Y6765066D01*
Y6697355D01*
X5451544Y6680427D01*
X5485399D01*
X5502327Y6697355D01*
X5536183Y6765066D02*
X5553111Y6781994D01*
X5586967D01*
X5603895Y6765066D01*
Y6748138D01*
X5586967Y6731210D01*
X5570039D01*
X5586967D01*
X5603895Y6714282D01*
Y6697355D01*
X5586967Y6680427D01*
X5553111D01*
X5536183Y6697355D01*
X5637750Y6765066D02*
X5654678Y6781994D01*
X5688534D01*
X5705462Y6765066D01*
Y6748138D01*
X5688534Y6731210D01*
X5671606D01*
X5688534D01*
X5705462Y6714282D01*
Y6697355D01*
X5688534Y6680427D01*
X5654678D01*
X5637750Y6697355D01*
X4865400Y4971994D02*
Y4887355D01*
X4882328Y4870427D01*
X4916183D01*
X4933111Y4887355D01*
Y4971994D01*
X5034678D02*
X5000823Y4955066D01*
X4966967Y4921210D01*
Y4887355D01*
X4983895Y4870427D01*
X5017750D01*
X5034678Y4887355D01*
Y4904283D01*
X5017750Y4921210D01*
X4966967D01*
X4875400Y3871994D02*
Y3787355D01*
X4892328Y3770427D01*
X4926183D01*
X4943111Y3787355D01*
Y3871994D01*
X5044678D02*
X4976967D01*
Y3821210D01*
X5010823Y3838138D01*
X5027750D01*
X5044678Y3821210D01*
Y3787355D01*
X5027750Y3770427D01*
X4993895D01*
X4976967Y3787355D01*
X4630822Y5225788D02*
X4529255D01*
Y5276572D01*
X4546183Y5293499D01*
X4580039D01*
X4596966Y5276572D01*
Y5225788D01*
Y5259644D02*
X4630822Y5293499D01*
X4546183Y5327355D02*
X4529255Y5344283D01*
Y5378139D01*
X4546183Y5395067D01*
X4563111D01*
X4580039Y5378139D01*
Y5361211D01*
Y5378139D01*
X4596966Y5395067D01*
X4613894D01*
X4630822Y5378139D01*
Y5344283D01*
X4613894Y5327355D01*
X4546183Y5428923D02*
X4529255Y5445850D01*
Y5479706D01*
X4546183Y5496634D01*
X4563111D01*
X4580039Y5479706D01*
X4596966Y5496634D01*
X4613894D01*
X4630822Y5479706D01*
Y5445850D01*
X4613894Y5428923D01*
X4596966D01*
X4580039Y5445850D01*
X4563111Y5428923D01*
X4546183D01*
X4580039Y5445850D02*
Y5479706D01*
X4880822Y5225788D02*
X4779255D01*
Y5276572D01*
X4796183Y5293499D01*
X4830039D01*
X4846966Y5276572D01*
Y5225788D01*
Y5259644D02*
X4880822Y5293499D01*
X4796183Y5327355D02*
X4779255Y5344283D01*
Y5378139D01*
X4796183Y5395067D01*
X4813111D01*
X4830039Y5378139D01*
Y5361211D01*
Y5378139D01*
X4846966Y5395067D01*
X4863894D01*
X4880822Y5378139D01*
Y5344283D01*
X4863894Y5327355D01*
X4779255Y5428923D02*
Y5496634D01*
X4796183D01*
X4863894Y5428923D01*
X4880822D01*
X5294616Y4970427D02*
Y5071994D01*
X5345400D01*
X5362327Y5055066D01*
Y5021210D01*
X5345400Y5004283D01*
X5294616D01*
X5328472D02*
X5362327Y4970427D01*
X5396183Y5055066D02*
X5413111Y5071994D01*
X5446967D01*
X5463895Y5055066D01*
Y5038138D01*
X5446967Y5021210D01*
X5430039D01*
X5446967D01*
X5463895Y5004283D01*
Y4987355D01*
X5446967Y4970427D01*
X5413111D01*
X5396183Y4987355D01*
X5565462Y5071994D02*
X5531606Y5055066D01*
X5497750Y5021210D01*
Y4987355D01*
X5514678Y4970427D01*
X5548534D01*
X5565462Y4987355D01*
Y5004283D01*
X5548534Y5021210D01*
X5497750D01*
X5530823Y3815787D02*
X5429255D01*
Y3866571D01*
X5446183Y3883499D01*
X5480039D01*
X5496967Y3866571D01*
Y3815787D01*
Y3849643D02*
X5530823Y3883499D01*
X5446183Y3917355D02*
X5429255Y3934282D01*
Y3968138D01*
X5446183Y3985066D01*
X5463111D01*
X5480039Y3968138D01*
Y3951210D01*
Y3968138D01*
X5496967Y3985066D01*
X5513895D01*
X5530823Y3968138D01*
Y3934282D01*
X5513895Y3917355D01*
X5429255Y4086633D02*
Y4018922D01*
X5480039D01*
X5463111Y4052778D01*
Y4069705D01*
X5480039Y4086633D01*
X5513895D01*
X5530823Y4069705D01*
Y4035850D01*
X5513895Y4018922D01*
X4544577Y4949216D02*
Y5050784D01*
X4595361D01*
X4612288Y5033856D01*
Y5000000D01*
X4595361Y4983072D01*
X4544577D01*
X4578433D02*
X4612288Y4949216D01*
X4646144Y5033856D02*
X4663072Y5050784D01*
X4696928D01*
X4713856Y5033856D01*
Y5016928D01*
X4696928Y5000000D01*
X4680000D01*
X4696928D01*
X4713856Y4983072D01*
Y4966144D01*
X4696928Y4949216D01*
X4663072D01*
X4646144Y4966144D01*
X4798495Y4949216D02*
Y5050784D01*
X4747712Y5000000D01*
X4815423D01*
X4610822Y3815788D02*
X4509255D01*
Y3866571D01*
X4526183Y3883499D01*
X4560039D01*
X4576966Y3866571D01*
Y3815788D01*
Y3849644D02*
X4610822Y3883499D01*
X4526183Y3917355D02*
X4509255Y3934283D01*
Y3968139D01*
X4526183Y3985066D01*
X4543111D01*
X4560039Y3968139D01*
Y3951211D01*
Y3968139D01*
X4576966Y3985066D01*
X4593894D01*
X4610822Y3968139D01*
Y3934283D01*
X4593894Y3917355D01*
X4526183Y4018922D02*
X4509255Y4035850D01*
Y4069706D01*
X4526183Y4086634D01*
X4543111D01*
X4560039Y4069706D01*
Y4052778D01*
Y4069706D01*
X4576966Y4086634D01*
X4593894D01*
X4610822Y4069706D01*
Y4035850D01*
X4593894Y4018922D01*
X5730822Y4275787D02*
X5629255D01*
Y4326571D01*
X5646183Y4343499D01*
X5680039D01*
X5696967Y4326571D01*
Y4275787D01*
Y4309643D02*
X5730822Y4343499D01*
X5646183Y4377355D02*
X5629255Y4394283D01*
Y4428138D01*
X5646183Y4445066D01*
X5663111D01*
X5680039Y4428138D01*
Y4411210D01*
Y4428138D01*
X5696967Y4445066D01*
X5713895D01*
X5730822Y4428138D01*
Y4394283D01*
X5713895Y4377355D01*
X5730822Y4546633D02*
Y4478922D01*
X5663111Y4546633D01*
X5646183D01*
X5629255Y4529705D01*
Y4495850D01*
X5646183Y4478922D01*
X4430822Y4272716D02*
X4329255D01*
Y4323499D01*
X4346183Y4340427D01*
X4380039D01*
X4396967Y4323499D01*
Y4272716D01*
Y4306571D02*
X4430822Y4340427D01*
X4346183Y4374283D02*
X4329255Y4391211D01*
Y4425066D01*
X4346183Y4441994D01*
X4363111D01*
X4380039Y4425066D01*
Y4408139D01*
Y4425066D01*
X4396967Y4441994D01*
X4413894D01*
X4430822Y4425066D01*
Y4391211D01*
X4413894Y4374283D01*
X4430822Y4475850D02*
Y4509706D01*
Y4492778D01*
X4329255D01*
X4346183Y4475850D01*
X5530823Y2805787D02*
X5429255D01*
Y2856571D01*
X5446183Y2873499D01*
X5480039D01*
X5496967Y2856571D01*
Y2805787D01*
Y2839643D02*
X5530823Y2873499D01*
X5446183Y2907355D02*
X5429255Y2924282D01*
Y2958138D01*
X5446183Y2975066D01*
X5463111D01*
X5480039Y2958138D01*
Y2941210D01*
Y2958138D01*
X5496967Y2975066D01*
X5513895D01*
X5530823Y2958138D01*
Y2924282D01*
X5513895Y2907355D01*
X5446183Y3008922D02*
X5429255Y3025850D01*
Y3059705D01*
X5446183Y3076633D01*
X5513895D01*
X5530823Y3059705D01*
Y3025850D01*
X5513895Y3008922D01*
X5446183D01*
X4590822Y2805788D02*
X4489255D01*
Y2856571D01*
X4506183Y2873499D01*
X4540038D01*
X4556966Y2856571D01*
Y2805788D01*
Y2839643D02*
X4590822Y2873499D01*
Y2975066D02*
Y2907355D01*
X4523111Y2975066D01*
X4506183D01*
X4489255Y2958138D01*
Y2924283D01*
X4506183Y2907355D01*
X4573894Y3008922D02*
X4590822Y3025850D01*
Y3059706D01*
X4573894Y3076633D01*
X4506183D01*
X4489255Y3059706D01*
Y3025850D01*
X4506183Y3008922D01*
X4523111D01*
X4540038Y3025850D01*
Y3076633D01*
X5064616Y2760427D02*
Y2861994D01*
X5115399D01*
X5132327Y2845066D01*
Y2811210D01*
X5115399Y2794282D01*
X5064616D01*
X5098472D02*
X5132327Y2760427D01*
X5233895D02*
X5166183D01*
X5233895Y2828138D01*
Y2845066D01*
X5216967Y2861994D01*
X5183111D01*
X5166183Y2845066D01*
X5267750D02*
X5284678Y2861994D01*
X5318534D01*
X5335462Y2845066D01*
Y2828138D01*
X5318534Y2811210D01*
X5335462Y2794282D01*
Y2777355D01*
X5318534Y2760427D01*
X5284678D01*
X5267750Y2777355D01*
Y2794282D01*
X5284678Y2811210D01*
X5267750Y2828138D01*
Y2845066D01*
X5284678Y2811210D02*
X5318534D01*
X5949255Y5224251D02*
X6050823D01*
Y5275035D01*
X6033895Y5291963D01*
X5966183D01*
X5949255Y5275035D01*
Y5224251D01*
X6050823Y5325819D02*
Y5359674D01*
Y5342746D01*
X5949255D01*
X5966183Y5325819D01*
X6050823Y5461242D02*
X5949255D01*
X6000039Y5410458D01*
Y5478169D01*
X5949255Y5654252D02*
X6050823D01*
Y5705035D01*
X6033895Y5721963D01*
X5966183D01*
X5949255Y5705035D01*
Y5654252D01*
X6050823Y5755819D02*
Y5789674D01*
Y5772747D01*
X5949255D01*
X5966183Y5755819D01*
Y5840458D02*
X5949255Y5857386D01*
Y5891242D01*
X5966183Y5908170D01*
X5983111D01*
X6000039Y5891242D01*
Y5874314D01*
Y5891242D01*
X6016967Y5908170D01*
X6033895D01*
X6050823Y5891242D01*
Y5857386D01*
X6033895Y5840458D01*
X5949255Y6094251D02*
X6050823D01*
Y6145035D01*
X6033895Y6161963D01*
X5966183D01*
X5949255Y6145035D01*
Y6094251D01*
X6050823Y6195819D02*
Y6229674D01*
Y6212747D01*
X5949255D01*
X5966183Y6195819D01*
X6050823Y6348169D02*
Y6280458D01*
X5983111Y6348169D01*
X5966183D01*
X5949255Y6331242D01*
Y6297386D01*
X5966183Y6280458D01*
X4026144Y4832289D02*
X4009216Y4815361D01*
Y4781505D01*
X4026144Y4764577D01*
X4093855D01*
X4110783Y4781505D01*
Y4815361D01*
X4093855Y4832289D01*
X4026144Y4866145D02*
X4009216Y4883073D01*
Y4916928D01*
X4026144Y4933856D01*
X4043072D01*
X4060000Y4916928D01*
Y4900000D01*
Y4916928D01*
X4076928Y4933856D01*
X4093855D01*
X4110783Y4916928D01*
Y4883073D01*
X4093855Y4866145D01*
X4110783Y5035423D02*
Y4967712D01*
X4043072Y5035423D01*
X4026144D01*
X4009216Y5018495D01*
Y4984640D01*
X4026144Y4967712D01*
X5056183Y2360427D02*
X5039255Y2343499D01*
Y2309643D01*
X5056183Y2292716D01*
X5123894D01*
X5140822Y2309643D01*
Y2343499D01*
X5123894Y2360427D01*
X5056183Y2394283D02*
X5039255Y2411211D01*
Y2445066D01*
X5056183Y2461994D01*
X5073111D01*
X5090039Y2445066D01*
Y2428138D01*
Y2445066D01*
X5106966Y2461994D01*
X5123894D01*
X5140822Y2445066D01*
Y2411211D01*
X5123894Y2394283D01*
X5140822Y2495850D02*
Y2529706D01*
Y2512778D01*
X5039255D01*
X5056183Y2495850D01*
X4026144Y4242288D02*
X4009216Y4225361D01*
Y4191505D01*
X4026144Y4174577D01*
X4093856D01*
X4110783Y4191505D01*
Y4225361D01*
X4093856Y4242288D01*
X4026144Y4276144D02*
X4009216Y4293072D01*
Y4326928D01*
X4026144Y4343856D01*
X4043072D01*
X4060000Y4326928D01*
Y4310000D01*
Y4326928D01*
X4076928Y4343856D01*
X4093856D01*
X4110783Y4326928D01*
Y4293072D01*
X4093856Y4276144D01*
X4026144Y4377712D02*
X4009216Y4394639D01*
Y4428495D01*
X4026144Y4445423D01*
X4093856D01*
X4110783Y4428495D01*
Y4394639D01*
X4093856Y4377712D01*
X4026144D01*
X5702327Y5055066D02*
X5685400Y5071994D01*
X5651544D01*
X5634616Y5055066D01*
Y4987355D01*
X5651544Y4970427D01*
X5685400D01*
X5702327Y4987355D01*
X5803895Y4970427D02*
X5736183D01*
X5803895Y5038138D01*
Y5055066D01*
X5786967Y5071994D01*
X5753111D01*
X5736183Y5055066D01*
X5837751Y4987355D02*
X5854678Y4970427D01*
X5888534D01*
X5905462Y4987355D01*
Y5055066D01*
X5888534Y5071994D01*
X5854678D01*
X5837751Y5055066D01*
Y5038138D01*
X5854678Y5021210D01*
X5905462D01*
X3126144Y7902289D02*
X3109216Y7885361D01*
Y7851505D01*
X3126144Y7834577D01*
X3193855D01*
X3210783Y7851505D01*
Y7885361D01*
X3193855Y7902289D01*
X3210783Y8003856D02*
Y7936145D01*
X3143072Y8003856D01*
X3126144D01*
X3109216Y7986928D01*
Y7953072D01*
X3126144Y7936145D01*
Y8037712D02*
X3109216Y8054640D01*
Y8088495D01*
X3126144Y8105423D01*
X3143072D01*
X3160000Y8088495D01*
X3176928Y8105423D01*
X3193855D01*
X3210783Y8088495D01*
Y8054640D01*
X3193855Y8037712D01*
X3176928D01*
X3160000Y8054640D01*
X3143072Y8037712D01*
X3126144D01*
X3160000Y8054640D02*
Y8088495D01*
X2886144Y7902289D02*
X2869216Y7885361D01*
Y7851505D01*
X2886144Y7834577D01*
X2953855D01*
X2970783Y7851505D01*
Y7885361D01*
X2953855Y7902289D01*
X2970783Y8003856D02*
Y7936145D01*
X2903072Y8003856D01*
X2886144D01*
X2869216Y7986928D01*
Y7953072D01*
X2886144Y7936145D01*
X2869216Y8037712D02*
Y8105423D01*
X2886144D01*
X2953855Y8037712D01*
X2970783D01*
X5650822Y7795788D02*
X5549255D01*
Y7846571D01*
X5566183Y7863499D01*
X5600039D01*
X5616967Y7846571D01*
Y7795788D01*
Y7829643D02*
X5650822Y7863499D01*
Y7965066D02*
Y7897355D01*
X5583111Y7965066D01*
X5566183D01*
X5549255Y7948138D01*
Y7914283D01*
X5566183Y7897355D01*
X5549255Y7998922D02*
Y8066633D01*
X5566183D01*
X5633894Y7998922D01*
X5650822D01*
X4694616Y2770427D02*
Y2871994D01*
X4745399D01*
X4762327Y2855066D01*
Y2821210D01*
X4745399Y2804282D01*
X4694616D01*
X4728472D02*
X4762327Y2770427D01*
X4863895D02*
X4796183D01*
X4863895Y2838138D01*
Y2855066D01*
X4846967Y2871994D01*
X4813111D01*
X4796183Y2855066D01*
X4965462Y2871994D02*
X4931606Y2855066D01*
X4897750Y2821210D01*
Y2787355D01*
X4914678Y2770427D01*
X4948534D01*
X4965462Y2787355D01*
Y2804282D01*
X4948534Y2821210D01*
X4897750D01*
X3984577Y1619216D02*
Y1720784D01*
X4035361D01*
X4052289Y1703856D01*
Y1670000D01*
X4035361Y1653072D01*
X3984577D01*
X4018433D02*
X4052289Y1619216D01*
X4153856D02*
X4086144D01*
X4153856Y1686928D01*
Y1703856D01*
X4136928Y1720784D01*
X4103072D01*
X4086144Y1703856D01*
X4255423Y1720784D02*
X4187712D01*
Y1670000D01*
X4221567Y1686928D01*
X4238495D01*
X4255423Y1670000D01*
Y1636144D01*
X4238495Y1619216D01*
X4204640D01*
X4187712Y1636144D01*
X3984577Y1409216D02*
Y1510784D01*
X4035361D01*
X4052289Y1493856D01*
Y1460000D01*
X4035361Y1443072D01*
X3984577D01*
X4018433D02*
X4052289Y1409216D01*
X4153856D02*
X4086144D01*
X4153856Y1476928D01*
Y1493856D01*
X4136928Y1510784D01*
X4103072D01*
X4086144Y1493856D01*
X4238495Y1409216D02*
Y1510784D01*
X4187712Y1460000D01*
X4255423D01*
X4390784Y1045787D02*
X4289216D01*
Y1096571D01*
X4306144Y1113498D01*
X4340000D01*
X4356928Y1096571D01*
Y1045787D01*
Y1079643D02*
X4390784Y1113498D01*
Y1215066D02*
Y1147354D01*
X4323072Y1215066D01*
X4306144D01*
X4289216Y1198138D01*
Y1164282D01*
X4306144Y1147354D01*
Y1248922D02*
X4289216Y1265849D01*
Y1299705D01*
X4306144Y1316633D01*
X4323072D01*
X4340000Y1299705D01*
Y1282777D01*
Y1299705D01*
X4356928Y1316633D01*
X4373856D01*
X4390784Y1299705D01*
Y1265849D01*
X4373856Y1248922D01*
X4734577Y1449217D02*
Y1550784D01*
X4785361D01*
X4802288Y1533856D01*
Y1500000D01*
X4785361Y1483072D01*
X4734577D01*
X4768433D02*
X4802288Y1449217D01*
X4903856D02*
X4836144D01*
X4903856Y1516928D01*
Y1533856D01*
X4886928Y1550784D01*
X4853072D01*
X4836144Y1533856D01*
X5005423Y1449217D02*
X4937711D01*
X5005423Y1516928D01*
Y1533856D01*
X4988495Y1550784D01*
X4954639D01*
X4937711Y1533856D01*
X5191544Y1010427D02*
Y1111994D01*
X5242327D01*
X5259255Y1095067D01*
Y1061211D01*
X5242327Y1044283D01*
X5191544D01*
X5225400D02*
X5259255Y1010427D01*
X5360822D02*
X5293111D01*
X5360822Y1078139D01*
Y1095067D01*
X5343895Y1111994D01*
X5310039D01*
X5293111Y1095067D01*
X5394678Y1010427D02*
X5428534D01*
X5411606D01*
Y1111994D01*
X5394678Y1095067D01*
X5689255Y1436633D02*
X5790823D01*
Y1385850D01*
X5773895Y1368922D01*
X5740039D01*
X5723111Y1385850D01*
Y1436633D01*
Y1402778D02*
X5689255Y1368922D01*
Y1267355D02*
Y1335066D01*
X5756967Y1267355D01*
X5773895D01*
X5790823Y1284283D01*
Y1318138D01*
X5773895Y1335066D01*
Y1233499D02*
X5790823Y1216571D01*
Y1182715D01*
X5773895Y1165788D01*
X5706183D01*
X5689255Y1182715D01*
Y1216571D01*
X5706183Y1233499D01*
X5773895D01*
X5679255Y1068170D02*
X5780823D01*
Y1017386D01*
X5763895Y1000458D01*
X5730039D01*
X5713111Y1017386D01*
Y1068170D01*
Y1034314D02*
X5679255Y1000458D01*
Y966602D02*
Y932747D01*
Y949675D01*
X5780823D01*
X5763895Y966602D01*
X5696183Y881963D02*
X5679255Y865035D01*
Y831179D01*
X5696183Y814252D01*
X5763895D01*
X5780823Y831179D01*
Y865035D01*
X5763895Y881963D01*
X5746967D01*
X5730039Y865035D01*
Y814252D01*
X5073080Y1940427D02*
Y2041994D01*
X5123864D01*
X5140791Y2025066D01*
Y1991210D01*
X5123864Y1974283D01*
X5073080D01*
X5106936D02*
X5140791Y1940427D01*
X5174647D02*
X5208503D01*
X5191575D01*
Y2041994D01*
X5174647Y2025066D01*
X5259287D02*
X5276214Y2041994D01*
X5310070D01*
X5326998Y2025066D01*
Y2008138D01*
X5310070Y1991210D01*
X5326998Y1974283D01*
Y1957355D01*
X5310070Y1940427D01*
X5276214D01*
X5259287Y1957355D01*
Y1974283D01*
X5276214Y1991210D01*
X5259287Y2008138D01*
Y2025066D01*
X5276214Y1991210D02*
X5310070D01*
X365361Y9550784D02*
Y9449217D01*
Y9483072D01*
X433072Y9550784D01*
X382289Y9500000D01*
X433072Y9449217D01*
X534640Y9550784D02*
X500784Y9533856D01*
X466928Y9500000D01*
Y9466144D01*
X483856Y9449217D01*
X517712D01*
X534640Y9466144D01*
Y9483072D01*
X517712Y9500000D01*
X466928D01*
X365361Y8220784D02*
Y8119216D01*
Y8153072D01*
X433072Y8220784D01*
X382289Y8170000D01*
X433072Y8119216D01*
X534640Y8220784D02*
X466928D01*
Y8170000D01*
X500784Y8186928D01*
X517712D01*
X534640Y8170000D01*
Y8136144D01*
X517712Y8119216D01*
X483856D01*
X466928Y8136144D01*
X5823080Y7571994D02*
X5856936D01*
X5840008D01*
Y7470427D01*
X5823080D01*
X5856936D01*
X5975431Y7555066D02*
X5958503Y7571994D01*
X5924647D01*
X5907719Y7555066D01*
Y7487355D01*
X5924647Y7470427D01*
X5958503D01*
X5975431Y7487355D01*
X6076998Y7571994D02*
X6043142Y7555066D01*
X6009287Y7521210D01*
Y7487355D01*
X6026215Y7470427D01*
X6060070D01*
X6076998Y7487355D01*
Y7504282D01*
X6060070Y7521210D01*
X6009287D01*
X2139279Y10195598D02*
X2173135D01*
X2156207D01*
Y10094030D01*
X2139279D01*
X2173135D01*
X2291630Y10178670D02*
X2274702Y10195598D01*
X2240846D01*
X2223918Y10178670D01*
Y10110958D01*
X2240846Y10094030D01*
X2274702D01*
X2291630Y10110958D01*
X2393197Y10195598D02*
X2325486D01*
Y10144814D01*
X2359341Y10161742D01*
X2376269D01*
X2393197Y10144814D01*
Y10110958D01*
X2376269Y10094030D01*
X2342413D01*
X2325486Y10110958D01*
X2214610Y6591338D02*
X2146899D01*
Y6540554D01*
X2180755D01*
X2146899D01*
Y6489770D01*
X2299250D02*
Y6591338D01*
X2248466Y6540554D01*
X2316177D01*
X2196830Y9171978D02*
X2129119D01*
Y9121194D01*
X2162975D01*
X2129119D01*
Y9070410D01*
X2230686Y9155050D02*
X2247614Y9171978D01*
X2281470D01*
X2298397Y9155050D01*
Y9138122D01*
X2281470Y9121194D01*
X2264542D01*
X2281470D01*
X2298397Y9104266D01*
Y9087338D01*
X2281470Y9070410D01*
X2247614D01*
X2230686Y9087338D01*
X1873111Y11351994D02*
X1805400D01*
Y11301210D01*
X1839255D01*
X1805400D01*
Y11250427D01*
X1974678D02*
X1906967D01*
X1974678Y11318138D01*
Y11335066D01*
X1957750Y11351994D01*
X1923895D01*
X1906967Y11335066D01*
X2214610Y5582958D02*
X2146899D01*
Y5532174D01*
X2180755D01*
X2146899D01*
Y5481390D01*
X2248466D02*
X2282322D01*
X2265394D01*
Y5582958D01*
X2248466Y5566030D01*
X6580008Y8641994D02*
Y8540427D01*
X6630791D01*
X6647719Y8557355D01*
Y8625066D01*
X6630791Y8641994D01*
X6580008D01*
X6681575Y8540427D02*
X6715431D01*
X6698503D01*
Y8641994D01*
X6681575Y8625066D01*
X6766215Y8540427D02*
X6800070D01*
X6783142D01*
Y8641994D01*
X6766215Y8625066D01*
X7158319Y6916458D02*
Y6814890D01*
X7209102D01*
X7226030Y6831818D01*
Y6899530D01*
X7209102Y6916458D01*
X7158319D01*
X7259886Y6814890D02*
X7293742D01*
X7276814D01*
Y6916458D01*
X7259886Y6899530D01*
X7344526D02*
X7361453Y6916458D01*
X7395309D01*
X7412237Y6899530D01*
Y6831818D01*
X7395309Y6814890D01*
X7361453D01*
X7344526Y6831818D01*
Y6899530D01*
X4465400Y1961994D02*
Y1860427D01*
X4516183D01*
X4533111Y1877355D01*
Y1945066D01*
X4516183Y1961994D01*
X4465400D01*
X4566967Y1877355D02*
X4583895Y1860427D01*
X4617750D01*
X4634678Y1877355D01*
Y1945066D01*
X4617750Y1961994D01*
X4583895D01*
X4566967Y1945066D01*
Y1928138D01*
X4583895Y1911211D01*
X4634678D01*
X5949255Y4206571D02*
X6050822D01*
Y4257355D01*
X6033894Y4274283D01*
X5966183D01*
X5949255Y4257355D01*
Y4206571D01*
Y4308138D02*
Y4375850D01*
X5966183D01*
X6033894Y4308138D01*
X6050822D01*
X6682327Y7475066D02*
X6665399Y7491994D01*
X6631544D01*
X6614616Y7475066D01*
Y7407355D01*
X6631544Y7390427D01*
X6665399D01*
X6682327Y7407355D01*
X6783894Y7390427D02*
X6716183D01*
X6783894Y7458138D01*
Y7475066D01*
X6766967Y7491994D01*
X6733111D01*
X6716183Y7475066D01*
X6885462Y7491994D02*
X6851606Y7475066D01*
X6817750Y7441210D01*
Y7407355D01*
X6834678Y7390427D01*
X6868534D01*
X6885462Y7407355D01*
Y7424283D01*
X6868534Y7441210D01*
X6817750D01*
X6336183Y8493499D02*
X6319255Y8476571D01*
Y8442716D01*
X6336183Y8425788D01*
X6403894D01*
X6420822Y8442716D01*
Y8476571D01*
X6403894Y8493499D01*
X6420822Y8595066D02*
Y8527355D01*
X6353111Y8595066D01*
X6336183D01*
X6319255Y8578139D01*
Y8544283D01*
X6336183Y8527355D01*
X6319255Y8696634D02*
Y8628922D01*
X6370039D01*
X6353111Y8662778D01*
Y8679706D01*
X6370039Y8696634D01*
X6403894D01*
X6420822Y8679706D01*
Y8645850D01*
X6403894Y8628922D01*
X6312327Y7365066D02*
X6295400Y7381994D01*
X6261544D01*
X6244616Y7365066D01*
Y7297355D01*
X6261544Y7280427D01*
X6295400D01*
X6312327Y7297355D01*
X6413895Y7280427D02*
X6346183D01*
X6413895Y7348138D01*
Y7365066D01*
X6396967Y7381994D01*
X6363111D01*
X6346183Y7365066D01*
X6498534Y7280427D02*
Y7381994D01*
X6447751Y7331210D01*
X6515462D01*
X6405400Y7061994D02*
Y6960427D01*
X6456183D01*
X6473111Y6977355D01*
Y7045066D01*
X6456183Y7061994D01*
X6405400D01*
X6506967Y7045066D02*
X6523895Y7061994D01*
X6557750D01*
X6574678Y7045066D01*
Y7028138D01*
X6557750Y7011210D01*
X6574678Y6994282D01*
Y6977355D01*
X6557750Y6960427D01*
X6523895D01*
X6506967Y6977355D01*
Y6994282D01*
X6523895Y7011210D01*
X6506967Y7028138D01*
Y7045066D01*
X6523895Y7011210D02*
X6557750D01*
X3693041Y5069216D02*
Y5170784D01*
X3743825D01*
X3760752Y5153856D01*
Y5120000D01*
X3743825Y5103072D01*
X3693041D01*
X3726897D02*
X3760752Y5069216D01*
X3794608D02*
X3828464D01*
X3811536D01*
Y5170784D01*
X3794608Y5153856D01*
X3879248Y5170784D02*
X3946959D01*
Y5153856D01*
X3879248Y5086144D01*
Y5069216D01*
X2983080Y4930427D02*
Y5031994D01*
X3033863D01*
X3050791Y5015066D01*
Y4981210D01*
X3033863Y4964282D01*
X2983080D01*
X3016936D02*
X3050791Y4930427D01*
X3084647D02*
X3118503D01*
X3101575D01*
Y5031994D01*
X3084647Y5015066D01*
X3236998Y5031994D02*
X3203142Y5015066D01*
X3169287Y4981210D01*
Y4947355D01*
X3186214Y4930427D01*
X3220070D01*
X3236998Y4947355D01*
Y4964282D01*
X3220070Y4981210D01*
X3169287D01*
X5959255Y3346571D02*
X6060823D01*
Y3397355D01*
X6043895Y3414282D01*
X5976183D01*
X5959255Y3397355D01*
Y3346571D01*
X6060823Y3498922D02*
X5959255D01*
X6010039Y3448138D01*
Y3515850D01*
X6195400Y6581994D02*
Y6480427D01*
X6246183D01*
X6263111Y6497355D01*
Y6565066D01*
X6246183Y6581994D01*
X6195400D01*
X6364678D02*
X6330823Y6565066D01*
X6296967Y6531210D01*
Y6497355D01*
X6313895Y6480427D01*
X6347751D01*
X6364678Y6497355D01*
Y6514283D01*
X6347751Y6531210D01*
X6296967D01*
X5646183Y3883499D02*
X5629255Y3866571D01*
Y3832715D01*
X5646183Y3815788D01*
X5713894D01*
X5730822Y3832715D01*
Y3866571D01*
X5713894Y3883499D01*
X5730822Y3985066D02*
Y3917355D01*
X5663111Y3985066D01*
X5646183D01*
X5629255Y3968138D01*
Y3934283D01*
X5646183Y3917355D01*
Y4018922D02*
X5629255Y4035850D01*
Y4069706D01*
X5646183Y4086633D01*
X5713894D01*
X5730822Y4069706D01*
Y4035850D01*
X5713894Y4018922D01*
X5646183D01*
X4673080Y8061994D02*
X4706936D01*
X4690008D01*
Y7960427D01*
X4673080D01*
X4706936D01*
X4825431Y8045066D02*
X4808503Y8061994D01*
X4774647D01*
X4757719Y8045066D01*
Y7977355D01*
X4774647Y7960427D01*
X4808503D01*
X4825431Y7977355D01*
X4910070Y7960427D02*
Y8061994D01*
X4859287Y8011210D01*
X4926998D01*
X5783080Y6680427D02*
Y6781994D01*
X5833864D01*
X5850791Y6765066D01*
Y6731210D01*
X5833864Y6714282D01*
X5783080D01*
X5816936D02*
X5850791Y6680427D01*
X5884647D02*
X5918503D01*
X5901575D01*
Y6781994D01*
X5884647Y6765066D01*
X6036998Y6781994D02*
X5969287D01*
Y6731210D01*
X6003142Y6748138D01*
X6020070D01*
X6036998Y6731210D01*
Y6697355D01*
X6020070Y6680427D01*
X5986215D01*
X5969287Y6697355D01*
X5223080Y7240427D02*
Y7341994D01*
X5273863D01*
X5290791Y7325066D01*
Y7291210D01*
X5273863Y7274283D01*
X5223080D01*
X5256936D02*
X5290791Y7240427D01*
X5324647D02*
X5358503D01*
X5341575D01*
Y7341994D01*
X5324647Y7325066D01*
X5460070Y7240427D02*
Y7341994D01*
X5409287Y7291210D01*
X5476998D01*
X3693041Y4479217D02*
Y4580784D01*
X3743825D01*
X3760752Y4563856D01*
Y4530000D01*
X3743825Y4513072D01*
X3693041D01*
X3726897D02*
X3760752Y4479217D01*
X3794608D02*
X3828464D01*
X3811536D01*
Y4580784D01*
X3794608Y4563856D01*
X3879248D02*
X3896176Y4580784D01*
X3930031D01*
X3946959Y4563856D01*
Y4546928D01*
X3930031Y4530000D01*
X3913103D01*
X3930031D01*
X3946959Y4513072D01*
Y4496144D01*
X3930031Y4479217D01*
X3896176D01*
X3879248Y4496144D01*
X4336183Y2871963D02*
X4319255Y2855035D01*
Y2821180D01*
X4336183Y2804252D01*
X4403894D01*
X4420822Y2821180D01*
Y2855035D01*
X4403894Y2871963D01*
X4420822Y2905819D02*
Y2939675D01*
Y2922747D01*
X4319255D01*
X4336183Y2905819D01*
X4319255Y3058170D02*
X4336183Y3024314D01*
X4370039Y2990458D01*
X4403894D01*
X4420822Y3007386D01*
Y3041242D01*
X4403894Y3058170D01*
X4386967D01*
X4370039Y3041242D01*
Y2990458D01*
X3055400Y5251994D02*
Y5167355D01*
X3072327Y5150427D01*
X3106183D01*
X3123111Y5167355D01*
Y5251994D01*
X3207750Y5150427D02*
Y5251994D01*
X3156967Y5201210D01*
X3224678D01*
X3055400Y4641994D02*
Y4557355D01*
X3072327Y4540427D01*
X3106183D01*
X3123111Y4557355D01*
Y4641994D01*
X3156967Y4625066D02*
X3173895Y4641994D01*
X3207750D01*
X3224678Y4625066D01*
Y4608138D01*
X3207750Y4591210D01*
X3190822D01*
X3207750D01*
X3224678Y4574282D01*
Y4557355D01*
X3207750Y4540427D01*
X3173895D01*
X3156967Y4557355D01*
X3065400Y4061994D02*
Y3977355D01*
X3082327Y3960427D01*
X3116183D01*
X3133111Y3977355D01*
Y4061994D01*
X3234678Y3960427D02*
X3166967D01*
X3234678Y4028138D01*
Y4045066D01*
X3217750Y4061994D01*
X3183895D01*
X3166967Y4045066D01*
X3003080Y4320427D02*
Y4421994D01*
X3053863D01*
X3070791Y4405066D01*
Y4371210D01*
X3053863Y4354282D01*
X3003080D01*
X3036936D02*
X3070791Y4320427D01*
X3104647D02*
X3138503D01*
X3121575D01*
Y4421994D01*
X3104647Y4405066D01*
X3256998Y4320427D02*
X3189286D01*
X3256998Y4388138D01*
Y4405066D01*
X3240070Y4421994D01*
X3206214D01*
X3189286Y4405066D01*
X5360008Y2090427D02*
Y2191994D01*
X5410791D01*
X5427719Y2175066D01*
Y2141210D01*
X5410791Y2124283D01*
X5360008D01*
X5393863D02*
X5427719Y2090427D01*
X5461575D02*
X5495431D01*
X5478503D01*
Y2191994D01*
X5461575Y2175066D01*
X5546214Y2090427D02*
X5580070D01*
X5563142D01*
Y2191994D01*
X5546214Y2175066D01*
X3693041Y3889217D02*
Y3990784D01*
X3743825D01*
X3760752Y3973856D01*
Y3940000D01*
X3743825Y3923072D01*
X3693041D01*
X3726897D02*
X3760752Y3889217D01*
X3794608D02*
X3828464D01*
X3811536D01*
Y3990784D01*
X3794608Y3973856D01*
X3879248D02*
X3896176Y3990784D01*
X3930031D01*
X3946959Y3973856D01*
Y3906144D01*
X3930031Y3889217D01*
X3896176D01*
X3879248Y3906144D01*
Y3973856D01*
X5949255Y3756571D02*
X6050822D01*
Y3807355D01*
X6033894Y3824282D01*
X5966183D01*
X5949255Y3807355D01*
Y3756571D01*
Y3925850D02*
Y3858138D01*
X6000039D01*
X5983111Y3891994D01*
Y3908922D01*
X6000039Y3925850D01*
X6033894D01*
X6050822Y3908922D01*
Y3875066D01*
X6033894Y3858138D01*
X6025400Y1611994D02*
Y1510427D01*
X6076183D01*
X6093111Y1527355D01*
Y1595066D01*
X6076183Y1611994D01*
X6025400D01*
X6126967Y1595066D02*
X6143895Y1611994D01*
X6177750D01*
X6194678Y1595066D01*
Y1578138D01*
X6177750Y1561210D01*
X6160823D01*
X6177750D01*
X6194678Y1544282D01*
Y1527355D01*
X6177750Y1510427D01*
X6143895D01*
X6126967Y1527355D01*
X5646183Y2891963D02*
X5629255Y2875035D01*
Y2841179D01*
X5646183Y2824252D01*
X5713895D01*
X5730822Y2841179D01*
Y2875035D01*
X5713895Y2891963D01*
X5730822Y2925819D02*
Y2959675D01*
Y2942747D01*
X5629255D01*
X5646183Y2925819D01*
X5713895Y3010458D02*
X5730822Y3027386D01*
Y3061242D01*
X5713895Y3078170D01*
X5646183D01*
X5629255Y3061242D01*
Y3027386D01*
X5646183Y3010458D01*
X5663111D01*
X5680039Y3027386D01*
Y3078170D01*
X4300752Y5033856D02*
X4283825Y5050784D01*
X4249969D01*
X4233041Y5033856D01*
Y4966144D01*
X4249969Y4949216D01*
X4283825D01*
X4300752Y4966144D01*
X4334608Y4949216D02*
X4368464D01*
X4351536D01*
Y5050784D01*
X4334608Y5033856D01*
X4419248D02*
X4436176Y5050784D01*
X4470031D01*
X4486959Y5033856D01*
Y5016928D01*
X4470031Y5000000D01*
X4486959Y4983072D01*
Y4966144D01*
X4470031Y4949216D01*
X4436176D01*
X4419248Y4966144D01*
Y4983072D01*
X4436176Y5000000D01*
X4419248Y5016928D01*
Y5033856D01*
X4436176Y5000000D02*
X4470031D01*
X4326183Y3891963D02*
X4309255Y3875035D01*
Y3841180D01*
X4326183Y3824252D01*
X4393894D01*
X4410822Y3841180D01*
Y3875035D01*
X4393894Y3891963D01*
X4410822Y3925819D02*
Y3959675D01*
Y3942747D01*
X4309255D01*
X4326183Y3925819D01*
X4309255Y4010458D02*
Y4078170D01*
X4326183D01*
X4393894Y4010458D01*
X4410822D01*
X7018441Y10621994D02*
Y10520427D01*
X7069224D01*
X7086152Y10537355D01*
Y10605066D01*
X7069224Y10621994D01*
X7018441D01*
X7120008D02*
X7153864D01*
X7136936D01*
Y10520427D01*
X7120008D01*
X7153864D01*
X7272359Y10605066D02*
X7255431Y10621994D01*
X7221575D01*
X7204647Y10605066D01*
Y10588138D01*
X7221575Y10571210D01*
X7255431D01*
X7272359Y10554282D01*
Y10537355D01*
X7255431Y10520427D01*
X7221575D01*
X7204647Y10537355D01*
X7306214Y10520427D02*
Y10621994D01*
X7356998D01*
X7373926Y10605066D01*
Y10571210D01*
X7356998Y10554282D01*
X7306214D01*
X7407782Y10520427D02*
X7441637D01*
X7424710D01*
Y10621994D01*
X7407782Y10605066D01*
X3102328Y3471994D02*
Y3387355D01*
X3119255Y3370427D01*
X3153111D01*
X3170039Y3387355D01*
Y3471994D01*
X3203895Y3370427D02*
X3237750D01*
X3220823D01*
Y3471994D01*
X3203895Y3455066D01*
X3830822Y3066571D02*
X3729255D01*
Y3117355D01*
X3746182Y3134283D01*
X3780038D01*
X3796966Y3117355D01*
Y3066571D01*
Y3100427D02*
X3830822Y3134283D01*
X3813894Y3168138D02*
X3830822Y3185066D01*
Y3218922D01*
X3813894Y3235850D01*
X3746182D01*
X3729255Y3218922D01*
Y3185066D01*
X3746182Y3168138D01*
X3763111D01*
X3780038Y3185066D01*
Y3235850D01*
X3075399Y3730427D02*
Y3831994D01*
X3126183D01*
X3143111Y3815066D01*
Y3781210D01*
X3126183Y3764283D01*
X3075399D01*
X3109255D02*
X3143111Y3730427D01*
X3176967Y3815066D02*
X3193895Y3831994D01*
X3227750D01*
X3244678Y3815066D01*
Y3798138D01*
X3227750Y3781210D01*
X3244678Y3764283D01*
Y3747355D01*
X3227750Y3730427D01*
X3193895D01*
X3176967Y3747355D01*
Y3764283D01*
X3193895Y3781210D01*
X3176967Y3798138D01*
Y3815066D01*
X3193895Y3781210D02*
X3227750D01*
X5655400Y2590427D02*
Y2691994D01*
X5706183D01*
X5723111Y2675066D01*
Y2641210D01*
X5706183Y2624283D01*
X5655400D01*
X5689255D02*
X5723111Y2590427D01*
X5756967Y2691994D02*
X5824678D01*
Y2675066D01*
X5756967Y2607355D01*
Y2590427D01*
X3095400Y3150427D02*
Y3251994D01*
X3146183D01*
X3163111Y3235066D01*
Y3201210D01*
X3146183Y3184282D01*
X3095400D01*
X3129255D02*
X3163111Y3150427D01*
X3264678Y3251994D02*
X3230823Y3235066D01*
X3196967Y3201210D01*
Y3167355D01*
X3213895Y3150427D01*
X3247750D01*
X3264678Y3167355D01*
Y3184282D01*
X3247750Y3201210D01*
X3196967D01*
X4070000Y3716144D02*
Y3783856D01*
X4053072Y3800784D01*
X4019216D01*
X4002289Y3783856D01*
Y3716144D01*
X4019216Y3699217D01*
X4053072D01*
X4036144Y3733072D02*
X4070000Y3699217D01*
X4053072D02*
X4070000Y3716144D01*
X4103856Y3699217D02*
X4137712D01*
X4120784D01*
Y3800784D01*
X4103856Y3783856D01*
X365361Y6890784D02*
Y6789217D01*
Y6823072D01*
X433072Y6890784D01*
X382289Y6840000D01*
X433072Y6789217D01*
X517712D02*
Y6890784D01*
X466928Y6840000D01*
X534640D01*
X365361Y4220784D02*
Y4119217D01*
Y4153072D01*
X433072Y4220784D01*
X382289Y4170000D01*
X433072Y4119217D01*
X534640D02*
X466928D01*
X534640Y4186928D01*
Y4203856D01*
X517712Y4220784D01*
X483856D01*
X466928Y4203856D01*
X3098433Y9273856D02*
X3081505Y9290784D01*
X3047649D01*
X3030721Y9273856D01*
Y9256928D01*
X3047649Y9240000D01*
X3081505D01*
X3098433Y9223072D01*
Y9206144D01*
X3081505Y9189217D01*
X3047649D01*
X3030721Y9206144D01*
X3132289Y9290784D02*
Y9189217D01*
X3166144Y9223072D01*
X3200000Y9189217D01*
Y9290784D01*
X3233856D02*
Y9189217D01*
X3284639D01*
X3301567Y9206144D01*
Y9273856D01*
X3284639Y9290784D01*
X3233856D01*
X3335423Y9189217D02*
X3369279D01*
X3352351D01*
Y9290784D01*
X3335423Y9273856D01*
X2139279Y7536218D02*
X2173135D01*
X2156207D01*
Y7434650D01*
X2139279D01*
X2173135D01*
X2291630Y7519290D02*
X2274702Y7536218D01*
X2240846D01*
X2223918Y7519290D01*
Y7451578D01*
X2240846Y7434650D01*
X2274702D01*
X2291630Y7451578D01*
X2325486Y7519290D02*
X2342413Y7536218D01*
X2376269D01*
X2393197Y7519290D01*
Y7502362D01*
X2376269Y7485434D01*
X2359341D01*
X2376269D01*
X2393197Y7468506D01*
Y7451578D01*
X2376269Y7434650D01*
X2342413D01*
X2325486Y7451578D01*
X2139279Y4866678D02*
X2173135D01*
X2156207D01*
Y4765110D01*
X2139279D01*
X2173135D01*
X2291630Y4849750D02*
X2274702Y4866678D01*
X2240846D01*
X2223918Y4849750D01*
Y4782038D01*
X2240846Y4765110D01*
X2274702D01*
X2291630Y4782038D01*
X2393197Y4765110D02*
X2325486D01*
X2393197Y4832822D01*
Y4849750D01*
X2376269Y4866678D01*
X2342413D01*
X2325486Y4849750D01*
X5702328Y2021994D02*
Y1920427D01*
X5753111D01*
X5770039Y1937355D01*
Y2005066D01*
X5753111Y2021994D01*
X5702328D01*
X5803895Y1920427D02*
X5837751D01*
X5820823D01*
Y2021994D01*
X5803895Y2005066D01*
X2418679Y11351298D02*
Y11249730D01*
X2469462D01*
X2486390Y11266658D01*
Y11334370D01*
X2469462Y11351298D01*
X2418679D01*
X2587957Y11249730D02*
X2520246D01*
X2587957Y11317442D01*
Y11334370D01*
X2571030Y11351298D01*
X2537174D01*
X2520246Y11334370D01*
X850792Y1685066D02*
X833864Y1701994D01*
X800008D01*
X783080Y1685066D01*
Y1617355D01*
X800008Y1600427D01*
X833864D01*
X850792Y1617355D01*
X884647Y1600427D02*
X918503D01*
X901575D01*
Y1701994D01*
X884647Y1685066D01*
X1036998Y1701994D02*
X969287D01*
Y1651210D01*
X1003143Y1668138D01*
X1020070D01*
X1036998Y1651210D01*
Y1617355D01*
X1020070Y1600427D01*
X986215D01*
X969287Y1617355D01*
X3102327Y6161994D02*
X3034616D01*
Y6111210D01*
X3068472D01*
X3034616D01*
Y6060427D01*
X3136183Y6161994D02*
Y6060427D01*
X3186967D01*
X3203895Y6077355D01*
Y6094282D01*
X3186967Y6111210D01*
X3136183D01*
X3186967D01*
X3203895Y6128138D01*
Y6145066D01*
X3186967Y6161994D01*
X3136183D01*
X3305462Y6060427D02*
X3237750D01*
X3305462Y6128138D01*
Y6145066D01*
X3288534Y6161994D01*
X3254678D01*
X3237750Y6145066D01*
X3070791Y6395066D02*
X3053863Y6411994D01*
X3020008D01*
X3003080Y6395066D01*
Y6327355D01*
X3020008Y6310427D01*
X3053863D01*
X3070791Y6327355D01*
X3104647Y6310427D02*
X3138503D01*
X3121575D01*
Y6411994D01*
X3104647Y6395066D01*
X3189286D02*
X3206214Y6411994D01*
X3240070D01*
X3256998Y6395066D01*
Y6327355D01*
X3240070Y6310427D01*
X3206214D01*
X3189286Y6327355D01*
Y6395066D01*
X3640008Y7181994D02*
X3673864D01*
X3656936D01*
Y7080427D01*
X3640008D01*
X3673864D01*
X3792359Y7165066D02*
X3775431Y7181994D01*
X3741575D01*
X3724647Y7165066D01*
Y7097355D01*
X3741575Y7080427D01*
X3775431D01*
X3792359Y7097355D01*
X3826215Y7080427D02*
X3860070D01*
X3843142D01*
Y7181994D01*
X3826215Y7165066D01*
X3430784Y1905361D02*
X3329216D01*
Y1956144D01*
X3346144Y1973072D01*
X3380000D01*
X3396928Y1956144D01*
Y1905361D01*
Y1939217D02*
X3430784Y1973072D01*
X3329216Y2074639D02*
Y2006928D01*
X3380000D01*
X3363072Y2040784D01*
Y2057712D01*
X3380000Y2074639D01*
X3413856D01*
X3430784Y2057712D01*
Y2023856D01*
X3413856Y2006928D01*
X3260783Y1345361D02*
X3159216D01*
Y1396144D01*
X3176144Y1413072D01*
X3210000D01*
X3226928Y1396144D01*
Y1345361D01*
Y1379216D02*
X3260783Y1413072D01*
Y1497712D02*
X3159216D01*
X3210000Y1446928D01*
Y1514639D01*
X2725361Y1269216D02*
Y1370784D01*
X2776144D01*
X2793072Y1353856D01*
Y1320000D01*
X2776144Y1303072D01*
X2725361D01*
X2759216D02*
X2793072Y1269216D01*
X2826928Y1353856D02*
X2843856Y1370784D01*
X2877712D01*
X2894639Y1353856D01*
Y1336928D01*
X2877712Y1320000D01*
X2860784D01*
X2877712D01*
X2894639Y1303072D01*
Y1286144D01*
X2877712Y1269216D01*
X2843856D01*
X2826928Y1286144D01*
X3470784Y1345361D02*
X3369216D01*
Y1396144D01*
X3386144Y1413072D01*
X3420000D01*
X3436928Y1396144D01*
Y1345361D01*
Y1379216D02*
X3470784Y1413072D01*
Y1514639D02*
Y1446928D01*
X3403072Y1514639D01*
X3386144D01*
X3369216Y1497712D01*
Y1463856D01*
X3386144Y1446928D01*
X2602289Y1059217D02*
Y1160784D01*
X2653072D01*
X2670000Y1143856D01*
Y1110000D01*
X2653072Y1093072D01*
X2602289D01*
X2636144D02*
X2670000Y1059217D01*
X2703856D02*
X2737712D01*
X2720784D01*
Y1160784D01*
X2703856Y1143856D01*
X2384577Y2129216D02*
Y2230784D01*
X2435361D01*
X2452288Y2213856D01*
Y2180000D01*
X2435361Y2163072D01*
X2384577D01*
X2553856Y2213856D02*
X2536928Y2230784D01*
X2503072D01*
X2486144Y2213856D01*
Y2196928D01*
X2503072Y2180000D01*
X2536928D01*
X2553856Y2163072D01*
Y2146144D01*
X2536928Y2129216D01*
X2503072D01*
X2486144Y2146144D01*
X2655423Y2129216D02*
X2587712D01*
X2655423Y2196928D01*
Y2213856D01*
X2638495Y2230784D01*
X2604639D01*
X2587712Y2213856D01*
X1532328Y1801994D02*
Y1700427D01*
X1600039D01*
X1633895D02*
X1667751D01*
X1650823D01*
Y1801994D01*
X1633895Y1785067D01*
X382289Y2880784D02*
Y2779216D01*
Y2813072D01*
X450000Y2880784D01*
X399217Y2830000D01*
X450000Y2779216D01*
X483856D02*
X517712D01*
X500784D01*
Y2880784D01*
X483856Y2863856D01*
X2849216Y2810784D02*
X2781505D01*
Y2760000D01*
X2815361D01*
X2781505D01*
Y2709217D01*
X2883072Y2810784D02*
Y2709217D01*
X2933856D01*
X2950784Y2726144D01*
Y2743072D01*
X2933856Y2760000D01*
X2883072D01*
X2933856D01*
X2950784Y2776928D01*
Y2793856D01*
X2933856Y2810784D01*
X2883072D01*
X2984639Y2709217D02*
X3018495D01*
X3001567D01*
Y2810784D01*
X2984639Y2793856D01*
X2976144Y1413072D02*
X2959216Y1396144D01*
Y1362289D01*
X2976144Y1345361D01*
X3043856D01*
X3060784Y1362289D01*
Y1396144D01*
X3043856Y1413072D01*
Y1446928D02*
X3060784Y1463856D01*
Y1497712D01*
X3043856Y1514639D01*
X2976144D01*
X2959216Y1497712D01*
Y1463856D01*
X2976144Y1446928D01*
X2993072D01*
X3010000Y1463856D01*
Y1514639D01*
X3733111Y2665066D02*
X3716183Y2681994D01*
X3682327D01*
X3665400Y2665066D01*
Y2597354D01*
X3682327Y2580427D01*
X3716183D01*
X3733111Y2597354D01*
X3766967Y2665066D02*
X3783895Y2681994D01*
X3817750D01*
X3834678Y2665066D01*
Y2648138D01*
X3817750Y2631210D01*
X3834678Y2614282D01*
Y2597354D01*
X3817750Y2580427D01*
X3783895D01*
X3766967Y2597354D01*
Y2614282D01*
X3783895Y2631210D01*
X3766967Y2648138D01*
Y2665066D01*
X3783895Y2631210D02*
X3817750D01*
X3733111Y2455066D02*
X3716183Y2471994D01*
X3682327D01*
X3665400Y2455066D01*
Y2387354D01*
X3682327Y2370427D01*
X3716183D01*
X3733111Y2387354D01*
X3766967Y2471994D02*
X3834678D01*
Y2455066D01*
X3766967Y2387354D01*
Y2370427D01*
X2603111Y2795066D02*
X2586183Y2811994D01*
X2552328D01*
X2535400Y2795066D01*
Y2727355D01*
X2552328Y2710427D01*
X2586183D01*
X2603111Y2727355D01*
X2704678Y2811994D02*
X2670823Y2795066D01*
X2636967Y2761210D01*
Y2727355D01*
X2653895Y2710427D01*
X2687751D01*
X2704678Y2727355D01*
Y2744283D01*
X2687751Y2761210D01*
X2636967D01*
X2373111Y2795066D02*
X2356183Y2811994D01*
X2322328D01*
X2305400Y2795066D01*
Y2727355D01*
X2322328Y2710427D01*
X2356183D01*
X2373111Y2727355D01*
X2474678Y2811994D02*
X2406967D01*
Y2761210D01*
X2440823Y2778138D01*
X2457750D01*
X2474678Y2761210D01*
Y2727355D01*
X2457750Y2710427D01*
X2423895D01*
X2406967Y2727355D01*
X1863111Y1615066D02*
X1846183Y1631994D01*
X1812328D01*
X1795400Y1615066D01*
Y1547355D01*
X1812328Y1530427D01*
X1846183D01*
X1863111Y1547355D01*
X1947750Y1530427D02*
Y1631994D01*
X1896967Y1581210D01*
X1964678D01*
X1683111Y1365066D02*
X1666183Y1381994D01*
X1632327D01*
X1615400Y1365066D01*
Y1297355D01*
X1632327Y1280427D01*
X1666183D01*
X1683111Y1297355D01*
X1716967Y1365066D02*
X1733895Y1381994D01*
X1767750D01*
X1784678Y1365066D01*
Y1348138D01*
X1767750Y1331210D01*
X1750823D01*
X1767750D01*
X1784678Y1314282D01*
Y1297355D01*
X1767750Y1280427D01*
X1733895D01*
X1716967Y1297355D01*
X3066144Y2290000D02*
X3049216Y2273072D01*
Y2239217D01*
X3066144Y2222289D01*
X3133856D01*
X3150783Y2239217D01*
Y2273072D01*
X3133856Y2290000D01*
X3150783Y2323856D02*
Y2357712D01*
Y2340784D01*
X3049216D01*
X3066144Y2323856D01*
D71*
X1143557Y4097385D02*
G03*
X1143557Y4097385I-12500J0D01*
G01*
X2421339Y1992410D02*
G03*
X2421339Y1992410I-12500J0D01*
G01*
X4740039Y1266210D02*
G03*
X4740039Y1266210I-12500J0D01*
G01*
X3411290Y7420039D02*
G03*
X3411290Y7420039I-12500J0D01*
G01*
X5195039Y6071210D02*
G03*
X5195039Y6071210I-12500J0D01*
G01*
X4797485Y3726705D02*
G03*
X4797485Y3726705I-12500J0D01*
G01*
X5462461Y9134790D02*
G03*
X5462461Y9134790I-12500J0D01*
G01*
X1142539Y5431211D02*
G03*
X1142539Y5431211I-12500J0D01*
G01*
X4797487Y4826704D02*
G03*
X4797487Y4826704I-12500J0D01*
G01*
X1142539Y9431210D02*
G03*
X1142539Y9431210I-12500J0D01*
G01*
X6204663Y7198164D02*
G03*
X6204663Y7198164I-12500J0D01*
G01*
X3600083Y4523716D02*
G03*
X3600083Y4523716I-12500J0D01*
G01*
X1143539Y8096210D02*
G03*
X1143539Y8096210I-12500J0D01*
G01*
X3600087Y3933716D02*
G03*
X3600087Y3933716I-12500J0D01*
G01*
X3597539Y5118710D02*
G03*
X3597539Y5118710I-12500J0D01*
G01*
X4633039Y9138210D02*
G03*
X4633039Y9138210I-12500J0D01*
G01*
X1143539Y6766851D02*
G03*
X1143539Y6766851I-12500J0D01*
G01*
X1142539Y2762430D02*
G03*
X1142539Y2762430I-12500J0D01*
G01*
X2622556Y10506160D02*
G03*
X2622556Y10506160I-12500J0D01*
G01*
X3600038Y3343710D02*
G03*
X3600038Y3343710I-12500J0D01*
G01*
X1945739Y1818610D02*
G03*
X1945739Y1818610I-12500J0D01*
G01*
X5635569Y2213390D02*
G03*
X5635569Y2213390I-12500J0D01*
G01*
D72*
X5019985Y3621205D02*
G03*
X5019985Y3621205I-20000J0D01*
G01*
X5019987Y4721204D02*
G03*
X5019987Y4721204I-20000J0D01*
G01*
D73*
X5950039Y10391210D02*
G03*
X5940039Y10391210I-5000J0D01*
G01*
D02*
G03*
X5950039Y10391210I5000J0D01*
G01*
X6853039Y8296210D02*
G03*
X6853039Y8306210I0J5000D01*
G01*
D02*
G03*
X6853039Y8296210I0J-5000D01*
G01*
X8442039Y9754210D02*
X9032039D01*
Y7954210D02*
Y9754210D01*
X8442039Y7954210D02*
X9032039D01*
X6967039Y7312210D02*
X8442039D01*
Y10396210D01*
X6967039D02*
X8442039D01*
X6967039Y7312210D02*
Y10396210D01*
D74*
X2198239Y1893611D02*
G03*
X2308239Y2003611I0J110000D01*
G01*
Y2533610D02*
G03*
X2198239Y2643610I-110000J0D01*
G01*
X1668239D02*
G03*
X1558239Y2533610I0J-110000D01*
G01*
Y2003611D02*
G03*
X1668239Y1893611I110000J0D01*
G01*
X625057Y4167385D02*
X1935057D01*
Y5377385D01*
X625057D02*
X1935057D01*
X625057Y4167385D02*
Y5377385D01*
X7127539Y6466211D02*
X8432539D01*
X7127539Y1276211D02*
X8432539D01*
Y1276210D02*
Y6466211D01*
X7127539Y1276211D02*
Y1426211D01*
Y6346211D02*
Y6466211D01*
X2513839Y1727410D02*
X2793839D01*
X2513839Y2067410D02*
X2793839D01*
X3341290Y7465039D02*
Y7517539D01*
Y7727539D02*
Y7780039D01*
X3653790D02*
X3656290D01*
X3341290D02*
X3343790D01*
X3656290Y7465039D02*
Y7517539D01*
Y7727539D02*
Y7780039D01*
X3653790Y7465039D02*
X3656290D01*
X3341290D02*
X3343790D01*
X5025039Y6056210D02*
Y6986210D01*
X4095039D02*
X5025039D01*
X4095039Y6056210D02*
Y6986210D01*
Y6056210D02*
X5025039D01*
X3485139Y6624211D02*
X3530139D01*
X3485139Y6324211D02*
X3530139D01*
X3772639Y6449211D02*
Y6499211D01*
X3747639Y6474211D02*
X3797639D01*
X4919985Y3201205D02*
X5119985D01*
X4919985Y3701205D02*
X5119985D01*
Y3201205D02*
Y3701205D01*
X4919985Y3201205D02*
Y3701205D01*
X3250646Y7470604D02*
Y7751817D01*
X3069433Y7470604D02*
Y7751817D01*
X2829438Y7470551D02*
Y7751764D01*
X3010651Y7470551D02*
Y7751764D01*
X5547967Y6259432D02*
X5829180D01*
X5547967Y6440646D02*
X5829180D01*
X5545304Y5979439D02*
X5826517D01*
X5545304Y6160652D02*
X5826517D01*
X5496297Y6102497D02*
Y6317496D01*
X5281297Y6102497D02*
Y6317496D01*
X3790090Y3371227D02*
X3877590D01*
X3790090Y3598727D02*
Y3671227D01*
Y3371227D02*
Y3443727D01*
Y3671227D02*
X3877590D01*
X2991849Y2343699D02*
Y2629521D01*
X2806027Y2343699D02*
Y2629521D01*
X1605039Y461210D02*
X2397539D01*
X1605039Y1121210D02*
X2100039D01*
X3570037Y453571D02*
X3640037D01*
X3570037Y613571D02*
X3640037D01*
Y453571D02*
Y613571D01*
X4039396Y7421806D02*
X4320609D01*
X4039396Y7240593D02*
X4320609D01*
X6070041Y8071174D02*
X6230041D01*
Y8141174D01*
X6070041Y8071174D02*
Y8141174D01*
X3640036Y233571D02*
Y393571D01*
X3570036D02*
X3640036D01*
X3570036Y233571D02*
X3640036D01*
X5325461Y8307790D02*
X5574461D01*
X5325461Y9069790D02*
X5574461D01*
X5325461Y8307790D02*
Y9069790D01*
X5574461Y8307790D02*
Y9069790D01*
X5608939Y10766210D02*
X5895039D01*
Y10541210D02*
Y10766210D01*
X5608939Y10016210D02*
X5895039D01*
Y10241210D01*
X624039Y5501210D02*
X1934039D01*
Y6711211D01*
X624039D02*
X1934039D01*
X624039Y5501210D02*
Y6711211D01*
X4919987Y4301204D02*
Y4801204D01*
X5119987Y4301204D02*
Y4801204D01*
X4919987D02*
X5119987D01*
X4919987Y4301204D02*
X5119987D01*
X2171045Y5171173D02*
X2309046D01*
X6220027Y7773751D02*
Y7848751D01*
X5920027Y7773751D02*
X6220027D01*
X5920027D02*
Y7848751D01*
X6220027D01*
Y7883751D02*
Y7998751D01*
X2151032Y8761250D02*
X2289033D01*
X4840039Y7491710D02*
X5215039D01*
X4840039D02*
Y7876710D01*
X5215039D01*
Y7491710D02*
Y7876710D01*
X5250039Y7489710D02*
X5422539D01*
X624039Y9501210D02*
X1934039D01*
Y10711210D01*
X624039D02*
X1934039D01*
X624039Y9501210D02*
Y10711210D01*
X6264663Y7003711D02*
X6267540D01*
X6112540D02*
X6115416D01*
X6112540Y6738711D02*
Y7003711D01*
X6264663Y6738711D02*
X6267540D01*
X6112540D02*
X6115416D01*
X6267540D02*
Y7003711D01*
X3410083Y4546216D02*
X3510083D01*
X3410083Y4856216D02*
X3510083D01*
Y4546216D02*
Y4856216D01*
X3410083Y4546216D02*
Y4856216D01*
X2330039Y9496210D02*
X2650039D01*
X2330039D02*
Y9986210D01*
X2650039D01*
Y9496210D02*
Y9986210D01*
X2685039Y9483210D02*
X2837539D01*
X2171046Y6179819D02*
X2309046D01*
X2020039Y11002210D02*
Y11140211D01*
X6105038Y5038710D02*
Y5203710D01*
X6235039Y5038710D02*
Y5288710D01*
X6232539Y3586009D02*
Y3836009D01*
X6102539Y3586009D02*
Y3751009D01*
X6232538Y3144189D02*
Y3394189D01*
X6102538Y3144189D02*
Y3309189D01*
X4689990Y1811199D02*
Y1971200D01*
Y1811199D02*
X4759990D01*
X4689990Y1971200D02*
X4759990D01*
X6105034Y5878752D02*
Y6043752D01*
X6235034Y5878752D02*
Y6128752D01*
X6625046Y8143670D02*
Y8393670D01*
X6755046Y8228670D02*
Y8393670D01*
X6822528Y7606250D02*
Y8016250D01*
X6537527Y7606250D02*
Y7956250D01*
X625039Y8166210D02*
X1935039D01*
Y9376210D01*
X625039D02*
X1935039D01*
X625039Y8166210D02*
Y9376210D01*
X3410087Y3956216D02*
X3510087D01*
X3410087Y4266216D02*
X3510087D01*
Y3956216D02*
Y4266216D01*
X3410087Y3956216D02*
Y4266216D01*
X3407539Y5141210D02*
X3507539D01*
X3407539Y5451210D02*
X3507539D01*
Y5141210D02*
Y5451210D01*
X3407539Y5141210D02*
Y5451210D01*
X6440039Y6550211D02*
X6980039D01*
X6440039Y6912210D02*
X6980039D01*
X6185039Y1776210D02*
Y2033710D01*
X6055039Y1776210D02*
Y1946210D01*
X7247539Y6556210D02*
X7412539D01*
X7162539Y6686210D02*
X7412539D01*
X6232539Y4018711D02*
Y4268711D01*
X6102539Y4018711D02*
Y4183710D01*
X6105033Y5458760D02*
Y5623760D01*
X6235034Y5458760D02*
Y5708760D01*
X2685086Y4153228D02*
X2837586D01*
X2650086Y4166228D02*
Y4656228D01*
X2330086D02*
X2650086D01*
X2330086Y4166228D02*
Y4656228D01*
Y4166228D02*
X2650086D01*
X3414736Y6244122D02*
X3700558D01*
X3414736Y6058300D02*
X3700558D01*
X3097539Y8200210D02*
Y9078210D01*
X5127539D01*
X3097539Y8200210D02*
X5127539D01*
Y9078210D01*
X625039Y6836850D02*
X1935039D01*
Y8046851D01*
X625039D02*
X1935039D01*
X625039Y6836850D02*
Y8046851D01*
X624039Y2832430D02*
X1934039D01*
Y4042430D01*
X624039D02*
X1934039D01*
X624039Y2832430D02*
Y4042430D01*
X2412556Y10631160D02*
Y11091160D01*
X2756556D02*
X2807556D01*
X2412556D02*
X2463556D01*
X2807556Y10631160D02*
Y11091160D01*
X2756556Y10631160D02*
X2807556D01*
X2412556D02*
X2463556D01*
X3410038Y3366210D02*
X3510038D01*
X3410038Y3676210D02*
X3510038D01*
Y3366210D02*
Y3676210D01*
X3410038Y3366210D02*
Y3676210D01*
X1450039Y1881210D02*
Y2673710D01*
X790039Y1881210D02*
Y2376210D01*
X2330082Y6836227D02*
X2650082D01*
X2330082D02*
Y7326227D01*
X2650082D01*
Y6836227D02*
Y7326227D01*
X2685082Y6823227D02*
X2837582D01*
X2078239Y1893610D02*
X2198239D01*
X2078239Y2643610D02*
X2198239D01*
X1668239D02*
X1788239D01*
X2308239Y2003611D02*
Y2533610D01*
X1668239Y1893610D02*
X1788239D01*
X1558239Y2003611D02*
Y2533610D01*
X5817522Y2285890D02*
Y2288766D01*
Y2133766D02*
Y2136642D01*
Y2133766D02*
X6082522D01*
Y2285890D02*
Y2288766D01*
Y2133766D02*
Y2136642D01*
X5817522Y2288766D02*
X6082522D01*
D75*
X4010000Y1780000D02*
X5020039D01*
X4010000Y2220000D02*
X5020039D01*
Y1780000D02*
Y2220000D01*
X4010000Y1780000D02*
Y2220000D01*
X3320000Y170000D02*
X4970000D01*
X3320000Y680000D02*
X4970000D01*
Y170000D02*
Y680000D01*
X3320000Y170000D02*
Y680000D01*
X5270000Y8560000D02*
X5630000D01*
X5270000Y9120000D02*
X5630000D01*
Y8560000D02*
Y9120000D01*
X5270000Y8560000D02*
Y9120000D01*
X5700040Y8040000D02*
X6260040D01*
X5700040Y8590000D02*
X6260040D01*
Y8040000D02*
Y8590000D01*
X5700040Y8040000D02*
Y8590000D01*
%TF.MD5,1aaa5d9493167af3a3f12d0afedc3543*%
M02*
