%TF.GenerationSoftware,Altium Limited,Altium Designer,25.8.1 (18)*%
G04 Layer_Color=8388736*
%FSLAX45Y45*%
%MOMM*%
%TF.SameCoordinates,031978D1-9D18-463A-8735-F8186BF7E524*%
%TF.FilePolarity,Positive*%
%TF.FileFunction,Other,Top_3D_Body*%
%TF.Part,Single*%
G01*
G75*
%TA.AperFunction,NonConductor*%
%ADD73C,0.10000*%
%ADD74C,0.20000*%
D73*
X1698239Y1993611D02*
G03*
X1698239Y1993611I-40000J0D01*
G01*
X1568239Y2003611D02*
G03*
X1668239Y1903611I100000J0D01*
G01*
X2198239D02*
G03*
X2298239Y2003611I0J100000D01*
G01*
Y2533610D02*
G03*
X2198239Y2633610I-100000J0D01*
G01*
X1668239D02*
G03*
X1568239Y2533610I0J-100000D01*
G01*
X1668239Y2633610D02*
X2198239D01*
X2298239Y2003611D02*
Y2533610D01*
X1568239Y2003611D02*
Y2533610D01*
X1668239Y1903611D02*
X2198239D01*
D74*
X625057Y4167385D02*
X1935057D01*
Y5377385D01*
X625057D02*
X1935057D01*
X625057Y4167385D02*
Y5377385D01*
X2573839Y2042410D02*
X2733839D01*
Y1752410D02*
Y2042410D01*
X2573839Y1752410D02*
X2733839D01*
X2573839D02*
Y2042410D01*
X3341290Y7465039D02*
Y7780039D01*
X3656290D01*
Y7465039D02*
Y7780039D01*
X3341290Y7465039D02*
X3656290D01*
X3322639Y6624211D02*
X3692639D01*
Y6324211D02*
Y6624211D01*
X3322639Y6324211D02*
X3692639D01*
X3322639D02*
Y6624211D01*
X3120039Y7531211D02*
Y7691211D01*
X3200039D01*
Y7531211D02*
Y7691211D01*
X3120039Y7531211D02*
X3200039D01*
X2880045Y7531157D02*
X2960044D01*
Y7691158D01*
X2880045D02*
X2960044D01*
X2880045Y7531157D02*
Y7691158D01*
X5768573Y6310039D02*
Y6390039D01*
X5608573D02*
X5768573D01*
X5608573Y6310039D02*
Y6390039D01*
Y6310039D02*
X5768573D01*
X5765911Y6030045D02*
Y6110045D01*
X5605911D02*
X5765911D01*
X5605911Y6030045D02*
Y6110045D01*
Y6030045D02*
X5765911D01*
X5323797Y6102497D02*
X5453797D01*
Y6317496D01*
X5323797D02*
X5453797D01*
X5323797Y6102497D02*
Y6317496D01*
X3790090Y3371227D02*
X3930090D01*
X3790090D02*
Y3671227D01*
X3930090D01*
Y3371227D02*
Y3671227D01*
X2858938Y2566610D02*
X2938938D01*
X2858938Y2406610D02*
Y2566610D01*
Y2406610D02*
X2938938D01*
Y2566610D01*
X4100003Y7291200D02*
Y7371199D01*
Y7291200D02*
X4260003D01*
Y7371199D01*
X4100003D02*
X4260003D01*
X624039Y5501210D02*
X1934039D01*
Y6711211D01*
X624039D02*
X1934039D01*
X624039Y5501210D02*
Y6711211D01*
X624039Y9501210D02*
X1934039D01*
Y10711210D01*
X624039D02*
X1934039D01*
X624039Y9501210D02*
Y10711210D01*
X6112540Y7003711D02*
X6267540D01*
X6112540Y6738711D02*
Y7003711D01*
Y6738711D02*
X6267540D01*
Y7003711D01*
X625039Y8166210D02*
X1935039D01*
Y9376210D01*
X625039D02*
X1935039D01*
X625039Y8166210D02*
Y9376210D01*
X3477647Y6111211D02*
Y6191211D01*
Y6111211D02*
X3637647D01*
Y6191211D01*
X3477647D02*
X3637647D01*
X625039Y6836850D02*
X1935039D01*
Y8046851D01*
X625039D02*
X1935039D01*
X625039Y6836850D02*
Y8046851D01*
X624039Y2832430D02*
X1934039D01*
Y4042430D01*
X624039D02*
X1934039D01*
X624039Y2832430D02*
Y4042430D01*
X2412556Y10631160D02*
Y11091160D01*
X2807556D01*
Y10631160D02*
Y11091160D01*
X2412556Y10631160D02*
X2807556D01*
X5817522Y2133766D02*
Y2288766D01*
Y2133766D02*
X6082522D01*
Y2288766D01*
X5817522D02*
X6082522D01*
%TF.MD5,89156db3b0fc26ad0a3cac19932a0ba0*%
M02*
