%TF.GenerationSoftware,Altium Limited,Altium Designer,25.8.1 (18)*%
G04 Layer_Color=32768*
%FSLAX45Y45*%
%MOMM*%
%TF.SameCoordinates,031978D1-9D18-463A-8735-F8186BF7E524*%
%TF.FilePolarity,Positive*%
%TF.FileFunction,Other,Bottom_3D_Body*%
%TF.Part,Single*%
G01*
G75*
%TA.AperFunction,NonConductor*%
%ADD74C,0.20000*%
D74*
X5379992Y6967292D02*
Y7047292D01*
X5539992D01*
Y6967292D02*
Y7047292D01*
X5379992Y6967292D02*
X5539992D01*
X5330047Y6740277D02*
X5410047D01*
Y6580277D02*
Y6740277D01*
X5330047Y6580277D02*
X5410047D01*
X5330047D02*
Y6740277D01*
X5850047Y6740276D02*
X5930047D01*
Y6580275D02*
Y6740276D01*
X5850047Y6580275D02*
X5930047D01*
X5850047D02*
Y6740276D01*
X5590046Y6740276D02*
X5670046D01*
Y6580276D02*
Y6740276D01*
X5590046Y6580276D02*
X5670046D01*
X5590046D02*
Y6740276D01*
X4850039Y6845777D02*
X4930039D01*
Y6685777D02*
Y6845777D01*
X4850039Y6685777D02*
X4930039D01*
X4850039D02*
Y6845777D01*
X4191845Y6209083D02*
X4271845D01*
X4191845D02*
Y6369083D01*
X4271845D01*
Y6209083D02*
Y6369083D01*
X4877305Y6151210D02*
Y6231210D01*
X4717305Y6151210D02*
X4877305D01*
X4717305D02*
Y6231210D01*
X4877305D01*
X4246711Y6809405D02*
Y6889405D01*
X4406712D01*
Y6809405D02*
Y6889405D01*
X4246711Y6809405D02*
X4406712D01*
%TF.MD5,da5d3dd63ca01628fec2a6de4c7b1e70*%
M02*
