%TF.GenerationSoftware,Altium Limited,Altium Designer,25.8.1 (18)*%
G04 Layer_Physical_Order=4*
G04 Layer_Color=16711680*
%FSLAX45Y45*%
%MOMM*%
%TF.SameCoordinates,031978D1-9D18-463A-8735-F8186BF7E524*%
%TF.FilePolarity,Positive*%
%TF.FileFunction,Copper,L4,Bot,Signal*%
%TF.Part,Single*%
G01*
G75*
%TA.AperFunction,SMDPad,CuDef*%
G04:AMPARAMS|DCode=16|XSize=0.8mm|YSize=1mm|CornerRadius=0.1mm|HoleSize=0mm|Usage=FLASHONLY|Rotation=180.000|XOffset=0mm|YOffset=0mm|HoleType=Round|Shape=RoundedRectangle|*
%AMROUNDEDRECTD16*
21,1,0.80000,0.80000,0,0,180.0*
21,1,0.60000,1.00000,0,0,180.0*
1,1,0.20000,-0.30000,0.40000*
1,1,0.20000,0.30000,0.40000*
1,1,0.20000,0.30000,-0.40000*
1,1,0.20000,-0.30000,-0.40000*
%
%ADD16ROUNDEDRECTD16*%
%ADD21R,1.15814X1.01213*%
%ADD30R,1.01213X1.15814*%
%ADD40R,1.30606X1.05822*%
%TA.AperFunction,Conductor*%
%ADD49C,0.25400*%
%ADD51C,0.38100*%
%ADD52C,0.76200*%
%TA.AperFunction,ComponentPad*%
%ADD53C,1.45000*%
%ADD54C,2.15000*%
%ADD55R,1.45000X1.45000*%
%ADD56C,2.70000*%
G04:AMPARAMS|DCode=57|XSize=2.7mm|YSize=2.7mm|CornerRadius=0.675mm|HoleSize=0mm|Usage=FLASHONLY|Rotation=90.000|XOffset=0mm|YOffset=0mm|HoleType=Round|Shape=RoundedRectangle|*
%AMROUNDEDRECTD57*
21,1,2.70000,1.35000,0,0,90.0*
21,1,1.35000,2.70000,0,0,90.0*
1,1,1.35000,0.67500,0.67500*
1,1,1.35000,0.67500,-0.67500*
1,1,1.35000,-0.67500,-0.67500*
1,1,1.35000,-0.67500,0.67500*
%
%ADD57ROUNDEDRECTD57*%
%ADD58C,3.00000*%
%ADD59C,4.80000*%
%ADD60C,1.50000*%
%ADD61R,1.55000X1.55000*%
%ADD62C,1.95000*%
%ADD63C,1.60000*%
%ADD64C,1.55000*%
%ADD65R,1.60000X1.60000*%
%ADD66R,1.95000X1.95000*%
%TA.AperFunction,ViaPad*%
%ADD67C,0.45700*%
%ADD68C,1.27000*%
%ADD69C,5.00000*%
G36*
X7922535Y11635338D02*
X7964047Y11618143D01*
X8001407Y11593180D01*
X8033180Y11561407D01*
X8058143Y11524048D01*
X8075338Y11482535D01*
X8084104Y11438466D01*
Y11416000D01*
Y324000D01*
Y301534D01*
X8075338Y257465D01*
X8058143Y215953D01*
X8033180Y178593D01*
X8001407Y146820D01*
X7964048Y121857D01*
X7922535Y104662D01*
X7878466Y95896D01*
X350000D01*
X328912Y95896D01*
X287548Y104124D01*
X248584Y120264D01*
X213517Y143695D01*
X183695Y173517D01*
X160264Y208583D01*
X144124Y247548D01*
X135896Y288913D01*
Y310000D01*
Y11416000D01*
X135896Y11438466D01*
X144662Y11482535D01*
X161857Y11524047D01*
X186820Y11561407D01*
X218593Y11593180D01*
X255952Y11618143D01*
X297465Y11635338D01*
X341534Y11644104D01*
X7878466D01*
X7922535Y11635338D01*
D02*
G37*
%LPC*%
G36*
X1802217Y10623710D02*
X1777861D01*
X1754336Y10617406D01*
X1733243Y10605228D01*
X1716021Y10588006D01*
X1703843Y10566914D01*
X1697539Y10543388D01*
Y10519032D01*
X1703843Y10495507D01*
X1716021Y10474414D01*
X1733243Y10457192D01*
X1754336Y10445014D01*
X1777861Y10438710D01*
X1802217D01*
X1825743Y10445014D01*
X1846835Y10457192D01*
X1864057Y10474414D01*
X1876235Y10495507D01*
X1882539Y10519032D01*
Y10543388D01*
X1876235Y10566914D01*
X1864057Y10588006D01*
X1846835Y10605228D01*
X1825743Y10617406D01*
X1802217Y10623710D01*
D02*
G37*
G36*
X3786219Y10514110D02*
X3782739D01*
Y10403910D01*
X3892939D01*
Y10407390D01*
X3884563Y10438648D01*
X3868383Y10466673D01*
X3845501Y10489555D01*
X3817476Y10505735D01*
X3786219Y10514110D01*
D02*
G37*
G36*
X3757339D02*
X3753859D01*
X3722601Y10505735D01*
X3694576Y10489555D01*
X3671694Y10466673D01*
X3655514Y10438648D01*
X3647139Y10407390D01*
Y10403910D01*
X3757339D01*
Y10514110D01*
D02*
G37*
G36*
X1086825Y10608710D02*
X1053254D01*
X1020826Y10600021D01*
X991753Y10583235D01*
X968014Y10559497D01*
X951228Y10530423D01*
X942539Y10497996D01*
Y10464425D01*
X951228Y10431997D01*
X968014Y10402924D01*
X991753Y10379185D01*
X1020826Y10362399D01*
X1053254Y10353710D01*
X1086825D01*
X1119252Y10362399D01*
X1148326Y10379185D01*
X1172064Y10402924D01*
X1188850Y10431997D01*
X1197539Y10464425D01*
Y10497996D01*
X1188850Y10530423D01*
X1172064Y10559497D01*
X1148326Y10583235D01*
X1119252Y10600021D01*
X1086825Y10608710D01*
D02*
G37*
G36*
X786825D02*
X753254D01*
X720826Y10600021D01*
X691752Y10583235D01*
X668014Y10559497D01*
X651228Y10530423D01*
X642539Y10497996D01*
Y10464425D01*
X651228Y10431997D01*
X668014Y10402924D01*
X691752Y10379185D01*
X720826Y10362399D01*
X753254Y10353710D01*
X786825D01*
X819252Y10362399D01*
X848326Y10379185D01*
X872064Y10402924D01*
X888850Y10431997D01*
X897539Y10464425D01*
Y10497996D01*
X888850Y10530423D01*
X872064Y10559497D01*
X848326Y10583235D01*
X819252Y10600021D01*
X786825Y10608710D01*
D02*
G37*
G36*
X5887539Y10508710D02*
X5652539D01*
Y10273710D01*
X5887539D01*
Y10508710D01*
D02*
G37*
G36*
X3892939Y10378510D02*
X3782739D01*
Y10268310D01*
X3786219D01*
X3817476Y10276686D01*
X3845501Y10292866D01*
X3868383Y10315748D01*
X3884563Y10343773D01*
X3892939Y10375030D01*
Y10378510D01*
D02*
G37*
G36*
X3757339D02*
X3647139D01*
Y10375030D01*
X3655514Y10343773D01*
X3671694Y10315748D01*
X3694576Y10292866D01*
X3722601Y10276686D01*
X3753859Y10268310D01*
X3757339D01*
Y10378510D01*
D02*
G37*
G36*
X7300926Y10369111D02*
X7292739D01*
Y10116410D01*
X7545439D01*
Y10124598D01*
X7538904Y10165859D01*
X7525995Y10205589D01*
X7507029Y10242811D01*
X7482475Y10276607D01*
X7452936Y10306146D01*
X7419139Y10330701D01*
X7381917Y10349666D01*
X7342187Y10362576D01*
X7300926Y10369111D01*
D02*
G37*
G36*
X7267339D02*
X7259152D01*
X7217891Y10362576D01*
X7178161Y10349666D01*
X7140939Y10330701D01*
X7107143Y10306146D01*
X7077603Y10276607D01*
X7053049Y10242811D01*
X7034083Y10205589D01*
X7021174Y10165859D01*
X7014639Y10124598D01*
Y10116410D01*
X7267339D01*
Y10369111D01*
D02*
G37*
G36*
X6142962Y10093984D02*
X6125915D01*
X6110166Y10087461D01*
X6098112Y10075407D01*
X6091589Y10059658D01*
Y10042611D01*
X6098112Y10026862D01*
X6110166Y10014808D01*
X6125915Y10008285D01*
X6142962D01*
X6158711Y10014808D01*
X6170765Y10026862D01*
X6177288Y10042611D01*
Y10059658D01*
X6170765Y10075407D01*
X6158711Y10087461D01*
X6142962Y10093984D01*
D02*
G37*
G36*
X7545439Y10091010D02*
X7292739D01*
Y9838311D01*
X7300926D01*
X7342187Y9844845D01*
X7381917Y9857755D01*
X7419139Y9876720D01*
X7452936Y9901275D01*
X7482475Y9930814D01*
X7507029Y9964610D01*
X7525995Y10001832D01*
X7538904Y10041563D01*
X7545439Y10082823D01*
Y10091010D01*
D02*
G37*
G36*
X7267339D02*
X7014639D01*
Y10082823D01*
X7021174Y10041563D01*
X7034083Y10001832D01*
X7053049Y9964610D01*
X7077603Y9930814D01*
X7107143Y9901275D01*
X7140939Y9876720D01*
X7178161Y9857755D01*
X7217891Y9844845D01*
X7259152Y9838311D01*
X7267339D01*
Y10091010D01*
D02*
G37*
G36*
X1222539Y9873710D02*
X1037539D01*
Y9688710D01*
X1222539D01*
Y9873710D01*
D02*
G37*
G36*
X786825Y9808710D02*
X753254D01*
X720826Y9800021D01*
X691752Y9783235D01*
X668014Y9759497D01*
X651228Y9730423D01*
X642539Y9697996D01*
Y9664425D01*
X648232Y9643179D01*
X558151Y9553097D01*
X545310Y9533879D01*
X540800Y9511210D01*
Y8885906D01*
X545310Y8863236D01*
X558151Y8844018D01*
X711800Y8690368D01*
Y8459233D01*
X692752Y8448236D01*
X669013Y8424497D01*
X652228Y8395423D01*
X643539Y8362996D01*
Y8329425D01*
X649232Y8308179D01*
X478112Y8137059D01*
X465271Y8117841D01*
X460762Y8095172D01*
Y5070000D01*
X465271Y5047331D01*
X478112Y5028113D01*
X828113Y4678112D01*
X847331Y4665271D01*
X870000Y4660762D01*
X1315463D01*
X3238113Y2738112D01*
X3257331Y2725271D01*
X3280000Y2720762D01*
X6055463D01*
X6198112Y2578112D01*
X6217330Y2565271D01*
X6240000Y2560762D01*
X6371253D01*
X6377320Y2540762D01*
X6369694Y2535667D01*
X6345584Y2511556D01*
X6326640Y2483205D01*
X6313591Y2451702D01*
X6306939Y2418260D01*
Y2384162D01*
X6313591Y2350720D01*
X6326640Y2319218D01*
X6334288Y2307772D01*
X6318753Y2295022D01*
X5941888Y2671888D01*
X5922669Y2684729D01*
X5900000Y2689238D01*
X1977006D01*
X891846Y3774399D01*
X897539Y3795645D01*
Y3829216D01*
X888850Y3861643D01*
X872064Y3890717D01*
X848326Y3914455D01*
X819252Y3931241D01*
X786825Y3939930D01*
X753254D01*
X720826Y3931241D01*
X691752Y3914455D01*
X668014Y3890717D01*
X651228Y3861643D01*
X642539Y3829216D01*
Y3795645D01*
X651228Y3763217D01*
X668014Y3734144D01*
X691752Y3710405D01*
X720826Y3693619D01*
X753254Y3684930D01*
X786825D01*
X808071Y3690623D01*
X1910582Y2588112D01*
X1929800Y2575271D01*
X1952469Y2570762D01*
X3044390D01*
X3053183Y2551270D01*
X3042190Y2532230D01*
X3036500Y2510993D01*
Y2489007D01*
X3042190Y2467770D01*
X3053183Y2448730D01*
X3068730Y2433183D01*
X3087770Y2422190D01*
X3109007Y2416500D01*
X3130993D01*
X3148529Y2421199D01*
X3158768Y2415384D01*
X3166500Y2407336D01*
Y2389007D01*
X3172191Y2367770D01*
X3183183Y2348730D01*
X3198730Y2333183D01*
X3217770Y2322190D01*
X3239007Y2316500D01*
X3260993D01*
X3282230Y2322190D01*
X3301270Y2333183D01*
X3316817Y2348730D01*
X3327810Y2367770D01*
X3333500Y2389007D01*
Y2410993D01*
X3327810Y2432230D01*
X3316817Y2451270D01*
X3301270Y2466817D01*
X3282230Y2477810D01*
X3260993Y2483500D01*
X3239007D01*
X3221471Y2478801D01*
X3211232Y2484616D01*
X3203500Y2492665D01*
Y2510993D01*
X3197809Y2532230D01*
X3186817Y2551270D01*
X3195609Y2570762D01*
X5875463D01*
X6298112Y2148112D01*
X6317331Y2135271D01*
X6340000Y2130762D01*
X6388866D01*
X6394933Y2110762D01*
X6381232Y2101608D01*
X6359643Y2080018D01*
X6342680Y2054631D01*
X6330996Y2026423D01*
X6325039Y1996477D01*
Y1965945D01*
X6330996Y1935999D01*
X6342680Y1907791D01*
X6359643Y1882404D01*
X6381232Y1860815D01*
X6406619Y1843852D01*
X6434827Y1832168D01*
X6464773Y1826211D01*
X6495305D01*
X6525251Y1832168D01*
X6553459Y1843852D01*
X6578846Y1860815D01*
X6600436Y1882404D01*
X6617398Y1907791D01*
X6629082Y1935999D01*
X6635039Y1965945D01*
Y1996477D01*
X6629082Y2026423D01*
X6617398Y2054631D01*
X6600436Y2080018D01*
X6578846Y2101608D01*
X6565146Y2110762D01*
X6571212Y2130762D01*
X6929145D01*
X6935212Y2110762D01*
X6927790Y2105802D01*
X6905448Y2083461D01*
X6887894Y2057190D01*
X6875803Y2027999D01*
X6869639Y1997010D01*
Y1993911D01*
X7030039D01*
X7190439D01*
Y1997010D01*
X7184275Y2027999D01*
X7172184Y2057190D01*
X7154630Y2083461D01*
X7132288Y2105802D01*
X7124866Y2110762D01*
X7130933Y2130762D01*
X7220000D01*
X7242669Y2135271D01*
X7261887Y2148112D01*
X7341888Y2228112D01*
X7354729Y2247331D01*
X7359238Y2270000D01*
Y3811250D01*
X7354729Y3833920D01*
X7341888Y3853138D01*
X7173208Y4021817D01*
X7179082Y4036000D01*
X7185039Y4065945D01*
Y4096477D01*
X7179082Y4126423D01*
X7167398Y4154631D01*
X7150436Y4180018D01*
X7128846Y4201608D01*
X7103459Y4218570D01*
X7075251Y4230255D01*
X7045305Y4236211D01*
X7014773D01*
X6984827Y4230255D01*
X6956619Y4218570D01*
X6931232Y4201608D01*
X6909643Y4180018D01*
X6892680Y4154631D01*
X6880996Y4126423D01*
X6875039Y4096477D01*
Y4065945D01*
X6880996Y4036000D01*
X6892680Y4007791D01*
X6909643Y3982405D01*
X6931232Y3960815D01*
X6956619Y3943852D01*
X6984827Y3932168D01*
X7014773Y3926211D01*
X7045305D01*
X7075251Y3932168D01*
X7089433Y3938042D01*
X7240762Y3786713D01*
Y2294537D01*
X7195463Y2249238D01*
X7117586D01*
X7111519Y2269238D01*
X7128846Y2280815D01*
X7150436Y2302405D01*
X7167398Y2327792D01*
X7179082Y2356000D01*
X7185039Y2385945D01*
Y2416478D01*
X7179082Y2446423D01*
X7167398Y2474632D01*
X7150436Y2500018D01*
X7128846Y2521608D01*
X7103459Y2538571D01*
X7075251Y2550255D01*
X7045305Y2556212D01*
X7014773D01*
X6984827Y2550255D01*
X6956619Y2538571D01*
X6941377Y2528386D01*
X6807876Y2661888D01*
X6788657Y2674729D01*
X6765988Y2679238D01*
X6582553D01*
X6576486Y2699238D01*
X6578846Y2700815D01*
X6600436Y2722405D01*
X6617398Y2747791D01*
X6629082Y2776000D01*
X6635039Y2805945D01*
Y2836477D01*
X6630120Y2861208D01*
X6630713Y2863959D01*
X6637159Y2873795D01*
X6644791Y2880762D01*
X6728828D01*
X6751497Y2885271D01*
X6770715Y2898112D01*
X6970645Y3098042D01*
X6984827Y3092168D01*
X7014773Y3086212D01*
X7045305D01*
X7075251Y3092168D01*
X7103459Y3103852D01*
X7128846Y3120815D01*
X7150436Y3142405D01*
X7167398Y3167791D01*
X7179082Y3196000D01*
X7185039Y3225945D01*
Y3256478D01*
X7179082Y3286423D01*
X7167398Y3314631D01*
X7150436Y3340018D01*
X7128846Y3361608D01*
X7103459Y3378571D01*
X7075251Y3390255D01*
X7045305Y3396211D01*
X7014773D01*
X6984827Y3390255D01*
X6956619Y3378571D01*
X6931232Y3361608D01*
X6909643Y3340018D01*
X6892680Y3314631D01*
X6880996Y3286423D01*
X6875039Y3256478D01*
Y3225945D01*
X6880996Y3196000D01*
X6886870Y3181818D01*
X6704290Y2999238D01*
X6658872D01*
X6601911Y3056199D01*
X6582693Y3069040D01*
X6560023Y3073549D01*
X6530645D01*
X6525251Y3092168D01*
X6553459Y3103852D01*
X6578846Y3120815D01*
X6600436Y3142404D01*
X6617398Y3167791D01*
X6629082Y3195999D01*
X6635039Y3225945D01*
Y3256477D01*
X6629082Y3286423D01*
X6617398Y3314631D01*
X6600436Y3340018D01*
X6578846Y3361608D01*
X6553459Y3378570D01*
X6525251Y3390255D01*
X6495305Y3396211D01*
X6464773D01*
X6434827Y3390255D01*
X6406619Y3378570D01*
X6381232Y3361608D01*
X6359643Y3340018D01*
X6342680Y3314631D01*
X6330996Y3286423D01*
X6325039Y3256477D01*
Y3225945D01*
X6330284Y3199577D01*
X6280895Y3150188D01*
X3483587D01*
X1659238Y4974537D01*
Y7287890D01*
X1654729Y7310559D01*
X1641888Y7329778D01*
X1192846Y7778819D01*
X1198539Y7800065D01*
Y7833636D01*
X1189850Y7866064D01*
X1173065Y7895137D01*
X1149326Y7918876D01*
X1120253Y7935661D01*
X1087825Y7944350D01*
X1054254D01*
X1021827Y7935661D01*
X992753Y7918876D01*
X969014Y7895137D01*
X952229Y7866064D01*
X943540Y7833636D01*
Y7800065D01*
X952229Y7767637D01*
X969014Y7738564D01*
X992753Y7714825D01*
X1021827Y7698040D01*
X1054254Y7689351D01*
X1087825D01*
X1109071Y7695044D01*
X1540762Y7263353D01*
Y4950000D01*
X1545271Y4927331D01*
X1558112Y4908112D01*
X3417162Y3049062D01*
X3436380Y3036221D01*
X3459050Y3031712D01*
X6272335D01*
X6279988Y3013234D01*
X6255042Y2988288D01*
X3405487D01*
X1499238Y4894537D01*
Y7240000D01*
X1494729Y7262669D01*
X1481888Y7281888D01*
X1241741Y7522034D01*
X1222523Y7534875D01*
X1199854Y7539384D01*
X1132281D01*
X892846Y7778819D01*
X898539Y7800065D01*
Y7833636D01*
X889850Y7866064D01*
X873065Y7895137D01*
X849326Y7918876D01*
X820252Y7935661D01*
X787825Y7944350D01*
X754254D01*
X721826Y7935661D01*
X692753Y7918876D01*
X669014Y7895137D01*
X652229Y7866064D01*
X643539Y7833636D01*
Y7800065D01*
X652229Y7767637D01*
X669014Y7738564D01*
X692753Y7714825D01*
X721826Y7698040D01*
X754254Y7689351D01*
X787825D01*
X809071Y7695044D01*
X1065856Y7438258D01*
X1085074Y7425417D01*
X1107744Y7420908D01*
X1175317D01*
X1380762Y7215463D01*
Y4870000D01*
X1385271Y4847330D01*
X1398112Y4828112D01*
X3339062Y2887162D01*
X3358280Y2874321D01*
X3380950Y2869812D01*
X6279580D01*
X6302249Y2874321D01*
X6316588Y2883902D01*
X6332893Y2871004D01*
X6330996Y2866423D01*
X6325039Y2836477D01*
Y2805945D01*
X6330996Y2776000D01*
X6342680Y2747791D01*
X6359643Y2722405D01*
X6381232Y2700815D01*
X6383592Y2699238D01*
X6377525Y2679238D01*
X6264537D01*
X6121888Y2821888D01*
X6102670Y2834729D01*
X6080000Y2839238D01*
X3304537D01*
X1381888Y4761888D01*
X1362670Y4774729D01*
X1340000Y4779238D01*
X894537D01*
X579238Y5094537D01*
Y8070635D01*
X733007Y8224403D01*
X754253Y8218711D01*
X787824D01*
X820252Y8227400D01*
X849325Y8244185D01*
X873064Y8267924D01*
X889849Y8296997D01*
X898538Y8329425D01*
Y8362996D01*
X889849Y8395423D01*
X873064Y8424497D01*
X849325Y8448236D01*
X830277Y8459233D01*
Y8714905D01*
X825767Y8737575D01*
X812926Y8756793D01*
X659277Y8910443D01*
Y9049376D01*
X679277Y9057661D01*
X692752Y9044185D01*
X721826Y9027400D01*
X754253Y9018710D01*
X787824D01*
X820252Y9027400D01*
X849325Y9044185D01*
X873064Y9067924D01*
X889849Y9096997D01*
X898538Y9129425D01*
Y9162996D01*
X889849Y9195423D01*
X873064Y9224497D01*
X849325Y9248236D01*
X820252Y9265021D01*
X787824Y9273710D01*
X754253D01*
X721826Y9265021D01*
X692752Y9248236D01*
X679277Y9234760D01*
X659277Y9243045D01*
Y9486672D01*
X732007Y9559403D01*
X753254Y9553710D01*
X786825D01*
X819252Y9562399D01*
X848326Y9579185D01*
X872064Y9602924D01*
X888850Y9631997D01*
X897539Y9664425D01*
Y9697996D01*
X888850Y9730423D01*
X872064Y9759497D01*
X848326Y9783235D01*
X819252Y9800021D01*
X786825Y9808710D01*
D02*
G37*
G36*
X7167929Y9515310D02*
X7138149D01*
X7109384Y9507603D01*
X7083594Y9492713D01*
X7062537Y9471655D01*
X7047647Y9445866D01*
X7039939Y9417101D01*
Y9387321D01*
X7045214Y9367635D01*
X5969374Y8291795D01*
X5150000D01*
X5130179Y8287853D01*
X5113375Y8276625D01*
X4463375Y7626625D01*
X4452147Y7609821D01*
X4448205Y7590000D01*
Y7554225D01*
X4439050Y7532124D01*
Y7507876D01*
X4448329Y7485475D01*
X4465475Y7468329D01*
X4487876Y7459050D01*
X4512124D01*
X4519114Y7461946D01*
X4539114Y7448582D01*
Y7414225D01*
X4529959Y7392124D01*
Y7367876D01*
X4539239Y7345475D01*
X4556384Y7328329D01*
X4578786Y7319050D01*
X4603033D01*
X4625434Y7328329D01*
X4642580Y7345475D01*
X4651859Y7367876D01*
Y7373661D01*
X4671859Y7381945D01*
X4675475Y7378329D01*
X4697876Y7369050D01*
X4722124D01*
X4744525Y7378329D01*
X4761671Y7395475D01*
X4770825Y7417576D01*
X5281454Y7928205D01*
X6310000D01*
X6329821Y7932147D01*
X6346625Y7943375D01*
X7026878Y8623628D01*
X7044809Y8613275D01*
X7039939Y8595100D01*
Y8565320D01*
X7045214Y8545635D01*
X6401374Y7901795D01*
X5330000D01*
X5310179Y7897853D01*
X5293375Y7886625D01*
X4717576Y7310825D01*
X4695475Y7301671D01*
X4678329Y7284525D01*
X4669050Y7262124D01*
Y7237876D01*
X4678329Y7215475D01*
X4695475Y7198329D01*
X4717876Y7189050D01*
X4742124D01*
X4764525Y7198329D01*
X4781671Y7215475D01*
X4783168Y7219089D01*
X4804382Y7220136D01*
X4821528Y7202990D01*
X4843929Y7193711D01*
X4868176D01*
X4890277Y7202866D01*
X4974661D01*
X4994482Y7206809D01*
X5011286Y7218036D01*
X5028672Y7235423D01*
X5051796Y7230262D01*
X5053674Y7225727D01*
X5065727Y7213674D01*
X5081477Y7207150D01*
X5098523D01*
X5114272Y7213674D01*
X5126326Y7225727D01*
X5132850Y7241477D01*
Y7258523D01*
X5126326Y7274272D01*
X5114272Y7286326D01*
X5109738Y7288204D01*
X5104577Y7311328D01*
X5461454Y7668205D01*
X6610000D01*
X6629821Y7672147D01*
X6646625Y7683375D01*
X7156360Y8193111D01*
X7167929D01*
X7196694Y8200818D01*
X7222484Y8215708D01*
X7243541Y8236766D01*
X7258431Y8262555D01*
X7266139Y8291320D01*
Y8321100D01*
X7258431Y8349865D01*
X7243541Y8375655D01*
X7222484Y8396713D01*
X7196694Y8411603D01*
X7167929Y8419310D01*
X7138149D01*
X7109384Y8411603D01*
X7083594Y8396713D01*
X7062537Y8375655D01*
X7047647Y8349865D01*
X7039939Y8321100D01*
Y8291320D01*
X7047647Y8262555D01*
X7059235Y8242485D01*
X6588546Y7771795D01*
X5440000D01*
X5420179Y7767853D01*
X5403375Y7756625D01*
X4953207Y7306456D01*
X4890277D01*
X4885289Y7308522D01*
X4881388Y7328138D01*
X5351454Y7798205D01*
X6422829D01*
X6442650Y7802147D01*
X6459453Y7813375D01*
X7118464Y8472385D01*
X7138149Y8467111D01*
X7167929D01*
X7196694Y8474818D01*
X7222484Y8489708D01*
X7243541Y8510766D01*
X7258431Y8536555D01*
X7266139Y8565320D01*
Y8595100D01*
X7258431Y8623865D01*
X7243541Y8649655D01*
X7222484Y8670713D01*
X7196694Y8685603D01*
X7167929Y8693310D01*
X7138149D01*
X7119974Y8688440D01*
X7109621Y8706372D01*
X7144360Y8741111D01*
X7167929D01*
X7196694Y8748818D01*
X7222484Y8763708D01*
X7243541Y8784766D01*
X7258431Y8810555D01*
X7266139Y8839320D01*
Y8869100D01*
X7258431Y8897865D01*
X7243541Y8923655D01*
X7222484Y8944713D01*
X7196694Y8959603D01*
X7167929Y8967310D01*
X7138149D01*
X7109384Y8959603D01*
X7083594Y8944713D01*
X7062537Y8923655D01*
X7047647Y8897865D01*
X7039939Y8869100D01*
Y8839320D01*
X7047647Y8810555D01*
X7054843Y8798092D01*
X6288546Y8031795D01*
X5260000D01*
X5240179Y8027853D01*
X5223375Y8016625D01*
X4697576Y7490826D01*
X4678260Y7482825D01*
X4670673Y7483775D01*
X4655809Y7490289D01*
X4655358Y7492109D01*
X5221454Y8058205D01*
X6134829D01*
X6154650Y8062147D01*
X6171453Y8073375D01*
X7118464Y9020385D01*
X7138149Y9015110D01*
X7167929D01*
X7196694Y9022818D01*
X7222484Y9037708D01*
X7243541Y9058765D01*
X7258431Y9084555D01*
X7266139Y9113320D01*
Y9143100D01*
X7258431Y9171865D01*
X7243541Y9197655D01*
X7222484Y9218713D01*
X7196694Y9233603D01*
X7167929Y9241310D01*
X7138149D01*
X7109384Y9233603D01*
X7083594Y9218713D01*
X7062537Y9197655D01*
X7047647Y9171865D01*
X7039939Y9143100D01*
Y9113320D01*
X7045214Y9093635D01*
X6113374Y8161795D01*
X5200000D01*
X5180179Y8157853D01*
X5163375Y8146625D01*
X4585981Y7569230D01*
X4564279Y7575813D01*
X4563414Y7580164D01*
X5171454Y8188205D01*
X5990829D01*
X6010650Y8192147D01*
X6027453Y8203375D01*
X7118464Y9294386D01*
X7138149Y9289111D01*
X7167929D01*
X7196694Y9296818D01*
X7222484Y9311708D01*
X7243541Y9332766D01*
X7258431Y9358556D01*
X7266139Y9387321D01*
Y9417101D01*
X7258431Y9445866D01*
X7243541Y9471655D01*
X7222484Y9492713D01*
X7196694Y9507603D01*
X7167929Y9515310D01*
D02*
G37*
G36*
X7420257Y9365610D02*
X7419740D01*
Y9277911D01*
X7507439D01*
Y9278428D01*
X7500597Y9303964D01*
X7487379Y9326858D01*
X7468686Y9345551D01*
X7445792Y9358768D01*
X7420257Y9365610D01*
D02*
G37*
G36*
X7394340D02*
X7393821D01*
X7368286Y9358768D01*
X7345392Y9345551D01*
X7326699Y9326858D01*
X7313481Y9303964D01*
X7306639Y9278428D01*
Y9277911D01*
X7394340D01*
Y9365610D01*
D02*
G37*
G36*
X7507439Y9252511D02*
X7419740D01*
Y9164811D01*
X7420257D01*
X7445792Y9171653D01*
X7468686Y9184871D01*
X7487379Y9203564D01*
X7500597Y9226458D01*
X7507439Y9251993D01*
Y9252511D01*
D02*
G37*
G36*
X7394340D02*
X7306639D01*
Y9251993D01*
X7313481Y9226458D01*
X7326699Y9203564D01*
X7345392Y9184871D01*
X7368286Y9171653D01*
X7393821Y9164811D01*
X7394340D01*
Y9252511D01*
D02*
G37*
G36*
X1803216Y9288710D02*
X1778861D01*
X1755335Y9282406D01*
X1734242Y9270229D01*
X1717020Y9253006D01*
X1704842Y9231914D01*
X1698539Y9208388D01*
Y9184032D01*
X1704842Y9160507D01*
X1717020Y9139414D01*
X1734242Y9122192D01*
X1755335Y9110014D01*
X1778861Y9103710D01*
X1803216D01*
X1826742Y9110014D01*
X1847835Y9122192D01*
X1865057Y9139414D01*
X1877235Y9160507D01*
X1883539Y9184032D01*
Y9208388D01*
X1877235Y9231914D01*
X1865057Y9253006D01*
X1847835Y9270229D01*
X1826742Y9282406D01*
X1803216Y9288710D01*
D02*
G37*
G36*
X1087824Y9273710D02*
X1054253D01*
X1021826Y9265021D01*
X992752Y9248236D01*
X969014Y9224497D01*
X952228Y9195423D01*
X943539Y9162996D01*
Y9129425D01*
X952228Y9096997D01*
X969014Y9067924D01*
X992752Y9044185D01*
X1021826Y9027400D01*
X1054253Y9018710D01*
X1087824D01*
X1120252Y9027400D01*
X1149325Y9044185D01*
X1173064Y9067924D01*
X1189850Y9096997D01*
X1198539Y9129425D01*
Y9162996D01*
X1189850Y9195423D01*
X1173064Y9224497D01*
X1149325Y9248236D01*
X1120252Y9265021D01*
X1087824Y9273710D01*
D02*
G37*
G36*
X5552861Y9045690D02*
X5462661D01*
Y8955490D01*
X5552861D01*
Y9045690D01*
D02*
G37*
G36*
X5437261D02*
X5347061D01*
Y8955490D01*
X5437261D01*
Y9045690D01*
D02*
G37*
G36*
X7419546Y9086210D02*
X7394532D01*
X7370371Y9079736D01*
X7348708Y9067229D01*
X7331020Y9049541D01*
X7318513Y9027879D01*
X7312039Y9003717D01*
Y8978703D01*
X7318513Y8954542D01*
X7331020Y8932879D01*
X7348708Y8915192D01*
X7370371Y8902685D01*
X7394532Y8896211D01*
X7419546D01*
X7443707Y8902685D01*
X7465370Y8915192D01*
X7483058Y8932879D01*
X7495565Y8954542D01*
X7502039Y8978703D01*
Y9003717D01*
X7495565Y9027879D01*
X7483058Y9049541D01*
X7465370Y9067229D01*
X7443707Y9079736D01*
X7419546Y9086210D01*
D02*
G37*
G36*
X5552861Y8930090D02*
X5462661D01*
Y8839890D01*
X5552861D01*
Y8930090D01*
D02*
G37*
G36*
X5437261D02*
X5347061D01*
Y8839890D01*
X5437261D01*
Y8930090D01*
D02*
G37*
G36*
X4126415Y8890610D02*
X4125239D01*
Y8797909D01*
X4217939D01*
Y8799087D01*
X4210756Y8825893D01*
X4196880Y8849927D01*
X4177256Y8869551D01*
X4153222Y8883427D01*
X4126415Y8890610D01*
D02*
G37*
G36*
X4099839D02*
X4098663D01*
X4071856Y8883427D01*
X4047822Y8869551D01*
X4028198Y8849927D01*
X4014322Y8825893D01*
X4007139Y8799087D01*
Y8797909D01*
X4099839D01*
Y8890610D01*
D02*
G37*
G36*
X4379704Y8885210D02*
X4353374D01*
X4327941Y8878395D01*
X4305138Y8865230D01*
X4286519Y8846611D01*
X4273354Y8823809D01*
X4266539Y8798376D01*
Y8772045D01*
X4273354Y8746612D01*
X4286519Y8723809D01*
X4305138Y8705191D01*
X4327941Y8692025D01*
X4353374Y8685210D01*
X4379704D01*
X4405137Y8692025D01*
X4427940Y8705191D01*
X4446559Y8723809D01*
X4459724Y8746612D01*
X4466539Y8772045D01*
Y8798376D01*
X4459724Y8823809D01*
X4446559Y8846611D01*
X4427940Y8865230D01*
X4405137Y8878395D01*
X4379704Y8885210D01*
D02*
G37*
G36*
X3871704D02*
X3845374D01*
X3819941Y8878395D01*
X3797138Y8865230D01*
X3778519Y8846611D01*
X3765354Y8823809D01*
X3758539Y8798376D01*
Y8772045D01*
X3765354Y8746612D01*
X3778519Y8723809D01*
X3797138Y8705191D01*
X3819941Y8692025D01*
X3845374Y8685210D01*
X3871704D01*
X3897137Y8692025D01*
X3919940Y8705191D01*
X3938559Y8723809D01*
X3951724Y8746612D01*
X3958539Y8772045D01*
Y8798376D01*
X3951724Y8823809D01*
X3938559Y8846611D01*
X3919940Y8865230D01*
X3897137Y8878395D01*
X3871704Y8885210D01*
D02*
G37*
G36*
X3617704D02*
X3591374D01*
X3565941Y8878395D01*
X3543138Y8865230D01*
X3524519Y8846611D01*
X3511354Y8823809D01*
X3504539Y8798376D01*
Y8772045D01*
X3511354Y8746612D01*
X3524519Y8723809D01*
X3543138Y8705191D01*
X3565941Y8692025D01*
X3591374Y8685210D01*
X3617704D01*
X3643137Y8692025D01*
X3665940Y8705191D01*
X3684559Y8723809D01*
X3697724Y8746612D01*
X3704539Y8772045D01*
Y8798376D01*
X3697724Y8823809D01*
X3684559Y8846611D01*
X3665940Y8865230D01*
X3643137Y8878395D01*
X3617704Y8885210D01*
D02*
G37*
G36*
X4217939Y8772509D02*
X4125239D01*
Y8679810D01*
X4126415D01*
X4153222Y8686993D01*
X4177256Y8700869D01*
X4196880Y8720493D01*
X4210756Y8744527D01*
X4217939Y8771334D01*
Y8772509D01*
D02*
G37*
G36*
X4099839D02*
X4007139D01*
Y8771334D01*
X4014322Y8744527D01*
X4028198Y8720493D01*
X4047822Y8700869D01*
X4071856Y8686993D01*
X4098663Y8679810D01*
X4099839D01*
Y8772509D01*
D02*
G37*
G36*
X7419546Y8812210D02*
X7394532D01*
X7370371Y8805736D01*
X7348708Y8793229D01*
X7331020Y8775542D01*
X7318513Y8753879D01*
X7312039Y8729717D01*
Y8704703D01*
X7318513Y8680542D01*
X7331020Y8658879D01*
X7348708Y8641192D01*
X7370371Y8628685D01*
X7394532Y8622211D01*
X7419546D01*
X7443707Y8628685D01*
X7465370Y8641192D01*
X7483058Y8658879D01*
X7495565Y8680542D01*
X7502039Y8704703D01*
Y8729717D01*
X7495565Y8753879D01*
X7483058Y8775542D01*
X7465370Y8793229D01*
X7443707Y8805736D01*
X7419546Y8812210D01*
D02*
G37*
G36*
X4720539Y8885210D02*
X4520539D01*
Y8685210D01*
X4673388D01*
X4690964Y8667635D01*
X4701780Y8660407D01*
X4714539Y8657869D01*
X5357307D01*
X5359106Y8651156D01*
X5371942Y8628924D01*
X5390095Y8610771D01*
X5412327Y8597935D01*
X5437125Y8591290D01*
X5462797D01*
X5487595Y8597935D01*
X5509827Y8610771D01*
X5527980Y8628924D01*
X5540816Y8651156D01*
X5547461Y8675954D01*
Y8701626D01*
X5540816Y8726424D01*
X5527980Y8748656D01*
X5509827Y8766809D01*
X5487595Y8779645D01*
X5462797Y8786290D01*
X5437125D01*
X5412327Y8779645D01*
X5390095Y8766809D01*
X5371942Y8748656D01*
X5359106Y8726424D01*
X5358604Y8724550D01*
X4728349D01*
X4720539Y8732361D01*
Y8885210D01*
D02*
G37*
G36*
X4126415Y8636610D02*
X4125239D01*
Y8543909D01*
X4217939D01*
Y8545087D01*
X4210756Y8571893D01*
X4196880Y8595927D01*
X4177256Y8615551D01*
X4153222Y8629427D01*
X4126415Y8636610D01*
D02*
G37*
G36*
X4099839D02*
X4098663D01*
X4071856Y8629427D01*
X4047822Y8615551D01*
X4028198Y8595927D01*
X4014322Y8571893D01*
X4007139Y8545087D01*
Y8543909D01*
X4099839D01*
Y8636610D01*
D02*
G37*
G36*
X7420257Y8543610D02*
X7419739D01*
Y8455910D01*
X7507439D01*
Y8456428D01*
X7500597Y8481963D01*
X7487379Y8504858D01*
X7468686Y8523550D01*
X7445792Y8536768D01*
X7420257Y8543610D01*
D02*
G37*
G36*
X7394339D02*
X7393821D01*
X7368286Y8536768D01*
X7345392Y8523550D01*
X7326699Y8504858D01*
X7313481Y8481963D01*
X7306639Y8456428D01*
Y8455910D01*
X7394339D01*
Y8543610D01*
D02*
G37*
G36*
X4633704Y8631210D02*
X4607374D01*
X4581941Y8624395D01*
X4559138Y8611230D01*
X4540519Y8592611D01*
X4527354Y8569809D01*
X4520539Y8544376D01*
Y8518045D01*
X4527354Y8492612D01*
X4540519Y8469809D01*
X4559138Y8451191D01*
X4581941Y8438025D01*
X4607374Y8431210D01*
X4633704D01*
X4659137Y8438025D01*
X4681940Y8451191D01*
X4700559Y8469809D01*
X4713724Y8492612D01*
X4720539Y8518045D01*
Y8544376D01*
X4713724Y8569809D01*
X4700559Y8592611D01*
X4681940Y8611230D01*
X4659137Y8624395D01*
X4633704Y8631210D01*
D02*
G37*
G36*
X4379704D02*
X4353374D01*
X4327941Y8624395D01*
X4305138Y8611230D01*
X4286519Y8592611D01*
X4273354Y8569809D01*
X4266539Y8544376D01*
Y8518045D01*
X4273354Y8492612D01*
X4286519Y8469809D01*
X4305138Y8451191D01*
X4327941Y8438025D01*
X4353374Y8431210D01*
X4379704D01*
X4405137Y8438025D01*
X4427940Y8451191D01*
X4446559Y8469809D01*
X4459724Y8492612D01*
X4466539Y8518045D01*
Y8544376D01*
X4459724Y8569809D01*
X4446559Y8592611D01*
X4427940Y8611230D01*
X4405137Y8624395D01*
X4379704Y8631210D01*
D02*
G37*
G36*
X3871704D02*
X3845374D01*
X3819941Y8624395D01*
X3797138Y8611230D01*
X3778519Y8592611D01*
X3765354Y8569809D01*
X3758539Y8544376D01*
Y8518045D01*
X3765354Y8492612D01*
X3778519Y8469809D01*
X3797138Y8451191D01*
X3819941Y8438025D01*
X3845374Y8431210D01*
X3871704D01*
X3897137Y8438025D01*
X3919940Y8451191D01*
X3938559Y8469809D01*
X3951724Y8492612D01*
X3958539Y8518045D01*
Y8544376D01*
X3951724Y8569809D01*
X3938559Y8592611D01*
X3919940Y8611230D01*
X3897137Y8624395D01*
X3871704Y8631210D01*
D02*
G37*
G36*
X3617704D02*
X3591374D01*
X3565941Y8624395D01*
X3543138Y8611230D01*
X3524519Y8592611D01*
X3511354Y8569809D01*
X3504539Y8544376D01*
Y8518045D01*
X3511354Y8492612D01*
X3524519Y8469809D01*
X3543138Y8451191D01*
X3565941Y8438025D01*
X3591374Y8431210D01*
X3617704D01*
X3643137Y8438025D01*
X3665940Y8451191D01*
X3684559Y8469809D01*
X3697724Y8492612D01*
X3704539Y8518045D01*
Y8544376D01*
X3697724Y8569809D01*
X3684559Y8592611D01*
X3665940Y8611230D01*
X3643137Y8624395D01*
X3617704Y8631210D01*
D02*
G37*
G36*
X4217939Y8518509D02*
X4125239D01*
Y8425810D01*
X4126415D01*
X4153222Y8432993D01*
X4177256Y8446869D01*
X4196880Y8466493D01*
X4210756Y8490527D01*
X4217939Y8517334D01*
Y8518509D01*
D02*
G37*
G36*
X4099839D02*
X4007139D01*
Y8517334D01*
X4014322Y8490527D01*
X4028198Y8466493D01*
X4047822Y8446869D01*
X4071856Y8432993D01*
X4098663Y8425810D01*
X4099839D01*
Y8518509D01*
D02*
G37*
G36*
X1223539Y8538710D02*
X1038539D01*
Y8353710D01*
X1223539D01*
Y8538710D01*
D02*
G37*
G36*
X7507439Y8430510D02*
X7419739D01*
Y8342811D01*
X7420257D01*
X7445792Y8349653D01*
X7468686Y8362870D01*
X7487379Y8381563D01*
X7500597Y8404457D01*
X7507439Y8429993D01*
Y8430510D01*
D02*
G37*
G36*
X7394339D02*
X7306639D01*
Y8429993D01*
X7313481Y8404457D01*
X7326699Y8381563D01*
X7345392Y8362870D01*
X7368286Y8349653D01*
X7393821Y8342811D01*
X7394339D01*
Y8430510D01*
D02*
G37*
G36*
X5462797Y8532290D02*
X5437125D01*
X5412327Y8525645D01*
X5390095Y8512809D01*
X5371942Y8494656D01*
X5359106Y8472424D01*
X5352461Y8447626D01*
Y8421954D01*
X5359106Y8397156D01*
X5371942Y8374924D01*
X5390095Y8356771D01*
X5412327Y8343935D01*
X5437125Y8337290D01*
X5462797D01*
X5487595Y8343935D01*
X5509827Y8356771D01*
X5527980Y8374924D01*
X5540816Y8397156D01*
X5547461Y8421954D01*
Y8447626D01*
X5540816Y8472424D01*
X5527980Y8494656D01*
X5509827Y8512809D01*
X5487595Y8525645D01*
X5462797Y8532290D01*
D02*
G37*
G36*
X1803217Y7959350D02*
X1778862D01*
X1755336Y7953047D01*
X1734243Y7940869D01*
X1717021Y7923647D01*
X1704843Y7902554D01*
X1698539Y7879028D01*
Y7854673D01*
X1704843Y7831147D01*
X1717021Y7810054D01*
X1734243Y7792832D01*
X1755336Y7780654D01*
X1778862Y7774350D01*
X1803217D01*
X1826743Y7780654D01*
X1847836Y7792832D01*
X1865058Y7810054D01*
X1877236Y7831147D01*
X1883539Y7854673D01*
Y7879028D01*
X1877236Y7902554D01*
X1865058Y7923647D01*
X1847836Y7940869D01*
X1826743Y7953047D01*
X1803217Y7959350D01*
D02*
G37*
G36*
X7300926Y7870110D02*
X7292739D01*
Y7617410D01*
X7545439D01*
Y7625598D01*
X7538904Y7666858D01*
X7525995Y7706589D01*
X7507029Y7743811D01*
X7482475Y7777607D01*
X7452936Y7807146D01*
X7419139Y7831701D01*
X7381917Y7850666D01*
X7342187Y7863576D01*
X7300926Y7870110D01*
D02*
G37*
G36*
X7267339D02*
X7259152D01*
X7217891Y7863576D01*
X7178161Y7850666D01*
X7140939Y7831701D01*
X7107143Y7807146D01*
X7077603Y7777607D01*
X7053049Y7743811D01*
X7034083Y7706589D01*
X7021174Y7666858D01*
X7014639Y7625598D01*
Y7617410D01*
X7267339D01*
Y7870110D01*
D02*
G37*
G36*
X5800000Y7643341D02*
X5600000D01*
X5587241Y7640803D01*
X5576424Y7633575D01*
X5036425Y7093575D01*
X5029197Y7082759D01*
X5026659Y7070000D01*
Y6671365D01*
X4984523Y6629229D01*
X4966045Y6636883D01*
Y6670377D01*
X4902739D01*
Y6599771D01*
X4928933D01*
X4936587Y6581293D01*
X4900312Y6545018D01*
X4896090D01*
X4880341Y6538495D01*
X4868287Y6526441D01*
X4861763Y6510692D01*
Y6493645D01*
X4868287Y6477896D01*
X4880341Y6465842D01*
X4896090Y6459319D01*
X4913136D01*
X4928885Y6465842D01*
X4940939Y6477896D01*
X4947463Y6493645D01*
Y6497868D01*
X5083575Y6633980D01*
X5090803Y6644796D01*
X5093341Y6657555D01*
Y6997776D01*
X5113341Y7006060D01*
X5115727Y7003674D01*
X5126565Y6999184D01*
X5146610Y6979139D01*
X5159527Y6970508D01*
X5174764Y6967477D01*
X5297081D01*
Y6934381D01*
X5550185D01*
Y6888698D01*
X5530185Y6880414D01*
X5524272Y6886326D01*
X5508523Y6892850D01*
X5491476D01*
X5475727Y6886326D01*
X5472742Y6883341D01*
X5307258D01*
X5304273Y6886326D01*
X5288524Y6892850D01*
X5271477D01*
X5255728Y6886326D01*
X5243674Y6874273D01*
X5237150Y6858523D01*
Y6841477D01*
X5243674Y6825728D01*
X5255728Y6813674D01*
X5271477Y6807150D01*
X5288523D01*
X5293884Y6803568D01*
Y6784157D01*
X5291381Y6782315D01*
X5277725Y6772850D01*
X5261476D01*
X5245727Y6766326D01*
X5233674Y6754272D01*
X5227150Y6738523D01*
Y6721477D01*
X5233674Y6705728D01*
X5245727Y6693674D01*
X5261476Y6687150D01*
X5278523D01*
X5279440Y6687530D01*
X5298308Y6674923D01*
X5294040Y6660885D01*
X5294040Y6647306D01*
Y6590278D01*
X5370047D01*
X5446053D01*
Y6647306D01*
X5446053Y6660885D01*
X5445186Y6663737D01*
X5460010Y6683737D01*
X5540083D01*
X5554907Y6663737D01*
X5554039Y6660884D01*
X5554040Y6647305D01*
Y6590277D01*
X5630046D01*
X5706053D01*
Y6647305D01*
X5706053Y6660884D01*
X5705185Y6663737D01*
X5720009Y6683737D01*
X5800084D01*
X5814908Y6663737D01*
X5814040Y6660883D01*
X5814040Y6647305D01*
Y6590276D01*
X5890047D01*
X5966053D01*
Y6647304D01*
X5966054Y6660883D01*
X5960653Y6678646D01*
Y6820882D01*
X5819440D01*
Y6802214D01*
X5700653D01*
Y6820882D01*
X5629815D01*
Y6951113D01*
X5626784Y6966350D01*
X5623668Y6971013D01*
Y6973431D01*
X5622903Y6977279D01*
Y7080203D01*
X5297081D01*
Y7047107D01*
X5191256D01*
X5177907Y7060456D01*
X5176326Y7064272D01*
X5164272Y7076326D01*
X5148523Y7082850D01*
X5148285D01*
X5140000Y7102850D01*
X5613810Y7576659D01*
X5786190D01*
X5807150Y7555699D01*
Y7551477D01*
X5813674Y7535728D01*
X5825727Y7523674D01*
X5841477Y7517150D01*
X5858523D01*
X5874272Y7523674D01*
X5886326Y7535728D01*
X5892850Y7551477D01*
Y7568524D01*
X5886326Y7584273D01*
X5874272Y7596326D01*
X5858523Y7602850D01*
X5854301D01*
X5823575Y7633575D01*
X5812759Y7640803D01*
X5800000Y7643341D01*
D02*
G37*
G36*
X5731070Y7534373D02*
X5714023D01*
X5698274Y7527849D01*
X5686220Y7515795D01*
X5679696Y7500046D01*
Y7483000D01*
X5686220Y7467250D01*
X5698274Y7455197D01*
X5714023Y7448673D01*
X5731070D01*
X5746819Y7455197D01*
X5758872Y7467250D01*
X5765396Y7483000D01*
Y7500046D01*
X5758872Y7515795D01*
X5746819Y7527849D01*
X5731070Y7534373D01*
D02*
G37*
G36*
X7545439Y7592010D02*
X7292739D01*
Y7339310D01*
X7300926D01*
X7342187Y7345845D01*
X7381917Y7358755D01*
X7419139Y7377720D01*
X7452936Y7402275D01*
X7482475Y7431814D01*
X7507029Y7465610D01*
X7525995Y7502832D01*
X7538904Y7542563D01*
X7545439Y7583823D01*
Y7592010D01*
D02*
G37*
G36*
X7267339D02*
X7014639D01*
Y7583823D01*
X7021174Y7542563D01*
X7034083Y7502832D01*
X7053049Y7465610D01*
X7077603Y7431814D01*
X7107143Y7402275D01*
X7140939Y7377720D01*
X7178161Y7358755D01*
X7217891Y7345845D01*
X7259152Y7339310D01*
X7267339D01*
Y7592010D01*
D02*
G37*
G36*
X6043637Y7482615D02*
X6021651D01*
X6000414Y7476925D01*
X5981374Y7465932D01*
X5965827Y7450385D01*
X5954834Y7431345D01*
X5949144Y7410108D01*
Y7388122D01*
X5954834Y7366885D01*
X5965827Y7347845D01*
X5981374Y7332298D01*
X6000414Y7321305D01*
X6021651Y7315615D01*
X6043637D01*
X6064874Y7321305D01*
X6083914Y7332298D01*
X6099461Y7347845D01*
X6110454Y7366885D01*
X6116144Y7388122D01*
Y7410108D01*
X6110454Y7431345D01*
X6099461Y7450385D01*
X6083914Y7465932D01*
X6064874Y7476925D01*
X6043637Y7482615D01*
D02*
G37*
G36*
X788536Y7149750D02*
X783739D01*
Y7029551D01*
X903939D01*
Y7034347D01*
X894882Y7068148D01*
X877386Y7098453D01*
X852642Y7123197D01*
X822337Y7140694D01*
X788536Y7149750D01*
D02*
G37*
G36*
X758339D02*
X753543D01*
X719742Y7140694D01*
X689437Y7123197D01*
X664693Y7098453D01*
X647196Y7068148D01*
X638139Y7034347D01*
Y7029551D01*
X758339D01*
Y7149750D01*
D02*
G37*
G36*
X1223539Y7209350D02*
X1038539D01*
Y7024350D01*
X1223539D01*
Y7209350D01*
D02*
G37*
G36*
X3782124Y7740950D02*
X3757876D01*
X3735475Y7731671D01*
X3718329Y7714525D01*
X3709050Y7692124D01*
Y7667876D01*
X3718329Y7645475D01*
X3735475Y7628329D01*
X3757876Y7619050D01*
X3782124D01*
X3804225Y7628205D01*
X4068546D01*
X4690747Y7006004D01*
X4689097Y6990206D01*
X4670404Y6982846D01*
X4081964Y7571286D01*
X4065160Y7582514D01*
X4045339Y7586456D01*
X3750277D01*
X3728176Y7595611D01*
X3703929D01*
X3681528Y7586332D01*
X3664382Y7569186D01*
X3655103Y7546785D01*
Y7522537D01*
X3664382Y7500136D01*
X3681528Y7482990D01*
X3703929Y7473711D01*
X3728176D01*
X3750277Y7482866D01*
X4023885D01*
X4533901Y6972850D01*
X4525616Y6952850D01*
X4521477D01*
X4505728Y6946326D01*
X4493674Y6934272D01*
X4490003Y6925411D01*
X4434043D01*
X4420680Y6945411D01*
X4422099Y6948838D01*
Y6973085D01*
X4412820Y6995487D01*
X4395675Y7012632D01*
X4377066Y7020340D01*
X4298857Y7098549D01*
X4298791Y7098883D01*
X4287563Y7115686D01*
X4287562Y7115687D01*
X4181236Y7222013D01*
X4164433Y7233241D01*
X4144611Y7237183D01*
X3716066D01*
X3580825Y7372424D01*
X3571671Y7394525D01*
X3554525Y7411671D01*
X3532124Y7420950D01*
X3507876D01*
X3485475Y7411671D01*
X3468329Y7394525D01*
X3459050Y7372124D01*
Y7347876D01*
X3468329Y7325475D01*
X3485475Y7308329D01*
X3507576Y7299175D01*
X3657987Y7148763D01*
X3674790Y7137536D01*
X3694612Y7133593D01*
X4123157D01*
X4203019Y7053731D01*
X4203086Y7053398D01*
X4214313Y7036594D01*
X4254917Y6995991D01*
X4251012Y6971611D01*
X4243674Y6964273D01*
X4237150Y6948524D01*
Y6931477D01*
X4229489Y6920011D01*
X4166105D01*
Y6778798D01*
X4321919D01*
X4326104Y6773398D01*
Y6773398D01*
X4396711D01*
Y6849405D01*
X4422111D01*
Y6773398D01*
X4467963D01*
X4476425Y6753575D01*
X4469197Y6742759D01*
X4466659Y6730000D01*
Y6083810D01*
X4155699Y5772850D01*
X4151477D01*
X4135728Y5766326D01*
X4123674Y5754272D01*
X4117150Y5738523D01*
Y5721476D01*
X4123674Y5705727D01*
X4135728Y5693674D01*
X4151477Y5687150D01*
X4168524D01*
X4184273Y5693674D01*
X4196326Y5705727D01*
X4202850Y5721476D01*
Y5725699D01*
X4523575Y6046425D01*
X4530802Y6057241D01*
X4533340Y6070000D01*
Y6709397D01*
X4543009Y6716827D01*
X4563009Y6707144D01*
Y5990160D01*
X4442379Y5869529D01*
X4434376Y5867937D01*
X4423560Y5860710D01*
X4295699Y5732850D01*
X4291477D01*
X4275728Y5726326D01*
X4263674Y5714273D01*
X4257150Y5698524D01*
Y5681477D01*
X4263674Y5665728D01*
X4275728Y5653674D01*
X4291477Y5647150D01*
X4308524D01*
X4324273Y5653674D01*
X4336326Y5665728D01*
X4342850Y5681477D01*
Y5685699D01*
X4461891Y5804740D01*
X4469894Y5806332D01*
X4480710Y5813560D01*
X4619925Y5952775D01*
X4627153Y5963591D01*
X4629691Y5976350D01*
Y6095870D01*
X4631299Y6115204D01*
X4649691Y6115204D01*
X4701906D01*
Y6191210D01*
Y6267217D01*
X4631299Y6267217D01*
X4629691Y6286551D01*
Y6649077D01*
X4649691Y6662441D01*
X4657876Y6659050D01*
X4669050D01*
Y6638887D01*
X4678329Y6616486D01*
X4695475Y6599340D01*
X4717876Y6590061D01*
X4742124D01*
X4764525Y6599340D01*
X4781671Y6616486D01*
X4790950Y6638887D01*
Y6663135D01*
X4794033Y6669125D01*
X4814033Y6664281D01*
Y6599771D01*
X4877339D01*
Y6683077D01*
X4890039D01*
Y6695777D01*
X4966045D01*
Y6752806D01*
X4966046Y6766384D01*
X4960645Y6784147D01*
Y6926383D01*
X4885473D01*
Y6942374D01*
X4882935Y6955133D01*
X4882850Y6955261D01*
Y6968524D01*
X4876326Y6984273D01*
X4864272Y6996326D01*
X4848523Y7002850D01*
X4831476D01*
X4815727Y6996326D01*
X4815445Y6996044D01*
X4795445Y7004329D01*
Y7026350D01*
X4791503Y7046171D01*
X4780275Y7062974D01*
X4126625Y7716625D01*
X4109821Y7727852D01*
X4090000Y7731795D01*
X3804225D01*
X3782124Y7740950D01*
D02*
G37*
G36*
X903939Y7004151D02*
X783739D01*
Y6883951D01*
X788536D01*
X822337Y6893008D01*
X852642Y6910504D01*
X877386Y6935248D01*
X894882Y6965553D01*
X903939Y6999354D01*
Y7004151D01*
D02*
G37*
G36*
X758339D02*
X638139D01*
Y6999354D01*
X647196Y6965553D01*
X664693Y6935248D01*
X689437Y6910504D01*
X719742Y6893008D01*
X753543Y6883951D01*
X758339D01*
Y7004151D01*
D02*
G37*
G36*
X2918523Y9612850D02*
X2901477D01*
X2885728Y9606326D01*
X2873674Y9594272D01*
X2867150Y9578523D01*
Y9561476D01*
X2873674Y9545727D01*
X2876659Y9542742D01*
Y7479654D01*
X2879197Y7466895D01*
X2886425Y7456078D01*
X3258558Y7083945D01*
X3269374Y7076718D01*
X3282133Y7074180D01*
X3358669D01*
X3677150Y6755699D01*
Y6751476D01*
X3683674Y6735727D01*
X3695727Y6723674D01*
X3711476Y6717150D01*
X3728523D01*
X3744272Y6723674D01*
X3756326Y6735727D01*
X3762850Y6751476D01*
Y6768523D01*
X3756326Y6784272D01*
X3744272Y6796326D01*
X3728523Y6802850D01*
X3724301D01*
X3396055Y7131096D01*
X3385238Y7138323D01*
X3372479Y7140861D01*
X3295943D01*
X2943341Y7493464D01*
Y9542742D01*
X2946326Y9545727D01*
X2952850Y9561476D01*
Y9578523D01*
X2946326Y9594272D01*
X2934273Y9606326D01*
X2918523Y9612850D01*
D02*
G37*
G36*
Y9862850D02*
X2901477D01*
X2885728Y9856326D01*
X2873674Y9844272D01*
X2867150Y9828523D01*
Y9811476D01*
X2873674Y9795727D01*
X2885728Y9783674D01*
X2901477Y9777150D01*
X2905699D01*
X2986660Y9696190D01*
Y7610000D01*
X2989197Y7597241D01*
X2996425Y7586425D01*
X3806659Y6776190D01*
Y6747258D01*
X3803674Y6744273D01*
X3797150Y6728524D01*
Y6711477D01*
X3803674Y6695728D01*
X3815727Y6683674D01*
X3831476Y6677150D01*
X3848523D01*
X3864272Y6683674D01*
X3876326Y6695728D01*
X3882850Y6711477D01*
Y6728524D01*
X3876326Y6744273D01*
X3873340Y6747258D01*
Y6790000D01*
X3870803Y6802759D01*
X3863575Y6813575D01*
X3309568Y7367583D01*
X3309364Y7371394D01*
X3315426Y7390009D01*
X3324272Y7393674D01*
X3336326Y7405727D01*
X3342850Y7421476D01*
Y7438523D01*
X3336326Y7454272D01*
X3324272Y7466326D01*
X3308523Y7472850D01*
X3291477D01*
X3275728Y7466326D01*
X3263674Y7454272D01*
X3260009Y7445426D01*
X3241395Y7439364D01*
X3237583Y7439568D01*
X3053341Y7623810D01*
Y9710000D01*
X3050803Y9722759D01*
X3043575Y9733575D01*
X2952850Y9824301D01*
Y9828523D01*
X2946326Y9844272D01*
X2934273Y9856326D01*
X2918523Y9862850D01*
D02*
G37*
G36*
X5446053Y6564878D02*
X5382747D01*
Y6494271D01*
X5446053D01*
Y6564878D01*
D02*
G37*
G36*
X5357347D02*
X5294040D01*
Y6494271D01*
X5357347D01*
Y6564878D01*
D02*
G37*
G36*
X5706053Y6564877D02*
X5642746D01*
Y6494270D01*
X5706053D01*
Y6564877D01*
D02*
G37*
G36*
X5617346D02*
X5554040D01*
Y6494270D01*
X5617346D01*
Y6564877D01*
D02*
G37*
G36*
X5966053Y6564876D02*
X5902747D01*
Y6494269D01*
X5966053D01*
Y6564876D01*
D02*
G37*
G36*
X5877347D02*
X5814040D01*
Y6494269D01*
X5877347D01*
Y6564876D01*
D02*
G37*
G36*
X2918523Y7052850D02*
X2901477D01*
X2885728Y7046326D01*
X2873674Y7034272D01*
X2867150Y7018523D01*
Y7001476D01*
X2873674Y6985727D01*
X2885728Y6973674D01*
X2901477Y6967150D01*
X2905699D01*
X3436425Y6436425D01*
X3447241Y6429197D01*
X3460000Y6426659D01*
X3602253D01*
X3615012Y6429197D01*
X3625829Y6436425D01*
X3646063Y6456659D01*
X3752742D01*
X3755728Y6453674D01*
X3771477Y6447150D01*
X3788524D01*
X3804273Y6453674D01*
X3816326Y6465727D01*
X3822850Y6481476D01*
Y6498523D01*
X3816326Y6514272D01*
X3804273Y6526326D01*
X3788524Y6532850D01*
X3771477D01*
X3755728Y6526326D01*
X3752742Y6523341D01*
X3632253D01*
X3619494Y6520803D01*
X3608678Y6513575D01*
X3588443Y6493341D01*
X3473810D01*
X2952850Y7014301D01*
Y7018523D01*
X2946326Y7034272D01*
X2934273Y7046326D01*
X2918523Y7052850D01*
D02*
G37*
G36*
X1802217Y6623710D02*
X1777861D01*
X1754335Y6617407D01*
X1733243Y6605229D01*
X1716020Y6588007D01*
X1703843Y6566914D01*
X1697539Y6543388D01*
Y6519033D01*
X1703843Y6495507D01*
X1716020Y6474414D01*
X1733243Y6457192D01*
X1754335Y6445014D01*
X1777861Y6438711D01*
X1802217D01*
X1825742Y6445014D01*
X1846835Y6457192D01*
X1864057Y6474414D01*
X1876235Y6495507D01*
X1882539Y6519033D01*
Y6543388D01*
X1876235Y6566914D01*
X1864057Y6588007D01*
X1846835Y6605229D01*
X1825742Y6617407D01*
X1802217Y6623710D01*
D02*
G37*
G36*
X4307851Y6455089D02*
X4244545D01*
Y6384483D01*
X4307851D01*
Y6455089D01*
D02*
G37*
G36*
X1086825Y6608710D02*
X1053253D01*
X1020826Y6600021D01*
X991752Y6583236D01*
X968014Y6559497D01*
X951228Y6530424D01*
X942539Y6497996D01*
Y6464425D01*
X951228Y6431998D01*
X968014Y6402924D01*
X991752Y6379185D01*
X1020826Y6362400D01*
X1053253Y6353711D01*
X1086825D01*
X1119252Y6362400D01*
X1148326Y6379185D01*
X1172064Y6402924D01*
X1188850Y6431998D01*
X1197539Y6464425D01*
Y6497996D01*
X1188850Y6530424D01*
X1172064Y6559497D01*
X1148326Y6583236D01*
X1119252Y6600021D01*
X1086825Y6608710D01*
D02*
G37*
G36*
X786824D02*
X753253D01*
X720826Y6600021D01*
X691752Y6583236D01*
X668014Y6559497D01*
X651228Y6530424D01*
X642539Y6497996D01*
Y6464425D01*
X651228Y6431998D01*
X668014Y6402924D01*
X691752Y6379185D01*
X720826Y6362400D01*
X753253Y6353711D01*
X786824D01*
X819252Y6362400D01*
X848325Y6379185D01*
X872064Y6402924D01*
X888850Y6431998D01*
X897539Y6464425D01*
Y6497996D01*
X888850Y6530424D01*
X872064Y6559497D01*
X848325Y6583236D01*
X819252Y6600021D01*
X786824Y6608710D01*
D02*
G37*
G36*
X3818523Y6412850D02*
X3801477D01*
X3785728Y6406326D01*
X3773674Y6394272D01*
X3767150Y6378523D01*
Y6361476D01*
X3770723Y6352850D01*
X3762436Y6334925D01*
X3759369Y6331977D01*
X3747896Y6327225D01*
X3726275D01*
X3719925Y6333575D01*
X3709108Y6340803D01*
X3696349Y6343341D01*
X2877258D01*
X2874272Y6346326D01*
X2858523Y6352850D01*
X2841476D01*
X2825727Y6346326D01*
X2813674Y6334273D01*
X2807150Y6318524D01*
Y6301477D01*
X2813674Y6285728D01*
X2825727Y6273674D01*
X2841476Y6267150D01*
X2858523D01*
X2874272Y6273674D01*
X2877258Y6276660D01*
X3682539D01*
X3688890Y6270309D01*
X3699706Y6263082D01*
X3712465Y6260544D01*
X3738858D01*
X3745728Y6253674D01*
X3761477Y6247150D01*
X3771715D01*
X3781043Y6228194D01*
X3716190Y6163340D01*
X2963810D01*
X2932850Y6194301D01*
Y6198524D01*
X2926326Y6214273D01*
X2914273Y6226326D01*
X2898524Y6232850D01*
X2881477D01*
X2865728Y6226326D01*
X2853674Y6214273D01*
X2847150Y6198524D01*
Y6181477D01*
X2853674Y6165728D01*
X2865728Y6153674D01*
X2881477Y6147150D01*
X2885699D01*
X2926425Y6106425D01*
X2928553Y6105003D01*
X2930212Y6100685D01*
X2930982Y6082026D01*
X2930728Y6081327D01*
X2923674Y6074273D01*
X2917150Y6058524D01*
Y6041477D01*
X2923674Y6025728D01*
X2935727Y6013674D01*
X2951476Y6007150D01*
X2955699D01*
X3006425Y5956424D01*
X3017241Y5949197D01*
X3030000Y5946659D01*
X3762887D01*
X3770521Y5926659D01*
X3762190Y5912229D01*
X3756500Y5890993D01*
Y5879871D01*
X3751071Y5875218D01*
X3736500Y5869571D01*
X3722230Y5877810D01*
X3700993Y5883500D01*
X3679007D01*
X3657770Y5877810D01*
X3638730Y5866817D01*
X3623183Y5851270D01*
X3612190Y5832230D01*
X3606500Y5810993D01*
Y5789007D01*
X3612190Y5767770D01*
X3623183Y5748730D01*
X3638730Y5733183D01*
X3657770Y5722190D01*
X3679007Y5716500D01*
X3700993D01*
X3722230Y5722190D01*
X3741270Y5733183D01*
X3756817Y5748730D01*
X3767810Y5767770D01*
X3773500Y5789007D01*
Y5800128D01*
X3778929Y5804782D01*
X3793500Y5810429D01*
X3807770Y5802190D01*
X3829007Y5796500D01*
X3850993D01*
X3872230Y5802190D01*
X3891270Y5813183D01*
X3906817Y5828730D01*
X3917810Y5847770D01*
X3923500Y5869007D01*
Y5890993D01*
X3917810Y5912229D01*
X3909479Y5926659D01*
X3917113Y5946659D01*
X4240000D01*
X4252759Y5949197D01*
X4263575Y5956425D01*
X4384301Y6077150D01*
X4388523D01*
X4404272Y6083674D01*
X4416326Y6095727D01*
X4422850Y6111476D01*
Y6128523D01*
X4416326Y6144272D01*
X4404272Y6156326D01*
X4388523Y6162850D01*
X4371476D01*
X4355727Y6156326D01*
X4343674Y6144272D01*
X4337150Y6128523D01*
Y6124301D01*
X4226190Y6013341D01*
X3043810D01*
X3002850Y6054301D01*
Y6058524D01*
X2996326Y6074273D01*
X2993939Y6076659D01*
X3002224Y6096659D01*
X3730000D01*
X3742759Y6099197D01*
X3753575Y6106425D01*
X3853575Y6206425D01*
X3860803Y6217241D01*
X3863341Y6230000D01*
Y6344971D01*
X3860803Y6357730D01*
X3853575Y6368546D01*
X3852850Y6369271D01*
Y6378523D01*
X3846326Y6394272D01*
X3834272Y6406326D01*
X3818523Y6412850D01*
D02*
G37*
G36*
X4797913Y6267217D02*
X4784334Y6267217D01*
X4727306D01*
Y6191210D01*
Y6115204D01*
X4784334D01*
X4797913Y6115204D01*
X4815676Y6120604D01*
X4910761D01*
X4927150Y6104215D01*
Y6101476D01*
X4933674Y6085727D01*
X4945727Y6073674D01*
X4961476Y6067150D01*
X4978523D01*
X4994272Y6073674D01*
X5006326Y6085727D01*
X5012850Y6101476D01*
Y6118523D01*
X5006326Y6134272D01*
X4994272Y6146326D01*
X4978523Y6152850D01*
X4972816D01*
X4957911Y6167754D01*
Y6261817D01*
X4815676D01*
X4797913Y6267217D01*
D02*
G37*
G36*
X2908524Y7292850D02*
X2891477D01*
X2875728Y7286326D01*
X2863674Y7274272D01*
X2857150Y7258523D01*
Y7241477D01*
X2863674Y7225727D01*
X2875728Y7213674D01*
X2891477Y7207150D01*
X2895699D01*
X3526425Y6576425D01*
X3537241Y6569197D01*
X3550000Y6566659D01*
X3856190D01*
X4077150Y6345699D01*
Y6341477D01*
X4083674Y6325728D01*
X4095727Y6313674D01*
X4111476Y6307150D01*
X4128523D01*
X4135838Y6310180D01*
X4155838Y6299108D01*
X4155838Y6288476D01*
X4161238Y6270713D01*
Y6207485D01*
X4141929Y6192850D01*
X4131477D01*
X4115728Y6186326D01*
X4103674Y6174272D01*
X4097150Y6158523D01*
Y6141476D01*
X4103674Y6125727D01*
X4115728Y6113674D01*
X4131477Y6107150D01*
X4148524D01*
X4164273Y6113674D01*
X4176326Y6125727D01*
X4177200Y6127836D01*
X4193938D01*
X4197160Y6128477D01*
X4302451D01*
Y6270713D01*
X4307851Y6288476D01*
X4307851Y6302054D01*
Y6359083D01*
X4231845D01*
Y6371783D01*
X4219145D01*
Y6455089D01*
X4155838D01*
Y6400892D01*
X4135838Y6389820D01*
X4128523Y6392850D01*
X4124301D01*
X3893575Y6623575D01*
X3882759Y6630803D01*
X3870000Y6633341D01*
X3563810D01*
X2942850Y7254301D01*
Y7258523D01*
X2936326Y7274272D01*
X2924273Y7286326D01*
X2908524Y7292850D01*
D02*
G37*
G36*
X6495305Y6336211D02*
X6464773D01*
X6434827Y6330255D01*
X6406619Y6318570D01*
X6381232Y6301608D01*
X6359643Y6280018D01*
X6342680Y6254631D01*
X6330996Y6226423D01*
X6325039Y6196477D01*
Y6165945D01*
X6330996Y6135999D01*
X6342680Y6107791D01*
X6359643Y6082404D01*
X6381232Y6060815D01*
X6406619Y6043852D01*
X6434827Y6032168D01*
X6464773Y6026211D01*
X6495305D01*
X6525251Y6032168D01*
X6553459Y6043852D01*
X6578846Y6060815D01*
X6600436Y6082404D01*
X6617398Y6107791D01*
X6629082Y6135999D01*
X6635039Y6165945D01*
Y6196477D01*
X6629082Y6226423D01*
X6617398Y6254631D01*
X6600436Y6280018D01*
X6578846Y6301608D01*
X6553459Y6318570D01*
X6525251Y6330255D01*
X6495305Y6336211D01*
D02*
G37*
G36*
X7097539Y6336966D02*
X6962539D01*
X6939697Y6333959D01*
X6918411Y6325142D01*
X6900133Y6311117D01*
X6886108Y6292839D01*
X6877291Y6271553D01*
X6874284Y6248711D01*
Y6113711D01*
X6877291Y6090869D01*
X6886108Y6069583D01*
X6900133Y6051305D01*
X6918411Y6037280D01*
X6939697Y6028463D01*
X6962539Y6025456D01*
X7097539D01*
X7120381Y6028463D01*
X7141667Y6037280D01*
X7159945Y6051305D01*
X7173970Y6069583D01*
X7182787Y6090869D01*
X7185794Y6113711D01*
Y6248711D01*
X7182787Y6271553D01*
X7173970Y6292839D01*
X7159945Y6311117D01*
X7141667Y6325142D01*
X7120381Y6333959D01*
X7097539Y6336966D01*
D02*
G37*
G36*
X7776783Y6351211D02*
X7743296D01*
X7710452Y6344678D01*
X7679514Y6331863D01*
X7651670Y6313258D01*
X7627992Y6289579D01*
X7609387Y6261736D01*
X7596572Y6230798D01*
X7590039Y6197954D01*
Y6164467D01*
X7596572Y6131624D01*
X7609387Y6100686D01*
X7627992Y6072842D01*
X7651670Y6049163D01*
X7679514Y6030559D01*
X7710452Y6017744D01*
X7743296Y6011211D01*
X7776783D01*
X7809626Y6017744D01*
X7840564Y6030559D01*
X7868408Y6049163D01*
X7892087Y6072842D01*
X7910691Y6100686D01*
X7923506Y6131624D01*
X7930039Y6164467D01*
Y6197954D01*
X7923506Y6230798D01*
X7910691Y6261736D01*
X7892087Y6289579D01*
X7868408Y6313258D01*
X7840564Y6331863D01*
X7809626Y6344678D01*
X7776783Y6351211D01*
D02*
G37*
G36*
X5734073Y5972850D02*
X5717026D01*
X5701277Y5966326D01*
X5689224Y5954273D01*
X5682700Y5938524D01*
Y5921477D01*
X5689224Y5905728D01*
X5701277Y5893674D01*
X5717026Y5887150D01*
X5734073D01*
X5749822Y5893674D01*
X5761876Y5905728D01*
X5768400Y5921477D01*
Y5938524D01*
X5761876Y5954273D01*
X5749822Y5966326D01*
X5734073Y5972850D01*
D02*
G37*
G36*
X5001801Y6434017D02*
X4984754D01*
X4969005Y6427494D01*
X4956951Y6415440D01*
X4950428Y6399691D01*
Y6382644D01*
X4956951Y6366895D01*
X4966659Y6357187D01*
Y6320000D01*
X4969197Y6307241D01*
X4976425Y6296425D01*
X5275531Y5997319D01*
X5274852Y5990426D01*
X5268222Y5980503D01*
X5265893Y5968797D01*
Y5888797D01*
X5268222Y5877092D01*
X5274852Y5867169D01*
X5284776Y5860538D01*
X5296481Y5858210D01*
X5356481D01*
X5368186Y5860538D01*
X5378110Y5867169D01*
X5384740Y5877092D01*
X5387068Y5888797D01*
Y5968797D01*
X5384740Y5980503D01*
X5378110Y5990426D01*
X5368186Y5997057D01*
X5356481Y5999385D01*
X5351322D01*
Y6002018D01*
X5348784Y6014777D01*
X5341557Y6025594D01*
X5033340Y6333810D01*
Y6375916D01*
X5036127Y6382644D01*
Y6399691D01*
X5029604Y6415440D01*
X5017550Y6427494D01*
X5001801Y6434017D01*
D02*
G37*
G36*
X5058524Y6002850D02*
X5041477D01*
X5025728Y5996326D01*
X5013674Y5984273D01*
X5007150Y5968523D01*
Y5951477D01*
X5013674Y5935728D01*
X5025728Y5923674D01*
X5041477Y5917150D01*
X5058524D01*
X5074273Y5923674D01*
X5077258Y5926659D01*
X5115893D01*
Y5888797D01*
X5118222Y5877092D01*
X5124852Y5867169D01*
X5134776Y5860538D01*
X5146481Y5858210D01*
X5206481D01*
X5218186Y5860538D01*
X5228110Y5867169D01*
X5234740Y5877092D01*
X5237069Y5888797D01*
Y5968797D01*
X5234740Y5980503D01*
X5228110Y5990426D01*
X5218186Y5997057D01*
X5206481Y5999385D01*
X5146481D01*
X5134776Y5997057D01*
X5129214Y5993341D01*
X5077258D01*
X5074273Y5996326D01*
X5058524Y6002850D01*
D02*
G37*
G36*
X3460993Y5913500D02*
X3439007D01*
X3417770Y5907810D01*
X3398730Y5896817D01*
X3383183Y5881270D01*
X3372190Y5862230D01*
X3366500Y5840993D01*
Y5819007D01*
X3372190Y5797770D01*
X3383183Y5778730D01*
X3398730Y5763183D01*
X3417770Y5752190D01*
X3439007Y5746500D01*
X3460993D01*
X3482230Y5752190D01*
X3501270Y5763183D01*
X3516817Y5778730D01*
X3527810Y5797770D01*
X3533500Y5819007D01*
Y5840993D01*
X3527810Y5862230D01*
X3516817Y5881270D01*
X3501270Y5896817D01*
X3482230Y5907810D01*
X3460993Y5913500D01*
D02*
G37*
G36*
X1222539Y5873710D02*
X1037539D01*
Y5688710D01*
X1222539D01*
Y5873710D01*
D02*
G37*
G36*
X7045305Y5916211D02*
X7014773D01*
X6984827Y5910254D01*
X6956619Y5898570D01*
X6931232Y5881607D01*
X6909643Y5860018D01*
X6892680Y5834631D01*
X6880996Y5806423D01*
X6875039Y5776477D01*
Y5745945D01*
X6880996Y5715999D01*
X6892680Y5687791D01*
X6909643Y5662404D01*
X6931232Y5640814D01*
X6956619Y5623852D01*
X6984827Y5612168D01*
X7014773Y5606211D01*
X7045305D01*
X7075251Y5612168D01*
X7103459Y5623852D01*
X7128846Y5640814D01*
X7150436Y5662404D01*
X7167398Y5687791D01*
X7179082Y5715999D01*
X7185039Y5745945D01*
Y5776477D01*
X7179082Y5806423D01*
X7167398Y5834631D01*
X7150436Y5860018D01*
X7128846Y5881607D01*
X7103459Y5898570D01*
X7075251Y5910254D01*
X7045305Y5916211D01*
D02*
G37*
G36*
X4508523Y5682850D02*
X4491476D01*
X4475727Y5676326D01*
X4463674Y5664272D01*
X4457150Y5648523D01*
Y5631476D01*
X4463674Y5615727D01*
X4475727Y5603674D01*
X4491476Y5597150D01*
X4508523D01*
X4524272Y5603674D01*
X4536326Y5615727D01*
X4542850Y5631476D01*
Y5648523D01*
X4536326Y5664272D01*
X4524272Y5676326D01*
X4508523Y5682850D01*
D02*
G37*
G36*
X786824Y5808711D02*
X753253D01*
X720826Y5800021D01*
X691752Y5783236D01*
X668014Y5759497D01*
X651228Y5730424D01*
X642539Y5697996D01*
Y5664425D01*
X651228Y5631998D01*
X668014Y5602924D01*
X691752Y5579185D01*
X720826Y5562400D01*
X753253Y5553711D01*
X786824D01*
X819252Y5562400D01*
X848325Y5579185D01*
X872064Y5602924D01*
X888850Y5631998D01*
X897539Y5664425D01*
Y5697996D01*
X888850Y5730424D01*
X872064Y5759497D01*
X848325Y5783236D01*
X819252Y5800021D01*
X786824Y5808711D01*
D02*
G37*
G36*
X2240993Y8423500D02*
X2219007D01*
X2197770Y8417810D01*
X2178730Y8406817D01*
X2163183Y8391270D01*
X2152191Y8372230D01*
X2146500Y8350993D01*
Y8329007D01*
X2152191Y8307770D01*
X2163183Y8288730D01*
X2170762Y8281151D01*
Y6590000D01*
X2175271Y6567330D01*
X2188112Y6548112D01*
X3318112Y5418112D01*
X3337330Y5405271D01*
X3360000Y5400762D01*
X6270000D01*
X6292669Y5405271D01*
X6311888Y5418112D01*
X6339205Y5445430D01*
X6354740Y5432680D01*
X6342680Y5414631D01*
X6330996Y5386423D01*
X6325741Y5360008D01*
X6321872Y5359238D01*
X3214537D01*
X2907972Y5665804D01*
X2904589Y5682809D01*
X2891748Y5702027D01*
X2563500Y6030275D01*
Y6040993D01*
X2557810Y6062230D01*
X2546817Y6081270D01*
X2531270Y6096817D01*
X2512230Y6107809D01*
X2490993Y6113500D01*
X2469007D01*
X2447770Y6107809D01*
X2428730Y6096817D01*
X2413183Y6081270D01*
X2402191Y6062230D01*
X2396500Y6040993D01*
Y6019007D01*
X2402191Y5997770D01*
X2413183Y5978730D01*
X2428730Y5963183D01*
X2447770Y5952190D01*
X2469007Y5946500D01*
X2479725D01*
X2791749Y5634476D01*
X2795131Y5617470D01*
X2807973Y5598252D01*
X3148112Y5258112D01*
X3167330Y5245271D01*
X3190000Y5240762D01*
X6338502D01*
X6358131Y5244666D01*
X6359643Y5242405D01*
X6381232Y5220815D01*
X6383592Y5219238D01*
X6377525Y5199238D01*
X3074537D01*
X2453500Y5820275D01*
Y5830993D01*
X2447810Y5852230D01*
X2436817Y5871270D01*
X2421270Y5886817D01*
X2402230Y5897810D01*
X2380993Y5903500D01*
X2359007D01*
X2337770Y5897810D01*
X2318730Y5886817D01*
X2303183Y5871270D01*
X2292190Y5852230D01*
X2286500Y5830993D01*
Y5809007D01*
X2292190Y5787770D01*
X2303183Y5768730D01*
X2318730Y5753183D01*
X2337770Y5742190D01*
X2359007Y5736500D01*
X2369725D01*
X3008113Y5098112D01*
X3027331Y5085271D01*
X3050000Y5080762D01*
X6407932D01*
X6411910Y5060762D01*
X6406619Y5058570D01*
X6381232Y5041608D01*
X6377195Y5037570D01*
X6368808Y5039238D01*
X2523746D01*
X2501077Y5034729D01*
X2481859Y5021888D01*
X2472947Y5012976D01*
X2470993Y5013500D01*
X2449007D01*
X2427770Y5007810D01*
X2408730Y4996817D01*
X2393183Y4981270D01*
X2382190Y4962230D01*
X2376500Y4940993D01*
Y4919007D01*
X2382190Y4897770D01*
X2393183Y4878730D01*
X2408730Y4863183D01*
X2427770Y4852190D01*
X2449007Y4846500D01*
X2470993D01*
X2492230Y4852190D01*
X2511270Y4863183D01*
X2526817Y4878730D01*
X2537810Y4897770D01*
X2542391Y4914870D01*
X2548283Y4920762D01*
X3359941D01*
X3363919Y4900762D01*
X3360957Y4899535D01*
X3348904Y4887481D01*
X3342380Y4871732D01*
Y4854685D01*
X3348904Y4838936D01*
X3360957Y4826882D01*
X3376706Y4820359D01*
X3393753D01*
X3409502Y4826882D01*
X3421556Y4838936D01*
X3428080Y4854685D01*
Y4871732D01*
X3421556Y4887481D01*
X3409502Y4899535D01*
X3406541Y4900762D01*
X3410519Y4920762D01*
X6325039D01*
Y4905945D01*
X6330996Y4875999D01*
X6342680Y4847791D01*
X6359643Y4822404D01*
X6381232Y4800815D01*
X6406619Y4783852D01*
X6434827Y4772168D01*
X6464773Y4766211D01*
X6495305D01*
X6525251Y4772168D01*
X6553459Y4783852D01*
X6578846Y4800815D01*
X6600436Y4822404D01*
X6617398Y4847791D01*
X6629082Y4875999D01*
X6635039Y4905945D01*
Y4934873D01*
X6638730Y4938016D01*
X6653870Y4944327D01*
X6695801Y4902396D01*
Y4814961D01*
X6700310Y4792292D01*
X6713151Y4773074D01*
X6900255Y4585969D01*
X6892680Y4574631D01*
X6880996Y4546423D01*
X6875039Y4516477D01*
Y4485945D01*
X6880996Y4455999D01*
X6892680Y4427791D01*
X6909643Y4402404D01*
X6931232Y4380815D01*
X6956619Y4363852D01*
X6984827Y4352168D01*
X7014773Y4346211D01*
X7045305D01*
X7075251Y4352168D01*
X7103459Y4363852D01*
X7128846Y4380815D01*
X7150436Y4402404D01*
X7167398Y4427791D01*
X7179082Y4455999D01*
X7185039Y4485945D01*
Y4516477D01*
X7179082Y4546423D01*
X7167398Y4574631D01*
X7150436Y4600018D01*
X7128846Y4621608D01*
X7103459Y4638570D01*
X7075251Y4650255D01*
X7045305Y4656211D01*
X7014773D01*
X7000419Y4653356D01*
X6814277Y4839498D01*
Y4926933D01*
X6809768Y4949602D01*
X6796926Y4968820D01*
X6583859Y5181888D01*
X6570223Y5190999D01*
X6567764Y5209120D01*
X6568853Y5214138D01*
X6578846Y5220815D01*
X6600436Y5242405D01*
X6617398Y5267791D01*
X6629082Y5296000D01*
X6635039Y5325945D01*
Y5356477D01*
X6629082Y5386423D01*
X6620290Y5407651D01*
X6637245Y5418980D01*
X6690762Y5365463D01*
Y5201250D01*
X6695271Y5178581D01*
X6708112Y5159363D01*
X6886870Y4980605D01*
X6880996Y4966423D01*
X6875039Y4936477D01*
Y4905945D01*
X6880996Y4875999D01*
X6892680Y4847791D01*
X6909643Y4822404D01*
X6931232Y4800815D01*
X6956619Y4783852D01*
X6984827Y4772168D01*
X7014773Y4766211D01*
X7045305D01*
X7075251Y4772168D01*
X7103459Y4783852D01*
X7128846Y4800815D01*
X7150436Y4822404D01*
X7167398Y4847791D01*
X7179082Y4875999D01*
X7185039Y4905945D01*
Y4936477D01*
X7179082Y4966423D01*
X7167398Y4994631D01*
X7150436Y5020018D01*
X7128846Y5041608D01*
X7103459Y5058570D01*
X7075251Y5070255D01*
X7045305Y5076211D01*
X7014773D01*
X6984827Y5070255D01*
X6970645Y5064380D01*
X6809238Y5225787D01*
Y5390000D01*
X6804729Y5412670D01*
X6791888Y5431888D01*
X6631888Y5591888D01*
X6612670Y5604729D01*
X6590000Y5609238D01*
X6567587D01*
X6561520Y5629238D01*
X6578846Y5640815D01*
X6600436Y5662404D01*
X6617398Y5687791D01*
X6629082Y5715999D01*
X6635039Y5745945D01*
Y5776477D01*
X6629082Y5806423D01*
X6617398Y5834631D01*
X6600436Y5860018D01*
X6578846Y5881608D01*
X6553459Y5898570D01*
X6525251Y5910255D01*
X6495305Y5916211D01*
X6464773D01*
X6434827Y5910255D01*
X6406619Y5898570D01*
X6381232Y5881608D01*
X6359643Y5860018D01*
X6342680Y5834631D01*
X6330996Y5806423D01*
X6325039Y5776477D01*
Y5745945D01*
X6330996Y5715999D01*
X6342680Y5687791D01*
X6359643Y5662404D01*
X6381232Y5640815D01*
X6398558Y5629238D01*
X6392491Y5609238D01*
X6360000D01*
X6337330Y5604729D01*
X6318112Y5591888D01*
X6245463Y5519238D01*
X4987542D01*
X4983564Y5539238D01*
X4994272Y5543674D01*
X5006326Y5555728D01*
X5012850Y5571477D01*
Y5588523D01*
X5006326Y5604273D01*
X5003939Y5606660D01*
X5012224Y5626660D01*
X5362742D01*
X5365727Y5623674D01*
X5381476Y5617150D01*
X5398523D01*
X5414272Y5623674D01*
X5426326Y5635728D01*
X5432850Y5651477D01*
Y5668524D01*
X5426326Y5684273D01*
X5414272Y5696326D01*
X5398523Y5702850D01*
X5381476D01*
X5365727Y5696326D01*
X5362742Y5693341D01*
X4843810D01*
X4815654Y5721497D01*
X4804837Y5728724D01*
X4792079Y5731262D01*
X4771382D01*
X4761951Y5740692D01*
X4756326Y5754272D01*
X4744272Y5766326D01*
X4728523Y5772850D01*
X4711476D01*
X4695727Y5766326D01*
X4683674Y5754272D01*
X4677150Y5738523D01*
Y5721476D01*
X4683674Y5705727D01*
X4695727Y5693674D01*
X4711476Y5687150D01*
X4721192D01*
X4733997Y5674346D01*
X4744813Y5667119D01*
X4757572Y5664581D01*
X4778269D01*
X4806424Y5636425D01*
X4817241Y5629198D01*
X4830000Y5626660D01*
X4927776D01*
X4936061Y5606660D01*
X4933674Y5604273D01*
X4927150Y5588523D01*
Y5571477D01*
X4933674Y5555728D01*
X4945727Y5543674D01*
X4956436Y5539238D01*
X4952457Y5519238D01*
X3384537D01*
X2289238Y6614537D01*
Y8281151D01*
X2296817Y8288730D01*
X2307810Y8307770D01*
X2313500Y8329007D01*
Y8350993D01*
X2307810Y8372230D01*
X2296817Y8391270D01*
X2281270Y8406817D01*
X2262230Y8417810D01*
X2240993Y8423500D01*
D02*
G37*
G36*
X7045305Y5496211D02*
X7014773D01*
X6984827Y5490254D01*
X6956619Y5478570D01*
X6931232Y5461608D01*
X6909643Y5440018D01*
X6892680Y5414631D01*
X6880996Y5386423D01*
X6875039Y5356477D01*
Y5325945D01*
X6880996Y5295999D01*
X6892680Y5267791D01*
X6909643Y5242404D01*
X6931232Y5220815D01*
X6956619Y5203852D01*
X6984827Y5192168D01*
X7014773Y5186211D01*
X7045305D01*
X7075251Y5192168D01*
X7103459Y5203852D01*
X7128846Y5220815D01*
X7150436Y5242404D01*
X7167398Y5267791D01*
X7179082Y5295999D01*
X7185039Y5325945D01*
Y5356477D01*
X7179082Y5386423D01*
X7167398Y5414631D01*
X7150436Y5440018D01*
X7128846Y5461608D01*
X7103459Y5478570D01*
X7075251Y5490254D01*
X7045305Y5496211D01*
D02*
G37*
G36*
X1803234Y5289885D02*
X1778879D01*
X1755353Y5283581D01*
X1734260Y5271403D01*
X1717038Y5254181D01*
X1704860Y5233089D01*
X1698557Y5209563D01*
Y5185207D01*
X1704860Y5161682D01*
X1717038Y5140589D01*
X1734260Y5123367D01*
X1755353Y5111189D01*
X1778879Y5104885D01*
X1803234D01*
X1826760Y5111189D01*
X1847853Y5123367D01*
X1865075Y5140589D01*
X1877253Y5161682D01*
X1883557Y5185207D01*
Y5209563D01*
X1877253Y5233089D01*
X1865075Y5254181D01*
X1847853Y5271403D01*
X1826760Y5283581D01*
X1803234Y5289885D01*
D02*
G37*
G36*
X1087842Y5274885D02*
X1054271D01*
X1021844Y5266196D01*
X992770Y5249410D01*
X969032Y5225672D01*
X952246Y5196598D01*
X943557Y5164171D01*
Y5130600D01*
X952246Y5098172D01*
X969032Y5069099D01*
X992770Y5045360D01*
X1021844Y5028574D01*
X1054271Y5019885D01*
X1087842D01*
X1120270Y5028574D01*
X1149343Y5045360D01*
X1173082Y5069099D01*
X1189868Y5098172D01*
X1198557Y5130600D01*
Y5164171D01*
X1189868Y5196598D01*
X1173082Y5225672D01*
X1149343Y5249410D01*
X1120270Y5266196D01*
X1087842Y5274885D01*
D02*
G37*
G36*
X787842D02*
X754271D01*
X721844Y5266196D01*
X692770Y5249410D01*
X669031Y5225672D01*
X652246Y5196598D01*
X643557Y5164171D01*
Y5130600D01*
X652246Y5098172D01*
X669031Y5069099D01*
X692770Y5045360D01*
X721844Y5028574D01*
X754271Y5019885D01*
X787842D01*
X820270Y5028574D01*
X849343Y5045360D01*
X873082Y5069099D01*
X889867Y5098172D01*
X898556Y5130600D01*
Y5164171D01*
X889867Y5196598D01*
X873082Y5225672D01*
X849343Y5249410D01*
X820270Y5266196D01*
X787842Y5274885D01*
D02*
G37*
G36*
X5238523Y4882850D02*
X5221476D01*
X5205727Y4876326D01*
X5193674Y4864272D01*
X5187150Y4848523D01*
Y4831476D01*
X5193674Y4815727D01*
X5205727Y4803674D01*
X5221476Y4797150D01*
X5238523D01*
X5254272Y4803674D01*
X5266326Y4815727D01*
X5272850Y4831476D01*
Y4848523D01*
X5266326Y4864272D01*
X5254272Y4876326D01*
X5238523Y4882850D01*
D02*
G37*
G36*
X3308523Y4732850D02*
X3291477D01*
X3275728Y4726326D01*
X3263674Y4714273D01*
X3257150Y4698523D01*
Y4681477D01*
X3263674Y4665728D01*
X3275728Y4653674D01*
X3291477Y4647150D01*
X3308523D01*
X3324272Y4653674D01*
X3336326Y4665728D01*
X3342850Y4681477D01*
Y4698523D01*
X3336326Y4714273D01*
X3324272Y4726326D01*
X3308523Y4732850D01*
D02*
G37*
G36*
X6198524Y4712850D02*
X6181477D01*
X6165728Y4706326D01*
X6162742Y4703341D01*
X5770000D01*
X5757241Y4700803D01*
X5746425Y4693575D01*
X5655699Y4602850D01*
X5651477D01*
X5635728Y4596326D01*
X5623674Y4584273D01*
X5617150Y4568524D01*
Y4551477D01*
X5623674Y4535728D01*
X5635728Y4523674D01*
X5651477Y4517150D01*
X5668524D01*
X5684273Y4523674D01*
X5696326Y4535728D01*
X5702850Y4551477D01*
Y4555699D01*
X5783810Y4636660D01*
X6162742D01*
X6165728Y4633674D01*
X6181477Y4627150D01*
X6198524D01*
X6214273Y4633674D01*
X6226326Y4645728D01*
X6232850Y4661477D01*
Y4678524D01*
X6226326Y4694273D01*
X6214273Y4706326D01*
X6198524Y4712850D01*
D02*
G37*
G36*
X3338523Y4532850D02*
X3321476D01*
X3305727Y4526326D01*
X3293674Y4514272D01*
X3287150Y4498523D01*
Y4481476D01*
X3293674Y4465727D01*
X3305727Y4453674D01*
X3321476Y4447150D01*
X3338523D01*
X3354272Y4453674D01*
X3366326Y4465727D01*
X3372850Y4481476D01*
Y4498523D01*
X3366326Y4514272D01*
X3354272Y4526326D01*
X3338523Y4532850D01*
D02*
G37*
G36*
X1223557Y4539885D02*
X1038557D01*
Y4354885D01*
X1223557D01*
Y4539885D01*
D02*
G37*
G36*
X2280993Y10553500D02*
X2259007D01*
X2237770Y10547809D01*
X2218730Y10536817D01*
X2203183Y10521270D01*
X2192190Y10502230D01*
X2186500Y10480993D01*
Y10470275D01*
X1968112Y10251888D01*
X1955271Y10232669D01*
X1950762Y10210000D01*
Y5020000D01*
X1955271Y4997331D01*
X1968112Y4978112D01*
X3158113Y3788112D01*
X3177331Y3775271D01*
X3200000Y3770762D01*
X5156629D01*
X5164475Y3763134D01*
X5170713Y3752501D01*
X5169696Y3750046D01*
Y3732999D01*
X5176220Y3717250D01*
X5188274Y3705197D01*
X5204023Y3698673D01*
X5221070D01*
X5236819Y3705197D01*
X5248872Y3717250D01*
X5255396Y3732999D01*
Y3750046D01*
X5248872Y3765795D01*
X5236819Y3777849D01*
X5224862Y3782802D01*
X5219333Y3796259D01*
X5218148Y3804373D01*
X5727150Y4313375D01*
X5747150Y4305090D01*
Y4301477D01*
X5753674Y4285728D01*
X5756660Y4282742D01*
Y4153810D01*
X4876190Y3273341D01*
X3767258D01*
X3764272Y3276326D01*
X3748523Y3282850D01*
X3731476D01*
X3715727Y3276326D01*
X3703674Y3264273D01*
X3697150Y3248524D01*
Y3231477D01*
X3703674Y3215728D01*
X3715727Y3203674D01*
X3731476Y3197150D01*
X3748523D01*
X3764272Y3203674D01*
X3767258Y3206660D01*
X4890000D01*
X4902759Y3209198D01*
X4913575Y3216425D01*
X5813575Y4116425D01*
X5820803Y4127241D01*
X5823341Y4140000D01*
Y4282742D01*
X5826326Y4285728D01*
X5832850Y4301477D01*
Y4318523D01*
X5826326Y4334273D01*
X5814273Y4346326D01*
X5798524Y4352850D01*
X5794910D01*
X5786625Y4372850D01*
X5834838Y4421063D01*
X5851793Y4409734D01*
X5847150Y4398524D01*
Y4381477D01*
X5853674Y4365728D01*
X5856659Y4362742D01*
Y3426712D01*
X5855727Y3426326D01*
X5843674Y3414273D01*
X5837150Y3398524D01*
Y3381477D01*
X5843674Y3365728D01*
X5855727Y3353674D01*
X5871476Y3347150D01*
X5888523D01*
X5904272Y3353674D01*
X5916326Y3365728D01*
X5922850Y3381477D01*
Y3398524D01*
X5921054Y3402859D01*
X5923340Y3414354D01*
Y4362742D01*
X5926326Y4365728D01*
X5932850Y4381477D01*
Y4398524D01*
X5926326Y4414273D01*
X5918626Y4421973D01*
X5924782Y4441973D01*
X6336806D01*
X6342680Y4427791D01*
X6359643Y4402404D01*
X6381232Y4380815D01*
X6406619Y4363852D01*
X6434827Y4352168D01*
X6464773Y4346211D01*
X6495305D01*
X6525251Y4352168D01*
X6553459Y4363852D01*
X6578846Y4380815D01*
X6600436Y4402404D01*
X6617398Y4427791D01*
X6629082Y4455999D01*
X6635039Y4485945D01*
Y4516477D01*
X6629082Y4546423D01*
X6617398Y4574631D01*
X6600436Y4600018D01*
X6578846Y4621608D01*
X6553459Y4638570D01*
X6525251Y4650255D01*
X6495305Y4656211D01*
X6464773D01*
X6434827Y4650255D01*
X6406619Y4638570D01*
X6381232Y4621608D01*
X6359643Y4600018D01*
X6342680Y4574631D01*
X6336806Y4560449D01*
X5831211D01*
X5808542Y4555940D01*
X5789324Y4543099D01*
X5135463Y3889238D01*
X3427706D01*
X3419837Y3909238D01*
X3426326Y3915727D01*
X3432850Y3931477D01*
Y3948523D01*
X3426326Y3964272D01*
X3414273Y3976326D01*
X3398524Y3982850D01*
X3381477D01*
X3365728Y3976326D01*
X3353674Y3964272D01*
X3347150Y3948523D01*
Y3931477D01*
X3353674Y3915727D01*
X3360163Y3909238D01*
X3352294Y3889238D01*
X3224537D01*
X2069238Y5044537D01*
Y10185463D01*
X2270275Y10386500D01*
X2280993D01*
X2302230Y10392190D01*
X2321270Y10403183D01*
X2336817Y10418730D01*
X2347810Y10437770D01*
X2353500Y10459007D01*
Y10480993D01*
X2347810Y10502230D01*
X2336817Y10521270D01*
X2321270Y10536817D01*
X2302230Y10547809D01*
X2280993Y10553500D01*
D02*
G37*
G36*
X3288524Y4122850D02*
X3271477D01*
X3255728Y4116326D01*
X3243674Y4104272D01*
X3237150Y4088523D01*
Y4071476D01*
X3243674Y4055727D01*
X3255728Y4043674D01*
X3271477Y4037150D01*
X3288524D01*
X3304273Y4043674D01*
X3316326Y4055727D01*
X3322850Y4071476D01*
Y4088523D01*
X3316326Y4104272D01*
X3304273Y4116326D01*
X3288524Y4122850D01*
D02*
G37*
G36*
X4258523Y4712850D02*
X4241476D01*
X4225727Y4706326D01*
X4213674Y4694273D01*
X4207150Y4678524D01*
Y4661477D01*
X4213674Y4645728D01*
X4216659Y4642742D01*
Y4040000D01*
X4219197Y4027241D01*
X4226425Y4016425D01*
X4237150Y4005699D01*
Y4001477D01*
X4243674Y3985728D01*
X4255728Y3973674D01*
X4271477Y3967150D01*
X4288524D01*
X4304273Y3973674D01*
X4316326Y3985728D01*
X4322850Y4001477D01*
Y4018524D01*
X4316326Y4034273D01*
X4304273Y4046326D01*
X4288524Y4052850D01*
X4284301D01*
X4283340Y4053810D01*
Y4642742D01*
X4286326Y4645728D01*
X4292850Y4661477D01*
Y4678524D01*
X4286326Y4694273D01*
X4274272Y4706326D01*
X4258523Y4712850D01*
D02*
G37*
G36*
X4148524Y4782850D02*
X4131477D01*
X4115728Y4776326D01*
X4103674Y4764272D01*
X4097150Y4748523D01*
Y4731476D01*
X4103674Y4715727D01*
X4106660Y4712742D01*
Y4014354D01*
X4108946Y4002859D01*
X4107150Y3998523D01*
Y3981476D01*
X4113674Y3965727D01*
X4125728Y3953674D01*
X4141477Y3947150D01*
X4158524D01*
X4174273Y3953674D01*
X4186326Y3965727D01*
X4192850Y3981476D01*
Y3998523D01*
X4186326Y4014272D01*
X4174273Y4026326D01*
X4173341Y4026712D01*
Y4712742D01*
X4176326Y4715727D01*
X4182850Y4731476D01*
Y4748523D01*
X4176326Y4764272D01*
X4164273Y4776326D01*
X4148524Y4782850D01*
D02*
G37*
G36*
X6495305Y4236211D02*
X6464773D01*
X6434827Y4230255D01*
X6406619Y4218570D01*
X6381232Y4201608D01*
X6359643Y4180018D01*
X6342680Y4154631D01*
X6330996Y4126423D01*
X6325039Y4096477D01*
Y4065945D01*
X6330996Y4036000D01*
X6342680Y4007791D01*
X6359643Y3982405D01*
X6381232Y3960815D01*
X6406619Y3943852D01*
X6434827Y3932168D01*
X6464773Y3926211D01*
X6495305D01*
X6525251Y3932168D01*
X6553459Y3943852D01*
X6578846Y3960815D01*
X6600436Y3982405D01*
X6617398Y4007791D01*
X6629082Y4036000D01*
X6635039Y4065945D01*
Y4096477D01*
X6629082Y4126423D01*
X6617398Y4154631D01*
X6600436Y4180018D01*
X6578846Y4201608D01*
X6553459Y4218570D01*
X6525251Y4230255D01*
X6495305Y4236211D01*
D02*
G37*
G36*
X1802217Y3954930D02*
X1777861D01*
X1754336Y3948626D01*
X1733243Y3936449D01*
X1716021Y3919226D01*
X1703843Y3898134D01*
X1697539Y3874608D01*
Y3850252D01*
X1703843Y3826727D01*
X1716021Y3805634D01*
X1733243Y3788412D01*
X1754336Y3776234D01*
X1777861Y3769930D01*
X1802217D01*
X1825743Y3776234D01*
X1846835Y3788412D01*
X1864057Y3805634D01*
X1876235Y3826727D01*
X1882539Y3850252D01*
Y3874608D01*
X1876235Y3898134D01*
X1864057Y3919226D01*
X1846835Y3936449D01*
X1825743Y3948626D01*
X1802217Y3954930D01*
D02*
G37*
G36*
X787842Y4474885D02*
X754271D01*
X721844Y4466196D01*
X692770Y4449410D01*
X669031Y4425672D01*
X652246Y4396598D01*
X643557Y4364171D01*
Y4330600D01*
X652246Y4298172D01*
X669031Y4269099D01*
X692770Y4245360D01*
X721844Y4228574D01*
X754271Y4219885D01*
X787842D01*
X809088Y4225578D01*
X987414Y4047253D01*
Y3910117D01*
X968014Y3890717D01*
X951228Y3861643D01*
X942539Y3829216D01*
Y3795645D01*
X951228Y3763217D01*
X968014Y3734144D01*
X991753Y3710405D01*
X1020826Y3693619D01*
X1053254Y3684930D01*
X1086825D01*
X1119252Y3693619D01*
X1148326Y3710405D01*
X1172064Y3734144D01*
X1188850Y3763217D01*
X1197539Y3795645D01*
Y3829216D01*
X1188850Y3861643D01*
X1172064Y3890717D01*
X1148326Y3914455D01*
X1119252Y3931241D01*
X1105890Y3934821D01*
Y4071790D01*
X1101381Y4094459D01*
X1088540Y4113677D01*
X892864Y4309354D01*
X898556Y4330600D01*
Y4364171D01*
X889867Y4396598D01*
X873082Y4425672D01*
X849343Y4449410D01*
X820270Y4466196D01*
X787842Y4474885D01*
D02*
G37*
G36*
X7045305Y3816211D02*
X7014773D01*
X6984827Y3810255D01*
X6956619Y3798571D01*
X6931232Y3781608D01*
X6909643Y3760018D01*
X6892680Y3734631D01*
X6880996Y3706423D01*
X6875039Y3676478D01*
Y3645945D01*
X6880996Y3616000D01*
X6892680Y3587791D01*
X6909643Y3562405D01*
X6931232Y3540815D01*
X6956619Y3523852D01*
X6984827Y3512168D01*
X7014773Y3506211D01*
X7045305D01*
X7075251Y3512168D01*
X7103459Y3523852D01*
X7128846Y3540815D01*
X7150436Y3562405D01*
X7167398Y3587791D01*
X7179082Y3616000D01*
X7185039Y3645945D01*
Y3676478D01*
X7179082Y3706423D01*
X7167398Y3734631D01*
X7150436Y3760018D01*
X7128846Y3781608D01*
X7103459Y3798571D01*
X7075251Y3810255D01*
X7045305Y3816211D01*
D02*
G37*
G36*
X6495305Y3816211D02*
X6464773D01*
X6434827Y3810255D01*
X6406619Y3798570D01*
X6381232Y3781608D01*
X6359643Y3760018D01*
X6342680Y3734631D01*
X6330996Y3706423D01*
X6325039Y3676477D01*
Y3645945D01*
X6330996Y3615999D01*
X6342680Y3587791D01*
X6359643Y3562404D01*
X6381232Y3540815D01*
X6406619Y3523852D01*
X6434827Y3512168D01*
X6464773Y3506211D01*
X6495305D01*
X6525251Y3512168D01*
X6553459Y3523852D01*
X6578846Y3540815D01*
X6600436Y3562404D01*
X6617398Y3587791D01*
X6629082Y3615999D01*
X6635039Y3645945D01*
Y3676477D01*
X6629082Y3706423D01*
X6617398Y3734631D01*
X6600436Y3760018D01*
X6578846Y3781608D01*
X6553459Y3798570D01*
X6525251Y3810255D01*
X6495305Y3816211D01*
D02*
G37*
G36*
X3278524Y3542850D02*
X3261477D01*
X3245728Y3536326D01*
X3233674Y3524272D01*
X3227150Y3508523D01*
Y3491476D01*
X3233674Y3475727D01*
X3245728Y3463674D01*
X3261477Y3457150D01*
X3278524D01*
X3294273Y3463674D01*
X3306326Y3475727D01*
X3312850Y3491476D01*
Y3508523D01*
X3306326Y3524272D01*
X3294273Y3536326D01*
X3278524Y3542850D01*
D02*
G37*
G36*
X3418524Y3372850D02*
X3401477D01*
X3385728Y3366326D01*
X3373674Y3354272D01*
X3367150Y3338523D01*
Y3321476D01*
X3373674Y3305727D01*
X3385728Y3293674D01*
X3401477Y3287150D01*
X3418524D01*
X3434273Y3293674D01*
X3446326Y3305727D01*
X3452850Y3321476D01*
Y3338523D01*
X3446326Y3354272D01*
X3434273Y3366326D01*
X3418524Y3372850D01*
D02*
G37*
G36*
X5068524Y3262850D02*
X5051477D01*
X5035728Y3256326D01*
X5023674Y3244272D01*
X5017150Y3228523D01*
Y3211476D01*
X5023674Y3195727D01*
X5035728Y3183674D01*
X5051477Y3177150D01*
X5068524D01*
X5084273Y3183674D01*
X5096326Y3195727D01*
X5102850Y3211476D01*
Y3228523D01*
X5096326Y3244272D01*
X5084273Y3256326D01*
X5068524Y3262850D01*
D02*
G37*
G36*
X1222539Y3204930D02*
X1037539D01*
Y3019930D01*
X1222539D01*
Y3204930D01*
D02*
G37*
G36*
X789208Y3158030D02*
X750870D01*
X713840Y3148108D01*
X680639Y3128939D01*
X653530Y3101831D01*
X634362Y3068630D01*
X624439Y3031599D01*
Y2993262D01*
X634362Y2956231D01*
X653530Y2923030D01*
X680639Y2895922D01*
X713840Y2876753D01*
X750870Y2866830D01*
X789208D01*
X826239Y2876753D01*
X859439Y2895922D01*
X886548Y2923030D01*
X905717Y2956231D01*
X915639Y2993262D01*
Y3031599D01*
X905717Y3068630D01*
X886548Y3101831D01*
X859439Y3128939D01*
X826239Y3148108D01*
X789208Y3158030D01*
D02*
G37*
G36*
X7045305Y2976211D02*
X7014773D01*
X6984827Y2970255D01*
X6956619Y2958571D01*
X6931232Y2941608D01*
X6909643Y2920018D01*
X6892680Y2894631D01*
X6880996Y2866423D01*
X6875039Y2836478D01*
Y2805945D01*
X6880996Y2776000D01*
X6892680Y2747792D01*
X6909643Y2722405D01*
X6931232Y2700815D01*
X6956619Y2683852D01*
X6984827Y2672168D01*
X7014773Y2666212D01*
X7045305D01*
X7075251Y2672168D01*
X7103459Y2683852D01*
X7128846Y2700815D01*
X7150436Y2722405D01*
X7167398Y2747792D01*
X7179082Y2776000D01*
X7185039Y2805945D01*
Y2836478D01*
X7179082Y2866423D01*
X7167398Y2894631D01*
X7150436Y2920018D01*
X7128846Y2941608D01*
X7103459Y2958571D01*
X7075251Y2970255D01*
X7045305Y2976211D01*
D02*
G37*
G36*
X1320993Y2693500D02*
X1299007D01*
X1277770Y2687810D01*
X1258730Y2676817D01*
X1243183Y2661270D01*
X1232190Y2642230D01*
X1226500Y2620993D01*
Y2599007D01*
X1232190Y2577770D01*
X1243183Y2558730D01*
X1258730Y2543183D01*
X1277770Y2532191D01*
X1299007Y2526500D01*
X1320993D01*
X1342230Y2532191D01*
X1361270Y2543183D01*
X1376817Y2558730D01*
X1387810Y2577770D01*
X1393500Y2599007D01*
Y2620993D01*
X1387810Y2642230D01*
X1376817Y2661270D01*
X1361270Y2676817D01*
X1342230Y2687810D01*
X1320993Y2693500D01*
D02*
G37*
G36*
X7190439Y1968511D02*
X7042739D01*
Y1820812D01*
X7045837D01*
X7076826Y1826976D01*
X7106017Y1839067D01*
X7132288Y1856621D01*
X7154630Y1878962D01*
X7172184Y1905234D01*
X7184275Y1934425D01*
X7190439Y1965414D01*
Y1968511D01*
D02*
G37*
G36*
X7017339D02*
X6869639D01*
Y1965414D01*
X6875803Y1934425D01*
X6887894Y1905234D01*
X6905448Y1878962D01*
X6927790Y1856621D01*
X6954061Y1839067D01*
X6983252Y1826976D01*
X7014241Y1820812D01*
X7017339D01*
Y1968511D01*
D02*
G37*
G36*
X7045837Y1721612D02*
X7042739D01*
Y1573912D01*
X7190439D01*
Y1577010D01*
X7184275Y1607999D01*
X7172184Y1637190D01*
X7154630Y1663461D01*
X7132288Y1685803D01*
X7106017Y1703357D01*
X7076826Y1715448D01*
X7045837Y1721612D01*
D02*
G37*
G36*
X7017339D02*
X7014241D01*
X6983252Y1715448D01*
X6954061Y1703357D01*
X6927790Y1685803D01*
X6905448Y1663461D01*
X6887894Y1637190D01*
X6875803Y1607999D01*
X6869639Y1577010D01*
Y1573912D01*
X7017339D01*
Y1721612D01*
D02*
G37*
G36*
X5132468Y1603427D02*
X5115421D01*
X5099672Y1596903D01*
X5087618Y1584850D01*
X5081094Y1569100D01*
Y1552054D01*
X5087618Y1536305D01*
X5099672Y1524251D01*
X5115421Y1517727D01*
X5132468D01*
X5148217Y1524251D01*
X5160271Y1536305D01*
X5166794Y1552054D01*
Y1569100D01*
X5160271Y1584850D01*
X5148217Y1596903D01*
X5132468Y1603427D01*
D02*
G37*
G36*
X6495305Y1716211D02*
X6464773D01*
X6434827Y1710255D01*
X6406619Y1698570D01*
X6381232Y1681608D01*
X6359643Y1660018D01*
X6342680Y1634631D01*
X6330996Y1606423D01*
X6325039Y1576477D01*
Y1545945D01*
X6330996Y1516000D01*
X6342680Y1487791D01*
X6359643Y1462404D01*
X6381232Y1440815D01*
X6406619Y1423852D01*
X6434827Y1412168D01*
X6464773Y1406211D01*
X6495305D01*
X6525251Y1412168D01*
X6553459Y1423852D01*
X6578846Y1440815D01*
X6600436Y1462404D01*
X6617398Y1487791D01*
X6629082Y1516000D01*
X6635039Y1545945D01*
Y1576477D01*
X6629082Y1606423D01*
X6617398Y1634631D01*
X6600436Y1660018D01*
X6578846Y1681608D01*
X6553459Y1698570D01*
X6525251Y1710255D01*
X6495305Y1716211D01*
D02*
G37*
G36*
X7190439Y1548512D02*
X7042739D01*
Y1400812D01*
X7045837D01*
X7076826Y1406976D01*
X7106017Y1419067D01*
X7132288Y1436621D01*
X7154630Y1458963D01*
X7172184Y1485234D01*
X7184275Y1514425D01*
X7190439Y1545414D01*
Y1548512D01*
D02*
G37*
G36*
X7017339D02*
X6869639D01*
Y1545414D01*
X6875803Y1514425D01*
X6887894Y1485234D01*
X6905448Y1458963D01*
X6927790Y1436621D01*
X6954061Y1419067D01*
X6983252Y1406976D01*
X7014241Y1400812D01*
X7017339D01*
Y1548512D01*
D02*
G37*
G36*
X7776783Y1731210D02*
X7743296D01*
X7710452Y1724677D01*
X7679514Y1711862D01*
X7651670Y1693258D01*
X7627992Y1669579D01*
X7609387Y1641735D01*
X7596572Y1610797D01*
X7590039Y1577954D01*
Y1544467D01*
X7596572Y1511623D01*
X7609387Y1480685D01*
X7627992Y1452842D01*
X7651670Y1429163D01*
X7679514Y1410558D01*
X7710452Y1397743D01*
X7743296Y1391210D01*
X7776783D01*
X7809626Y1397743D01*
X7840564Y1410558D01*
X7868408Y1429163D01*
X7892087Y1452842D01*
X7910691Y1480685D01*
X7923506Y1511623D01*
X7930039Y1544467D01*
Y1577954D01*
X7923506Y1610797D01*
X7910691Y1641735D01*
X7892087Y1669579D01*
X7868408Y1693258D01*
X7840564Y1711862D01*
X7809626Y1724677D01*
X7776783Y1731210D01*
D02*
G37*
G36*
X4638523Y1882850D02*
X4621476D01*
X4605727Y1876326D01*
X4593674Y1864272D01*
X4587150Y1848523D01*
Y1831476D01*
X4593674Y1815727D01*
X4596659Y1812742D01*
Y1243932D01*
X4599197Y1231173D01*
X4606425Y1220357D01*
X4626120Y1200662D01*
Y1190946D01*
X4632643Y1175197D01*
X4644697Y1163143D01*
X4660446Y1156619D01*
X4677493D01*
X4693242Y1163143D01*
X4705296Y1175197D01*
X4711819Y1190946D01*
Y1207993D01*
X4705296Y1223742D01*
X4693242Y1235796D01*
X4679662Y1241421D01*
X4663340Y1257742D01*
Y1812742D01*
X4666326Y1815727D01*
X4672850Y1831476D01*
Y1848523D01*
X4666326Y1864272D01*
X4654272Y1876326D01*
X4638523Y1882850D01*
D02*
G37*
G36*
X4490993Y993500D02*
X4469007D01*
X4447770Y987810D01*
X4428730Y976817D01*
X4413183Y961270D01*
X4402190Y942230D01*
X4396500Y920993D01*
Y899007D01*
X4402190Y877770D01*
X4413183Y858730D01*
X4428730Y843183D01*
X4447770Y832190D01*
X4469007Y826500D01*
X4490993D01*
X4512229Y832190D01*
X4531270Y843183D01*
X4546816Y858730D01*
X4557809Y877770D01*
X4563500Y899007D01*
Y920993D01*
X4557809Y942230D01*
X4546816Y961270D01*
X4531270Y976817D01*
X4512229Y987810D01*
X4490993Y993500D01*
D02*
G37*
G36*
X2650993Y893500D02*
X2629007D01*
X2607770Y887809D01*
X2588730Y876816D01*
X2573183Y861270D01*
X2562190Y842229D01*
X2556500Y820993D01*
Y799007D01*
X2562190Y777770D01*
X2573183Y758729D01*
X2588730Y743183D01*
X2607770Y732190D01*
X2629007Y726500D01*
X2650993D01*
X2672230Y732190D01*
X2691270Y743183D01*
X2706817Y758729D01*
X2717810Y777770D01*
X2723500Y799007D01*
Y820993D01*
X2717810Y842229D01*
X2706817Y861270D01*
X2691270Y876816D01*
X2672230Y887809D01*
X2650993Y893500D01*
D02*
G37*
G36*
X4650993Y853500D02*
X4629007D01*
X4607770Y847810D01*
X4588730Y836817D01*
X4573183Y821270D01*
X4562191Y802230D01*
X4556500Y780993D01*
Y759007D01*
X4562191Y737770D01*
X4573183Y718730D01*
X4588730Y703183D01*
X4607770Y692190D01*
X4629007Y686500D01*
X4650993D01*
X4672230Y692190D01*
X4691270Y703183D01*
X4706817Y718730D01*
X4717810Y737770D01*
X4723500Y759007D01*
Y780993D01*
X4717810Y802230D01*
X4706817Y821270D01*
X4691270Y836817D01*
X4672230Y847810D01*
X4650993Y853500D01*
D02*
G37*
G36*
X2550993Y683500D02*
X2529007D01*
X2507770Y677810D01*
X2488730Y666817D01*
X2473183Y651270D01*
X2462190Y632230D01*
X2456500Y610993D01*
Y589007D01*
X2462190Y567770D01*
X2473183Y548730D01*
X2488730Y533183D01*
X2507770Y522190D01*
X2529007Y516500D01*
X2550993D01*
X2572230Y522190D01*
X2591270Y533183D01*
X2606817Y548730D01*
X2617810Y567770D01*
X2623500Y589007D01*
Y610993D01*
X2617810Y632230D01*
X2606817Y651270D01*
X2591270Y666817D01*
X2572230Y677810D01*
X2550993Y683500D01*
D02*
G37*
G36*
X3408524Y1932850D02*
X3391477D01*
X3375728Y1926326D01*
X3363674Y1914273D01*
X3357150Y1898524D01*
Y1894301D01*
X2906425Y1443575D01*
X2899197Y1432759D01*
X2896659Y1420000D01*
Y902747D01*
X2899197Y889988D01*
X2906425Y879171D01*
X2906659Y878937D01*
Y397258D01*
X2903674Y394273D01*
X2897150Y378523D01*
Y361477D01*
X2903674Y345728D01*
X2915727Y333674D01*
X2931476Y327150D01*
X2948523D01*
X2964272Y333674D01*
X2976326Y345728D01*
X2982850Y361477D01*
Y378523D01*
X2976326Y394273D01*
X2973341Y397258D01*
Y892747D01*
X2970803Y905505D01*
X2963575Y916322D01*
X2963341Y916557D01*
Y1406190D01*
X3404301Y1847150D01*
X3408524D01*
X3424273Y1853674D01*
X3436326Y1865728D01*
X3442850Y1881477D01*
Y1898524D01*
X3436326Y1914273D01*
X3424273Y1926326D01*
X3408524Y1932850D01*
D02*
G37*
%LPD*%
G36*
X6876814Y2425399D02*
X6875039Y2416478D01*
Y2385945D01*
X6880996Y2356000D01*
X6892680Y2327792D01*
X6909643Y2302405D01*
X6931232Y2280815D01*
X6948559Y2269238D01*
X6942492Y2249238D01*
X6596377D01*
X6592866Y2269238D01*
X6614495Y2290866D01*
X6633438Y2319218D01*
X6646487Y2350720D01*
X6653139Y2384162D01*
Y2418260D01*
X6646487Y2451702D01*
X6633438Y2483205D01*
X6614495Y2511556D01*
X6590384Y2535667D01*
X6582758Y2540762D01*
X6588825Y2560762D01*
X6741451D01*
X6876814Y2425399D01*
D02*
G37*
D16*
X5326481Y5928797D02*
D03*
X5176481D02*
D03*
D21*
X4714606Y6191210D02*
D03*
X4409411Y6849405D02*
D03*
X4880004Y6191210D02*
D03*
X4244012Y6849405D02*
D03*
D30*
X5890047Y6577576D02*
D03*
X5370047Y6577578D02*
D03*
X5630046Y6577577D02*
D03*
X4890039Y6683078D02*
D03*
X4231845Y6371783D02*
D03*
X5630046Y6742976D02*
D03*
X5890047Y6742975D02*
D03*
X5370047Y6742977D02*
D03*
X4890039Y6848476D02*
D03*
X4231845Y6206384D02*
D03*
D40*
X5537600Y7007292D02*
D03*
X5382384D02*
D03*
D49*
X3716053Y7534661D02*
X4045339D01*
X4670000Y6720000D02*
Y6910000D01*
X4045339Y7534661D02*
X4670000Y6910000D01*
X5600000Y7610000D02*
X5800000D01*
X5850000Y7560000D01*
X5150000Y8240000D02*
X5990829D01*
X4500000Y7590000D02*
X5150000Y8240000D01*
X4500000Y7520000D02*
Y7590000D01*
X4590909Y7380000D02*
Y7500909D01*
X5200000Y8110000D02*
X6134829D01*
X4590909Y7500909D02*
X5200000Y8110000D01*
X4730000Y7250000D02*
X5330000Y7850000D01*
X6422829D01*
X4710000Y7430000D02*
X5260000Y7980000D01*
X6310000D02*
X7120000Y8790000D01*
X5260000Y7980000D02*
X6310000D01*
X6134829Y8110000D02*
X7112340Y9087511D01*
X5990829Y8240000D02*
X7120829Y9370000D01*
X6422829Y7850000D02*
X7132829Y8560000D01*
X4620539Y8785210D02*
X4714539Y8691210D01*
X5450039D01*
X2940000Y370000D02*
Y892747D01*
X2930000Y902747D02*
X2940000Y892747D01*
X2930000Y902747D02*
Y1420000D01*
X3400000Y1890000D01*
X4830000Y5660000D02*
X5390000D01*
X4792079Y5697921D02*
X4830000Y5660000D01*
X4725493Y5730000D02*
X4757572Y5697921D01*
X4720000Y5730000D02*
X4725493D01*
X4757572Y5697921D02*
X4792079D01*
X4856053Y7254661D02*
X4974661D01*
X5440000Y7720000D01*
X4090000Y7680000D02*
X4743650Y7026350D01*
X4733884Y6654895D02*
Y6679727D01*
X4730000Y6651011D02*
X4733884Y6654895D01*
Y6679727D02*
X4743650Y6689493D01*
X4457135Y5837135D02*
X4596350Y5976350D01*
Y6830000D01*
X4743650Y6689493D02*
Y7026350D01*
X4144611Y7185388D02*
X4250938Y7079062D01*
Y7073219D02*
Y7079062D01*
Y7073219D02*
X4361150Y6963007D01*
X3694612Y7185388D02*
X4144611D01*
X4361150Y6960961D02*
Y6963007D01*
X3030000Y5980000D02*
X4240000D01*
X4380000Y6120000D01*
X2960000Y6050000D02*
X3030000Y5980000D01*
X3770000Y7680000D02*
X4090000D01*
X3520000Y7360000D02*
X3694612Y7185388D01*
X3740000Y3240000D02*
X4890000D01*
X5790000Y4140000D01*
X5280000Y6850000D02*
X5500000D01*
X4630000Y1243932D02*
Y1840000D01*
X5790000Y4140000D02*
Y4310000D01*
X4630000Y1243932D02*
X4668969Y1204963D01*
X5890000Y3414354D02*
Y4390000D01*
X5880000Y3390000D02*
X5883884Y3393884D01*
Y3408239D01*
X5890000Y3414354D01*
X4668969Y1199469D02*
Y1204963D01*
X5770000Y4670000D02*
X6190000D01*
X5660000Y4560000D02*
X5770000Y4670000D01*
X5000000Y6320000D02*
Y6380000D01*
Y6320000D02*
X5317982Y6002018D01*
Y5937296D02*
X5326481Y5928797D01*
X5317982Y5937296D02*
Y6002018D01*
X5060000Y7070000D02*
X5600000Y7610000D01*
X5060000Y6657555D02*
Y7070000D01*
X4904613Y6502168D02*
X5060000Y6657555D01*
X5270000Y6730000D02*
X5350000D01*
X4146116Y3993884D02*
Y4008238D01*
X4140000Y4014354D02*
X4146116Y4008238D01*
X4140000Y4014354D02*
Y4740000D01*
X4146116Y3993884D02*
X4150000Y3990000D01*
X4500000Y6070000D02*
Y6730000D01*
X4530000Y6760000D02*
Y6910000D01*
X4500000Y6730000D02*
X4530000Y6760000D01*
X4160000Y5730000D02*
X4500000Y6070000D01*
X3372479Y7107520D02*
X3720000Y6760000D01*
X3282133Y7107520D02*
X3372479D01*
X2910000Y7479654D02*
X3282133Y7107520D01*
X2910000Y7479654D02*
Y9570000D01*
X7112489Y9087511D02*
X7120000Y9080000D01*
X7112340Y9087511D02*
X7112489D01*
X3870000Y6600000D02*
X4120000Y6350000D01*
X3550000Y6600000D02*
X3870000D01*
X2900000Y7250000D02*
X3550000Y6600000D01*
X5440000Y7720000D02*
X6610000D01*
X7130000Y8240000D01*
X3696349Y6310000D02*
X3712465Y6293884D01*
X2850000Y6310000D02*
X3696349D01*
X3766116Y6293884D02*
X3770000Y6290000D01*
X3712465Y6293884D02*
X3766116D01*
X3632253Y6490000D02*
X3780000D01*
X3602253Y6460000D02*
X3632253Y6490000D01*
X3460000Y6460000D02*
X3602253D01*
X2910000Y7010000D02*
X3460000Y6460000D01*
X4280000Y6885393D02*
Y6940000D01*
X4244012Y6849405D02*
X4280000Y6885393D01*
X4887305Y6191210D02*
X4968515Y6110000D01*
X4852132Y6886383D02*
X4890039Y6848476D01*
X4852132Y6886383D02*
Y6942374D01*
X4880004Y6191210D02*
X4887305D01*
X4840000Y6954507D02*
Y6960000D01*
Y6954507D02*
X4852132Y6942374D01*
X4968515Y6110000D02*
X4970000D01*
X5149181Y5960000D02*
X5176481Y5932700D01*
Y5928797D02*
Y5932700D01*
X5050000Y5960000D02*
X5149181D01*
X4193938Y6161177D02*
X4231845Y6199083D01*
Y6206384D01*
X4156670Y6161177D02*
X4193938D01*
X4140000Y6150000D02*
X4145493D01*
X4156670Y6161177D01*
X7120829Y9370000D02*
X7130000D01*
X4250000Y4040000D02*
Y4670000D01*
Y4040000D02*
X4280000Y4010000D01*
X4447135Y5837135D02*
X4457135D01*
X4300000Y5690000D02*
X4447135Y5837135D01*
X7132829Y8560000D02*
X7140000D01*
X3020000Y7610000D02*
X3840000Y6790000D01*
Y6720000D02*
Y6790000D01*
X3020000Y7610000D02*
Y9710000D01*
X2910000Y9820000D02*
X3020000Y9710000D01*
X3730000Y6130000D02*
X3830000Y6230000D01*
X3810000Y6364971D02*
Y6370000D01*
Y6364971D02*
X3830000Y6344971D01*
Y6230000D02*
Y6344971D01*
X2950000Y6130000D02*
X3730000D01*
X2890000Y6190000D02*
X2950000Y6130000D01*
D51*
X5537600Y7007292D02*
X5549992D01*
X5598489Y6781833D02*
Y6795662D01*
X5583853Y6957260D02*
X5590000Y6951113D01*
X5583853Y6957260D02*
Y6973431D01*
X5598489Y6781833D02*
X5620000Y6760322D01*
X5590000Y6804151D02*
X5598489Y6795662D01*
X5590000Y6804151D02*
Y6951113D01*
X5549992Y7007292D02*
X5583853Y6973431D01*
X5620000Y6760000D02*
Y6760322D01*
X5174764Y7007292D02*
X5382384D01*
X5142057Y7040000D02*
X5174764Y7007292D01*
X5140000Y7040000D02*
X5142057D01*
D52*
X2230000Y6590000D02*
X3360000Y5460000D01*
X6270000D01*
X6590000Y5550000D02*
X6750000Y5390000D01*
X6360000Y5550000D02*
X6590000D01*
X6270000Y5460000D02*
X6360000Y5550000D01*
X6750000Y5201250D02*
Y5390000D01*
X6368808Y4980000D02*
X6427597Y4921211D01*
X6541972Y5140000D02*
X6755039Y4926933D01*
X2473746Y4930000D02*
X2523746Y4980000D01*
X3050000Y5140000D02*
X6541972D01*
X6427597Y4921211D02*
X6480039D01*
X2370000Y5820000D02*
X3050000Y5140000D01*
X2523746Y4980000D02*
X6368808D01*
X2460000Y4930000D02*
X2473746D01*
X6442957Y5304129D02*
X6480039Y5341211D01*
X6338502Y5300000D02*
X6342631Y5304129D01*
X3190000Y5300000D02*
X6338502D01*
X2849860Y5640140D02*
X3190000Y5300000D01*
X6342631Y5304129D02*
X6442957D01*
X5160000Y3830000D02*
X5831211Y4501211D01*
X3200000Y3830000D02*
X5160000D01*
X2010000Y5020000D02*
X3200000Y3830000D01*
X1600000Y4950000D02*
X3459050Y3090950D01*
X6305432D01*
X6455693Y3241211D01*
X1600000Y4950000D02*
Y7287890D01*
X6455693Y3241211D02*
X6480039D01*
X6364841Y3014311D02*
X6560023D01*
X1440000Y4870000D02*
X3380950Y2929050D01*
X6279580D02*
X6364841Y3014311D01*
X3380950Y2929050D02*
X6279580D01*
X6080000Y2780000D02*
X6240000Y2620000D01*
X6765988D01*
X6984776Y2401212D01*
X6634335Y2940000D02*
X6728828D01*
X6560023Y3014311D02*
X6634335Y2940000D01*
X5831211Y4501211D02*
X6480039D01*
X5362976Y6742976D02*
X5620000D01*
X5890046D01*
X5890047Y6742975D01*
X2849860Y5640140D02*
Y5660140D01*
X2480000Y6030000D02*
X2849860Y5660140D01*
X2010000Y5020000D02*
Y10210000D01*
X2260000Y10460000D01*
X1100000Y7787890D02*
X1600000Y7287890D01*
X6728828Y2940000D02*
X7030039Y3241211D01*
X1340000Y4720000D02*
X3280000Y2780000D01*
X6080000D01*
X802469Y3780000D02*
X1952469Y2630000D01*
X5900000D01*
X6340000Y2190000D01*
X2230000Y6590000D02*
Y8340000D01*
X7030039Y4501211D02*
Y4539961D01*
X6755039Y4814961D02*
Y4926933D01*
Y4814961D02*
X7030039Y4539961D01*
X6750000Y5201250D02*
X7030039Y4921211D01*
X768829Y9680000D02*
X770000D01*
X600038Y9511210D02*
X768829Y9680000D01*
X600038Y8885906D02*
Y9511210D01*
Y8885906D02*
X771039Y8714905D01*
Y8346210D02*
Y8714905D01*
X780000Y4310000D02*
X808442D01*
X1046652Y4071790D01*
Y3835817D02*
Y4071790D01*
Y3835817D02*
X1070039Y3812430D01*
X7220000Y2190000D02*
X7300000Y2270000D01*
X6340000Y2190000D02*
X7220000D01*
X770000Y3780000D02*
X802469D01*
X7300000Y2270000D02*
Y3811250D01*
X7030039Y4081211D02*
X7300000Y3811250D01*
X6984776Y2401212D02*
X7030039D01*
X870000Y4720000D02*
X1340000D01*
X520000Y8095172D02*
X730000Y8305172D01*
X520000Y5070000D02*
X870000Y4720000D01*
X520000Y5070000D02*
Y8095172D01*
X1199854Y7480146D02*
X1440000Y7240000D01*
Y4870000D02*
Y7240000D01*
X1107744Y7480146D02*
X1199854D01*
X730000Y8305172D02*
Y8340000D01*
X810000Y7777890D02*
Y7800000D01*
Y7777890D02*
X1107744Y7480146D01*
D53*
X1791057Y5197385D02*
D03*
X1790039Y6531210D02*
D03*
X1790039Y10531210D02*
D03*
X1791039Y9196210D02*
D03*
X1791039Y7866850D02*
D03*
X1790039Y3862430D02*
D03*
D54*
X1071057Y5147385D02*
D03*
X771057Y4347385D02*
D03*
Y5147385D02*
D03*
X771039Y7016851D02*
D03*
X1070039Y6481211D02*
D03*
X770039D02*
D03*
Y5681211D02*
D03*
X770039Y9681210D02*
D03*
X1070039Y10481210D02*
D03*
X770039D02*
D03*
X771039Y8346210D02*
D03*
X1071039Y9146210D02*
D03*
X771039D02*
D03*
X771039Y7816851D02*
D03*
X1071040D02*
D03*
X770039Y3812430D02*
D03*
Y3012430D02*
D03*
X1070039Y3812430D02*
D03*
D55*
X1131057Y4447385D02*
D03*
X1130039Y3112430D02*
D03*
X1131039Y7116850D02*
D03*
X1131039Y8446210D02*
D03*
X1130039Y9781210D02*
D03*
X1130039Y5781210D02*
D03*
D56*
X6480039Y1561211D02*
D03*
X7030039Y2821212D02*
D03*
X6480039Y2821211D02*
D03*
Y1981211D02*
D03*
Y2401211D02*
D03*
Y3241211D02*
D03*
Y3661211D02*
D03*
Y4081211D02*
D03*
Y4501211D02*
D03*
Y4921211D02*
D03*
Y5341211D02*
D03*
Y5761211D02*
D03*
Y6181211D02*
D03*
X7030039Y4501211D02*
D03*
Y5761211D02*
D03*
Y5341211D02*
D03*
Y4921211D02*
D03*
Y4081211D02*
D03*
Y3661211D02*
D03*
Y3241211D02*
D03*
Y2401212D02*
D03*
Y1561212D02*
D03*
Y1981212D02*
D03*
D57*
Y6181211D02*
D03*
D58*
X7760039Y6181211D02*
D03*
Y1561210D02*
D03*
D59*
X7280039Y10103711D02*
D03*
Y7604710D02*
D03*
D60*
X7407039Y9265211D02*
D03*
Y8443210D02*
D03*
X7153039Y8854210D02*
D03*
Y9128210D02*
D03*
Y8306210D02*
D03*
Y9402211D02*
D03*
Y8580210D02*
D03*
X7407039Y8991210D02*
D03*
Y8717210D02*
D03*
D61*
X5449961Y8942790D02*
D03*
D62*
X3770039Y10391210D02*
D03*
D63*
X4112539Y8785210D02*
D03*
Y8531210D02*
D03*
X4620539D02*
D03*
X4366539D02*
D03*
X3604539Y8785210D02*
D03*
X3858539D02*
D03*
X4366539D02*
D03*
X3604539Y8531210D02*
D03*
X3858539D02*
D03*
D64*
X5449961Y8688790D02*
D03*
Y8434790D02*
D03*
D65*
X4620539Y8785210D02*
D03*
D66*
X5770039Y10391210D02*
D03*
D67*
X7800004Y11400006D02*
D03*
X7900004Y11200006D02*
D03*
Y10800006D02*
D03*
X7800004Y10600006D02*
D03*
X7900004Y10400006D02*
D03*
X7800004Y10200006D02*
D03*
X7900004Y10000005D02*
D03*
X7800004Y9800005D02*
D03*
X7900004Y9600005D02*
D03*
X7800004Y9400005D02*
D03*
X7900004Y9200005D02*
D03*
X7800004Y9000005D02*
D03*
X7900004Y8800005D02*
D03*
X7800004Y8600005D02*
D03*
X7900004Y8400005D02*
D03*
X7800004Y8200004D02*
D03*
X7900004Y8000004D02*
D03*
X7800004Y7800004D02*
D03*
X7900004Y7600004D02*
D03*
X7800004Y7400004D02*
D03*
X7900004Y7200004D02*
D03*
X7800004Y7000004D02*
D03*
X7900004Y6800004D02*
D03*
X7800004Y6600004D02*
D03*
X7900004Y6400003D02*
D03*
Y6000003D02*
D03*
X7800004Y5800003D02*
D03*
X7900004Y5600003D02*
D03*
X7800004Y5400003D02*
D03*
X7900004Y5200003D02*
D03*
X7800004Y5000003D02*
D03*
X7900004Y4800003D02*
D03*
X7800004Y4600002D02*
D03*
X7900004Y4400002D02*
D03*
X7800004Y4200002D02*
D03*
X7900004Y4000002D02*
D03*
X7800004Y3800002D02*
D03*
X7900004Y3600002D02*
D03*
X7800004Y3400002D02*
D03*
X7900004Y3200002D02*
D03*
X7800004Y3000002D02*
D03*
X7900004Y2800002D02*
D03*
X7800004Y2600001D02*
D03*
X7900004Y2400001D02*
D03*
X7800004Y2200001D02*
D03*
X7900004Y2000001D02*
D03*
X7800004Y1800001D02*
D03*
X7900004Y1200001D02*
D03*
X7800004Y1000001D02*
D03*
X7900004Y800000D02*
D03*
Y400000D02*
D03*
X7800004Y200000D02*
D03*
X7700004Y10800006D02*
D03*
X7600004Y10600006D02*
D03*
X7700004Y10400006D02*
D03*
X7600004Y10200006D02*
D03*
X7700004Y10000005D02*
D03*
X7600004Y9800005D02*
D03*
X7700004Y9600005D02*
D03*
X7600004Y9400005D02*
D03*
X7700004Y9200005D02*
D03*
X7600004Y9000005D02*
D03*
X7700004Y8800005D02*
D03*
X7600004Y8600005D02*
D03*
X7700004Y8400005D02*
D03*
X7600004Y8200004D02*
D03*
X7700004Y8000004D02*
D03*
X7600004Y7800004D02*
D03*
X7700004Y7600004D02*
D03*
X7600004Y7400004D02*
D03*
X7700004Y7200004D02*
D03*
X7600004Y7000004D02*
D03*
X7700004Y6800004D02*
D03*
X7600004Y6600004D02*
D03*
X7700004Y6400003D02*
D03*
X7600004Y5800003D02*
D03*
X7700004Y5600003D02*
D03*
X7600004Y5400003D02*
D03*
X7700004Y5200003D02*
D03*
X7600004Y5000003D02*
D03*
X7700004Y4800003D02*
D03*
X7600004Y4600002D02*
D03*
X7700004Y4400002D02*
D03*
X7600004Y4200002D02*
D03*
X7700004Y4000002D02*
D03*
X7600004Y3800002D02*
D03*
X7700004Y3600002D02*
D03*
X7600004Y3400002D02*
D03*
X7700004Y3200002D02*
D03*
X7600004Y3000002D02*
D03*
X7700004Y2800002D02*
D03*
X7600004Y2600001D02*
D03*
X7700004Y2400001D02*
D03*
X7600004Y2200001D02*
D03*
X7700004Y2000001D02*
D03*
X7600004Y1800001D02*
D03*
Y1400001D02*
D03*
X7700004Y1200001D02*
D03*
X7600004Y1000001D02*
D03*
Y200000D02*
D03*
X7400004Y11400006D02*
D03*
X7500004Y10800006D02*
D03*
X7400004Y10600006D02*
D03*
X7500004Y10400006D02*
D03*
X7400004Y9800005D02*
D03*
X7500004Y9600005D02*
D03*
X7400004Y9400005D02*
D03*
X7500004Y8800005D02*
D03*
X7400004Y8200004D02*
D03*
X7500004Y8000004D02*
D03*
Y7200004D02*
D03*
X7400004Y7000004D02*
D03*
X7500004Y6800004D02*
D03*
Y6400003D02*
D03*
X7400004Y6200003D02*
D03*
X7500004Y6000003D02*
D03*
X7400004Y5800003D02*
D03*
X7500004Y5600003D02*
D03*
X7400004Y5400003D02*
D03*
X7500004Y5200003D02*
D03*
X7400004Y5000003D02*
D03*
X7500004Y4800003D02*
D03*
X7400004Y4600002D02*
D03*
X7500004Y4400002D02*
D03*
X7400004Y4200002D02*
D03*
X7500004Y4000002D02*
D03*
X7400004Y3800002D02*
D03*
X7500004Y3600002D02*
D03*
X7400004Y3400002D02*
D03*
X7500004Y3200002D02*
D03*
X7400004Y3000002D02*
D03*
X7500004Y2800002D02*
D03*
X7400004Y2600001D02*
D03*
X7500004Y2400001D02*
D03*
X7400004Y2200001D02*
D03*
X7500004Y2000001D02*
D03*
X7400004Y1800001D02*
D03*
X7500004Y1600001D02*
D03*
X7400004Y1400001D02*
D03*
X7500004Y1200001D02*
D03*
X7400004Y1000001D02*
D03*
Y200000D02*
D03*
X7200004Y11400006D02*
D03*
X7300004Y11200006D02*
D03*
X7200004Y11000006D02*
D03*
X7300004Y10800006D02*
D03*
X7200004Y10600006D02*
D03*
X7300004Y10400006D02*
D03*
X7200004Y9800005D02*
D03*
X7300004Y9600005D02*
D03*
Y9200005D02*
D03*
X7200004Y9000005D02*
D03*
X7300004Y8800005D02*
D03*
Y8000004D02*
D03*
Y7200004D02*
D03*
X7200004Y7000004D02*
D03*
X7300004Y6800004D02*
D03*
Y6400003D02*
D03*
Y6000003D02*
D03*
X7200004Y5400003D02*
D03*
Y5000003D02*
D03*
Y4600002D02*
D03*
Y4200002D02*
D03*
Y3400002D02*
D03*
Y3000002D02*
D03*
Y2600001D02*
D03*
X7300004Y2000001D02*
D03*
X7200004Y1800001D02*
D03*
X7300004Y1600001D02*
D03*
X7200004Y1400001D02*
D03*
X7300004Y1200001D02*
D03*
X7200004Y1000001D02*
D03*
X7300004Y800000D02*
D03*
X7200004Y600000D02*
D03*
X7300004Y400000D02*
D03*
X7200004Y200000D02*
D03*
X7000004Y11400006D02*
D03*
X7100004Y11200006D02*
D03*
X7000004Y11000006D02*
D03*
X7100004Y10800006D02*
D03*
X7000004Y10600006D02*
D03*
X7100004Y10400006D02*
D03*
X7000004Y10200006D02*
D03*
Y9800005D02*
D03*
X7100004Y9600005D02*
D03*
X7000004Y9400005D02*
D03*
X7100004Y8000004D02*
D03*
X7000004Y7800004D02*
D03*
Y7400004D02*
D03*
X7100004Y7200004D02*
D03*
X7000004Y7000004D02*
D03*
X7100004Y6800004D02*
D03*
Y6400003D02*
D03*
Y6000003D02*
D03*
X7000004Y3000002D02*
D03*
Y2600001D02*
D03*
Y1800001D02*
D03*
X7100004Y1200001D02*
D03*
X7000004Y1000001D02*
D03*
X7100004Y800000D02*
D03*
X7000004Y600000D02*
D03*
X7100004Y400000D02*
D03*
X7000004Y200000D02*
D03*
X6800004Y11400006D02*
D03*
X6900004Y11200006D02*
D03*
X6800004Y11000006D02*
D03*
X6900004Y10800006D02*
D03*
X6800004Y10600006D02*
D03*
X6900004Y10400006D02*
D03*
X6800004Y10200006D02*
D03*
X6900004Y10000005D02*
D03*
X6800004Y9800005D02*
D03*
X6900004Y9600005D02*
D03*
X6800004Y9400005D02*
D03*
Y8600005D02*
D03*
X6900004Y7600004D02*
D03*
X6800004Y7400004D02*
D03*
X6900004Y7200004D02*
D03*
X6800004Y7000004D02*
D03*
X6900004Y6400003D02*
D03*
X6800004Y6200003D02*
D03*
X6900004Y6000003D02*
D03*
X6800004Y5800003D02*
D03*
Y5000003D02*
D03*
Y4600002D02*
D03*
Y4200002D02*
D03*
Y3800002D02*
D03*
Y3400002D02*
D03*
X6900004Y1200001D02*
D03*
Y800000D02*
D03*
X6800004Y600000D02*
D03*
X6900004Y400000D02*
D03*
X6800004Y200000D02*
D03*
X6600004Y11400006D02*
D03*
X6700004Y11200006D02*
D03*
X6600004Y11000006D02*
D03*
X6700004Y10800006D02*
D03*
X6600004Y10600006D02*
D03*
X6700004Y10400006D02*
D03*
X6600004Y10200006D02*
D03*
X6700004Y10000005D02*
D03*
X6600004Y9800005D02*
D03*
X6700004Y9600005D02*
D03*
X6600004Y9400005D02*
D03*
X6700004Y9200005D02*
D03*
X6600004Y9000005D02*
D03*
X6700004Y8800005D02*
D03*
X6600004Y7400004D02*
D03*
X6700004Y7200004D02*
D03*
X6600004Y7000004D02*
D03*
X6700004Y6800004D02*
D03*
Y6400003D02*
D03*
Y6000003D02*
D03*
Y4400002D02*
D03*
Y4000002D02*
D03*
X6600004Y3800002D02*
D03*
X6700004Y3200002D02*
D03*
Y2800002D02*
D03*
Y2400001D02*
D03*
Y400000D02*
D03*
X6600004Y200000D02*
D03*
X6400003Y11400006D02*
D03*
X6500004Y11200006D02*
D03*
X6400003Y11000006D02*
D03*
X6500004Y10800006D02*
D03*
X6400003Y10600006D02*
D03*
X6500004Y10400006D02*
D03*
X6400003Y10200006D02*
D03*
X6500004Y10000005D02*
D03*
X6400003Y9800005D02*
D03*
X6500004Y9600005D02*
D03*
X6400003Y9400005D02*
D03*
X6500004Y9200005D02*
D03*
X6400003Y9000005D02*
D03*
X6500004Y7600004D02*
D03*
X6400003Y7400004D02*
D03*
X6500004Y7200004D02*
D03*
X6400003Y7000004D02*
D03*
X6500004Y6000003D02*
D03*
X6400003Y200000D02*
D03*
X6200003Y11400006D02*
D03*
X6300003Y11200006D02*
D03*
X6200003Y11000006D02*
D03*
X6300003Y10800006D02*
D03*
X6200003Y10600006D02*
D03*
X6300003Y10400006D02*
D03*
Y10000005D02*
D03*
X6200003Y9800005D02*
D03*
Y9400005D02*
D03*
Y9000005D02*
D03*
Y8600005D02*
D03*
Y7400004D02*
D03*
Y6200003D02*
D03*
Y4600002D02*
D03*
X6300003Y4400002D02*
D03*
Y4000002D02*
D03*
Y3600002D02*
D03*
Y2800002D02*
D03*
X6200003Y1800001D02*
D03*
X6000003Y11400006D02*
D03*
X6100003Y11200006D02*
D03*
X6000003Y11000006D02*
D03*
X6100003Y10800006D02*
D03*
X6000003Y10600006D02*
D03*
Y10200006D02*
D03*
Y9800005D02*
D03*
X6100003Y9600005D02*
D03*
X6000003Y9400005D02*
D03*
X6100003Y9200005D02*
D03*
X6000003Y9000005D02*
D03*
X6100003Y8800005D02*
D03*
X6000003Y8600005D02*
D03*
X6100003Y7200004D02*
D03*
Y6800004D02*
D03*
X6000003Y6600004D02*
D03*
X6100003Y6400003D02*
D03*
X6000003Y6200003D02*
D03*
Y5800003D02*
D03*
Y4600002D02*
D03*
Y4200002D02*
D03*
Y3800002D02*
D03*
Y3400002D02*
D03*
Y2200001D02*
D03*
Y1800001D02*
D03*
X6100003Y400000D02*
D03*
X5800003Y11400006D02*
D03*
X5900003Y11200006D02*
D03*
X5800003Y11000006D02*
D03*
X5900003Y10800006D02*
D03*
X5800003Y10600006D02*
D03*
Y10200006D02*
D03*
X5900003Y10000005D02*
D03*
X5800003Y9800005D02*
D03*
X5900003Y9600005D02*
D03*
X5800003Y9400005D02*
D03*
X5900003Y9200005D02*
D03*
X5800003Y9000005D02*
D03*
X5900003Y8800005D02*
D03*
X5800003Y8600005D02*
D03*
X5900003Y8400005D02*
D03*
X5800003Y7400004D02*
D03*
X5900003Y7200004D02*
D03*
X5800003Y6200003D02*
D03*
Y3400002D02*
D03*
X5900003Y3200002D02*
D03*
Y2000001D02*
D03*
X5800003Y1800001D02*
D03*
Y1400001D02*
D03*
X5900003Y1200001D02*
D03*
Y400000D02*
D03*
X5600003Y11400006D02*
D03*
X5700003Y11200006D02*
D03*
X5600003Y11000006D02*
D03*
X5700003Y10800006D02*
D03*
X5600003Y10600006D02*
D03*
Y10200006D02*
D03*
X5700003Y10000005D02*
D03*
X5600003Y9800005D02*
D03*
X5700003Y9600005D02*
D03*
X5600003Y9400005D02*
D03*
X5700003Y9200005D02*
D03*
X5600003Y9000005D02*
D03*
X5700003Y8800005D02*
D03*
X5600003Y8600005D02*
D03*
X5700003Y8400005D02*
D03*
X5600003Y7400004D02*
D03*
Y6200003D02*
D03*
Y5800003D02*
D03*
X5700003Y5600003D02*
D03*
X5600003Y4600002D02*
D03*
Y3800002D02*
D03*
Y2200001D02*
D03*
X5700003Y2000001D02*
D03*
X5600003Y1800001D02*
D03*
X5700003Y1200001D02*
D03*
Y400000D02*
D03*
X5400003Y11400006D02*
D03*
X5500003Y11200006D02*
D03*
X5400003Y11000006D02*
D03*
X5500003Y10800006D02*
D03*
X5400003Y10600006D02*
D03*
X5500003Y10400006D02*
D03*
X5400003Y10200006D02*
D03*
X5500003Y10000005D02*
D03*
X5400003Y9800005D02*
D03*
X5500003Y9600005D02*
D03*
X5400003Y9400005D02*
D03*
X5500003Y9200005D02*
D03*
Y8800005D02*
D03*
Y7600004D02*
D03*
Y6400003D02*
D03*
Y6000003D02*
D03*
X5400003Y5800003D02*
D03*
X5500003Y5600003D02*
D03*
X5400003Y4600002D02*
D03*
Y2200001D02*
D03*
X5500003Y2000001D02*
D03*
X5400003Y1800001D02*
D03*
X5500003Y400000D02*
D03*
X5200003Y11400006D02*
D03*
X5300003Y11200006D02*
D03*
X5200003Y11000006D02*
D03*
X5300003Y10800006D02*
D03*
X5200003Y10600006D02*
D03*
X5300003Y10400006D02*
D03*
X5200003Y10200006D02*
D03*
X5300003Y10000005D02*
D03*
X5200003Y9800005D02*
D03*
X5300003Y9600005D02*
D03*
X5200003Y9400005D02*
D03*
X5300003Y9200005D02*
D03*
X5200003Y9000005D02*
D03*
X5300003Y8800005D02*
D03*
X5200003Y8600005D02*
D03*
X5300003Y8400005D02*
D03*
Y5600003D02*
D03*
X5200003Y2200001D02*
D03*
X5300003Y2000001D02*
D03*
Y400000D02*
D03*
X5000003Y11400006D02*
D03*
X5100003Y11200006D02*
D03*
X5000003Y11000006D02*
D03*
X5100003Y10800006D02*
D03*
X5000003Y10600006D02*
D03*
X5100003Y10400006D02*
D03*
X5000003Y10200006D02*
D03*
X5100003Y10000005D02*
D03*
X5000003Y9800005D02*
D03*
X5100003Y9600005D02*
D03*
X5000003Y9400005D02*
D03*
X5100003Y9200005D02*
D03*
X5000003Y9000005D02*
D03*
X5100003Y8800005D02*
D03*
X5000003Y8600005D02*
D03*
Y8200004D02*
D03*
Y6200003D02*
D03*
X5100003Y5600003D02*
D03*
Y4800003D02*
D03*
X5000003Y4600002D02*
D03*
X5100003Y4400002D02*
D03*
Y3600002D02*
D03*
X5000003Y2200001D02*
D03*
X5100003Y2000001D02*
D03*
X5000003Y1800001D02*
D03*
Y1400001D02*
D03*
Y600000D02*
D03*
X5100003Y400000D02*
D03*
X4800003Y11400006D02*
D03*
X4900003Y11200006D02*
D03*
X4800003Y11000006D02*
D03*
X4900003Y10800006D02*
D03*
X4800003Y10600006D02*
D03*
X4900003Y10400006D02*
D03*
X4800003Y10200006D02*
D03*
X4900003Y10000005D02*
D03*
X4800003Y9800005D02*
D03*
X4900003Y9600005D02*
D03*
X4800003Y9400005D02*
D03*
X4900003Y9200005D02*
D03*
X4800003Y9000005D02*
D03*
X4900003Y8800005D02*
D03*
X4800003Y8600005D02*
D03*
X4900003Y8400005D02*
D03*
X4800003Y8200004D02*
D03*
X4900003Y6400003D02*
D03*
Y4800003D02*
D03*
X4800003Y2200001D02*
D03*
X4900003Y2000001D02*
D03*
X4800003Y600000D02*
D03*
X4900003Y400000D02*
D03*
X4600002Y11400006D02*
D03*
X4700003Y11200006D02*
D03*
X4600002Y11000006D02*
D03*
X4700003Y10800006D02*
D03*
X4600002Y10600006D02*
D03*
X4700003Y10400006D02*
D03*
X4600002Y10200006D02*
D03*
X4700003Y10000005D02*
D03*
X4600002Y9800005D02*
D03*
X4700003Y9600005D02*
D03*
X4600002Y9400005D02*
D03*
X4700003Y9200005D02*
D03*
X4600002Y9000005D02*
D03*
X4700003Y8400005D02*
D03*
X4600002Y8200004D02*
D03*
X4700003Y8000004D02*
D03*
Y6400003D02*
D03*
X4600002Y2200001D02*
D03*
X4700003Y2000001D02*
D03*
X4600002Y600000D02*
D03*
X4700003Y400000D02*
D03*
X4400002Y11400006D02*
D03*
X4500002Y11200006D02*
D03*
X4400002Y11000006D02*
D03*
X4500002Y10800006D02*
D03*
X4400002Y10600006D02*
D03*
X4500002Y10400006D02*
D03*
X4400002Y10200006D02*
D03*
X4500002Y10000005D02*
D03*
X4400002Y9800005D02*
D03*
X4500002Y9600005D02*
D03*
X4400002Y9400005D02*
D03*
X4500002Y9200005D02*
D03*
X4400002Y9000005D02*
D03*
Y8200004D02*
D03*
X4500002Y8000004D02*
D03*
X4400002Y7800004D02*
D03*
Y6600004D02*
D03*
X4500002Y2400001D02*
D03*
X4400002Y2200001D02*
D03*
Y1800001D02*
D03*
Y600000D02*
D03*
X4500002Y400000D02*
D03*
X4200002Y11400006D02*
D03*
X4300002Y11200006D02*
D03*
X4200002Y11000006D02*
D03*
X4300002Y10800006D02*
D03*
X4200002Y10600006D02*
D03*
X4300002Y10400006D02*
D03*
X4200002Y10200006D02*
D03*
X4300002Y10000005D02*
D03*
X4200002Y9800005D02*
D03*
X4300002Y9600005D02*
D03*
X4200002Y9400005D02*
D03*
X4300002Y9200005D02*
D03*
X4200002Y9000005D02*
D03*
Y8200004D02*
D03*
X4300002Y8000004D02*
D03*
X4200002Y7800004D02*
D03*
X4300002Y7600004D02*
D03*
X4200002Y3400002D02*
D03*
X4300002Y2400001D02*
D03*
Y2000001D02*
D03*
X4200002Y1800001D02*
D03*
Y1400001D02*
D03*
X4300002Y1200001D02*
D03*
X4200002Y1000001D02*
D03*
X4300002Y800000D02*
D03*
X4200002Y600000D02*
D03*
X4300002Y400000D02*
D03*
X4000002Y11400006D02*
D03*
X4100002Y11200006D02*
D03*
X4000002Y11000006D02*
D03*
X4100002Y10800006D02*
D03*
X4000002Y10600006D02*
D03*
X4100002Y10400006D02*
D03*
X4000002Y10200006D02*
D03*
X4100002Y10000005D02*
D03*
X4000002Y9800005D02*
D03*
X4100002Y9600005D02*
D03*
X4000002Y9400005D02*
D03*
X4100002Y9200005D02*
D03*
X4000002Y9000005D02*
D03*
Y8600005D02*
D03*
X4100002Y8400005D02*
D03*
X4000002Y4200002D02*
D03*
X4100002Y3600002D02*
D03*
X4000002Y2200001D02*
D03*
X4100002Y2000001D02*
D03*
X4000002Y1800001D02*
D03*
Y1400001D02*
D03*
X4100002Y1200001D02*
D03*
X4000002Y1000001D02*
D03*
X4100002Y800000D02*
D03*
X4000002Y600000D02*
D03*
X4100002Y400000D02*
D03*
X3800002Y11400006D02*
D03*
X3900002Y11200006D02*
D03*
X3800002Y11000006D02*
D03*
X3900002Y10800006D02*
D03*
X3800002Y10600006D02*
D03*
Y10200006D02*
D03*
X3900002Y10000005D02*
D03*
X3800002Y9800005D02*
D03*
X3900002Y9600005D02*
D03*
X3800002Y9400005D02*
D03*
X3900002Y9200005D02*
D03*
X3800002Y9000005D02*
D03*
X3900002Y8400005D02*
D03*
X3800002Y8200004D02*
D03*
Y7800004D02*
D03*
Y7400004D02*
D03*
X3900002Y5600003D02*
D03*
Y4800003D02*
D03*
X3800002Y4600002D02*
D03*
X3900002Y4000002D02*
D03*
X3800002Y3400002D02*
D03*
X3900002Y2400001D02*
D03*
X3800002Y2200001D02*
D03*
X3900002Y2000001D02*
D03*
X3800002Y1800001D02*
D03*
Y1400001D02*
D03*
X3900002Y1200001D02*
D03*
X3800002Y1000001D02*
D03*
X3900002Y800000D02*
D03*
X3800002Y600000D02*
D03*
X3900002Y400000D02*
D03*
X3600002Y11400006D02*
D03*
X3700002Y11200006D02*
D03*
X3600002Y11000006D02*
D03*
X3700002Y10800006D02*
D03*
X3600002Y10600006D02*
D03*
Y10200006D02*
D03*
X3700002Y10000005D02*
D03*
X3600002Y9800005D02*
D03*
X3700002Y9600005D02*
D03*
X3600002Y9400005D02*
D03*
X3700002Y9200005D02*
D03*
X3600002Y9000005D02*
D03*
X3700002Y8400005D02*
D03*
X3600002Y8200004D02*
D03*
X3700002Y8000004D02*
D03*
Y5600003D02*
D03*
Y4000002D02*
D03*
Y2400001D02*
D03*
X3600002Y2200001D02*
D03*
X3700002Y2000001D02*
D03*
X3600002Y1800001D02*
D03*
Y1400001D02*
D03*
X3700002Y1200001D02*
D03*
X3600002Y1000001D02*
D03*
X3700002Y800000D02*
D03*
Y400000D02*
D03*
X3400002Y11400006D02*
D03*
X3500002Y11200006D02*
D03*
X3400002Y11000006D02*
D03*
X3500002Y10800006D02*
D03*
X3400002Y10600006D02*
D03*
X3500002Y10400006D02*
D03*
X3400002Y10200006D02*
D03*
X3500002Y10000005D02*
D03*
X3400002Y9800005D02*
D03*
X3500002Y9600005D02*
D03*
X3400002Y9400005D02*
D03*
X3500002Y9200005D02*
D03*
X3400002Y9000005D02*
D03*
Y8600005D02*
D03*
X3500002Y8400005D02*
D03*
X3400002Y8200004D02*
D03*
X3500002Y8000004D02*
D03*
Y7600004D02*
D03*
X3400002Y7400004D02*
D03*
X3500002Y6400003D02*
D03*
Y5600003D02*
D03*
Y4800003D02*
D03*
X3400002Y1400001D02*
D03*
X3500002Y1200001D02*
D03*
X3400002Y1000001D02*
D03*
X3500002Y800000D02*
D03*
X3200002Y11400006D02*
D03*
X3300002Y11200006D02*
D03*
X3200002Y11000006D02*
D03*
X3300002Y10800006D02*
D03*
X3200002Y10600006D02*
D03*
X3300002Y10400006D02*
D03*
X3200002Y10200006D02*
D03*
X3300002Y10000005D02*
D03*
X3200002Y9800005D02*
D03*
X3300002Y9600005D02*
D03*
X3200002Y9400005D02*
D03*
X3300002Y9200005D02*
D03*
X3200002Y9000005D02*
D03*
X3300002Y8800005D02*
D03*
X3200002Y8600005D02*
D03*
X3300002Y8400005D02*
D03*
X3200002Y8200004D02*
D03*
X3300002Y8000004D02*
D03*
Y7200004D02*
D03*
Y4400002D02*
D03*
X3200002Y4200002D02*
D03*
Y1400001D02*
D03*
X3300002Y1200001D02*
D03*
X3200002Y1000001D02*
D03*
X3300002Y800000D02*
D03*
Y400000D02*
D03*
X3000002Y11400006D02*
D03*
X3100002Y11200006D02*
D03*
X3000002Y11000006D02*
D03*
X3100002Y10800006D02*
D03*
X3000002Y10600006D02*
D03*
X3100002Y10400006D02*
D03*
X3000002Y10200006D02*
D03*
X3100002Y10000005D02*
D03*
Y9600005D02*
D03*
Y9200005D02*
D03*
Y8800005D02*
D03*
Y8400005D02*
D03*
Y8000004D02*
D03*
Y7200004D02*
D03*
X3000002Y7000004D02*
D03*
Y6600004D02*
D03*
Y6200003D02*
D03*
Y4600002D02*
D03*
Y4200002D02*
D03*
Y3800002D02*
D03*
X3100002Y3600002D02*
D03*
Y2000001D02*
D03*
X3000002Y1400001D02*
D03*
X3100002Y1200001D02*
D03*
X3000002Y1000001D02*
D03*
X3100002Y800000D02*
D03*
X2800002Y11400006D02*
D03*
X2900002Y11200006D02*
D03*
X2800002Y11000006D02*
D03*
X2900002Y10800006D02*
D03*
X2800002Y10600006D02*
D03*
X2900002Y10400006D02*
D03*
X2800002Y10200006D02*
D03*
X2900002Y10000005D02*
D03*
X2800002Y9400005D02*
D03*
Y9000005D02*
D03*
Y8600005D02*
D03*
Y8200004D02*
D03*
Y7800004D02*
D03*
Y7400004D02*
D03*
X2900002Y6800004D02*
D03*
X2800002Y6600004D02*
D03*
X2900002Y6400003D02*
D03*
Y4000002D02*
D03*
X2800002Y3000002D02*
D03*
X2900002Y2800002D02*
D03*
X2800002Y2200001D02*
D03*
Y1000001D02*
D03*
X2600001Y11400006D02*
D03*
X2700001Y11200006D02*
D03*
Y10800006D02*
D03*
Y10400006D02*
D03*
X2600001Y10200006D02*
D03*
Y9800005D02*
D03*
Y9400005D02*
D03*
X2700001Y9200005D02*
D03*
X2600001Y9000005D02*
D03*
X2700001Y8800005D02*
D03*
X2600001Y8600005D02*
D03*
X2700001Y8400005D02*
D03*
X2600001Y8200004D02*
D03*
X2700001Y8000004D02*
D03*
X2600001Y7800004D02*
D03*
X2700001Y7600004D02*
D03*
X2600001Y7400004D02*
D03*
Y7000004D02*
D03*
X2700001Y6800004D02*
D03*
X2600001Y6600004D02*
D03*
X2700001Y6400003D02*
D03*
X2600001Y5400003D02*
D03*
Y4600002D02*
D03*
Y4200002D02*
D03*
X2700001Y4000002D02*
D03*
Y3200002D02*
D03*
X2600001Y3000002D02*
D03*
X2700001Y2800002D02*
D03*
X2600001Y2200001D02*
D03*
X2700001Y1200001D02*
D03*
X2400001Y11400006D02*
D03*
X2500001Y11200006D02*
D03*
Y10800006D02*
D03*
Y10400006D02*
D03*
X2400001Y10200006D02*
D03*
X2500001Y10000005D02*
D03*
X2400001Y9800005D02*
D03*
X2500001Y9600005D02*
D03*
X2400001Y9400005D02*
D03*
X2500001Y9200005D02*
D03*
X2400001Y9000005D02*
D03*
X2500001Y8800005D02*
D03*
X2400001Y8600005D02*
D03*
X2500001Y8400005D02*
D03*
X2400001Y8200004D02*
D03*
X2500001Y8000004D02*
D03*
X2400001Y7800004D02*
D03*
X2500001Y7600004D02*
D03*
X2400001Y7400004D02*
D03*
X2500001Y7200004D02*
D03*
X2400001Y7000004D02*
D03*
X2500001Y6800004D02*
D03*
X2400001Y6600004D02*
D03*
Y6200003D02*
D03*
Y5400003D02*
D03*
X2500001Y5200003D02*
D03*
Y4800003D02*
D03*
Y4400002D02*
D03*
X2400001Y3400002D02*
D03*
X2500001Y3200002D02*
D03*
X2400001Y3000002D02*
D03*
X2500001Y2800002D02*
D03*
X2400001Y2200001D02*
D03*
X2200001Y11400006D02*
D03*
X2300001Y11200006D02*
D03*
Y10800006D02*
D03*
X2200001Y10600006D02*
D03*
Y10200006D02*
D03*
Y9400005D02*
D03*
X2300001Y9200005D02*
D03*
Y8800005D02*
D03*
X2200001Y6200003D02*
D03*
Y5800003D02*
D03*
X2300001Y5200003D02*
D03*
Y3600002D02*
D03*
X2200001Y3400002D02*
D03*
X2300001Y3200002D02*
D03*
X2200001Y3000002D02*
D03*
X2300001Y2800002D02*
D03*
X2200001Y1800001D02*
D03*
X2000001Y11400006D02*
D03*
Y11000006D02*
D03*
X2100001Y10800006D02*
D03*
X2000001Y10600006D02*
D03*
X2100001Y9200005D02*
D03*
Y8800005D02*
D03*
Y8400005D02*
D03*
Y8000004D02*
D03*
Y7600004D02*
D03*
Y6800004D02*
D03*
Y6000003D02*
D03*
Y5200003D02*
D03*
Y4800003D02*
D03*
X2000001Y3800002D02*
D03*
X2100001Y3600002D02*
D03*
X2000001Y3400002D02*
D03*
X2100001Y3200002D02*
D03*
X2000001Y3000002D02*
D03*
X2100001Y2800002D02*
D03*
X2000001Y1800001D02*
D03*
X2100001Y400000D02*
D03*
X1800001Y11400006D02*
D03*
X1900001Y10800006D02*
D03*
Y6800004D02*
D03*
Y2800002D02*
D03*
X1800001Y1800001D02*
D03*
Y1400001D02*
D03*
Y1000001D02*
D03*
X1900001Y800000D02*
D03*
X1800001Y600000D02*
D03*
X1900001Y400000D02*
D03*
X1600001Y11400006D02*
D03*
X1700001Y11200006D02*
D03*
Y10800006D02*
D03*
Y6800004D02*
D03*
X1600001Y1400001D02*
D03*
X1700001Y1200001D02*
D03*
X1600001Y1000001D02*
D03*
Y600000D02*
D03*
X1700001Y400000D02*
D03*
X1400001Y11400006D02*
D03*
X1500001Y11200006D02*
D03*
X1400001Y11000006D02*
D03*
X1500001Y2800002D02*
D03*
Y2400001D02*
D03*
X1400001Y2200001D02*
D03*
Y1800001D02*
D03*
X1500001Y1600001D02*
D03*
X1400001Y1400001D02*
D03*
X1500001Y1200001D02*
D03*
X1400001Y1000001D02*
D03*
Y600000D02*
D03*
Y200000D02*
D03*
X1200001Y11400006D02*
D03*
X1300001Y11200006D02*
D03*
X1200001Y11000006D02*
D03*
X1300001Y2800002D02*
D03*
X1200001Y2200001D02*
D03*
X1300001Y1600001D02*
D03*
X1200001Y1400001D02*
D03*
X1300001Y1200001D02*
D03*
X1200001Y1000001D02*
D03*
X1300001Y800000D02*
D03*
Y400000D02*
D03*
X1200001Y200000D02*
D03*
X1000001Y11400006D02*
D03*
X1100001Y11200006D02*
D03*
X1000001Y11000006D02*
D03*
X1100001Y10800006D02*
D03*
Y6800004D02*
D03*
X1000001Y2200001D02*
D03*
X1100001Y1600001D02*
D03*
X1000001Y1400001D02*
D03*
X1100001Y1200001D02*
D03*
X1000001Y1000001D02*
D03*
Y600000D02*
D03*
X1100001Y400000D02*
D03*
X1000001Y200000D02*
D03*
X800000Y11400006D02*
D03*
X900000Y11200006D02*
D03*
Y10800006D02*
D03*
Y6800004D02*
D03*
Y2800002D02*
D03*
Y2400001D02*
D03*
Y2000001D02*
D03*
Y1600001D02*
D03*
Y1200001D02*
D03*
Y800000D02*
D03*
Y400000D02*
D03*
X800000Y200000D02*
D03*
X700000Y10800006D02*
D03*
Y6800004D02*
D03*
X600000Y2600001D02*
D03*
Y2200001D02*
D03*
Y1800001D02*
D03*
Y1400001D02*
D03*
Y1000001D02*
D03*
Y200000D02*
D03*
X400000Y11400006D02*
D03*
X500000Y10800006D02*
D03*
X400000Y10600006D02*
D03*
X500000Y10400006D02*
D03*
X400000Y10200006D02*
D03*
X500000Y10000005D02*
D03*
X400000Y9800005D02*
D03*
X500000Y9600005D02*
D03*
X400000Y9400005D02*
D03*
X500000Y9200005D02*
D03*
X400000Y9000005D02*
D03*
X500000Y8800005D02*
D03*
X400000Y8600005D02*
D03*
X500000Y8400005D02*
D03*
X400000Y5800003D02*
D03*
Y5400003D02*
D03*
Y5000003D02*
D03*
X500000Y4800003D02*
D03*
X400000Y4600002D02*
D03*
X500000Y4400002D02*
D03*
X400000Y4200002D02*
D03*
X500000Y4000002D02*
D03*
X400000Y3800002D02*
D03*
X500000Y3600002D02*
D03*
X400000Y3400002D02*
D03*
X500000Y3200002D02*
D03*
X400000Y3000002D02*
D03*
X500000Y2800002D02*
D03*
X400000Y2600001D02*
D03*
X500000Y2400001D02*
D03*
X400000Y2200001D02*
D03*
X500000Y2000001D02*
D03*
X400000Y1800001D02*
D03*
X500000Y1600001D02*
D03*
X400000Y1400001D02*
D03*
X500000Y1200001D02*
D03*
X400000Y1000001D02*
D03*
Y200000D02*
D03*
X200000Y11400006D02*
D03*
X300000Y11200006D02*
D03*
X200000Y11000006D02*
D03*
X300000Y10800006D02*
D03*
X200000Y10600006D02*
D03*
X300000Y10400006D02*
D03*
X200000Y10200006D02*
D03*
X300000Y10000005D02*
D03*
X200000Y9800005D02*
D03*
X300000Y9600005D02*
D03*
X200000Y9400005D02*
D03*
X300000Y9200005D02*
D03*
X200000Y9000005D02*
D03*
X300000Y8800005D02*
D03*
X200000Y8600005D02*
D03*
X300000Y8400005D02*
D03*
X200000Y8200004D02*
D03*
X300000Y8000004D02*
D03*
X200000Y7800004D02*
D03*
X300000Y7600004D02*
D03*
X200000Y7400004D02*
D03*
X300000Y7200004D02*
D03*
X200000Y7000004D02*
D03*
X300000Y6800004D02*
D03*
X200000Y6600004D02*
D03*
X300000Y6400003D02*
D03*
X200000Y6200003D02*
D03*
X300000Y6000003D02*
D03*
X200000Y5800003D02*
D03*
X300000Y5600003D02*
D03*
X200000Y5400003D02*
D03*
X300000Y5200003D02*
D03*
X200000Y5000003D02*
D03*
X300000Y4800003D02*
D03*
X200000Y4600002D02*
D03*
X300000Y4400002D02*
D03*
X200000Y4200002D02*
D03*
X300000Y4000002D02*
D03*
X200000Y3800002D02*
D03*
X300000Y3600002D02*
D03*
X200000Y3400002D02*
D03*
X300000Y3200002D02*
D03*
X200000Y3000002D02*
D03*
X300000Y2800002D02*
D03*
X200000Y2600001D02*
D03*
X300000Y2400001D02*
D03*
X200000Y2200001D02*
D03*
X300000Y2000001D02*
D03*
X200000Y1800001D02*
D03*
X300000Y1600001D02*
D03*
X200000Y1400001D02*
D03*
X300000Y1200001D02*
D03*
X200000Y1000001D02*
D03*
X300000Y800000D02*
D03*
X200000Y600000D02*
D03*
X300000Y400000D02*
D03*
X200000Y200000D02*
D03*
X5850000Y7560000D02*
D03*
X2940000Y370000D02*
D03*
X4970000Y5580000D02*
D03*
X5722546Y7491523D02*
D03*
X3385230Y4863209D02*
D03*
X3390000Y3940000D02*
D03*
X5060000Y3220000D02*
D03*
X3410000Y3330000D02*
D03*
X4856053Y7254661D02*
D03*
X4596350Y6830000D02*
D03*
X4730000Y6651011D02*
D03*
X4670000Y6720000D02*
D03*
X4361150Y6960961D02*
D03*
X4961561Y6751937D02*
D03*
X4950000Y1120000D02*
D03*
X4880000Y1010000D02*
D03*
Y1120000D02*
D03*
X4950000Y1010000D02*
D03*
X3706053Y7794661D02*
D03*
X3560000Y7900000D02*
D03*
X3416053Y7864661D02*
D03*
X3680000Y7410000D02*
D03*
X3280000Y4080000D02*
D03*
X3330000Y4490000D02*
D03*
X3300000Y4690000D02*
D03*
X3270000Y3500000D02*
D03*
X6134438Y10051135D02*
D03*
X4500000Y5640000D02*
D03*
X5123944Y1560577D02*
D03*
X5725550Y5930000D02*
D03*
X3300000Y7430000D02*
D03*
X5090000Y7250000D02*
D03*
X5212546Y3741523D02*
D03*
X5230000Y4840000D02*
D03*
X3520000Y7360000D02*
D03*
X3400000Y1890000D02*
D03*
X3740000Y3240000D02*
D03*
X5890000Y4390000D02*
D03*
X5500000Y6850000D02*
D03*
X6190000Y4670000D02*
D03*
X5790000Y4310000D02*
D03*
X5660000Y4560000D02*
D03*
X5280000Y6850000D02*
D03*
X5880000Y3390000D02*
D03*
X4630000Y1840000D02*
D03*
X4668969Y1199469D02*
D03*
X4993278Y6391168D02*
D03*
X4380000Y6120000D02*
D03*
X2960000Y6050000D02*
D03*
X4904613Y6502168D02*
D03*
X3770000Y7680000D02*
D03*
X4710000Y7430000D02*
D03*
X5270000Y6730000D02*
D03*
X4150000Y3990000D02*
D03*
X4530000Y6910000D02*
D03*
X4140000Y4740000D02*
D03*
X4160000Y5730000D02*
D03*
X3720000Y6760000D02*
D03*
X2910000Y9570000D02*
D03*
X3716053Y7534661D02*
D03*
X4590909Y7380000D02*
D03*
X4120000Y6350000D02*
D03*
X2900000Y7250000D02*
D03*
X3770000Y6290000D02*
D03*
X2850000Y6310000D02*
D03*
X3780000Y6490000D02*
D03*
X2910000Y7010000D02*
D03*
X4280000Y6940000D02*
D03*
X5140000Y7040000D02*
D03*
X4840000Y6960000D02*
D03*
X4970000Y6110000D02*
D03*
X5050000Y5960000D02*
D03*
X4140000Y6150000D02*
D03*
X4500000Y7520000D02*
D03*
X4250000Y4670000D02*
D03*
X4300000Y5690000D02*
D03*
X4280000Y4010000D02*
D03*
X5390000Y5660000D02*
D03*
X4720000Y5730000D02*
D03*
X4730000Y7250000D02*
D03*
X3840000Y6720000D02*
D03*
X2910000Y9820000D02*
D03*
X3810000Y6370000D02*
D03*
X2890000Y6190000D02*
D03*
D68*
X3450000Y5830000D02*
D03*
X4640000Y770000D02*
D03*
X4480000Y910000D02*
D03*
X2640000Y810000D02*
D03*
X2540000Y600000D02*
D03*
X3690000Y5800000D02*
D03*
X3840000Y5880000D02*
D03*
X1310000Y2610000D02*
D03*
X3120000Y2500000D02*
D03*
X3250000Y2400000D02*
D03*
X6032644Y7399115D02*
D03*
X2480000Y6030000D02*
D03*
X2370000Y5820000D02*
D03*
X2270000Y10470000D02*
D03*
X2460000Y4930000D02*
D03*
X2230000Y8340000D02*
D03*
D69*
X7610440Y11170401D02*
D03*
X7609744Y570408D02*
D03*
X610025Y11170340D02*
D03*
X609512Y569810D02*
D03*
%TF.MD5,6aed05b02f4e7b34e9692e19b8f1951f*%
M02*
