%TF.GenerationSoftware,Altium Limited,Altium Designer,25.8.1 (18)*%
G04 Layer_Color=0*
%FSLAX45Y45*%
%MOMM*%
%TF.SameCoordinates,031978D1-9D18-463A-8735-F8186BF7E524*%
%TF.FilePolarity,Positive*%
%TF.FileFunction,Other,Top_Component_Center*%
%TF.Part,Single*%
G01*
G75*
%TA.AperFunction,NonConductor*%
%ADD73C,0.10000*%
D73*
X1230057Y4772385D02*
X1330057D01*
X1280057Y4722385D02*
Y4822385D01*
X2603839Y1897410D02*
X2703839D01*
X2653839Y1847410D02*
Y1947410D01*
X3498790Y7572539D02*
Y7672539D01*
X3448790Y7622539D02*
X3548790D01*
X3457639Y6474211D02*
X3557639D01*
X3507639Y6424211D02*
Y6524210D01*
X3160039Y7561211D02*
Y7661211D01*
X3110039Y7611211D02*
X3210039D01*
X2870045Y7611157D02*
X2970044D01*
X2920044Y7561158D02*
Y7661157D01*
X5688573Y6300039D02*
Y6400039D01*
X5638573Y6350039D02*
X5738573D01*
X5685911Y6020045D02*
Y6120045D01*
X5635911Y6070045D02*
X5735911D01*
X5338797Y6209996D02*
X5438797D01*
X5388797Y6159997D02*
Y6259996D01*
X3810090Y3521227D02*
X3910090D01*
X3860090Y3471227D02*
Y3571227D01*
X2848938Y2486610D02*
X2948938D01*
X2898938Y2436610D02*
Y2536610D01*
X4180003Y7281200D02*
Y7381199D01*
X4130003Y7331199D02*
X4230003D01*
X1229039Y6106211D02*
X1329039D01*
X1279039Y6056211D02*
Y6156210D01*
X1229039Y10106210D02*
X1329039D01*
X1279039Y10056210D02*
Y10156210D01*
X6140040Y6871211D02*
X6240040D01*
X6190040Y6821211D02*
Y6921211D01*
X1230039Y8771210D02*
X1330038D01*
X1280039Y8721210D02*
Y8821210D01*
X3557647Y6101211D02*
Y6201211D01*
X3507647Y6151211D02*
X3607647D01*
X1230039Y7441850D02*
X1330039D01*
X1280039Y7391851D02*
Y7491850D01*
X1229039Y3437430D02*
X1329039D01*
X1279039Y3387430D02*
Y3487430D01*
X2610056Y10811160D02*
Y10911160D01*
X2560056Y10861160D02*
X2660056D01*
X5950022Y2161266D02*
Y2261266D01*
X5900022Y2211266D02*
X6000022D01*
%TF.MD5,2bd290ffab41e3b422e91e4e81b4bbec*%
M02*
