%TF.GenerationSoftware,Altium Limited,Altium Designer,25.8.1 (18)*%
G04 Layer_Color=32768*
%FSLAX45Y45*%
%MOMM*%
%TF.SameCoordinates,031978D1-9D18-463A-8735-F8186BF7E524*%
%TF.FilePolarity,Positive*%
%TF.FileFunction,Other,Top_Designator*%
%TF.Part,Single*%
G01*
G75*
%TA.AperFunction,NonConductor*%
%ADD117C,0.15000*%
D117*
X7842519Y3408860D02*
X7692567D01*
Y3483836D01*
X7717559Y3508827D01*
X7767543D01*
X7792535Y3483836D01*
Y3408860D01*
X7692567Y3558811D02*
X7842519D01*
X7792535Y3608795D01*
X7842519Y3658779D01*
X7692567D01*
X7842519Y3708763D02*
X7692567D01*
Y3783738D01*
X7717559Y3808730D01*
X7767543D01*
X7792535Y3783738D01*
Y3708763D01*
Y3758747D02*
X7842519Y3808730D01*
X7867511Y3858714D02*
Y3958682D01*
X7692567Y4008666D02*
Y4058649D01*
Y4033657D01*
X7842519D01*
Y4008666D01*
Y4058649D01*
X7692567Y4208601D02*
Y4158617D01*
X7717559Y4133625D01*
X7817527D01*
X7842519Y4158617D01*
Y4208601D01*
X7817527Y4233593D01*
X7717559D01*
X7692567Y4208601D01*
X7842519Y4283577D02*
Y4333561D01*
Y4308568D01*
X7692567D01*
X7717559Y4283577D01*
X1858263Y2168643D02*
X2008215D01*
Y2268610D01*
Y2318594D02*
Y2368578D01*
Y2343586D01*
X1858263D01*
X1883255Y2318594D01*
%TF.MD5,da83c9dc6bcb3cbaed9ed96832747e80*%
M02*
