%TF.GenerationSoftware,Altium Limited,Altium Designer,25.8.1 (18)*%
G04 Layer_Color=16711935*
%FSLAX45Y45*%
%MOMM*%
%TF.SameCoordinates,031978D1-9D18-463A-8735-F8186BF7E524*%
%TF.FilePolarity,Positive*%
%TF.FileFunction,Other,Bottom_Courtyard*%
%TF.Part,Single*%
G01*
G75*
%TA.AperFunction,NonConductor*%
%ADD74C,0.20000*%
D74*
X5267081Y6904381D02*
Y7110203D01*
X5652903D01*
Y6904381D02*
Y7110203D01*
X5267081Y6904381D02*
X5652903D01*
X5269440Y6850884D02*
X5470653D01*
Y6469671D02*
Y6850884D01*
X5269440Y6469671D02*
X5470653D01*
X5269440D02*
Y6850884D01*
X5789440Y6850882D02*
X5990653D01*
Y6469669D02*
Y6850882D01*
X5789440Y6469669D02*
X5990653D01*
X5789440D02*
Y6850882D01*
X5529440Y6850883D02*
X5730653D01*
Y6469670D02*
Y6850883D01*
X5529440Y6469670D02*
X5730653D01*
X5529440D02*
Y6850883D01*
X4789432Y6956384D02*
X4990646D01*
Y6575170D02*
Y6956384D01*
X4789432Y6575170D02*
X4990646D01*
X4789432D02*
Y6956384D01*
X4131238Y6098477D02*
X4332451D01*
X4131238D02*
Y6479690D01*
X4332451D01*
Y6098477D02*
Y6479690D01*
X4987912Y6090604D02*
Y6291817D01*
X4606698Y6090604D02*
X4987912D01*
X4606698D02*
Y6291817D01*
X4987912D01*
X4136105Y6748798D02*
Y6950011D01*
X4517318D01*
Y6748798D02*
Y6950011D01*
X4136105Y6748798D02*
X4517318D01*
%TF.MD5,8dc96482ac07badf879bf173d571e403*%
M02*
