%TF.GenerationSoftware,Altium Limited,Altium Designer,25.8.1 (18)*%
G04 Layer_Color=8388736*
%FSLAX45Y45*%
%MOMM*%
%TF.SameCoordinates,031978D1-9D18-463A-8735-F8186BF7E524*%
%TF.FilePolarity,Negative*%
%TF.FileFunction,Soldermask,Top*%
%TF.Part,Single*%
G01*
G75*
%TA.AperFunction,SMDPad,CuDef*%
G04:AMPARAMS|DCode=10|XSize=1.55439mm|YSize=0.57213mm|CornerRadius=0.28606mm|HoleSize=0mm|Usage=FLASHONLY|Rotation=0.000|XOffset=0mm|YOffset=0mm|HoleType=Round|Shape=RoundedRectangle|*
%AMROUNDEDRECTD10*
21,1,1.55439,0.00000,0,0,0.0*
21,1,0.98226,0.57213,0,0,0.0*
1,1,0.57213,0.49113,0.00000*
1,1,0.57213,-0.49113,0.00000*
1,1,0.57213,-0.49113,0.00000*
1,1,0.57213,0.49113,0.00000*
%
%ADD10ROUNDEDRECTD10*%
%ADD11R,1.55439X0.57213*%
%ADD21R,1.15814X1.01213*%
%ADD27R,0.45000X0.35000*%
%ADD28R,0.35000X0.45000*%
%ADD30R,1.01213X1.15814*%
%ADD32R,0.90000X0.80000*%
%ADD33R,1.40000X2.80000*%
%ADD39R,1.40000X0.75000*%
%ADD40R,1.30606X1.05822*%
%ADD41R,1.05822X1.30606*%
G04:AMPARAMS|DCode=43|XSize=1.55748mm|YSize=0.74248mm|CornerRadius=0.37124mm|HoleSize=0mm|Usage=FLASHONLY|Rotation=270.000|XOffset=0mm|YOffset=0mm|HoleType=Round|Shape=RoundedRectangle|*
%AMROUNDEDRECTD43*
21,1,1.55748,0.00000,0,0,270.0*
21,1,0.81501,0.74248,0,0,270.0*
1,1,0.74247,0.00000,-0.40750*
1,1,0.74247,0.00000,0.40750*
1,1,0.74247,0.00000,0.40750*
1,1,0.74247,0.00000,-0.40750*
%
%ADD43ROUNDEDRECTD43*%
%ADD44R,0.74248X1.55748*%
%ADD46R,2.18000X1.62000*%
G04:AMPARAMS|DCode=47|XSize=1.55748mm|YSize=0.74248mm|CornerRadius=0.37124mm|HoleSize=0mm|Usage=FLASHONLY|Rotation=0.000|XOffset=0mm|YOffset=0mm|HoleType=Round|Shape=RoundedRectangle|*
%AMROUNDEDRECTD47*
21,1,1.55748,0.00000,0,0,0.0*
21,1,0.81501,0.74248,0,0,0.0*
1,1,0.74247,0.40750,0.00000*
1,1,0.74247,-0.40750,0.00000*
1,1,0.74247,-0.40750,0.00000*
1,1,0.74247,0.40750,0.00000*
%
%ADD47ROUNDEDRECTD47*%
%ADD48R,1.55748X0.74248*%
%TA.AperFunction,ComponentPad*%
%ADD53C,1.45000*%
%ADD54C,2.15000*%
%ADD55R,1.45000X1.45000*%
%ADD63C,1.60000*%
%TA.AperFunction,ViaPad*%
%ADD69C,5.00000*%
%TA.AperFunction,SMDPad,CuDef*%
%ADD78R,0.65000X1.15000*%
%ADD79R,2.40000X1.90000*%
G04:AMPARAMS|DCode=80|XSize=0.9mm|YSize=1.1mm|CornerRadius=0.15mm|HoleSize=0mm|Usage=FLASHONLY|Rotation=90.000|XOffset=0mm|YOffset=0mm|HoleType=Round|Shape=RoundedRectangle|*
%AMROUNDEDRECTD80*
21,1,0.90000,0.80000,0,0,90.0*
21,1,0.60000,1.10000,0,0,90.0*
1,1,0.30000,0.40000,0.30000*
1,1,0.30000,0.40000,-0.30000*
1,1,0.30000,-0.40000,-0.30000*
1,1,0.30000,-0.40000,0.30000*
%
%ADD80ROUNDEDRECTD80*%
%ADD81R,0.70000X1.25000*%
G04:AMPARAMS|DCode=82|XSize=0.9mm|YSize=1.1mm|CornerRadius=0.15mm|HoleSize=0mm|Usage=FLASHONLY|Rotation=180.000|XOffset=0mm|YOffset=0mm|HoleType=Round|Shape=RoundedRectangle|*
%AMROUNDEDRECTD82*
21,1,0.90000,0.80000,0,0,180.0*
21,1,0.60000,1.10000,0,0,180.0*
1,1,0.30000,-0.30000,0.40000*
1,1,0.30000,0.30000,0.40000*
1,1,0.30000,0.30000,-0.40000*
1,1,0.30000,-0.30000,-0.40000*
%
%ADD82ROUNDEDRECTD82*%
%ADD83R,1.82500X0.75000*%
%ADD84R,0.40000X1.57500*%
%ADD85R,1.15000X0.65000*%
%ADD86R,2.30000X2.25000*%
%ADD87R,1.57500X0.40000*%
%ADD88O,2.00000X0.70000*%
%ADD89R,0.60000X1.20000*%
%ADD90R,0.95000X0.35000*%
%ADD91R,1.80000X2.80000*%
%ADD92R,1.62500X0.75000*%
G04:AMPARAMS|DCode=93|XSize=0.65mm|YSize=0.9mm|CornerRadius=0.0995mm|HoleSize=0mm|Usage=FLASHONLY|Rotation=270.000|XOffset=0mm|YOffset=0mm|HoleType=Round|Shape=RoundedRectangle|*
%AMROUNDEDRECTD93*
21,1,0.65000,0.70100,0,0,270.0*
21,1,0.45100,0.90000,0,0,270.0*
1,1,0.19900,-0.35050,-0.22550*
1,1,0.19900,-0.35050,0.22550*
1,1,0.19900,0.35050,0.22550*
1,1,0.19900,0.35050,-0.22550*
%
%ADD93ROUNDEDRECTD93*%
G04:AMPARAMS|DCode=94|XSize=1.1mm|YSize=1.9mm|CornerRadius=0.175mm|HoleSize=0mm|Usage=FLASHONLY|Rotation=0.000|XOffset=0mm|YOffset=0mm|HoleType=Round|Shape=RoundedRectangle|*
%AMROUNDEDRECTD94*
21,1,1.10000,1.55000,0,0,0.0*
21,1,0.75000,1.90000,0,0,0.0*
1,1,0.35000,0.37500,-0.77500*
1,1,0.35000,-0.37500,-0.77500*
1,1,0.35000,-0.37500,0.77500*
1,1,0.35000,0.37500,0.77500*
%
%ADD94ROUNDEDRECTD94*%
%ADD95R,3.45000X1.95000*%
%ADD96R,1.95000X3.45000*%
%ADD97R,2.30000X1.70000*%
%ADD98R,0.35000X0.95000*%
%ADD99R,1.90000X1.27000*%
%ADD100R,1.27000X1.90000*%
%TA.AperFunction,ComponentPad*%
%ADD101C,2.80000*%
G04:AMPARAMS|DCode=102|XSize=2.8mm|YSize=2.8mm|CornerRadius=0.725mm|HoleSize=0mm|Usage=FLASHONLY|Rotation=90.000|XOffset=0mm|YOffset=0mm|HoleType=Round|Shape=RoundedRectangle|*
%AMROUNDEDRECTD102*
21,1,2.80000,1.35000,0,0,90.0*
21,1,1.35000,2.80000,0,0,90.0*
1,1,1.45000,0.67500,0.67500*
1,1,1.45000,0.67500,-0.67500*
1,1,1.45000,-0.67500,-0.67500*
1,1,1.45000,-0.67500,0.67500*
%
%ADD102ROUNDEDRECTD102*%
%ADD103C,3.10000*%
%ADD104C,4.90000*%
%ADD105R,1.65000X1.65000*%
%ADD106C,2.05000*%
%ADD107C,1.70000*%
%ADD108C,1.65000*%
%ADD109R,1.70000X1.70000*%
%ADD110R,2.05000X2.05000*%
D10*
X2763868Y1802410D02*
D03*
X2543809Y1897410D02*
D03*
X2763868D02*
D03*
Y1992410D02*
D03*
X2543809Y1802410D02*
D03*
D11*
Y1992410D02*
D03*
D21*
X5771273Y6350039D02*
D03*
X5768610Y6070045D02*
D03*
X4097303Y7331199D02*
D03*
X5603211Y6070045D02*
D03*
X5605874Y6350039D02*
D03*
X4262702Y7331199D02*
D03*
D27*
X3621290Y7672539D02*
D03*
Y7622539D02*
D03*
Y7572539D02*
D03*
X3376290Y7672539D02*
D03*
Y7622539D02*
D03*
Y7572539D02*
D03*
D28*
X3598790Y7500039D02*
D03*
X3448790Y7745039D02*
D03*
X3548790D02*
D03*
Y7500039D02*
D03*
X3398790D02*
D03*
X3448790D02*
D03*
X3498790D02*
D03*
X3598790Y7745039D02*
D03*
X3498790D02*
D03*
X3398790D02*
D03*
D30*
X3160039Y7693910D02*
D03*
X2920044Y7693857D02*
D03*
X3160039Y7528511D02*
D03*
X2920044Y7528458D02*
D03*
D32*
X3960090Y3616227D02*
D03*
Y3426227D02*
D03*
X3760090Y3521227D02*
D03*
D33*
X3377639Y6474211D02*
D03*
X3637639D02*
D03*
D39*
X5388797Y6137496D02*
D03*
Y6282496D02*
D03*
D40*
X3635255Y6151211D02*
D03*
X3480039D02*
D03*
D41*
X2898938Y2409002D02*
D03*
Y2564218D02*
D03*
D43*
X6190040Y6701174D02*
D03*
D44*
Y7041248D02*
D03*
D46*
X2610056Y11072160D02*
D03*
Y10650160D02*
D03*
D47*
X6120059Y2211266D02*
D03*
D48*
X5779985D02*
D03*
D53*
X1791057Y5197385D02*
D03*
X1790039Y6531210D02*
D03*
X1790039Y10531210D02*
D03*
X1791039Y9196210D02*
D03*
X1791039Y7866850D02*
D03*
X1790039Y3862430D02*
D03*
D54*
X1071057Y5147385D02*
D03*
X771057Y4347385D02*
D03*
Y5147385D02*
D03*
X771039Y7016851D02*
D03*
X1070039Y6481211D02*
D03*
X770039D02*
D03*
Y5681211D02*
D03*
X770039Y9681210D02*
D03*
X1070039Y10481210D02*
D03*
X770039D02*
D03*
X771039Y8346210D02*
D03*
X1071039Y9146210D02*
D03*
X771039D02*
D03*
X771039Y7816851D02*
D03*
X1071040D02*
D03*
X770039Y3812430D02*
D03*
Y3012430D02*
D03*
X1070039Y3812430D02*
D03*
D55*
X1131057Y4447385D02*
D03*
X1130039Y3112430D02*
D03*
X1131039Y7116850D02*
D03*
X1131039Y8446210D02*
D03*
X1130039Y9781210D02*
D03*
X1130039Y5781210D02*
D03*
D63*
X7407039Y9265211D02*
D03*
Y8443210D02*
D03*
X7153039Y8854210D02*
D03*
Y9128210D02*
D03*
Y8306210D02*
D03*
Y9402211D02*
D03*
Y8580210D02*
D03*
X7407039Y8991210D02*
D03*
Y8717210D02*
D03*
D69*
X7610440Y11170401D02*
D03*
X7609744Y570408D02*
D03*
X610025Y11170340D02*
D03*
X609512Y569810D02*
D03*
D78*
X6690046Y8426170D02*
D03*
X6170038Y5006210D02*
D03*
X6170034Y5846252D02*
D03*
X6170033Y5426260D02*
D03*
X6167539Y3986210D02*
D03*
X6167539Y3553509D02*
D03*
X6167538Y3111689D02*
D03*
X6170038Y5236210D02*
D03*
X6167539Y3783509D02*
D03*
X6167538Y3341689D02*
D03*
X6170034Y6076252D02*
D03*
X6690046Y8196170D02*
D03*
X6167539Y4216211D02*
D03*
X6170033Y5656260D02*
D03*
D79*
X6680028Y7636250D02*
D03*
Y7926250D02*
D03*
D80*
X6370039Y7791210D02*
D03*
X6150041Y8146174D02*
D03*
X5711501Y6923507D02*
D03*
X5690034Y4686260D02*
D03*
X5680033Y3536247D02*
D03*
X5680039Y3348910D02*
D03*
X5500039Y2304671D02*
D03*
X5270039Y2303511D02*
D03*
X5340027Y1376253D02*
D03*
X4360039Y4678910D02*
D03*
X4360033Y3546255D02*
D03*
X4360044Y3356171D02*
D03*
X2668439Y2409311D02*
D03*
X2461191D02*
D03*
X3208439Y2118310D02*
D03*
X3001639Y2119610D02*
D03*
X4520087Y1106222D02*
D03*
X3001639Y1969610D02*
D03*
X3208439Y1968310D02*
D03*
X3001289Y1769610D02*
D03*
X3208439D02*
D03*
X5550083Y1226222D02*
D03*
X5550026Y1036257D02*
D03*
X5550083Y1376222D02*
D03*
X5340027Y1226253D02*
D03*
X5120028Y1666261D02*
D03*
X5550026Y886257D02*
D03*
X4520087Y1256222D02*
D03*
X4360033Y3696255D02*
D03*
X4560098Y3696216D02*
D03*
X4360039Y4828910D02*
D03*
X4560095Y4826216D02*
D03*
X4850001Y5756204D02*
D03*
Y5606204D02*
D03*
X4620002Y5606204D02*
D03*
X5680033Y3686247D02*
D03*
X5480084Y3686216D02*
D03*
X5690034Y4836260D02*
D03*
X5490082Y4836216D02*
D03*
X4620002Y5756204D02*
D03*
X6130076Y10236221D02*
D03*
X5780075Y7746221D02*
D03*
X3417008Y1769610D02*
D03*
X4360044Y3206171D02*
D03*
X4560097Y3206216D02*
D03*
X5480039Y3351211D02*
D03*
X5480084Y3536216D02*
D03*
X4560097Y3356216D02*
D03*
X4560098Y3546216D02*
D03*
X6130076Y10386221D02*
D03*
X4560095Y4676216D02*
D03*
X6150041Y8296174D02*
D03*
X6370078Y8296213D02*
D03*
Y8146213D02*
D03*
X5490082Y4686216D02*
D03*
X5711501Y7073507D02*
D03*
X5489997Y4346205D02*
D03*
Y4496205D02*
D03*
X6370039Y7941210D02*
D03*
X5780075Y7896221D02*
D03*
X5500039Y2454671D02*
D03*
X5680039Y3198910D02*
D03*
X4560034Y4336266D02*
D03*
Y4486266D02*
D03*
X5120028Y1816261D02*
D03*
X5270039Y2453511D02*
D03*
X5935070Y6922292D02*
D03*
Y7072292D02*
D03*
X5480039Y3201211D02*
D03*
X3208439Y1619610D02*
D03*
X3001289D02*
D03*
X2461191Y2559311D02*
D03*
X3417008Y1619610D02*
D03*
X3960022Y3256260D02*
D03*
Y3106260D02*
D03*
X2668439Y2559311D02*
D03*
D81*
X6070027Y7941251D02*
D03*
X5975027Y7681251D02*
D03*
X6165027D02*
D03*
Y7941251D02*
D03*
X5975027D02*
D03*
D82*
X6315039Y7501211D02*
D03*
X5214972Y5709217D02*
D03*
X5485037Y1581251D02*
D03*
X3896210Y5489960D02*
D03*
X3896174Y4899956D02*
D03*
X3897750Y4310137D02*
D03*
X3552939Y2589611D02*
D03*
X3552938Y2379671D02*
D03*
X4375028Y1461256D02*
D03*
X4375027Y1671254D02*
D03*
X2762213Y1489611D02*
D03*
X3565037Y533571D02*
D03*
X3565036Y313571D02*
D03*
X2094639Y1582810D02*
D03*
X2600938Y1279611D02*
D03*
X2612213Y1489611D02*
D03*
X2244639Y1582810D02*
D03*
X2450938Y1279611D02*
D03*
X3065002Y533532D02*
D03*
X4765027Y1671260D02*
D03*
X4764990Y1891199D02*
D03*
X4525027Y1671254D02*
D03*
X5335037Y1581251D02*
D03*
X4915027Y1671260D02*
D03*
X4525028Y1461256D02*
D03*
X5064972Y5709217D02*
D03*
X4956579Y7361211D02*
D03*
X4905039Y3001210D02*
D03*
X4755039D02*
D03*
X6165039Y7501211D02*
D03*
X5106579Y7361211D02*
D03*
X5135044Y3001164D02*
D03*
X3402939Y2589611D02*
D03*
X3402938Y2379671D02*
D03*
X3386578Y4994317D02*
D03*
X3385039Y4401210D02*
D03*
X3384986Y3811194D02*
D03*
X3384982Y3221194D02*
D03*
X3065002Y313530D02*
D03*
X3745039Y4701210D02*
D03*
X3895039D02*
D03*
X3746210Y5489960D02*
D03*
X3215002Y313530D02*
D03*
Y533532D02*
D03*
X3415037Y533571D02*
D03*
X3415036Y313571D02*
D03*
X5285044Y3001164D02*
D03*
X4914990Y1891199D02*
D03*
X3745000Y5291205D02*
D03*
X3895000D02*
D03*
X3746174Y4899956D02*
D03*
X3535039Y4401210D02*
D03*
X3747750Y4310137D02*
D03*
X3746578Y4111210D02*
D03*
X3896578D02*
D03*
X3536578Y4994317D02*
D03*
X3534982Y3221194D02*
D03*
X3534986Y3811194D02*
D03*
X5724984Y2441194D02*
D03*
X5874984D02*
D03*
D83*
X5336339Y7811210D02*
D03*
X4718739D02*
D03*
Y7557210D02*
D03*
X5336339D02*
D03*
D84*
X4885039Y7095010D02*
D03*
Y5947410D02*
D03*
X4235039Y7095010D02*
D03*
X4835039Y5947410D02*
D03*
X4785039D02*
D03*
X4735039D02*
D03*
X4685039D02*
D03*
X4635039D02*
D03*
X4585039D02*
D03*
X4535039D02*
D03*
X4485039D02*
D03*
X4435039D02*
D03*
X4385039D02*
D03*
X4335039D02*
D03*
X4285039D02*
D03*
X4235039D02*
D03*
X4185039D02*
D03*
X4285039Y7095010D02*
D03*
X4385039D02*
D03*
X4435039D02*
D03*
X4485039D02*
D03*
X4535039D02*
D03*
X4585039D02*
D03*
X4635039D02*
D03*
X4685039D02*
D03*
X4735039D02*
D03*
X4785039D02*
D03*
X4935039D02*
D03*
X4185039D02*
D03*
X4935039Y5947410D02*
D03*
X4835039Y7095010D02*
D03*
X4335039D02*
D03*
D85*
X7445039Y6621210D02*
D03*
X7215039D02*
D03*
D86*
X6930039Y6731211D02*
D03*
X6490039D02*
D03*
D87*
X5133839Y6696210D02*
D03*
X3986239Y6196210D02*
D03*
X5133839Y6846210D02*
D03*
Y6496210D02*
D03*
X3986239Y6246210D02*
D03*
Y6296210D02*
D03*
Y6346210D02*
D03*
Y6396210D02*
D03*
Y6446210D02*
D03*
Y6496210D02*
D03*
Y6546210D02*
D03*
Y6596210D02*
D03*
Y6646210D02*
D03*
Y6696210D02*
D03*
Y6746210D02*
D03*
Y6796210D02*
D03*
Y6846210D02*
D03*
Y6896210D02*
D03*
X5133839D02*
D03*
Y6796210D02*
D03*
Y6746210D02*
D03*
Y6546210D02*
D03*
Y6396210D02*
D03*
Y6346210D02*
D03*
Y6196210D02*
D03*
Y6146210D02*
D03*
X3986239D02*
D03*
X5133839Y6446210D02*
D03*
Y6296210D02*
D03*
Y6246210D02*
D03*
Y6646210D02*
D03*
Y6596210D02*
D03*
D88*
X4784987Y4360704D02*
D03*
X4784985Y3260705D02*
D03*
X5254987Y4741704D02*
D03*
X5254985Y3641705D02*
D03*
Y3260705D02*
D03*
Y3387705D02*
D03*
Y3514705D02*
D03*
X4784985Y3387705D02*
D03*
Y3514705D02*
D03*
Y3641705D02*
D03*
X4784987Y4741704D02*
D03*
Y4614704D02*
D03*
Y4487704D02*
D03*
X5254987Y4614704D02*
D03*
Y4487704D02*
D03*
Y4360704D02*
D03*
D89*
X6120039Y1743711D02*
D03*
Y1978710D02*
D03*
D90*
X5060038Y1191210D02*
D03*
X4770038Y941210D02*
D03*
Y991210D02*
D03*
Y1041210D02*
D03*
X5060038Y1141210D02*
D03*
Y1091210D02*
D03*
X4770038D02*
D03*
Y1141210D02*
D03*
Y1191210D02*
D03*
X5060038Y941210D02*
D03*
Y991210D02*
D03*
Y1041210D02*
D03*
D91*
X4915038Y1066210D02*
D03*
D92*
X2761239Y9804710D02*
D03*
Y9550710D02*
D03*
X2761282Y7144727D02*
D03*
Y6890727D02*
D03*
X2761286Y4474728D02*
D03*
Y4220728D02*
D03*
X2761239Y9677710D02*
D03*
X2761282Y7271727D02*
D03*
X2761286Y4601728D02*
D03*
X2761282Y7017727D02*
D03*
X2761239Y9931710D02*
D03*
X2761286Y4347728D02*
D03*
X2218839Y9931710D02*
D03*
Y9804710D02*
D03*
Y9677710D02*
D03*
Y9550710D02*
D03*
X2218886Y4220728D02*
D03*
Y4347728D02*
D03*
Y4474728D02*
D03*
Y4601728D02*
D03*
X2218882Y7271727D02*
D03*
Y7144727D02*
D03*
Y7017727D02*
D03*
Y6890727D02*
D03*
D93*
X3587583Y4796216D02*
D03*
X3585039Y5391210D02*
D03*
X3587587Y4206216D02*
D03*
X3587538Y3616210D02*
D03*
X3332583Y4796216D02*
D03*
X3332538Y3616210D02*
D03*
X3332587Y4206216D02*
D03*
X3330039Y5391210D02*
D03*
Y5201210D02*
D03*
X3332587Y4016216D02*
D03*
X3332583Y4606216D02*
D03*
X3332538Y3426210D02*
D03*
X3587583Y4606216D02*
D03*
Y4701216D02*
D03*
X3587587Y4016216D02*
D03*
Y4111216D02*
D03*
X3585039Y5201210D02*
D03*
Y5296210D02*
D03*
X3587538Y3426210D02*
D03*
Y3521210D02*
D03*
D94*
X1928539Y1324710D02*
D03*
X2238539D02*
D03*
D95*
X1640039Y791210D02*
D03*
X2230039D02*
D03*
D96*
X1120039Y1916210D02*
D03*
Y2506210D02*
D03*
D97*
X1933239Y1948611D02*
D03*
Y2588611D02*
D03*
D98*
X4890038Y871210D02*
D03*
X4840038D02*
D03*
Y1261210D02*
D03*
X4890038D02*
D03*
X4940038D02*
D03*
X4990039D02*
D03*
X4940038Y871210D02*
D03*
X4990039D02*
D03*
D99*
X2240046Y5318173D02*
D03*
Y5024173D02*
D03*
X2220032Y8908250D02*
D03*
Y8614250D02*
D03*
X2240046Y6326819D02*
D03*
Y6032819D02*
D03*
D100*
X2167039Y11071211D02*
D03*
X1873039D02*
D03*
D101*
X6480039Y1561211D02*
D03*
X7030039Y2821212D02*
D03*
X6480039Y2821211D02*
D03*
Y1981211D02*
D03*
Y2401211D02*
D03*
Y3241211D02*
D03*
Y3661211D02*
D03*
Y4081211D02*
D03*
Y4501211D02*
D03*
Y4921211D02*
D03*
Y5341211D02*
D03*
Y5761211D02*
D03*
Y6181211D02*
D03*
X7030039Y4501211D02*
D03*
Y5761211D02*
D03*
Y5341211D02*
D03*
Y4921211D02*
D03*
Y4081211D02*
D03*
Y3661211D02*
D03*
Y3241211D02*
D03*
Y2401212D02*
D03*
Y1561212D02*
D03*
Y1981212D02*
D03*
D102*
Y6181211D02*
D03*
D103*
X7760039Y6181211D02*
D03*
Y1561210D02*
D03*
D104*
X7280039Y10103711D02*
D03*
Y7604710D02*
D03*
D105*
X5449961Y8942790D02*
D03*
D106*
X3770039Y10391210D02*
D03*
D107*
X4112539Y8785210D02*
D03*
Y8531210D02*
D03*
X4620539D02*
D03*
X4366539D02*
D03*
X3604539Y8785210D02*
D03*
X3858539D02*
D03*
X4366539D02*
D03*
X3604539Y8531210D02*
D03*
X3858539D02*
D03*
D108*
X5449961Y8688790D02*
D03*
Y8434790D02*
D03*
D109*
X4620539Y8785210D02*
D03*
D110*
X5770039Y10391210D02*
D03*
%TF.MD5,52d789a950c62899f7df29e85ce5f803*%
M02*
