%TF.GenerationSoftware,Altium Limited,Altium Designer,25.8.1 (18)*%
G04 Layer_Physical_Order=3*
G04 Layer_Color=36540*
%FSLAX45Y45*%
%MOMM*%
%TF.SameCoordinates,031978D1-9D18-463A-8735-F8186BF7E524*%
%TF.FilePolarity,Positive*%
%TF.FileFunction,Copper,L3,Inr,Signal*%
%TF.Part,Single*%
G01*
G75*
%TA.AperFunction,Conductor*%
%ADD49C,0.25400*%
%ADD52C,0.76200*%
%TA.AperFunction,ComponentPad*%
%ADD53C,1.45000*%
%ADD54C,2.15000*%
%ADD55R,1.45000X1.45000*%
%ADD56C,2.70000*%
G04:AMPARAMS|DCode=57|XSize=2.7mm|YSize=2.7mm|CornerRadius=0.675mm|HoleSize=0mm|Usage=FLASHONLY|Rotation=90.000|XOffset=0mm|YOffset=0mm|HoleType=Round|Shape=RoundedRectangle|*
%AMROUNDEDRECTD57*
21,1,2.70000,1.35000,0,0,90.0*
21,1,1.35000,2.70000,0,0,90.0*
1,1,1.35000,0.67500,0.67500*
1,1,1.35000,0.67500,-0.67500*
1,1,1.35000,-0.67500,-0.67500*
1,1,1.35000,-0.67500,0.67500*
%
%ADD57ROUNDEDRECTD57*%
%ADD58C,3.00000*%
%ADD59C,4.80000*%
%ADD60C,1.50000*%
%ADD61R,1.55000X1.55000*%
%ADD62C,1.95000*%
%ADD63C,1.60000*%
%ADD64C,1.55000*%
%ADD65R,1.60000X1.60000*%
%ADD66R,1.95000X1.95000*%
%TA.AperFunction,ViaPad*%
%ADD67C,0.45700*%
%ADD68C,1.27000*%
%ADD69C,5.00000*%
G36*
X4810000Y1080000D02*
Y910000D01*
X4910000D01*
Y700000D01*
X4835301Y625301D01*
X4824275Y636327D01*
X4808526Y642850D01*
X4791479D01*
X4775730Y636327D01*
X4763676Y624273D01*
X4757153Y608524D01*
Y591477D01*
X4763676Y575728D01*
X4774702Y564702D01*
X4640000Y430000D01*
X4530602D01*
X4524275Y436327D01*
X4508526Y442850D01*
X4491479D01*
X4475730Y436327D01*
X4469403Y430000D01*
X4330601D01*
X4324275Y436327D01*
X4308526Y442850D01*
X4291479D01*
X4275730Y436327D01*
X4269403Y430000D01*
X4130601D01*
X4124275Y436327D01*
X4108526Y442850D01*
X4091479D01*
X4075730Y436327D01*
X4069403Y430000D01*
X3930601D01*
X3924275Y436327D01*
X3908526Y442850D01*
X3891479D01*
X3875730Y436327D01*
X3869403Y430000D01*
X3730601D01*
X3724274Y436327D01*
X3708525Y442850D01*
X3691479D01*
X3675730Y436327D01*
X3669403Y430000D01*
X3330601D01*
X3324274Y436327D01*
X3308525Y442850D01*
X3291478D01*
X3275729Y436327D01*
X3269403Y430000D01*
X2300000D01*
X2020000Y710000D01*
Y1080000D01*
X2100000Y1160000D01*
X2684600D01*
X2691478Y1157151D01*
X2708525D01*
X2715403Y1160000D01*
X3084600D01*
X3091478Y1157151D01*
X3108525D01*
X3115403Y1160000D01*
X3284600D01*
X3291478Y1157151D01*
X3308525D01*
X3315404Y1160000D01*
X3484600D01*
X3491478Y1157151D01*
X3508525D01*
X3515404Y1160000D01*
X3684600D01*
X3691479Y1157151D01*
X3708525D01*
X3715404Y1160000D01*
X3884600D01*
X3891479Y1157151D01*
X3908526D01*
X3915404Y1160000D01*
X4084600D01*
X4091479Y1157151D01*
X4108526D01*
X4115404Y1160000D01*
X4284601D01*
X4291479Y1157151D01*
X4308526D01*
X4315404Y1160000D01*
X4652285D01*
X4660446Y1156619D01*
X4677493D01*
X4685654Y1160000D01*
X4730000D01*
X4810000Y1080000D01*
D02*
G37*
G36*
X6130000Y7900000D02*
X6270000Y7760000D01*
Y7350000D01*
X6156897Y7236896D01*
X6146641Y7230604D01*
X6126359Y7234247D01*
X6124276Y7236330D01*
X6108527Y7242854D01*
X6091480D01*
X6075731Y7236330D01*
X6063677Y7224276D01*
X6057153Y7208527D01*
Y7191480D01*
X6063677Y7175731D01*
X6075731Y7163678D01*
X6091480Y7157154D01*
X6108527D01*
X6124276Y7163678D01*
X6124600Y7164002D01*
X6150000Y7153480D01*
Y6846527D01*
X6124600Y6836006D01*
X6124276Y6836330D01*
X6108527Y6842853D01*
X6091480D01*
X6075731Y6836330D01*
X6063677Y6824276D01*
X6057153Y6808527D01*
Y6791480D01*
X6063677Y6775731D01*
X6075731Y6763677D01*
X6091480Y6757154D01*
X6108527D01*
X6124276Y6763677D01*
X6124600Y6764001D01*
X6150000Y6753480D01*
Y6446527D01*
X6124600Y6436006D01*
X6124276Y6436330D01*
X6108527Y6442853D01*
X6091480D01*
X6075731Y6436330D01*
X6063677Y6424276D01*
X6057153Y6408527D01*
Y6391480D01*
X6063677Y6375731D01*
X6075731Y6363677D01*
X6091480Y6357154D01*
X6108527D01*
X6124276Y6363677D01*
X6124600Y6364001D01*
X6150000Y6353480D01*
Y6057150D01*
X6056190Y5963341D01*
X5752808D01*
X5749822Y5966326D01*
X5734073Y5972850D01*
X5717026D01*
X5701277Y5966326D01*
X5689224Y5954273D01*
X5682700Y5938524D01*
Y5921477D01*
X5689224Y5905728D01*
X5701277Y5893674D01*
X5717026Y5887150D01*
X5734073D01*
X5749822Y5893674D01*
X5752808Y5896660D01*
X6070000D01*
X6082759Y5899197D01*
X6093575Y5906425D01*
X6126533Y5939383D01*
X6150000Y5929663D01*
Y4685403D01*
X6147150Y4678524D01*
Y4661477D01*
X6150000Y4654597D01*
Y3110000D01*
Y3080000D01*
X6210000Y3020000D01*
X6949486D01*
X6957154Y3008525D01*
Y2991478D01*
X6963677Y2975729D01*
X6975731Y2963675D01*
X6991480Y2957152D01*
X7008527D01*
X7024276Y2963675D01*
X7036330Y2975729D01*
X7042854Y2991478D01*
Y3008525D01*
X7050521Y3020000D01*
X7149487D01*
X7157154Y3008525D01*
Y2991478D01*
X7163678Y2975729D01*
X7175731Y2963675D01*
X7191480Y2957152D01*
X7208527D01*
X7224276Y2963675D01*
X7248245Y2951723D01*
X7270000Y2929968D01*
Y2720000D01*
X7192851Y2642851D01*
X7191480D01*
X7175731Y2636328D01*
X7169404Y2630000D01*
X7030604D01*
X7024276Y2636328D01*
X7008527Y2642851D01*
X6991480D01*
X6975731Y2636328D01*
X6969404Y2630000D01*
X4980000D01*
X4592851Y2242851D01*
X4591479D01*
X4575730Y2236328D01*
X4563676Y2224274D01*
X4557153Y2208525D01*
Y2207153D01*
X4550000Y2200000D01*
X4442852D01*
Y2208525D01*
X4436329Y2224274D01*
X4424275Y2236328D01*
X4408526Y2242851D01*
X4391479D01*
X4375730Y2236328D01*
X4363676Y2224274D01*
X4357153Y2208525D01*
Y2200000D01*
X4042852D01*
Y2208525D01*
X4036328Y2224274D01*
X4024275Y2236328D01*
X4008526Y2242851D01*
X3991479D01*
X3975730Y2236328D01*
X3963676Y2224274D01*
X3957152Y2208525D01*
Y2200000D01*
X3842852D01*
Y2208525D01*
X3836328Y2224274D01*
X3824275Y2236328D01*
X3808526Y2242851D01*
X3791479D01*
X3775730Y2236328D01*
X3763676Y2224274D01*
X3757152Y2208525D01*
Y2200000D01*
X3642852D01*
Y2208525D01*
X3636328Y2224274D01*
X3624274Y2236328D01*
X3608525Y2242851D01*
X3591478D01*
X3575729Y2236328D01*
X3563676Y2224274D01*
X3557152Y2208525D01*
Y2200000D01*
X2842851D01*
Y2208525D01*
X2836328Y2224274D01*
X2824274Y2236328D01*
X2808525Y2242851D01*
X2791478D01*
X2781346Y2238654D01*
X2620000Y2400000D01*
Y2961905D01*
X2624274Y2963675D01*
X2636328Y2975729D01*
X2642851Y2991478D01*
Y3008525D01*
X2636328Y3024274D01*
X2624274Y3036328D01*
X2620000Y3038098D01*
Y4161906D01*
X2624274Y4163676D01*
X2636328Y4175730D01*
X2642851Y4191479D01*
Y4208526D01*
X2636328Y4224275D01*
X2624274Y4236329D01*
X2620000Y4238099D01*
Y4561906D01*
X2624274Y4563676D01*
X2636328Y4575730D01*
X2642851Y4591479D01*
Y4608526D01*
X2636328Y4624275D01*
X2624274Y4636329D01*
X2620000Y4638099D01*
Y5361906D01*
X2624274Y5363677D01*
X2636328Y5375730D01*
X2642851Y5391479D01*
Y5408526D01*
X2636328Y5424275D01*
X2624274Y5436329D01*
X2620000Y5438100D01*
Y6561907D01*
X2624274Y6563677D01*
X2636328Y6575731D01*
X2642851Y6591480D01*
Y6608527D01*
X2636328Y6624276D01*
X2624274Y6636330D01*
X2620000Y6638100D01*
Y6961907D01*
X2624274Y6963677D01*
X2636328Y6975731D01*
X2642851Y6991480D01*
Y7008527D01*
X2636328Y7024276D01*
X2624274Y7036330D01*
X2620000Y7038100D01*
Y7361907D01*
X2624274Y7363678D01*
X2636328Y7375732D01*
X2642851Y7391481D01*
Y7408527D01*
X2636328Y7424276D01*
X2624274Y7436330D01*
X2620000Y7438101D01*
Y7571252D01*
X2635639Y7587776D01*
X2636687Y7588464D01*
X2661782Y7580301D01*
X2663675Y7575732D01*
X2675729Y7563678D01*
X2691478Y7557154D01*
X2708525D01*
X2724274Y7563678D01*
X2736328Y7575732D01*
X2742851Y7591481D01*
Y7608528D01*
X2736328Y7624277D01*
X2724274Y7636330D01*
X2715773Y7639852D01*
X2708335Y7660680D01*
X2708254Y7668254D01*
X2797154Y7757154D01*
X2808525D01*
X2824274Y7763678D01*
X2836328Y7775732D01*
X2842851Y7791481D01*
Y7802851D01*
X2940000Y7900000D01*
X3357606D01*
X3373789Y7874600D01*
X3373203Y7873185D01*
Y7856138D01*
X3379727Y7840389D01*
X3391780Y7828335D01*
X3407529Y7821811D01*
X3424576D01*
X3440325Y7828335D01*
X3452379Y7840389D01*
X3458903Y7856138D01*
Y7873185D01*
X3458316Y7874600D01*
X3474500Y7900000D01*
X3517150D01*
Y7891476D01*
X3523674Y7875727D01*
X3535727Y7863674D01*
X3551477Y7857150D01*
X3568523D01*
X3584272Y7863674D01*
X3596326Y7875727D01*
X3602850Y7891476D01*
Y7900000D01*
X5370000D01*
X6130000Y7900000D01*
D02*
G37*
%LPC*%
G36*
X4208526Y1042850D02*
X4191479D01*
X4175730Y1036327D01*
X4163676Y1024273D01*
X4157152Y1008524D01*
Y991477D01*
X4163676Y975728D01*
X4175730Y963674D01*
X4191479Y957151D01*
X4208526D01*
X4224275Y963674D01*
X4236329Y975728D01*
X4242852Y991477D01*
Y1008524D01*
X4236329Y1024273D01*
X4224275Y1036327D01*
X4208526Y1042850D01*
D02*
G37*
G36*
X4008526D02*
X3991479D01*
X3975730Y1036327D01*
X3963676Y1024273D01*
X3957152Y1008524D01*
Y991477D01*
X3963676Y975728D01*
X3975730Y963674D01*
X3991479Y957151D01*
X4008526D01*
X4024275Y963674D01*
X4036328Y975728D01*
X4042852Y991477D01*
Y1008524D01*
X4036328Y1024273D01*
X4024275Y1036327D01*
X4008526Y1042850D01*
D02*
G37*
G36*
X3808526D02*
X3791479D01*
X3775730Y1036327D01*
X3763676Y1024273D01*
X3757152Y1008524D01*
Y991477D01*
X3763676Y975728D01*
X3775730Y963674D01*
X3791479Y957151D01*
X3808526D01*
X3824275Y963674D01*
X3836328Y975728D01*
X3842852Y991477D01*
Y1008524D01*
X3836328Y1024273D01*
X3824275Y1036327D01*
X3808526Y1042850D01*
D02*
G37*
G36*
X3608525D02*
X3591478D01*
X3575729Y1036327D01*
X3563676Y1024273D01*
X3557152Y1008524D01*
Y991477D01*
X3563676Y975728D01*
X3575729Y963674D01*
X3591478Y957151D01*
X3608525D01*
X3624274Y963674D01*
X3636328Y975728D01*
X3642852Y991477D01*
Y1008524D01*
X3636328Y1024273D01*
X3624274Y1036327D01*
X3608525Y1042850D01*
D02*
G37*
G36*
X3408525D02*
X3391478D01*
X3375729Y1036327D01*
X3363676Y1024273D01*
X3357152Y1008524D01*
Y991477D01*
X3363676Y975728D01*
X3375729Y963674D01*
X3391478Y957151D01*
X3408525D01*
X3424274Y963674D01*
X3436328Y975728D01*
X3442852Y991477D01*
Y1008524D01*
X3436328Y1024273D01*
X3424274Y1036327D01*
X3408525Y1042850D01*
D02*
G37*
G36*
X3208525D02*
X3191478D01*
X3175729Y1036327D01*
X3163675Y1024273D01*
X3157152Y1008524D01*
Y991477D01*
X3163675Y975728D01*
X3175729Y963674D01*
X3191478Y957151D01*
X3208525D01*
X3224274Y963674D01*
X3236328Y975728D01*
X3242852Y991477D01*
Y1008524D01*
X3236328Y1024273D01*
X3224274Y1036327D01*
X3208525Y1042850D01*
D02*
G37*
G36*
X3008525D02*
X2991478D01*
X2975729Y1036327D01*
X2963675Y1024273D01*
X2957152Y1008524D01*
Y991477D01*
X2963675Y975728D01*
X2975729Y963674D01*
X2991478Y957151D01*
X3008525D01*
X3024274Y963674D01*
X3036328Y975728D01*
X3042851Y991477D01*
Y1008524D01*
X3036328Y1024273D01*
X3024274Y1036327D01*
X3008525Y1042850D01*
D02*
G37*
G36*
X2808525D02*
X2791478D01*
X2775729Y1036327D01*
X2763675Y1024273D01*
X2757152Y1008524D01*
Y991477D01*
X2763675Y975728D01*
X2775729Y963674D01*
X2791478Y957151D01*
X2808525D01*
X2824274Y963674D01*
X2836328Y975728D01*
X2842851Y991477D01*
Y1008524D01*
X2836328Y1024273D01*
X2824274Y1036327D01*
X2808525Y1042850D01*
D02*
G37*
G36*
X4308526Y842850D02*
X4291479D01*
X4275730Y836327D01*
X4263676Y824273D01*
X4257153Y808524D01*
Y791477D01*
X4263676Y775728D01*
X4275730Y763674D01*
X4291479Y757151D01*
X4308526D01*
X4324275Y763674D01*
X4336329Y775728D01*
X4342852Y791477D01*
Y808524D01*
X4336329Y824273D01*
X4324275Y836327D01*
X4308526Y842850D01*
D02*
G37*
G36*
X4108526D02*
X4091479D01*
X4075730Y836327D01*
X4063676Y824273D01*
X4057152Y808524D01*
Y791477D01*
X4063676Y775728D01*
X4075730Y763674D01*
X4091479Y757151D01*
X4108526D01*
X4124275Y763674D01*
X4136329Y775728D01*
X4142852Y791477D01*
Y808524D01*
X4136329Y824273D01*
X4124275Y836327D01*
X4108526Y842850D01*
D02*
G37*
G36*
X3908526D02*
X3891479D01*
X3875730Y836327D01*
X3863676Y824273D01*
X3857152Y808524D01*
Y791477D01*
X3863676Y775728D01*
X3875730Y763674D01*
X3891479Y757151D01*
X3908526D01*
X3924275Y763674D01*
X3936328Y775728D01*
X3942852Y791477D01*
Y808524D01*
X3936328Y824273D01*
X3924275Y836327D01*
X3908526Y842850D01*
D02*
G37*
G36*
X3708525D02*
X3691479D01*
X3675730Y836327D01*
X3663676Y824273D01*
X3657152Y808524D01*
Y791477D01*
X3663676Y775728D01*
X3675730Y763674D01*
X3691479Y757151D01*
X3708525D01*
X3724274Y763674D01*
X3736328Y775728D01*
X3742852Y791477D01*
Y808524D01*
X3736328Y824273D01*
X3724274Y836327D01*
X3708525Y842850D01*
D02*
G37*
G36*
X3508525D02*
X3491478D01*
X3475729Y836327D01*
X3463676Y824273D01*
X3457152Y808524D01*
Y791477D01*
X3463676Y775728D01*
X3475729Y763674D01*
X3491478Y757151D01*
X3508525D01*
X3524274Y763674D01*
X3536328Y775728D01*
X3542852Y791477D01*
Y808524D01*
X3536328Y824273D01*
X3524274Y836327D01*
X3508525Y842850D01*
D02*
G37*
G36*
X3308525D02*
X3291478D01*
X3275729Y836327D01*
X3263675Y824273D01*
X3257152Y808524D01*
Y791477D01*
X3263675Y775728D01*
X3275729Y763674D01*
X3291478Y757151D01*
X3308525D01*
X3324274Y763674D01*
X3336328Y775728D01*
X3342852Y791477D01*
Y808524D01*
X3336328Y824273D01*
X3324274Y836327D01*
X3308525Y842850D01*
D02*
G37*
G36*
X3108525D02*
X3091478D01*
X3075729Y836327D01*
X3063675Y824273D01*
X3057152Y808524D01*
Y791477D01*
X3063675Y775728D01*
X3075729Y763674D01*
X3091478Y757151D01*
X3108525D01*
X3124274Y763674D01*
X3136328Y775728D01*
X3142851Y791477D01*
Y808524D01*
X3136328Y824273D01*
X3124274Y836327D01*
X3108525Y842850D01*
D02*
G37*
G36*
X4608526Y642850D02*
X4591479D01*
X4575730Y636327D01*
X4563676Y624273D01*
X4557153Y608524D01*
Y591477D01*
X4563676Y575728D01*
X4575730Y563674D01*
X4591479Y557151D01*
X4608526D01*
X4624275Y563674D01*
X4636329Y575728D01*
X4642852Y591477D01*
Y608524D01*
X4636329Y624273D01*
X4624275Y636327D01*
X4608526Y642850D01*
D02*
G37*
G36*
X4408526D02*
X4391479D01*
X4375730Y636327D01*
X4363676Y624273D01*
X4357153Y608524D01*
Y591477D01*
X4363676Y575728D01*
X4375730Y563674D01*
X4391479Y557151D01*
X4408526D01*
X4424275Y563674D01*
X4436329Y575728D01*
X4442852Y591477D01*
Y608524D01*
X4436329Y624273D01*
X4424275Y636327D01*
X4408526Y642850D01*
D02*
G37*
G36*
X4208526D02*
X4191479D01*
X4175730Y636327D01*
X4163676Y624273D01*
X4157152Y608524D01*
Y591477D01*
X4163676Y575728D01*
X4175730Y563674D01*
X4191479Y557151D01*
X4208526D01*
X4224275Y563674D01*
X4236329Y575728D01*
X4242852Y591477D01*
Y608524D01*
X4236329Y624273D01*
X4224275Y636327D01*
X4208526Y642850D01*
D02*
G37*
G36*
X4008526D02*
X3991479D01*
X3975730Y636327D01*
X3963676Y624273D01*
X3957152Y608524D01*
Y591477D01*
X3963676Y575728D01*
X3975730Y563674D01*
X3991479Y557151D01*
X4008526D01*
X4024275Y563674D01*
X4036328Y575728D01*
X4042852Y591477D01*
Y608524D01*
X4036328Y624273D01*
X4024275Y636327D01*
X4008526Y642850D01*
D02*
G37*
G36*
X3808526D02*
X3791479D01*
X3775730Y636327D01*
X3763676Y624273D01*
X3757152Y608524D01*
Y591477D01*
X3763676Y575728D01*
X3775730Y563674D01*
X3791479Y557151D01*
X3808526D01*
X3824275Y563674D01*
X3836328Y575728D01*
X3842852Y591477D01*
Y608524D01*
X3836328Y624273D01*
X3824275Y636327D01*
X3808526Y642850D01*
D02*
G37*
G36*
Y7842854D02*
X3791479D01*
X3775730Y7836331D01*
X3766492Y7827093D01*
X3758507Y7824391D01*
X3736433Y7824880D01*
X3730325Y7830987D01*
X3714576Y7837511D01*
X3697529D01*
X3681780Y7830987D01*
X3669726Y7818934D01*
X3663203Y7803185D01*
Y7786138D01*
X3669726Y7770389D01*
X3681780Y7758335D01*
X3697529Y7751811D01*
X3714576D01*
X3730325Y7758335D01*
X3734070Y7762079D01*
X3754841Y7758216D01*
X3743265Y7734897D01*
X3735475Y7731671D01*
X3718329Y7714525D01*
X3709050Y7692124D01*
Y7667876D01*
X3718329Y7645475D01*
X3735475Y7628329D01*
X3757876Y7619050D01*
X3782124D01*
X3804525Y7628329D01*
X3821671Y7645475D01*
X3830950Y7667876D01*
Y7692124D01*
X3821671Y7714525D01*
X3804525Y7731671D01*
X3804323Y7731754D01*
X3808267Y7755592D01*
X3808950Y7757330D01*
X3824275Y7763678D01*
X3836328Y7775732D01*
X3842852Y7791481D01*
Y7808528D01*
X3836328Y7824277D01*
X3824275Y7836331D01*
X3808526Y7842854D01*
D02*
G37*
G36*
X4408526D02*
X4391479D01*
X4375730Y7836331D01*
X4363676Y7824277D01*
X4357153Y7808528D01*
Y7791481D01*
X4363676Y7775732D01*
X4375730Y7763678D01*
X4391479Y7757154D01*
X4408526D01*
X4424275Y7763678D01*
X4436329Y7775732D01*
X4442852Y7791481D01*
Y7808528D01*
X4436329Y7824277D01*
X4424275Y7836331D01*
X4408526Y7842854D01*
D02*
G37*
G36*
X4208526D02*
X4191479D01*
X4175730Y7836331D01*
X4163676Y7824277D01*
X4157152Y7808528D01*
Y7791481D01*
X4163676Y7775732D01*
X4175730Y7763678D01*
X4191479Y7757154D01*
X4208526D01*
X4224275Y7763678D01*
X4236329Y7775732D01*
X4242852Y7791481D01*
Y7808528D01*
X4236329Y7824277D01*
X4224275Y7836331D01*
X4208526Y7842854D01*
D02*
G37*
G36*
X5508526Y7642854D02*
X5491479D01*
X5475730Y7636330D01*
X5463677Y7624277D01*
X5457153Y7608528D01*
Y7591481D01*
X5463677Y7575732D01*
X5475730Y7563678D01*
X5491479Y7557154D01*
X5508526D01*
X5524275Y7563678D01*
X5536329Y7575732D01*
X5542853Y7591481D01*
Y7608528D01*
X5536329Y7624277D01*
X5524275Y7636330D01*
X5508526Y7642854D01*
D02*
G37*
G36*
X4308526D02*
X4291479D01*
X4275730Y7636330D01*
X4263676Y7624277D01*
X4257153Y7608528D01*
Y7591481D01*
X4263676Y7575732D01*
X4275730Y7563678D01*
X4291479Y7557154D01*
X4308526D01*
X4324275Y7563678D01*
X4336329Y7575732D01*
X4342852Y7591481D01*
Y7608528D01*
X4336329Y7624277D01*
X4324275Y7636330D01*
X4308526Y7642854D01*
D02*
G37*
G36*
X3508525D02*
X3491478D01*
X3475729Y7636330D01*
X3463676Y7624277D01*
X3457152Y7608528D01*
Y7591481D01*
X3463676Y7575732D01*
X3475729Y7563678D01*
X3491478Y7557154D01*
X3508525D01*
X3524274Y7563678D01*
X3536328Y7575732D01*
X3542852Y7591481D01*
Y7608528D01*
X3536328Y7624277D01*
X3524274Y7636330D01*
X3508525Y7642854D01*
D02*
G37*
G36*
X5858523Y7602850D02*
X5841477D01*
X5825727Y7596326D01*
X5813674Y7584273D01*
X5807150Y7568524D01*
Y7551477D01*
X5813674Y7535728D01*
X5825727Y7523674D01*
X5841477Y7517150D01*
X5858523D01*
X5874272Y7523674D01*
X5886326Y7535728D01*
X5892850Y7551477D01*
Y7568524D01*
X5886326Y7584273D01*
X5874272Y7596326D01*
X5858523Y7602850D01*
D02*
G37*
G36*
X4512124Y7580950D02*
X4487876D01*
X4465475Y7571671D01*
X4448329Y7554525D01*
X4439050Y7532124D01*
Y7507876D01*
X4448329Y7485475D01*
X4465475Y7468329D01*
X4487876Y7459050D01*
X4512124D01*
X4534525Y7468329D01*
X4551671Y7485475D01*
X4560950Y7507876D01*
Y7532124D01*
X4551671Y7554525D01*
X4534525Y7571671D01*
X4512124Y7580950D01*
D02*
G37*
G36*
X3728176Y7595611D02*
X3703929D01*
X3681528Y7586332D01*
X3664382Y7569186D01*
X3655103Y7546785D01*
Y7522537D01*
X3664382Y7500136D01*
X3681528Y7482990D01*
X3686415Y7480966D01*
X3693998Y7466944D01*
X3690100Y7456909D01*
X3674914Y7452850D01*
X3688523Y7452850D01*
Y7452850D01*
X3671479Y7452850D01*
X3671477Y7452850D01*
X3671284Y7452770D01*
X3655728Y7446326D01*
X3643674Y7434272D01*
X3637150Y7418523D01*
Y7401476D01*
X3643674Y7385727D01*
X3655728Y7373674D01*
X3671477Y7367150D01*
X3688523D01*
X3704272Y7373674D01*
X3716326Y7385727D01*
X3722850Y7401476D01*
Y7418523D01*
X3716326Y7434272D01*
X3704273Y7446326D01*
X3703191Y7448617D01*
X3717053Y7473711D01*
X3728176Y7473711D01*
X3750578Y7482990D01*
X3767723Y7500136D01*
X3777003Y7522537D01*
Y7546785D01*
X3767723Y7569186D01*
X3750578Y7586332D01*
X3728176Y7595611D01*
D02*
G37*
G36*
X4722124Y7490950D02*
X4697876D01*
X4675475Y7481671D01*
X4658329Y7464525D01*
X4649050Y7442124D01*
X4625434Y7431671D01*
X4603033Y7440950D01*
X4578786D01*
X4556384Y7431671D01*
X4539239Y7414525D01*
X4529959Y7392124D01*
Y7367876D01*
X4539239Y7345475D01*
X4556384Y7328329D01*
X4578786Y7319050D01*
X4603033D01*
X4625434Y7328329D01*
X4642580Y7345475D01*
X4651859Y7367876D01*
X4675475Y7378329D01*
X4697876Y7369050D01*
X4722124D01*
X4744525Y7378329D01*
X4761671Y7395475D01*
X4770950Y7417876D01*
Y7442124D01*
X4761671Y7464525D01*
X4744525Y7481671D01*
X4722124Y7490950D01*
D02*
G37*
G36*
X6208527Y7442854D02*
X6191480D01*
X6175731Y7436330D01*
X6163677Y7424276D01*
X6157154Y7408527D01*
Y7391481D01*
X6163677Y7375732D01*
X6175731Y7363678D01*
X6191480Y7357154D01*
X6208527D01*
X6224276Y7363678D01*
X6236330Y7375732D01*
X6242853Y7391481D01*
Y7408527D01*
X6236330Y7424276D01*
X6224276Y7436330D01*
X6208527Y7442854D01*
D02*
G37*
G36*
X5808527D02*
X5791480D01*
X5775731Y7436330D01*
X5763677Y7424276D01*
X5757153Y7408527D01*
Y7391481D01*
X5763677Y7375732D01*
X5775731Y7363678D01*
X5791480Y7357154D01*
X5808527D01*
X5824276Y7363678D01*
X5836329Y7375732D01*
X5842853Y7391481D01*
Y7408527D01*
X5836329Y7424276D01*
X5824276Y7436330D01*
X5808527Y7442854D01*
D02*
G37*
G36*
X5608527D02*
X5591480D01*
X5575731Y7436330D01*
X5563677Y7424276D01*
X5557153Y7408527D01*
Y7391481D01*
X5563677Y7375732D01*
X5575731Y7363678D01*
X5591480Y7357154D01*
X5608527D01*
X5624276Y7363678D01*
X5636329Y7375732D01*
X5642853Y7391481D01*
Y7408527D01*
X5636329Y7424276D01*
X5624276Y7436330D01*
X5608527Y7442854D01*
D02*
G37*
G36*
X3808526D02*
X3791479D01*
X3775730Y7436330D01*
X3763676Y7424276D01*
X3757152Y7408527D01*
Y7391481D01*
X3763676Y7375732D01*
X3775730Y7363678D01*
X3791479Y7357154D01*
X3808526D01*
X3824275Y7363678D01*
X3836328Y7375732D01*
X3842852Y7391481D01*
Y7408527D01*
X3836328Y7424276D01*
X3824275Y7436330D01*
X3808526Y7442854D01*
D02*
G37*
G36*
X2808525D02*
X2791478D01*
X2775729Y7436330D01*
X2763675Y7424276D01*
X2757152Y7408527D01*
Y7391481D01*
X2763675Y7375732D01*
X2775729Y7363678D01*
X2791478Y7357154D01*
X2808525D01*
X2824274Y7363678D01*
X2836328Y7375732D01*
X2842851Y7391481D01*
Y7408527D01*
X2836328Y7424276D01*
X2824274Y7436330D01*
X2808525Y7442854D01*
D02*
G37*
G36*
X3408525D02*
X3391478D01*
X3375729Y7436330D01*
X3363676Y7424276D01*
X3357152Y7408527D01*
Y7391481D01*
X3363676Y7375732D01*
X3375729Y7363678D01*
X3391478Y7357154D01*
X3408525D01*
X3424274Y7363678D01*
X3434308Y7373711D01*
X3444812Y7371824D01*
X3459050Y7365267D01*
Y7347876D01*
X3468329Y7325475D01*
X3485475Y7308329D01*
X3507876Y7299050D01*
X3532124D01*
X3554525Y7308329D01*
X3571671Y7325475D01*
X3580950Y7347876D01*
Y7372124D01*
X3571671Y7394525D01*
X3554525Y7411671D01*
X3532124Y7420950D01*
X3507876D01*
X3485475Y7411671D01*
X3468329Y7394525D01*
X3468252Y7394338D01*
X3442852Y7399390D01*
Y7408527D01*
X3436328Y7424276D01*
X3424274Y7436330D01*
X3408525Y7442854D01*
D02*
G37*
G36*
X4868176Y7315611D02*
X4843929D01*
X4821528Y7306332D01*
X4806398Y7291202D01*
X4798995Y7289203D01*
X4776924Y7289271D01*
X4764525Y7301671D01*
X4742124Y7310950D01*
X4717876D01*
X4695475Y7301671D01*
X4678329Y7284525D01*
X4669050Y7262124D01*
Y7237877D01*
X4657367Y7220392D01*
X3640001D01*
X3640000Y7220392D01*
X3632196Y7218840D01*
X3625581Y7214419D01*
X3625580Y7214419D01*
X3545580Y7134419D01*
X3541160Y7127803D01*
X3539608Y7120000D01*
Y6455379D01*
X3537909Y6453268D01*
X3514208Y6440499D01*
X3508525Y6442853D01*
X3491478D01*
X3475729Y6436330D01*
X3463676Y6424276D01*
X3457152Y6408527D01*
Y6391480D01*
X3463676Y6375731D01*
X3475729Y6363677D01*
X3491478Y6357154D01*
X3508525D01*
X3514208Y6359507D01*
X3537909Y6346739D01*
X3539608Y6344628D01*
Y5655378D01*
X3537909Y5653267D01*
X3514208Y5640499D01*
X3508525Y5642853D01*
X3491478D01*
X3475729Y5636329D01*
X3463676Y5624276D01*
X3457152Y5608527D01*
Y5591480D01*
X3463676Y5575731D01*
X3475729Y5563677D01*
X3491478Y5557153D01*
X3508525D01*
X3524274Y5563677D01*
X3536328Y5575731D01*
X3540189Y5585051D01*
X3559905Y5592439D01*
X3568252Y5592910D01*
X3615676Y5545486D01*
X3616968Y5544622D01*
X3618015Y5543476D01*
X3620244Y5542433D01*
X3622291Y5541065D01*
X3623815Y5540762D01*
X3625222Y5540104D01*
X3627681Y5539993D01*
X3630095Y5539513D01*
X3631618Y5539816D01*
X3633171Y5539746D01*
X3647030Y5541861D01*
X3647649Y5542085D01*
X3648306Y5542097D01*
X3649674Y5542694D01*
X3650321Y5542763D01*
X3651928Y5543636D01*
X3654511Y5544572D01*
X3654996Y5545016D01*
X3655599Y5545279D01*
X3655907Y5545493D01*
X3656526Y5546136D01*
X3657311Y5546563D01*
X3662903Y5551759D01*
X3685079Y5559804D01*
X3691479Y5557153D01*
X3708525D01*
X3719586Y5561735D01*
X3727679Y5542196D01*
X3732100Y5535581D01*
X3738715Y5531160D01*
X3746519Y5529608D01*
X3853485D01*
X3861289Y5531160D01*
X3867904Y5535581D01*
X3872325Y5542196D01*
X3880418Y5561735D01*
X3891479Y5557153D01*
X3908526D01*
X3919587Y5561735D01*
X3927679Y5542196D01*
X3932100Y5535581D01*
X3938716Y5531160D01*
X3946519Y5529608D01*
X5053486D01*
X5061289Y5531160D01*
X5067905Y5535581D01*
X5072325Y5542196D01*
X5080419Y5561735D01*
X5091479Y5557153D01*
X5108526D01*
X5114931Y5559806D01*
X5137115Y5551751D01*
X5142699Y5546565D01*
X5143488Y5546136D01*
X5144112Y5545489D01*
X5144417Y5545277D01*
X5145014Y5545017D01*
X5145495Y5544578D01*
X5148074Y5543643D01*
X5149689Y5542765D01*
X5150344Y5542695D01*
X5151712Y5542100D01*
X5152362Y5542088D01*
X5152974Y5541866D01*
X5166831Y5539750D01*
X5168384Y5539820D01*
X5169908Y5539517D01*
X5172321Y5539997D01*
X5174780Y5540107D01*
X5176188Y5540766D01*
X5177712Y5541069D01*
X5179757Y5542435D01*
X5181987Y5543479D01*
X5183036Y5544626D01*
X5184327Y5545490D01*
X5231753Y5592914D01*
X5240103Y5592442D01*
X5259814Y5585054D01*
X5263677Y5575731D01*
X5275730Y5563677D01*
X5291479Y5557153D01*
X5308526D01*
X5324275Y5563677D01*
X5336329Y5575731D01*
X5342853Y5591480D01*
Y5608527D01*
X5341367Y5612113D01*
X5362900Y5626501D01*
X5365727Y5623674D01*
X5381476Y5617150D01*
X5398523D01*
X5414272Y5623674D01*
X5426326Y5635728D01*
X5432850Y5651477D01*
Y5668524D01*
X5426326Y5684273D01*
X5414272Y5696326D01*
X5398523Y5702850D01*
X5381476D01*
X5365727Y5696326D01*
X5353674Y5684273D01*
X5347150Y5668524D01*
Y5651477D01*
X5348636Y5647890D01*
X5327103Y5633502D01*
X5324275Y5636329D01*
X5308526Y5642853D01*
X5291479D01*
X5285792Y5640497D01*
X5262096Y5653260D01*
X5260392Y5655376D01*
Y6686425D01*
X5261477Y6687150D01*
X5278523D01*
X5294272Y6693674D01*
X5306326Y6705728D01*
X5312850Y6721477D01*
Y6738523D01*
X5306326Y6754272D01*
X5294272Y6766326D01*
X5278523Y6772850D01*
X5261477D01*
X5260392Y6773575D01*
Y6799743D01*
X5271477Y6807150D01*
X5288524D01*
X5304273Y6813674D01*
X5316326Y6825728D01*
X5322850Y6841477D01*
Y6858523D01*
X5316326Y6874273D01*
X5304273Y6886326D01*
X5288524Y6892850D01*
X5271477D01*
X5260392Y6900257D01*
Y7120000D01*
X5258840Y7127804D01*
X5254419Y7134419D01*
X5174419Y7214419D01*
X5167803Y7218840D01*
X5160000Y7220392D01*
X4930689D01*
X4916578Y7241512D01*
X4917003Y7242537D01*
Y7266785D01*
X4907723Y7289186D01*
X4890578Y7306332D01*
X4868176Y7315611D01*
D02*
G37*
G36*
X2908524Y7292850D02*
X2891477D01*
X2875728Y7286326D01*
X2863674Y7274272D01*
X2857150Y7258523D01*
Y7241477D01*
X2863674Y7225727D01*
X2875728Y7213674D01*
X2891477Y7207150D01*
X2908524D01*
X2924273Y7213674D01*
X2936326Y7225727D01*
X2942850Y7241477D01*
Y7258523D01*
X2936326Y7274272D01*
X2924273Y7286326D01*
X2908524Y7292850D01*
D02*
G37*
G36*
X5908527Y7242854D02*
X5891480D01*
X5875731Y7236330D01*
X5863677Y7224276D01*
X5857153Y7208527D01*
Y7191480D01*
X5863677Y7175731D01*
X5875731Y7163678D01*
X5891480Y7157154D01*
X5908527D01*
X5924276Y7163678D01*
X5936330Y7175731D01*
X5942853Y7191480D01*
Y7208527D01*
X5936330Y7224276D01*
X5924276Y7236330D01*
X5908527Y7242854D01*
D02*
G37*
G36*
X3308525D02*
X3291478D01*
X3275729Y7236330D01*
X3263675Y7224276D01*
X3257152Y7208527D01*
Y7191480D01*
X3263675Y7175731D01*
X3275729Y7163678D01*
X3291478Y7157154D01*
X3308525D01*
X3324274Y7163678D01*
X3336328Y7175731D01*
X3342852Y7191480D01*
Y7208527D01*
X3336328Y7224276D01*
X3324274Y7236330D01*
X3308525Y7242854D01*
D02*
G37*
G36*
X3108525D02*
X3091478D01*
X3075729Y7236330D01*
X3063675Y7224276D01*
X3057152Y7208527D01*
Y7191480D01*
X3063675Y7175731D01*
X3075729Y7163678D01*
X3091478Y7157154D01*
X3108525D01*
X3124274Y7163678D01*
X3136328Y7175731D01*
X3142851Y7191480D01*
Y7208527D01*
X3136328Y7224276D01*
X3124274Y7236330D01*
X3108525Y7242854D01*
D02*
G37*
G36*
X2918523Y7052850D02*
X2901477D01*
X2885728Y7046326D01*
X2873674Y7034272D01*
X2867150Y7018523D01*
Y7001476D01*
X2873674Y6985727D01*
X2885728Y6973674D01*
X2901477Y6967150D01*
X2918523D01*
X2934273Y6973674D01*
X2936226Y6975627D01*
X2962023Y6975725D01*
X2966596Y6972810D01*
X2975729Y6963677D01*
X2991478Y6957154D01*
X3008525D01*
X3024274Y6963677D01*
X3036328Y6975731D01*
X3042851Y6991480D01*
Y7008527D01*
X3036328Y7024276D01*
X3024274Y7036330D01*
X3008525Y7042854D01*
X2991478D01*
X2975729Y7036330D01*
X2973776Y7034377D01*
X2947979Y7034279D01*
X2943405Y7037193D01*
X2934273Y7046326D01*
X2918523Y7052850D01*
D02*
G37*
G36*
X5508523Y6892850D02*
X5491476D01*
X5475727Y6886326D01*
X5463674Y6874273D01*
X5457150Y6858523D01*
Y6841477D01*
X5463674Y6825728D01*
X5475727Y6813674D01*
X5491476Y6807150D01*
X5508523D01*
X5524272Y6813674D01*
X5536326Y6825728D01*
X5542850Y6841477D01*
Y6858523D01*
X5536326Y6874273D01*
X5524272Y6886326D01*
X5508523Y6892850D01*
D02*
G37*
G36*
X2908525Y6842853D02*
X2891478D01*
X2875729Y6836330D01*
X2863675Y6824276D01*
X2857152Y6808527D01*
Y6791480D01*
X2863675Y6775731D01*
X2875729Y6763677D01*
X2891478Y6757154D01*
X2908525D01*
X2924274Y6763677D01*
X2936328Y6775731D01*
X2942851Y6791480D01*
Y6808527D01*
X2936328Y6824276D01*
X2924274Y6836330D01*
X2908525Y6842853D01*
D02*
G37*
G36*
X2708525D02*
X2691478D01*
X2675729Y6836330D01*
X2663675Y6824276D01*
X2657152Y6808527D01*
Y6791480D01*
X2663675Y6775731D01*
X2675729Y6763677D01*
X2691478Y6757154D01*
X2708525D01*
X2724274Y6763677D01*
X2736328Y6775731D01*
X2742851Y6791480D01*
Y6808527D01*
X2736328Y6824276D01*
X2724274Y6836330D01*
X2708525Y6842853D01*
D02*
G37*
G36*
X6008527Y6642853D02*
X5991480D01*
X5975731Y6636330D01*
X5963677Y6624276D01*
X5957153Y6608527D01*
Y6591480D01*
X5963677Y6575731D01*
X5975731Y6563677D01*
X5991480Y6557154D01*
X6008527D01*
X6024276Y6563677D01*
X6036330Y6575731D01*
X6042853Y6591480D01*
Y6608527D01*
X6036330Y6624276D01*
X6024276Y6636330D01*
X6008527Y6642853D01*
D02*
G37*
G36*
X3008525D02*
X2991478D01*
X2975729Y6636330D01*
X2963675Y6624276D01*
X2957152Y6608527D01*
Y6591480D01*
X2963675Y6575731D01*
X2975729Y6563677D01*
X2991478Y6557154D01*
X3008525D01*
X3024274Y6563677D01*
X3036328Y6575731D01*
X3042851Y6591480D01*
Y6608527D01*
X3036328Y6624276D01*
X3024274Y6636330D01*
X3008525Y6642853D01*
D02*
G37*
G36*
X2808525D02*
X2791478D01*
X2775729Y6636330D01*
X2763675Y6624276D01*
X2757152Y6608527D01*
Y6591480D01*
X2763675Y6575731D01*
X2775729Y6563677D01*
X2791478Y6557154D01*
X2808525D01*
X2824274Y6563677D01*
X2836328Y6575731D01*
X2842851Y6591480D01*
Y6608527D01*
X2836328Y6624276D01*
X2824274Y6636330D01*
X2808525Y6642853D01*
D02*
G37*
G36*
X5508526Y6442853D02*
X5491479D01*
X5475730Y6436330D01*
X5463677Y6424276D01*
X5457153Y6408527D01*
Y6391480D01*
X5463677Y6375731D01*
X5475730Y6363677D01*
X5491479Y6357154D01*
X5508526D01*
X5524275Y6363677D01*
X5536329Y6375731D01*
X5542853Y6391480D01*
Y6408527D01*
X5536329Y6424276D01*
X5524275Y6436330D01*
X5508526Y6442853D01*
D02*
G37*
G36*
X2708525D02*
X2691478D01*
X2675729Y6436330D01*
X2663675Y6424276D01*
X2657152Y6408527D01*
Y6391480D01*
X2663675Y6375731D01*
X2675729Y6363677D01*
X2691478Y6357154D01*
X2708525D01*
X2724274Y6363677D01*
X2736328Y6375731D01*
X2742851Y6391480D01*
Y6408527D01*
X2736328Y6424276D01*
X2724274Y6436330D01*
X2708525Y6442853D01*
D02*
G37*
G36*
X2908525D02*
X2891478D01*
X2875729Y6436330D01*
X2863675Y6424276D01*
X2857152Y6408527D01*
Y6391480D01*
X2863433Y6376316D01*
X2863337Y6375859D01*
X2862034Y6372851D01*
X2850635Y6352850D01*
X2841476D01*
X2825727Y6346326D01*
X2813674Y6334273D01*
X2807150Y6318524D01*
Y6301477D01*
X2813674Y6285728D01*
X2825727Y6273674D01*
X2841476Y6267150D01*
X2858523D01*
X2874272Y6273674D01*
X2886326Y6285728D01*
X2892850Y6301477D01*
Y6318524D01*
X2886569Y6333687D01*
X2886664Y6334144D01*
X2887968Y6337152D01*
X2899366Y6357154D01*
X2908525D01*
X2924274Y6363677D01*
X2936328Y6375731D01*
X2942851Y6391480D01*
Y6408527D01*
X2936328Y6424276D01*
X2924274Y6436330D01*
X2908525Y6442853D01*
D02*
G37*
G36*
X3008525Y6242853D02*
X2991478D01*
X2975729Y6236330D01*
X2963675Y6224276D01*
X2959886Y6215128D01*
X2957151Y6208527D01*
X2956316Y6207457D01*
X2928950Y6208454D01*
X2928019Y6210185D01*
X2926326Y6214273D01*
X2914273Y6226326D01*
X2898524Y6232850D01*
X2881477D01*
X2865728Y6226326D01*
X2853674Y6214273D01*
X2847150Y6198524D01*
Y6181477D01*
X2853674Y6165728D01*
X2865728Y6153674D01*
X2881477Y6147150D01*
X2898524D01*
X2914273Y6153674D01*
X2926326Y6165728D01*
X2930116Y6174876D01*
X2932850Y6181476D01*
X2933686Y6182546D01*
X2961052Y6181550D01*
X2961982Y6179818D01*
X2963675Y6175731D01*
X2975729Y6163677D01*
X2991478Y6157154D01*
X3008525D01*
X3024274Y6163677D01*
X3036328Y6175731D01*
X3042851Y6191480D01*
Y6208527D01*
X3036328Y6224276D01*
X3024274Y6236330D01*
X3008525Y6242853D01*
D02*
G37*
G36*
X6008527D02*
X5991480D01*
X5975731Y6236330D01*
X5963677Y6224276D01*
X5957153Y6208527D01*
Y6191480D01*
X5963677Y6175731D01*
X5975731Y6163677D01*
X5991480Y6157154D01*
X6008527D01*
X6024276Y6163677D01*
X6036330Y6175731D01*
X6042853Y6191480D01*
Y6208527D01*
X6036330Y6224276D01*
X6024276Y6236330D01*
X6008527Y6242853D01*
D02*
G37*
G36*
X5808527D02*
X5791480D01*
X5775731Y6236330D01*
X5763677Y6224276D01*
X5757153Y6208527D01*
Y6191480D01*
X5763677Y6175731D01*
X5775731Y6163677D01*
X5791480Y6157154D01*
X5808527D01*
X5824276Y6163677D01*
X5836329Y6175731D01*
X5842853Y6191480D01*
Y6208527D01*
X5836329Y6224276D01*
X5824276Y6236330D01*
X5808527Y6242853D01*
D02*
G37*
G36*
X5608527D02*
X5591480D01*
X5575731Y6236330D01*
X5563677Y6224276D01*
X5557153Y6208527D01*
Y6191480D01*
X5563677Y6175731D01*
X5575731Y6163677D01*
X5591480Y6157154D01*
X5608527D01*
X5624276Y6163677D01*
X5636329Y6175731D01*
X5642853Y6191480D01*
Y6208527D01*
X5636329Y6224276D01*
X5624276Y6236330D01*
X5608527Y6242853D01*
D02*
G37*
G36*
X2968523Y6092850D02*
X2951476D01*
X2935727Y6086326D01*
X2923674Y6074273D01*
X2917150Y6058524D01*
Y6041477D01*
X2923674Y6025728D01*
X2935727Y6013674D01*
X2951476Y6007150D01*
X2968523D01*
X2984272Y6013674D01*
X2996326Y6025728D01*
X3002850Y6041477D01*
Y6058524D01*
X2996326Y6074273D01*
X2984272Y6086326D01*
X2968523Y6092850D01*
D02*
G37*
G36*
X5508526Y6042853D02*
X5491479D01*
X5475730Y6036330D01*
X5463677Y6024276D01*
X5457153Y6008527D01*
Y5991480D01*
X5463677Y5975731D01*
X5475730Y5963677D01*
X5491479Y5957153D01*
X5508526D01*
X5524275Y5963677D01*
X5536329Y5975731D01*
X5542853Y5991480D01*
Y6008527D01*
X5536329Y6024276D01*
X5524275Y6036330D01*
X5508526Y6042853D01*
D02*
G37*
G36*
X6008527Y5842853D02*
X5991480D01*
X5975731Y5836329D01*
X5963677Y5824276D01*
X5957153Y5808527D01*
Y5791480D01*
X5963677Y5775731D01*
X5975731Y5763677D01*
X5991480Y5757153D01*
X6008527D01*
X6024276Y5763677D01*
X6036330Y5775731D01*
X6042853Y5791480D01*
Y5808527D01*
X6036330Y5824276D01*
X6024276Y5836329D01*
X6008527Y5842853D01*
D02*
G37*
G36*
X5608527D02*
X5591480D01*
X5575731Y5836329D01*
X5563677Y5824276D01*
X5557153Y5808527D01*
Y5791480D01*
X5563677Y5775731D01*
X5575731Y5763677D01*
X5591480Y5757153D01*
X5608527D01*
X5624276Y5763677D01*
X5636329Y5775731D01*
X5642853Y5791480D01*
Y5808527D01*
X5636329Y5824276D01*
X5624276Y5836329D01*
X5608527Y5842853D01*
D02*
G37*
G36*
X5408526D02*
X5391479D01*
X5375730Y5836329D01*
X5363677Y5824276D01*
X5357153Y5808527D01*
Y5791480D01*
X5363677Y5775731D01*
X5375730Y5763677D01*
X5391479Y5757153D01*
X5408526D01*
X5424275Y5763677D01*
X5436329Y5775731D01*
X5442853Y5791480D01*
Y5808527D01*
X5436329Y5824276D01*
X5424275Y5836329D01*
X5408526Y5842853D01*
D02*
G37*
G36*
X5708527Y5642853D02*
X5691480D01*
X5675731Y5636329D01*
X5663677Y5624276D01*
X5657153Y5608527D01*
Y5591480D01*
X5663677Y5575731D01*
X5675731Y5563677D01*
X5691480Y5557153D01*
X5708527D01*
X5724276Y5563677D01*
X5736329Y5575731D01*
X5742853Y5591480D01*
Y5608527D01*
X5736329Y5624276D01*
X5724276Y5636329D01*
X5708527Y5642853D01*
D02*
G37*
G36*
X5508526D02*
X5491479D01*
X5475730Y5636329D01*
X5463677Y5624276D01*
X5457153Y5608527D01*
Y5591480D01*
X5463677Y5575731D01*
X5475730Y5563677D01*
X5491479Y5557153D01*
X5508526D01*
X5524275Y5563677D01*
X5536329Y5575731D01*
X5542853Y5591480D01*
Y5608527D01*
X5536329Y5624276D01*
X5524275Y5636329D01*
X5508526Y5642853D01*
D02*
G37*
G36*
X5108526Y4842852D02*
X5091479D01*
X5075730Y4836329D01*
X5063676Y4824275D01*
X5057153Y4808526D01*
Y4791479D01*
X5063676Y4775730D01*
X5075730Y4763676D01*
X5091479Y4757153D01*
X5108526D01*
X5124275Y4763676D01*
X5136329Y4775730D01*
X5142853Y4791479D01*
Y4808526D01*
X5136329Y4824275D01*
X5124275Y4836329D01*
X5108526Y4842852D01*
D02*
G37*
G36*
X4908526D02*
X4891479D01*
X4875730Y4836329D01*
X4863676Y4824275D01*
X4857153Y4808526D01*
Y4791479D01*
X4863676Y4775730D01*
X4875730Y4763676D01*
X4891479Y4757153D01*
X4908526D01*
X4924275Y4763676D01*
X4936329Y4775730D01*
X4942852Y4791479D01*
Y4808526D01*
X4936329Y4824275D01*
X4924275Y4836329D01*
X4908526Y4842852D01*
D02*
G37*
G36*
X3908526D02*
X3891479D01*
X3875730Y4836329D01*
X3863676Y4824275D01*
X3857152Y4808526D01*
Y4791479D01*
X3863676Y4775730D01*
X3875730Y4763676D01*
X3891479Y4757153D01*
X3908526D01*
X3924275Y4763676D01*
X3936328Y4775730D01*
X3942852Y4791479D01*
Y4808526D01*
X3936328Y4824275D01*
X3924275Y4836329D01*
X3908526Y4842852D01*
D02*
G37*
G36*
X3508525D02*
X3491478D01*
X3475729Y4836329D01*
X3463676Y4824275D01*
X3457152Y4808526D01*
Y4791479D01*
X3463676Y4775730D01*
X3475729Y4763676D01*
X3491478Y4757153D01*
X3508525D01*
X3524274Y4763676D01*
X3536328Y4775730D01*
X3542852Y4791479D01*
Y4808526D01*
X3536328Y4824275D01*
X3524274Y4836329D01*
X3508525Y4842852D01*
D02*
G37*
G36*
X4148524Y4782850D02*
X4131477D01*
X4115728Y4776326D01*
X4103674Y4764272D01*
X4097150Y4748523D01*
Y4731476D01*
X4103674Y4715727D01*
X4115728Y4703674D01*
X4131477Y4697150D01*
X4148524D01*
X4164273Y4703674D01*
X4176326Y4715727D01*
X4182850Y4731476D01*
Y4748523D01*
X4176326Y4764272D01*
X4164273Y4776326D01*
X4148524Y4782850D01*
D02*
G37*
G36*
X4258523Y4712850D02*
X4241476D01*
X4225727Y4706326D01*
X4213674Y4694273D01*
X4207150Y4678524D01*
Y4661477D01*
X4213674Y4645728D01*
X4225727Y4633674D01*
X4241476Y4627150D01*
X4258523D01*
X4274272Y4633674D01*
X4286326Y4645728D01*
X4292850Y4661477D01*
Y4678524D01*
X4286326Y4694273D01*
X4274272Y4706326D01*
X4258523Y4712850D01*
D02*
G37*
G36*
X6008527Y4642852D02*
X5991480D01*
X5975731Y4636329D01*
X5963677Y4624275D01*
X5957153Y4608526D01*
Y4591479D01*
X5963677Y4575730D01*
X5975731Y4563676D01*
X5991480Y4557153D01*
X6008527D01*
X6024276Y4563676D01*
X6036330Y4575730D01*
X6042853Y4591479D01*
Y4608526D01*
X6036330Y4624275D01*
X6024276Y4636329D01*
X6008527Y4642852D01*
D02*
G37*
G36*
X5408526D02*
X5391479D01*
X5375730Y4636329D01*
X5363677Y4624275D01*
X5357153Y4608526D01*
Y4591479D01*
X5363677Y4575730D01*
X5375730Y4563676D01*
X5391479Y4557153D01*
X5408526D01*
X5424275Y4563676D01*
X5436329Y4575730D01*
X5442853Y4591479D01*
Y4608526D01*
X5436329Y4624275D01*
X5424275Y4636329D01*
X5408526Y4642852D01*
D02*
G37*
G36*
X5008526D02*
X4991479D01*
X4975730Y4636329D01*
X4963676Y4624275D01*
X4957153Y4608526D01*
Y4591479D01*
X4963676Y4575730D01*
X4975730Y4563676D01*
X4991479Y4557153D01*
X5008526D01*
X5024275Y4563676D01*
X5036329Y4575730D01*
X5042853Y4591479D01*
Y4608526D01*
X5036329Y4624275D01*
X5024275Y4636329D01*
X5008526Y4642852D01*
D02*
G37*
G36*
X3808526D02*
X3791479D01*
X3775730Y4636329D01*
X3763676Y4624275D01*
X3757152Y4608526D01*
Y4591479D01*
X3763676Y4575730D01*
X3775730Y4563676D01*
X3791479Y4557153D01*
X3808526D01*
X3824275Y4563676D01*
X3836328Y4575730D01*
X3842852Y4591479D01*
Y4608526D01*
X3836328Y4624275D01*
X3824275Y4636329D01*
X3808526Y4642852D01*
D02*
G37*
G36*
X3008525D02*
X2991478D01*
X2975729Y4636329D01*
X2963675Y4624275D01*
X2957152Y4608526D01*
Y4591479D01*
X2963675Y4575730D01*
X2975729Y4563676D01*
X2991478Y4557153D01*
X3008525D01*
X3024274Y4563676D01*
X3036328Y4575730D01*
X3042851Y4591479D01*
Y4608526D01*
X3036328Y4624275D01*
X3024274Y4636329D01*
X3008525Y4642852D01*
D02*
G37*
G36*
X5608527D02*
X5591480D01*
X5575731Y4636329D01*
X5563677Y4624275D01*
X5557153Y4608526D01*
Y4591479D01*
X5563677Y4575730D01*
X5575731Y4563676D01*
X5591480Y4557153D01*
X5608526D01*
X5622696Y4538089D01*
X5623674Y4535728D01*
X5635728Y4523674D01*
X5651477Y4517150D01*
X5668524D01*
X5684273Y4523674D01*
X5696326Y4535728D01*
X5702850Y4551477D01*
Y4568524D01*
X5696326Y4584273D01*
X5684273Y4596326D01*
X5668524Y4602850D01*
X5651477D01*
X5637307Y4621914D01*
X5636329Y4624275D01*
X5624276Y4636329D01*
X5608527Y4642852D01*
D02*
G37*
G36*
X5108526Y4442852D02*
X5091479D01*
X5075730Y4436329D01*
X5063676Y4424275D01*
X5057153Y4408526D01*
Y4391479D01*
X5063676Y4375730D01*
X5075730Y4363676D01*
X5091479Y4357153D01*
X5108526D01*
X5124275Y4363676D01*
X5136329Y4375730D01*
X5142853Y4391479D01*
Y4408526D01*
X5136329Y4424275D01*
X5124275Y4436329D01*
X5108526Y4442852D01*
D02*
G37*
G36*
X3308525D02*
X3291478D01*
X3275729Y4436329D01*
X3263675Y4424275D01*
X3257152Y4408526D01*
Y4391479D01*
X3263675Y4375730D01*
X3275729Y4363676D01*
X3291478Y4357153D01*
X3308525D01*
X3324274Y4363676D01*
X3336328Y4375730D01*
X3342852Y4391479D01*
Y4408526D01*
X3336328Y4424275D01*
X3324274Y4436329D01*
X3308525Y4442852D01*
D02*
G37*
G36*
X5898523Y4432850D02*
X5881476D01*
X5865727Y4426326D01*
X5853674Y4414273D01*
X5847150Y4398524D01*
Y4381477D01*
X5853674Y4365728D01*
X5865727Y4353674D01*
X5881476Y4347150D01*
X5898523D01*
X5914272Y4353674D01*
X5926326Y4365728D01*
X5932850Y4381477D01*
Y4398524D01*
X5926326Y4414273D01*
X5914272Y4426326D01*
X5898523Y4432850D01*
D02*
G37*
G36*
X5798524Y4352850D02*
X5781477D01*
X5765728Y4346326D01*
X5753674Y4334273D01*
X5747150Y4318523D01*
Y4301477D01*
X5753674Y4285728D01*
X5765728Y4273674D01*
X5781477Y4267150D01*
X5798524D01*
X5814273Y4273674D01*
X5826326Y4285728D01*
X5832850Y4301477D01*
Y4318523D01*
X5826326Y4334273D01*
X5814273Y4346326D01*
X5798524Y4352850D01*
D02*
G37*
G36*
X6008527Y4242852D02*
X5991480D01*
X5975731Y4236329D01*
X5963677Y4224275D01*
X5957153Y4208526D01*
Y4191479D01*
X5963677Y4175730D01*
X5975731Y4163676D01*
X5991480Y4157152D01*
X6008527D01*
X6024276Y4163676D01*
X6036330Y4175730D01*
X6042853Y4191479D01*
Y4208526D01*
X6036330Y4224275D01*
X6024276Y4236329D01*
X6008527Y4242852D01*
D02*
G37*
G36*
X4008526D02*
X3991479D01*
X3975730Y4236329D01*
X3963676Y4224275D01*
X3957152Y4208526D01*
Y4191479D01*
X3963676Y4175730D01*
X3975730Y4163676D01*
X3991479Y4157152D01*
X4008526D01*
X4024275Y4163676D01*
X4036328Y4175730D01*
X4042852Y4191479D01*
Y4208526D01*
X4036328Y4224275D01*
X4024275Y4236329D01*
X4008526Y4242852D01*
D02*
G37*
G36*
X3208525D02*
X3191478D01*
X3175729Y4236329D01*
X3163675Y4224275D01*
X3157152Y4208526D01*
Y4191479D01*
X3163675Y4175730D01*
X3175729Y4163676D01*
X3191478Y4157152D01*
X3208525D01*
X3224274Y4163676D01*
X3236328Y4175730D01*
X3242852Y4191479D01*
Y4208526D01*
X3236328Y4224275D01*
X3224274Y4236329D01*
X3208525Y4242852D01*
D02*
G37*
G36*
X3008525D02*
X2991478D01*
X2975729Y4236329D01*
X2963675Y4224275D01*
X2957152Y4208526D01*
Y4191479D01*
X2963675Y4175730D01*
X2975729Y4163676D01*
X2991478Y4157152D01*
X3008525D01*
X3024274Y4163676D01*
X3036328Y4175730D01*
X3042851Y4191479D01*
Y4208526D01*
X3036328Y4224275D01*
X3024274Y4236329D01*
X3008525Y4242852D01*
D02*
G37*
G36*
X4288524Y4052850D02*
X4271477D01*
X4255728Y4046326D01*
X4243674Y4034273D01*
X4237150Y4018524D01*
Y4001477D01*
X4243674Y3985728D01*
X4255728Y3973674D01*
X4271477Y3967150D01*
X4288524D01*
X4304273Y3973674D01*
X4316326Y3985728D01*
X4322850Y4001477D01*
Y4018524D01*
X4316326Y4034273D01*
X4304273Y4046326D01*
X4288524Y4052850D01*
D02*
G37*
G36*
X3908526Y4042852D02*
X3891479D01*
X3875730Y4036328D01*
X3863676Y4024275D01*
X3857152Y4008526D01*
Y3991479D01*
X3863676Y3975730D01*
X3875730Y3963676D01*
X3891479Y3957152D01*
X3908526D01*
X3924275Y3963676D01*
X3936328Y3975730D01*
X3942852Y3991479D01*
Y4008526D01*
X3936328Y4024275D01*
X3924275Y4036328D01*
X3908526Y4042852D01*
D02*
G37*
G36*
X3708525D02*
X3691479D01*
X3675730Y4036328D01*
X3663676Y4024275D01*
X3657152Y4008526D01*
Y3991479D01*
X3663676Y3975730D01*
X3675730Y3963676D01*
X3691479Y3957152D01*
X3708525D01*
X3724274Y3963676D01*
X3736328Y3975730D01*
X3742852Y3991479D01*
Y4008526D01*
X3736328Y4024275D01*
X3724274Y4036328D01*
X3708525Y4042852D01*
D02*
G37*
G36*
X2908525D02*
X2891478D01*
X2875729Y4036328D01*
X2863675Y4024275D01*
X2857152Y4008526D01*
Y3991479D01*
X2863675Y3975730D01*
X2875729Y3963676D01*
X2891478Y3957152D01*
X2908525D01*
X2924274Y3963676D01*
X2936328Y3975730D01*
X2942851Y3991479D01*
Y4008526D01*
X2936328Y4024275D01*
X2924274Y4036328D01*
X2908525Y4042852D01*
D02*
G37*
G36*
X2708525D02*
X2691478D01*
X2675729Y4036328D01*
X2663675Y4024275D01*
X2657152Y4008526D01*
Y3991479D01*
X2663675Y3975730D01*
X2675729Y3963676D01*
X2691478Y3957152D01*
X2708525D01*
X2724274Y3963676D01*
X2736328Y3975730D01*
X2742851Y3991479D01*
Y4008526D01*
X2736328Y4024275D01*
X2724274Y4036328D01*
X2708525Y4042852D01*
D02*
G37*
G36*
X4158524Y4032850D02*
X4141477D01*
X4125728Y4026326D01*
X4113674Y4014272D01*
X4107150Y3998523D01*
Y3981476D01*
X4113674Y3965727D01*
X4125728Y3953674D01*
X4141477Y3947150D01*
X4158524D01*
X4174273Y3953674D01*
X4186326Y3965727D01*
X4192850Y3981476D01*
Y3998523D01*
X4186326Y4014272D01*
X4174273Y4026326D01*
X4158524Y4032850D01*
D02*
G37*
G36*
X6008527Y3842852D02*
X5991480D01*
X5975731Y3836328D01*
X5963677Y3824275D01*
X5957153Y3808526D01*
Y3791479D01*
X5963677Y3775730D01*
X5975731Y3763676D01*
X5991480Y3757152D01*
X6008527D01*
X6024276Y3763676D01*
X6036330Y3775730D01*
X6042853Y3791479D01*
Y3808526D01*
X6036330Y3824275D01*
X6024276Y3836328D01*
X6008527Y3842852D01*
D02*
G37*
G36*
X5608527D02*
X5591480D01*
X5575731Y3836328D01*
X5563677Y3824275D01*
X5557153Y3808526D01*
Y3791479D01*
X5563677Y3775730D01*
X5575731Y3763676D01*
X5591480Y3757152D01*
X5608527D01*
X5624276Y3763676D01*
X5636329Y3775730D01*
X5642853Y3791479D01*
Y3808526D01*
X5636329Y3824275D01*
X5624276Y3836328D01*
X5608527Y3842852D01*
D02*
G37*
G36*
X3008525D02*
X2991478D01*
X2975729Y3836328D01*
X2963675Y3824275D01*
X2957152Y3808526D01*
Y3791479D01*
X2963675Y3775730D01*
X2975729Y3763676D01*
X2991478Y3757152D01*
X3008525D01*
X3024274Y3763676D01*
X3036328Y3775730D01*
X3042851Y3791479D01*
Y3808526D01*
X3036328Y3824275D01*
X3024274Y3836328D01*
X3008525Y3842852D01*
D02*
G37*
G36*
X5108526Y3642852D02*
X5091479D01*
X5075730Y3636328D01*
X5063676Y3624274D01*
X5057153Y3608525D01*
Y3591478D01*
X5063676Y3575729D01*
X5075730Y3563676D01*
X5091479Y3557152D01*
X5108526D01*
X5124275Y3563676D01*
X5136329Y3575729D01*
X5142853Y3591478D01*
Y3608525D01*
X5136329Y3624274D01*
X5124275Y3636328D01*
X5108526Y3642852D01*
D02*
G37*
G36*
X4108526D02*
X4091479D01*
X4075730Y3636328D01*
X4063676Y3624274D01*
X4057152Y3608525D01*
Y3591478D01*
X4063676Y3575729D01*
X4075730Y3563676D01*
X4091479Y3557152D01*
X4108526D01*
X4124275Y3563676D01*
X4136329Y3575729D01*
X4142852Y3591478D01*
Y3608525D01*
X4136329Y3624274D01*
X4124275Y3636328D01*
X4108526Y3642852D01*
D02*
G37*
G36*
X3108525D02*
X3091478D01*
X3075729Y3636328D01*
X3063675Y3624274D01*
X3057152Y3608525D01*
Y3591478D01*
X3063675Y3575729D01*
X3075729Y3563676D01*
X3091478Y3557152D01*
X3108525D01*
X3124274Y3563676D01*
X3136328Y3575729D01*
X3142851Y3591478D01*
Y3608525D01*
X3136328Y3624274D01*
X3124274Y3636328D01*
X3108525Y3642852D01*
D02*
G37*
G36*
X6008527Y3442852D02*
X5991480D01*
X5975731Y3436328D01*
X5963677Y3424274D01*
X5957153Y3408525D01*
Y3391478D01*
X5963677Y3375729D01*
X5975731Y3363676D01*
X5991480Y3357152D01*
X6008527D01*
X6024276Y3363676D01*
X6036330Y3375729D01*
X6042853Y3391478D01*
Y3408525D01*
X6036330Y3424274D01*
X6024276Y3436328D01*
X6008527Y3442852D01*
D02*
G37*
G36*
X4208526D02*
X4191479D01*
X4175730Y3436328D01*
X4163676Y3424274D01*
X4157152Y3408525D01*
Y3391478D01*
X4163676Y3375729D01*
X4175730Y3363676D01*
X4191479Y3357152D01*
X4208526D01*
X4224275Y3363676D01*
X4236329Y3375729D01*
X4242852Y3391478D01*
Y3408525D01*
X4236329Y3424274D01*
X4224275Y3436328D01*
X4208526Y3442852D01*
D02*
G37*
G36*
X3808526D02*
X3791479D01*
X3775730Y3436328D01*
X3763676Y3424274D01*
X3757152Y3408525D01*
Y3391478D01*
X3763676Y3375729D01*
X3775730Y3363676D01*
X3791479Y3357152D01*
X3808526D01*
X3824275Y3363676D01*
X3836328Y3375729D01*
X3842852Y3391478D01*
Y3408525D01*
X3836328Y3424274D01*
X3824275Y3436328D01*
X3808526Y3442852D01*
D02*
G37*
G36*
X5808527D02*
X5791480D01*
X5775731Y3436328D01*
X5763677Y3424274D01*
X5757153Y3408525D01*
Y3391478D01*
X5763677Y3375729D01*
X5775731Y3363676D01*
X5791480Y3357152D01*
X5808527D01*
X5818092Y3361114D01*
X5843674Y3365727D01*
X5855727Y3353674D01*
X5871476Y3347150D01*
X5888523D01*
X5904272Y3353674D01*
X5916326Y3365728D01*
X5922850Y3381477D01*
Y3398524D01*
X5916326Y3414273D01*
X5904272Y3426326D01*
X5888523Y3432850D01*
X5871476D01*
X5861911Y3428888D01*
X5836329Y3424275D01*
X5824276Y3436328D01*
X5808527Y3442852D01*
D02*
G37*
G36*
X3748523Y3282850D02*
X3731476D01*
X3715727Y3276326D01*
X3703674Y3264273D01*
X3697150Y3248524D01*
Y3231477D01*
X3703674Y3215728D01*
X3715727Y3203674D01*
X3731476Y3197150D01*
X3748523D01*
X3764272Y3203674D01*
X3776326Y3215728D01*
X3782850Y3231477D01*
Y3248524D01*
X3776326Y3264273D01*
X3764272Y3276326D01*
X3748523Y3282850D01*
D02*
G37*
G36*
X5908527Y3242852D02*
X5891480D01*
X5875731Y3236328D01*
X5863677Y3224274D01*
X5857153Y3208525D01*
Y3191478D01*
X5863677Y3175729D01*
X5875731Y3163675D01*
X5891480Y3157152D01*
X5908527D01*
X5924276Y3163675D01*
X5936330Y3175729D01*
X5942853Y3191478D01*
Y3208525D01*
X5936330Y3224274D01*
X5924276Y3236328D01*
X5908527Y3242852D01*
D02*
G37*
G36*
X2708525D02*
X2691478D01*
X2675729Y3236328D01*
X2663675Y3224274D01*
X2657152Y3208525D01*
Y3191478D01*
X2663675Y3175729D01*
X2675729Y3163675D01*
X2691478Y3157152D01*
X2708525D01*
X2724274Y3163675D01*
X2736328Y3175729D01*
X2742851Y3191478D01*
Y3208525D01*
X2736328Y3224274D01*
X2724274Y3236328D01*
X2708525Y3242852D01*
D02*
G37*
G36*
X2808525Y3042851D02*
X2791478D01*
X2775729Y3036328D01*
X2763675Y3024274D01*
X2757152Y3008525D01*
Y2991478D01*
X2763675Y2975729D01*
X2775729Y2963675D01*
X2791478Y2957152D01*
X2808525D01*
X2824274Y2963675D01*
X2836328Y2975729D01*
X2842851Y2991478D01*
Y3008525D01*
X2836328Y3024274D01*
X2824274Y3036328D01*
X2808525Y3042851D01*
D02*
G37*
G36*
X6480039Y2880449D02*
X6457370Y2875940D01*
X6438152Y2863099D01*
X6425310Y2843881D01*
X6420801Y2821211D01*
X6425310Y2798542D01*
X6438151Y2779324D01*
X6457370Y2766482D01*
X6480039Y2761973D01*
X6502709Y2766482D01*
X6521927Y2779324D01*
X6534768Y2798542D01*
X6539277Y2821212D01*
X6534768Y2843881D01*
X6521927Y2863099D01*
X6502709Y2875940D01*
X6480039Y2880449D01*
D02*
G37*
G36*
X6988788Y2880450D02*
X6966119Y2875940D01*
X6946901Y2863099D01*
X6934060Y2843881D01*
X6929550Y2821212D01*
X6934060Y2798542D01*
X6946901Y2779324D01*
X6948112Y2778112D01*
X6967331Y2765271D01*
X6990000Y2760762D01*
X7012669Y2765271D01*
X7031888Y2778112D01*
X7044729Y2797330D01*
X7049238Y2820000D01*
X7044729Y2842669D01*
X7031888Y2861888D01*
X7030676Y2863099D01*
X7011458Y2875940D01*
X6988788Y2880450D01*
D02*
G37*
G36*
X6708527Y2842851D02*
X6691480D01*
X6675731Y2836328D01*
X6663677Y2824274D01*
X6657154Y2808525D01*
Y2791478D01*
X6663677Y2775729D01*
X6675731Y2763675D01*
X6691480Y2757152D01*
X6708527D01*
X6724276Y2763675D01*
X6736330Y2775729D01*
X6742853Y2791478D01*
Y2808525D01*
X6736330Y2824274D01*
X6724276Y2836328D01*
X6708527Y2842851D01*
D02*
G37*
G36*
X6308527D02*
X6291480D01*
X6275731Y2836328D01*
X6263677Y2824274D01*
X6257154Y2808525D01*
Y2791478D01*
X6263677Y2775729D01*
X6275731Y2763675D01*
X6291480Y2757152D01*
X6308527D01*
X6324276Y2763675D01*
X6336330Y2775729D01*
X6342853Y2791478D01*
Y2808525D01*
X6336330Y2824274D01*
X6324276Y2836328D01*
X6308527Y2842851D01*
D02*
G37*
G36*
X2908525D02*
X2891478D01*
X2875729Y2836328D01*
X2863675Y2824274D01*
X2857152Y2808525D01*
Y2791478D01*
X2863675Y2775729D01*
X2875729Y2763675D01*
X2891478Y2757152D01*
X2908525D01*
X2924274Y2763675D01*
X2936328Y2775729D01*
X2942851Y2791478D01*
Y2808525D01*
X2936328Y2824274D01*
X2924274Y2836328D01*
X2908525Y2842851D01*
D02*
G37*
G36*
X2708525D02*
X2691478D01*
X2675729Y2836328D01*
X2663675Y2824274D01*
X2657152Y2808525D01*
Y2791478D01*
X2663675Y2775729D01*
X2675729Y2763675D01*
X2691478Y2757152D01*
X2708525D01*
X2724274Y2763675D01*
X2736328Y2775729D01*
X2742851Y2791478D01*
Y2808525D01*
X2736328Y2824274D01*
X2724274Y2836328D01*
X2708525Y2842851D01*
D02*
G37*
G36*
X4508526Y2442851D02*
X4491479D01*
X4475730Y2436328D01*
X4463676Y2424274D01*
X4457153Y2408525D01*
Y2391478D01*
X4463676Y2375729D01*
X4475730Y2363675D01*
X4491479Y2357151D01*
X4508526D01*
X4524275Y2363675D01*
X4536329Y2375729D01*
X4542852Y2391478D01*
Y2408525D01*
X4536329Y2424274D01*
X4524275Y2436328D01*
X4508526Y2442851D01*
D02*
G37*
G36*
X4308526D02*
X4291479D01*
X4275730Y2436328D01*
X4263676Y2424274D01*
X4257153Y2408525D01*
Y2391478D01*
X4263676Y2375729D01*
X4275730Y2363675D01*
X4291479Y2357151D01*
X4308526D01*
X4324275Y2363675D01*
X4336329Y2375729D01*
X4342852Y2391478D01*
Y2408525D01*
X4336329Y2424274D01*
X4324275Y2436328D01*
X4308526Y2442851D01*
D02*
G37*
G36*
X3908526D02*
X3891479D01*
X3875730Y2436328D01*
X3863676Y2424274D01*
X3857152Y2408525D01*
Y2391478D01*
X3863676Y2375729D01*
X3875730Y2363675D01*
X3891479Y2357151D01*
X3908526D01*
X3924275Y2363675D01*
X3936328Y2375729D01*
X3942852Y2391478D01*
Y2408525D01*
X3936328Y2424274D01*
X3924275Y2436328D01*
X3908526Y2442851D01*
D02*
G37*
G36*
X3708525D02*
X3691479D01*
X3675730Y2436328D01*
X3663676Y2424274D01*
X3657152Y2408525D01*
Y2391478D01*
X3663676Y2375729D01*
X3675730Y2363675D01*
X3691479Y2357151D01*
X3708525D01*
X3724274Y2363675D01*
X3736328Y2375729D01*
X3742852Y2391478D01*
Y2408525D01*
X3736328Y2424274D01*
X3724274Y2436328D01*
X3708525Y2442851D01*
D02*
G37*
%LPD*%
G36*
X5240000Y7120000D02*
Y6865403D01*
X5237150Y6858523D01*
Y6841477D01*
X5240000Y6834597D01*
Y6760599D01*
X5233674Y6754272D01*
X5227150Y6738523D01*
Y6721477D01*
X5233674Y6705728D01*
X5240000Y6699401D01*
Y5629999D01*
X5169908Y5559909D01*
X5156052Y5562024D01*
X5155747Y5562236D01*
X5141764Y5588852D01*
X5142853Y5591480D01*
Y5608527D01*
X5136329Y5624276D01*
X5124275Y5636329D01*
X5108526Y5642853D01*
X5091479D01*
X5075730Y5636329D01*
X5063676Y5624276D01*
X5057153Y5608527D01*
Y5591480D01*
X5063676Y5575731D01*
X5064007Y5575400D01*
X5053486Y5550000D01*
X3946519D01*
X3935998Y5575400D01*
X3936328Y5575731D01*
X3942852Y5591480D01*
Y5608527D01*
X3936328Y5624276D01*
X3924275Y5636329D01*
X3908526Y5642853D01*
X3891479D01*
X3875730Y5636329D01*
X3863676Y5624276D01*
X3857152Y5608527D01*
Y5591480D01*
X3863676Y5575731D01*
X3864006Y5575400D01*
X3853485Y5550000D01*
X3746519D01*
X3735998Y5575400D01*
X3736328Y5575731D01*
X3742852Y5591480D01*
Y5608527D01*
X3736328Y5624276D01*
X3724274Y5636329D01*
X3708525Y5642853D01*
X3691479D01*
X3675730Y5636329D01*
X3663676Y5624276D01*
X3657152Y5608527D01*
Y5591480D01*
X3658244Y5588845D01*
X3644263Y5562234D01*
X3643955Y5562020D01*
X3630095Y5559905D01*
X3560000Y5630000D01*
X3560000Y7120000D01*
X3640000Y7200000D01*
X4693804D01*
X4695475Y7198329D01*
X4717876Y7189050D01*
X4742124D01*
X4764525Y7198329D01*
X4766196Y7200000D01*
X4828747D01*
X4843929Y7193711D01*
X4868176D01*
X4883359Y7200000D01*
X5160000D01*
X5240000Y7120000D01*
D02*
G37*
%LPC*%
G36*
X4373273Y7021911D02*
X4349026D01*
X4326624Y7012632D01*
X4309479Y6995487D01*
X4300200Y6973085D01*
Y6948838D01*
X4309479Y6926436D01*
X4326624Y6909291D01*
X4349026Y6900012D01*
X4373273D01*
X4395675Y6909291D01*
X4412820Y6926436D01*
X4422099Y6948838D01*
Y6973085D01*
X4412820Y6995487D01*
X4395675Y7012632D01*
X4373273Y7021911D01*
D02*
G37*
G36*
X4538524Y6952850D02*
X4521477D01*
X4505728Y6946326D01*
X4493674Y6934272D01*
X4487150Y6918523D01*
Y6901476D01*
X4493674Y6885727D01*
X4505728Y6873674D01*
X4521477Y6867150D01*
X4538524D01*
X4540255Y6867867D01*
X4541158Y6867246D01*
X4557169Y6847380D01*
X4553500Y6838524D01*
Y6821477D01*
X4560024Y6805728D01*
X4572077Y6793674D01*
X4587826Y6787150D01*
X4604873D01*
X4620622Y6793674D01*
X4632676Y6805728D01*
X4639200Y6821477D01*
Y6838524D01*
X4632676Y6854273D01*
X4620622Y6866326D01*
X4604873Y6872850D01*
X4587826D01*
X4586095Y6872133D01*
X4585192Y6872754D01*
X4569181Y6892620D01*
X4572850Y6901476D01*
Y6918523D01*
X4566326Y6934272D01*
X4554273Y6946326D01*
X4538524Y6952850D01*
D02*
G37*
G36*
X3728523Y6802850D02*
X3711476D01*
X3695727Y6796326D01*
X3683674Y6784272D01*
X3677150Y6768523D01*
Y6751476D01*
X3683674Y6735727D01*
X3695727Y6723674D01*
X3711476Y6717150D01*
X3728523D01*
X3744272Y6723674D01*
X3756326Y6735727D01*
X3762850Y6751476D01*
Y6768523D01*
X3756326Y6784272D01*
X3744272Y6796326D01*
X3728523Y6802850D01*
D02*
G37*
G36*
X4970085Y6794787D02*
X4953038D01*
X4937289Y6788263D01*
X4925235Y6776209D01*
X4918711Y6760460D01*
Y6743413D01*
X4925235Y6727664D01*
X4937289Y6715610D01*
X4953038Y6709087D01*
X4970085D01*
X4985834Y6715610D01*
X4997887Y6727664D01*
X5004411Y6743413D01*
Y6760460D01*
X4997887Y6776209D01*
X4985834Y6788263D01*
X4970085Y6794787D01*
D02*
G37*
G36*
X3848523Y6762850D02*
X3831476D01*
X3815727Y6756326D01*
X3803674Y6744273D01*
X3797150Y6728524D01*
Y6711477D01*
X3803674Y6695728D01*
X3815727Y6683674D01*
X3831476Y6677150D01*
X3848523D01*
X3864272Y6683674D01*
X3876326Y6695728D01*
X3882850Y6711477D01*
Y6728524D01*
X3876326Y6744273D01*
X3864272Y6756326D01*
X3848523Y6762850D01*
D02*
G37*
G36*
X4682124Y6780950D02*
X4657876D01*
X4635475Y6771671D01*
X4618329Y6754525D01*
X4609050Y6732124D01*
Y6707876D01*
X4618329Y6685475D01*
X4635475Y6668329D01*
X4657876Y6659050D01*
X4669050D01*
Y6638887D01*
X4678329Y6616486D01*
X4695475Y6599340D01*
X4717876Y6590061D01*
X4742124D01*
X4764525Y6599340D01*
X4781671Y6616486D01*
X4790950Y6638887D01*
Y6663135D01*
X4781671Y6685536D01*
X4764525Y6702682D01*
X4742124Y6711961D01*
X4730950D01*
Y6732124D01*
X4721671Y6754525D01*
X4704525Y6771671D01*
X4682124Y6780950D01*
D02*
G37*
G36*
X4408526Y6642853D02*
X4391479D01*
X4375730Y6636330D01*
X4363676Y6624276D01*
X4357153Y6608527D01*
Y6591480D01*
X4363676Y6575731D01*
X4375730Y6563677D01*
X4391479Y6557154D01*
X4408526D01*
X4424275Y6563677D01*
X4436329Y6575731D01*
X4442852Y6591480D01*
Y6608527D01*
X4436329Y6624276D01*
X4424275Y6636330D01*
X4408526Y6642853D01*
D02*
G37*
G36*
X3788524Y6532850D02*
X3771477D01*
X3755728Y6526326D01*
X3743674Y6514272D01*
X3737150Y6498523D01*
Y6481476D01*
X3743674Y6465727D01*
X3755728Y6453674D01*
X3771477Y6447150D01*
X3788524D01*
X3804273Y6453674D01*
X3816326Y6465727D01*
X3822850Y6481476D01*
Y6498523D01*
X3816326Y6514272D01*
X3804273Y6526326D01*
X3788524Y6532850D01*
D02*
G37*
G36*
X4708526Y6442853D02*
X4691479D01*
X4675730Y6436330D01*
X4663676Y6424276D01*
X4657153Y6408527D01*
Y6391480D01*
X4663676Y6375731D01*
X4675730Y6363677D01*
X4691479Y6357154D01*
X4708526D01*
X4724275Y6363677D01*
X4736329Y6375731D01*
X4742852Y6391480D01*
Y6408527D01*
X4736329Y6424276D01*
X4724275Y6436330D01*
X4708526Y6442853D01*
D02*
G37*
G36*
X4913136Y6545018D02*
X4896090D01*
X4880341Y6538495D01*
X4868287Y6526441D01*
X4861763Y6510692D01*
Y6493645D01*
X4868287Y6477896D01*
X4880341Y6465842D01*
X4880473Y6465787D01*
Y6438294D01*
X4875730Y6436330D01*
X4863676Y6424276D01*
X4857153Y6408527D01*
Y6391480D01*
X4863676Y6375731D01*
X4875730Y6363677D01*
X4891479Y6357154D01*
X4908526D01*
X4924275Y6363677D01*
X4928883Y6368285D01*
X4954659Y6367008D01*
X4958816Y6365031D01*
X4969005Y6354841D01*
X4984754Y6348318D01*
X5001801D01*
X5017550Y6354841D01*
X5029604Y6366895D01*
X5036127Y6382644D01*
Y6399691D01*
X5029604Y6415440D01*
X5017550Y6427494D01*
X5001801Y6434017D01*
X4984754D01*
X4969005Y6427494D01*
X4964397Y6422886D01*
X4938621Y6424163D01*
X4934465Y6426140D01*
X4924275Y6436330D01*
X4924143Y6436385D01*
Y6463878D01*
X4928885Y6465842D01*
X4940939Y6477896D01*
X4947463Y6493645D01*
Y6510692D01*
X4940939Y6526441D01*
X4928885Y6538495D01*
X4913136Y6545018D01*
D02*
G37*
G36*
X4128523Y6392850D02*
X4111476D01*
X4095727Y6386326D01*
X4083674Y6374272D01*
X4077150Y6358523D01*
Y6341477D01*
X4083674Y6325728D01*
X4095727Y6313674D01*
X4111476Y6307150D01*
X4128523D01*
X4144272Y6313674D01*
X4156326Y6325728D01*
X4162850Y6341477D01*
Y6358523D01*
X4156326Y6374272D01*
X4144272Y6386326D01*
X4128523Y6392850D01*
D02*
G37*
G36*
X3818523Y6412850D02*
X3801477D01*
X3785728Y6406326D01*
X3773674Y6394272D01*
X3767150Y6378523D01*
Y6361476D01*
X3768487Y6358250D01*
X3762471Y6336452D01*
X3754760Y6330068D01*
X3745728Y6326326D01*
X3733674Y6314273D01*
X3727150Y6298524D01*
Y6281477D01*
X3733674Y6265728D01*
X3745728Y6253674D01*
X3761477Y6247150D01*
X3778524D01*
X3794273Y6253674D01*
X3806326Y6265728D01*
X3812850Y6281477D01*
Y6298524D01*
X3811513Y6301750D01*
X3817530Y6323548D01*
X3825240Y6329932D01*
X3834272Y6333674D01*
X3846326Y6345727D01*
X3852850Y6361476D01*
Y6378523D01*
X3846326Y6394272D01*
X3834272Y6406326D01*
X3818523Y6412850D01*
D02*
G37*
G36*
X5008526Y6242853D02*
X4991479D01*
X4975730Y6236330D01*
X4963676Y6224276D01*
X4957153Y6208527D01*
Y6191480D01*
X4963676Y6175731D01*
X4975730Y6163677D01*
X4991479Y6157154D01*
X5008526D01*
X5024275Y6163677D01*
X5036329Y6175731D01*
X5042853Y6191480D01*
Y6208527D01*
X5036329Y6224276D01*
X5024275Y6236330D01*
X5008526Y6242853D01*
D02*
G37*
G36*
X4388523Y6162850D02*
X4371476D01*
X4355727Y6156326D01*
X4343674Y6144272D01*
X4337150Y6128523D01*
Y6111476D01*
X4343674Y6095727D01*
X4355727Y6083674D01*
X4371476Y6077150D01*
X4388523D01*
X4404272Y6083674D01*
X4416326Y6095727D01*
X4422850Y6111476D01*
Y6128523D01*
X4416326Y6144272D01*
X4404272Y6156326D01*
X4388523Y6162850D01*
D02*
G37*
G36*
X4728523Y5772850D02*
X4711476D01*
X4695727Y5766326D01*
X4683674Y5754272D01*
X4677150Y5738523D01*
Y5721476D01*
X4683674Y5705727D01*
X4695727Y5693674D01*
X4711476Y5687150D01*
X4728523D01*
X4744272Y5693674D01*
X4756326Y5705727D01*
X4762850Y5721476D01*
Y5738523D01*
X4756326Y5754272D01*
X4744272Y5766326D01*
X4728523Y5772850D01*
D02*
G37*
G36*
X4168524D02*
X4151477D01*
X4135728Y5766326D01*
X4123674Y5754272D01*
X4117150Y5738523D01*
Y5721476D01*
X4123674Y5705727D01*
X4135728Y5693674D01*
X4151477Y5687150D01*
X4168524D01*
X4184273Y5693674D01*
X4196326Y5705727D01*
X4202850Y5721476D01*
Y5738523D01*
X4196326Y5754272D01*
X4184273Y5766326D01*
X4168524Y5772850D01*
D02*
G37*
G36*
X4308524Y5732850D02*
X4291477D01*
X4275728Y5726326D01*
X4263674Y5714273D01*
X4257150Y5698524D01*
Y5681477D01*
X4263674Y5665728D01*
X4275728Y5653674D01*
X4291477Y5647150D01*
X4308524D01*
X4324273Y5653674D01*
X4336326Y5665728D01*
X4342850Y5681477D01*
Y5698524D01*
X4336326Y5714273D01*
X4324273Y5726326D01*
X4308524Y5732850D01*
D02*
G37*
%LPD*%
D49*
X6315966Y6227802D02*
G03*
X6309479Y6181211I164073J-46591D01*
G01*
X6070000Y5930000D02*
X6302043Y6162043D01*
X5725550Y5930000D02*
X6070000D01*
X6302043Y6162043D02*
X6309479Y6169479D01*
Y6181211D01*
X6315966Y6227802D02*
X6320000Y6242008D01*
Y9865573D01*
X6134438Y10051135D02*
X6312560Y9873012D01*
X6320000Y9865573D01*
D52*
X1848789Y1561211D02*
X6480039D01*
X1310000Y2100000D02*
X1848789Y1561211D01*
X1310000Y2100000D02*
Y2610000D01*
X1130039Y2789961D02*
X1310000Y2610000D01*
X1130039Y2789961D02*
Y3100039D01*
X1140000Y3110000D01*
X1130039Y3112430D02*
Y3459545D01*
X1241039Y3570546D01*
Y4337402D01*
X1160000Y4418442D02*
X1241039Y4337402D01*
X1160000Y4418442D02*
Y4450000D01*
X1131057Y4447385D02*
Y4777300D01*
X1242057Y4888301D01*
Y5667943D01*
X1130039Y5781210D02*
Y6128326D01*
X1241039Y6239326D01*
Y7006851D01*
X1140000Y7107890D02*
X1241039Y7006851D01*
X1140000Y7107890D02*
Y7120000D01*
X1131039Y7116850D02*
Y7463966D01*
X1242040Y7574966D01*
Y8335209D01*
X1150000Y8427249D02*
X1242040Y8335209D01*
X1150000Y8427249D02*
Y8440000D01*
X1164439Y5745561D02*
X1242057Y5667943D01*
X1164439Y5745561D02*
Y5746810D01*
X1131249Y5780000D02*
X1164439Y5746810D01*
X1130000Y5780000D02*
X1131249D01*
X1131039Y8446210D02*
Y8793325D01*
X1242039Y8904326D01*
Y9669210D01*
X1131249Y9780000D02*
X1242039Y9669210D01*
X1120000Y9780000D02*
X1131249D01*
X6988788Y2821212D02*
X6990000Y2820000D01*
X6480039Y2821211D02*
X6480039Y2821212D01*
X770000Y3000000D02*
X770039Y2999961D01*
Y1079961D02*
Y2999961D01*
Y1079961D02*
X1600000Y250000D01*
X6240000D01*
X6770000Y780000D01*
Y2111250D01*
X6480039Y2401211D02*
X6770000Y2111250D01*
D53*
X1791057Y5197385D02*
D03*
X1790039Y6531210D02*
D03*
X1790039Y10531210D02*
D03*
X1791039Y9196210D02*
D03*
X1791039Y7866850D02*
D03*
X1790039Y3862430D02*
D03*
D54*
X1071057Y5147385D02*
D03*
X771057Y4347385D02*
D03*
Y5147385D02*
D03*
X771039Y7016851D02*
D03*
X1070039Y6481211D02*
D03*
X770039D02*
D03*
Y5681211D02*
D03*
X770039Y9681210D02*
D03*
X1070039Y10481210D02*
D03*
X770039D02*
D03*
X771039Y8346210D02*
D03*
X1071039Y9146210D02*
D03*
X771039D02*
D03*
X771039Y7816851D02*
D03*
X1071040D02*
D03*
X770039Y3812430D02*
D03*
Y3012430D02*
D03*
X1070039Y3812430D02*
D03*
D55*
X1131057Y4447385D02*
D03*
X1130039Y3112430D02*
D03*
X1131039Y7116850D02*
D03*
X1131039Y8446210D02*
D03*
X1130039Y9781210D02*
D03*
X1130039Y5781210D02*
D03*
D56*
X6480039Y1561211D02*
D03*
X7030039Y2821212D02*
D03*
X6480039Y2821211D02*
D03*
Y1981211D02*
D03*
Y2401211D02*
D03*
Y3241211D02*
D03*
Y3661211D02*
D03*
Y4081211D02*
D03*
Y4501211D02*
D03*
Y4921211D02*
D03*
Y5341211D02*
D03*
Y5761211D02*
D03*
Y6181211D02*
D03*
X7030039Y4501211D02*
D03*
Y5761211D02*
D03*
Y5341211D02*
D03*
Y4921211D02*
D03*
Y4081211D02*
D03*
Y3661211D02*
D03*
Y3241211D02*
D03*
Y2401212D02*
D03*
Y1561212D02*
D03*
Y1981212D02*
D03*
D57*
Y6181211D02*
D03*
D58*
X7760039Y6181211D02*
D03*
Y1561210D02*
D03*
D59*
X7280039Y10103711D02*
D03*
Y7604710D02*
D03*
D60*
X7407039Y9265211D02*
D03*
Y8443210D02*
D03*
X7153039Y8854210D02*
D03*
Y9128210D02*
D03*
Y8306210D02*
D03*
Y9402211D02*
D03*
Y8580210D02*
D03*
X7407039Y8991210D02*
D03*
Y8717210D02*
D03*
D61*
X5449961Y8942790D02*
D03*
D62*
X3770039Y10391210D02*
D03*
D63*
X4112539Y8785210D02*
D03*
Y8531210D02*
D03*
X4620539D02*
D03*
X4366539D02*
D03*
X3604539Y8785210D02*
D03*
X3858539D02*
D03*
X4366539D02*
D03*
X3604539Y8531210D02*
D03*
X3858539D02*
D03*
D64*
X5449961Y8688790D02*
D03*
Y8434790D02*
D03*
D65*
X4620539Y8785210D02*
D03*
D66*
X5770039Y10391210D02*
D03*
D67*
X7800004Y11400006D02*
D03*
X7900004Y11200006D02*
D03*
Y10800006D02*
D03*
X7800004Y10600006D02*
D03*
X7900004Y10400006D02*
D03*
X7800004Y10200006D02*
D03*
X7900004Y10000005D02*
D03*
X7800004Y9800005D02*
D03*
X7900004Y9600005D02*
D03*
X7800004Y9400005D02*
D03*
X7900004Y9200005D02*
D03*
X7800004Y9000005D02*
D03*
X7900004Y8800005D02*
D03*
X7800004Y8600005D02*
D03*
X7900004Y8400005D02*
D03*
X7800004Y8200004D02*
D03*
X7900004Y8000004D02*
D03*
X7800004Y7800004D02*
D03*
X7900004Y7600004D02*
D03*
X7800004Y7400004D02*
D03*
X7900004Y7200004D02*
D03*
X7800004Y7000004D02*
D03*
X7900004Y6800004D02*
D03*
X7800004Y6600004D02*
D03*
X7900004Y6400003D02*
D03*
Y6000003D02*
D03*
X7800004Y5800003D02*
D03*
X7900004Y5600003D02*
D03*
X7800004Y5400003D02*
D03*
X7900004Y5200003D02*
D03*
X7800004Y5000003D02*
D03*
X7900004Y4800003D02*
D03*
X7800004Y4600002D02*
D03*
X7900004Y4400002D02*
D03*
X7800004Y4200002D02*
D03*
X7900004Y4000002D02*
D03*
X7800004Y3800002D02*
D03*
X7900004Y3600002D02*
D03*
X7800004Y3400002D02*
D03*
X7900004Y3200002D02*
D03*
X7800004Y3000002D02*
D03*
X7900004Y2800002D02*
D03*
X7800004Y2600001D02*
D03*
X7900004Y2400001D02*
D03*
X7800004Y2200001D02*
D03*
X7900004Y2000001D02*
D03*
X7800004Y1800001D02*
D03*
X7900004Y1200001D02*
D03*
X7800004Y1000001D02*
D03*
X7900004Y800000D02*
D03*
Y400000D02*
D03*
X7800004Y200000D02*
D03*
X7700004Y10800006D02*
D03*
X7600004Y10600006D02*
D03*
X7700004Y10400006D02*
D03*
X7600004Y10200006D02*
D03*
X7700004Y10000005D02*
D03*
X7600004Y9800005D02*
D03*
X7700004Y9600005D02*
D03*
X7600004Y9400005D02*
D03*
X7700004Y9200005D02*
D03*
X7600004Y9000005D02*
D03*
X7700004Y8800005D02*
D03*
X7600004Y8600005D02*
D03*
X7700004Y8400005D02*
D03*
X7600004Y8200004D02*
D03*
X7700004Y8000004D02*
D03*
X7600004Y7800004D02*
D03*
X7700004Y7600004D02*
D03*
X7600004Y7400004D02*
D03*
X7700004Y7200004D02*
D03*
X7600004Y7000004D02*
D03*
X7700004Y6800004D02*
D03*
X7600004Y6600004D02*
D03*
X7700004Y6400003D02*
D03*
X7600004Y5800003D02*
D03*
X7700004Y5600003D02*
D03*
X7600004Y5400003D02*
D03*
X7700004Y5200003D02*
D03*
X7600004Y5000003D02*
D03*
X7700004Y4800003D02*
D03*
X7600004Y4600002D02*
D03*
X7700004Y4400002D02*
D03*
X7600004Y4200002D02*
D03*
X7700004Y4000002D02*
D03*
X7600004Y3800002D02*
D03*
X7700004Y3600002D02*
D03*
X7600004Y3400002D02*
D03*
X7700004Y3200002D02*
D03*
X7600004Y3000002D02*
D03*
X7700004Y2800002D02*
D03*
X7600004Y2600001D02*
D03*
X7700004Y2400001D02*
D03*
X7600004Y2200001D02*
D03*
X7700004Y2000001D02*
D03*
X7600004Y1800001D02*
D03*
Y1400001D02*
D03*
X7700004Y1200001D02*
D03*
X7600004Y1000001D02*
D03*
Y200000D02*
D03*
X7400004Y11400006D02*
D03*
X7500004Y10800006D02*
D03*
X7400004Y10600006D02*
D03*
X7500004Y10400006D02*
D03*
X7400004Y9800005D02*
D03*
X7500004Y9600005D02*
D03*
X7400004Y9400005D02*
D03*
X7500004Y8800005D02*
D03*
X7400004Y8200004D02*
D03*
X7500004Y8000004D02*
D03*
Y7200004D02*
D03*
X7400004Y7000004D02*
D03*
X7500004Y6800004D02*
D03*
Y6400003D02*
D03*
X7400004Y6200003D02*
D03*
X7500004Y6000003D02*
D03*
X7400004Y5800003D02*
D03*
X7500004Y5600003D02*
D03*
X7400004Y5400003D02*
D03*
X7500004Y5200003D02*
D03*
X7400004Y5000003D02*
D03*
X7500004Y4800003D02*
D03*
X7400004Y4600002D02*
D03*
X7500004Y4400002D02*
D03*
X7400004Y4200002D02*
D03*
X7500004Y4000002D02*
D03*
X7400004Y3800002D02*
D03*
X7500004Y3600002D02*
D03*
X7400004Y3400002D02*
D03*
X7500004Y3200002D02*
D03*
X7400004Y3000002D02*
D03*
X7500004Y2800002D02*
D03*
X7400004Y2600001D02*
D03*
X7500004Y2400001D02*
D03*
X7400004Y2200001D02*
D03*
X7500004Y2000001D02*
D03*
X7400004Y1800001D02*
D03*
X7500004Y1600001D02*
D03*
X7400004Y1400001D02*
D03*
X7500004Y1200001D02*
D03*
X7400004Y1000001D02*
D03*
Y200000D02*
D03*
X7200004Y11400006D02*
D03*
X7300004Y11200006D02*
D03*
X7200004Y11000006D02*
D03*
X7300004Y10800006D02*
D03*
X7200004Y10600006D02*
D03*
X7300004Y10400006D02*
D03*
X7200004Y9800005D02*
D03*
X7300004Y9600005D02*
D03*
Y9200005D02*
D03*
X7200004Y9000005D02*
D03*
X7300004Y8800005D02*
D03*
Y8000004D02*
D03*
Y7200004D02*
D03*
X7200004Y7000004D02*
D03*
X7300004Y6800004D02*
D03*
Y6400003D02*
D03*
Y6000003D02*
D03*
X7200004Y5400003D02*
D03*
Y5000003D02*
D03*
Y4600002D02*
D03*
Y4200002D02*
D03*
Y3400002D02*
D03*
Y3000002D02*
D03*
Y2600001D02*
D03*
X7300004Y2000001D02*
D03*
X7200004Y1800001D02*
D03*
X7300004Y1600001D02*
D03*
X7200004Y1400001D02*
D03*
X7300004Y1200001D02*
D03*
X7200004Y1000001D02*
D03*
X7300004Y800000D02*
D03*
X7200004Y600000D02*
D03*
X7300004Y400000D02*
D03*
X7200004Y200000D02*
D03*
X7000004Y11400006D02*
D03*
X7100004Y11200006D02*
D03*
X7000004Y11000006D02*
D03*
X7100004Y10800006D02*
D03*
X7000004Y10600006D02*
D03*
X7100004Y10400006D02*
D03*
X7000004Y10200006D02*
D03*
Y9800005D02*
D03*
X7100004Y9600005D02*
D03*
X7000004Y9400005D02*
D03*
X7100004Y8000004D02*
D03*
X7000004Y7800004D02*
D03*
Y7400004D02*
D03*
X7100004Y7200004D02*
D03*
X7000004Y7000004D02*
D03*
X7100004Y6800004D02*
D03*
Y6400003D02*
D03*
Y6000003D02*
D03*
X7000004Y3000002D02*
D03*
Y2600001D02*
D03*
Y1800001D02*
D03*
X7100004Y1200001D02*
D03*
X7000004Y1000001D02*
D03*
X7100004Y800000D02*
D03*
X7000004Y600000D02*
D03*
X7100004Y400000D02*
D03*
X7000004Y200000D02*
D03*
X6800004Y11400006D02*
D03*
X6900004Y11200006D02*
D03*
X6800004Y11000006D02*
D03*
X6900004Y10800006D02*
D03*
X6800004Y10600006D02*
D03*
X6900004Y10400006D02*
D03*
X6800004Y10200006D02*
D03*
X6900004Y10000005D02*
D03*
X6800004Y9800005D02*
D03*
X6900004Y9600005D02*
D03*
X6800004Y9400005D02*
D03*
Y8600005D02*
D03*
X6900004Y7600004D02*
D03*
X6800004Y7400004D02*
D03*
X6900004Y7200004D02*
D03*
X6800004Y7000004D02*
D03*
X6900004Y6400003D02*
D03*
X6800004Y6200003D02*
D03*
X6900004Y6000003D02*
D03*
X6800004Y5800003D02*
D03*
Y5000003D02*
D03*
Y4600002D02*
D03*
Y4200002D02*
D03*
Y3800002D02*
D03*
Y3400002D02*
D03*
X6900004Y1200001D02*
D03*
Y800000D02*
D03*
X6800004Y600000D02*
D03*
X6900004Y400000D02*
D03*
X6800004Y200000D02*
D03*
X6600004Y11400006D02*
D03*
X6700004Y11200006D02*
D03*
X6600004Y11000006D02*
D03*
X6700004Y10800006D02*
D03*
X6600004Y10600006D02*
D03*
X6700004Y10400006D02*
D03*
X6600004Y10200006D02*
D03*
X6700004Y10000005D02*
D03*
X6600004Y9800005D02*
D03*
X6700004Y9600005D02*
D03*
X6600004Y9400005D02*
D03*
X6700004Y9200005D02*
D03*
X6600004Y9000005D02*
D03*
X6700004Y8800005D02*
D03*
X6600004Y7400004D02*
D03*
X6700004Y7200004D02*
D03*
X6600004Y7000004D02*
D03*
X6700004Y6800004D02*
D03*
Y6400003D02*
D03*
Y6000003D02*
D03*
Y4400002D02*
D03*
Y4000002D02*
D03*
X6600004Y3800002D02*
D03*
X6700004Y3200002D02*
D03*
Y2800002D02*
D03*
Y2400001D02*
D03*
Y400000D02*
D03*
X6600004Y200000D02*
D03*
X6400003Y11400006D02*
D03*
X6500004Y11200006D02*
D03*
X6400003Y11000006D02*
D03*
X6500004Y10800006D02*
D03*
X6400003Y10600006D02*
D03*
X6500004Y10400006D02*
D03*
X6400003Y10200006D02*
D03*
X6500004Y10000005D02*
D03*
X6400003Y9800005D02*
D03*
X6500004Y9600005D02*
D03*
X6400003Y9400005D02*
D03*
X6500004Y9200005D02*
D03*
X6400003Y9000005D02*
D03*
X6500004Y7600004D02*
D03*
X6400003Y7400004D02*
D03*
X6500004Y7200004D02*
D03*
X6400003Y7000004D02*
D03*
X6500004Y6000003D02*
D03*
X6400003Y200000D02*
D03*
X6200003Y11400006D02*
D03*
X6300003Y11200006D02*
D03*
X6200003Y11000006D02*
D03*
X6300003Y10800006D02*
D03*
X6200003Y10600006D02*
D03*
X6300003Y10400006D02*
D03*
Y10000005D02*
D03*
X6200003Y9800005D02*
D03*
Y9400005D02*
D03*
Y9000005D02*
D03*
Y8600005D02*
D03*
Y7400004D02*
D03*
Y6200003D02*
D03*
Y4600002D02*
D03*
X6300003Y4400002D02*
D03*
Y4000002D02*
D03*
Y3600002D02*
D03*
Y2800002D02*
D03*
X6200003Y1800001D02*
D03*
X6000003Y11400006D02*
D03*
X6100003Y11200006D02*
D03*
X6000003Y11000006D02*
D03*
X6100003Y10800006D02*
D03*
X6000003Y10600006D02*
D03*
Y10200006D02*
D03*
Y9800005D02*
D03*
X6100003Y9600005D02*
D03*
X6000003Y9400005D02*
D03*
X6100003Y9200005D02*
D03*
X6000003Y9000005D02*
D03*
X6100003Y8800005D02*
D03*
X6000003Y8600005D02*
D03*
X6100003Y7200004D02*
D03*
Y6800004D02*
D03*
X6000003Y6600004D02*
D03*
X6100003Y6400003D02*
D03*
X6000003Y6200003D02*
D03*
Y5800003D02*
D03*
Y4600002D02*
D03*
Y4200002D02*
D03*
Y3800002D02*
D03*
Y3400002D02*
D03*
Y2200001D02*
D03*
Y1800001D02*
D03*
X6100003Y400000D02*
D03*
X5800003Y11400006D02*
D03*
X5900003Y11200006D02*
D03*
X5800003Y11000006D02*
D03*
X5900003Y10800006D02*
D03*
X5800003Y10600006D02*
D03*
Y10200006D02*
D03*
X5900003Y10000005D02*
D03*
X5800003Y9800005D02*
D03*
X5900003Y9600005D02*
D03*
X5800003Y9400005D02*
D03*
X5900003Y9200005D02*
D03*
X5800003Y9000005D02*
D03*
X5900003Y8800005D02*
D03*
X5800003Y8600005D02*
D03*
X5900003Y8400005D02*
D03*
X5800003Y7400004D02*
D03*
X5900003Y7200004D02*
D03*
X5800003Y6200003D02*
D03*
Y3400002D02*
D03*
X5900003Y3200002D02*
D03*
Y2000001D02*
D03*
X5800003Y1800001D02*
D03*
Y1400001D02*
D03*
X5900003Y1200001D02*
D03*
Y400000D02*
D03*
X5600003Y11400006D02*
D03*
X5700003Y11200006D02*
D03*
X5600003Y11000006D02*
D03*
X5700003Y10800006D02*
D03*
X5600003Y10600006D02*
D03*
Y10200006D02*
D03*
X5700003Y10000005D02*
D03*
X5600003Y9800005D02*
D03*
X5700003Y9600005D02*
D03*
X5600003Y9400005D02*
D03*
X5700003Y9200005D02*
D03*
X5600003Y9000005D02*
D03*
X5700003Y8800005D02*
D03*
X5600003Y8600005D02*
D03*
X5700003Y8400005D02*
D03*
X5600003Y7400004D02*
D03*
Y6200003D02*
D03*
Y5800003D02*
D03*
X5700003Y5600003D02*
D03*
X5600003Y4600002D02*
D03*
Y3800002D02*
D03*
Y2200001D02*
D03*
X5700003Y2000001D02*
D03*
X5600003Y1800001D02*
D03*
X5700003Y1200001D02*
D03*
Y400000D02*
D03*
X5400003Y11400006D02*
D03*
X5500003Y11200006D02*
D03*
X5400003Y11000006D02*
D03*
X5500003Y10800006D02*
D03*
X5400003Y10600006D02*
D03*
X5500003Y10400006D02*
D03*
X5400003Y10200006D02*
D03*
X5500003Y10000005D02*
D03*
X5400003Y9800005D02*
D03*
X5500003Y9600005D02*
D03*
X5400003Y9400005D02*
D03*
X5500003Y9200005D02*
D03*
Y8800005D02*
D03*
Y7600004D02*
D03*
Y6400003D02*
D03*
Y6000003D02*
D03*
X5400003Y5800003D02*
D03*
X5500003Y5600003D02*
D03*
X5400003Y4600002D02*
D03*
Y2200001D02*
D03*
X5500003Y2000001D02*
D03*
X5400003Y1800001D02*
D03*
X5500003Y400000D02*
D03*
X5200003Y11400006D02*
D03*
X5300003Y11200006D02*
D03*
X5200003Y11000006D02*
D03*
X5300003Y10800006D02*
D03*
X5200003Y10600006D02*
D03*
X5300003Y10400006D02*
D03*
X5200003Y10200006D02*
D03*
X5300003Y10000005D02*
D03*
X5200003Y9800005D02*
D03*
X5300003Y9600005D02*
D03*
X5200003Y9400005D02*
D03*
X5300003Y9200005D02*
D03*
X5200003Y9000005D02*
D03*
X5300003Y8800005D02*
D03*
X5200003Y8600005D02*
D03*
X5300003Y8400005D02*
D03*
Y5600003D02*
D03*
X5200003Y2200001D02*
D03*
X5300003Y2000001D02*
D03*
Y400000D02*
D03*
X5000003Y11400006D02*
D03*
X5100003Y11200006D02*
D03*
X5000003Y11000006D02*
D03*
X5100003Y10800006D02*
D03*
X5000003Y10600006D02*
D03*
X5100003Y10400006D02*
D03*
X5000003Y10200006D02*
D03*
X5100003Y10000005D02*
D03*
X5000003Y9800005D02*
D03*
X5100003Y9600005D02*
D03*
X5000003Y9400005D02*
D03*
X5100003Y9200005D02*
D03*
X5000003Y9000005D02*
D03*
X5100003Y8800005D02*
D03*
X5000003Y8600005D02*
D03*
Y8200004D02*
D03*
Y6200003D02*
D03*
X5100003Y5600003D02*
D03*
Y4800003D02*
D03*
X5000003Y4600002D02*
D03*
X5100003Y4400002D02*
D03*
Y3600002D02*
D03*
X5000003Y2200001D02*
D03*
X5100003Y2000001D02*
D03*
X5000003Y1800001D02*
D03*
Y1400001D02*
D03*
Y600000D02*
D03*
X5100003Y400000D02*
D03*
X4800003Y11400006D02*
D03*
X4900003Y11200006D02*
D03*
X4800003Y11000006D02*
D03*
X4900003Y10800006D02*
D03*
X4800003Y10600006D02*
D03*
X4900003Y10400006D02*
D03*
X4800003Y10200006D02*
D03*
X4900003Y10000005D02*
D03*
X4800003Y9800005D02*
D03*
X4900003Y9600005D02*
D03*
X4800003Y9400005D02*
D03*
X4900003Y9200005D02*
D03*
X4800003Y9000005D02*
D03*
X4900003Y8800005D02*
D03*
X4800003Y8600005D02*
D03*
X4900003Y8400005D02*
D03*
X4800003Y8200004D02*
D03*
X4900003Y6400003D02*
D03*
Y4800003D02*
D03*
X4800003Y2200001D02*
D03*
X4900003Y2000001D02*
D03*
X4800003Y600000D02*
D03*
X4900003Y400000D02*
D03*
X4600002Y11400006D02*
D03*
X4700003Y11200006D02*
D03*
X4600002Y11000006D02*
D03*
X4700003Y10800006D02*
D03*
X4600002Y10600006D02*
D03*
X4700003Y10400006D02*
D03*
X4600002Y10200006D02*
D03*
X4700003Y10000005D02*
D03*
X4600002Y9800005D02*
D03*
X4700003Y9600005D02*
D03*
X4600002Y9400005D02*
D03*
X4700003Y9200005D02*
D03*
X4600002Y9000005D02*
D03*
X4700003Y8400005D02*
D03*
X4600002Y8200004D02*
D03*
X4700003Y8000004D02*
D03*
Y6400003D02*
D03*
X4600002Y2200001D02*
D03*
X4700003Y2000001D02*
D03*
X4600002Y600000D02*
D03*
X4700003Y400000D02*
D03*
X4400002Y11400006D02*
D03*
X4500002Y11200006D02*
D03*
X4400002Y11000006D02*
D03*
X4500002Y10800006D02*
D03*
X4400002Y10600006D02*
D03*
X4500002Y10400006D02*
D03*
X4400002Y10200006D02*
D03*
X4500002Y10000005D02*
D03*
X4400002Y9800005D02*
D03*
X4500002Y9600005D02*
D03*
X4400002Y9400005D02*
D03*
X4500002Y9200005D02*
D03*
X4400002Y9000005D02*
D03*
Y8200004D02*
D03*
X4500002Y8000004D02*
D03*
X4400002Y7800004D02*
D03*
Y6600004D02*
D03*
X4500002Y2400001D02*
D03*
X4400002Y2200001D02*
D03*
Y1800001D02*
D03*
Y600000D02*
D03*
X4500002Y400000D02*
D03*
X4200002Y11400006D02*
D03*
X4300002Y11200006D02*
D03*
X4200002Y11000006D02*
D03*
X4300002Y10800006D02*
D03*
X4200002Y10600006D02*
D03*
X4300002Y10400006D02*
D03*
X4200002Y10200006D02*
D03*
X4300002Y10000005D02*
D03*
X4200002Y9800005D02*
D03*
X4300002Y9600005D02*
D03*
X4200002Y9400005D02*
D03*
X4300002Y9200005D02*
D03*
X4200002Y9000005D02*
D03*
Y8200004D02*
D03*
X4300002Y8000004D02*
D03*
X4200002Y7800004D02*
D03*
X4300002Y7600004D02*
D03*
X4200002Y3400002D02*
D03*
X4300002Y2400001D02*
D03*
Y2000001D02*
D03*
X4200002Y1800001D02*
D03*
Y1400001D02*
D03*
X4300002Y1200001D02*
D03*
X4200002Y1000001D02*
D03*
X4300002Y800000D02*
D03*
X4200002Y600000D02*
D03*
X4300002Y400000D02*
D03*
X4000002Y11400006D02*
D03*
X4100002Y11200006D02*
D03*
X4000002Y11000006D02*
D03*
X4100002Y10800006D02*
D03*
X4000002Y10600006D02*
D03*
X4100002Y10400006D02*
D03*
X4000002Y10200006D02*
D03*
X4100002Y10000005D02*
D03*
X4000002Y9800005D02*
D03*
X4100002Y9600005D02*
D03*
X4000002Y9400005D02*
D03*
X4100002Y9200005D02*
D03*
X4000002Y9000005D02*
D03*
Y8600005D02*
D03*
X4100002Y8400005D02*
D03*
X4000002Y4200002D02*
D03*
X4100002Y3600002D02*
D03*
X4000002Y2200001D02*
D03*
X4100002Y2000001D02*
D03*
X4000002Y1800001D02*
D03*
Y1400001D02*
D03*
X4100002Y1200001D02*
D03*
X4000002Y1000001D02*
D03*
X4100002Y800000D02*
D03*
X4000002Y600000D02*
D03*
X4100002Y400000D02*
D03*
X3800002Y11400006D02*
D03*
X3900002Y11200006D02*
D03*
X3800002Y11000006D02*
D03*
X3900002Y10800006D02*
D03*
X3800002Y10600006D02*
D03*
Y10200006D02*
D03*
X3900002Y10000005D02*
D03*
X3800002Y9800005D02*
D03*
X3900002Y9600005D02*
D03*
X3800002Y9400005D02*
D03*
X3900002Y9200005D02*
D03*
X3800002Y9000005D02*
D03*
X3900002Y8400005D02*
D03*
X3800002Y8200004D02*
D03*
Y7800004D02*
D03*
Y7400004D02*
D03*
X3900002Y5600003D02*
D03*
Y4800003D02*
D03*
X3800002Y4600002D02*
D03*
X3900002Y4000002D02*
D03*
X3800002Y3400002D02*
D03*
X3900002Y2400001D02*
D03*
X3800002Y2200001D02*
D03*
X3900002Y2000001D02*
D03*
X3800002Y1800001D02*
D03*
Y1400001D02*
D03*
X3900002Y1200001D02*
D03*
X3800002Y1000001D02*
D03*
X3900002Y800000D02*
D03*
X3800002Y600000D02*
D03*
X3900002Y400000D02*
D03*
X3600002Y11400006D02*
D03*
X3700002Y11200006D02*
D03*
X3600002Y11000006D02*
D03*
X3700002Y10800006D02*
D03*
X3600002Y10600006D02*
D03*
Y10200006D02*
D03*
X3700002Y10000005D02*
D03*
X3600002Y9800005D02*
D03*
X3700002Y9600005D02*
D03*
X3600002Y9400005D02*
D03*
X3700002Y9200005D02*
D03*
X3600002Y9000005D02*
D03*
X3700002Y8400005D02*
D03*
X3600002Y8200004D02*
D03*
X3700002Y8000004D02*
D03*
Y5600003D02*
D03*
Y4000002D02*
D03*
Y2400001D02*
D03*
X3600002Y2200001D02*
D03*
X3700002Y2000001D02*
D03*
X3600002Y1800001D02*
D03*
Y1400001D02*
D03*
X3700002Y1200001D02*
D03*
X3600002Y1000001D02*
D03*
X3700002Y800000D02*
D03*
Y400000D02*
D03*
X3400002Y11400006D02*
D03*
X3500002Y11200006D02*
D03*
X3400002Y11000006D02*
D03*
X3500002Y10800006D02*
D03*
X3400002Y10600006D02*
D03*
X3500002Y10400006D02*
D03*
X3400002Y10200006D02*
D03*
X3500002Y10000005D02*
D03*
X3400002Y9800005D02*
D03*
X3500002Y9600005D02*
D03*
X3400002Y9400005D02*
D03*
X3500002Y9200005D02*
D03*
X3400002Y9000005D02*
D03*
Y8600005D02*
D03*
X3500002Y8400005D02*
D03*
X3400002Y8200004D02*
D03*
X3500002Y8000004D02*
D03*
Y7600004D02*
D03*
X3400002Y7400004D02*
D03*
X3500002Y6400003D02*
D03*
Y5600003D02*
D03*
Y4800003D02*
D03*
X3400002Y1400001D02*
D03*
X3500002Y1200001D02*
D03*
X3400002Y1000001D02*
D03*
X3500002Y800000D02*
D03*
X3200002Y11400006D02*
D03*
X3300002Y11200006D02*
D03*
X3200002Y11000006D02*
D03*
X3300002Y10800006D02*
D03*
X3200002Y10600006D02*
D03*
X3300002Y10400006D02*
D03*
X3200002Y10200006D02*
D03*
X3300002Y10000005D02*
D03*
X3200002Y9800005D02*
D03*
X3300002Y9600005D02*
D03*
X3200002Y9400005D02*
D03*
X3300002Y9200005D02*
D03*
X3200002Y9000005D02*
D03*
X3300002Y8800005D02*
D03*
X3200002Y8600005D02*
D03*
X3300002Y8400005D02*
D03*
X3200002Y8200004D02*
D03*
X3300002Y8000004D02*
D03*
Y7200004D02*
D03*
Y4400002D02*
D03*
X3200002Y4200002D02*
D03*
Y1400001D02*
D03*
X3300002Y1200001D02*
D03*
X3200002Y1000001D02*
D03*
X3300002Y800000D02*
D03*
Y400000D02*
D03*
X3000002Y11400006D02*
D03*
X3100002Y11200006D02*
D03*
X3000002Y11000006D02*
D03*
X3100002Y10800006D02*
D03*
X3000002Y10600006D02*
D03*
X3100002Y10400006D02*
D03*
X3000002Y10200006D02*
D03*
X3100002Y10000005D02*
D03*
Y9600005D02*
D03*
Y9200005D02*
D03*
Y8800005D02*
D03*
Y8400005D02*
D03*
Y8000004D02*
D03*
Y7200004D02*
D03*
X3000002Y7000004D02*
D03*
Y6600004D02*
D03*
Y6200003D02*
D03*
Y4600002D02*
D03*
Y4200002D02*
D03*
Y3800002D02*
D03*
X3100002Y3600002D02*
D03*
Y2000001D02*
D03*
X3000002Y1400001D02*
D03*
X3100002Y1200001D02*
D03*
X3000002Y1000001D02*
D03*
X3100002Y800000D02*
D03*
X2800002Y11400006D02*
D03*
X2900002Y11200006D02*
D03*
X2800002Y11000006D02*
D03*
X2900002Y10800006D02*
D03*
X2800002Y10600006D02*
D03*
X2900002Y10400006D02*
D03*
X2800002Y10200006D02*
D03*
X2900002Y10000005D02*
D03*
X2800002Y9400005D02*
D03*
Y9000005D02*
D03*
Y8600005D02*
D03*
Y8200004D02*
D03*
Y7800004D02*
D03*
Y7400004D02*
D03*
X2900002Y6800004D02*
D03*
X2800002Y6600004D02*
D03*
X2900002Y6400003D02*
D03*
Y4000002D02*
D03*
X2800002Y3000002D02*
D03*
X2900002Y2800002D02*
D03*
X2800002Y2200001D02*
D03*
Y1000001D02*
D03*
X2600001Y11400006D02*
D03*
X2700001Y11200006D02*
D03*
Y10800006D02*
D03*
Y10400006D02*
D03*
X2600001Y10200006D02*
D03*
Y9800005D02*
D03*
Y9400005D02*
D03*
X2700001Y9200005D02*
D03*
X2600001Y9000005D02*
D03*
X2700001Y8800005D02*
D03*
X2600001Y8600005D02*
D03*
X2700001Y8400005D02*
D03*
X2600001Y8200004D02*
D03*
X2700001Y8000004D02*
D03*
X2600001Y7800004D02*
D03*
X2700001Y7600004D02*
D03*
X2600001Y7400004D02*
D03*
Y7000004D02*
D03*
X2700001Y6800004D02*
D03*
X2600001Y6600004D02*
D03*
X2700001Y6400003D02*
D03*
X2600001Y5400003D02*
D03*
Y4600002D02*
D03*
Y4200002D02*
D03*
X2700001Y4000002D02*
D03*
Y3200002D02*
D03*
X2600001Y3000002D02*
D03*
X2700001Y2800002D02*
D03*
X2600001Y2200001D02*
D03*
X2700001Y1200001D02*
D03*
X2400001Y11400006D02*
D03*
X2500001Y11200006D02*
D03*
Y10800006D02*
D03*
Y10400006D02*
D03*
X2400001Y10200006D02*
D03*
X2500001Y10000005D02*
D03*
X2400001Y9800005D02*
D03*
X2500001Y9600005D02*
D03*
X2400001Y9400005D02*
D03*
X2500001Y9200005D02*
D03*
X2400001Y9000005D02*
D03*
X2500001Y8800005D02*
D03*
X2400001Y8600005D02*
D03*
X2500001Y8400005D02*
D03*
X2400001Y8200004D02*
D03*
X2500001Y8000004D02*
D03*
X2400001Y7800004D02*
D03*
X2500001Y7600004D02*
D03*
X2400001Y7400004D02*
D03*
X2500001Y7200004D02*
D03*
X2400001Y7000004D02*
D03*
X2500001Y6800004D02*
D03*
X2400001Y6600004D02*
D03*
Y6200003D02*
D03*
Y5400003D02*
D03*
X2500001Y5200003D02*
D03*
Y4800003D02*
D03*
Y4400002D02*
D03*
X2400001Y3400002D02*
D03*
X2500001Y3200002D02*
D03*
X2400001Y3000002D02*
D03*
X2500001Y2800002D02*
D03*
X2400001Y2200001D02*
D03*
X2200001Y11400006D02*
D03*
X2300001Y11200006D02*
D03*
Y10800006D02*
D03*
X2200001Y10600006D02*
D03*
Y10200006D02*
D03*
Y9400005D02*
D03*
X2300001Y9200005D02*
D03*
Y8800005D02*
D03*
X2200001Y6200003D02*
D03*
Y5800003D02*
D03*
X2300001Y5200003D02*
D03*
Y3600002D02*
D03*
X2200001Y3400002D02*
D03*
X2300001Y3200002D02*
D03*
X2200001Y3000002D02*
D03*
X2300001Y2800002D02*
D03*
X2200001Y1800001D02*
D03*
X2000001Y11400006D02*
D03*
Y11000006D02*
D03*
X2100001Y10800006D02*
D03*
X2000001Y10600006D02*
D03*
X2100001Y9200005D02*
D03*
Y8800005D02*
D03*
Y8400005D02*
D03*
Y8000004D02*
D03*
Y7600004D02*
D03*
Y6800004D02*
D03*
Y6000003D02*
D03*
Y5200003D02*
D03*
Y4800003D02*
D03*
X2000001Y3800002D02*
D03*
X2100001Y3600002D02*
D03*
X2000001Y3400002D02*
D03*
X2100001Y3200002D02*
D03*
X2000001Y3000002D02*
D03*
X2100001Y2800002D02*
D03*
X2000001Y1800001D02*
D03*
X2100001Y400000D02*
D03*
X1800001Y11400006D02*
D03*
X1900001Y10800006D02*
D03*
Y6800004D02*
D03*
Y2800002D02*
D03*
X1800001Y1800001D02*
D03*
Y1400001D02*
D03*
Y1000001D02*
D03*
X1900001Y800000D02*
D03*
X1800001Y600000D02*
D03*
X1900001Y400000D02*
D03*
X1600001Y11400006D02*
D03*
X1700001Y11200006D02*
D03*
Y10800006D02*
D03*
Y6800004D02*
D03*
X1600001Y1400001D02*
D03*
X1700001Y1200001D02*
D03*
X1600001Y1000001D02*
D03*
Y600000D02*
D03*
X1700001Y400000D02*
D03*
X1400001Y11400006D02*
D03*
X1500001Y11200006D02*
D03*
X1400001Y11000006D02*
D03*
X1500001Y2800002D02*
D03*
Y2400001D02*
D03*
X1400001Y2200001D02*
D03*
Y1800001D02*
D03*
X1500001Y1600001D02*
D03*
X1400001Y1400001D02*
D03*
X1500001Y1200001D02*
D03*
X1400001Y1000001D02*
D03*
Y600000D02*
D03*
Y200000D02*
D03*
X1200001Y11400006D02*
D03*
X1300001Y11200006D02*
D03*
X1200001Y11000006D02*
D03*
X1300001Y2800002D02*
D03*
X1200001Y2200001D02*
D03*
X1300001Y1600001D02*
D03*
X1200001Y1400001D02*
D03*
X1300001Y1200001D02*
D03*
X1200001Y1000001D02*
D03*
X1300001Y800000D02*
D03*
Y400000D02*
D03*
X1200001Y200000D02*
D03*
X1000001Y11400006D02*
D03*
X1100001Y11200006D02*
D03*
X1000001Y11000006D02*
D03*
X1100001Y10800006D02*
D03*
Y6800004D02*
D03*
X1000001Y2200001D02*
D03*
X1100001Y1600001D02*
D03*
X1000001Y1400001D02*
D03*
X1100001Y1200001D02*
D03*
X1000001Y1000001D02*
D03*
Y600000D02*
D03*
X1100001Y400000D02*
D03*
X1000001Y200000D02*
D03*
X800000Y11400006D02*
D03*
X900000Y11200006D02*
D03*
Y10800006D02*
D03*
Y6800004D02*
D03*
Y2800002D02*
D03*
Y2400001D02*
D03*
Y2000001D02*
D03*
Y1600001D02*
D03*
Y1200001D02*
D03*
Y800000D02*
D03*
Y400000D02*
D03*
X800000Y200000D02*
D03*
X700000Y10800006D02*
D03*
Y6800004D02*
D03*
X600000Y2600001D02*
D03*
Y2200001D02*
D03*
Y1800001D02*
D03*
Y1400001D02*
D03*
Y1000001D02*
D03*
Y200000D02*
D03*
X400000Y11400006D02*
D03*
X500000Y10800006D02*
D03*
X400000Y10600006D02*
D03*
X500000Y10400006D02*
D03*
X400000Y10200006D02*
D03*
X500000Y10000005D02*
D03*
X400000Y9800005D02*
D03*
X500000Y9600005D02*
D03*
X400000Y9400005D02*
D03*
X500000Y9200005D02*
D03*
X400000Y9000005D02*
D03*
X500000Y8800005D02*
D03*
X400000Y8600005D02*
D03*
X500000Y8400005D02*
D03*
X400000Y5800003D02*
D03*
Y5400003D02*
D03*
Y5000003D02*
D03*
X500000Y4800003D02*
D03*
X400000Y4600002D02*
D03*
X500000Y4400002D02*
D03*
X400000Y4200002D02*
D03*
X500000Y4000002D02*
D03*
X400000Y3800002D02*
D03*
X500000Y3600002D02*
D03*
X400000Y3400002D02*
D03*
X500000Y3200002D02*
D03*
X400000Y3000002D02*
D03*
X500000Y2800002D02*
D03*
X400000Y2600001D02*
D03*
X500000Y2400001D02*
D03*
X400000Y2200001D02*
D03*
X500000Y2000001D02*
D03*
X400000Y1800001D02*
D03*
X500000Y1600001D02*
D03*
X400000Y1400001D02*
D03*
X500000Y1200001D02*
D03*
X400000Y1000001D02*
D03*
Y200000D02*
D03*
X200000Y11400006D02*
D03*
X300000Y11200006D02*
D03*
X200000Y11000006D02*
D03*
X300000Y10800006D02*
D03*
X200000Y10600006D02*
D03*
X300000Y10400006D02*
D03*
X200000Y10200006D02*
D03*
X300000Y10000005D02*
D03*
X200000Y9800005D02*
D03*
X300000Y9600005D02*
D03*
X200000Y9400005D02*
D03*
X300000Y9200005D02*
D03*
X200000Y9000005D02*
D03*
X300000Y8800005D02*
D03*
X200000Y8600005D02*
D03*
X300000Y8400005D02*
D03*
X200000Y8200004D02*
D03*
X300000Y8000004D02*
D03*
X200000Y7800004D02*
D03*
X300000Y7600004D02*
D03*
X200000Y7400004D02*
D03*
X300000Y7200004D02*
D03*
X200000Y7000004D02*
D03*
X300000Y6800004D02*
D03*
X200000Y6600004D02*
D03*
X300000Y6400003D02*
D03*
X200000Y6200003D02*
D03*
X300000Y6000003D02*
D03*
X200000Y5800003D02*
D03*
X300000Y5600003D02*
D03*
X200000Y5400003D02*
D03*
X300000Y5200003D02*
D03*
X200000Y5000003D02*
D03*
X300000Y4800003D02*
D03*
X200000Y4600002D02*
D03*
X300000Y4400002D02*
D03*
X200000Y4200002D02*
D03*
X300000Y4000002D02*
D03*
X200000Y3800002D02*
D03*
X300000Y3600002D02*
D03*
X200000Y3400002D02*
D03*
X300000Y3200002D02*
D03*
X200000Y3000002D02*
D03*
X300000Y2800002D02*
D03*
X200000Y2600001D02*
D03*
X300000Y2400001D02*
D03*
X200000Y2200001D02*
D03*
X300000Y2000001D02*
D03*
X200000Y1800001D02*
D03*
X300000Y1600001D02*
D03*
X200000Y1400001D02*
D03*
X300000Y1200001D02*
D03*
X200000Y1000001D02*
D03*
X300000Y800000D02*
D03*
X200000Y600000D02*
D03*
X300000Y400000D02*
D03*
X200000Y200000D02*
D03*
X5850000Y7560000D02*
D03*
X2940000Y370000D02*
D03*
X4970000Y5580000D02*
D03*
X5722546Y7491523D02*
D03*
X3385230Y4863209D02*
D03*
X3390000Y3940000D02*
D03*
X5060000Y3220000D02*
D03*
X3410000Y3330000D02*
D03*
X4856053Y7254661D02*
D03*
X4596350Y6830000D02*
D03*
X4730000Y6651011D02*
D03*
X4670000Y6720000D02*
D03*
X4361150Y6960961D02*
D03*
X4961561Y6751937D02*
D03*
X4950000Y1120000D02*
D03*
X4880000Y1010000D02*
D03*
Y1120000D02*
D03*
X4950000Y1010000D02*
D03*
X3706053Y7794661D02*
D03*
X3560000Y7900000D02*
D03*
X3416053Y7864661D02*
D03*
X3680000Y7410000D02*
D03*
X3280000Y4080000D02*
D03*
X3330000Y4490000D02*
D03*
X3300000Y4690000D02*
D03*
X3270000Y3500000D02*
D03*
X6134438Y10051135D02*
D03*
X4500000Y5640000D02*
D03*
X5123944Y1560577D02*
D03*
X5725550Y5930000D02*
D03*
X3300000Y7430000D02*
D03*
X5090000Y7250000D02*
D03*
X5212546Y3741523D02*
D03*
X5230000Y4840000D02*
D03*
X3520000Y7360000D02*
D03*
X3400000Y1890000D02*
D03*
X3740000Y3240000D02*
D03*
X5890000Y4390000D02*
D03*
X5500000Y6850000D02*
D03*
X6190000Y4670000D02*
D03*
X5790000Y4310000D02*
D03*
X5660000Y4560000D02*
D03*
X5280000Y6850000D02*
D03*
X5880000Y3390000D02*
D03*
X4630000Y1840000D02*
D03*
X4668969Y1199469D02*
D03*
X4993278Y6391168D02*
D03*
X4380000Y6120000D02*
D03*
X2960000Y6050000D02*
D03*
X4904613Y6502168D02*
D03*
X3770000Y7680000D02*
D03*
X4710000Y7430000D02*
D03*
X5270000Y6730000D02*
D03*
X4150000Y3990000D02*
D03*
X4530000Y6910000D02*
D03*
X4140000Y4740000D02*
D03*
X4160000Y5730000D02*
D03*
X3720000Y6760000D02*
D03*
X2910000Y9570000D02*
D03*
X3716053Y7534661D02*
D03*
X4590909Y7380000D02*
D03*
X4120000Y6350000D02*
D03*
X2900000Y7250000D02*
D03*
X3770000Y6290000D02*
D03*
X2850000Y6310000D02*
D03*
X3780000Y6490000D02*
D03*
X2910000Y7010000D02*
D03*
X4280000Y6940000D02*
D03*
X5140000Y7040000D02*
D03*
X4840000Y6960000D02*
D03*
X4970000Y6110000D02*
D03*
X5050000Y5960000D02*
D03*
X4140000Y6150000D02*
D03*
X4500000Y7520000D02*
D03*
X4250000Y4670000D02*
D03*
X4300000Y5690000D02*
D03*
X4280000Y4010000D02*
D03*
X5390000Y5660000D02*
D03*
X4720000Y5730000D02*
D03*
X4730000Y7250000D02*
D03*
X3840000Y6720000D02*
D03*
X2910000Y9820000D02*
D03*
X3810000Y6370000D02*
D03*
X2890000Y6190000D02*
D03*
D68*
X3450000Y5830000D02*
D03*
X4640000Y770000D02*
D03*
X4480000Y910000D02*
D03*
X2640000Y810000D02*
D03*
X2540000Y600000D02*
D03*
X3690000Y5800000D02*
D03*
X3840000Y5880000D02*
D03*
X1310000Y2610000D02*
D03*
X3120000Y2500000D02*
D03*
X3250000Y2400000D02*
D03*
X6032644Y7399115D02*
D03*
X2480000Y6030000D02*
D03*
X2370000Y5820000D02*
D03*
X2270000Y10470000D02*
D03*
X2460000Y4930000D02*
D03*
X2230000Y8340000D02*
D03*
D69*
X7610440Y11170401D02*
D03*
X7609744Y570408D02*
D03*
X610025Y11170340D02*
D03*
X609512Y569810D02*
D03*
%TF.MD5,bd1d0d3102ec63302758a0f7e6dd9af8*%
M02*
