%TF.GenerationSoftware,Altium Limited,Altium Designer,25.8.1 (18)*%
G04 Layer_Color=128*
%FSLAX45Y45*%
%MOMM*%
%TF.SameCoordinates,031978D1-9D18-463A-8735-F8186BF7E524*%
%TF.FilePolarity,Positive*%
%TF.FileFunction,Drillmap*%
%TF.Part,Single*%
G01*
G75*
%TA.AperFunction,NonConductor*%
%ADD134C,0.12700*%
D134*
X1743557Y5197385D02*
X1838557D01*
X1791057Y5149885D02*
Y5244885D01*
X1001057Y5147385D02*
X1141057D01*
X1071057Y5077385D02*
Y5217385D01*
X701057Y4347385D02*
X841056D01*
X771057Y4277385D02*
Y4417385D01*
X701057Y5147385D02*
X841056D01*
X771057Y5077385D02*
Y5217385D01*
X1083557Y4447385D02*
X1178557D01*
X1131057Y4399885D02*
Y4494885D01*
X6390039Y1561211D02*
X6570039D01*
X6480039Y1471211D02*
Y1651211D01*
X6940039Y2821212D02*
X7120039D01*
X7030039Y2731212D02*
Y2911211D01*
X6390039Y2821211D02*
X6570039D01*
X6480039Y2731211D02*
Y2911211D01*
X6940039Y6181211D02*
X7120039D01*
X7030039Y6091211D02*
Y6271211D01*
X6390039Y1981211D02*
X6570039D01*
X6480039Y1891211D02*
Y2071211D01*
X6390039Y2401211D02*
X6570039D01*
X6480039Y2311211D02*
Y2491211D01*
X6390039Y3241211D02*
X6570039D01*
X6480039Y3151211D02*
Y3331211D01*
X6390039Y3661211D02*
X6570039D01*
X6480039Y3571211D02*
Y3751211D01*
X6390039Y4081211D02*
X6570039D01*
X6480039Y3991211D02*
Y4171211D01*
X6390039Y4501211D02*
X6570039D01*
X6480039Y4411211D02*
Y4591211D01*
X6390039Y4921211D02*
X6570039D01*
X6480039Y4831211D02*
Y5011211D01*
X6390039Y5341211D02*
X6570039D01*
X6480039Y5251211D02*
Y5431211D01*
X6390039Y5761211D02*
X6570039D01*
X6480039Y5671211D02*
Y5851211D01*
X6390039Y6181211D02*
X6570039D01*
X6480039Y6091211D02*
Y6271211D01*
X6940039Y4501211D02*
X7120039D01*
X7030039Y4411211D02*
Y4591211D01*
X7610039Y6181211D02*
X7910039D01*
X7760039Y6031211D02*
Y6331211D01*
X6940039Y5761211D02*
X7120039D01*
X7030039Y5671211D02*
Y5851211D01*
X7610039Y1561210D02*
X7910039D01*
X7760039Y1411210D02*
Y1711210D01*
X6940039Y5341211D02*
X7120039D01*
X7030039Y5251211D02*
Y5431211D01*
X6940039Y4921211D02*
X7120039D01*
X7030039Y4831211D02*
Y5011211D01*
X6940039Y4081211D02*
X7120039D01*
X7030039Y3991211D02*
Y4171211D01*
X6940039Y3661211D02*
X7120039D01*
X7030039Y3571212D02*
Y3751211D01*
X6940039Y3241211D02*
X7120039D01*
X7030039Y3151212D02*
Y3331211D01*
X6940039Y2401212D02*
X7120039D01*
X7030039Y2311212D02*
Y2491211D01*
X6940039Y1561212D02*
X7120039D01*
X7030039Y1471212D02*
Y1651212D01*
X6940039Y1981212D02*
X7120039D01*
X7030039Y1891212D02*
Y2071212D01*
X7120039Y10103711D02*
X7440039D01*
X7280039Y9943711D02*
Y10263710D01*
X7357039Y9265211D02*
X7457039D01*
X7407039Y9215211D02*
Y9315210D01*
X7357039Y8443210D02*
X7457039D01*
X7407039Y8393211D02*
Y8493210D01*
X7120039Y7604710D02*
X7440039D01*
X7280039Y7444711D02*
Y7764710D01*
X5398961Y8942790D02*
X5500961D01*
X5449961Y8891790D02*
Y8993790D01*
X3705039Y10391210D02*
X3835039D01*
X3770039Y10326210D02*
Y10456210D01*
X4058039Y8785210D02*
X4167039D01*
X4112539Y8730710D02*
Y8839710D01*
X4058039Y8531210D02*
X4167039D01*
X4112539Y8476710D02*
Y8585710D01*
X701039Y7016851D02*
X841039D01*
X771039Y6946851D02*
Y7086850D01*
X1082539Y3112430D02*
X1177539D01*
X1130039Y3064930D02*
Y3159930D01*
X1083539Y7116850D02*
X1178539D01*
X1131039Y7069350D02*
Y7164350D01*
X1083539Y8446210D02*
X1178539D01*
X1131039Y8398710D02*
Y8493710D01*
X1082539Y9781210D02*
X1177539D01*
X1130039Y9733710D02*
Y9828710D01*
X1082539Y5781210D02*
X1177539D01*
X1130039Y5733710D02*
Y5828710D01*
X5398961Y8688790D02*
X5500961D01*
X5449961Y8637790D02*
Y8739790D01*
X4566039Y8785210D02*
X4675039D01*
X4620539Y8730710D02*
Y8839710D01*
X7103039Y8854210D02*
X7203039D01*
X7153039Y8804210D02*
Y8904210D01*
X7103039Y9128210D02*
X7203039D01*
X7153039Y9078210D02*
Y9178210D01*
X4566039Y8531210D02*
X4675039D01*
X4620539Y8476710D02*
Y8585710D01*
X7103039Y8306210D02*
X7203039D01*
X7153039Y8256211D02*
Y8356210D01*
X4312039Y8531210D02*
X4421039D01*
X4366539Y8476710D02*
Y8585710D01*
X7103039Y9402211D02*
X7203039D01*
X7153039Y9352211D02*
Y9452210D01*
X7103039Y8580210D02*
X7203039D01*
X7153039Y8530211D02*
Y8630210D01*
X5398961Y8434790D02*
X5500961D01*
X5449961Y8383790D02*
Y8485790D01*
X5705039Y10391210D02*
X5835039D01*
X5770039Y10326210D02*
Y10456210D01*
X1742539Y6531210D02*
X1837539D01*
X1790039Y6483710D02*
Y6578710D01*
X1000039Y6481211D02*
X1140039D01*
X1070039Y6411211D02*
Y6551210D01*
X700039Y6481211D02*
X840039D01*
X770039Y6411211D02*
Y6551210D01*
X700039Y5681211D02*
X840039D01*
X770039Y5611211D02*
Y5751210D01*
X700039Y9681210D02*
X840039D01*
X770039Y9611210D02*
Y9751210D01*
X1000039Y10481210D02*
X1140039D01*
X1070039Y10411210D02*
Y10551210D01*
X700039Y10481210D02*
X840039D01*
X770039Y10411210D02*
Y10551210D01*
X1742539Y10531210D02*
X1837539D01*
X1790039Y10483710D02*
Y10578710D01*
X701039Y8346210D02*
X841038D01*
X771039Y8276211D02*
Y8416210D01*
X1001039Y9146210D02*
X1141039D01*
X1071039Y9076210D02*
Y9216210D01*
X701039Y9146210D02*
X841038D01*
X771039Y9076210D02*
Y9216210D01*
X1743539Y9196210D02*
X1838539D01*
X1791039Y9148710D02*
Y9243710D01*
X3550039Y8785210D02*
X3659039D01*
X3604539Y8730710D02*
Y8839710D01*
X3804039Y8785210D02*
X3913039D01*
X3858539Y8730710D02*
Y8839710D01*
X4312039Y8785210D02*
X4421039D01*
X4366539Y8730710D02*
Y8839710D01*
X3550039Y8531210D02*
X3659039D01*
X3604539Y8476710D02*
Y8585710D01*
X3804039Y8531210D02*
X3913039D01*
X3858539Y8476710D02*
Y8585710D01*
X701039Y7816851D02*
X841039D01*
X771039Y7746851D02*
Y7886850D01*
X1001040Y7816851D02*
X1141039D01*
X1071040Y7746851D02*
Y7886850D01*
X1743539Y7866850D02*
X1838539D01*
X1791039Y7819350D02*
Y7914350D01*
X700039Y3812430D02*
X840039D01*
X770039Y3742430D02*
Y3882430D01*
X700039Y3012430D02*
X840039D01*
X770039Y2942430D02*
Y3082430D01*
X1742539Y3862430D02*
X1837539D01*
X1790039Y3814930D02*
Y3909930D01*
X1000039Y3812430D02*
X1140039D01*
X1070039Y3742430D02*
Y3882430D01*
X7357039Y8991210D02*
X7457039D01*
X7407039Y8941210D02*
Y9041210D01*
X7357039Y8717210D02*
X7457039D01*
X7407039Y8667211D02*
Y8767210D01*
X7784754Y11400006D02*
X7815254D01*
X7800004Y11384756D02*
Y11415256D01*
X7884754Y11200006D02*
X7915254D01*
X7900004Y11184756D02*
Y11215256D01*
X7884754Y10800006D02*
X7915254D01*
X7900004Y10784756D02*
Y10815256D01*
X7784754Y10600006D02*
X7815254D01*
X7800004Y10584756D02*
Y10615256D01*
X7884754Y10400006D02*
X7915254D01*
X7900004Y10384756D02*
Y10415256D01*
X7784754Y10200006D02*
X7815254D01*
X7800004Y10184756D02*
Y10215255D01*
X7884754Y10000005D02*
X7915254D01*
X7900004Y9984755D02*
Y10015255D01*
X7784754Y9800005D02*
X7815254D01*
X7800004Y9784755D02*
Y9815255D01*
X7884754Y9600005D02*
X7915254D01*
X7900004Y9584755D02*
Y9615255D01*
X7784754Y9400005D02*
X7815254D01*
X7800004Y9384755D02*
Y9415255D01*
X7884754Y9200005D02*
X7915254D01*
X7900004Y9184755D02*
Y9215255D01*
X7784754Y9000005D02*
X7815254D01*
X7800004Y8984755D02*
Y9015255D01*
X7884754Y8800005D02*
X7915254D01*
X7900004Y8784755D02*
Y8815255D01*
X7784754Y8600005D02*
X7815254D01*
X7800004Y8584755D02*
Y8615255D01*
X7884754Y8400005D02*
X7915254D01*
X7900004Y8384755D02*
Y8415254D01*
X7784754Y8200004D02*
X7815254D01*
X7800004Y8184755D02*
Y8215254D01*
X7884754Y8000004D02*
X7915254D01*
X7900004Y7984754D02*
Y8015254D01*
X7784754Y7800004D02*
X7815254D01*
X7800004Y7784754D02*
Y7815254D01*
X7884754Y7600004D02*
X7915254D01*
X7900004Y7584754D02*
Y7615254D01*
X7784754Y7400004D02*
X7815254D01*
X7800004Y7384754D02*
Y7415254D01*
X7884754Y7200004D02*
X7915254D01*
X7900004Y7184754D02*
Y7215254D01*
X7784754Y7000004D02*
X7815254D01*
X7800004Y6984754D02*
Y7015254D01*
X7884754Y6800004D02*
X7915254D01*
X7900004Y6784754D02*
Y6815254D01*
X7784754Y6600004D02*
X7815254D01*
X7800004Y6584754D02*
Y6615253D01*
X7884754Y6400003D02*
X7915254D01*
X7900004Y6384754D02*
Y6415253D01*
X7884754Y6000003D02*
X7915254D01*
X7900004Y5984753D02*
Y6015253D01*
X7784754Y5800003D02*
X7815254D01*
X7800004Y5784753D02*
Y5815253D01*
X7884754Y5600003D02*
X7915254D01*
X7900004Y5584753D02*
Y5615253D01*
X7784754Y5400003D02*
X7815254D01*
X7800004Y5384753D02*
Y5415253D01*
X7884754Y5200003D02*
X7915254D01*
X7900004Y5184753D02*
Y5215253D01*
X7784754Y5000003D02*
X7815254D01*
X7800004Y4984753D02*
Y5015253D01*
X7884754Y4800003D02*
X7915254D01*
X7900004Y4784753D02*
Y4815252D01*
X7784754Y4600002D02*
X7815254D01*
X7800004Y4584753D02*
Y4615252D01*
X7884754Y4400002D02*
X7915254D01*
X7900004Y4384752D02*
Y4415252D01*
X7784754Y4200002D02*
X7815254D01*
X7800004Y4184752D02*
Y4215252D01*
X7884754Y4000002D02*
X7915254D01*
X7900004Y3984752D02*
Y4015252D01*
X7784754Y3800002D02*
X7815254D01*
X7800004Y3784752D02*
Y3815252D01*
X7884754Y3600002D02*
X7915254D01*
X7900004Y3584752D02*
Y3615252D01*
X7784754Y3400002D02*
X7815254D01*
X7800004Y3384752D02*
Y3415252D01*
X7884754Y3200002D02*
X7915254D01*
X7900004Y3184752D02*
Y3215252D01*
X7784754Y3000002D02*
X7815254D01*
X7800004Y2984752D02*
Y3015252D01*
X7884754Y2800002D02*
X7915254D01*
X7900004Y2784752D02*
Y2815251D01*
X7784754Y2600001D02*
X7815254D01*
X7800004Y2584751D02*
Y2615251D01*
X7884754Y2400001D02*
X7915254D01*
X7900004Y2384751D02*
Y2415251D01*
X7784754Y2200001D02*
X7815254D01*
X7800004Y2184751D02*
Y2215251D01*
X7884754Y2000001D02*
X7915254D01*
X7900004Y1984751D02*
Y2015251D01*
X7784754Y1800001D02*
X7815254D01*
X7800004Y1784751D02*
Y1815251D01*
X7884754Y1200001D02*
X7915254D01*
X7900004Y1184751D02*
Y1215251D01*
X7784754Y1000001D02*
X7815254D01*
X7800004Y984751D02*
Y1015250D01*
X7884754Y800000D02*
X7915254D01*
X7900004Y784751D02*
Y815250D01*
X7884754Y400000D02*
X7915254D01*
X7900004Y384750D02*
Y415250D01*
X7784754Y200000D02*
X7815254D01*
X7800004Y184750D02*
Y215250D01*
X7684754Y10800006D02*
X7715254D01*
X7700004Y10784756D02*
Y10815256D01*
X7584754Y10600006D02*
X7615254D01*
X7600004Y10584756D02*
Y10615256D01*
X7684754Y10400006D02*
X7715254D01*
X7700004Y10384756D02*
Y10415256D01*
X7584754Y10200006D02*
X7615254D01*
X7600004Y10184756D02*
Y10215255D01*
X7684754Y10000005D02*
X7715254D01*
X7700004Y9984755D02*
Y10015255D01*
X7584754Y9800005D02*
X7615254D01*
X7600004Y9784755D02*
Y9815255D01*
X7684754Y9600005D02*
X7715254D01*
X7700004Y9584755D02*
Y9615255D01*
X7584754Y9400005D02*
X7615254D01*
X7600004Y9384755D02*
Y9415255D01*
X7684754Y9200005D02*
X7715254D01*
X7700004Y9184755D02*
Y9215255D01*
X7584754Y9000005D02*
X7615254D01*
X7600004Y8984755D02*
Y9015255D01*
X7684754Y8800005D02*
X7715254D01*
X7700004Y8784755D02*
Y8815255D01*
X7584754Y8600005D02*
X7615254D01*
X7600004Y8584755D02*
Y8615255D01*
X7684754Y8400005D02*
X7715254D01*
X7700004Y8384755D02*
Y8415254D01*
X7584754Y8200004D02*
X7615254D01*
X7600004Y8184755D02*
Y8215254D01*
X7684754Y8000004D02*
X7715254D01*
X7700004Y7984754D02*
Y8015254D01*
X7584754Y7800004D02*
X7615254D01*
X7600004Y7784754D02*
Y7815254D01*
X7684754Y7600004D02*
X7715254D01*
X7700004Y7584754D02*
Y7615254D01*
X7584754Y7400004D02*
X7615254D01*
X7600004Y7384754D02*
Y7415254D01*
X7684754Y7200004D02*
X7715254D01*
X7700004Y7184754D02*
Y7215254D01*
X7584754Y7000004D02*
X7615254D01*
X7600004Y6984754D02*
Y7015254D01*
X7684754Y6800004D02*
X7715254D01*
X7700004Y6784754D02*
Y6815254D01*
X7584754Y6600004D02*
X7615254D01*
X7600004Y6584754D02*
Y6615253D01*
X7684754Y6400003D02*
X7715254D01*
X7700004Y6384754D02*
Y6415253D01*
X7584754Y5800003D02*
X7615254D01*
X7600004Y5784753D02*
Y5815253D01*
X7684754Y5600003D02*
X7715254D01*
X7700004Y5584753D02*
Y5615253D01*
X7584754Y5400003D02*
X7615254D01*
X7600004Y5384753D02*
Y5415253D01*
X7684754Y5200003D02*
X7715254D01*
X7700004Y5184753D02*
Y5215253D01*
X7584754Y5000003D02*
X7615254D01*
X7600004Y4984753D02*
Y5015253D01*
X7684754Y4800003D02*
X7715254D01*
X7700004Y4784753D02*
Y4815252D01*
X7584754Y4600002D02*
X7615254D01*
X7600004Y4584753D02*
Y4615252D01*
X7684754Y4400002D02*
X7715254D01*
X7700004Y4384752D02*
Y4415252D01*
X7584754Y4200002D02*
X7615254D01*
X7600004Y4184752D02*
Y4215252D01*
X7684754Y4000002D02*
X7715254D01*
X7700004Y3984752D02*
Y4015252D01*
X7584754Y3800002D02*
X7615254D01*
X7600004Y3784752D02*
Y3815252D01*
X7684754Y3600002D02*
X7715254D01*
X7700004Y3584752D02*
Y3615252D01*
X7584754Y3400002D02*
X7615254D01*
X7600004Y3384752D02*
Y3415252D01*
X7684754Y3200002D02*
X7715254D01*
X7700004Y3184752D02*
Y3215252D01*
X7584754Y3000002D02*
X7615254D01*
X7600004Y2984752D02*
Y3015252D01*
X7684754Y2800002D02*
X7715254D01*
X7700004Y2784752D02*
Y2815251D01*
X7584754Y2600001D02*
X7615254D01*
X7600004Y2584751D02*
Y2615251D01*
X7684754Y2400001D02*
X7715254D01*
X7700004Y2384751D02*
Y2415251D01*
X7584754Y2200001D02*
X7615254D01*
X7600004Y2184751D02*
Y2215251D01*
X7684754Y2000001D02*
X7715254D01*
X7700004Y1984751D02*
Y2015251D01*
X7584754Y1800001D02*
X7615254D01*
X7600004Y1784751D02*
Y1815251D01*
X7584754Y1400001D02*
X7615254D01*
X7600004Y1384751D02*
Y1415251D01*
X7684754Y1200001D02*
X7715254D01*
X7700004Y1184751D02*
Y1215251D01*
X7584754Y1000001D02*
X7615254D01*
X7600004Y984751D02*
Y1015250D01*
X7584754Y200000D02*
X7615254D01*
X7600004Y184750D02*
Y215250D01*
X7384754Y11400006D02*
X7415254D01*
X7400004Y11384756D02*
Y11415256D01*
X7484754Y10800006D02*
X7515254D01*
X7500004Y10784756D02*
Y10815256D01*
X7384754Y10600006D02*
X7415254D01*
X7400004Y10584756D02*
Y10615256D01*
X7484754Y10400006D02*
X7515254D01*
X7500004Y10384756D02*
Y10415256D01*
X7384754Y9800005D02*
X7415254D01*
X7400004Y9784755D02*
Y9815255D01*
X7484754Y9600005D02*
X7515254D01*
X7500004Y9584755D02*
Y9615255D01*
X7384754Y9400005D02*
X7415254D01*
X7400004Y9384755D02*
Y9415255D01*
X7484754Y8800005D02*
X7515254D01*
X7500004Y8784755D02*
Y8815255D01*
X7384754Y8200004D02*
X7415254D01*
X7400004Y8184755D02*
Y8215254D01*
X7484754Y8000004D02*
X7515254D01*
X7500004Y7984754D02*
Y8015254D01*
X7484754Y7200004D02*
X7515254D01*
X7500004Y7184754D02*
Y7215254D01*
X7384754Y7000004D02*
X7415254D01*
X7400004Y6984754D02*
Y7015254D01*
X7484754Y6800004D02*
X7515254D01*
X7500004Y6784754D02*
Y6815254D01*
X7484754Y6400003D02*
X7515254D01*
X7500004Y6384754D02*
Y6415253D01*
X7384754Y6200003D02*
X7415254D01*
X7400004Y6184753D02*
Y6215253D01*
X7484754Y6000003D02*
X7515254D01*
X7500004Y5984753D02*
Y6015253D01*
X7384754Y5800003D02*
X7415254D01*
X7400004Y5784753D02*
Y5815253D01*
X7484754Y5600003D02*
X7515254D01*
X7500004Y5584753D02*
Y5615253D01*
X7384754Y5400003D02*
X7415254D01*
X7400004Y5384753D02*
Y5415253D01*
X7484754Y5200003D02*
X7515254D01*
X7500004Y5184753D02*
Y5215253D01*
X7384754Y5000003D02*
X7415254D01*
X7400004Y4984753D02*
Y5015253D01*
X7484754Y4800003D02*
X7515254D01*
X7500004Y4784753D02*
Y4815252D01*
X7384754Y4600002D02*
X7415254D01*
X7400004Y4584753D02*
Y4615252D01*
X7484754Y4400002D02*
X7515254D01*
X7500004Y4384752D02*
Y4415252D01*
X7384754Y4200002D02*
X7415254D01*
X7400004Y4184752D02*
Y4215252D01*
X7484754Y4000002D02*
X7515254D01*
X7500004Y3984752D02*
Y4015252D01*
X7384754Y3800002D02*
X7415254D01*
X7400004Y3784752D02*
Y3815252D01*
X7484754Y3600002D02*
X7515254D01*
X7500004Y3584752D02*
Y3615252D01*
X7384754Y3400002D02*
X7415254D01*
X7400004Y3384752D02*
Y3415252D01*
X7484754Y3200002D02*
X7515254D01*
X7500004Y3184752D02*
Y3215252D01*
X7384754Y3000002D02*
X7415254D01*
X7400004Y2984752D02*
Y3015252D01*
X7484754Y2800002D02*
X7515254D01*
X7500004Y2784752D02*
Y2815251D01*
X7384754Y2600001D02*
X7415254D01*
X7400004Y2584751D02*
Y2615251D01*
X7484754Y2400001D02*
X7515254D01*
X7500004Y2384751D02*
Y2415251D01*
X7384754Y2200001D02*
X7415254D01*
X7400004Y2184751D02*
Y2215251D01*
X7484754Y2000001D02*
X7515254D01*
X7500004Y1984751D02*
Y2015251D01*
X7384754Y1800001D02*
X7415254D01*
X7400004Y1784751D02*
Y1815251D01*
X7484754Y1600001D02*
X7515254D01*
X7500004Y1584751D02*
Y1615251D01*
X7384754Y1400001D02*
X7415254D01*
X7400004Y1384751D02*
Y1415251D01*
X7484754Y1200001D02*
X7515254D01*
X7500004Y1184751D02*
Y1215251D01*
X7384754Y1000001D02*
X7415254D01*
X7400004Y984751D02*
Y1015250D01*
X7384754Y200000D02*
X7415254D01*
X7400004Y184750D02*
Y215250D01*
X7184754Y11400006D02*
X7215254D01*
X7200004Y11384756D02*
Y11415256D01*
X7284754Y11200006D02*
X7315254D01*
X7300004Y11184756D02*
Y11215256D01*
X7184754Y11000006D02*
X7215254D01*
X7200004Y10984756D02*
Y11015256D01*
X7284754Y10800006D02*
X7315254D01*
X7300004Y10784756D02*
Y10815256D01*
X7184754Y10600006D02*
X7215254D01*
X7200004Y10584756D02*
Y10615256D01*
X7284754Y10400006D02*
X7315254D01*
X7300004Y10384756D02*
Y10415256D01*
X7184754Y9800005D02*
X7215254D01*
X7200004Y9784755D02*
Y9815255D01*
X7284754Y9600005D02*
X7315254D01*
X7300004Y9584755D02*
Y9615255D01*
X7284754Y9200005D02*
X7315254D01*
X7300004Y9184755D02*
Y9215255D01*
X7184754Y9000005D02*
X7215254D01*
X7200004Y8984755D02*
Y9015255D01*
X7284754Y8800005D02*
X7315254D01*
X7300004Y8784755D02*
Y8815255D01*
X7284754Y8000004D02*
X7315254D01*
X7300004Y7984754D02*
Y8015254D01*
X7284754Y7200004D02*
X7315254D01*
X7300004Y7184754D02*
Y7215254D01*
X7184754Y7000004D02*
X7215254D01*
X7200004Y6984754D02*
Y7015254D01*
X7284754Y6800004D02*
X7315254D01*
X7300004Y6784754D02*
Y6815254D01*
X7284754Y6400003D02*
X7315254D01*
X7300004Y6384754D02*
Y6415253D01*
X7284754Y6000003D02*
X7315254D01*
X7300004Y5984753D02*
Y6015253D01*
X7184754Y5400003D02*
X7215254D01*
X7200004Y5384753D02*
Y5415253D01*
X7184754Y5000003D02*
X7215254D01*
X7200004Y4984753D02*
Y5015253D01*
X7184754Y4600002D02*
X7215254D01*
X7200004Y4584753D02*
Y4615252D01*
X7184754Y4200002D02*
X7215254D01*
X7200004Y4184752D02*
Y4215252D01*
X7184754Y3400002D02*
X7215254D01*
X7200004Y3384752D02*
Y3415252D01*
X7184754Y3000002D02*
X7215254D01*
X7200004Y2984752D02*
Y3015252D01*
X7184754Y2600001D02*
X7215254D01*
X7200004Y2584751D02*
Y2615251D01*
X7284754Y2000001D02*
X7315254D01*
X7300004Y1984751D02*
Y2015251D01*
X7184754Y1800001D02*
X7215254D01*
X7200004Y1784751D02*
Y1815251D01*
X7284754Y1600001D02*
X7315254D01*
X7300004Y1584751D02*
Y1615251D01*
X7184754Y1400001D02*
X7215254D01*
X7200004Y1384751D02*
Y1415251D01*
X7284754Y1200001D02*
X7315254D01*
X7300004Y1184751D02*
Y1215251D01*
X7184754Y1000001D02*
X7215254D01*
X7200004Y984751D02*
Y1015250D01*
X7284754Y800000D02*
X7315254D01*
X7300004Y784751D02*
Y815250D01*
X7184754Y600000D02*
X7215254D01*
X7200004Y584750D02*
Y615250D01*
X7284754Y400000D02*
X7315254D01*
X7300004Y384750D02*
Y415250D01*
X7184754Y200000D02*
X7215254D01*
X7200004Y184750D02*
Y215250D01*
X6984754Y11400006D02*
X7015254D01*
X7000004Y11384756D02*
Y11415256D01*
X7084754Y11200006D02*
X7115254D01*
X7100004Y11184756D02*
Y11215256D01*
X6984754Y11000006D02*
X7015254D01*
X7000004Y10984756D02*
Y11015256D01*
X7084754Y10800006D02*
X7115254D01*
X7100004Y10784756D02*
Y10815256D01*
X6984754Y10600006D02*
X7015254D01*
X7000004Y10584756D02*
Y10615256D01*
X7084754Y10400006D02*
X7115254D01*
X7100004Y10384756D02*
Y10415256D01*
X6984754Y10200006D02*
X7015254D01*
X7000004Y10184756D02*
Y10215255D01*
X6984754Y9800005D02*
X7015254D01*
X7000004Y9784755D02*
Y9815255D01*
X7084754Y9600005D02*
X7115254D01*
X7100004Y9584755D02*
Y9615255D01*
X6984754Y9400005D02*
X7015254D01*
X7000004Y9384755D02*
Y9415255D01*
X7084754Y8000004D02*
X7115254D01*
X7100004Y7984754D02*
Y8015254D01*
X6984754Y7800004D02*
X7015254D01*
X7000004Y7784754D02*
Y7815254D01*
X6984754Y7400004D02*
X7015254D01*
X7000004Y7384754D02*
Y7415254D01*
X7084754Y7200004D02*
X7115254D01*
X7100004Y7184754D02*
Y7215254D01*
X6984754Y7000004D02*
X7015254D01*
X7000004Y6984754D02*
Y7015254D01*
X7084754Y6800004D02*
X7115254D01*
X7100004Y6784754D02*
Y6815254D01*
X7084754Y6400003D02*
X7115254D01*
X7100004Y6384754D02*
Y6415253D01*
X7084754Y6000003D02*
X7115254D01*
X7100004Y5984753D02*
Y6015253D01*
X6984754Y3000002D02*
X7015254D01*
X7000004Y2984752D02*
Y3015252D01*
X6984754Y2600001D02*
X7015254D01*
X7000004Y2584751D02*
Y2615251D01*
X6984754Y1800001D02*
X7015254D01*
X7000004Y1784751D02*
Y1815251D01*
X7084754Y1200001D02*
X7115254D01*
X7100004Y1184751D02*
Y1215251D01*
X6984754Y1000001D02*
X7015254D01*
X7000004Y984751D02*
Y1015250D01*
X7084754Y800000D02*
X7115254D01*
X7100004Y784751D02*
Y815250D01*
X6984754Y600000D02*
X7015254D01*
X7000004Y584750D02*
Y615250D01*
X7084754Y400000D02*
X7115254D01*
X7100004Y384750D02*
Y415250D01*
X6984754Y200000D02*
X7015254D01*
X7000004Y184750D02*
Y215250D01*
X6784754Y11400006D02*
X6815254D01*
X6800004Y11384756D02*
Y11415256D01*
X6884754Y11200006D02*
X6915254D01*
X6900004Y11184756D02*
Y11215256D01*
X6784754Y11000006D02*
X6815254D01*
X6800004Y10984756D02*
Y11015256D01*
X6884754Y10800006D02*
X6915254D01*
X6900004Y10784756D02*
Y10815256D01*
X6784754Y10600006D02*
X6815254D01*
X6800004Y10584756D02*
Y10615256D01*
X6884754Y10400006D02*
X6915254D01*
X6900004Y10384756D02*
Y10415256D01*
X6784754Y10200006D02*
X6815254D01*
X6800004Y10184756D02*
Y10215255D01*
X6884754Y10000005D02*
X6915254D01*
X6900004Y9984755D02*
Y10015255D01*
X6784754Y9800005D02*
X6815254D01*
X6800004Y9784755D02*
Y9815255D01*
X6884754Y9600005D02*
X6915254D01*
X6900004Y9584755D02*
Y9615255D01*
X6784754Y9400005D02*
X6815254D01*
X6800004Y9384755D02*
Y9415255D01*
X6784754Y8600005D02*
X6815254D01*
X6800004Y8584755D02*
Y8615255D01*
X6884754Y7600004D02*
X6915254D01*
X6900004Y7584754D02*
Y7615254D01*
X6784754Y7400004D02*
X6815254D01*
X6800004Y7384754D02*
Y7415254D01*
X6884754Y7200004D02*
X6915254D01*
X6900004Y7184754D02*
Y7215254D01*
X6784754Y7000004D02*
X6815254D01*
X6800004Y6984754D02*
Y7015254D01*
X6884754Y6400003D02*
X6915254D01*
X6900004Y6384754D02*
Y6415253D01*
X6784754Y6200003D02*
X6815254D01*
X6800004Y6184753D02*
Y6215253D01*
X6884754Y6000003D02*
X6915254D01*
X6900004Y5984753D02*
Y6015253D01*
X6784754Y5800003D02*
X6815254D01*
X6800004Y5784753D02*
Y5815253D01*
X6784754Y5000003D02*
X6815254D01*
X6800004Y4984753D02*
Y5015253D01*
X6784754Y4600002D02*
X6815254D01*
X6800004Y4584753D02*
Y4615252D01*
X6784754Y4200002D02*
X6815254D01*
X6800004Y4184752D02*
Y4215252D01*
X6784754Y3800002D02*
X6815254D01*
X6800004Y3784752D02*
Y3815252D01*
X6784754Y3400002D02*
X6815254D01*
X6800004Y3384752D02*
Y3415252D01*
X6884754Y1200001D02*
X6915254D01*
X6900004Y1184751D02*
Y1215251D01*
X6884754Y800000D02*
X6915254D01*
X6900004Y784751D02*
Y815250D01*
X6784754Y600000D02*
X6815254D01*
X6800004Y584750D02*
Y615250D01*
X6884754Y400000D02*
X6915254D01*
X6900004Y384750D02*
Y415250D01*
X6784754Y200000D02*
X6815254D01*
X6800004Y184750D02*
Y215250D01*
X6584754Y11400006D02*
X6615253D01*
X6600004Y11384756D02*
Y11415256D01*
X6684754Y11200006D02*
X6715254D01*
X6700004Y11184756D02*
Y11215256D01*
X6584754Y11000006D02*
X6615253D01*
X6600004Y10984756D02*
Y11015256D01*
X6684754Y10800006D02*
X6715254D01*
X6700004Y10784756D02*
Y10815256D01*
X6584754Y10600006D02*
X6615253D01*
X6600004Y10584756D02*
Y10615256D01*
X6684754Y10400006D02*
X6715254D01*
X6700004Y10384756D02*
Y10415256D01*
X6584754Y10200006D02*
X6615253D01*
X6600004Y10184756D02*
Y10215255D01*
X6684754Y10000005D02*
X6715254D01*
X6700004Y9984755D02*
Y10015255D01*
X6584754Y9800005D02*
X6615253D01*
X6600004Y9784755D02*
Y9815255D01*
X6684754Y9600005D02*
X6715254D01*
X6700004Y9584755D02*
Y9615255D01*
X6584754Y9400005D02*
X6615253D01*
X6600004Y9384755D02*
Y9415255D01*
X6684754Y9200005D02*
X6715254D01*
X6700004Y9184755D02*
Y9215255D01*
X6584754Y9000005D02*
X6615253D01*
X6600004Y8984755D02*
Y9015255D01*
X6684754Y8800005D02*
X6715254D01*
X6700004Y8784755D02*
Y8815255D01*
X6584754Y7400004D02*
X6615253D01*
X6600004Y7384754D02*
Y7415254D01*
X6684754Y7200004D02*
X6715254D01*
X6700004Y7184754D02*
Y7215254D01*
X6584754Y7000004D02*
X6615253D01*
X6600004Y6984754D02*
Y7015254D01*
X6684754Y6800004D02*
X6715254D01*
X6700004Y6784754D02*
Y6815254D01*
X6684754Y6400003D02*
X6715254D01*
X6700004Y6384754D02*
Y6415253D01*
X6684754Y6000003D02*
X6715254D01*
X6700004Y5984753D02*
Y6015253D01*
X6684754Y4400002D02*
X6715254D01*
X6700004Y4384752D02*
Y4415252D01*
X6684754Y4000002D02*
X6715254D01*
X6700004Y3984752D02*
Y4015252D01*
X6584754Y3800002D02*
X6615253D01*
X6600004Y3784752D02*
Y3815252D01*
X6684754Y3200002D02*
X6715254D01*
X6700004Y3184752D02*
Y3215252D01*
X6684754Y2800002D02*
X6715254D01*
X6700004Y2784752D02*
Y2815251D01*
X6684754Y2400001D02*
X6715254D01*
X6700004Y2384751D02*
Y2415251D01*
X6684754Y400000D02*
X6715254D01*
X6700004Y384750D02*
Y415250D01*
X6584754Y200000D02*
X6615253D01*
X6600004Y184750D02*
Y215250D01*
X6384754Y11400006D02*
X6415253D01*
X6400003Y11384756D02*
Y11415256D01*
X6484754Y11200006D02*
X6515253D01*
X6500004Y11184756D02*
Y11215256D01*
X6384754Y11000006D02*
X6415253D01*
X6400003Y10984756D02*
Y11015256D01*
X6484754Y10800006D02*
X6515253D01*
X6500004Y10784756D02*
Y10815256D01*
X6384754Y10600006D02*
X6415253D01*
X6400003Y10584756D02*
Y10615256D01*
X6484754Y10400006D02*
X6515253D01*
X6500004Y10384756D02*
Y10415256D01*
X6384754Y10200006D02*
X6415253D01*
X6400003Y10184756D02*
Y10215255D01*
X6484754Y10000005D02*
X6515253D01*
X6500004Y9984755D02*
Y10015255D01*
X6384754Y9800005D02*
X6415253D01*
X6400003Y9784755D02*
Y9815255D01*
X6484754Y9600005D02*
X6515253D01*
X6500004Y9584755D02*
Y9615255D01*
X6384754Y9400005D02*
X6415253D01*
X6400003Y9384755D02*
Y9415255D01*
X6484754Y9200005D02*
X6515253D01*
X6500004Y9184755D02*
Y9215255D01*
X6384754Y9000005D02*
X6415253D01*
X6400003Y8984755D02*
Y9015255D01*
X6484754Y7600004D02*
X6515253D01*
X6500004Y7584754D02*
Y7615254D01*
X6384754Y7400004D02*
X6415253D01*
X6400003Y7384754D02*
Y7415254D01*
X6484754Y7200004D02*
X6515253D01*
X6500004Y7184754D02*
Y7215254D01*
X6384754Y7000004D02*
X6415253D01*
X6400003Y6984754D02*
Y7015254D01*
X6484754Y6000003D02*
X6515253D01*
X6500004Y5984753D02*
Y6015253D01*
X6384754Y200000D02*
X6415253D01*
X6400003Y184750D02*
Y215250D01*
X6184753Y11400006D02*
X6215253D01*
X6200003Y11384756D02*
Y11415256D01*
X6284753Y11200006D02*
X6315253D01*
X6300003Y11184756D02*
Y11215256D01*
X6184753Y11000006D02*
X6215253D01*
X6200003Y10984756D02*
Y11015256D01*
X6284753Y10800006D02*
X6315253D01*
X6300003Y10784756D02*
Y10815256D01*
X6184753Y10600006D02*
X6215253D01*
X6200003Y10584756D02*
Y10615256D01*
X6284753Y10400006D02*
X6315253D01*
X6300003Y10384756D02*
Y10415256D01*
X6284753Y10000005D02*
X6315253D01*
X6300003Y9984755D02*
Y10015255D01*
X6184753Y9800005D02*
X6215253D01*
X6200003Y9784755D02*
Y9815255D01*
X6184753Y9400005D02*
X6215253D01*
X6200003Y9384755D02*
Y9415255D01*
X6184753Y9000005D02*
X6215253D01*
X6200003Y8984755D02*
Y9015255D01*
X6184753Y8600005D02*
X6215253D01*
X6200003Y8584755D02*
Y8615255D01*
X6184753Y7400004D02*
X6215253D01*
X6200003Y7384754D02*
Y7415254D01*
X6184753Y6200003D02*
X6215253D01*
X6200003Y6184753D02*
Y6215253D01*
X6184753Y4600002D02*
X6215253D01*
X6200003Y4584753D02*
Y4615252D01*
X6284753Y4400002D02*
X6315253D01*
X6300003Y4384752D02*
Y4415252D01*
X6284753Y4000002D02*
X6315253D01*
X6300003Y3984752D02*
Y4015252D01*
X6284753Y3600002D02*
X6315253D01*
X6300003Y3584752D02*
Y3615252D01*
X6284753Y2800002D02*
X6315253D01*
X6300003Y2784752D02*
Y2815251D01*
X6184753Y1800001D02*
X6215253D01*
X6200003Y1784751D02*
Y1815251D01*
X5984753Y11400006D02*
X6015253D01*
X6000003Y11384756D02*
Y11415256D01*
X6084753Y11200006D02*
X6115253D01*
X6100003Y11184756D02*
Y11215256D01*
X5984753Y11000006D02*
X6015253D01*
X6000003Y10984756D02*
Y11015256D01*
X6084753Y10800006D02*
X6115253D01*
X6100003Y10784756D02*
Y10815256D01*
X5984753Y10600006D02*
X6015253D01*
X6000003Y10584756D02*
Y10615256D01*
X5984753Y10200006D02*
X6015253D01*
X6000003Y10184756D02*
Y10215255D01*
X5984753Y9800005D02*
X6015253D01*
X6000003Y9784755D02*
Y9815255D01*
X6084753Y9600005D02*
X6115253D01*
X6100003Y9584755D02*
Y9615255D01*
X5984753Y9400005D02*
X6015253D01*
X6000003Y9384755D02*
Y9415255D01*
X6084753Y9200005D02*
X6115253D01*
X6100003Y9184755D02*
Y9215255D01*
X5984753Y9000005D02*
X6015253D01*
X6000003Y8984755D02*
Y9015255D01*
X6084753Y8800005D02*
X6115253D01*
X6100003Y8784755D02*
Y8815255D01*
X5984753Y8600005D02*
X6015253D01*
X6000003Y8584755D02*
Y8615255D01*
X6084753Y7200004D02*
X6115253D01*
X6100003Y7184754D02*
Y7215254D01*
X6084753Y6800004D02*
X6115253D01*
X6100003Y6784754D02*
Y6815254D01*
X5984753Y6600004D02*
X6015253D01*
X6000003Y6584754D02*
Y6615253D01*
X6084753Y6400003D02*
X6115253D01*
X6100003Y6384754D02*
Y6415253D01*
X5984753Y6200003D02*
X6015253D01*
X6000003Y6184753D02*
Y6215253D01*
X5984753Y5800003D02*
X6015253D01*
X6000003Y5784753D02*
Y5815253D01*
X5984753Y4600002D02*
X6015253D01*
X6000003Y4584753D02*
Y4615252D01*
X5984753Y4200002D02*
X6015253D01*
X6000003Y4184752D02*
Y4215252D01*
X5984753Y3800002D02*
X6015253D01*
X6000003Y3784752D02*
Y3815252D01*
X5984753Y3400002D02*
X6015253D01*
X6000003Y3384752D02*
Y3415252D01*
X5984753Y2200001D02*
X6015253D01*
X6000003Y2184751D02*
Y2215251D01*
X5984753Y1800001D02*
X6015253D01*
X6000003Y1784751D02*
Y1815251D01*
X6084753Y400000D02*
X6115253D01*
X6100003Y384750D02*
Y415250D01*
X5784753Y11400006D02*
X5815253D01*
X5800003Y11384756D02*
Y11415256D01*
X5884753Y11200006D02*
X5915253D01*
X5900003Y11184756D02*
Y11215256D01*
X5784753Y11000006D02*
X5815253D01*
X5800003Y10984756D02*
Y11015256D01*
X5884753Y10800006D02*
X5915253D01*
X5900003Y10784756D02*
Y10815256D01*
X5784753Y10600006D02*
X5815253D01*
X5800003Y10584756D02*
Y10615256D01*
X5784753Y10200006D02*
X5815253D01*
X5800003Y10184756D02*
Y10215255D01*
X5884753Y10000005D02*
X5915253D01*
X5900003Y9984755D02*
Y10015255D01*
X5784753Y9800005D02*
X5815253D01*
X5800003Y9784755D02*
Y9815255D01*
X5884753Y9600005D02*
X5915253D01*
X5900003Y9584755D02*
Y9615255D01*
X5784753Y9400005D02*
X5815253D01*
X5800003Y9384755D02*
Y9415255D01*
X5884753Y9200005D02*
X5915253D01*
X5900003Y9184755D02*
Y9215255D01*
X5784753Y9000005D02*
X5815253D01*
X5800003Y8984755D02*
Y9015255D01*
X5884753Y8800005D02*
X5915253D01*
X5900003Y8784755D02*
Y8815255D01*
X5784753Y8600005D02*
X5815253D01*
X5800003Y8584755D02*
Y8615255D01*
X5884753Y8400005D02*
X5915253D01*
X5900003Y8384755D02*
Y8415254D01*
X5784753Y7400004D02*
X5815253D01*
X5800003Y7384754D02*
Y7415254D01*
X5884753Y7200004D02*
X5915253D01*
X5900003Y7184754D02*
Y7215254D01*
X5784753Y6200003D02*
X5815253D01*
X5800003Y6184753D02*
Y6215253D01*
X5784753Y3400002D02*
X5815253D01*
X5800003Y3384752D02*
Y3415252D01*
X5884753Y3200002D02*
X5915253D01*
X5900003Y3184752D02*
Y3215252D01*
X5884753Y2000001D02*
X5915253D01*
X5900003Y1984751D02*
Y2015251D01*
X5784753Y1800001D02*
X5815253D01*
X5800003Y1784751D02*
Y1815251D01*
X5784753Y1400001D02*
X5815253D01*
X5800003Y1384751D02*
Y1415251D01*
X5884753Y1200001D02*
X5915253D01*
X5900003Y1184751D02*
Y1215251D01*
X5884753Y400000D02*
X5915253D01*
X5900003Y384750D02*
Y415250D01*
X5584753Y11400006D02*
X5615253D01*
X5600003Y11384756D02*
Y11415256D01*
X5684753Y11200006D02*
X5715253D01*
X5700003Y11184756D02*
Y11215256D01*
X5584753Y11000006D02*
X5615253D01*
X5600003Y10984756D02*
Y11015256D01*
X5684753Y10800006D02*
X5715253D01*
X5700003Y10784756D02*
Y10815256D01*
X5584753Y10600006D02*
X5615253D01*
X5600003Y10584756D02*
Y10615256D01*
X5584753Y10200006D02*
X5615253D01*
X5600003Y10184756D02*
Y10215255D01*
X5684753Y10000005D02*
X5715253D01*
X5700003Y9984755D02*
Y10015255D01*
X5584753Y9800005D02*
X5615253D01*
X5600003Y9784755D02*
Y9815255D01*
X5684753Y9600005D02*
X5715253D01*
X5700003Y9584755D02*
Y9615255D01*
X5584753Y9400005D02*
X5615253D01*
X5600003Y9384755D02*
Y9415255D01*
X5684753Y9200005D02*
X5715253D01*
X5700003Y9184755D02*
Y9215255D01*
X5584753Y9000005D02*
X5615253D01*
X5600003Y8984755D02*
Y9015255D01*
X5684753Y8800005D02*
X5715253D01*
X5700003Y8784755D02*
Y8815255D01*
X5584753Y8600005D02*
X5615253D01*
X5600003Y8584755D02*
Y8615255D01*
X5684753Y8400005D02*
X5715253D01*
X5700003Y8384755D02*
Y8415254D01*
X5584753Y7400004D02*
X5615253D01*
X5600003Y7384754D02*
Y7415254D01*
X5584753Y6200003D02*
X5615253D01*
X5600003Y6184753D02*
Y6215253D01*
X5584753Y5800003D02*
X5615253D01*
X5600003Y5784753D02*
Y5815253D01*
X5684753Y5600003D02*
X5715253D01*
X5700003Y5584753D02*
Y5615253D01*
X5584753Y4600002D02*
X5615253D01*
X5600003Y4584753D02*
Y4615252D01*
X5584753Y3800002D02*
X5615253D01*
X5600003Y3784752D02*
Y3815252D01*
X5584753Y2200001D02*
X5615253D01*
X5600003Y2184751D02*
Y2215251D01*
X5684753Y2000001D02*
X5715253D01*
X5700003Y1984751D02*
Y2015251D01*
X5584753Y1800001D02*
X5615253D01*
X5600003Y1784751D02*
Y1815251D01*
X5684753Y1200001D02*
X5715253D01*
X5700003Y1184751D02*
Y1215251D01*
X5684753Y400000D02*
X5715253D01*
X5700003Y384750D02*
Y415250D01*
X5384753Y11400006D02*
X5415253D01*
X5400003Y11384756D02*
Y11415256D01*
X5484753Y11200006D02*
X5515253D01*
X5500003Y11184756D02*
Y11215256D01*
X5384753Y11000006D02*
X5415253D01*
X5400003Y10984756D02*
Y11015256D01*
X5484753Y10800006D02*
X5515253D01*
X5500003Y10784756D02*
Y10815256D01*
X5384753Y10600006D02*
X5415253D01*
X5400003Y10584756D02*
Y10615256D01*
X5484753Y10400006D02*
X5515253D01*
X5500003Y10384756D02*
Y10415256D01*
X5384753Y10200006D02*
X5415253D01*
X5400003Y10184756D02*
Y10215255D01*
X5484753Y10000005D02*
X5515253D01*
X5500003Y9984755D02*
Y10015255D01*
X5384753Y9800005D02*
X5415253D01*
X5400003Y9784755D02*
Y9815255D01*
X5484753Y9600005D02*
X5515253D01*
X5500003Y9584755D02*
Y9615255D01*
X5384753Y9400005D02*
X5415253D01*
X5400003Y9384755D02*
Y9415255D01*
X5484753Y9200005D02*
X5515253D01*
X5500003Y9184755D02*
Y9215255D01*
X5484753Y8800005D02*
X5515253D01*
X5500003Y8784755D02*
Y8815255D01*
X5484753Y7600004D02*
X5515253D01*
X5500003Y7584754D02*
Y7615254D01*
X5484753Y6400003D02*
X5515253D01*
X5500003Y6384754D02*
Y6415253D01*
X5484753Y6000003D02*
X5515253D01*
X5500003Y5984753D02*
Y6015253D01*
X5384753Y5800003D02*
X5415253D01*
X5400003Y5784753D02*
Y5815253D01*
X5484753Y5600003D02*
X5515253D01*
X5500003Y5584753D02*
Y5615253D01*
X5384753Y4600002D02*
X5415253D01*
X5400003Y4584753D02*
Y4615252D01*
X5384753Y2200001D02*
X5415253D01*
X5400003Y2184751D02*
Y2215251D01*
X5484753Y2000001D02*
X5515253D01*
X5500003Y1984751D02*
Y2015251D01*
X5384753Y1800001D02*
X5415253D01*
X5400003Y1784751D02*
Y1815251D01*
X5484753Y400000D02*
X5515253D01*
X5500003Y384750D02*
Y415250D01*
X5184753Y11400006D02*
X5215253D01*
X5200003Y11384756D02*
Y11415256D01*
X5284753Y11200006D02*
X5315253D01*
X5300003Y11184756D02*
Y11215256D01*
X5184753Y11000006D02*
X5215253D01*
X5200003Y10984756D02*
Y11015256D01*
X5284753Y10800006D02*
X5315253D01*
X5300003Y10784756D02*
Y10815256D01*
X5184753Y10600006D02*
X5215253D01*
X5200003Y10584756D02*
Y10615256D01*
X5284753Y10400006D02*
X5315253D01*
X5300003Y10384756D02*
Y10415256D01*
X5184753Y10200006D02*
X5215253D01*
X5200003Y10184756D02*
Y10215255D01*
X5284753Y10000005D02*
X5315253D01*
X5300003Y9984755D02*
Y10015255D01*
X5184753Y9800005D02*
X5215253D01*
X5200003Y9784755D02*
Y9815255D01*
X5284753Y9600005D02*
X5315253D01*
X5300003Y9584755D02*
Y9615255D01*
X5184753Y9400005D02*
X5215253D01*
X5200003Y9384755D02*
Y9415255D01*
X5284753Y9200005D02*
X5315253D01*
X5300003Y9184755D02*
Y9215255D01*
X5184753Y9000005D02*
X5215253D01*
X5200003Y8984755D02*
Y9015255D01*
X5284753Y8800005D02*
X5315253D01*
X5300003Y8784755D02*
Y8815255D01*
X5184753Y8600005D02*
X5215253D01*
X5200003Y8584755D02*
Y8615255D01*
X5284753Y8400005D02*
X5315253D01*
X5300003Y8384755D02*
Y8415254D01*
X5284753Y5600003D02*
X5315253D01*
X5300003Y5584753D02*
Y5615253D01*
X5184753Y2200001D02*
X5215253D01*
X5200003Y2184751D02*
Y2215251D01*
X5284753Y2000001D02*
X5315253D01*
X5300003Y1984751D02*
Y2015251D01*
X5284753Y400000D02*
X5315253D01*
X5300003Y384750D02*
Y415250D01*
X4984753Y11400006D02*
X5015253D01*
X5000003Y11384756D02*
Y11415256D01*
X5084753Y11200006D02*
X5115253D01*
X5100003Y11184756D02*
Y11215256D01*
X4984753Y11000006D02*
X5015253D01*
X5000003Y10984756D02*
Y11015256D01*
X5084753Y10800006D02*
X5115253D01*
X5100003Y10784756D02*
Y10815256D01*
X4984753Y10600006D02*
X5015253D01*
X5000003Y10584756D02*
Y10615256D01*
X5084753Y10400006D02*
X5115253D01*
X5100003Y10384756D02*
Y10415256D01*
X4984753Y10200006D02*
X5015253D01*
X5000003Y10184756D02*
Y10215255D01*
X5084753Y10000005D02*
X5115253D01*
X5100003Y9984755D02*
Y10015255D01*
X4984753Y9800005D02*
X5015253D01*
X5000003Y9784755D02*
Y9815255D01*
X5084753Y9600005D02*
X5115253D01*
X5100003Y9584755D02*
Y9615255D01*
X4984753Y9400005D02*
X5015253D01*
X5000003Y9384755D02*
Y9415255D01*
X5084753Y9200005D02*
X5115253D01*
X5100003Y9184755D02*
Y9215255D01*
X4984753Y9000005D02*
X5015253D01*
X5000003Y8984755D02*
Y9015255D01*
X5084753Y8800005D02*
X5115253D01*
X5100003Y8784755D02*
Y8815255D01*
X4984753Y8600005D02*
X5015253D01*
X5000003Y8584755D02*
Y8615255D01*
X4984753Y8200004D02*
X5015253D01*
X5000003Y8184755D02*
Y8215254D01*
X4984753Y6200003D02*
X5015253D01*
X5000003Y6184753D02*
Y6215253D01*
X5084753Y5600003D02*
X5115253D01*
X5100003Y5584753D02*
Y5615253D01*
X5084753Y4800003D02*
X5115253D01*
X5100003Y4784753D02*
Y4815252D01*
X4984753Y4600002D02*
X5015253D01*
X5000003Y4584753D02*
Y4615252D01*
X5084753Y4400002D02*
X5115253D01*
X5100003Y4384752D02*
Y4415252D01*
X5084753Y3600002D02*
X5115253D01*
X5100003Y3584752D02*
Y3615252D01*
X4984753Y2200001D02*
X5015253D01*
X5000003Y2184751D02*
Y2215251D01*
X5084753Y2000001D02*
X5115253D01*
X5100003Y1984751D02*
Y2015251D01*
X4984753Y1800001D02*
X5015253D01*
X5000003Y1784751D02*
Y1815251D01*
X4984753Y1400001D02*
X5015253D01*
X5000003Y1384751D02*
Y1415251D01*
X4984753Y600000D02*
X5015253D01*
X5000003Y584750D02*
Y615250D01*
X5084753Y400000D02*
X5115253D01*
X5100003Y384750D02*
Y415250D01*
X4784753Y11400006D02*
X4815252D01*
X4800003Y11384756D02*
Y11415256D01*
X4884753Y11200006D02*
X4915253D01*
X4900003Y11184756D02*
Y11215256D01*
X4784753Y11000006D02*
X4815252D01*
X4800003Y10984756D02*
Y11015256D01*
X4884753Y10800006D02*
X4915253D01*
X4900003Y10784756D02*
Y10815256D01*
X4784753Y10600006D02*
X4815252D01*
X4800003Y10584756D02*
Y10615256D01*
X4884753Y10400006D02*
X4915253D01*
X4900003Y10384756D02*
Y10415256D01*
X4784753Y10200006D02*
X4815252D01*
X4800003Y10184756D02*
Y10215255D01*
X4884753Y10000005D02*
X4915253D01*
X4900003Y9984755D02*
Y10015255D01*
X4784753Y9800005D02*
X4815252D01*
X4800003Y9784755D02*
Y9815255D01*
X4884753Y9600005D02*
X4915253D01*
X4900003Y9584755D02*
Y9615255D01*
X4784753Y9400005D02*
X4815252D01*
X4800003Y9384755D02*
Y9415255D01*
X4884753Y9200005D02*
X4915253D01*
X4900003Y9184755D02*
Y9215255D01*
X4784753Y9000005D02*
X4815252D01*
X4800003Y8984755D02*
Y9015255D01*
X4884753Y8800005D02*
X4915253D01*
X4900003Y8784755D02*
Y8815255D01*
X4784753Y8600005D02*
X4815252D01*
X4800003Y8584755D02*
Y8615255D01*
X4884753Y8400005D02*
X4915253D01*
X4900003Y8384755D02*
Y8415254D01*
X4784753Y8200004D02*
X4815252D01*
X4800003Y8184755D02*
Y8215254D01*
X4884753Y6400003D02*
X4915253D01*
X4900003Y6384754D02*
Y6415253D01*
X4884753Y4800003D02*
X4915253D01*
X4900003Y4784753D02*
Y4815252D01*
X4784753Y2200001D02*
X4815252D01*
X4800003Y2184751D02*
Y2215251D01*
X4884753Y2000001D02*
X4915253D01*
X4900003Y1984751D02*
Y2015251D01*
X4784753Y600000D02*
X4815252D01*
X4800003Y584750D02*
Y615250D01*
X4884753Y400000D02*
X4915253D01*
X4900003Y384750D02*
Y415250D01*
X4584753Y11400006D02*
X4615252D01*
X4600002Y11384756D02*
Y11415256D01*
X4684753Y11200006D02*
X4715252D01*
X4700003Y11184756D02*
Y11215256D01*
X4584753Y11000006D02*
X4615252D01*
X4600002Y10984756D02*
Y11015256D01*
X4684753Y10800006D02*
X4715252D01*
X4700003Y10784756D02*
Y10815256D01*
X4584753Y10600006D02*
X4615252D01*
X4600002Y10584756D02*
Y10615256D01*
X4684753Y10400006D02*
X4715252D01*
X4700003Y10384756D02*
Y10415256D01*
X4584753Y10200006D02*
X4615252D01*
X4600002Y10184756D02*
Y10215255D01*
X4684753Y10000005D02*
X4715252D01*
X4700003Y9984755D02*
Y10015255D01*
X4584753Y9800005D02*
X4615252D01*
X4600002Y9784755D02*
Y9815255D01*
X4684753Y9600005D02*
X4715252D01*
X4700003Y9584755D02*
Y9615255D01*
X4584753Y9400005D02*
X4615252D01*
X4600002Y9384755D02*
Y9415255D01*
X4684753Y9200005D02*
X4715252D01*
X4700003Y9184755D02*
Y9215255D01*
X4584753Y9000005D02*
X4615252D01*
X4600002Y8984755D02*
Y9015255D01*
X4684753Y8400005D02*
X4715252D01*
X4700003Y8384755D02*
Y8415254D01*
X4584753Y8200004D02*
X4615252D01*
X4600002Y8184755D02*
Y8215254D01*
X4684753Y8000004D02*
X4715252D01*
X4700003Y7984754D02*
Y8015254D01*
X4684753Y6400003D02*
X4715252D01*
X4700003Y6384754D02*
Y6415253D01*
X4584753Y2200001D02*
X4615252D01*
X4600002Y2184751D02*
Y2215251D01*
X4684753Y2000001D02*
X4715252D01*
X4700003Y1984751D02*
Y2015251D01*
X4584753Y600000D02*
X4615252D01*
X4600002Y584750D02*
Y615250D01*
X4684753Y400000D02*
X4715252D01*
X4700003Y384750D02*
Y415250D01*
X4384752Y11400006D02*
X4415252D01*
X4400002Y11384756D02*
Y11415256D01*
X4484753Y11200006D02*
X4515252D01*
X4500002Y11184756D02*
Y11215256D01*
X4384752Y11000006D02*
X4415252D01*
X4400002Y10984756D02*
Y11015256D01*
X4484753Y10800006D02*
X4515252D01*
X4500002Y10784756D02*
Y10815256D01*
X4384752Y10600006D02*
X4415252D01*
X4400002Y10584756D02*
Y10615256D01*
X4484753Y10400006D02*
X4515252D01*
X4500002Y10384756D02*
Y10415256D01*
X4384752Y10200006D02*
X4415252D01*
X4400002Y10184756D02*
Y10215255D01*
X4484753Y10000005D02*
X4515252D01*
X4500002Y9984755D02*
Y10015255D01*
X4384752Y9800005D02*
X4415252D01*
X4400002Y9784755D02*
Y9815255D01*
X4484753Y9600005D02*
X4515252D01*
X4500002Y9584755D02*
Y9615255D01*
X4384752Y9400005D02*
X4415252D01*
X4400002Y9384755D02*
Y9415255D01*
X4484753Y9200005D02*
X4515252D01*
X4500002Y9184755D02*
Y9215255D01*
X4384752Y9000005D02*
X4415252D01*
X4400002Y8984755D02*
Y9015255D01*
X4384752Y8200004D02*
X4415252D01*
X4400002Y8184755D02*
Y8215254D01*
X4484753Y8000004D02*
X4515252D01*
X4500002Y7984754D02*
Y8015254D01*
X4384752Y7800004D02*
X4415252D01*
X4400002Y7784754D02*
Y7815254D01*
X4384752Y6600004D02*
X4415252D01*
X4400002Y6584754D02*
Y6615253D01*
X4484753Y2400001D02*
X4515252D01*
X4500002Y2384751D02*
Y2415251D01*
X4384752Y2200001D02*
X4415252D01*
X4400002Y2184751D02*
Y2215251D01*
X4384752Y1800001D02*
X4415252D01*
X4400002Y1784751D02*
Y1815251D01*
X4384752Y600000D02*
X4415252D01*
X4400002Y584750D02*
Y615250D01*
X4484753Y400000D02*
X4515252D01*
X4500002Y384750D02*
Y415250D01*
X4184752Y11400006D02*
X4215252D01*
X4200002Y11384756D02*
Y11415256D01*
X4284752Y11200006D02*
X4315252D01*
X4300002Y11184756D02*
Y11215256D01*
X4184752Y11000006D02*
X4215252D01*
X4200002Y10984756D02*
Y11015256D01*
X4284752Y10800006D02*
X4315252D01*
X4300002Y10784756D02*
Y10815256D01*
X4184752Y10600006D02*
X4215252D01*
X4200002Y10584756D02*
Y10615256D01*
X4284752Y10400006D02*
X4315252D01*
X4300002Y10384756D02*
Y10415256D01*
X4184752Y10200006D02*
X4215252D01*
X4200002Y10184756D02*
Y10215255D01*
X4284752Y10000005D02*
X4315252D01*
X4300002Y9984755D02*
Y10015255D01*
X4184752Y9800005D02*
X4215252D01*
X4200002Y9784755D02*
Y9815255D01*
X4284752Y9600005D02*
X4315252D01*
X4300002Y9584755D02*
Y9615255D01*
X4184752Y9400005D02*
X4215252D01*
X4200002Y9384755D02*
Y9415255D01*
X4284752Y9200005D02*
X4315252D01*
X4300002Y9184755D02*
Y9215255D01*
X4184752Y9000005D02*
X4215252D01*
X4200002Y8984755D02*
Y9015255D01*
X4184752Y8200004D02*
X4215252D01*
X4200002Y8184755D02*
Y8215254D01*
X4284752Y8000004D02*
X4315252D01*
X4300002Y7984754D02*
Y8015254D01*
X4184752Y7800004D02*
X4215252D01*
X4200002Y7784754D02*
Y7815254D01*
X4284752Y7600004D02*
X4315252D01*
X4300002Y7584754D02*
Y7615254D01*
X4184752Y3400002D02*
X4215252D01*
X4200002Y3384752D02*
Y3415252D01*
X4284752Y2400001D02*
X4315252D01*
X4300002Y2384751D02*
Y2415251D01*
X4284752Y2000001D02*
X4315252D01*
X4300002Y1984751D02*
Y2015251D01*
X4184752Y1800001D02*
X4215252D01*
X4200002Y1784751D02*
Y1815251D01*
X4184752Y1400001D02*
X4215252D01*
X4200002Y1384751D02*
Y1415251D01*
X4284752Y1200001D02*
X4315252D01*
X4300002Y1184751D02*
Y1215251D01*
X4184752Y1000001D02*
X4215252D01*
X4200002Y984751D02*
Y1015250D01*
X4284752Y800000D02*
X4315252D01*
X4300002Y784751D02*
Y815250D01*
X4184752Y600000D02*
X4215252D01*
X4200002Y584750D02*
Y615250D01*
X4284752Y400000D02*
X4315252D01*
X4300002Y384750D02*
Y415250D01*
X3984752Y11400006D02*
X4015252D01*
X4000002Y11384756D02*
Y11415256D01*
X4084752Y11200006D02*
X4115252D01*
X4100002Y11184756D02*
Y11215256D01*
X3984752Y11000006D02*
X4015252D01*
X4000002Y10984756D02*
Y11015256D01*
X4084752Y10800006D02*
X4115252D01*
X4100002Y10784756D02*
Y10815256D01*
X3984752Y10600006D02*
X4015252D01*
X4000002Y10584756D02*
Y10615256D01*
X4084752Y10400006D02*
X4115252D01*
X4100002Y10384756D02*
Y10415256D01*
X3984752Y10200006D02*
X4015252D01*
X4000002Y10184756D02*
Y10215255D01*
X4084752Y10000005D02*
X4115252D01*
X4100002Y9984755D02*
Y10015255D01*
X3984752Y9800005D02*
X4015252D01*
X4000002Y9784755D02*
Y9815255D01*
X4084752Y9600005D02*
X4115252D01*
X4100002Y9584755D02*
Y9615255D01*
X3984752Y9400005D02*
X4015252D01*
X4000002Y9384755D02*
Y9415255D01*
X4084752Y9200005D02*
X4115252D01*
X4100002Y9184755D02*
Y9215255D01*
X3984752Y9000005D02*
X4015252D01*
X4000002Y8984755D02*
Y9015255D01*
X3984752Y8600005D02*
X4015252D01*
X4000002Y8584755D02*
Y8615255D01*
X4084752Y8400005D02*
X4115252D01*
X4100002Y8384755D02*
Y8415254D01*
X3984752Y4200002D02*
X4015252D01*
X4000002Y4184752D02*
Y4215252D01*
X4084752Y3600002D02*
X4115252D01*
X4100002Y3584752D02*
Y3615252D01*
X3984752Y2200001D02*
X4015252D01*
X4000002Y2184751D02*
Y2215251D01*
X4084752Y2000001D02*
X4115252D01*
X4100002Y1984751D02*
Y2015251D01*
X3984752Y1800001D02*
X4015252D01*
X4000002Y1784751D02*
Y1815251D01*
X3984752Y1400001D02*
X4015252D01*
X4000002Y1384751D02*
Y1415251D01*
X4084752Y1200001D02*
X4115252D01*
X4100002Y1184751D02*
Y1215251D01*
X3984752Y1000001D02*
X4015252D01*
X4000002Y984751D02*
Y1015250D01*
X4084752Y800000D02*
X4115252D01*
X4100002Y784751D02*
Y815250D01*
X3984752Y600000D02*
X4015252D01*
X4000002Y584750D02*
Y615250D01*
X4084752Y400000D02*
X4115252D01*
X4100002Y384750D02*
Y415250D01*
X3784752Y11400006D02*
X3815252D01*
X3800002Y11384756D02*
Y11415256D01*
X3884752Y11200006D02*
X3915252D01*
X3900002Y11184756D02*
Y11215256D01*
X3784752Y11000006D02*
X3815252D01*
X3800002Y10984756D02*
Y11015256D01*
X3884752Y10800006D02*
X3915252D01*
X3900002Y10784756D02*
Y10815256D01*
X3784752Y10600006D02*
X3815252D01*
X3800002Y10584756D02*
Y10615256D01*
X3784752Y10200006D02*
X3815252D01*
X3800002Y10184756D02*
Y10215255D01*
X3884752Y10000005D02*
X3915252D01*
X3900002Y9984755D02*
Y10015255D01*
X3784752Y9800005D02*
X3815252D01*
X3800002Y9784755D02*
Y9815255D01*
X3884752Y9600005D02*
X3915252D01*
X3900002Y9584755D02*
Y9615255D01*
X3784752Y9400005D02*
X3815252D01*
X3800002Y9384755D02*
Y9415255D01*
X3884752Y9200005D02*
X3915252D01*
X3900002Y9184755D02*
Y9215255D01*
X3784752Y9000005D02*
X3815252D01*
X3800002Y8984755D02*
Y9015255D01*
X3884752Y8400005D02*
X3915252D01*
X3900002Y8384755D02*
Y8415254D01*
X3784752Y8200004D02*
X3815252D01*
X3800002Y8184755D02*
Y8215254D01*
X3784752Y7800004D02*
X3815252D01*
X3800002Y7784754D02*
Y7815254D01*
X3784752Y7400004D02*
X3815252D01*
X3800002Y7384754D02*
Y7415254D01*
X3884752Y5600003D02*
X3915252D01*
X3900002Y5584753D02*
Y5615253D01*
X3884752Y4800003D02*
X3915252D01*
X3900002Y4784753D02*
Y4815252D01*
X3784752Y4600002D02*
X3815252D01*
X3800002Y4584753D02*
Y4615252D01*
X3884752Y4000002D02*
X3915252D01*
X3900002Y3984752D02*
Y4015252D01*
X3784752Y3400002D02*
X3815252D01*
X3800002Y3384752D02*
Y3415252D01*
X3884752Y2400001D02*
X3915252D01*
X3900002Y2384751D02*
Y2415251D01*
X3784752Y2200001D02*
X3815252D01*
X3800002Y2184751D02*
Y2215251D01*
X3884752Y2000001D02*
X3915252D01*
X3900002Y1984751D02*
Y2015251D01*
X3784752Y1800001D02*
X3815252D01*
X3800002Y1784751D02*
Y1815251D01*
X3784752Y1400001D02*
X3815252D01*
X3800002Y1384751D02*
Y1415251D01*
X3884752Y1200001D02*
X3915252D01*
X3900002Y1184751D02*
Y1215251D01*
X3784752Y1000001D02*
X3815252D01*
X3800002Y984751D02*
Y1015250D01*
X3884752Y800000D02*
X3915252D01*
X3900002Y784751D02*
Y815250D01*
X3784752Y600000D02*
X3815252D01*
X3800002Y584750D02*
Y615250D01*
X3884752Y400000D02*
X3915252D01*
X3900002Y384750D02*
Y415250D01*
X3584752Y11400006D02*
X3615252D01*
X3600002Y11384756D02*
Y11415256D01*
X3684752Y11200006D02*
X3715252D01*
X3700002Y11184756D02*
Y11215256D01*
X3584752Y11000006D02*
X3615252D01*
X3600002Y10984756D02*
Y11015256D01*
X3684752Y10800006D02*
X3715252D01*
X3700002Y10784756D02*
Y10815256D01*
X3584752Y10600006D02*
X3615252D01*
X3600002Y10584756D02*
Y10615256D01*
X3584752Y10200006D02*
X3615252D01*
X3600002Y10184756D02*
Y10215255D01*
X3684752Y10000005D02*
X3715252D01*
X3700002Y9984755D02*
Y10015255D01*
X3584752Y9800005D02*
X3615252D01*
X3600002Y9784755D02*
Y9815255D01*
X3684752Y9600005D02*
X3715252D01*
X3700002Y9584755D02*
Y9615255D01*
X3584752Y9400005D02*
X3615252D01*
X3600002Y9384755D02*
Y9415255D01*
X3684752Y9200005D02*
X3715252D01*
X3700002Y9184755D02*
Y9215255D01*
X3584752Y9000005D02*
X3615252D01*
X3600002Y8984755D02*
Y9015255D01*
X3684752Y8400005D02*
X3715252D01*
X3700002Y8384755D02*
Y8415254D01*
X3584752Y8200004D02*
X3615252D01*
X3600002Y8184755D02*
Y8215254D01*
X3684752Y8000004D02*
X3715252D01*
X3700002Y7984754D02*
Y8015254D01*
X3684752Y5600003D02*
X3715252D01*
X3700002Y5584753D02*
Y5615253D01*
X3684752Y4000002D02*
X3715252D01*
X3700002Y3984752D02*
Y4015252D01*
X3684752Y2400001D02*
X3715252D01*
X3700002Y2384751D02*
Y2415251D01*
X3584752Y2200001D02*
X3615252D01*
X3600002Y2184751D02*
Y2215251D01*
X3684752Y2000001D02*
X3715252D01*
X3700002Y1984751D02*
Y2015251D01*
X3584752Y1800001D02*
X3615252D01*
X3600002Y1784751D02*
Y1815251D01*
X3584752Y1400001D02*
X3615252D01*
X3600002Y1384751D02*
Y1415251D01*
X3684752Y1200001D02*
X3715252D01*
X3700002Y1184751D02*
Y1215251D01*
X3584752Y1000001D02*
X3615252D01*
X3600002Y984751D02*
Y1015250D01*
X3684752Y800000D02*
X3715252D01*
X3700002Y784751D02*
Y815250D01*
X3684752Y400000D02*
X3715252D01*
X3700002Y384750D02*
Y415250D01*
X3384752Y11400006D02*
X3415252D01*
X3400002Y11384756D02*
Y11415256D01*
X3484752Y11200006D02*
X3515252D01*
X3500002Y11184756D02*
Y11215256D01*
X3384752Y11000006D02*
X3415252D01*
X3400002Y10984756D02*
Y11015256D01*
X3484752Y10800006D02*
X3515252D01*
X3500002Y10784756D02*
Y10815256D01*
X3384752Y10600006D02*
X3415252D01*
X3400002Y10584756D02*
Y10615256D01*
X3484752Y10400006D02*
X3515252D01*
X3500002Y10384756D02*
Y10415256D01*
X3384752Y10200006D02*
X3415252D01*
X3400002Y10184756D02*
Y10215255D01*
X3484752Y10000005D02*
X3515252D01*
X3500002Y9984755D02*
Y10015255D01*
X3384752Y9800005D02*
X3415252D01*
X3400002Y9784755D02*
Y9815255D01*
X3484752Y9600005D02*
X3515252D01*
X3500002Y9584755D02*
Y9615255D01*
X3384752Y9400005D02*
X3415252D01*
X3400002Y9384755D02*
Y9415255D01*
X3484752Y9200005D02*
X3515252D01*
X3500002Y9184755D02*
Y9215255D01*
X3384752Y9000005D02*
X3415252D01*
X3400002Y8984755D02*
Y9015255D01*
X3384752Y8600005D02*
X3415252D01*
X3400002Y8584755D02*
Y8615255D01*
X3484752Y8400005D02*
X3515252D01*
X3500002Y8384755D02*
Y8415254D01*
X3384752Y8200004D02*
X3415252D01*
X3400002Y8184755D02*
Y8215254D01*
X3484752Y8000004D02*
X3515252D01*
X3500002Y7984754D02*
Y8015254D01*
X3484752Y7600004D02*
X3515252D01*
X3500002Y7584754D02*
Y7615254D01*
X3384752Y7400004D02*
X3415252D01*
X3400002Y7384754D02*
Y7415254D01*
X3484752Y6400003D02*
X3515252D01*
X3500002Y6384754D02*
Y6415253D01*
X3484752Y5600003D02*
X3515252D01*
X3500002Y5584753D02*
Y5615253D01*
X3484752Y4800003D02*
X3515252D01*
X3500002Y4784753D02*
Y4815252D01*
X3384752Y1400001D02*
X3415252D01*
X3400002Y1384751D02*
Y1415251D01*
X3484752Y1200001D02*
X3515252D01*
X3500002Y1184751D02*
Y1215251D01*
X3384752Y1000001D02*
X3415252D01*
X3400002Y984751D02*
Y1015250D01*
X3484752Y800000D02*
X3515252D01*
X3500002Y784751D02*
Y815250D01*
X3184752Y11400006D02*
X3215252D01*
X3200002Y11384756D02*
Y11415256D01*
X3284752Y11200006D02*
X3315252D01*
X3300002Y11184756D02*
Y11215256D01*
X3184752Y11000006D02*
X3215252D01*
X3200002Y10984756D02*
Y11015256D01*
X3284752Y10800006D02*
X3315252D01*
X3300002Y10784756D02*
Y10815256D01*
X3184752Y10600006D02*
X3215252D01*
X3200002Y10584756D02*
Y10615256D01*
X3284752Y10400006D02*
X3315252D01*
X3300002Y10384756D02*
Y10415256D01*
X3184752Y10200006D02*
X3215252D01*
X3200002Y10184756D02*
Y10215255D01*
X3284752Y10000005D02*
X3315252D01*
X3300002Y9984755D02*
Y10015255D01*
X3184752Y9800005D02*
X3215252D01*
X3200002Y9784755D02*
Y9815255D01*
X3284752Y9600005D02*
X3315252D01*
X3300002Y9584755D02*
Y9615255D01*
X3184752Y9400005D02*
X3215252D01*
X3200002Y9384755D02*
Y9415255D01*
X3284752Y9200005D02*
X3315252D01*
X3300002Y9184755D02*
Y9215255D01*
X3184752Y9000005D02*
X3215252D01*
X3200002Y8984755D02*
Y9015255D01*
X3284752Y8800005D02*
X3315252D01*
X3300002Y8784755D02*
Y8815255D01*
X3184752Y8600005D02*
X3215252D01*
X3200002Y8584755D02*
Y8615255D01*
X3284752Y8400005D02*
X3315252D01*
X3300002Y8384755D02*
Y8415254D01*
X3184752Y8200004D02*
X3215252D01*
X3200002Y8184755D02*
Y8215254D01*
X3284752Y8000004D02*
X3315252D01*
X3300002Y7984754D02*
Y8015254D01*
X3284752Y7200004D02*
X3315252D01*
X3300002Y7184754D02*
Y7215254D01*
X3284752Y4400002D02*
X3315252D01*
X3300002Y4384752D02*
Y4415252D01*
X3184752Y4200002D02*
X3215252D01*
X3200002Y4184752D02*
Y4215252D01*
X3184752Y1400001D02*
X3215252D01*
X3200002Y1384751D02*
Y1415251D01*
X3284752Y1200001D02*
X3315252D01*
X3300002Y1184751D02*
Y1215251D01*
X3184752Y1000001D02*
X3215252D01*
X3200002Y984751D02*
Y1015250D01*
X3284752Y800000D02*
X3315252D01*
X3300002Y784751D02*
Y815250D01*
X3284752Y400000D02*
X3315252D01*
X3300002Y384750D02*
Y415250D01*
X2984752Y11400006D02*
X3015252D01*
X3000002Y11384756D02*
Y11415256D01*
X3084752Y11200006D02*
X3115252D01*
X3100002Y11184756D02*
Y11215256D01*
X2984752Y11000006D02*
X3015252D01*
X3000002Y10984756D02*
Y11015256D01*
X3084752Y10800006D02*
X3115252D01*
X3100002Y10784756D02*
Y10815256D01*
X2984752Y10600006D02*
X3015252D01*
X3000002Y10584756D02*
Y10615256D01*
X3084752Y10400006D02*
X3115252D01*
X3100002Y10384756D02*
Y10415256D01*
X2984752Y10200006D02*
X3015252D01*
X3000002Y10184756D02*
Y10215255D01*
X3084752Y10000005D02*
X3115252D01*
X3100002Y9984755D02*
Y10015255D01*
X3084752Y9600005D02*
X3115252D01*
X3100002Y9584755D02*
Y9615255D01*
X3084752Y9200005D02*
X3115252D01*
X3100002Y9184755D02*
Y9215255D01*
X3084752Y8800005D02*
X3115252D01*
X3100002Y8784755D02*
Y8815255D01*
X3084752Y8400005D02*
X3115252D01*
X3100002Y8384755D02*
Y8415254D01*
X3084752Y8000004D02*
X3115252D01*
X3100002Y7984754D02*
Y8015254D01*
X3084752Y7200004D02*
X3115252D01*
X3100002Y7184754D02*
Y7215254D01*
X2984752Y7000004D02*
X3015252D01*
X3000002Y6984754D02*
Y7015254D01*
X2984752Y6600004D02*
X3015252D01*
X3000002Y6584754D02*
Y6615253D01*
X2984752Y6200003D02*
X3015252D01*
X3000002Y6184753D02*
Y6215253D01*
X2984752Y4600002D02*
X3015252D01*
X3000002Y4584753D02*
Y4615252D01*
X2984752Y4200002D02*
X3015252D01*
X3000002Y4184752D02*
Y4215252D01*
X2984752Y3800002D02*
X3015252D01*
X3000002Y3784752D02*
Y3815252D01*
X3084752Y3600002D02*
X3115252D01*
X3100002Y3584752D02*
Y3615252D01*
X3084752Y2000001D02*
X3115252D01*
X3100002Y1984751D02*
Y2015251D01*
X2984752Y1400001D02*
X3015252D01*
X3000002Y1384751D02*
Y1415251D01*
X3084752Y1200001D02*
X3115252D01*
X3100002Y1184751D02*
Y1215251D01*
X2984752Y1000001D02*
X3015252D01*
X3000002Y984751D02*
Y1015250D01*
X3084752Y800000D02*
X3115252D01*
X3100002Y784751D02*
Y815250D01*
X2784752Y11400006D02*
X2815251D01*
X2800002Y11384756D02*
Y11415256D01*
X2884752Y11200006D02*
X2915251D01*
X2900002Y11184756D02*
Y11215256D01*
X2784752Y11000006D02*
X2815251D01*
X2800002Y10984756D02*
Y11015256D01*
X2884752Y10800006D02*
X2915251D01*
X2900002Y10784756D02*
Y10815256D01*
X2784752Y10600006D02*
X2815251D01*
X2800002Y10584756D02*
Y10615256D01*
X2884752Y10400006D02*
X2915251D01*
X2900002Y10384756D02*
Y10415256D01*
X2784752Y10200006D02*
X2815251D01*
X2800002Y10184756D02*
Y10215255D01*
X2884752Y10000005D02*
X2915251D01*
X2900002Y9984755D02*
Y10015255D01*
X2784752Y9400005D02*
X2815251D01*
X2800002Y9384755D02*
Y9415255D01*
X2784752Y9000005D02*
X2815251D01*
X2800002Y8984755D02*
Y9015255D01*
X2784752Y8600005D02*
X2815251D01*
X2800002Y8584755D02*
Y8615255D01*
X2784752Y8200004D02*
X2815251D01*
X2800002Y8184755D02*
Y8215254D01*
X2784752Y7800004D02*
X2815251D01*
X2800002Y7784754D02*
Y7815254D01*
X2784752Y7400004D02*
X2815251D01*
X2800002Y7384754D02*
Y7415254D01*
X2884752Y6800004D02*
X2915251D01*
X2900002Y6784754D02*
Y6815254D01*
X2784752Y6600004D02*
X2815251D01*
X2800002Y6584754D02*
Y6615253D01*
X2884752Y6400003D02*
X2915251D01*
X2900002Y6384754D02*
Y6415253D01*
X2884752Y4000002D02*
X2915251D01*
X2900002Y3984752D02*
Y4015252D01*
X2784752Y3000002D02*
X2815251D01*
X2800002Y2984752D02*
Y3015252D01*
X2884752Y2800002D02*
X2915251D01*
X2900002Y2784752D02*
Y2815251D01*
X2784752Y2200001D02*
X2815251D01*
X2800002Y2184751D02*
Y2215251D01*
X2784752Y1000001D02*
X2815251D01*
X2800002Y984751D02*
Y1015250D01*
X2584751Y11400006D02*
X2615251D01*
X2600001Y11384756D02*
Y11415256D01*
X2684752Y11200006D02*
X2715251D01*
X2700001Y11184756D02*
Y11215256D01*
X2684752Y10800006D02*
X2715251D01*
X2700001Y10784756D02*
Y10815256D01*
X2684752Y10400006D02*
X2715251D01*
X2700001Y10384756D02*
Y10415256D01*
X2584751Y10200006D02*
X2615251D01*
X2600001Y10184756D02*
Y10215255D01*
X2584751Y9800005D02*
X2615251D01*
X2600001Y9784755D02*
Y9815255D01*
X2584751Y9400005D02*
X2615251D01*
X2600001Y9384755D02*
Y9415255D01*
X2684752Y9200005D02*
X2715251D01*
X2700001Y9184755D02*
Y9215255D01*
X2584751Y9000005D02*
X2615251D01*
X2600001Y8984755D02*
Y9015255D01*
X2684752Y8800005D02*
X2715251D01*
X2700001Y8784755D02*
Y8815255D01*
X2584751Y8600005D02*
X2615251D01*
X2600001Y8584755D02*
Y8615255D01*
X2684752Y8400005D02*
X2715251D01*
X2700001Y8384755D02*
Y8415254D01*
X2584751Y8200004D02*
X2615251D01*
X2600001Y8184755D02*
Y8215254D01*
X2684752Y8000004D02*
X2715251D01*
X2700001Y7984754D02*
Y8015254D01*
X2584751Y7800004D02*
X2615251D01*
X2600001Y7784754D02*
Y7815254D01*
X2684752Y7600004D02*
X2715251D01*
X2700001Y7584754D02*
Y7615254D01*
X2584751Y7400004D02*
X2615251D01*
X2600001Y7384754D02*
Y7415254D01*
X2584751Y7000004D02*
X2615251D01*
X2600001Y6984754D02*
Y7015254D01*
X2684752Y6800004D02*
X2715251D01*
X2700001Y6784754D02*
Y6815254D01*
X2584751Y6600004D02*
X2615251D01*
X2600001Y6584754D02*
Y6615253D01*
X2684752Y6400003D02*
X2715251D01*
X2700001Y6384754D02*
Y6415253D01*
X2584751Y5400003D02*
X2615251D01*
X2600001Y5384753D02*
Y5415253D01*
X2584751Y4600002D02*
X2615251D01*
X2600001Y4584753D02*
Y4615252D01*
X2584751Y4200002D02*
X2615251D01*
X2600001Y4184752D02*
Y4215252D01*
X2684752Y4000002D02*
X2715251D01*
X2700001Y3984752D02*
Y4015252D01*
X2684752Y3200002D02*
X2715251D01*
X2700001Y3184752D02*
Y3215252D01*
X2584751Y3000002D02*
X2615251D01*
X2600001Y2984752D02*
Y3015252D01*
X2684752Y2800002D02*
X2715251D01*
X2700001Y2784752D02*
Y2815251D01*
X2584751Y2200001D02*
X2615251D01*
X2600001Y2184751D02*
Y2215251D01*
X2684752Y1200001D02*
X2715251D01*
X2700001Y1184751D02*
Y1215251D01*
X2384751Y11400006D02*
X2415251D01*
X2400001Y11384756D02*
Y11415256D01*
X2484751Y11200006D02*
X2515251D01*
X2500001Y11184756D02*
Y11215256D01*
X2484751Y10800006D02*
X2515251D01*
X2500001Y10784756D02*
Y10815256D01*
X2484751Y10400006D02*
X2515251D01*
X2500001Y10384756D02*
Y10415256D01*
X2384751Y10200006D02*
X2415251D01*
X2400001Y10184756D02*
Y10215255D01*
X2484751Y10000005D02*
X2515251D01*
X2500001Y9984755D02*
Y10015255D01*
X2384751Y9800005D02*
X2415251D01*
X2400001Y9784755D02*
Y9815255D01*
X2484751Y9600005D02*
X2515251D01*
X2500001Y9584755D02*
Y9615255D01*
X2384751Y9400005D02*
X2415251D01*
X2400001Y9384755D02*
Y9415255D01*
X2484751Y9200005D02*
X2515251D01*
X2500001Y9184755D02*
Y9215255D01*
X2384751Y9000005D02*
X2415251D01*
X2400001Y8984755D02*
Y9015255D01*
X2484751Y8800005D02*
X2515251D01*
X2500001Y8784755D02*
Y8815255D01*
X2384751Y8600005D02*
X2415251D01*
X2400001Y8584755D02*
Y8615255D01*
X2484751Y8400005D02*
X2515251D01*
X2500001Y8384755D02*
Y8415254D01*
X2384751Y8200004D02*
X2415251D01*
X2400001Y8184755D02*
Y8215254D01*
X2484751Y8000004D02*
X2515251D01*
X2500001Y7984754D02*
Y8015254D01*
X2384751Y7800004D02*
X2415251D01*
X2400001Y7784754D02*
Y7815254D01*
X2484751Y7600004D02*
X2515251D01*
X2500001Y7584754D02*
Y7615254D01*
X2384751Y7400004D02*
X2415251D01*
X2400001Y7384754D02*
Y7415254D01*
X2484751Y7200004D02*
X2515251D01*
X2500001Y7184754D02*
Y7215254D01*
X2384751Y7000004D02*
X2415251D01*
X2400001Y6984754D02*
Y7015254D01*
X2484751Y6800004D02*
X2515251D01*
X2500001Y6784754D02*
Y6815254D01*
X2384751Y6600004D02*
X2415251D01*
X2400001Y6584754D02*
Y6615253D01*
X2384751Y6200003D02*
X2415251D01*
X2400001Y6184753D02*
Y6215253D01*
X2384751Y5400003D02*
X2415251D01*
X2400001Y5384753D02*
Y5415253D01*
X2484751Y5200003D02*
X2515251D01*
X2500001Y5184753D02*
Y5215253D01*
X2484751Y4800003D02*
X2515251D01*
X2500001Y4784753D02*
Y4815252D01*
X2484751Y4400002D02*
X2515251D01*
X2500001Y4384752D02*
Y4415252D01*
X2384751Y3400002D02*
X2415251D01*
X2400001Y3384752D02*
Y3415252D01*
X2484751Y3200002D02*
X2515251D01*
X2500001Y3184752D02*
Y3215252D01*
X2384751Y3000002D02*
X2415251D01*
X2400001Y2984752D02*
Y3015252D01*
X2484751Y2800002D02*
X2515251D01*
X2500001Y2784752D02*
Y2815251D01*
X2384751Y2200001D02*
X2415251D01*
X2400001Y2184751D02*
Y2215251D01*
X2184751Y11400006D02*
X2215251D01*
X2200001Y11384756D02*
Y11415256D01*
X2284751Y11200006D02*
X2315251D01*
X2300001Y11184756D02*
Y11215256D01*
X2284751Y10800006D02*
X2315251D01*
X2300001Y10784756D02*
Y10815256D01*
X2184751Y10600006D02*
X2215251D01*
X2200001Y10584756D02*
Y10615256D01*
X2184751Y10200006D02*
X2215251D01*
X2200001Y10184756D02*
Y10215255D01*
X2184751Y9400005D02*
X2215251D01*
X2200001Y9384755D02*
Y9415255D01*
X2284751Y9200005D02*
X2315251D01*
X2300001Y9184755D02*
Y9215255D01*
X2284751Y8800005D02*
X2315251D01*
X2300001Y8784755D02*
Y8815255D01*
X2184751Y6200003D02*
X2215251D01*
X2200001Y6184753D02*
Y6215253D01*
X2184751Y5800003D02*
X2215251D01*
X2200001Y5784753D02*
Y5815253D01*
X2284751Y5200003D02*
X2315251D01*
X2300001Y5184753D02*
Y5215253D01*
X2284751Y3600002D02*
X2315251D01*
X2300001Y3584752D02*
Y3615252D01*
X2184751Y3400002D02*
X2215251D01*
X2200001Y3384752D02*
Y3415252D01*
X2284751Y3200002D02*
X2315251D01*
X2300001Y3184752D02*
Y3215252D01*
X2184751Y3000002D02*
X2215251D01*
X2200001Y2984752D02*
Y3015252D01*
X2284751Y2800002D02*
X2315251D01*
X2300001Y2784752D02*
Y2815251D01*
X2184751Y1800001D02*
X2215251D01*
X2200001Y1784751D02*
Y1815251D01*
X1984751Y11400006D02*
X2015251D01*
X2000001Y11384756D02*
Y11415256D01*
X1984751Y11000006D02*
X2015251D01*
X2000001Y10984756D02*
Y11015256D01*
X2084751Y10800006D02*
X2115251D01*
X2100001Y10784756D02*
Y10815256D01*
X1984751Y10600006D02*
X2015251D01*
X2000001Y10584756D02*
Y10615256D01*
X2084751Y9200005D02*
X2115251D01*
X2100001Y9184755D02*
Y9215255D01*
X2084751Y8800005D02*
X2115251D01*
X2100001Y8784755D02*
Y8815255D01*
X2084751Y8400005D02*
X2115251D01*
X2100001Y8384755D02*
Y8415254D01*
X2084751Y8000004D02*
X2115251D01*
X2100001Y7984754D02*
Y8015254D01*
X2084751Y7600004D02*
X2115251D01*
X2100001Y7584754D02*
Y7615254D01*
X2084751Y6800004D02*
X2115251D01*
X2100001Y6784754D02*
Y6815254D01*
X2084751Y6000003D02*
X2115251D01*
X2100001Y5984753D02*
Y6015253D01*
X2084751Y5200003D02*
X2115251D01*
X2100001Y5184753D02*
Y5215253D01*
X2084751Y4800003D02*
X2115251D01*
X2100001Y4784753D02*
Y4815252D01*
X1984751Y3800002D02*
X2015251D01*
X2000001Y3784752D02*
Y3815252D01*
X2084751Y3600002D02*
X2115251D01*
X2100001Y3584752D02*
Y3615252D01*
X1984751Y3400002D02*
X2015251D01*
X2000001Y3384752D02*
Y3415252D01*
X2084751Y3200002D02*
X2115251D01*
X2100001Y3184752D02*
Y3215252D01*
X1984751Y3000002D02*
X2015251D01*
X2000001Y2984752D02*
Y3015252D01*
X2084751Y2800002D02*
X2115251D01*
X2100001Y2784752D02*
Y2815251D01*
X1984751Y1800001D02*
X2015251D01*
X2000001Y1784751D02*
Y1815251D01*
X2084751Y400000D02*
X2115251D01*
X2100001Y384750D02*
Y415250D01*
X1784751Y11400006D02*
X1815251D01*
X1800001Y11384756D02*
Y11415256D01*
X1884751Y10800006D02*
X1915251D01*
X1900001Y10784756D02*
Y10815256D01*
X1884751Y6800004D02*
X1915251D01*
X1900001Y6784754D02*
Y6815254D01*
X1884751Y2800002D02*
X1915251D01*
X1900001Y2784752D02*
Y2815251D01*
X1784751Y1800001D02*
X1815251D01*
X1800001Y1784751D02*
Y1815251D01*
X1784751Y1400001D02*
X1815251D01*
X1800001Y1384751D02*
Y1415251D01*
X1784751Y1000001D02*
X1815251D01*
X1800001Y984751D02*
Y1015250D01*
X1884751Y800000D02*
X1915251D01*
X1900001Y784751D02*
Y815250D01*
X1784751Y600000D02*
X1815251D01*
X1800001Y584750D02*
Y615250D01*
X1884751Y400000D02*
X1915251D01*
X1900001Y384750D02*
Y415250D01*
X1584751Y11400006D02*
X1615251D01*
X1600001Y11384756D02*
Y11415256D01*
X1684751Y11200006D02*
X1715251D01*
X1700001Y11184756D02*
Y11215256D01*
X1684751Y10800006D02*
X1715251D01*
X1700001Y10784756D02*
Y10815256D01*
X1684751Y6800004D02*
X1715251D01*
X1700001Y6784754D02*
Y6815254D01*
X1584751Y1400001D02*
X1615251D01*
X1600001Y1384751D02*
Y1415251D01*
X1684751Y1200001D02*
X1715251D01*
X1700001Y1184751D02*
Y1215251D01*
X1584751Y1000001D02*
X1615251D01*
X1600001Y984751D02*
Y1015250D01*
X1584751Y600000D02*
X1615251D01*
X1600001Y584750D02*
Y615250D01*
X1684751Y400000D02*
X1715251D01*
X1700001Y384750D02*
Y415250D01*
X1384751Y11400006D02*
X1415251D01*
X1400001Y11384756D02*
Y11415256D01*
X1484751Y11200006D02*
X1515251D01*
X1500001Y11184756D02*
Y11215256D01*
X1384751Y11000006D02*
X1415251D01*
X1400001Y10984756D02*
Y11015256D01*
X1484751Y2800002D02*
X1515251D01*
X1500001Y2784752D02*
Y2815251D01*
X1484751Y2400001D02*
X1515251D01*
X1500001Y2384751D02*
Y2415251D01*
X1384751Y2200001D02*
X1415251D01*
X1400001Y2184751D02*
Y2215251D01*
X1384751Y1800001D02*
X1415251D01*
X1400001Y1784751D02*
Y1815251D01*
X1484751Y1600001D02*
X1515251D01*
X1500001Y1584751D02*
Y1615251D01*
X1384751Y1400001D02*
X1415251D01*
X1400001Y1384751D02*
Y1415251D01*
X1484751Y1200001D02*
X1515251D01*
X1500001Y1184751D02*
Y1215251D01*
X1384751Y1000001D02*
X1415251D01*
X1400001Y984751D02*
Y1015250D01*
X1384751Y600000D02*
X1415251D01*
X1400001Y584750D02*
Y615250D01*
X1384751Y200000D02*
X1415251D01*
X1400001Y184750D02*
Y215250D01*
X1184751Y11400006D02*
X1215251D01*
X1200001Y11384756D02*
Y11415256D01*
X1284751Y11200006D02*
X1315251D01*
X1300001Y11184756D02*
Y11215256D01*
X1184751Y11000006D02*
X1215251D01*
X1200001Y10984756D02*
Y11015256D01*
X1284751Y2800002D02*
X1315251D01*
X1300001Y2784752D02*
Y2815251D01*
X1184751Y2200001D02*
X1215251D01*
X1200001Y2184751D02*
Y2215251D01*
X1284751Y1600001D02*
X1315251D01*
X1300001Y1584751D02*
Y1615251D01*
X1184751Y1400001D02*
X1215251D01*
X1200001Y1384751D02*
Y1415251D01*
X1284751Y1200001D02*
X1315251D01*
X1300001Y1184751D02*
Y1215251D01*
X1184751Y1000001D02*
X1215251D01*
X1200001Y984751D02*
Y1015250D01*
X1284751Y800000D02*
X1315251D01*
X1300001Y784751D02*
Y815250D01*
X1284751Y400000D02*
X1315251D01*
X1300001Y384750D02*
Y415250D01*
X1184751Y200000D02*
X1215251D01*
X1200001Y184750D02*
Y215250D01*
X984751Y11400006D02*
X1015250D01*
X1000001Y11384756D02*
Y11415256D01*
X1084751Y11200006D02*
X1115250D01*
X1100001Y11184756D02*
Y11215256D01*
X984751Y11000006D02*
X1015250D01*
X1000001Y10984756D02*
Y11015256D01*
X1084751Y10800006D02*
X1115250D01*
X1100001Y10784756D02*
Y10815256D01*
X1084751Y6800004D02*
X1115250D01*
X1100001Y6784754D02*
Y6815254D01*
X984751Y2200001D02*
X1015250D01*
X1000001Y2184751D02*
Y2215251D01*
X1084751Y1600001D02*
X1115250D01*
X1100001Y1584751D02*
Y1615251D01*
X984751Y1400001D02*
X1015250D01*
X1000001Y1384751D02*
Y1415251D01*
X1084751Y1200001D02*
X1115250D01*
X1100001Y1184751D02*
Y1215251D01*
X984751Y1000001D02*
X1015250D01*
X1000001Y984751D02*
Y1015250D01*
X984751Y600000D02*
X1015250D01*
X1000001Y584750D02*
Y615250D01*
X1084751Y400000D02*
X1115250D01*
X1100001Y384750D02*
Y415250D01*
X984751Y200000D02*
X1015250D01*
X1000001Y184750D02*
Y215250D01*
X784751Y11400006D02*
X815250D01*
X800000Y11384756D02*
Y11415256D01*
X884751Y11200006D02*
X915250D01*
X900000Y11184756D02*
Y11215256D01*
X884751Y10800006D02*
X915250D01*
X900000Y10784756D02*
Y10815256D01*
X884751Y6800004D02*
X915250D01*
X900000Y6784754D02*
Y6815254D01*
X884751Y2800002D02*
X915250D01*
X900000Y2784752D02*
Y2815251D01*
X884751Y2400001D02*
X915250D01*
X900000Y2384751D02*
Y2415251D01*
X884751Y2000001D02*
X915250D01*
X900000Y1984751D02*
Y2015251D01*
X884751Y1600001D02*
X915250D01*
X900000Y1584751D02*
Y1615251D01*
X884751Y1200001D02*
X915250D01*
X900000Y1184751D02*
Y1215251D01*
X884751Y800000D02*
X915250D01*
X900000Y784751D02*
Y815250D01*
X884751Y400000D02*
X915250D01*
X900000Y384750D02*
Y415250D01*
X784751Y200000D02*
X815250D01*
X800000Y184750D02*
Y215250D01*
X684750Y10800006D02*
X715250D01*
X700000Y10784756D02*
Y10815256D01*
X684750Y6800004D02*
X715250D01*
X700000Y6784754D02*
Y6815254D01*
X584750Y2600001D02*
X615250D01*
X600000Y2584751D02*
Y2615251D01*
X584750Y2200001D02*
X615250D01*
X600000Y2184751D02*
Y2215251D01*
X584750Y1800001D02*
X615250D01*
X600000Y1784751D02*
Y1815251D01*
X584750Y1400001D02*
X615250D01*
X600000Y1384751D02*
Y1415251D01*
X584750Y1000001D02*
X615250D01*
X600000Y984751D02*
Y1015250D01*
X584750Y200000D02*
X615250D01*
X600000Y184750D02*
Y215250D01*
X384750Y11400006D02*
X415250D01*
X400000Y11384756D02*
Y11415256D01*
X484750Y10800006D02*
X515250D01*
X500000Y10784756D02*
Y10815256D01*
X384750Y10600006D02*
X415250D01*
X400000Y10584756D02*
Y10615256D01*
X484750Y10400006D02*
X515250D01*
X500000Y10384756D02*
Y10415256D01*
X384750Y10200006D02*
X415250D01*
X400000Y10184756D02*
Y10215255D01*
X484750Y10000005D02*
X515250D01*
X500000Y9984755D02*
Y10015255D01*
X384750Y9800005D02*
X415250D01*
X400000Y9784755D02*
Y9815255D01*
X484750Y9600005D02*
X515250D01*
X500000Y9584755D02*
Y9615255D01*
X384750Y9400005D02*
X415250D01*
X400000Y9384755D02*
Y9415255D01*
X484750Y9200005D02*
X515250D01*
X500000Y9184755D02*
Y9215255D01*
X384750Y9000005D02*
X415250D01*
X400000Y8984755D02*
Y9015255D01*
X484750Y8800005D02*
X515250D01*
X500000Y8784755D02*
Y8815255D01*
X384750Y8600005D02*
X415250D01*
X400000Y8584755D02*
Y8615255D01*
X484750Y8400005D02*
X515250D01*
X500000Y8384755D02*
Y8415254D01*
X384750Y5800003D02*
X415250D01*
X400000Y5784753D02*
Y5815253D01*
X384750Y5400003D02*
X415250D01*
X400000Y5384753D02*
Y5415253D01*
X384750Y5000003D02*
X415250D01*
X400000Y4984753D02*
Y5015253D01*
X484750Y4800003D02*
X515250D01*
X500000Y4784753D02*
Y4815252D01*
X384750Y4600002D02*
X415250D01*
X400000Y4584753D02*
Y4615252D01*
X484750Y4400002D02*
X515250D01*
X500000Y4384752D02*
Y4415252D01*
X384750Y4200002D02*
X415250D01*
X400000Y4184752D02*
Y4215252D01*
X484750Y4000002D02*
X515250D01*
X500000Y3984752D02*
Y4015252D01*
X384750Y3800002D02*
X415250D01*
X400000Y3784752D02*
Y3815252D01*
X484750Y3600002D02*
X515250D01*
X500000Y3584752D02*
Y3615252D01*
X384750Y3400002D02*
X415250D01*
X400000Y3384752D02*
Y3415252D01*
X484750Y3200002D02*
X515250D01*
X500000Y3184752D02*
Y3215252D01*
X384750Y3000002D02*
X415250D01*
X400000Y2984752D02*
Y3015252D01*
X484750Y2800002D02*
X515250D01*
X500000Y2784752D02*
Y2815251D01*
X384750Y2600001D02*
X415250D01*
X400000Y2584751D02*
Y2615251D01*
X484750Y2400001D02*
X515250D01*
X500000Y2384751D02*
Y2415251D01*
X384750Y2200001D02*
X415250D01*
X400000Y2184751D02*
Y2215251D01*
X484750Y2000001D02*
X515250D01*
X500000Y1984751D02*
Y2015251D01*
X384750Y1800001D02*
X415250D01*
X400000Y1784751D02*
Y1815251D01*
X484750Y1600001D02*
X515250D01*
X500000Y1584751D02*
Y1615251D01*
X384750Y1400001D02*
X415250D01*
X400000Y1384751D02*
Y1415251D01*
X484750Y1200001D02*
X515250D01*
X500000Y1184751D02*
Y1215251D01*
X384750Y1000001D02*
X415250D01*
X400000Y984751D02*
Y1015250D01*
X384750Y200000D02*
X415250D01*
X400000Y184750D02*
Y215250D01*
X184750Y11400006D02*
X215250D01*
X200000Y11384756D02*
Y11415256D01*
X284750Y11200006D02*
X315250D01*
X300000Y11184756D02*
Y11215256D01*
X184750Y11000006D02*
X215250D01*
X200000Y10984756D02*
Y11015256D01*
X284750Y10800006D02*
X315250D01*
X300000Y10784756D02*
Y10815256D01*
X184750Y10600006D02*
X215250D01*
X200000Y10584756D02*
Y10615256D01*
X284750Y10400006D02*
X315250D01*
X300000Y10384756D02*
Y10415256D01*
X184750Y10200006D02*
X215250D01*
X200000Y10184756D02*
Y10215255D01*
X284750Y10000005D02*
X315250D01*
X300000Y9984755D02*
Y10015255D01*
X184750Y9800005D02*
X215250D01*
X200000Y9784755D02*
Y9815255D01*
X284750Y9600005D02*
X315250D01*
X300000Y9584755D02*
Y9615255D01*
X184750Y9400005D02*
X215250D01*
X200000Y9384755D02*
Y9415255D01*
X284750Y9200005D02*
X315250D01*
X300000Y9184755D02*
Y9215255D01*
X184750Y9000005D02*
X215250D01*
X200000Y8984755D02*
Y9015255D01*
X284750Y8800005D02*
X315250D01*
X300000Y8784755D02*
Y8815255D01*
X184750Y8600005D02*
X215250D01*
X200000Y8584755D02*
Y8615255D01*
X284750Y8400005D02*
X315250D01*
X300000Y8384755D02*
Y8415254D01*
X184750Y8200004D02*
X215250D01*
X200000Y8184755D02*
Y8215254D01*
X284750Y8000004D02*
X315250D01*
X300000Y7984754D02*
Y8015254D01*
X184750Y7800004D02*
X215250D01*
X200000Y7784754D02*
Y7815254D01*
X284750Y7600004D02*
X315250D01*
X300000Y7584754D02*
Y7615254D01*
X184750Y7400004D02*
X215250D01*
X200000Y7384754D02*
Y7415254D01*
X284750Y7200004D02*
X315250D01*
X300000Y7184754D02*
Y7215254D01*
X184750Y7000004D02*
X215250D01*
X200000Y6984754D02*
Y7015254D01*
X284750Y6800004D02*
X315250D01*
X300000Y6784754D02*
Y6815254D01*
X184750Y6600004D02*
X215250D01*
X200000Y6584754D02*
Y6615253D01*
X284750Y6400003D02*
X315250D01*
X300000Y6384754D02*
Y6415253D01*
X184750Y6200003D02*
X215250D01*
X200000Y6184753D02*
Y6215253D01*
X284750Y6000003D02*
X315250D01*
X300000Y5984753D02*
Y6015253D01*
X184750Y5800003D02*
X215250D01*
X200000Y5784753D02*
Y5815253D01*
X284750Y5600003D02*
X315250D01*
X300000Y5584753D02*
Y5615253D01*
X184750Y5400003D02*
X215250D01*
X200000Y5384753D02*
Y5415253D01*
X284750Y5200003D02*
X315250D01*
X300000Y5184753D02*
Y5215253D01*
X184750Y5000003D02*
X215250D01*
X200000Y4984753D02*
Y5015253D01*
X284750Y4800003D02*
X315250D01*
X300000Y4784753D02*
Y4815252D01*
X184750Y4600002D02*
X215250D01*
X200000Y4584753D02*
Y4615252D01*
X284750Y4400002D02*
X315250D01*
X300000Y4384752D02*
Y4415252D01*
X184750Y4200002D02*
X215250D01*
X200000Y4184752D02*
Y4215252D01*
X284750Y4000002D02*
X315250D01*
X300000Y3984752D02*
Y4015252D01*
X184750Y3800002D02*
X215250D01*
X200000Y3784752D02*
Y3815252D01*
X284750Y3600002D02*
X315250D01*
X300000Y3584752D02*
Y3615252D01*
X184750Y3400002D02*
X215250D01*
X200000Y3384752D02*
Y3415252D01*
X284750Y3200002D02*
X315250D01*
X300000Y3184752D02*
Y3215252D01*
X184750Y3000002D02*
X215250D01*
X200000Y2984752D02*
Y3015252D01*
X284750Y2800002D02*
X315250D01*
X300000Y2784752D02*
Y2815251D01*
X184750Y2600001D02*
X215250D01*
X200000Y2584751D02*
Y2615251D01*
X284750Y2400001D02*
X315250D01*
X300000Y2384751D02*
Y2415251D01*
X184750Y2200001D02*
X215250D01*
X200000Y2184751D02*
Y2215251D01*
X284750Y2000001D02*
X315250D01*
X300000Y1984751D02*
Y2015251D01*
X184750Y1800001D02*
X215250D01*
X200000Y1784751D02*
Y1815251D01*
X284750Y1600001D02*
X315250D01*
X300000Y1584751D02*
Y1615251D01*
X184750Y1400001D02*
X215250D01*
X200000Y1384751D02*
Y1415251D01*
X284750Y1200001D02*
X315250D01*
X300000Y1184751D02*
Y1215251D01*
X184750Y1000001D02*
X215250D01*
X200000Y984751D02*
Y1015250D01*
X284750Y800000D02*
X315250D01*
X300000Y784751D02*
Y815250D01*
X184750Y600000D02*
X215250D01*
X200000Y584750D02*
Y615250D01*
X284750Y400000D02*
X315250D01*
X300000Y384750D02*
Y415250D01*
X184750Y200000D02*
X215250D01*
X200000Y184750D02*
Y215250D01*
X5834750Y7560000D02*
X5865250D01*
X5850000Y7544750D02*
Y7575250D01*
X2924750Y370000D02*
X2955250D01*
X2940000Y354750D02*
Y385250D01*
X4954750Y5580000D02*
X4985250D01*
X4970000Y5564750D02*
Y5595250D01*
X5707296Y7491523D02*
X5737796D01*
X5722546Y7476273D02*
Y7506773D01*
X3369980Y4863209D02*
X3400480D01*
X3385230Y4847959D02*
Y4878459D01*
X3374750Y3940000D02*
X3405250D01*
X3390000Y3924750D02*
Y3955250D01*
X5044750Y3220000D02*
X5075250D01*
X5060000Y3204750D02*
Y3235250D01*
X3394750Y3330000D02*
X3425250D01*
X3410000Y3314750D02*
Y3345250D01*
X4840803Y7254661D02*
X4871303D01*
X4856053Y7239411D02*
Y7269911D01*
X4581100Y6830000D02*
X4611600D01*
X4596350Y6814750D02*
Y6845250D01*
X4714750Y6651011D02*
X4745250D01*
X4730000Y6635761D02*
Y6666261D01*
X4654750Y6720000D02*
X4685250D01*
X4670000Y6704750D02*
Y6735250D01*
X4345900Y6960961D02*
X4376399D01*
X4361150Y6945712D02*
Y6976211D01*
X3414450Y5830000D02*
X3485550D01*
X3450000Y5794450D02*
Y5865550D01*
X7455440Y11170401D02*
X7765440D01*
X7610440Y11015401D02*
Y11325401D01*
X7454744Y570408D02*
X7764744D01*
X7609744Y415408D02*
Y725408D01*
X4946311Y6751937D02*
X4976811D01*
X4961561Y6736687D02*
Y6767187D01*
X4934750Y1120000D02*
X4965250D01*
X4950000Y1104750D02*
Y1135250D01*
X4864750Y1010000D02*
X4895250D01*
X4880000Y994750D02*
Y1025250D01*
X4864750Y1120000D02*
X4895250D01*
X4880000Y1104750D02*
Y1135250D01*
X4934750Y1010000D02*
X4965250D01*
X4950000Y994750D02*
Y1025250D01*
X3690803Y7794661D02*
X3721303D01*
X3706053Y7779411D02*
Y7809911D01*
X3544750Y7900000D02*
X3575250D01*
X3560000Y7884750D02*
Y7915250D01*
X3400803Y7864661D02*
X3431303D01*
X3416053Y7849411D02*
Y7879911D01*
X3664750Y7410000D02*
X3695250D01*
X3680000Y7394750D02*
Y7425250D01*
X455025Y11170340D02*
X765025D01*
X610025Y11015340D02*
Y11325340D01*
X454512Y569810D02*
X764512D01*
X609512Y414810D02*
Y724810D01*
X4604450Y770000D02*
X4675550D01*
X4640000Y734450D02*
Y805550D01*
X4444450Y910000D02*
X4515550D01*
X4480000Y874450D02*
Y945550D01*
X2604450Y810000D02*
X2675550D01*
X2640000Y774450D02*
Y845549D01*
X2504450Y600000D02*
X2575550D01*
X2540000Y564450D02*
Y635550D01*
X3264750Y4080000D02*
X3295250D01*
X3280000Y4064750D02*
Y4095250D01*
X3314750Y4490000D02*
X3345250D01*
X3330000Y4474750D02*
Y4505250D01*
X3284750Y4690000D02*
X3315250D01*
X3300000Y4674750D02*
Y4705250D01*
X3254750Y3500000D02*
X3285250D01*
X3270000Y3484750D02*
Y3515250D01*
X6119188Y10051135D02*
X6149688D01*
X6134438Y10035885D02*
Y10066384D01*
X3654450Y5800000D02*
X3725550D01*
X3690000Y5764450D02*
Y5835550D01*
X4484750Y5640000D02*
X4515250D01*
X4500000Y5624750D02*
Y5655250D01*
X3804450Y5880000D02*
X3875550D01*
X3840000Y5844450D02*
Y5915550D01*
X1274450Y2610000D02*
X1345550D01*
X1310000Y2574450D02*
Y2645550D01*
X5108694Y1560577D02*
X5139194D01*
X5123944Y1545327D02*
Y1575827D01*
X5710300Y5930000D02*
X5740800D01*
X5725550Y5914750D02*
Y5945250D01*
X3084450Y2500000D02*
X3155550D01*
X3120000Y2464450D02*
Y2535550D01*
X3214450Y2400000D02*
X3285550D01*
X3250000Y2364450D02*
Y2435550D01*
X3284750Y7430000D02*
X3315250D01*
X3300000Y7414750D02*
Y7445250D01*
X5074750Y7250000D02*
X5105250D01*
X5090000Y7234750D02*
Y7265250D01*
X5997094Y7399115D02*
X6068194D01*
X6032644Y7363565D02*
Y7434665D01*
X5197296Y3741523D02*
X5227796D01*
X5212546Y3726273D02*
Y3756773D01*
X5214750Y4840000D02*
X5245250D01*
X5230000Y4824750D02*
Y4855250D01*
X3504750Y7360000D02*
X3535250D01*
X3520000Y7344750D02*
Y7375250D01*
X3384750Y1890000D02*
X3415250D01*
X3400000Y1874750D02*
Y1905250D01*
X3724750Y3240000D02*
X3755250D01*
X3740000Y3224750D02*
Y3255250D01*
X5874750Y4390000D02*
X5905250D01*
X5890000Y4374750D02*
Y4405250D01*
X5484750Y6850000D02*
X5515250D01*
X5500000Y6834750D02*
Y6865250D01*
X6174750Y4670000D02*
X6205250D01*
X6190000Y4654750D02*
Y4685250D01*
X5774750Y4310000D02*
X5805250D01*
X5790000Y4294750D02*
Y4325250D01*
X5644750Y4560000D02*
X5675250D01*
X5660000Y4544750D02*
Y4575250D01*
X5264750Y6850000D02*
X5295250D01*
X5280000Y6834750D02*
Y6865250D01*
X5864750Y3390000D02*
X5895250D01*
X5880000Y3374750D02*
Y3405250D01*
X4614750Y1840000D02*
X4645250D01*
X4630000Y1824750D02*
Y1855250D01*
X4653719Y1199469D02*
X4684219D01*
X4668969Y1184219D02*
Y1214719D01*
X4978028Y6391168D02*
X5008527D01*
X4993278Y6375918D02*
Y6406417D01*
X4364750Y6120000D02*
X4395250D01*
X4380000Y6104750D02*
Y6135250D01*
X2944750Y6050000D02*
X2975250D01*
X2960000Y6034750D02*
Y6065250D01*
X4889363Y6502168D02*
X4919863D01*
X4904613Y6486918D02*
Y6517418D01*
X3754750Y7680000D02*
X3785250D01*
X3770000Y7664750D02*
Y7695250D01*
X4694750Y7430000D02*
X4725250D01*
X4710000Y7414750D02*
Y7445250D01*
X5254750Y6730000D02*
X5285250D01*
X5270000Y6714750D02*
Y6745250D01*
X4134750Y3990000D02*
X4165250D01*
X4150000Y3974750D02*
Y4005250D01*
X4514750Y6910000D02*
X4545250D01*
X4530000Y6894750D02*
Y6925250D01*
X4124750Y4740000D02*
X4155250D01*
X4140000Y4724750D02*
Y4755250D01*
X4144750Y5730000D02*
X4175250D01*
X4160000Y5714750D02*
Y5745250D01*
X3704750Y6760000D02*
X3735250D01*
X3720000Y6744750D02*
Y6775250D01*
X2894750Y9570000D02*
X2925250D01*
X2910000Y9554750D02*
Y9585250D01*
X3700803Y7534661D02*
X3731303D01*
X3716053Y7519411D02*
Y7549911D01*
X4575659Y7380000D02*
X4606159D01*
X4590909Y7364750D02*
Y7395250D01*
X4104750Y6350000D02*
X4135250D01*
X4120000Y6334750D02*
Y6365250D01*
X2884750Y7250000D02*
X2915250D01*
X2900000Y7234750D02*
Y7265250D01*
X3754750Y6290000D02*
X3785250D01*
X3770000Y6274750D02*
Y6305250D01*
X2834750Y6310000D02*
X2865250D01*
X2850000Y6294750D02*
Y6325250D01*
X3764750Y6490000D02*
X3795250D01*
X3780000Y6474750D02*
Y6505250D01*
X2894750Y7010000D02*
X2925250D01*
X2910000Y6994750D02*
Y7025250D01*
X4264750Y6940000D02*
X4295250D01*
X4280000Y6924750D02*
Y6955250D01*
X5124750Y7040000D02*
X5155250D01*
X5140000Y7024750D02*
Y7055250D01*
X4824750Y6960000D02*
X4855250D01*
X4840000Y6944750D02*
Y6975250D01*
X4954750Y6110000D02*
X4985250D01*
X4970000Y6094750D02*
Y6125250D01*
X5034750Y5960000D02*
X5065250D01*
X5050000Y5944750D02*
Y5975250D01*
X4124750Y6150000D02*
X4155250D01*
X4140000Y6134750D02*
Y6165250D01*
X4484750Y7520000D02*
X4515250D01*
X4500000Y7504750D02*
Y7535250D01*
X4234750Y4670000D02*
X4265250D01*
X4250000Y4654750D02*
Y4685250D01*
X4284750Y5690000D02*
X4315250D01*
X4300000Y5674750D02*
Y5705250D01*
X4264750Y4010000D02*
X4295250D01*
X4280000Y3994750D02*
Y4025250D01*
X5374750Y5660000D02*
X5405250D01*
X5390000Y5644750D02*
Y5675250D01*
X4704750Y5730000D02*
X4735250D01*
X4720000Y5714750D02*
Y5745250D01*
X4714750Y7250000D02*
X4745250D01*
X4730000Y7234750D02*
Y7265250D01*
X3824750Y6720000D02*
X3855250D01*
X3840000Y6704750D02*
Y6735250D01*
X2894750Y9820000D02*
X2925250D01*
X2910000Y9804750D02*
Y9835250D01*
X3794750Y6370000D02*
X3825250D01*
X3810000Y6354750D02*
Y6385250D01*
X2874750Y6190000D02*
X2905250D01*
X2890000Y6174750D02*
Y6205250D01*
X2444450Y6030000D02*
X2515550D01*
X2480000Y5994450D02*
Y6065550D01*
X2334450Y5820000D02*
X2405550D01*
X2370000Y5784450D02*
Y5855550D01*
X2234450Y10470000D02*
X2305550D01*
X2270000Y10434450D02*
Y10505550D01*
X2424450Y4930000D02*
X2495550D01*
X2460000Y4894450D02*
Y4965550D01*
X2194450Y8340000D02*
X2265550D01*
X2230000Y8304450D02*
Y8375550D01*
%TF.MD5,9dd08b54587f14b745ca5f5cbb820501*%
M02*
