%TF.GenerationSoftware,Altium Limited,Altium Designer,25.3.3 (18)*%
G04 Layer_Color=0*
%FSLAX45Y45*%
%MOMM*%
%TF.SameCoordinates,ACD2DE35-000D-4175-8758-006393140AE5*%
%TF.FilePolarity,Positive*%
%TF.FileFunction,Plated,1,2,PTH,Drill*%
%TF.Part,Single*%
G01*
G75*
%TA.AperFunction,ComponentDrill*%
%ADD80C,1.09000*%
%ADD81C,1.30000*%
%ADD82C,1.80000*%
%ADD83C,1.02000*%
%TA.AperFunction,ViaDrill,NotFilled*%
%ADD84C,0.71120*%
%ADD85C,0.30480*%
%ADD86C,3.10000*%
D80*
X13808000Y9960000D02*
D03*
X13553999D02*
D03*
X13300000D02*
D03*
X13046001D02*
D03*
X12792000D02*
D03*
X13808000Y10214000D02*
D03*
X13553999D02*
D03*
X13300000D02*
D03*
X13046001D02*
D03*
X12792000D02*
D03*
D81*
X10693298Y6515100D02*
D03*
X10493299Y7115099D02*
D03*
Y5915101D02*
D03*
X9273301D02*
D03*
Y7115099D02*
D03*
X10505999Y10518699D02*
D03*
Y9318701D02*
D03*
X9286001D02*
D03*
X10705998Y9918700D02*
D03*
X9286001Y10518699D02*
D03*
X9273301Y5413299D02*
D03*
Y4213301D02*
D03*
X10493299D02*
D03*
Y5413299D02*
D03*
X10693298Y4813300D02*
D03*
X9286001Y8816899D02*
D03*
Y7616901D02*
D03*
X10505999D02*
D03*
Y8816899D02*
D03*
X10705998Y8216900D02*
D03*
D82*
X16361501Y6091499D02*
D03*
X15811501D02*
D03*
Y6511498D02*
D03*
Y6931503D02*
D03*
Y7351502D02*
D03*
Y7771501D02*
D03*
Y8191500D02*
D03*
Y8611499D02*
D03*
Y9031498D02*
D03*
Y9451503D02*
D03*
Y9871502D02*
D03*
Y10291501D02*
D03*
Y10711500D02*
D03*
X16361501Y6511498D02*
D03*
Y7351502D02*
D03*
Y9031498D02*
D03*
Y10711500D02*
D03*
Y10291501D02*
D03*
Y9871502D02*
D03*
Y9451503D02*
D03*
Y8611499D02*
D03*
Y8191500D02*
D03*
Y7771501D02*
D03*
Y6931503D02*
D03*
X16306799Y5131699D02*
D03*
X15756799D02*
D03*
X16306799Y4711700D02*
D03*
X15756799D02*
D03*
D83*
X12344400Y8724900D02*
D03*
X12598400D02*
D03*
X12852400D02*
D03*
D84*
X12910001Y3830000D02*
D03*
X13020000Y9290000D02*
D03*
X10160000Y6300000D02*
D03*
D85*
X12740000Y4650000D02*
D03*
Y4530000D02*
D03*
X17653000Y11176000D02*
D03*
X17525999Y10922000D02*
D03*
X17653000Y10668000D02*
D03*
X17525999Y10414000D02*
D03*
X17653000Y10160000D02*
D03*
X17525999Y9906000D02*
D03*
X17653000Y9652000D02*
D03*
X17525999Y9398000D02*
D03*
X17653000Y9144000D02*
D03*
X17525999Y8890000D02*
D03*
X17653000Y8636000D02*
D03*
X17525999Y8382000D02*
D03*
X17653000Y8128000D02*
D03*
X17525999Y7874000D02*
D03*
X17653000Y7620000D02*
D03*
X17525999Y7366000D02*
D03*
X17653000Y7112000D02*
D03*
X17525999Y6858000D02*
D03*
X17653000Y6604000D02*
D03*
X17525999Y6350000D02*
D03*
X17653000Y6096000D02*
D03*
X17525999Y5842000D02*
D03*
X17653000Y5588000D02*
D03*
X17525999Y5334000D02*
D03*
X17653000Y5080000D02*
D03*
X17525999Y4826000D02*
D03*
X17653000Y4572000D02*
D03*
X17525999Y4318000D02*
D03*
X17653000Y4064000D02*
D03*
X17399001Y11176000D02*
D03*
X17272000Y10922000D02*
D03*
X17399001Y10668000D02*
D03*
X17272000Y10414000D02*
D03*
X17399001Y10160000D02*
D03*
X17272000Y9906000D02*
D03*
X17399001Y9652000D02*
D03*
X17272000Y9398000D02*
D03*
X17399001Y9144000D02*
D03*
X17272000Y8890000D02*
D03*
X17399001Y8636000D02*
D03*
X17272000Y8382000D02*
D03*
X17399001Y8128000D02*
D03*
X17272000Y7874000D02*
D03*
X17399001Y7620000D02*
D03*
X17272000Y7366000D02*
D03*
X17399001Y7112000D02*
D03*
X17272000Y6858000D02*
D03*
X17399001Y6604000D02*
D03*
X17272000Y6350000D02*
D03*
X17399001Y6096000D02*
D03*
X17272000Y5842000D02*
D03*
X17399001Y5588000D02*
D03*
X17272000Y5334000D02*
D03*
X17399001Y5080000D02*
D03*
X17272000Y4826000D02*
D03*
X17399001Y4572000D02*
D03*
X17272000Y4318000D02*
D03*
X17399001Y4064000D02*
D03*
X17145000Y11176000D02*
D03*
X17017999Y10922000D02*
D03*
Y10414000D02*
D03*
X17145000Y10160000D02*
D03*
X17017999Y9906000D02*
D03*
X17145000Y9652000D02*
D03*
X17017999Y9398000D02*
D03*
X17145000Y9144000D02*
D03*
X17017999Y8890000D02*
D03*
X17145000Y8636000D02*
D03*
X17017999Y8382000D02*
D03*
X17145000Y8128000D02*
D03*
X17017999Y7874000D02*
D03*
X17145000Y7620000D02*
D03*
X17017999Y7366000D02*
D03*
X17145000Y7112000D02*
D03*
X17017999Y6858000D02*
D03*
X17145000Y6604000D02*
D03*
X17017999Y6350000D02*
D03*
Y5842000D02*
D03*
X17145000Y5588000D02*
D03*
X17017999Y5334000D02*
D03*
X17145000Y5080000D02*
D03*
X17017999Y4826000D02*
D03*
X17145000Y4572000D02*
D03*
X17017999Y4318000D02*
D03*
X17145000Y4064000D02*
D03*
X17017999Y3810000D02*
D03*
X16891000Y11176000D02*
D03*
Y7620000D02*
D03*
X16764000Y7366000D02*
D03*
X16891000Y7112000D02*
D03*
Y6604000D02*
D03*
Y6096000D02*
D03*
Y5588000D02*
D03*
Y5080000D02*
D03*
Y4572000D02*
D03*
Y4064000D02*
D03*
X16764000Y3810000D02*
D03*
X16891000Y3556000D02*
D03*
X16510001Y10414000D02*
D03*
Y8890000D02*
D03*
Y8382000D02*
D03*
X16637000Y3556000D02*
D03*
X16383000Y9652000D02*
D03*
X16256000Y8382000D02*
D03*
Y6350000D02*
D03*
Y5842000D02*
D03*
X16383000Y5588000D02*
D03*
X16256000Y5334000D02*
D03*
X16383000Y3556000D02*
D03*
X16128999Y10668000D02*
D03*
X16002000Y7874000D02*
D03*
X16128999Y7620000D02*
D03*
Y6096000D02*
D03*
X16002000Y5842000D02*
D03*
X16128999Y5588000D02*
D03*
X16002000Y5334000D02*
D03*
Y4826000D02*
D03*
Y3810000D02*
D03*
X15875000Y7112000D02*
D03*
X15748000Y5842000D02*
D03*
Y5334000D02*
D03*
X15875000Y4572000D02*
D03*
X15748000Y4318000D02*
D03*
X15875000Y4064000D02*
D03*
X15621001Y10668000D02*
D03*
Y8636000D02*
D03*
X15494000Y6350000D02*
D03*
Y5334000D02*
D03*
X15621001Y4572000D02*
D03*
X15494000Y4318000D02*
D03*
Y3810000D02*
D03*
X15367000Y10668000D02*
D03*
X15239999Y10414000D02*
D03*
X15367000Y10160000D02*
D03*
X15239999Y7874000D02*
D03*
X15367000Y6604000D02*
D03*
X15239999Y6350000D02*
D03*
Y5842000D02*
D03*
Y5334000D02*
D03*
X15367000Y5080000D02*
D03*
X15239999Y4826000D02*
D03*
X15367000Y4572000D02*
D03*
X15239999Y4318000D02*
D03*
Y3810000D02*
D03*
X15113000Y10668000D02*
D03*
Y10160000D02*
D03*
X14986000Y9906000D02*
D03*
X15113000Y9652000D02*
D03*
X14986000Y9398000D02*
D03*
X15113000Y8128000D02*
D03*
Y7620000D02*
D03*
X14986000Y6350000D02*
D03*
Y5334000D02*
D03*
X15113000Y5080000D02*
D03*
X14986000Y4826000D02*
D03*
Y3810000D02*
D03*
X14859000Y10160000D02*
D03*
X14732001Y9906000D02*
D03*
X14859000Y9652000D02*
D03*
X14732001Y9398000D02*
D03*
Y5842000D02*
D03*
X14859000Y5588000D02*
D03*
X14732001Y5334000D02*
D03*
X14859000Y5080000D02*
D03*
X14732001Y4826000D02*
D03*
X14859000Y4572000D02*
D03*
X14732001Y4318000D02*
D03*
Y3810000D02*
D03*
X14605000Y10668000D02*
D03*
X14478000Y10414000D02*
D03*
X14605000Y10160000D02*
D03*
X14478000Y9906000D02*
D03*
X14605000Y9652000D02*
D03*
X14478000Y9398000D02*
D03*
X14605000Y9144000D02*
D03*
X14478000Y5842000D02*
D03*
X14605000Y5588000D02*
D03*
X14478000Y5334000D02*
D03*
X14605000Y5080000D02*
D03*
Y4572000D02*
D03*
X14478000Y4318000D02*
D03*
Y3810000D02*
D03*
X14350999Y10668000D02*
D03*
X14224001Y10414000D02*
D03*
X14350999Y10160000D02*
D03*
X14224001Y9906000D02*
D03*
X14350999Y9652000D02*
D03*
X14224001Y9398000D02*
D03*
X14350999Y9144000D02*
D03*
Y5588000D02*
D03*
Y5080000D02*
D03*
X14224001Y4318000D02*
D03*
Y3810000D02*
D03*
X14097000Y10668000D02*
D03*
X13970000Y10414000D02*
D03*
X14097000Y10160000D02*
D03*
X13970000Y9906000D02*
D03*
X14097000Y9652000D02*
D03*
X13970000Y9398000D02*
D03*
X14097000Y9144000D02*
D03*
Y8636000D02*
D03*
X13970000Y6350000D02*
D03*
Y4318000D02*
D03*
Y3810000D02*
D03*
X13842999Y10668000D02*
D03*
X13716000Y10414000D02*
D03*
X13842999Y9652000D02*
D03*
Y9144000D02*
D03*
Y8636000D02*
D03*
X13716000Y5842000D02*
D03*
Y5334000D02*
D03*
Y4318000D02*
D03*
Y3810000D02*
D03*
X13589000Y10668000D02*
D03*
X13462000Y10414000D02*
D03*
X13589000Y8636000D02*
D03*
X13462000Y7366000D02*
D03*
X13589000Y6096000D02*
D03*
X13462000Y5842000D02*
D03*
Y3810000D02*
D03*
X13335001Y10668000D02*
D03*
X13208000Y10414000D02*
D03*
X13335001Y9652000D02*
D03*
X13208000Y9398000D02*
D03*
X13335001Y9144000D02*
D03*
X13208000Y6350000D02*
D03*
X13335001Y6096000D02*
D03*
X13208000Y5842000D02*
D03*
Y3810000D02*
D03*
X13081000Y10668000D02*
D03*
X12953999Y10414000D02*
D03*
X13081000Y9652000D02*
D03*
X12953999Y8890000D02*
D03*
X13081000Y7112000D02*
D03*
X12953999Y6858000D02*
D03*
X13081000Y6604000D02*
D03*
X12953999Y6350000D02*
D03*
X13081000Y6096000D02*
D03*
X12953999Y5842000D02*
D03*
Y4318000D02*
D03*
X12827000Y10668000D02*
D03*
X12700000Y10414000D02*
D03*
Y9398000D02*
D03*
Y8890000D02*
D03*
Y8382000D02*
D03*
Y6858000D02*
D03*
X12827000Y6604000D02*
D03*
X12700000Y6350000D02*
D03*
X12827000Y6096000D02*
D03*
X12700000Y4826000D02*
D03*
Y4318000D02*
D03*
X12573000Y10668000D02*
D03*
X12446000Y10414000D02*
D03*
X12573000Y10160000D02*
D03*
X12446000Y9906000D02*
D03*
Y9398000D02*
D03*
X12573000Y9144000D02*
D03*
X12446000Y8890000D02*
D03*
Y8382000D02*
D03*
X12573000Y8128000D02*
D03*
Y6604000D02*
D03*
X12446000Y6350000D02*
D03*
X12573000Y6096000D02*
D03*
X12446000Y4826000D02*
D03*
X12573000Y4572000D02*
D03*
X12446000Y4318000D02*
D03*
X12319000Y10668000D02*
D03*
X12192000Y10414000D02*
D03*
X12319000Y10160000D02*
D03*
X12192000Y9906000D02*
D03*
Y9398000D02*
D03*
X12319000Y9144000D02*
D03*
X12192000Y8890000D02*
D03*
Y8382000D02*
D03*
X12319000Y8128000D02*
D03*
X12192000Y7366000D02*
D03*
Y6858000D02*
D03*
Y6350000D02*
D03*
X12319000Y6096000D02*
D03*
X12192000Y5842000D02*
D03*
Y5334000D02*
D03*
X12319000Y5080000D02*
D03*
X12192000Y4826000D02*
D03*
X12319000Y4572000D02*
D03*
X12192000Y4318000D02*
D03*
X12065000Y10668000D02*
D03*
X11938000Y10414000D02*
D03*
X12065000Y10160000D02*
D03*
X11938000Y9906000D02*
D03*
Y9398000D02*
D03*
X12065000Y9144000D02*
D03*
X11938000Y8890000D02*
D03*
X12065000Y8636000D02*
D03*
X11938000Y8382000D02*
D03*
Y7874000D02*
D03*
X12065000Y7620000D02*
D03*
X11938000Y7366000D02*
D03*
X12065000Y7112000D02*
D03*
X11938000Y6858000D02*
D03*
X12065000Y6096000D02*
D03*
X11938000Y5842000D02*
D03*
X12065000Y4572000D02*
D03*
X11938000Y4318000D02*
D03*
X11811000Y10668000D02*
D03*
X11684000Y10414000D02*
D03*
X11811000Y10160000D02*
D03*
X11684000Y9906000D02*
D03*
Y9398000D02*
D03*
X11811000Y9144000D02*
D03*
X11684000Y8890000D02*
D03*
X11811000Y8636000D02*
D03*
X11684000Y8382000D02*
D03*
X11811000Y8128000D02*
D03*
Y7620000D02*
D03*
X11684000Y7366000D02*
D03*
X11811000Y7112000D02*
D03*
X11684000Y6858000D02*
D03*
X11811000Y6604000D02*
D03*
X11684000Y6350000D02*
D03*
Y5842000D02*
D03*
X11811000Y5588000D02*
D03*
Y5080000D02*
D03*
X11684000Y4826000D02*
D03*
X11811000Y4572000D02*
D03*
X11684000Y4318000D02*
D03*
X11557000Y10668000D02*
D03*
X11430000Y10414000D02*
D03*
X11557000Y10160000D02*
D03*
X11430000Y9906000D02*
D03*
Y9398000D02*
D03*
X11557000Y9144000D02*
D03*
X11430000Y8890000D02*
D03*
X11557000Y8636000D02*
D03*
X11430000Y8382000D02*
D03*
X11557000Y8128000D02*
D03*
Y7620000D02*
D03*
X11430000Y7366000D02*
D03*
X11557000Y7112000D02*
D03*
X11430000Y6858000D02*
D03*
X11557000Y6604000D02*
D03*
X11430000Y6350000D02*
D03*
Y5842000D02*
D03*
Y4826000D02*
D03*
Y4318000D02*
D03*
X11303000Y10668000D02*
D03*
Y10160000D02*
D03*
X11176000Y9398000D02*
D03*
X11303000Y9144000D02*
D03*
Y8636000D02*
D03*
Y8128000D02*
D03*
Y7620000D02*
D03*
X11176000Y7366000D02*
D03*
X11303000Y7112000D02*
D03*
Y6604000D02*
D03*
X11176000Y5842000D02*
D03*
X11303000Y5588000D02*
D03*
Y5080000D02*
D03*
X11176000Y4318000D02*
D03*
X11049000Y10668000D02*
D03*
X10922000Y10414000D02*
D03*
Y9906000D02*
D03*
X11049000Y9144000D02*
D03*
Y8636000D02*
D03*
X10922000Y8382000D02*
D03*
Y7874000D02*
D03*
X11049000Y7620000D02*
D03*
X10922000Y7366000D02*
D03*
Y6858000D02*
D03*
Y6350000D02*
D03*
Y5842000D02*
D03*
X11049000Y5588000D02*
D03*
X10922000Y4826000D02*
D03*
X10668000Y10922000D02*
D03*
X10795000Y9652000D02*
D03*
Y9144000D02*
D03*
Y8636000D02*
D03*
X10668000Y8382000D02*
D03*
Y7874000D02*
D03*
Y7366000D02*
D03*
Y6858000D02*
D03*
Y6350000D02*
D03*
X10795000Y6096000D02*
D03*
Y5588000D02*
D03*
Y5080000D02*
D03*
Y4572000D02*
D03*
X10668000Y4318000D02*
D03*
X10795000Y4064000D02*
D03*
X10414000Y10922000D02*
D03*
X10541000Y10668000D02*
D03*
Y10160000D02*
D03*
Y8636000D02*
D03*
Y6096000D02*
D03*
Y5080000D02*
D03*
X10414000Y4826000D02*
D03*
X10541000Y4572000D02*
D03*
Y4064000D02*
D03*
X10160000Y10922000D02*
D03*
X10287000Y10668000D02*
D03*
X10160000Y10414000D02*
D03*
Y9906000D02*
D03*
X10287000Y9144000D02*
D03*
X10160000Y8890000D02*
D03*
Y8382000D02*
D03*
Y7874000D02*
D03*
Y7366000D02*
D03*
X10287000Y7112000D02*
D03*
X10160000Y6858000D02*
D03*
Y5842000D02*
D03*
X10287000Y5588000D02*
D03*
X10160000Y5334000D02*
D03*
X10287000Y5080000D02*
D03*
X10160000Y4826000D02*
D03*
X10287000Y4572000D02*
D03*
X10160000Y4318000D02*
D03*
X9906000Y10922000D02*
D03*
X10033000Y10668000D02*
D03*
X9906000Y10414000D02*
D03*
X10033000Y10160000D02*
D03*
X9906000Y9906000D02*
D03*
X10033000Y9652000D02*
D03*
X9906000Y9398000D02*
D03*
Y8890000D02*
D03*
X10033000Y8636000D02*
D03*
X9906000Y8382000D02*
D03*
X10033000Y8128000D02*
D03*
X9906000Y7874000D02*
D03*
Y3810000D02*
D03*
X10033000Y3556000D02*
D03*
X9779000Y11176000D02*
D03*
Y10668000D02*
D03*
X9652000Y10414000D02*
D03*
X9779000Y10160000D02*
D03*
X9652000Y9906000D02*
D03*
X9779000Y9652000D02*
D03*
X9652000Y9398000D02*
D03*
X9779000Y9144000D02*
D03*
Y8636000D02*
D03*
X9652000Y8382000D02*
D03*
X9779000Y8128000D02*
D03*
X9652000Y7874000D02*
D03*
X9779000Y7620000D02*
D03*
X9652000Y7366000D02*
D03*
X9779000Y7112000D02*
D03*
X9652000Y6858000D02*
D03*
X9779000Y6604000D02*
D03*
X9652000Y6350000D02*
D03*
X9779000Y6096000D02*
D03*
Y5588000D02*
D03*
X9652000Y5334000D02*
D03*
X9779000Y5080000D02*
D03*
X9652000Y4826000D02*
D03*
X9779000Y4572000D02*
D03*
Y3556000D02*
D03*
X9525000Y11176000D02*
D03*
X9398000Y10922000D02*
D03*
X9525000Y10160000D02*
D03*
X9398000Y9906000D02*
D03*
X9525000Y9652000D02*
D03*
Y9144000D02*
D03*
Y8636000D02*
D03*
X9398000Y8382000D02*
D03*
X9525000Y8128000D02*
D03*
X9398000Y7874000D02*
D03*
X9525000Y7620000D02*
D03*
X9398000Y7366000D02*
D03*
X9525000Y7112000D02*
D03*
X9398000Y6858000D02*
D03*
X9525000Y6604000D02*
D03*
X9398000Y6350000D02*
D03*
X9525000Y6096000D02*
D03*
Y5080000D02*
D03*
X9398000Y4826000D02*
D03*
Y4318000D02*
D03*
Y3810000D02*
D03*
X9525000Y3556000D02*
D03*
X9271000Y11176000D02*
D03*
X9144000Y10922000D02*
D03*
X9271000Y10160000D02*
D03*
X9144000Y9906000D02*
D03*
X9271000Y9652000D02*
D03*
X9144000Y9398000D02*
D03*
X9271000Y9144000D02*
D03*
Y8636000D02*
D03*
X9144000Y8382000D02*
D03*
X9271000Y8128000D02*
D03*
X9144000Y7874000D02*
D03*
Y7366000D02*
D03*
Y6858000D02*
D03*
X9271000Y6604000D02*
D03*
X9144000Y6350000D02*
D03*
X9271000Y6096000D02*
D03*
Y5588000D02*
D03*
Y5080000D02*
D03*
X9144000Y4318000D02*
D03*
Y3810000D02*
D03*
X9271000Y3556000D02*
D03*
X9017000Y10668000D02*
D03*
X8890000Y10414000D02*
D03*
X9017000Y10160000D02*
D03*
X8890000Y9906000D02*
D03*
X9017000Y9652000D02*
D03*
X8890000Y9398000D02*
D03*
X9017000Y9144000D02*
D03*
X8890000Y8890000D02*
D03*
X9017000Y8636000D02*
D03*
X8890000Y8382000D02*
D03*
X9017000Y8128000D02*
D03*
X8890000Y7874000D02*
D03*
X9017000Y7620000D02*
D03*
X8890000Y7366000D02*
D03*
X9017000Y7112000D02*
D03*
Y6604000D02*
D03*
Y6096000D02*
D03*
X8890000Y4826000D02*
D03*
X9017000Y4572000D02*
D03*
X8890000Y4318000D02*
D03*
X9017000Y4064000D02*
D03*
X8763000Y10668000D02*
D03*
X8636000Y10414000D02*
D03*
X8763000Y10160000D02*
D03*
X8636000Y9906000D02*
D03*
X8763000Y9652000D02*
D03*
X8636000Y9398000D02*
D03*
X8763000Y9144000D02*
D03*
X8636000Y8890000D02*
D03*
X8763000Y8636000D02*
D03*
X8636000Y8382000D02*
D03*
X8763000Y8128000D02*
D03*
X8636000Y7874000D02*
D03*
X8763000Y7620000D02*
D03*
X8636000Y7366000D02*
D03*
X8763000Y7112000D02*
D03*
X8636000Y6858000D02*
D03*
X8763000Y6604000D02*
D03*
X8636000Y6350000D02*
D03*
X8763000Y6096000D02*
D03*
X8636000Y5842000D02*
D03*
X8763000Y5588000D02*
D03*
X8636000Y5334000D02*
D03*
X8763000Y5080000D02*
D03*
X8636000Y4826000D02*
D03*
X8763000Y4572000D02*
D03*
X8636000Y4318000D02*
D03*
X8763000Y4064000D02*
D03*
X14310001Y5180000D02*
D03*
X12810001Y4740000D02*
D03*
X14200000Y5920000D02*
D03*
X14120000D02*
D03*
X14280000Y5850000D02*
D03*
Y5750000D02*
D03*
X13300000Y5330000D02*
D03*
X13389999D02*
D03*
X14211301Y5359400D02*
D03*
X14135100D02*
D03*
X14312900Y5270500D02*
D03*
X13480000Y5330000D02*
D03*
X14276869Y5653569D02*
D03*
X14280000Y5550000D02*
D03*
X14089999Y7910000D02*
D03*
X13470000Y8000000D02*
D03*
X12630000Y8250000D02*
D03*
X13389999Y8190000D02*
D03*
X13448077Y8243904D02*
D03*
X13251180Y8220000D02*
D03*
X13539999Y6480000D02*
D03*
Y7050000D02*
D03*
X13320000Y7880000D02*
D03*
X13780000Y8150000D02*
D03*
X13700000Y7410000D02*
D03*
X14500000Y7330000D02*
D03*
X13370000Y7480000D02*
D03*
X14430000Y8560000D02*
D03*
X14339389Y8669825D02*
D03*
X14249400Y8382000D02*
D03*
Y8270240D02*
D03*
X14516100Y8382000D02*
D03*
X13539999Y7730000D02*
D03*
X14605000Y8280400D02*
D03*
X15030000Y6580000D02*
D03*
X14510001Y7190000D02*
D03*
X15130000Y6090000D02*
D03*
X14389999Y7000000D02*
D03*
X15020000Y7350000D02*
D03*
X16160001Y8800000D02*
D03*
X15589999Y7130000D02*
D03*
X11580000Y6130000D02*
D03*
X11510000Y4500000D02*
D03*
X13460001Y6980000D02*
D03*
X13770000D02*
D03*
X13189999Y6670000D02*
D03*
X13310001Y6860000D02*
D03*
X14109700Y7099300D02*
D03*
X13944600D02*
D03*
X14020799D02*
D03*
X13385800Y6921500D02*
D03*
X14693900Y8343900D02*
D03*
X14782800Y8432800D02*
D03*
Y8280400D02*
D03*
X14414500Y7556500D02*
D03*
X14452600Y7480300D02*
D03*
X14376401Y7632700D02*
D03*
X13423900Y4216400D02*
D03*
X13347701D02*
D03*
X13258800Y4318000D02*
D03*
X13260001Y4400000D02*
D03*
X12810001Y4830000D02*
D03*
X13182600Y8318500D02*
D03*
X13580000Y5330000D02*
D03*
X13398500Y5168900D02*
D03*
X13309599D02*
D03*
D86*
X17400000Y3650000D02*
D03*
X8800000D02*
D03*
Y11050000D02*
D03*
X14900000Y10450000D02*
D03*
%TF.MD5,491a984c27c592353c93abd76b734d08*%
M02*
