%TF.GenerationSoftware,Altium Limited,Altium Designer,25.3.3 (18)*%
G04 Layer_Color=16711935*
%FSLAX45Y45*%
%MOMM*%
%TF.SameCoordinates,ACD2DE35-000D-4175-8758-006393140AE5*%
%TF.FilePolarity,Positive*%
%TF.FileFunction,Other,Top_Component_Center*%
%TF.Part,Single*%
G01*
G75*
%TA.AperFunction,NonConductor*%
%ADD58C,0.10000*%
D58*
X12970000Y4550000D02*
Y4650000D01*
X12920000Y4600000D02*
X13020000D01*
X13530000Y5500003D02*
Y5600003D01*
X13480003Y5550000D02*
X13580003D01*
X13700000D02*
X13800000D01*
X13750000Y5500000D02*
Y5600000D01*
X13350000Y5500003D02*
Y5600003D01*
X13300003Y5550000D02*
X13400002D01*
X14010416Y5792212D02*
X14110416D01*
X14060416Y5742213D02*
Y5842212D01*
X13474699Y4915703D02*
Y5015702D01*
X13424702Y4965700D02*
X13524702D01*
X14060001Y5560000D02*
Y5660000D01*
X14010001Y5610000D02*
X14110001D01*
X11176803Y7924800D02*
X11276802D01*
X11226800Y7874803D02*
Y7974802D01*
X14719299Y7493803D02*
Y7593802D01*
X14669302Y7543800D02*
X14769302D01*
X15060001Y7040000D02*
X15160001D01*
X15110001Y6990000D02*
Y7090000D01*
X14820000Y7041539D02*
X14920000D01*
X14870000Y6991539D02*
Y7091539D01*
X15410001Y6010000D02*
X15510001D01*
X15460001Y5960000D02*
Y6060000D01*
X14656602Y6324600D02*
X14756602D01*
X14706599Y6274603D02*
Y6374602D01*
X14270000Y6330000D02*
X14370000D01*
X14320000Y6280000D02*
Y6380000D01*
X9893300Y6465103D02*
Y6565102D01*
X9843303Y6515100D02*
X9943302D01*
X9906000Y9868703D02*
Y9968702D01*
X9856003Y9918700D02*
X9956002D01*
X11226800Y4471203D02*
Y4571202D01*
X11176803Y4521200D02*
X11276802D01*
X11226800Y6173003D02*
Y6273002D01*
X11176803Y6223000D02*
X11276802D01*
X9843303Y4813300D02*
X9943302D01*
X9893300Y4763303D02*
Y4863302D01*
X9856003Y8216900D02*
X9956002D01*
X9906000Y8166903D02*
Y8266902D01*
X11075203Y5232400D02*
X11175202D01*
X11125200Y5182403D02*
Y5282402D01*
X11075203Y6934200D02*
X11175202D01*
X11125200Y6884203D02*
Y6984202D01*
X11075203Y8636000D02*
X11175202D01*
X11125200Y8586003D02*
Y8686002D01*
X11075203Y10337800D02*
X11175202D01*
X11125200Y10287803D02*
Y10387802D01*
X14706599Y6528603D02*
Y6628602D01*
X14656602Y6578600D02*
X14756602D01*
X14270003Y6680000D02*
X14370003D01*
X14320000Y6630003D02*
Y6730003D01*
X12535703Y7581900D02*
X12635702D01*
X12585700Y7531903D02*
Y7631902D01*
X14643100Y7183603D02*
Y7283602D01*
X14593103Y7233600D02*
X14693102D01*
X14123203Y4724400D02*
X14223203D01*
X14173199Y4674403D02*
Y4774402D01*
X17066798Y4871700D02*
Y4971699D01*
X17016801Y4921702D02*
X17116801D01*
X14173199Y5093503D02*
Y5193502D01*
X14123203Y5143500D02*
X14223203D01*
X13919200Y5093503D02*
Y5193502D01*
X13869203Y5143500D02*
X13969202D01*
X14719299Y7735103D02*
Y7835102D01*
X14669302Y7785100D02*
X14769302D01*
X12471400Y7112803D02*
Y7212802D01*
X12421403Y7162800D02*
X12521402D01*
X12205503Y7683500D02*
X12305502D01*
X12255500Y7633503D02*
Y7733502D01*
X12960004Y4780000D02*
X13060002D01*
X13010001Y4730003D02*
Y4830003D01*
X13424702Y4597400D02*
X13524702D01*
X13474699Y4547403D02*
Y4647402D01*
X12815103Y8128000D02*
X12915102D01*
X12865100Y8078003D02*
Y8178002D01*
X13424702Y4343400D02*
X13524702D01*
X13474699Y4293403D02*
Y4393402D01*
X13919200Y4674403D02*
Y4774402D01*
X13869203Y4724400D02*
X13969202D01*
X14427200Y4674403D02*
Y4774402D01*
X14377203Y4724400D02*
X14477202D01*
%TF.MD5,8d04b55bf761bdd8d82d67b5d14296fc*%
M02*
