%TF.GenerationSoftware,Altium Limited,Altium Designer,25.3.3 (18)*%
G04 Layer_Color=8421504*
%FSLAX45Y45*%
%MOMM*%
%TF.SameCoordinates,ACD2DE35-000D-4175-8758-006393140AE5*%
%TF.FilePolarity,Positive*%
%TF.FileFunction,Paste,Top*%
%TF.Part,Single*%
G01*
G75*
%TA.AperFunction,SMDPad,CuDef*%
%ADD10R,3.90000X2.40000*%
%ADD11R,3.35000X1.85000*%
%ADD12R,1.15443X1.70620*%
%ADD13R,1.85000X3.35000*%
%ADD14R,2.40000X3.90000*%
%ADD15R,1.01213X1.15814*%
%ADD16R,1.05822X1.30606*%
%ADD17R,1.15814X1.01213*%
G04:AMPARAMS|DCode=18|XSize=1.55439mm|YSize=0.57213mm|CornerRadius=0.28606mm|HoleSize=0mm|Usage=FLASHONLY|Rotation=0.000|XOffset=0mm|YOffset=0mm|HoleType=Round|Shape=RoundedRectangle|*
%AMROUNDEDRECTD18*
21,1,1.55439,0.00000,0,0,0.0*
21,1,0.98226,0.57213,0,0,0.0*
1,1,0.57213,0.49113,0.00000*
1,1,0.57213,-0.49113,0.00000*
1,1,0.57213,-0.49113,0.00000*
1,1,0.57213,0.49113,0.00000*
%
%ADD18ROUNDEDRECTD18*%
%ADD19R,1.55439X0.57213*%
%ADD20R,0.50800X1.47320*%
%ADD21R,1.47320X0.50800*%
%ADD22R,0.90000X0.80000*%
%ADD23R,1.06213X1.13504*%
%ADD24R,1.13504X1.06213*%
%ADD25R,0.80000X0.90000*%
G04:AMPARAMS|DCode=26|XSize=1.55748mm|YSize=0.74248mm|CornerRadius=0.37124mm|HoleSize=0mm|Usage=FLASHONLY|Rotation=270.000|XOffset=0mm|YOffset=0mm|HoleType=Round|Shape=RoundedRectangle|*
%AMROUNDEDRECTD26*
21,1,1.55748,0.00000,0,0,270.0*
21,1,0.81501,0.74248,0,0,270.0*
1,1,0.74247,0.00000,-0.40750*
1,1,0.74247,0.00000,0.40750*
1,1,0.74247,0.00000,0.40750*
1,1,0.74247,0.00000,-0.40750*
%
%ADD26ROUNDEDRECTD26*%
%ADD27R,0.74248X1.55748*%
%ADD28R,1.40000X1.60000*%
%ADD29R,1.10620X1.35523*%
%ADD30R,2.20000X1.60000*%
D10*
X12555000Y4120000D02*
D03*
D11*
X13145000D02*
D03*
D12*
X12842410Y4600000D02*
D03*
X13097588D02*
D03*
D13*
X11980000Y5505000D02*
D03*
D14*
Y4915000D02*
D03*
D15*
X13530000Y5632697D02*
D03*
Y5467303D02*
D03*
X13350000Y5632697D02*
D03*
Y5467303D02*
D03*
X13919200Y5060803D02*
D03*
Y5226197D02*
D03*
X12255500Y7766197D02*
D03*
Y7600803D02*
D03*
X13919200Y4641703D02*
D03*
Y4807097D02*
D03*
D16*
X13750000Y5472392D02*
D03*
Y5627608D02*
D03*
D17*
X13977718Y5792212D02*
D03*
X14143115D02*
D03*
X14142699Y5610000D02*
D03*
X13977301D02*
D03*
X14801997Y7543800D02*
D03*
X14636603D02*
D03*
X14801997Y7785100D02*
D03*
X14636603D02*
D03*
X12554097Y7162800D02*
D03*
X12388703D02*
D03*
X13092697Y4780000D02*
D03*
X12927303D02*
D03*
D18*
X13584727Y5060701D02*
D03*
Y4965700D02*
D03*
Y4870699D02*
D03*
X13364671D02*
D03*
Y4965700D02*
D03*
D19*
Y5060701D02*
D03*
D20*
X13863319Y8371840D02*
D03*
X13942059D02*
D03*
X13304520D02*
D03*
X13383260D02*
D03*
X13464540D02*
D03*
X13543280D02*
D03*
X13624561D02*
D03*
X13703300D02*
D03*
X13782040D02*
D03*
X14023340D02*
D03*
X14102080D02*
D03*
Y7223760D02*
D03*
X14023340D02*
D03*
X13942059D02*
D03*
X13863319D02*
D03*
X13782040D02*
D03*
X13703300D02*
D03*
X13624561D02*
D03*
X13543280D02*
D03*
X13464540D02*
D03*
X13383260D02*
D03*
X13304520D02*
D03*
D21*
X13129260Y7399020D02*
D03*
X14277341Y8196580D02*
D03*
Y8117840D02*
D03*
Y8036560D02*
D03*
Y7957820D02*
D03*
Y7876540D02*
D03*
Y7797800D02*
D03*
Y7719060D02*
D03*
Y7637780D02*
D03*
Y7559040D02*
D03*
Y7477760D02*
D03*
Y7399020D02*
D03*
X13129260Y7477760D02*
D03*
Y7559040D02*
D03*
Y7637780D02*
D03*
Y7719060D02*
D03*
Y7797800D02*
D03*
Y7876540D02*
D03*
Y7957820D02*
D03*
Y8036560D02*
D03*
Y8117840D02*
D03*
Y8196580D02*
D03*
D22*
X11326800Y7829799D02*
D03*
Y8019801D02*
D03*
X11126800Y7924800D02*
D03*
Y4521200D02*
D03*
X11326800Y4616201D02*
D03*
Y4426199D02*
D03*
X11126800Y6223000D02*
D03*
X11326800Y6318001D02*
D03*
Y6127999D02*
D03*
X14420000Y6584999D02*
D03*
Y6775001D02*
D03*
X14220000Y6680000D02*
D03*
D23*
X15110001Y6958461D02*
D03*
Y7121539D02*
D03*
X14870000Y6960000D02*
D03*
Y7123079D02*
D03*
X15460001Y5928461D02*
D03*
Y6091539D02*
D03*
X14173199Y4805939D02*
D03*
Y4642861D02*
D03*
Y5061961D02*
D03*
Y5225039D02*
D03*
X12865100Y8209539D02*
D03*
Y8046461D02*
D03*
X14427200Y4805939D02*
D03*
Y4642861D02*
D03*
D24*
X14625061Y6324600D02*
D03*
X14788139D02*
D03*
X14625061Y6578600D02*
D03*
X14788139D02*
D03*
X13393161Y4597400D02*
D03*
X13556239D02*
D03*
Y4343400D02*
D03*
X13393161D02*
D03*
D25*
X14320000Y6230000D02*
D03*
X14225000Y6430000D02*
D03*
X14414999D02*
D03*
D26*
X11125200Y5062362D02*
D03*
Y6764162D02*
D03*
Y8465962D02*
D03*
Y10167762D02*
D03*
D27*
Y5402438D02*
D03*
Y7104238D02*
D03*
Y8806038D02*
D03*
Y10507838D02*
D03*
D28*
X12470699Y7391898D02*
D03*
Y7771902D02*
D03*
X12700701D02*
D03*
Y7391898D02*
D03*
D29*
X14643100Y7311146D02*
D03*
Y7156054D02*
D03*
D30*
X12801601Y5666699D02*
D03*
Y5026701D02*
D03*
%TF.MD5,406e52b7a5ca454b866720b03619fcba*%
M02*
