%TF.GenerationSoftware,Altium Limited,Altium Designer,25.3.3 (18)*%
G04 Layer_Physical_Order=2*
G04 Layer_Color=16711680*
%FSLAX45Y45*%
%MOMM*%
%TF.SameCoordinates,ACD2DE35-000D-4175-8758-006393140AE5*%
%TF.FilePolarity,Positive*%
%TF.FileFunction,Copper,L2,Bot,Signal*%
%TF.Part,Single*%
G01*
G75*
%TA.AperFunction,SMDPad,CuDef*%
%ADD15R,1.01213X1.15814*%
%ADD17R,1.15814X1.01213*%
%TA.AperFunction,Conductor*%
%ADD31C,0.76200*%
%ADD32C,0.38100*%
%ADD33C,0.25400*%
%ADD35C,0.55400*%
%TA.AperFunction,ComponentPad*%
%ADD37C,1.60000*%
%ADD38R,1.60000X1.60000*%
%ADD39C,2.00000*%
%ADD40R,2.00000X2.00000*%
%ADD41C,2.70000*%
G04:AMPARAMS|DCode=42|XSize=2.7mm|YSize=2.7mm|CornerRadius=0.675mm|HoleSize=0mm|Usage=FLASHONLY|Rotation=90.000|XOffset=0mm|YOffset=0mm|HoleType=Round|Shape=RoundedRectangle|*
%AMROUNDEDRECTD42*
21,1,2.70000,1.35000,0,0,90.0*
21,1,1.35000,2.70000,0,0,90.0*
1,1,1.35000,0.67500,0.67500*
1,1,1.35000,0.67500,-0.67500*
1,1,1.35000,-0.67500,-0.67500*
1,1,1.35000,-0.67500,0.67500*
%
%ADD42ROUNDEDRECTD42*%
%ADD43C,3.00000*%
%ADD44R,1.55000X1.55000*%
%ADD45C,1.55000*%
%ADD46R,2.75000X2.75000*%
%ADD47C,2.75000*%
%TA.AperFunction,ViaPad*%
%ADD48C,1.27000*%
%ADD49C,0.45720*%
%ADD50C,0.50000*%
%ADD51C,5.00000*%
G36*
X17792700Y3250000D02*
X8400000D01*
Y11450000D01*
X17792700D01*
Y3250000D01*
D02*
G37*
%LPC*%
G36*
X16586200Y11240744D02*
X9943302D01*
X9918526Y11235816D01*
X9897521Y11221781D01*
X9319839Y10644099D01*
X9160601D01*
Y10393299D01*
X9411401D01*
Y10552537D01*
X9970120Y11111256D01*
X16559383D01*
X16617848Y11052790D01*
X16611372Y11044898D01*
X16591739Y11058016D01*
X16566963Y11062944D01*
X10909300D01*
X10884524Y11058016D01*
X10863519Y11043981D01*
X10660217Y10840679D01*
X10646183Y10819675D01*
X10641254Y10794898D01*
Y10535943D01*
X10631399Y10535208D01*
X10622853Y10567101D01*
X10606344Y10595696D01*
X10582996Y10619044D01*
X10554401Y10635553D01*
X10522508Y10644099D01*
X10489490D01*
X10457596Y10635553D01*
X10429001Y10619044D01*
X10405654Y10595696D01*
X10389145Y10567101D01*
X10380599Y10535208D01*
Y10502190D01*
X10389145Y10470296D01*
X10405654Y10441701D01*
X10429001Y10418354D01*
X10457596Y10401845D01*
X10489490Y10393299D01*
X10522508D01*
X10554401Y10401845D01*
X10582996Y10418354D01*
X10606344Y10441701D01*
X10622853Y10470296D01*
X10631399Y10502189D01*
X10641254Y10501454D01*
Y10026119D01*
X10629001Y10019045D01*
X10605653Y9995697D01*
X10589144Y9967102D01*
X10580598Y9935209D01*
Y9902191D01*
X10584261Y9888524D01*
X9577379Y8881643D01*
X9411401D01*
Y8942299D01*
X9160601D01*
Y8691499D01*
X9411401D01*
Y8752155D01*
X9604197D01*
X9628974Y8757083D01*
X9649978Y8771118D01*
X10675822Y9796962D01*
X10689489Y9793300D01*
X10722508D01*
X10754401Y9801846D01*
X10782996Y9818355D01*
X10806343Y9841703D01*
X10822853Y9870298D01*
X10831398Y9902191D01*
Y9935209D01*
X10822853Y9967102D01*
X10806343Y9995697D01*
X10782996Y10019045D01*
X10770742Y10026119D01*
Y10768081D01*
X10936118Y10933456D01*
X16540144D01*
X16572256Y10901345D01*
Y8073817D01*
X16419522Y7921084D01*
X16408289Y7925737D01*
X16377299Y7931901D01*
X16345703D01*
X16314714Y7925737D01*
X16285522Y7913646D01*
X16259251Y7896092D01*
X16236911Y7873750D01*
X16219357Y7847479D01*
X16207266Y7818288D01*
X16201102Y7787299D01*
Y7755703D01*
X16207266Y7724714D01*
X16219357Y7695523D01*
X16236911Y7669252D01*
X16259251Y7646910D01*
X16285522Y7629356D01*
X16314714Y7617265D01*
X16345703Y7611101D01*
X16377299D01*
X16408289Y7617265D01*
X16437479Y7629356D01*
X16463751Y7646910D01*
X16486092Y7669252D01*
X16503645Y7695523D01*
X16515736Y7724714D01*
X16521901Y7755703D01*
Y7787299D01*
X16515736Y7818288D01*
X16511084Y7829522D01*
X16682780Y8001218D01*
X16696815Y8022223D01*
X16701744Y8046999D01*
Y10928163D01*
X16696815Y10952939D01*
X16683698Y10972572D01*
X16691589Y10979048D01*
X16737357Y10933282D01*
Y7818918D01*
X16419522Y7501085D01*
X16408289Y7505738D01*
X16377299Y7511902D01*
X16345703D01*
X16314714Y7505738D01*
X16285522Y7493646D01*
X16259251Y7476092D01*
X16236911Y7453751D01*
X16219357Y7427480D01*
X16207266Y7398289D01*
X16201102Y7367300D01*
Y7335704D01*
X16207266Y7304715D01*
X16219357Y7275524D01*
X16236911Y7249252D01*
X16259251Y7226911D01*
X16285522Y7209357D01*
X16314714Y7197266D01*
X16345703Y7191102D01*
X16377299D01*
X16408289Y7197266D01*
X16437479Y7209357D01*
X16463751Y7226911D01*
X16486092Y7249252D01*
X16503645Y7275524D01*
X16515736Y7304715D01*
X16521901Y7335704D01*
Y7367300D01*
X16515736Y7398289D01*
X16511084Y7409523D01*
X16847881Y7746319D01*
X16861916Y7767324D01*
X16866844Y7792100D01*
Y10960100D01*
X16861916Y10984876D01*
X16847881Y11005881D01*
X16631981Y11221781D01*
X16610976Y11235816D01*
X16586200Y11240744D01*
D02*
G37*
G36*
X15827298Y10871900D02*
X15795702D01*
X15764713Y10865736D01*
X15735522Y10853645D01*
X15709251Y10836091D01*
X15686909Y10813749D01*
X15669354Y10787478D01*
X15657265Y10758287D01*
X15651100Y10727298D01*
Y10695702D01*
X15657265Y10664713D01*
X15669354Y10635522D01*
X15686909Y10609251D01*
X15709251Y10586909D01*
X15735522Y10569355D01*
X15764713Y10557264D01*
X15795702Y10551100D01*
X15827298D01*
X15858287Y10557264D01*
X15887479Y10569355D01*
X15913750Y10586909D01*
X15936092Y10609251D01*
X15953645Y10635522D01*
X15965736Y10664713D01*
X15971899Y10695702D01*
Y10727298D01*
X15965736Y10758287D01*
X15953645Y10787478D01*
X15936092Y10813749D01*
X15913750Y10836091D01*
X15887479Y10853645D01*
X15858287Y10865736D01*
X15827298Y10871900D01*
D02*
G37*
G36*
X16429001Y10872702D02*
X16294000D01*
X16269749Y10869509D01*
X16247151Y10860148D01*
X16227744Y10845257D01*
X16212854Y10825851D01*
X16203493Y10803252D01*
X16200301Y10779000D01*
Y10644000D01*
X16203493Y10619748D01*
X16212854Y10597149D01*
X16227744Y10577743D01*
X16247151Y10562852D01*
X16269749Y10553491D01*
X16294000Y10550298D01*
X16429001D01*
X16453253Y10553491D01*
X16475851Y10562852D01*
X16495259Y10577743D01*
X16510149Y10597149D01*
X16519510Y10619748D01*
X16522704Y10644000D01*
Y10779000D01*
X16519510Y10803252D01*
X16510149Y10825851D01*
X16495259Y10845257D01*
X16475851Y10860148D01*
X16453253Y10869509D01*
X16429001Y10872702D01*
D02*
G37*
G36*
X17108778Y10886900D02*
X17074226D01*
X17040340Y10880159D01*
X17008420Y10866937D01*
X16979692Y10847742D01*
X16955260Y10823311D01*
X16936066Y10794583D01*
X16922842Y10762662D01*
X16916103Y10728775D01*
Y10694225D01*
X16922842Y10660338D01*
X16936066Y10628417D01*
X16955260Y10599689D01*
X16979692Y10575258D01*
X17008420Y10556063D01*
X17040340Y10542841D01*
X17074226Y10536100D01*
X17108778D01*
X17142665Y10542841D01*
X17174585Y10556063D01*
X17203313Y10575258D01*
X17227745Y10599689D01*
X17246941Y10628417D01*
X17260162Y10660338D01*
X17266902Y10694225D01*
Y10728775D01*
X17260162Y10762662D01*
X17246941Y10794583D01*
X17227745Y10823311D01*
X17203313Y10847742D01*
X17174585Y10866937D01*
X17142665Y10880159D01*
X17108778Y10886900D01*
D02*
G37*
G36*
X16377299Y10451901D02*
X16345703D01*
X16314714Y10445737D01*
X16285522Y10433646D01*
X16259251Y10416092D01*
X16236911Y10393750D01*
X16219357Y10367479D01*
X16207266Y10338288D01*
X16201102Y10307299D01*
Y10275703D01*
X16207266Y10244714D01*
X16219357Y10215523D01*
X16236911Y10189252D01*
X16259251Y10166910D01*
X16285522Y10149356D01*
X16314714Y10137265D01*
X16345703Y10131101D01*
X16377299D01*
X16408289Y10137265D01*
X16437479Y10149356D01*
X16463751Y10166910D01*
X16486092Y10189252D01*
X16503645Y10215523D01*
X16515736Y10244714D01*
X16521901Y10275703D01*
Y10307299D01*
X16515736Y10338288D01*
X16503645Y10367479D01*
X16486092Y10393750D01*
X16463751Y10416092D01*
X16437479Y10433646D01*
X16408289Y10445737D01*
X16377299Y10451901D01*
D02*
G37*
G36*
X15827298D02*
X15795702D01*
X15764713Y10445737D01*
X15735522Y10433646D01*
X15709251Y10416092D01*
X15686909Y10393750D01*
X15669354Y10367479D01*
X15657265Y10338288D01*
X15651100Y10307299D01*
Y10275703D01*
X15657265Y10244714D01*
X15669354Y10215523D01*
X15686909Y10189252D01*
X15709251Y10166910D01*
X15735522Y10149356D01*
X15764713Y10137265D01*
X15795702Y10131101D01*
X15827298D01*
X15858287Y10137265D01*
X15887479Y10149356D01*
X15913750Y10166910D01*
X15936092Y10189252D01*
X15953645Y10215523D01*
X15965736Y10244714D01*
X15971899Y10275703D01*
Y10307299D01*
X15965736Y10338288D01*
X15953645Y10367479D01*
X15936092Y10393750D01*
X15913750Y10416092D01*
X15887479Y10433646D01*
X15858287Y10445737D01*
X15827298Y10451901D01*
D02*
G37*
G36*
X13313876Y10319400D02*
X13286124D01*
X13259317Y10312217D01*
X13235283Y10298341D01*
X13215659Y10278717D01*
X13201784Y10254683D01*
X13194600Y10227876D01*
Y10200124D01*
X13201784Y10173317D01*
X13215659Y10149283D01*
X13235283Y10129659D01*
X13259317Y10115783D01*
X13286124Y10108600D01*
X13313876D01*
X13340683Y10115783D01*
X13364717Y10129659D01*
X13384341Y10149283D01*
X13398216Y10173317D01*
X13405400Y10200124D01*
Y10227876D01*
X13398216Y10254683D01*
X13384341Y10278717D01*
X13364717Y10298341D01*
X13340683Y10312217D01*
X13313876Y10319400D01*
D02*
G37*
G36*
X13059875D02*
X13032124D01*
X13005318Y10312217D01*
X12981284Y10298341D01*
X12961659Y10278717D01*
X12947783Y10254683D01*
X12940601Y10227876D01*
Y10200124D01*
X12947783Y10173317D01*
X12961659Y10149283D01*
X12981284Y10129659D01*
X13005318Y10115783D01*
X13032124Y10108600D01*
X13059875D01*
X13086684Y10115783D01*
X13110716Y10129659D01*
X13130341Y10149283D01*
X13144217Y10173317D01*
X13151401Y10200124D01*
Y10227876D01*
X13144217Y10254683D01*
X13130341Y10278717D01*
X13110716Y10298341D01*
X13086684Y10312217D01*
X13059875Y10319400D01*
D02*
G37*
G36*
X12805876D02*
X12778124D01*
X12751317Y10312217D01*
X12727283Y10298341D01*
X12707659Y10278717D01*
X12693783Y10254683D01*
X12686600Y10227876D01*
Y10200124D01*
X12693783Y10173317D01*
X12707659Y10149283D01*
X12727283Y10129659D01*
X12751317Y10115783D01*
X12778124Y10108600D01*
X12805876D01*
X12832683Y10115783D01*
X12856717Y10129659D01*
X12876341Y10149283D01*
X12890218Y10173317D01*
X12897400Y10200124D01*
Y10227876D01*
X12890218Y10254683D01*
X12876341Y10278717D01*
X12856717Y10298341D01*
X12832683Y10312217D01*
X12805876Y10319400D01*
D02*
G37*
G36*
X13821877Y10065400D02*
X13794124D01*
X13767317Y10058217D01*
X13743283Y10044341D01*
X13723659Y10024717D01*
X13709782Y10000683D01*
X13702600Y9973876D01*
Y9946124D01*
X13709782Y9919317D01*
X13723659Y9895283D01*
X13743283Y9875659D01*
X13767317Y9861783D01*
X13794124Y9854600D01*
X13821877D01*
X13848683Y9861783D01*
X13872717Y9875659D01*
X13892342Y9895283D01*
X13906216Y9919317D01*
X13913400Y9946124D01*
Y9973876D01*
X13906216Y10000683D01*
X13892342Y10024717D01*
X13872717Y10044341D01*
X13848683Y10058217D01*
X13821877Y10065400D01*
D02*
G37*
G36*
X13567876D02*
X13540125D01*
X13513316Y10058217D01*
X13489284Y10044341D01*
X13469659Y10024717D01*
X13455783Y10000683D01*
X13448599Y9973876D01*
Y9946124D01*
X13455783Y9919317D01*
X13469659Y9895283D01*
X13489284Y9875659D01*
X13513316Y9861783D01*
X13540125Y9854600D01*
X13567876D01*
X13594682Y9861783D01*
X13618716Y9875659D01*
X13638341Y9895283D01*
X13652217Y9919317D01*
X13659399Y9946124D01*
Y9973876D01*
X13652217Y10000683D01*
X13638341Y10024717D01*
X13618716Y10044341D01*
X13594682Y10058217D01*
X13567876Y10065400D01*
D02*
G37*
G36*
X13313876D02*
X13286124D01*
X13259317Y10058217D01*
X13235283Y10044341D01*
X13215659Y10024717D01*
X13201784Y10000683D01*
X13194600Y9973876D01*
Y9946124D01*
X13201784Y9919317D01*
X13215659Y9895283D01*
X13235283Y9875659D01*
X13259317Y9861783D01*
X13286124Y9854600D01*
X13313876D01*
X13340683Y9861783D01*
X13364717Y9875659D01*
X13384341Y9895283D01*
X13398216Y9919317D01*
X13405400Y9946124D01*
Y9973876D01*
X13398216Y10000683D01*
X13384341Y10024717D01*
X13364717Y10044341D01*
X13340683Y10058217D01*
X13313876Y10065400D01*
D02*
G37*
G36*
X13059875D02*
X13032124D01*
X13005318Y10058217D01*
X12981284Y10044341D01*
X12961659Y10024717D01*
X12947783Y10000683D01*
X12940601Y9973876D01*
Y9946124D01*
X12947783Y9919317D01*
X12961659Y9895283D01*
X12981284Y9875659D01*
X13005318Y9861783D01*
X13032124Y9854600D01*
X13059875D01*
X13086684Y9861783D01*
X13110716Y9875659D01*
X13130341Y9895283D01*
X13144217Y9919317D01*
X13151401Y9946124D01*
Y9973876D01*
X13144217Y10000683D01*
X13130341Y10024717D01*
X13110716Y10044341D01*
X13086684Y10058217D01*
X13059875Y10065400D01*
D02*
G37*
G36*
X16377299Y10031902D02*
X16345703D01*
X16314714Y10025738D01*
X16285522Y10013646D01*
X16259251Y9996093D01*
X16236911Y9973751D01*
X16219357Y9947480D01*
X16207266Y9918289D01*
X16201102Y9887300D01*
Y9855704D01*
X16207266Y9824715D01*
X16219357Y9795524D01*
X16236911Y9769252D01*
X16259251Y9746911D01*
X16285522Y9729357D01*
X16314714Y9717266D01*
X16345703Y9711102D01*
X16377299D01*
X16408289Y9717266D01*
X16437479Y9729357D01*
X16463751Y9746911D01*
X16486092Y9769252D01*
X16503645Y9795524D01*
X16515736Y9824715D01*
X16521901Y9855704D01*
Y9887300D01*
X16515736Y9918289D01*
X16503645Y9947480D01*
X16486092Y9973751D01*
X16463751Y9996093D01*
X16437479Y10013646D01*
X16408289Y10025738D01*
X16377299Y10031902D01*
D02*
G37*
G36*
X15827298D02*
X15795702D01*
X15764713Y10025738D01*
X15735522Y10013646D01*
X15709251Y9996093D01*
X15686909Y9973751D01*
X15669354Y9947480D01*
X15657265Y9918289D01*
X15651100Y9887300D01*
Y9855704D01*
X15657265Y9824715D01*
X15669354Y9795524D01*
X15686909Y9769252D01*
X15709251Y9746911D01*
X15735522Y9729357D01*
X15764713Y9717266D01*
X15795702Y9711102D01*
X15827298D01*
X15858287Y9717266D01*
X15887479Y9729357D01*
X15913750Y9746911D01*
X15936092Y9769252D01*
X15953645Y9795524D01*
X15965736Y9824715D01*
X15971899Y9855704D01*
Y9887300D01*
X15965736Y9918289D01*
X15953645Y9947480D01*
X15936092Y9973751D01*
X15913750Y9996093D01*
X15887479Y10013646D01*
X15858287Y10025738D01*
X15827298Y10031902D01*
D02*
G37*
G36*
X16377299Y9611903D02*
X16345703D01*
X16314714Y9605738D01*
X16285522Y9593647D01*
X16259251Y9576093D01*
X16236911Y9553752D01*
X16219357Y9527481D01*
X16207266Y9498290D01*
X16201102Y9467301D01*
Y9435705D01*
X16207266Y9404716D01*
X16219357Y9375525D01*
X16223856Y9368793D01*
X16132532Y9277470D01*
X16124110Y9264867D01*
X16121153Y9250001D01*
Y8829403D01*
X16119087Y8827337D01*
X16111740Y8809599D01*
Y8790401D01*
X16119087Y8772663D01*
X16132663Y8759087D01*
X16150401Y8751740D01*
X16169598D01*
X16187337Y8759087D01*
X16200912Y8772663D01*
X16208260Y8790401D01*
Y8809599D01*
X16200912Y8827337D01*
X16198846Y8829403D01*
Y8978487D01*
X16209006Y8980508D01*
X16219357Y8955520D01*
X16236911Y8929249D01*
X16259251Y8906908D01*
X16285522Y8889354D01*
X16314714Y8877262D01*
X16345703Y8871098D01*
X16377299D01*
X16408289Y8877262D01*
X16437479Y8889354D01*
X16463751Y8906908D01*
X16486092Y8929249D01*
X16503645Y8955520D01*
X16515736Y8984711D01*
X16521901Y9015700D01*
Y9047296D01*
X16515736Y9078285D01*
X16503645Y9107476D01*
X16486092Y9133748D01*
X16463751Y9156089D01*
X16437479Y9173643D01*
X16408289Y9185734D01*
X16377299Y9191898D01*
X16345703D01*
X16314714Y9185734D01*
X16285522Y9173643D01*
X16259251Y9156089D01*
X16236911Y9133748D01*
X16219357Y9107476D01*
X16209006Y9082489D01*
X16198846Y9084509D01*
Y9233910D01*
X16278792Y9313856D01*
X16285522Y9309358D01*
X16314714Y9297267D01*
X16345703Y9291103D01*
X16377299D01*
X16408289Y9297267D01*
X16437479Y9309358D01*
X16463751Y9326912D01*
X16486092Y9349253D01*
X16503645Y9375525D01*
X16515736Y9404716D01*
X16521901Y9435705D01*
Y9467301D01*
X16515736Y9498290D01*
X16503645Y9527481D01*
X16486092Y9553752D01*
X16463751Y9576093D01*
X16437479Y9593647D01*
X16408289Y9605738D01*
X16377299Y9611903D01*
D02*
G37*
G36*
X15827298D02*
X15795702D01*
X15764713Y9605738D01*
X15735522Y9593647D01*
X15709251Y9576093D01*
X15686909Y9553752D01*
X15669354Y9527481D01*
X15657265Y9498290D01*
X15651100Y9467301D01*
Y9435705D01*
X15657265Y9404716D01*
X15669354Y9375525D01*
X15686909Y9349253D01*
X15709251Y9326912D01*
X15735522Y9309358D01*
X15764713Y9297267D01*
X15795702Y9291103D01*
X15827298D01*
X15858287Y9297267D01*
X15887479Y9309358D01*
X15913750Y9326912D01*
X15936092Y9349253D01*
X15953645Y9375525D01*
X15965736Y9404716D01*
X15971899Y9435705D01*
Y9467301D01*
X15965736Y9498290D01*
X15953645Y9527481D01*
X15936092Y9553752D01*
X15913750Y9576093D01*
X15887479Y9593647D01*
X15858287Y9605738D01*
X15827298Y9611903D01*
D02*
G37*
G36*
X10522508Y9444101D02*
X10489490D01*
X10457596Y9435555D01*
X10429001Y9419046D01*
X10405654Y9395699D01*
X10389145Y9367104D01*
X10380599Y9335210D01*
Y9302192D01*
X10389145Y9270299D01*
X10405654Y9241704D01*
X10429001Y9218356D01*
X10457596Y9201847D01*
X10489490Y9193301D01*
X10522508D01*
X10554401Y9201847D01*
X10582996Y9218356D01*
X10606344Y9241704D01*
X10622853Y9270299D01*
X10631399Y9302192D01*
Y9335210D01*
X10622853Y9367104D01*
X10606344Y9395699D01*
X10582996Y9419046D01*
X10554401Y9435555D01*
X10522508Y9444101D01*
D02*
G37*
G36*
X9302510D02*
X9269492D01*
X9237599Y9435555D01*
X9209004Y9419046D01*
X9185656Y9395699D01*
X9169147Y9367104D01*
X9160601Y9335210D01*
Y9302192D01*
X9169147Y9270299D01*
X9185656Y9241704D01*
X9209004Y9218356D01*
X9237599Y9201847D01*
X9269492Y9193301D01*
X9302510D01*
X9334404Y9201847D01*
X9362999Y9218356D01*
X9386346Y9241704D01*
X9402855Y9270299D01*
X9411401Y9302192D01*
Y9335210D01*
X9402855Y9367104D01*
X9386346Y9395699D01*
X9362999Y9419046D01*
X9334404Y9435555D01*
X9302510Y9444101D01*
D02*
G37*
G36*
X10522508Y8942299D02*
X10489490D01*
X10457596Y8933753D01*
X10429001Y8917244D01*
X10405654Y8893896D01*
X10389145Y8865301D01*
X10380599Y8833408D01*
Y8800390D01*
X10389145Y8768496D01*
X10405654Y8739901D01*
X10429001Y8716554D01*
X10457596Y8700045D01*
X10489490Y8691499D01*
X10522508D01*
X10554401Y8700045D01*
X10582996Y8716554D01*
X10606344Y8739901D01*
X10622853Y8768496D01*
X10631399Y8800390D01*
Y8833408D01*
X10622853Y8865301D01*
X10606344Y8893896D01*
X10582996Y8917244D01*
X10554401Y8933753D01*
X10522508Y8942299D01*
D02*
G37*
G36*
X12865947Y8827800D02*
X12838853D01*
X12812682Y8820788D01*
X12789218Y8807240D01*
X12770060Y8788082D01*
X12756512Y8764618D01*
X12749500Y8738447D01*
Y8711353D01*
X12756512Y8685182D01*
X12770060Y8661718D01*
X12789218Y8642560D01*
X12812682Y8629012D01*
X12838853Y8622000D01*
X12865947D01*
X12892117Y8629012D01*
X12915582Y8642560D01*
X12934740Y8661718D01*
X12948288Y8685182D01*
X12955299Y8711353D01*
Y8738447D01*
X12948288Y8764618D01*
X12934740Y8788082D01*
X12915582Y8807240D01*
X12892117Y8820788D01*
X12865947Y8827800D01*
D02*
G37*
G36*
X12611947D02*
X12584853D01*
X12558682Y8820788D01*
X12535218Y8807240D01*
X12516060Y8788082D01*
X12502512Y8764618D01*
X12495500Y8738447D01*
Y8711353D01*
X12502512Y8685182D01*
X12516060Y8661718D01*
X12535218Y8642560D01*
X12558682Y8629012D01*
X12584853Y8622000D01*
X12611947D01*
X12638118Y8629012D01*
X12661582Y8642560D01*
X12680740Y8661718D01*
X12694288Y8685182D01*
X12701300Y8711353D01*
Y8738447D01*
X12694288Y8764618D01*
X12680740Y8788082D01*
X12661582Y8807240D01*
X12638118Y8820788D01*
X12611947Y8827800D01*
D02*
G37*
G36*
X13031705Y9378900D02*
X13008296D01*
X12985686Y9372842D01*
X12965414Y9361138D01*
X12948862Y9344586D01*
X12937160Y9324314D01*
X12931100Y9301704D01*
Y9278296D01*
X12937160Y9255686D01*
X12948862Y9235414D01*
X12965414Y9218862D01*
X12985686Y9207158D01*
X13008296Y9201100D01*
X13022334D01*
X13433786Y8789648D01*
X13433786Y8789647D01*
X13451350Y8777911D01*
X13472070Y8773790D01*
X13472070Y8773790D01*
X15757610D01*
X15759631Y8763630D01*
X15735522Y8753644D01*
X15709251Y8736090D01*
X15686909Y8713748D01*
X15669354Y8687477D01*
X15657265Y8658286D01*
X15651100Y8627297D01*
Y8595701D01*
X15657265Y8564712D01*
X15669354Y8535521D01*
X15673853Y8528789D01*
X15302531Y8157468D01*
X15294112Y8144865D01*
X15291154Y8129999D01*
Y7506091D01*
X14703909Y6918846D01*
X13726091D01*
X13588260Y7056677D01*
Y7059600D01*
X13580913Y7077337D01*
X13567337Y7090913D01*
X13549600Y7098260D01*
X13530402D01*
X13512663Y7090913D01*
X13499088Y7077337D01*
X13491740Y7059600D01*
Y7040401D01*
X13499088Y7022663D01*
X13491289Y7016961D01*
X13487337Y7020913D01*
X13469598Y7028260D01*
X13450401D01*
X13432663Y7020913D01*
X13419087Y7007337D01*
X13411740Y6989599D01*
Y6973989D01*
X13404498Y6967684D01*
X13402353Y6966880D01*
X13395399Y6969760D01*
X13376201D01*
X13358463Y6962413D01*
X13344887Y6948837D01*
X13337540Y6931099D01*
Y6911901D01*
X13337576Y6911810D01*
X13329800Y6904034D01*
X13319598Y6908260D01*
X13300401D01*
X13282663Y6900913D01*
X13269087Y6887337D01*
X13261740Y6869599D01*
Y6850401D01*
X13269087Y6832663D01*
X13282663Y6819087D01*
X13300401Y6811740D01*
X13303323D01*
X13562531Y6552531D01*
X13575134Y6544111D01*
X13589999Y6541154D01*
X14870000D01*
X14884866Y6544111D01*
X14897469Y6552531D01*
X15647878Y7302940D01*
X15659242Y7299937D01*
X15669354Y7275524D01*
X15686909Y7249252D01*
X15709251Y7226911D01*
X15735522Y7209357D01*
X15764713Y7197266D01*
X15795702Y7191102D01*
X15827298D01*
X15858287Y7197266D01*
X15887479Y7209357D01*
X15913750Y7226911D01*
X15936092Y7249252D01*
X15953645Y7275524D01*
X15965736Y7304715D01*
X15971899Y7335704D01*
Y7367300D01*
X15965736Y7398289D01*
X15953645Y7427480D01*
X15936092Y7453751D01*
X15913750Y7476092D01*
X15887479Y7493646D01*
X15858287Y7505738D01*
X15827298Y7511902D01*
X15795702D01*
X15764713Y7505738D01*
X15735522Y7493646D01*
X15709251Y7476092D01*
X15686909Y7453751D01*
X15679005Y7441924D01*
X15668846Y7445006D01*
Y7677997D01*
X15679005Y7681079D01*
X15686909Y7669252D01*
X15709251Y7646910D01*
X15735522Y7629356D01*
X15764713Y7617265D01*
X15795702Y7611101D01*
X15827298D01*
X15858287Y7617265D01*
X15887479Y7629356D01*
X15913750Y7646910D01*
X15936092Y7669252D01*
X15953645Y7695523D01*
X15965736Y7724714D01*
X15971899Y7755703D01*
Y7787299D01*
X15965736Y7818288D01*
X15953645Y7847479D01*
X15936092Y7873750D01*
X15913750Y7896092D01*
X15887479Y7913646D01*
X15878067Y7917544D01*
X15880087Y7927704D01*
X15980251D01*
X15995116Y7930661D01*
X16007719Y7939082D01*
X16201547Y8132911D01*
X16212793Y8131367D01*
X16219357Y8115522D01*
X16236911Y8089251D01*
X16259251Y8066909D01*
X16285522Y8049355D01*
X16314714Y8037264D01*
X16345703Y8031100D01*
X16377299D01*
X16408289Y8037264D01*
X16437479Y8049355D01*
X16463751Y8066909D01*
X16486092Y8089251D01*
X16503645Y8115522D01*
X16515736Y8144713D01*
X16521901Y8175702D01*
Y8207298D01*
X16515736Y8238287D01*
X16503645Y8267478D01*
X16486092Y8293749D01*
X16463751Y8316091D01*
X16437479Y8333645D01*
X16408289Y8345736D01*
X16377299Y8351900D01*
X16345703D01*
X16314714Y8345736D01*
X16285522Y8333645D01*
X16259251Y8316091D01*
X16236911Y8293749D01*
X16219357Y8267478D01*
X16207266Y8238287D01*
X16202345Y8213548D01*
X16188400D01*
X16173537Y8210591D01*
X16160933Y8202170D01*
X15964160Y8005397D01*
X15761749D01*
X15746884Y8002440D01*
X15734280Y7994019D01*
X15602531Y7862270D01*
X15594112Y7849667D01*
X15591153Y7834801D01*
Y7356090D01*
X14853909Y6618847D01*
X13606091D01*
X13363303Y6861634D01*
X13363297Y6867588D01*
X13373448Y6874380D01*
X13376201Y6873240D01*
X13379123D01*
X13599831Y6652532D01*
X13612434Y6644111D01*
X13627299Y6641154D01*
X14820000D01*
X14834866Y6644111D01*
X14847469Y6652532D01*
X15557469Y7362531D01*
X15565889Y7375134D01*
X15568846Y7390000D01*
Y7893909D01*
X15728790Y8053853D01*
X15735522Y8049355D01*
X15764713Y8037264D01*
X15795702Y8031100D01*
X15827298D01*
X15858287Y8037264D01*
X15887479Y8049355D01*
X15913750Y8066909D01*
X15936092Y8089251D01*
X15953645Y8115522D01*
X15965736Y8144713D01*
X15971899Y8175702D01*
Y8207298D01*
X15965736Y8238287D01*
X15953645Y8267478D01*
X15936092Y8293749D01*
X15913750Y8316091D01*
X15887479Y8333645D01*
X15858287Y8345736D01*
X15827298Y8351900D01*
X15795702D01*
X15794638Y8351688D01*
X15788264Y8360780D01*
X15789127Y8362203D01*
X16151051D01*
X16165918Y8365161D01*
X16178522Y8373581D01*
X16278792Y8473852D01*
X16285522Y8469354D01*
X16314714Y8457263D01*
X16345703Y8451099D01*
X16377299D01*
X16408289Y8457263D01*
X16437479Y8469354D01*
X16463751Y8486908D01*
X16486092Y8509250D01*
X16503645Y8535521D01*
X16515736Y8564712D01*
X16521901Y8595701D01*
Y8627297D01*
X16515736Y8658286D01*
X16503645Y8687477D01*
X16486092Y8713748D01*
X16463751Y8736090D01*
X16437479Y8753644D01*
X16408289Y8765735D01*
X16377299Y8771899D01*
X16345703D01*
X16314714Y8765735D01*
X16285522Y8753644D01*
X16259251Y8736090D01*
X16236911Y8713748D01*
X16219357Y8687477D01*
X16210310Y8665640D01*
X16170927D01*
X15970354Y8866214D01*
X15952789Y8877950D01*
X15932069Y8882071D01*
X15932068Y8882071D01*
X15894865D01*
X15891785Y8892231D01*
X15913750Y8906908D01*
X15936092Y8929249D01*
X15953645Y8955520D01*
X15965736Y8984711D01*
X15971899Y9015700D01*
Y9047296D01*
X15965736Y9078285D01*
X15953645Y9107476D01*
X15936092Y9133748D01*
X15913750Y9156089D01*
X15887479Y9173643D01*
X15858287Y9185734D01*
X15827298Y9191898D01*
X15795702D01*
X15764713Y9185734D01*
X15735522Y9173643D01*
X15709251Y9156089D01*
X15686909Y9133748D01*
X15669354Y9107476D01*
X15657265Y9078285D01*
X15651100Y9047296D01*
Y9015700D01*
X15657265Y8984711D01*
X15669354Y8955520D01*
X15686909Y8929249D01*
X15709251Y8906908D01*
X15731216Y8892231D01*
X15728134Y8882071D01*
X13494495D01*
X13106654Y9269913D01*
X13108900Y9278296D01*
Y9301704D01*
X13102843Y9324314D01*
X13091138Y9344586D01*
X13074586Y9361138D01*
X13054314Y9372842D01*
X13031705Y9378900D01*
D02*
G37*
G36*
X14348988Y8718085D02*
X14329790D01*
X14312051Y8710738D01*
X14298476Y8697162D01*
X14291129Y8679424D01*
Y8670307D01*
X14284111Y8659803D01*
X14281154Y8644937D01*
Y8431771D01*
X14270993Y8425292D01*
X14259000Y8430260D01*
X14239801D01*
X14222063Y8422913D01*
X14216437Y8417286D01*
X14188440D01*
X14173573Y8414329D01*
X14160971Y8405909D01*
X13533324Y7778260D01*
X13530402D01*
X13512663Y7770913D01*
X13499088Y7757337D01*
X13491740Y7739599D01*
Y7720401D01*
X13499088Y7702663D01*
X13512663Y7689087D01*
X13530402Y7681740D01*
X13549600D01*
X13567337Y7689087D01*
X13580913Y7702663D01*
X13588260Y7720401D01*
Y7723323D01*
X14204530Y8339593D01*
X14225668D01*
X14239801Y8333740D01*
X14259000D01*
X14270993Y8338708D01*
X14281154Y8332229D01*
Y8320011D01*
X14270993Y8313532D01*
X14259000Y8318500D01*
X14239801D01*
X14222063Y8311153D01*
X14208487Y8297577D01*
X14201140Y8279839D01*
Y8276917D01*
X13443069Y7518847D01*
X13404034D01*
X13396005Y7523994D01*
Y7588251D01*
X13320000D01*
X13243994D01*
Y7523994D01*
X13331375D01*
X13335583Y7513834D01*
X13329086Y7507337D01*
X13321741Y7489599D01*
Y7470401D01*
X13329086Y7452663D01*
X13342664Y7439087D01*
X13360400Y7431740D01*
X13379599D01*
X13397337Y7439087D01*
X13399403Y7441154D01*
X13459160D01*
X13474026Y7444111D01*
X13486629Y7452531D01*
X14256078Y8221980D01*
X14259000D01*
X14270993Y8226948D01*
X14281154Y8220469D01*
Y7935291D01*
X14094931Y7749069D01*
X14086511Y7736466D01*
X14083553Y7721600D01*
Y7369391D01*
X14065393Y7351230D01*
X14056006Y7355118D01*
Y7390950D01*
X13991750D01*
Y7333993D01*
X14034882D01*
X14038770Y7324607D01*
X13917131Y7202969D01*
X13908711Y7190366D01*
X13905753Y7175500D01*
Y7128703D01*
X13903687Y7126637D01*
X13896339Y7108899D01*
Y7089701D01*
X13903687Y7071963D01*
X13917262Y7058387D01*
X13935001Y7051040D01*
X13954199D01*
X13971938Y7058387D01*
X13982700Y7069150D01*
X13993463Y7058387D01*
X14011201Y7051040D01*
X14030399D01*
X14048137Y7058387D01*
X14058939Y7069189D01*
X14065250Y7070967D01*
X14071561Y7069189D01*
X14082362Y7058387D01*
X14100101Y7051040D01*
X14119299D01*
X14137038Y7058387D01*
X14139104Y7060453D01*
X14160500D01*
X14175366Y7063411D01*
X14187968Y7071831D01*
X14347989Y7231851D01*
X14356409Y7244454D01*
X14359367Y7259320D01*
Y7536945D01*
X14369527Y7538966D01*
X14373587Y7529163D01*
X14387163Y7515587D01*
X14402234Y7509344D01*
X14404901Y7508240D01*
X14407729Y7498080D01*
X14404340Y7489899D01*
Y7470701D01*
X14411687Y7452963D01*
X14425262Y7439387D01*
X14443001Y7432040D01*
X14462199D01*
X14479938Y7439387D01*
X14482002Y7441453D01*
X14573399D01*
X14588266Y7444411D01*
X14600870Y7452831D01*
X14854869Y7706831D01*
X14863290Y7719434D01*
X14866248Y7734300D01*
Y8255130D01*
X14863290Y8269996D01*
X14854869Y8282599D01*
X14833487Y8303981D01*
X14820885Y8312401D01*
X14818591Y8312857D01*
X14810136Y8321313D01*
X14792400Y8328660D01*
X14773201D01*
X14766982Y8326084D01*
X14758022Y8330874D01*
X14757454Y8333727D01*
X14749033Y8346330D01*
X14742160Y8353203D01*
Y8353499D01*
X14734813Y8371237D01*
X14721237Y8384813D01*
X14703499Y8392160D01*
X14684302D01*
X14666563Y8384813D01*
X14652988Y8371237D01*
X14645641Y8353499D01*
Y8334301D01*
X14652988Y8316563D01*
X14666563Y8302987D01*
X14682718Y8296296D01*
Y7788722D01*
X14489574Y7595577D01*
X14479243D01*
X14476161Y7605737D01*
X14476805Y7606168D01*
X14650717Y7780080D01*
X14659138Y7792683D01*
X14662096Y7807549D01*
Y8256653D01*
X14659138Y8271519D01*
X14653259Y8280316D01*
Y8289999D01*
X14645914Y8307737D01*
X14632336Y8321313D01*
X14614600Y8328660D01*
X14595401D01*
X14577663Y8321313D01*
X14572722Y8316372D01*
X14562563Y8320581D01*
Y8360016D01*
X14561481Y8365451D01*
X14564360Y8372401D01*
Y8391599D01*
X14557013Y8409337D01*
X14543437Y8422913D01*
X14525699Y8430260D01*
X14506500D01*
X14488763Y8422913D01*
X14475188Y8409337D01*
X14467841Y8391599D01*
Y8372401D01*
X14475188Y8354663D01*
X14484869Y8344981D01*
Y7885007D01*
X14293051Y7693189D01*
X14284631Y7680586D01*
X14281673Y7665720D01*
Y7275411D01*
X14147842Y7141579D01*
X14137038Y7140213D01*
X14131068Y7142685D01*
X14129086Y7152650D01*
X14251469Y7275031D01*
X14259889Y7287634D01*
X14262846Y7302500D01*
Y7680109D01*
X14455540Y7872804D01*
X14463962Y7885407D01*
X14466919Y7900273D01*
Y8256414D01*
X14463962Y8271280D01*
X14455540Y8283882D01*
X14451547Y8287876D01*
Y8516689D01*
X14457336Y8519087D01*
X14470914Y8532663D01*
X14478259Y8550400D01*
Y8569599D01*
X14470914Y8587337D01*
X14457336Y8600913D01*
X14439600Y8608260D01*
X14420401D01*
X14402663Y8600913D01*
X14389087Y8587337D01*
X14381740Y8569599D01*
Y8559444D01*
X14376811Y8552068D01*
X14373854Y8537202D01*
Y8271786D01*
X14376811Y8256920D01*
X14385233Y8244317D01*
X14389226Y8240323D01*
Y7916363D01*
X14196532Y7723669D01*
X14188110Y7711066D01*
X14185153Y7696200D01*
Y7318591D01*
X14014124Y7147560D01*
X14011201D01*
X13993463Y7140213D01*
X13992833Y7139583D01*
X13983447Y7143471D01*
Y7159409D01*
X14149869Y7325831D01*
X14158289Y7338434D01*
X14161247Y7353300D01*
Y7705509D01*
X14347469Y7891731D01*
X14355890Y7904334D01*
X14358847Y7919200D01*
Y8625648D01*
X14366727Y8628912D01*
X14380302Y8642488D01*
X14387650Y8660226D01*
Y8679424D01*
X14380302Y8697162D01*
X14366727Y8710738D01*
X14348988Y8718085D01*
D02*
G37*
G36*
X12897400Y10065400D02*
X12686600D01*
Y9854600D01*
X12750053D01*
Y9241100D01*
X12753011Y9226234D01*
X12761431Y9213631D01*
X13143753Y8831309D01*
Y8347903D01*
X13141687Y8345837D01*
X13134340Y8328099D01*
Y8308901D01*
X13135005Y8307294D01*
X13129361Y8298846D01*
X12640000D01*
X12637051Y8298260D01*
X12620400D01*
X12602663Y8290913D01*
X12589087Y8277337D01*
X12581740Y8259599D01*
Y8240401D01*
X12589087Y8222663D01*
X12602663Y8209087D01*
X12620400Y8201740D01*
X12639599D01*
X12657337Y8209087D01*
X12669403Y8221153D01*
X13184122D01*
X13188010Y8211767D01*
X13052531Y8076289D01*
X13044112Y8063686D01*
X13041153Y8048820D01*
Y7556091D01*
X11653909Y6168846D01*
X11609403D01*
X11607337Y6170913D01*
X11589599Y6178260D01*
X11570401D01*
X11552663Y6170913D01*
X11539087Y6157337D01*
X11531740Y6139599D01*
Y6120401D01*
X11539087Y6102663D01*
X11552663Y6089087D01*
X11570401Y6081740D01*
X11589599D01*
X11607337Y6089087D01*
X11609403Y6091153D01*
X11670000D01*
X11684866Y6094110D01*
X11697468Y6102531D01*
X13107469Y7512532D01*
X13115889Y7525134D01*
X13118848Y7540000D01*
Y8032729D01*
X13257857Y8171740D01*
X13260779D01*
X13278517Y8179087D01*
X13292093Y8192663D01*
X13299440Y8210401D01*
Y8226453D01*
X13308849Y8231412D01*
X13321851Y8218411D01*
X13334453Y8209990D01*
X13337308Y8209422D01*
X13342097Y8200462D01*
X13341740Y8199599D01*
Y8196677D01*
X13162531Y8017469D01*
X13154111Y8004866D01*
X13151154Y7990000D01*
Y7514237D01*
X11482532Y5845615D01*
X11474111Y5833012D01*
X11471154Y5818146D01*
Y4529403D01*
X11469087Y4527337D01*
X11461740Y4509599D01*
Y4490400D01*
X11469087Y4472663D01*
X11482663Y4459087D01*
X11500401Y4451740D01*
X11519600D01*
X11537337Y4459087D01*
X11550913Y4472663D01*
X11558260Y4490400D01*
Y4509599D01*
X11550913Y4527337D01*
X11548847Y4529403D01*
Y5802055D01*
X13217468Y7470677D01*
X13225890Y7483280D01*
X13228847Y7498146D01*
Y7973909D01*
X13396677Y8141740D01*
X13399599D01*
X13417337Y8149087D01*
X13430913Y8162663D01*
X13433833Y8169715D01*
X13437175Y8169050D01*
X13508250D01*
Y8226006D01*
X13501883D01*
X13496338Y8234305D01*
Y8253503D01*
X13488991Y8271241D01*
X13475415Y8284817D01*
X13457677Y8292164D01*
X13438478D01*
X13420741Y8284817D01*
X13420650Y8284726D01*
X13365408D01*
X13346786Y8303349D01*
X13334184Y8311770D01*
X13319318Y8314727D01*
X13230859D01*
Y8328099D01*
X13223512Y8345837D01*
X13221448Y8347903D01*
Y8847400D01*
X13218489Y8862266D01*
X13210069Y8874868D01*
X12827747Y9257191D01*
Y9854600D01*
X12897400D01*
Y10065400D01*
D02*
G37*
G36*
X10722508Y8342300D02*
X10689489D01*
X10657596Y8333754D01*
X10629001Y8317245D01*
X10605653Y8293897D01*
X10589144Y8265302D01*
X10580598Y8233409D01*
Y8200391D01*
X10584261Y8186724D01*
X9914219Y7516682D01*
X9900184Y7495678D01*
X9895256Y7470901D01*
Y4314800D01*
X9900184Y4290024D01*
X9914219Y4269019D01*
X10399019Y3784219D01*
X10420024Y3770184D01*
X10444800Y3765256D01*
X12849020D01*
X12855414Y3758862D01*
X12875687Y3747158D01*
X12898296Y3741100D01*
X12921704D01*
X12944315Y3747158D01*
X12964586Y3758862D01*
X12981139Y3775414D01*
X12992842Y3795686D01*
X12998900Y3818296D01*
Y3841704D01*
X12992842Y3864314D01*
X12981139Y3884586D01*
X12964586Y3901138D01*
X12944315Y3912842D01*
X12921704Y3918900D01*
X12898296D01*
X12875687Y3912842D01*
X12855414Y3901138D01*
X12849020Y3894744D01*
X10471618D01*
X10024744Y4341618D01*
Y7444084D01*
X10675822Y8095162D01*
X10689489Y8091500D01*
X10722508D01*
X10754401Y8100046D01*
X10782996Y8116555D01*
X10806343Y8139903D01*
X10822853Y8168498D01*
X10831398Y8200391D01*
Y8233409D01*
X10822853Y8265302D01*
X10806343Y8293897D01*
X10782996Y8317245D01*
X10754401Y8333754D01*
X10722508Y8342300D01*
D02*
G37*
G36*
X13776006Y8226006D02*
X13546350D01*
Y8150000D01*
Y8073994D01*
X13776006D01*
Y8101740D01*
X13789600D01*
X13807336Y8109087D01*
X13820914Y8122663D01*
X13828259Y8140401D01*
Y8159599D01*
X13820914Y8177337D01*
X13807336Y8190913D01*
X13789600Y8198260D01*
X13776006D01*
Y8226006D01*
D02*
G37*
G36*
X13508250Y8130950D02*
X13443994D01*
Y8073994D01*
X13508250D01*
Y8130950D01*
D02*
G37*
G36*
X13329599Y7928260D02*
X13310400D01*
X13292664Y7920913D01*
X13279086Y7907337D01*
X13271741Y7889599D01*
Y7870401D01*
X13273494Y7866167D01*
X13268703Y7856006D01*
X13243994D01*
Y7689393D01*
Y7626351D01*
X13320000D01*
X13396005D01*
Y7689393D01*
Y7856006D01*
X13371297D01*
X13366505Y7866167D01*
X13368260Y7870401D01*
Y7889599D01*
X13360913Y7907337D01*
X13347337Y7920913D01*
X13329599Y7928260D01*
D02*
G37*
G36*
X10522508Y7742301D02*
X10489490D01*
X10457596Y7733755D01*
X10429001Y7717246D01*
X10405654Y7693899D01*
X10389145Y7665304D01*
X10380599Y7633410D01*
Y7600392D01*
X10389145Y7568499D01*
X10405654Y7539904D01*
X10429001Y7516556D01*
X10457596Y7500047D01*
X10489490Y7491501D01*
X10522508D01*
X10554401Y7500047D01*
X10582996Y7516556D01*
X10606344Y7539904D01*
X10622853Y7568499D01*
X10631399Y7600392D01*
Y7633410D01*
X10622853Y7665304D01*
X10606344Y7693899D01*
X10582996Y7717246D01*
X10554401Y7733755D01*
X10522508Y7742301D01*
D02*
G37*
G36*
X9302510D02*
X9269492D01*
X9237599Y7733755D01*
X9209004Y7717246D01*
X9185656Y7693899D01*
X9169147Y7665304D01*
X9160601Y7633410D01*
Y7600392D01*
X9169147Y7568499D01*
X9185656Y7539904D01*
X9209004Y7516556D01*
X9237599Y7500047D01*
X9269492Y7491501D01*
X9302510D01*
X9334404Y7500047D01*
X9362999Y7516556D01*
X9386346Y7539904D01*
X9402855Y7568499D01*
X9411401Y7600392D01*
Y7633410D01*
X9402855Y7665304D01*
X9386346Y7693899D01*
X9362999Y7717246D01*
X9334404Y7733755D01*
X9302510Y7742301D01*
D02*
G37*
G36*
X13953648Y7486006D02*
X13723994D01*
Y7461297D01*
X13713834Y7456506D01*
X13709599Y7458260D01*
X13690401D01*
X13672662Y7450913D01*
X13659087Y7437337D01*
X13651740Y7419599D01*
Y7400400D01*
X13659087Y7382663D01*
X13672662Y7369087D01*
X13690401Y7361740D01*
X13709599D01*
X13713834Y7363494D01*
X13723994Y7358703D01*
Y7333993D01*
X13953648D01*
Y7410000D01*
Y7486006D01*
D02*
G37*
G36*
X14056006D02*
X13991750D01*
Y7429050D01*
X14056006D01*
Y7486006D01*
D02*
G37*
G36*
X14792400Y8481060D02*
X14773201D01*
X14755463Y8473713D01*
X14741887Y8460137D01*
X14734540Y8442399D01*
Y8423201D01*
X14741887Y8405463D01*
X14755463Y8391887D01*
X14773201Y8384540D01*
X14792400D01*
X14805498Y8389965D01*
X14815317D01*
X14890173Y8315109D01*
Y7724991D01*
X14537917Y7372735D01*
X14522939D01*
X14509599Y7378260D01*
X14490401D01*
X14472662Y7370913D01*
X14459087Y7357337D01*
X14451740Y7339599D01*
Y7320401D01*
X14459087Y7302663D01*
X14472662Y7289087D01*
X14490401Y7281740D01*
X14509599D01*
X14527338Y7289087D01*
X14533292Y7295042D01*
X14554008D01*
X14568874Y7297999D01*
X14581477Y7306419D01*
X14956490Y7681431D01*
X14964909Y7694034D01*
X14967867Y7708900D01*
Y8331200D01*
X14964909Y8346066D01*
X14956490Y8358669D01*
X14858878Y8456281D01*
X14846274Y8464701D01*
X14831409Y8467658D01*
X14816191D01*
X14810136Y8473713D01*
X14792400Y8481060D01*
D02*
G37*
G36*
X14519598Y7238260D02*
X14500401D01*
X14482663Y7230913D01*
X14480597Y7228847D01*
X14390900D01*
X14376035Y7225890D01*
X14363432Y7217469D01*
X14164809Y7018847D01*
X13799403D01*
X13797337Y7020913D01*
X13779599Y7028260D01*
X13760400D01*
X13742664Y7020913D01*
X13729086Y7007337D01*
X13721741Y6989599D01*
Y6970401D01*
X13729086Y6952663D01*
X13742664Y6939087D01*
X13760400Y6931740D01*
X13779599D01*
X13797337Y6939087D01*
X13799403Y6941154D01*
X14180901D01*
X14195766Y6944111D01*
X14208369Y6952531D01*
X14406992Y7151154D01*
X14480597D01*
X14482663Y7149087D01*
X14500401Y7141740D01*
X14519598D01*
X14537337Y7149087D01*
X14550912Y7162663D01*
X14558260Y7180401D01*
Y7199600D01*
X14550912Y7217337D01*
X14537337Y7230913D01*
X14519598Y7238260D01*
D02*
G37*
G36*
X15029599Y7398260D02*
X15010400D01*
X14992664Y7390913D01*
X14979086Y7377337D01*
X14971741Y7359599D01*
Y7356677D01*
X14653909Y7038846D01*
X14419403D01*
X14417337Y7040913D01*
X14399599Y7048260D01*
X14380402D01*
X14362663Y7040913D01*
X14349088Y7027337D01*
X14341740Y7009599D01*
Y6990401D01*
X14349088Y6972663D01*
X14362663Y6959087D01*
X14380402Y6951740D01*
X14399599D01*
X14417337Y6959087D01*
X14419403Y6961153D01*
X14670000D01*
X14684866Y6964111D01*
X14697469Y6972531D01*
X15026677Y7301740D01*
X15029599D01*
X15047337Y7309087D01*
X15060913Y7322663D01*
X15068260Y7340401D01*
Y7359599D01*
X15060913Y7377337D01*
X15047337Y7390913D01*
X15029599Y7398260D01*
D02*
G37*
G36*
X10509808Y7240499D02*
X10476790D01*
X10444896Y7231953D01*
X10416301Y7215444D01*
X10392954Y7192096D01*
X10376445Y7163501D01*
X10367899Y7131608D01*
Y7098590D01*
X10376445Y7066696D01*
X10392954Y7038101D01*
X10416301Y7014754D01*
X10444896Y6998245D01*
X10476790Y6989699D01*
X10509808D01*
X10541701Y6998245D01*
X10570296Y7014754D01*
X10593644Y7038101D01*
X10610153Y7066696D01*
X10618699Y7098590D01*
Y7131608D01*
X10610153Y7163501D01*
X10593644Y7192096D01*
X10570296Y7215444D01*
X10541701Y7231953D01*
X10509808Y7240499D01*
D02*
G37*
G36*
X9398701D02*
X9147901D01*
Y6989699D01*
X9398701D01*
Y7240499D01*
D02*
G37*
G36*
X15827298Y7091903D02*
X15795702D01*
X15764713Y7085738D01*
X15735522Y7073647D01*
X15709251Y7056093D01*
X15686909Y7033752D01*
X15669354Y7007481D01*
X15657265Y6978290D01*
X15651100Y6947301D01*
Y6915704D01*
X15657265Y6884715D01*
X15669354Y6855525D01*
X15686909Y6829253D01*
X15709251Y6806912D01*
X15735522Y6789358D01*
X15764713Y6777267D01*
X15795702Y6771103D01*
X15827298D01*
X15858287Y6777267D01*
X15887479Y6789358D01*
X15913750Y6806912D01*
X15936092Y6829253D01*
X15953645Y6855525D01*
X15965736Y6884715D01*
X15971899Y6915704D01*
Y6947301D01*
X15965736Y6978290D01*
X15953645Y7007481D01*
X15936092Y7033752D01*
X15913750Y7056093D01*
X15887479Y7073647D01*
X15858287Y7085738D01*
X15827298Y7091903D01*
D02*
G37*
G36*
X16377299D02*
X16345703D01*
X16314714Y7085738D01*
X16285522Y7073647D01*
X16259251Y7056093D01*
X16236911Y7033752D01*
X16219357Y7007481D01*
X16207266Y6978290D01*
X16201102Y6947301D01*
Y6915704D01*
X16207266Y6884715D01*
X16219357Y6855525D01*
X16236911Y6829253D01*
X16259251Y6806912D01*
X16285522Y6789358D01*
X16314714Y6777267D01*
X16345703Y6771103D01*
X16377299D01*
X16408289Y6777267D01*
X16419522Y6781920D01*
X16495258Y6706185D01*
Y6616528D01*
X16492963Y6615832D01*
X16485097Y6614742D01*
X16463751Y6636089D01*
X16437479Y6653643D01*
X16408289Y6665734D01*
X16377299Y6671898D01*
X16345703D01*
X16314714Y6665734D01*
X16285522Y6653643D01*
X16259251Y6636089D01*
X16236911Y6613748D01*
X16219357Y6587476D01*
X16207266Y6558285D01*
X16205685Y6550345D01*
X16150798D01*
X16135931Y6547388D01*
X16123331Y6538967D01*
X15909709Y6325347D01*
X15684500D01*
X15669633Y6322389D01*
X15657031Y6313969D01*
X15572209Y6229147D01*
X13815791D01*
X13615932Y6429005D01*
Y6437416D01*
X13612975Y6452282D01*
X13604555Y6464884D01*
X13588260Y6481179D01*
Y6489599D01*
X13580913Y6507337D01*
X13567337Y6520913D01*
X13549600Y6528260D01*
X13530402D01*
X13512663Y6520913D01*
X13499088Y6507337D01*
X13491740Y6489599D01*
Y6470401D01*
X13499088Y6452663D01*
X13512663Y6439087D01*
X13526003Y6433562D01*
X13538239Y6421325D01*
Y6412914D01*
X13541196Y6398048D01*
X13549617Y6385446D01*
X13772231Y6162831D01*
X13784834Y6154411D01*
X13799699Y6151454D01*
X15588300D01*
X15603166Y6154411D01*
X15615768Y6162831D01*
X15700591Y6247653D01*
X15742795D01*
X15744817Y6237493D01*
X15735522Y6233644D01*
X15709251Y6216090D01*
X15686909Y6193748D01*
X15669354Y6167477D01*
X15657265Y6138286D01*
X15651100Y6107297D01*
Y6075701D01*
X15657265Y6044712D01*
X15669354Y6015521D01*
X15686909Y5989250D01*
X15709251Y5966908D01*
X15735522Y5949354D01*
X15764713Y5937263D01*
X15795702Y5931099D01*
X15827298D01*
X15858287Y5937263D01*
X15887479Y5949354D01*
X15913750Y5966908D01*
X15936092Y5989250D01*
X15953645Y6015521D01*
X15965736Y6044712D01*
X15971899Y6075701D01*
Y6107297D01*
X15965736Y6138286D01*
X15953645Y6167477D01*
X15936092Y6193748D01*
X15913750Y6216090D01*
X15887479Y6233644D01*
X15878185Y6237493D01*
X15880205Y6247653D01*
X15925800D01*
X15940666Y6250611D01*
X15953268Y6259031D01*
X16166888Y6472652D01*
X16205685D01*
X16207266Y6464711D01*
X16219357Y6435520D01*
X16236911Y6409249D01*
X16259251Y6386907D01*
X16285522Y6369354D01*
X16314714Y6357262D01*
X16345703Y6351098D01*
X16377299D01*
X16408289Y6357262D01*
X16437479Y6369354D01*
X16463751Y6386907D01*
X16485097Y6408254D01*
X16492963Y6407165D01*
X16495258Y6406469D01*
Y6196529D01*
X16492963Y6195833D01*
X16485097Y6194743D01*
X16463751Y6216090D01*
X16437479Y6233644D01*
X16408289Y6245735D01*
X16377299Y6251899D01*
X16345703D01*
X16314714Y6245735D01*
X16285522Y6233644D01*
X16259251Y6216090D01*
X16236911Y6193748D01*
X16219357Y6167477D01*
X16207266Y6138286D01*
X16201102Y6107297D01*
Y6075701D01*
X16207266Y6044712D01*
X16219357Y6015521D01*
X16236911Y5989250D01*
X16259251Y5966908D01*
X16285522Y5949354D01*
X16314714Y5937263D01*
X16345703Y5931099D01*
X16377299D01*
X16408289Y5937263D01*
X16437479Y5949354D01*
X16463751Y5966908D01*
X16485097Y5988255D01*
X16492963Y5987166D01*
X16495258Y5986470D01*
Y4526819D01*
X15693182Y3724744D01*
X9853420D01*
X9395039Y4183125D01*
X9398701Y4196792D01*
Y4229810D01*
X9390155Y4261704D01*
X9373646Y4290299D01*
X9350299Y4313646D01*
X9321704Y4330155D01*
X9289810Y4338701D01*
X9256792D01*
X9224899Y4330155D01*
X9196304Y4313646D01*
X9172956Y4290299D01*
X9156447Y4261704D01*
X9147901Y4229810D01*
Y4196792D01*
X9156447Y4164899D01*
X9172956Y4136304D01*
X9196304Y4112956D01*
X9224899Y4096447D01*
X9256792Y4087901D01*
X9289810D01*
X9303477Y4091563D01*
X9780821Y3614219D01*
X9801826Y3600184D01*
X9826602Y3595256D01*
X15720000D01*
X15744775Y3600184D01*
X15765781Y3614219D01*
X16605782Y4454220D01*
X16619817Y4475225D01*
X16624747Y4500001D01*
Y6733003D01*
X16619817Y6757779D01*
X16605782Y6778783D01*
X16511084Y6873482D01*
X16515736Y6884715D01*
X16521901Y6915704D01*
Y6947301D01*
X16515736Y6978290D01*
X16503645Y7007481D01*
X16486092Y7033752D01*
X16463751Y7056093D01*
X16437479Y7073647D01*
X16408289Y7085738D01*
X16377299Y7091903D01*
D02*
G37*
G36*
X15599599Y7178260D02*
X15580402D01*
X15562663Y7170913D01*
X15549088Y7157337D01*
X15546745Y7151682D01*
X15023323Y6628260D01*
X15020399D01*
X15002663Y6620913D01*
X14989087Y6607337D01*
X14981740Y6589599D01*
Y6570401D01*
X14989087Y6552663D01*
X15002663Y6539087D01*
X15020399Y6531740D01*
X15039600D01*
X15057336Y6539087D01*
X15070914Y6552663D01*
X15078259Y6570401D01*
Y6573323D01*
X15586678Y7081740D01*
X15599599D01*
X15617337Y7089087D01*
X15630913Y7102663D01*
X15638260Y7120401D01*
Y7139599D01*
X15630913Y7157337D01*
X15617337Y7170913D01*
X15599599Y7178260D01*
D02*
G37*
G36*
X10709808Y6640500D02*
X10676789D01*
X10644896Y6631954D01*
X10616301Y6615445D01*
X10592953Y6592097D01*
X10585879Y6579844D01*
X10375100D01*
X10350323Y6574916D01*
X10329319Y6560881D01*
X10157338Y6388900D01*
X10148296D01*
X10125686Y6382842D01*
X10105414Y6371138D01*
X10088862Y6354586D01*
X10077158Y6334314D01*
X10071100Y6311704D01*
Y6288296D01*
X10077158Y6265686D01*
X10088862Y6245414D01*
X10105414Y6228862D01*
X10125686Y6217159D01*
X10148296Y6211100D01*
X10171704D01*
X10194314Y6217159D01*
X10214586Y6228862D01*
X10231138Y6245414D01*
X10242842Y6265686D01*
X10248900Y6288296D01*
Y6297338D01*
X10401918Y6450356D01*
X10585879D01*
X10592953Y6438103D01*
X10616301Y6414755D01*
X10644896Y6398246D01*
X10676789Y6389700D01*
X10709808D01*
X10741701Y6398246D01*
X10770296Y6414755D01*
X10793643Y6438103D01*
X10810153Y6466698D01*
X10818698Y6498591D01*
Y6531609D01*
X10810153Y6563502D01*
X10793643Y6592097D01*
X10770296Y6615445D01*
X10741701Y6631954D01*
X10709808Y6640500D01*
D02*
G37*
G36*
X15827298Y6671898D02*
X15795702D01*
X15764713Y6665734D01*
X15735522Y6653643D01*
X15709251Y6636089D01*
X15686909Y6613748D01*
X15669354Y6587476D01*
X15657265Y6558285D01*
X15651100Y6527296D01*
Y6495700D01*
X15657265Y6464711D01*
X15669354Y6435520D01*
X15686909Y6409249D01*
X15709251Y6386907D01*
X15735522Y6369354D01*
X15764713Y6357262D01*
X15795702Y6351098D01*
X15827298D01*
X15858287Y6357262D01*
X15887479Y6369354D01*
X15913750Y6386907D01*
X15936092Y6409249D01*
X15953645Y6435520D01*
X15965736Y6464711D01*
X15971899Y6495700D01*
Y6527296D01*
X15965736Y6558285D01*
X15953645Y6587476D01*
X15936092Y6613748D01*
X15913750Y6636089D01*
X15887479Y6653643D01*
X15858287Y6665734D01*
X15827298Y6671898D01*
D02*
G37*
G36*
X13199599Y6718260D02*
X13180402D01*
X13162663Y6710913D01*
X13149088Y6697337D01*
X13141740Y6679600D01*
Y6660401D01*
X13149088Y6642663D01*
X13162663Y6629087D01*
X13180402Y6621740D01*
X13183324D01*
X13742532Y6062531D01*
X13755135Y6054111D01*
X13770000Y6051154D01*
X15100597D01*
X15102663Y6049087D01*
X15120401Y6041740D01*
X15139600D01*
X15157336Y6049087D01*
X15170914Y6062663D01*
X15178259Y6080401D01*
Y6099599D01*
X15170914Y6117337D01*
X15157336Y6130913D01*
X15139600Y6138260D01*
X15120401D01*
X15102663Y6130913D01*
X15100597Y6128847D01*
X13786092D01*
X13238260Y6676677D01*
Y6679600D01*
X13230913Y6697337D01*
X13217337Y6710913D01*
X13199599Y6718260D01*
D02*
G37*
G36*
X17108778Y6266899D02*
X17074226D01*
X17040340Y6260158D01*
X17008420Y6246936D01*
X16979692Y6227741D01*
X16955260Y6203310D01*
X16936066Y6174582D01*
X16922842Y6142661D01*
X16916103Y6108774D01*
Y6074224D01*
X16922842Y6040337D01*
X16936066Y6008416D01*
X16955260Y5979688D01*
X16979692Y5955257D01*
X17008420Y5936062D01*
X17040340Y5922840D01*
X17074226Y5916099D01*
X17108778D01*
X17142665Y5922840D01*
X17174585Y5936062D01*
X17203313Y5955257D01*
X17227745Y5979688D01*
X17246941Y6008416D01*
X17260162Y6040337D01*
X17266902Y6074224D01*
Y6108774D01*
X17260162Y6142661D01*
X17246941Y6174582D01*
X17227745Y6203310D01*
X17203313Y6227741D01*
X17174585Y6246936D01*
X17142665Y6260158D01*
X17108778Y6266899D01*
D02*
G37*
G36*
X10509808Y6040501D02*
X10476790D01*
X10444896Y6031955D01*
X10416301Y6015446D01*
X10392954Y5992099D01*
X10376445Y5963504D01*
X10367899Y5931610D01*
Y5898592D01*
X10376445Y5866699D01*
X10392954Y5838104D01*
X10416301Y5814756D01*
X10444896Y5798247D01*
X10476790Y5789701D01*
X10509808D01*
X10541701Y5798247D01*
X10570296Y5814756D01*
X10593644Y5838104D01*
X10610153Y5866699D01*
X10618699Y5898592D01*
Y5931610D01*
X10610153Y5963504D01*
X10593644Y5992099D01*
X10570296Y6015446D01*
X10541701Y6031955D01*
X10509808Y6040501D01*
D02*
G37*
G36*
X9289810D02*
X9256792D01*
X9224899Y6031955D01*
X9196304Y6015446D01*
X9172956Y5992099D01*
X9156447Y5963504D01*
X9147901Y5931610D01*
Y5898592D01*
X9156447Y5866699D01*
X9172956Y5838104D01*
X9196304Y5814756D01*
X9224899Y5798247D01*
X9256792Y5789701D01*
X9289810D01*
X9321704Y5798247D01*
X9350299Y5814756D01*
X9373646Y5838104D01*
X9390155Y5866699D01*
X9398701Y5898592D01*
Y5931610D01*
X9390155Y5963504D01*
X9373646Y5992099D01*
X9350299Y6015446D01*
X9321704Y6031955D01*
X9289810Y6040501D01*
D02*
G37*
G36*
X10509808Y5538699D02*
X10476790D01*
X10444896Y5530153D01*
X10416301Y5513644D01*
X10392954Y5490296D01*
X10376445Y5461701D01*
X10367899Y5429808D01*
Y5396790D01*
X10376445Y5364896D01*
X10392954Y5336301D01*
X10416301Y5312954D01*
X10444896Y5296445D01*
X10476790Y5287899D01*
X10509808D01*
X10541701Y5296445D01*
X10570296Y5312954D01*
X10593644Y5336301D01*
X10610153Y5364896D01*
X10618699Y5396790D01*
Y5429808D01*
X10610153Y5461701D01*
X10593644Y5490296D01*
X10570296Y5513644D01*
X10541701Y5530153D01*
X10509808Y5538699D01*
D02*
G37*
G36*
X9398701D02*
X9147901D01*
Y5287899D01*
X9398701D01*
Y5538699D01*
D02*
G37*
G36*
X16469701Y5294599D02*
X16143900D01*
Y4968799D01*
X16469701D01*
Y5294599D01*
D02*
G37*
G36*
X15772842D02*
X15740755D01*
X15709283Y5288339D01*
X15679637Y5276059D01*
X15652956Y5258232D01*
X15630266Y5235542D01*
X15612439Y5208861D01*
X15600159Y5179215D01*
X15593900Y5147743D01*
Y5115655D01*
X15600159Y5084183D01*
X15605302Y5071765D01*
X14593980Y4060444D01*
X11220318D01*
X10758042Y4522719D01*
Y4705881D01*
X10770296Y4712955D01*
X10793643Y4736303D01*
X10810153Y4764898D01*
X10818698Y4796791D01*
Y4829809D01*
X10810153Y4861702D01*
X10793643Y4890297D01*
X10770296Y4913645D01*
X10741701Y4930154D01*
X10709808Y4938700D01*
X10676789D01*
X10644896Y4930154D01*
X10616301Y4913645D01*
X10592953Y4890297D01*
X10576444Y4861702D01*
X10567898Y4829809D01*
Y4796791D01*
X10576444Y4764898D01*
X10592953Y4736303D01*
X10616301Y4712955D01*
X10628554Y4705881D01*
Y4495902D01*
X10633483Y4471125D01*
X10647517Y4450121D01*
X11147719Y3949919D01*
X11168724Y3935884D01*
X11193500Y3930956D01*
X14620799D01*
X14645576Y3935884D01*
X14666580Y3949919D01*
X15696864Y4980203D01*
X15709283Y4975059D01*
X15740755Y4968799D01*
X15772842D01*
X15804315Y4975059D01*
X15833960Y4987339D01*
X15860641Y5005167D01*
X15883331Y5027857D01*
X15901158Y5054537D01*
X15913438Y5084183D01*
X15919698Y5115655D01*
Y5147743D01*
X15913438Y5179215D01*
X15901158Y5208861D01*
X15883331Y5235542D01*
X15860641Y5258232D01*
X15833960Y5276059D01*
X15804315Y5288339D01*
X15772842Y5294599D01*
D02*
G37*
G36*
X16322844Y4874600D02*
X16290756D01*
X16259283Y4868340D01*
X16229639Y4856060D01*
X16202957Y4838233D01*
X16180267Y4815543D01*
X16162440Y4788862D01*
X16150160Y4759216D01*
X16143900Y4727744D01*
Y4695656D01*
X16150160Y4664184D01*
X16162440Y4634538D01*
X16180267Y4607857D01*
X16202957Y4585167D01*
X16229639Y4567340D01*
X16259283Y4555060D01*
X16290756Y4548800D01*
X16322844D01*
X16354317Y4555060D01*
X16383961Y4567340D01*
X16410643Y4585167D01*
X16433333Y4607857D01*
X16451160Y4634538D01*
X16463440Y4664184D01*
X16469701Y4695656D01*
Y4727744D01*
X16463440Y4759216D01*
X16451160Y4788862D01*
X16433333Y4815543D01*
X16410643Y4838233D01*
X16383961Y4856060D01*
X16354317Y4868340D01*
X16322844Y4874600D01*
D02*
G37*
G36*
X10509808Y4338701D02*
X10476790D01*
X10444896Y4330155D01*
X10416301Y4313646D01*
X10392954Y4290299D01*
X10376445Y4261704D01*
X10367899Y4229810D01*
Y4196792D01*
X10376445Y4164899D01*
X10392954Y4136304D01*
X10416301Y4112956D01*
X10444896Y4096447D01*
X10476790Y4087901D01*
X10509808D01*
X10541701Y4096447D01*
X10570296Y4112956D01*
X10593644Y4136304D01*
X10610153Y4164899D01*
X10618699Y4196792D01*
Y4229810D01*
X10610153Y4261704D01*
X10593644Y4290299D01*
X10570296Y4313646D01*
X10541701Y4330155D01*
X10509808Y4338701D01*
D02*
G37*
%LPD*%
G36*
X16110217Y8573217D02*
X16110217Y8573216D01*
X16127782Y8561480D01*
X16148502Y8557359D01*
X16148502Y8557359D01*
X16210310D01*
X16219357Y8535521D01*
X16223856Y8528790D01*
X16134962Y8439897D01*
X15767050D01*
X15752184Y8436939D01*
X15739581Y8428519D01*
X15402531Y8091468D01*
X15394110Y8078866D01*
X15391153Y8064000D01*
Y7456090D01*
X14753909Y6818846D01*
X13676091D01*
X13508260Y6986677D01*
Y6989599D01*
X13500912Y7007337D01*
X13508711Y7013040D01*
X13512663Y7009087D01*
X13530402Y7001740D01*
X13533324D01*
X13682532Y6852531D01*
X13695134Y6844111D01*
X13710001Y6841153D01*
X14720000D01*
X14734866Y6844111D01*
X14747469Y6852531D01*
X15357469Y7462531D01*
X15365891Y7475134D01*
X15368848Y7490000D01*
Y8113909D01*
X15728790Y8473852D01*
X15735522Y8469354D01*
X15764713Y8457263D01*
X15795702Y8451099D01*
X15827298D01*
X15858287Y8457263D01*
X15887479Y8469354D01*
X15913750Y8486908D01*
X15936092Y8509250D01*
X15953645Y8535521D01*
X15965736Y8564712D01*
X15971899Y8595701D01*
Y8627297D01*
X15965736Y8658286D01*
X15953645Y8687477D01*
X15936092Y8713748D01*
X15913750Y8736090D01*
X15887479Y8753644D01*
X15863370Y8763630D01*
X15865390Y8773790D01*
X15909644D01*
X16110217Y8573217D01*
D02*
G37*
G36*
X15653363Y8218676D02*
X15651100Y8207298D01*
Y8175702D01*
X15657265Y8144713D01*
X15669354Y8115522D01*
X15673853Y8108790D01*
X15502531Y7937469D01*
X15494110Y7924866D01*
X15491153Y7910000D01*
Y7406091D01*
X14803909Y6718847D01*
X13643391D01*
X13439461Y6922778D01*
X13439600Y6925217D01*
X13448401Y6932568D01*
X13450401Y6931740D01*
X13453323D01*
X13632532Y6752531D01*
X13645134Y6744110D01*
X13660001Y6741153D01*
X14770000D01*
X14784866Y6744110D01*
X14797469Y6752531D01*
X15457468Y7412531D01*
X15465889Y7425134D01*
X15468846Y7440000D01*
Y8047909D01*
X15644403Y8223466D01*
X15653363Y8218676D01*
D02*
G37*
G36*
X14577663Y8239487D02*
X14584402Y8236696D01*
Y7823639D01*
X14433246Y7672483D01*
X14404868D01*
X14403737Y7673613D01*
X14397769Y7676085D01*
X14395787Y7686050D01*
X14551186Y7841447D01*
X14559605Y7854050D01*
X14562563Y7868916D01*
Y8240219D01*
X14572722Y8244428D01*
X14577663Y8239487D01*
D02*
G37*
G36*
X14773201Y8232140D02*
X14788554D01*
Y7750391D01*
X14557309Y7519147D01*
X14536282D01*
X14533179Y7529116D01*
X14533179Y7529307D01*
X14749033Y7745162D01*
X14757454Y7757765D01*
X14760411Y7772631D01*
Y8228294D01*
X14768858Y8233938D01*
X14773201Y8232140D01*
D02*
G37*
D15*
X13320000Y7607301D02*
D03*
Y7772699D02*
D03*
D17*
X13527301Y8150000D02*
D03*
X13692699D02*
D03*
X13972699Y7410000D02*
D03*
X13807301D02*
D03*
D31*
X9273301Y4213301D02*
X9826602Y3660000D01*
X15720000D01*
X16560001Y4500001D01*
X9960000Y4314800D02*
X10444800Y3830000D01*
X12910001D01*
X14620799Y3995700D02*
X15756799Y5131699D01*
X10693298Y4495902D02*
X11193500Y3995700D01*
X14620799D01*
X10375100Y6515100D02*
X10693298D01*
X10160000Y6300000D02*
X10375100Y6515100D01*
X9960000Y7470901D02*
X10705998Y8216900D01*
X9960000Y4314800D02*
Y7470901D01*
X16560001Y4500001D02*
Y6733003D01*
X16361501Y6931503D02*
X16560001Y6733003D01*
X10705998Y10794898D02*
X10909300Y10998200D01*
X16566963D01*
X16637000Y10928163D01*
X16361501Y7771501D02*
X16637000Y8046999D01*
Y10928163D01*
X10705998Y9918700D02*
Y10794898D01*
X9604197Y8816899D02*
X10705998Y9918700D01*
X16802100Y7792100D02*
Y10960100D01*
X16361501Y7351502D02*
X16802100Y7792100D01*
X16586200Y11176000D02*
X16802100Y10960100D01*
X9286001Y10518699D02*
X9943302Y11176000D01*
X16586200D01*
X9286001Y8816899D02*
X9604197D01*
X10693298Y4495902D02*
Y4813300D01*
D32*
X13320000Y7772699D02*
Y7880000D01*
X13692699Y8150000D02*
X13780000D01*
X13700000Y7410000D02*
X13807301D01*
D33*
X13080000Y7540000D02*
Y8048820D01*
X11580000Y6130000D02*
X11670000D01*
X13080000Y7540000D01*
X12630000Y8250000D02*
X12640000Y8260000D01*
X13203127D01*
X13219006Y8275880D01*
X13319318D01*
X13349318Y8245880D01*
X13446101D01*
X13448077Y8243904D01*
X13189999Y7990000D02*
X13389999Y8190000D01*
X13189999Y7498146D02*
Y7990000D01*
X13080000Y8048820D02*
X13251180Y8220000D01*
X13577086Y6412914D02*
Y6437416D01*
X13539999Y6474501D02*
X13577086Y6437416D01*
X13539999Y6474501D02*
Y6480000D01*
X13577086Y6412914D02*
X13799699Y6190300D01*
X13539999Y7050000D02*
X13710001Y6880000D01*
X13799699Y6190300D02*
X15588300D01*
X11510000Y5818146D02*
X13189999Y7498146D01*
X14412701Y8537202D02*
X14430000Y8554501D01*
X14412701Y8271786D02*
Y8537202D01*
X14430000Y8554501D02*
Y8560000D01*
X14122400Y7353300D02*
Y7721600D01*
X14224001Y7302500D02*
Y7696200D01*
X13944600Y7175500D02*
X14122400Y7353300D01*
X14320520Y7259320D02*
Y7665720D01*
X14224001Y7696200D02*
X14428073Y7900273D01*
X14160500Y7099300D02*
X14320520Y7259320D01*
X14122400Y7721600D02*
X14320000Y7919200D01*
X14020799Y7099300D02*
X14224001Y7302500D01*
X13370000Y7480000D02*
X13459160D01*
X14249400Y8270240D01*
X14500000Y7330000D02*
X14503888Y7333888D01*
X14554008D02*
X14929021Y7708900D01*
X14503888Y7333888D02*
X14554008D01*
X14412701Y8271786D02*
X14428073Y8256414D01*
Y7900273D02*
Y8256414D01*
X14339389Y8664326D02*
Y8669825D01*
X14320000Y8644937D02*
X14339389Y8664326D01*
X14320000Y7919200D02*
Y8644937D01*
X14188440Y8378440D02*
X14245840D01*
X14249400Y8382000D01*
X14516100D02*
X14519987Y8378112D01*
X14523717Y7868916D02*
Y8360016D01*
X14519987Y8363744D02*
Y8378112D01*
Y8363744D02*
X14523717Y8360016D01*
X14788300Y8432800D02*
X14792287Y8428812D01*
X14831409D02*
X14929021Y8331200D01*
Y7708900D02*
Y8331200D01*
X14782800Y8280400D02*
X14786688Y8276512D01*
X14573399Y7480300D02*
X14827400Y7734300D01*
X14452600Y7480300D02*
X14573399D01*
X14782800Y8432800D02*
X14788300D01*
X14806018Y8276512D02*
X14827400Y8255130D01*
X14786688Y8276512D02*
X14806018D01*
X14827400Y7734300D02*
Y8255130D01*
X14792287Y8428812D02*
X14831409D01*
X14721565Y7772631D02*
Y8318861D01*
X14414731Y7556731D02*
X14505666D01*
X14693900Y8343900D02*
X14696526D01*
X14721565Y8318861D01*
X14449336Y7633636D02*
X14623248Y7807549D01*
X14605000Y8274901D02*
Y8280400D01*
X14623248Y7807549D02*
Y8256653D01*
X14505666Y7556731D02*
X14721565Y7772631D01*
X14605000Y8274901D02*
X14623248Y8256653D01*
X14377336Y7633636D02*
X14449336D01*
X13539999Y7730000D02*
X14188440Y8378440D01*
X15030000Y6580000D02*
X15576112Y7126112D01*
X15586111D02*
X15589999Y7130000D01*
X15576112Y7126112D02*
X15586111D01*
X14390900Y7190000D02*
X14510001D01*
X13770000Y6090000D02*
X15130000D01*
X13189999Y6670000D02*
X13770000Y6090000D01*
X15588300Y6190300D02*
X15684500Y6286500D01*
X13710001Y6880000D02*
X14720000D01*
X14180901Y6980000D02*
X14390900Y7190000D01*
X14670000Y7000000D02*
X15020000Y7350000D01*
X14389999Y7000000D02*
X14670000D01*
X16160001Y9250001D02*
X16361501Y9451503D01*
X16160001Y8800000D02*
Y9250001D01*
X15630000Y7340000D02*
Y7834801D01*
X14870000Y6580000D02*
X15630000Y7340000D01*
Y7834801D02*
X15761749Y7966550D01*
X15530000Y7390000D02*
Y7910000D01*
X12788900Y9241100D02*
X13182600Y8847400D01*
Y8318500D02*
Y8847400D01*
X12788900Y9241100D02*
Y9931400D01*
X11510000Y4500000D02*
Y5818146D01*
X13460001Y6980000D02*
X13660001Y6780000D01*
X14770000D01*
X15767050Y8401050D02*
X16151051D01*
X16361501Y8611499D01*
X15430000Y8064000D02*
X15767050Y8401050D01*
X15430000Y7440000D02*
Y8064000D01*
X14770000Y6780000D02*
X15430000Y7440000D01*
X15925800Y6286500D02*
X16150798Y6511498D01*
X15684500Y6286500D02*
X15925800D01*
X15330000Y7490000D02*
Y8129999D01*
X15811501Y8611499D01*
X14720000Y6880000D02*
X15330000Y7490000D01*
X14820000Y6680000D02*
X15530000Y7390000D01*
Y7910000D02*
X15811501Y8191500D01*
X13589999Y6580000D02*
X14870000D01*
X13627299Y6680000D02*
X14820000D01*
X13310001Y6860000D02*
X13589999Y6580000D01*
X13385800Y6921500D02*
X13627299Y6680000D01*
X13770000Y6980000D02*
X14180901D01*
X14109700Y7099300D02*
X14160500D01*
X13944600D02*
Y7175500D01*
X16344704Y8174701D02*
X16361501Y8191500D01*
X16188400Y8174701D02*
X16344704D01*
X15980251Y7966550D02*
X16188400Y8174701D01*
X15761749Y7966550D02*
X15980251D01*
X16150798Y6511498D02*
X16361501D01*
X14320520Y7665720D02*
X14523717Y7868916D01*
D35*
X13020000Y9280000D02*
Y9290000D01*
Y9280000D02*
X13472070Y8827931D01*
X15932069D01*
X16148502Y8611499D01*
X16361501D01*
D37*
X13808000Y9960000D02*
D03*
X13553999D02*
D03*
X13300000D02*
D03*
X13046001D02*
D03*
X13808000Y10214000D02*
D03*
X13553999D02*
D03*
X13300000D02*
D03*
X13046001D02*
D03*
X12792000D02*
D03*
D38*
Y9960000D02*
D03*
D39*
X10693298Y6515100D02*
D03*
X10493299Y7115099D02*
D03*
Y5915101D02*
D03*
X9273301D02*
D03*
X10505999Y10518699D02*
D03*
Y9318701D02*
D03*
X9286001D02*
D03*
X10705998Y9918700D02*
D03*
X9273301Y4213301D02*
D03*
X10493299D02*
D03*
Y5413299D02*
D03*
X10693298Y4813300D02*
D03*
X9286001Y7616901D02*
D03*
X10505999D02*
D03*
Y8816899D02*
D03*
X10705998Y8216900D02*
D03*
D40*
X9273301Y7115099D02*
D03*
X9286001Y10518699D02*
D03*
X9273301Y5413299D02*
D03*
X9286001Y8816899D02*
D03*
D41*
X16361501Y6091499D02*
D03*
X15811501D02*
D03*
Y6511498D02*
D03*
Y6931503D02*
D03*
Y7351502D02*
D03*
Y7771501D02*
D03*
Y8191500D02*
D03*
Y8611499D02*
D03*
Y9031498D02*
D03*
Y9451503D02*
D03*
Y9871502D02*
D03*
Y10291501D02*
D03*
Y10711500D02*
D03*
X16361501Y6511498D02*
D03*
Y7351502D02*
D03*
Y9031498D02*
D03*
Y10291501D02*
D03*
Y9871502D02*
D03*
Y9451503D02*
D03*
Y8611499D02*
D03*
Y8191500D02*
D03*
Y7771501D02*
D03*
Y6931503D02*
D03*
D42*
Y10711500D02*
D03*
D43*
X17091502D02*
D03*
Y6091499D02*
D03*
D44*
X12344400Y8724900D02*
D03*
D45*
X12598400D02*
D03*
X12852400D02*
D03*
D46*
X16306799Y5131699D02*
D03*
D47*
X15756799D02*
D03*
X16306799Y4711700D02*
D03*
X15756799D02*
D03*
D48*
X12910001Y3830000D02*
D03*
X13020000Y9290000D02*
D03*
X10160000Y6300000D02*
D03*
D49*
X12740000Y4650000D02*
D03*
Y4530000D02*
D03*
X14310001Y5180000D02*
D03*
X12810001Y4740000D02*
D03*
X14200000Y5920000D02*
D03*
X14120000D02*
D03*
X14280000Y5850000D02*
D03*
Y5750000D02*
D03*
X13300000Y5330000D02*
D03*
X13389999D02*
D03*
X14211301Y5359400D02*
D03*
X14135100D02*
D03*
X14312900Y5270500D02*
D03*
X13480000Y5330000D02*
D03*
X14276869Y5653569D02*
D03*
X14280000Y5550000D02*
D03*
X12630000Y8250000D02*
D03*
X13389999Y8190000D02*
D03*
X13448077Y8243904D02*
D03*
X13251180Y8220000D02*
D03*
X13539999Y6480000D02*
D03*
Y7050000D02*
D03*
X13320000Y7880000D02*
D03*
X13780000Y8150000D02*
D03*
X13700000Y7410000D02*
D03*
X14500000Y7330000D02*
D03*
X13370000Y7480000D02*
D03*
X14430000Y8560000D02*
D03*
X14339389Y8669825D02*
D03*
X14249400Y8382000D02*
D03*
Y8270240D02*
D03*
X14516100Y8382000D02*
D03*
X13539999Y7730000D02*
D03*
X14605000Y8280400D02*
D03*
X15030000Y6580000D02*
D03*
X14510001Y7190000D02*
D03*
X15130000Y6090000D02*
D03*
X14389999Y7000000D02*
D03*
X15020000Y7350000D02*
D03*
X16160001Y8800000D02*
D03*
X15589999Y7130000D02*
D03*
X11580000Y6130000D02*
D03*
X11510000Y4500000D02*
D03*
X13460001Y6980000D02*
D03*
X13770000D02*
D03*
X13189999Y6670000D02*
D03*
X13310001Y6860000D02*
D03*
X14109700Y7099300D02*
D03*
X13944600D02*
D03*
X14020799D02*
D03*
X13385800Y6921500D02*
D03*
X14693900Y8343900D02*
D03*
X14782800Y8432800D02*
D03*
Y8280400D02*
D03*
X14414500Y7556500D02*
D03*
X14452600Y7480300D02*
D03*
X14376401Y7632700D02*
D03*
X13423900Y4216400D02*
D03*
X13347701D02*
D03*
X13258800Y4318000D02*
D03*
X13260001Y4400000D02*
D03*
X12810001Y4830000D02*
D03*
X13182600Y8318500D02*
D03*
X13580000Y5330000D02*
D03*
X13398500Y5168900D02*
D03*
X13309599D02*
D03*
D50*
X17653000Y11176000D02*
D03*
X17525999Y10922000D02*
D03*
X17653000Y10668000D02*
D03*
X17525999Y10414000D02*
D03*
X17653000Y10160000D02*
D03*
X17525999Y9906000D02*
D03*
X17653000Y9652000D02*
D03*
X17525999Y9398000D02*
D03*
X17653000Y9144000D02*
D03*
X17525999Y8890000D02*
D03*
X17653000Y8636000D02*
D03*
X17525999Y8382000D02*
D03*
X17653000Y8128000D02*
D03*
X17525999Y7874000D02*
D03*
X17653000Y7620000D02*
D03*
X17525999Y7366000D02*
D03*
X17653000Y7112000D02*
D03*
X17525999Y6858000D02*
D03*
X17653000Y6604000D02*
D03*
X17525999Y6350000D02*
D03*
X17653000Y6096000D02*
D03*
X17525999Y5842000D02*
D03*
X17653000Y5588000D02*
D03*
X17525999Y5334000D02*
D03*
X17653000Y5080000D02*
D03*
X17525999Y4826000D02*
D03*
X17653000Y4572000D02*
D03*
X17525999Y4318000D02*
D03*
X17653000Y4064000D02*
D03*
X17399001Y11176000D02*
D03*
X17272000Y10922000D02*
D03*
X17399001Y10668000D02*
D03*
X17272000Y10414000D02*
D03*
X17399001Y10160000D02*
D03*
X17272000Y9906000D02*
D03*
X17399001Y9652000D02*
D03*
X17272000Y9398000D02*
D03*
X17399001Y9144000D02*
D03*
X17272000Y8890000D02*
D03*
X17399001Y8636000D02*
D03*
X17272000Y8382000D02*
D03*
X17399001Y8128000D02*
D03*
X17272000Y7874000D02*
D03*
X17399001Y7620000D02*
D03*
X17272000Y7366000D02*
D03*
X17399001Y7112000D02*
D03*
X17272000Y6858000D02*
D03*
X17399001Y6604000D02*
D03*
X17272000Y6350000D02*
D03*
X17399001Y6096000D02*
D03*
X17272000Y5842000D02*
D03*
X17399001Y5588000D02*
D03*
X17272000Y5334000D02*
D03*
X17399001Y5080000D02*
D03*
X17272000Y4826000D02*
D03*
X17399001Y4572000D02*
D03*
X17272000Y4318000D02*
D03*
X17399001Y4064000D02*
D03*
X17145000Y11176000D02*
D03*
X17017999Y10922000D02*
D03*
Y10414000D02*
D03*
X17145000Y10160000D02*
D03*
X17017999Y9906000D02*
D03*
X17145000Y9652000D02*
D03*
X17017999Y9398000D02*
D03*
X17145000Y9144000D02*
D03*
X17017999Y8890000D02*
D03*
X17145000Y8636000D02*
D03*
X17017999Y8382000D02*
D03*
X17145000Y8128000D02*
D03*
X17017999Y7874000D02*
D03*
X17145000Y7620000D02*
D03*
X17017999Y7366000D02*
D03*
X17145000Y7112000D02*
D03*
X17017999Y6858000D02*
D03*
X17145000Y6604000D02*
D03*
X17017999Y6350000D02*
D03*
Y5842000D02*
D03*
X17145000Y5588000D02*
D03*
X17017999Y5334000D02*
D03*
X17145000Y5080000D02*
D03*
X17017999Y4826000D02*
D03*
X17145000Y4572000D02*
D03*
X17017999Y4318000D02*
D03*
X17145000Y4064000D02*
D03*
X17017999Y3810000D02*
D03*
X16891000Y11176000D02*
D03*
Y7620000D02*
D03*
X16764000Y7366000D02*
D03*
X16891000Y7112000D02*
D03*
Y6604000D02*
D03*
Y6096000D02*
D03*
Y5588000D02*
D03*
Y5080000D02*
D03*
Y4572000D02*
D03*
Y4064000D02*
D03*
X16764000Y3810000D02*
D03*
X16891000Y3556000D02*
D03*
X16510001Y10414000D02*
D03*
Y8890000D02*
D03*
Y8382000D02*
D03*
X16637000Y3556000D02*
D03*
X16383000Y9652000D02*
D03*
X16256000Y8382000D02*
D03*
Y6350000D02*
D03*
Y5842000D02*
D03*
X16383000Y5588000D02*
D03*
X16256000Y5334000D02*
D03*
X16383000Y3556000D02*
D03*
X16128999Y10668000D02*
D03*
X16002000Y7874000D02*
D03*
X16128999Y7620000D02*
D03*
Y6096000D02*
D03*
X16002000Y5842000D02*
D03*
X16128999Y5588000D02*
D03*
X16002000Y5334000D02*
D03*
Y4826000D02*
D03*
Y3810000D02*
D03*
X15875000Y7112000D02*
D03*
X15748000Y5842000D02*
D03*
Y5334000D02*
D03*
X15875000Y4572000D02*
D03*
X15748000Y4318000D02*
D03*
X15875000Y4064000D02*
D03*
X15621001Y10668000D02*
D03*
Y8636000D02*
D03*
X15494000Y6350000D02*
D03*
Y5334000D02*
D03*
X15621001Y4572000D02*
D03*
X15494000Y4318000D02*
D03*
Y3810000D02*
D03*
X15367000Y10668000D02*
D03*
X15239999Y10414000D02*
D03*
X15367000Y10160000D02*
D03*
X15239999Y7874000D02*
D03*
X15367000Y6604000D02*
D03*
X15239999Y6350000D02*
D03*
Y5842000D02*
D03*
Y5334000D02*
D03*
X15367000Y5080000D02*
D03*
X15239999Y4826000D02*
D03*
X15367000Y4572000D02*
D03*
X15239999Y4318000D02*
D03*
Y3810000D02*
D03*
X15113000Y10668000D02*
D03*
Y10160000D02*
D03*
X14986000Y9906000D02*
D03*
X15113000Y9652000D02*
D03*
X14986000Y9398000D02*
D03*
X15113000Y8128000D02*
D03*
Y7620000D02*
D03*
X14986000Y6350000D02*
D03*
Y5334000D02*
D03*
X15113000Y5080000D02*
D03*
X14986000Y4826000D02*
D03*
Y3810000D02*
D03*
X14859000Y10160000D02*
D03*
X14732001Y9906000D02*
D03*
X14859000Y9652000D02*
D03*
X14732001Y9398000D02*
D03*
Y5842000D02*
D03*
X14859000Y5588000D02*
D03*
X14732001Y5334000D02*
D03*
X14859000Y5080000D02*
D03*
X14732001Y4826000D02*
D03*
X14859000Y4572000D02*
D03*
X14732001Y4318000D02*
D03*
Y3810000D02*
D03*
X14605000Y10668000D02*
D03*
X14478000Y10414000D02*
D03*
X14605000Y10160000D02*
D03*
X14478000Y9906000D02*
D03*
X14605000Y9652000D02*
D03*
X14478000Y9398000D02*
D03*
X14605000Y9144000D02*
D03*
X14478000Y5842000D02*
D03*
X14605000Y5588000D02*
D03*
X14478000Y5334000D02*
D03*
X14605000Y5080000D02*
D03*
Y4572000D02*
D03*
X14478000Y4318000D02*
D03*
Y3810000D02*
D03*
X14350999Y10668000D02*
D03*
X14224001Y10414000D02*
D03*
X14350999Y10160000D02*
D03*
X14224001Y9906000D02*
D03*
X14350999Y9652000D02*
D03*
X14224001Y9398000D02*
D03*
X14350999Y9144000D02*
D03*
Y5588000D02*
D03*
Y5080000D02*
D03*
X14224001Y4318000D02*
D03*
Y3810000D02*
D03*
X14097000Y10668000D02*
D03*
X13970000Y10414000D02*
D03*
X14097000Y10160000D02*
D03*
X13970000Y9906000D02*
D03*
X14097000Y9652000D02*
D03*
X13970000Y9398000D02*
D03*
X14097000Y9144000D02*
D03*
Y8636000D02*
D03*
X13970000Y6350000D02*
D03*
Y4318000D02*
D03*
Y3810000D02*
D03*
X13842999Y10668000D02*
D03*
X13716000Y10414000D02*
D03*
X13842999Y9652000D02*
D03*
Y9144000D02*
D03*
Y8636000D02*
D03*
X13716000Y5842000D02*
D03*
Y5334000D02*
D03*
Y4318000D02*
D03*
Y3810000D02*
D03*
X13589000Y10668000D02*
D03*
X13462000Y10414000D02*
D03*
X13589000Y8636000D02*
D03*
X13462000Y7366000D02*
D03*
X13589000Y6096000D02*
D03*
X13462000Y5842000D02*
D03*
Y3810000D02*
D03*
X13335001Y10668000D02*
D03*
X13208000Y10414000D02*
D03*
X13335001Y9652000D02*
D03*
X13208000Y9398000D02*
D03*
X13335001Y9144000D02*
D03*
X13208000Y6350000D02*
D03*
X13335001Y6096000D02*
D03*
X13208000Y5842000D02*
D03*
Y3810000D02*
D03*
X13081000Y10668000D02*
D03*
X12953999Y10414000D02*
D03*
X13081000Y9652000D02*
D03*
X12953999Y8890000D02*
D03*
X13081000Y7112000D02*
D03*
X12953999Y6858000D02*
D03*
X13081000Y6604000D02*
D03*
X12953999Y6350000D02*
D03*
X13081000Y6096000D02*
D03*
X12953999Y5842000D02*
D03*
Y4318000D02*
D03*
X12827000Y10668000D02*
D03*
X12700000Y10414000D02*
D03*
Y9398000D02*
D03*
Y8890000D02*
D03*
Y8382000D02*
D03*
Y6858000D02*
D03*
X12827000Y6604000D02*
D03*
X12700000Y6350000D02*
D03*
X12827000Y6096000D02*
D03*
X12700000Y4826000D02*
D03*
Y4318000D02*
D03*
X12573000Y10668000D02*
D03*
X12446000Y10414000D02*
D03*
X12573000Y10160000D02*
D03*
X12446000Y9906000D02*
D03*
Y9398000D02*
D03*
X12573000Y9144000D02*
D03*
X12446000Y8890000D02*
D03*
Y8382000D02*
D03*
X12573000Y8128000D02*
D03*
Y6604000D02*
D03*
X12446000Y6350000D02*
D03*
X12573000Y6096000D02*
D03*
X12446000Y4826000D02*
D03*
X12573000Y4572000D02*
D03*
X12446000Y4318000D02*
D03*
X12319000Y10668000D02*
D03*
X12192000Y10414000D02*
D03*
X12319000Y10160000D02*
D03*
X12192000Y9906000D02*
D03*
Y9398000D02*
D03*
X12319000Y9144000D02*
D03*
X12192000Y8890000D02*
D03*
Y8382000D02*
D03*
X12319000Y8128000D02*
D03*
X12192000Y7366000D02*
D03*
Y6858000D02*
D03*
Y6350000D02*
D03*
X12319000Y6096000D02*
D03*
X12192000Y5842000D02*
D03*
Y5334000D02*
D03*
X12319000Y5080000D02*
D03*
X12192000Y4826000D02*
D03*
X12319000Y4572000D02*
D03*
X12192000Y4318000D02*
D03*
X12065000Y10668000D02*
D03*
X11938000Y10414000D02*
D03*
X12065000Y10160000D02*
D03*
X11938000Y9906000D02*
D03*
Y9398000D02*
D03*
X12065000Y9144000D02*
D03*
X11938000Y8890000D02*
D03*
X12065000Y8636000D02*
D03*
X11938000Y8382000D02*
D03*
Y7874000D02*
D03*
X12065000Y7620000D02*
D03*
X11938000Y7366000D02*
D03*
X12065000Y7112000D02*
D03*
X11938000Y6858000D02*
D03*
X12065000Y6096000D02*
D03*
X11938000Y5842000D02*
D03*
X12065000Y4572000D02*
D03*
X11938000Y4318000D02*
D03*
X11811000Y10668000D02*
D03*
X11684000Y10414000D02*
D03*
X11811000Y10160000D02*
D03*
X11684000Y9906000D02*
D03*
Y9398000D02*
D03*
X11811000Y9144000D02*
D03*
X11684000Y8890000D02*
D03*
X11811000Y8636000D02*
D03*
X11684000Y8382000D02*
D03*
X11811000Y8128000D02*
D03*
Y7620000D02*
D03*
X11684000Y7366000D02*
D03*
X11811000Y7112000D02*
D03*
X11684000Y6858000D02*
D03*
X11811000Y6604000D02*
D03*
X11684000Y6350000D02*
D03*
Y5842000D02*
D03*
X11811000Y5588000D02*
D03*
Y5080000D02*
D03*
X11684000Y4826000D02*
D03*
X11811000Y4572000D02*
D03*
X11684000Y4318000D02*
D03*
X11557000Y10668000D02*
D03*
X11430000Y10414000D02*
D03*
X11557000Y10160000D02*
D03*
X11430000Y9906000D02*
D03*
Y9398000D02*
D03*
X11557000Y9144000D02*
D03*
X11430000Y8890000D02*
D03*
X11557000Y8636000D02*
D03*
X11430000Y8382000D02*
D03*
X11557000Y8128000D02*
D03*
Y7620000D02*
D03*
X11430000Y7366000D02*
D03*
X11557000Y7112000D02*
D03*
X11430000Y6858000D02*
D03*
X11557000Y6604000D02*
D03*
X11430000Y6350000D02*
D03*
Y5842000D02*
D03*
Y4826000D02*
D03*
Y4318000D02*
D03*
X11303000Y10668000D02*
D03*
Y10160000D02*
D03*
X11176000Y9398000D02*
D03*
X11303000Y9144000D02*
D03*
Y8636000D02*
D03*
Y8128000D02*
D03*
Y7620000D02*
D03*
X11176000Y7366000D02*
D03*
X11303000Y7112000D02*
D03*
Y6604000D02*
D03*
X11176000Y5842000D02*
D03*
X11303000Y5588000D02*
D03*
Y5080000D02*
D03*
X11176000Y4318000D02*
D03*
X11049000Y10668000D02*
D03*
X10922000Y10414000D02*
D03*
Y9906000D02*
D03*
X11049000Y9144000D02*
D03*
Y8636000D02*
D03*
X10922000Y8382000D02*
D03*
Y7874000D02*
D03*
X11049000Y7620000D02*
D03*
X10922000Y7366000D02*
D03*
Y6858000D02*
D03*
Y6350000D02*
D03*
Y5842000D02*
D03*
X11049000Y5588000D02*
D03*
X10922000Y4826000D02*
D03*
X10668000Y10922000D02*
D03*
X10795000Y9652000D02*
D03*
Y9144000D02*
D03*
Y8636000D02*
D03*
X10668000Y8382000D02*
D03*
Y7874000D02*
D03*
Y7366000D02*
D03*
Y6858000D02*
D03*
Y6350000D02*
D03*
X10795000Y6096000D02*
D03*
Y5588000D02*
D03*
Y5080000D02*
D03*
Y4572000D02*
D03*
X10668000Y4318000D02*
D03*
X10795000Y4064000D02*
D03*
X10414000Y10922000D02*
D03*
X10541000Y10668000D02*
D03*
Y10160000D02*
D03*
Y8636000D02*
D03*
Y6096000D02*
D03*
Y5080000D02*
D03*
X10414000Y4826000D02*
D03*
X10541000Y4572000D02*
D03*
Y4064000D02*
D03*
X10160000Y10922000D02*
D03*
X10287000Y10668000D02*
D03*
X10160000Y10414000D02*
D03*
Y9906000D02*
D03*
X10287000Y9144000D02*
D03*
X10160000Y8890000D02*
D03*
Y8382000D02*
D03*
Y7874000D02*
D03*
Y7366000D02*
D03*
X10287000Y7112000D02*
D03*
X10160000Y6858000D02*
D03*
Y5842000D02*
D03*
X10287000Y5588000D02*
D03*
X10160000Y5334000D02*
D03*
X10287000Y5080000D02*
D03*
X10160000Y4826000D02*
D03*
X10287000Y4572000D02*
D03*
X10160000Y4318000D02*
D03*
X9906000Y10922000D02*
D03*
X10033000Y10668000D02*
D03*
X9906000Y10414000D02*
D03*
X10033000Y10160000D02*
D03*
X9906000Y9906000D02*
D03*
X10033000Y9652000D02*
D03*
X9906000Y9398000D02*
D03*
Y8890000D02*
D03*
X10033000Y8636000D02*
D03*
X9906000Y8382000D02*
D03*
X10033000Y8128000D02*
D03*
X9906000Y7874000D02*
D03*
Y3810000D02*
D03*
X10033000Y3556000D02*
D03*
X9779000Y11176000D02*
D03*
Y10668000D02*
D03*
X9652000Y10414000D02*
D03*
X9779000Y10160000D02*
D03*
X9652000Y9906000D02*
D03*
X9779000Y9652000D02*
D03*
X9652000Y9398000D02*
D03*
X9779000Y9144000D02*
D03*
Y8636000D02*
D03*
X9652000Y8382000D02*
D03*
X9779000Y8128000D02*
D03*
X9652000Y7874000D02*
D03*
X9779000Y7620000D02*
D03*
X9652000Y7366000D02*
D03*
X9779000Y7112000D02*
D03*
X9652000Y6858000D02*
D03*
X9779000Y6604000D02*
D03*
X9652000Y6350000D02*
D03*
X9779000Y6096000D02*
D03*
Y5588000D02*
D03*
X9652000Y5334000D02*
D03*
X9779000Y5080000D02*
D03*
X9652000Y4826000D02*
D03*
X9779000Y4572000D02*
D03*
Y3556000D02*
D03*
X9525000Y11176000D02*
D03*
X9398000Y10922000D02*
D03*
X9525000Y10160000D02*
D03*
X9398000Y9906000D02*
D03*
X9525000Y9652000D02*
D03*
Y9144000D02*
D03*
Y8636000D02*
D03*
X9398000Y8382000D02*
D03*
X9525000Y8128000D02*
D03*
X9398000Y7874000D02*
D03*
X9525000Y7620000D02*
D03*
X9398000Y7366000D02*
D03*
X9525000Y7112000D02*
D03*
X9398000Y6858000D02*
D03*
X9525000Y6604000D02*
D03*
X9398000Y6350000D02*
D03*
X9525000Y6096000D02*
D03*
Y5080000D02*
D03*
X9398000Y4826000D02*
D03*
Y4318000D02*
D03*
Y3810000D02*
D03*
X9525000Y3556000D02*
D03*
X9271000Y11176000D02*
D03*
X9144000Y10922000D02*
D03*
X9271000Y10160000D02*
D03*
X9144000Y9906000D02*
D03*
X9271000Y9652000D02*
D03*
X9144000Y9398000D02*
D03*
X9271000Y9144000D02*
D03*
Y8636000D02*
D03*
X9144000Y8382000D02*
D03*
X9271000Y8128000D02*
D03*
X9144000Y7874000D02*
D03*
Y7366000D02*
D03*
Y6858000D02*
D03*
X9271000Y6604000D02*
D03*
X9144000Y6350000D02*
D03*
X9271000Y6096000D02*
D03*
Y5588000D02*
D03*
Y5080000D02*
D03*
X9144000Y4318000D02*
D03*
Y3810000D02*
D03*
X9271000Y3556000D02*
D03*
X9017000Y10668000D02*
D03*
X8890000Y10414000D02*
D03*
X9017000Y10160000D02*
D03*
X8890000Y9906000D02*
D03*
X9017000Y9652000D02*
D03*
X8890000Y9398000D02*
D03*
X9017000Y9144000D02*
D03*
X8890000Y8890000D02*
D03*
X9017000Y8636000D02*
D03*
X8890000Y8382000D02*
D03*
X9017000Y8128000D02*
D03*
X8890000Y7874000D02*
D03*
X9017000Y7620000D02*
D03*
X8890000Y7366000D02*
D03*
X9017000Y7112000D02*
D03*
Y6604000D02*
D03*
Y6096000D02*
D03*
X8890000Y4826000D02*
D03*
X9017000Y4572000D02*
D03*
X8890000Y4318000D02*
D03*
X9017000Y4064000D02*
D03*
X8763000Y10668000D02*
D03*
X8636000Y10414000D02*
D03*
X8763000Y10160000D02*
D03*
X8636000Y9906000D02*
D03*
X8763000Y9652000D02*
D03*
X8636000Y9398000D02*
D03*
X8763000Y9144000D02*
D03*
X8636000Y8890000D02*
D03*
X8763000Y8636000D02*
D03*
X8636000Y8382000D02*
D03*
X8763000Y8128000D02*
D03*
X8636000Y7874000D02*
D03*
X8763000Y7620000D02*
D03*
X8636000Y7366000D02*
D03*
X8763000Y7112000D02*
D03*
X8636000Y6858000D02*
D03*
X8763000Y6604000D02*
D03*
X8636000Y6350000D02*
D03*
X8763000Y6096000D02*
D03*
X8636000Y5842000D02*
D03*
X8763000Y5588000D02*
D03*
X8636000Y5334000D02*
D03*
X8763000Y5080000D02*
D03*
X8636000Y4826000D02*
D03*
X8763000Y4572000D02*
D03*
X8636000Y4318000D02*
D03*
X8763000Y4064000D02*
D03*
X14089999Y7910000D02*
D03*
X13470000Y8000000D02*
D03*
D51*
X17400000Y3650000D02*
D03*
X8800000D02*
D03*
Y11050000D02*
D03*
X14900000Y10450000D02*
D03*
%TF.MD5,f3a97fe7cf389c15d4b5ed85d042e66a*%
M02*
