%TF.GenerationSoftware,Altium Limited,Altium Designer,25.3.3 (18)*%
G04 Layer_Color=16711935*
%FSLAX45Y45*%
%MOMM*%
%TF.SameCoordinates,ACD2DE35-000D-4175-8758-006393140AE5*%
%TF.FilePolarity,Negative*%
%TF.FileFunction,Soldermask,Bot*%
%TF.Part,Single*%
G01*
G75*
%TA.AperFunction,SMDPad,CuDef*%
%ADD15R,1.01213X1.15814*%
%ADD17R,1.15814X1.01213*%
%TA.AperFunction,ComponentPad*%
%ADD39C,2.00000*%
%ADD40R,2.00000X2.00000*%
%ADD46R,2.75000X2.75000*%
%ADD47C,2.75000*%
%TA.AperFunction,ViaPad*%
%ADD51C,5.00000*%
%TA.AperFunction,ComponentPad*%
%ADD68C,1.80320*%
%ADD69R,1.80320X1.80320*%
%ADD70C,2.90320*%
G04:AMPARAMS|DCode=71|XSize=2.9032mm|YSize=2.9032mm|CornerRadius=0.7766mm|HoleSize=0mm|Usage=FLASHONLY|Rotation=90.000|XOffset=0mm|YOffset=0mm|HoleType=Round|Shape=RoundedRectangle|*
%AMROUNDEDRECTD71*
21,1,2.90320,1.35000,0,0,90.0*
21,1,1.35000,2.90320,0,0,90.0*
1,1,1.55320,0.67500,0.67500*
1,1,1.55320,0.67500,-0.67500*
1,1,1.55320,-0.67500,-0.67500*
1,1,1.55320,-0.67500,0.67500*
%
%ADD71ROUNDEDRECTD71*%
%ADD72C,3.20320*%
%ADD73R,1.75320X1.75320*%
%ADD74C,1.75320*%
D15*
X13320000Y7607301D02*
D03*
Y7772699D02*
D03*
D17*
X13527301Y8150000D02*
D03*
X13692699D02*
D03*
X13972699Y7410000D02*
D03*
X13807301D02*
D03*
D39*
X10693298Y6515100D02*
D03*
X10493299Y7115099D02*
D03*
Y5915101D02*
D03*
X9273301D02*
D03*
X10505999Y10518699D02*
D03*
Y9318701D02*
D03*
X9286001D02*
D03*
X10705998Y9918700D02*
D03*
X9273301Y4213301D02*
D03*
X10493299D02*
D03*
Y5413299D02*
D03*
X10693298Y4813300D02*
D03*
X9286001Y7616901D02*
D03*
X10505999D02*
D03*
Y8816899D02*
D03*
X10705998Y8216900D02*
D03*
D40*
X9273301Y7115099D02*
D03*
X9286001Y10518699D02*
D03*
X9273301Y5413299D02*
D03*
X9286001Y8816899D02*
D03*
D46*
X16306799Y5131699D02*
D03*
D47*
X15756799D02*
D03*
X16306799Y4711700D02*
D03*
X15756799D02*
D03*
D51*
X17400000Y3650000D02*
D03*
X8800000D02*
D03*
Y11050000D02*
D03*
X14900000Y10450000D02*
D03*
D68*
X13808000Y9960000D02*
D03*
X13553999D02*
D03*
X13300000D02*
D03*
X13046001D02*
D03*
X13808000Y10214000D02*
D03*
X13553999D02*
D03*
X13300000D02*
D03*
X13046001D02*
D03*
X12792000D02*
D03*
D69*
Y9960000D02*
D03*
D70*
X16361501Y6091499D02*
D03*
X15811501D02*
D03*
Y6511498D02*
D03*
Y6931503D02*
D03*
Y7351502D02*
D03*
Y7771501D02*
D03*
Y8191500D02*
D03*
Y8611499D02*
D03*
Y9031498D02*
D03*
Y9451503D02*
D03*
Y9871502D02*
D03*
Y10291501D02*
D03*
Y10711500D02*
D03*
X16361501Y6511498D02*
D03*
Y7351502D02*
D03*
Y9031498D02*
D03*
Y10291501D02*
D03*
Y9871502D02*
D03*
Y9451503D02*
D03*
Y8611499D02*
D03*
Y8191500D02*
D03*
Y7771501D02*
D03*
Y6931503D02*
D03*
D71*
Y10711500D02*
D03*
D72*
X17091502D02*
D03*
Y6091499D02*
D03*
D73*
X12344400Y8724900D02*
D03*
D74*
X12598400D02*
D03*
X12852400D02*
D03*
%TF.MD5,0cc03013c9a33167ee06ff296491dae5*%
M02*
