%TF.GenerationSoftware,Altium Limited,Altium Designer,24.9.1 (31)*%
G04 Layer_Color=32896*
%FSLAX45Y45*%
%MOMM*%
%TF.SameCoordinates,83ADD26A-4C95-4E02-96E4-27C39B5E4718*%
%TF.FilePolarity,Positive*%
%TF.FileFunction,Other,Bottom_Assembly*%
%TF.Part,Single*%
G01*
G75*
%TA.AperFunction,NonConductor*%
%ADD47C,0.20000*%
G36*
X13476958Y8215273D02*
X13478529Y8215180D01*
X13480008Y8214903D01*
X13481395Y8214625D01*
X13482689Y8214256D01*
X13483891Y8213886D01*
X13485001Y8213424D01*
X13486018Y8212961D01*
X13486942Y8212499D01*
X13487682Y8212037D01*
X13488329Y8211667D01*
X13488884Y8211297D01*
X13489346Y8211020D01*
X13489624Y8210742D01*
X13489809Y8210650D01*
X13489902Y8210557D01*
X13490825Y8209633D01*
X13491658Y8208616D01*
X13492490Y8207506D01*
X13493137Y8206397D01*
X13494246Y8204178D01*
X13494986Y8201959D01*
X13495264Y8200942D01*
X13495541Y8199925D01*
X13495726Y8199093D01*
X13495911Y8198353D01*
X13496004Y8197706D01*
Y8197244D01*
X13496095Y8196966D01*
Y8196874D01*
X13488052Y8196042D01*
X13487868Y8198168D01*
X13487497Y8200017D01*
X13486942Y8201682D01*
X13486295Y8202976D01*
X13485741Y8204085D01*
X13485185Y8204825D01*
X13484816Y8205287D01*
X13484631Y8205472D01*
X13483244Y8206582D01*
X13481766Y8207414D01*
X13480193Y8208061D01*
X13478806Y8208431D01*
X13477512Y8208708D01*
X13476402Y8208801D01*
X13476031Y8208893D01*
X13475478D01*
X13473537Y8208801D01*
X13471780Y8208431D01*
X13470300Y8207876D01*
X13469006Y8207321D01*
X13467989Y8206674D01*
X13467342Y8206212D01*
X13466879Y8205842D01*
X13466695Y8205657D01*
X13465585Y8204363D01*
X13464754Y8203068D01*
X13464107Y8201774D01*
X13463736Y8200480D01*
X13463458Y8199463D01*
X13463367Y8198538D01*
X13463274Y8197983D01*
Y8197891D01*
Y8197798D01*
X13463458Y8196134D01*
X13463828Y8194378D01*
X13464474Y8192806D01*
X13465123Y8191327D01*
X13465862Y8190125D01*
X13466510Y8189108D01*
X13466695Y8188738D01*
X13466879Y8188460D01*
X13467064Y8188368D01*
Y8188275D01*
X13467804Y8187258D01*
X13468729Y8186241D01*
X13469745Y8185132D01*
X13470856Y8184022D01*
X13473166Y8181804D01*
X13475478Y8179585D01*
X13476680Y8178568D01*
X13477698Y8177643D01*
X13478714Y8176811D01*
X13479546Y8176071D01*
X13480193Y8175517D01*
X13480748Y8175054D01*
X13481117Y8174777D01*
X13481210Y8174684D01*
X13483521Y8172743D01*
X13485648Y8170894D01*
X13487405Y8169230D01*
X13488791Y8167843D01*
X13489993Y8166641D01*
X13490825Y8165809D01*
X13491289Y8165254D01*
X13491473Y8165161D01*
Y8165069D01*
X13492767Y8163497D01*
X13493784Y8162018D01*
X13494708Y8160539D01*
X13495448Y8159244D01*
X13496004Y8158135D01*
X13496373Y8157303D01*
X13496558Y8156748D01*
X13496651Y8156656D01*
Y8156563D01*
X13497020Y8155546D01*
X13497205Y8154621D01*
X13497391Y8153697D01*
X13497482Y8152865D01*
X13497575Y8152125D01*
Y8151570D01*
Y8151201D01*
Y8151108D01*
X13455138D01*
Y8158690D01*
X13486665D01*
X13485555Y8160261D01*
X13485001Y8160908D01*
X13484538Y8161556D01*
X13484076Y8162110D01*
X13483707Y8162480D01*
X13483429Y8162758D01*
X13483337Y8162850D01*
X13482874Y8163312D01*
X13482320Y8163775D01*
X13481026Y8164977D01*
X13479546Y8166363D01*
X13477974Y8167750D01*
X13476495Y8168952D01*
X13475848Y8169507D01*
X13475293Y8170062D01*
X13474831Y8170431D01*
X13474461Y8170709D01*
X13474277Y8170894D01*
X13474184Y8170986D01*
X13472704Y8172281D01*
X13471225Y8173483D01*
X13469930Y8174684D01*
X13468729Y8175701D01*
X13467619Y8176718D01*
X13466695Y8177643D01*
X13465770Y8178475D01*
X13465030Y8179215D01*
X13464291Y8179954D01*
X13463736Y8180509D01*
X13463274Y8180971D01*
X13462811Y8181434D01*
X13462349Y8181988D01*
X13462164Y8182173D01*
X13460870Y8183745D01*
X13459760Y8185132D01*
X13458836Y8186519D01*
X13458096Y8187628D01*
X13457541Y8188645D01*
X13457172Y8189385D01*
X13456987Y8189847D01*
X13456894Y8190032D01*
X13456339Y8191419D01*
X13455969Y8192806D01*
X13455600Y8194100D01*
X13455415Y8195210D01*
X13455322Y8196227D01*
X13455231Y8196966D01*
Y8197429D01*
Y8197614D01*
X13455322Y8199000D01*
X13455507Y8200295D01*
X13455692Y8201589D01*
X13456062Y8202699D01*
X13456987Y8204918D01*
X13457912Y8206674D01*
X13458466Y8207506D01*
X13458928Y8208154D01*
X13459390Y8208801D01*
X13459853Y8209263D01*
X13460223Y8209633D01*
X13460406Y8210003D01*
X13460593Y8210095D01*
X13460686Y8210188D01*
X13461702Y8211112D01*
X13462811Y8211944D01*
X13464014Y8212591D01*
X13465215Y8213146D01*
X13467619Y8214071D01*
X13470023Y8214718D01*
X13471040Y8214903D01*
X13472057Y8215088D01*
X13472981Y8215180D01*
X13473721Y8215273D01*
X13474368Y8215365D01*
X13475293D01*
X13476958Y8215273D01*
D02*
G37*
G36*
X13522630Y8213793D02*
X13523647Y8212314D01*
X13524849Y8210835D01*
X13525958Y8209540D01*
X13527068Y8208431D01*
X13527901Y8207506D01*
X13528270Y8207229D01*
X13528548Y8206952D01*
X13528641Y8206859D01*
X13528732Y8206767D01*
X13530675Y8205195D01*
X13532616Y8203716D01*
X13534465Y8202421D01*
X13536314Y8201404D01*
X13537886Y8200480D01*
X13538533Y8200110D01*
X13539087Y8199832D01*
X13539549Y8199555D01*
X13539920Y8199463D01*
X13540105Y8199278D01*
X13540198D01*
Y8191696D01*
X13538811Y8192251D01*
X13537424Y8192898D01*
X13536037Y8193545D01*
X13534743Y8194193D01*
X13533633Y8194747D01*
X13532709Y8195210D01*
X13532153Y8195579D01*
X13532060Y8195672D01*
X13531969D01*
X13530304Y8196689D01*
X13528825Y8197706D01*
X13527530Y8198631D01*
X13526514Y8199463D01*
X13525589Y8200110D01*
X13525034Y8200665D01*
X13524573Y8201034D01*
X13524480Y8201127D01*
Y8151108D01*
X13516621D01*
Y8215365D01*
X13521706D01*
X13522630Y8213793D01*
D02*
G37*
G36*
X13582912Y8216012D02*
X13585870Y8215550D01*
X13588458Y8214995D01*
X13589661Y8214625D01*
X13590770Y8214256D01*
X13591788Y8213886D01*
X13592712Y8213516D01*
X13593452Y8213239D01*
X13594191Y8212961D01*
X13594653Y8212684D01*
X13595023Y8212499D01*
X13595300Y8212406D01*
X13595393Y8212314D01*
X13597890Y8210742D01*
X13600015Y8208893D01*
X13601865Y8207044D01*
X13603436Y8205195D01*
X13604639Y8203531D01*
X13605101Y8202791D01*
X13605470Y8202144D01*
X13605841Y8201682D01*
X13606026Y8201312D01*
X13606117Y8201034D01*
X13606210Y8200942D01*
X13607504Y8198076D01*
X13608429Y8195117D01*
X13609077Y8192159D01*
X13609538Y8189477D01*
X13609724Y8188275D01*
X13609816Y8187074D01*
X13609909Y8186149D01*
Y8185224D01*
X13610001Y8184577D01*
Y8184022D01*
Y8183653D01*
Y8183560D01*
X13609816Y8180232D01*
X13609447Y8176996D01*
X13608984Y8174130D01*
X13608614Y8172743D01*
X13608337Y8171541D01*
X13608060Y8170431D01*
X13607690Y8169414D01*
X13607413Y8168490D01*
X13607228Y8167750D01*
X13606950Y8167196D01*
X13606857Y8166733D01*
X13606673Y8166456D01*
Y8166363D01*
X13605286Y8163590D01*
X13603714Y8161093D01*
X13602049Y8158967D01*
X13601218Y8158135D01*
X13600478Y8157303D01*
X13599739Y8156563D01*
X13598999Y8155916D01*
X13598352Y8155361D01*
X13597797Y8154991D01*
X13597427Y8154621D01*
X13597057Y8154344D01*
X13596872Y8154252D01*
X13596780Y8154159D01*
X13595486Y8153420D01*
X13594191Y8152772D01*
X13591418Y8151755D01*
X13588644Y8151016D01*
X13585963Y8150553D01*
X13584668Y8150369D01*
X13583559Y8150184D01*
X13582542Y8150091D01*
X13581709D01*
X13580969Y8149999D01*
X13579953D01*
X13578104Y8150091D01*
X13576347Y8150276D01*
X13574683Y8150461D01*
X13573111Y8150831D01*
X13571632Y8151293D01*
X13570245Y8151755D01*
X13568951Y8152218D01*
X13567749Y8152772D01*
X13566731Y8153235D01*
X13565715Y8153697D01*
X13564975Y8154159D01*
X13564236Y8154621D01*
X13563773Y8154991D01*
X13563310Y8155176D01*
X13563126Y8155361D01*
X13563034Y8155454D01*
X13561739Y8156563D01*
X13560629Y8157673D01*
X13559613Y8158967D01*
X13558595Y8160261D01*
X13556931Y8162850D01*
X13555637Y8165439D01*
X13555083Y8166641D01*
X13554620Y8167750D01*
X13554250Y8168767D01*
X13553973Y8169599D01*
X13553696Y8170339D01*
X13553511Y8170894D01*
X13553418Y8171264D01*
Y8171356D01*
X13561925Y8173483D01*
X13562294Y8172003D01*
X13562756Y8170616D01*
X13563219Y8169322D01*
X13563681Y8168120D01*
X13564236Y8167011D01*
X13564790Y8166086D01*
X13565437Y8165161D01*
X13565993Y8164329D01*
X13566454Y8163590D01*
X13567009Y8163035D01*
X13567471Y8162480D01*
X13567841Y8162018D01*
X13568211Y8161741D01*
X13568488Y8161463D01*
X13568581Y8161371D01*
X13568674Y8161278D01*
X13569598Y8160539D01*
X13570615Y8159984D01*
X13572649Y8158967D01*
X13574591Y8158227D01*
X13576532Y8157765D01*
X13578197Y8157395D01*
X13578844Y8157303D01*
X13579491D01*
X13580045Y8157210D01*
X13580693D01*
X13582819Y8157303D01*
X13584853Y8157673D01*
X13586702Y8158135D01*
X13588367Y8158690D01*
X13589661Y8159244D01*
X13590216Y8159522D01*
X13590678Y8159707D01*
X13591048Y8159891D01*
X13591325Y8160076D01*
X13591510Y8160169D01*
X13591602D01*
X13593359Y8161463D01*
X13594838Y8162850D01*
X13596133Y8164422D01*
X13597150Y8165901D01*
X13597981Y8167196D01*
X13598537Y8168305D01*
X13598721Y8168767D01*
X13598907Y8169045D01*
X13598999Y8169230D01*
Y8169322D01*
X13599739Y8171726D01*
X13600293Y8174130D01*
X13600755Y8176534D01*
X13601033Y8178753D01*
X13601125Y8179770D01*
X13601218Y8180694D01*
Y8181526D01*
X13601311Y8182173D01*
Y8182728D01*
Y8183190D01*
Y8183468D01*
Y8183560D01*
X13601218Y8185964D01*
X13601033Y8188183D01*
X13600664Y8190217D01*
X13600293Y8192066D01*
X13600015Y8193638D01*
X13599831Y8194285D01*
X13599646Y8194840D01*
X13599554Y8195302D01*
X13599461Y8195579D01*
X13599368Y8195764D01*
Y8195857D01*
X13598444Y8197983D01*
X13597427Y8199925D01*
X13596318Y8201497D01*
X13595116Y8202884D01*
X13594099Y8203993D01*
X13593266Y8204733D01*
X13592619Y8205195D01*
X13592526Y8205380D01*
X13592435D01*
X13590492Y8206582D01*
X13588367Y8207506D01*
X13586333Y8208154D01*
X13584390Y8208523D01*
X13582634Y8208801D01*
X13581895Y8208893D01*
X13581247D01*
X13580785Y8208986D01*
X13580045D01*
X13577734Y8208893D01*
X13575607Y8208523D01*
X13573851Y8207969D01*
X13572279Y8207414D01*
X13571077Y8206767D01*
X13570152Y8206304D01*
X13569598Y8205935D01*
X13569414Y8205750D01*
X13567934Y8204363D01*
X13566547Y8202791D01*
X13565437Y8201127D01*
X13564513Y8199463D01*
X13563773Y8197983D01*
X13563496Y8197244D01*
X13563310Y8196689D01*
X13563126Y8196227D01*
X13562941Y8195857D01*
X13562849Y8195672D01*
Y8195579D01*
X13554527Y8197521D01*
X13555083Y8199185D01*
X13555637Y8200665D01*
X13556377Y8202051D01*
X13557024Y8203438D01*
X13557764Y8204640D01*
X13558595Y8205750D01*
X13559335Y8206859D01*
X13560075Y8207784D01*
X13560815Y8208523D01*
X13561462Y8209263D01*
X13562109Y8209910D01*
X13562572Y8210372D01*
X13563034Y8210835D01*
X13563403Y8211112D01*
X13563588Y8211205D01*
X13563681Y8211297D01*
X13564975Y8212129D01*
X13566270Y8212961D01*
X13567564Y8213608D01*
X13568951Y8214163D01*
X13571724Y8214995D01*
X13574220Y8215550D01*
X13575423Y8215827D01*
X13576440Y8215920D01*
X13577457Y8216012D01*
X13578288Y8216105D01*
X13578935Y8216197D01*
X13579861D01*
X13582912Y8216012D01*
D02*
G37*
G36*
X13289767Y7689816D02*
X13293004Y7689447D01*
X13295869Y7688984D01*
X13297256Y7688615D01*
X13298459Y7688337D01*
X13299570Y7688060D01*
X13300586Y7687690D01*
X13301511Y7687413D01*
X13302251Y7687228D01*
X13302805Y7686950D01*
X13303267Y7686858D01*
X13303545Y7686673D01*
X13303638D01*
X13306410Y7685286D01*
X13308907Y7683714D01*
X13311034Y7682050D01*
X13311865Y7681218D01*
X13312697Y7680478D01*
X13313437Y7679739D01*
X13314084Y7678999D01*
X13314639Y7678352D01*
X13315009Y7677797D01*
X13315378Y7677427D01*
X13315656Y7677058D01*
X13315749Y7676873D01*
X13315842Y7676780D01*
X13316580Y7675486D01*
X13317229Y7674191D01*
X13318245Y7671418D01*
X13318983Y7668644D01*
X13319447Y7665963D01*
X13319630Y7664668D01*
X13319817Y7663559D01*
X13319910Y7662542D01*
Y7661710D01*
X13320001Y7660970D01*
Y7659953D01*
X13319910Y7658104D01*
X13319724Y7656347D01*
X13319539Y7654683D01*
X13319170Y7653111D01*
X13318707Y7651632D01*
X13318245Y7650245D01*
X13317783Y7648951D01*
X13317229Y7647749D01*
X13316765Y7646732D01*
X13316302Y7645715D01*
X13315842Y7644975D01*
X13315378Y7644236D01*
X13315009Y7643773D01*
X13314824Y7643311D01*
X13314639Y7643126D01*
X13314546Y7643034D01*
X13313437Y7641739D01*
X13312328Y7640630D01*
X13311034Y7639613D01*
X13309740Y7638596D01*
X13307150Y7636932D01*
X13304561Y7635637D01*
X13303358Y7635083D01*
X13302251Y7634620D01*
X13301233Y7634250D01*
X13300401Y7633973D01*
X13299661Y7633696D01*
X13299106Y7633511D01*
X13298737Y7633418D01*
X13298643D01*
X13296516Y7641924D01*
X13297997Y7642294D01*
X13299384Y7642756D01*
X13300677Y7643219D01*
X13301880Y7643681D01*
X13302989Y7644236D01*
X13303914Y7644790D01*
X13304839Y7645438D01*
X13305672Y7645992D01*
X13306410Y7646455D01*
X13306966Y7647009D01*
X13307520Y7647472D01*
X13307982Y7647841D01*
X13308260Y7648211D01*
X13308537Y7648489D01*
X13308629Y7648581D01*
X13308722Y7648674D01*
X13309460Y7649598D01*
X13310016Y7650615D01*
X13311034Y7652649D01*
X13311774Y7654591D01*
X13312234Y7656532D01*
X13312605Y7658197D01*
X13312697Y7658844D01*
Y7659491D01*
X13312790Y7660046D01*
Y7660693D01*
X13312697Y7662819D01*
X13312328Y7664853D01*
X13311865Y7666702D01*
X13311310Y7668367D01*
X13310756Y7669661D01*
X13310478Y7670216D01*
X13310294Y7670678D01*
X13310109Y7671048D01*
X13309924Y7671325D01*
X13309831Y7671510D01*
Y7671603D01*
X13308537Y7673359D01*
X13307150Y7674839D01*
X13305579Y7676133D01*
X13304099Y7677150D01*
X13302805Y7677982D01*
X13301695Y7678537D01*
X13301233Y7678722D01*
X13300955Y7678907D01*
X13300771Y7678999D01*
X13300677D01*
X13298274Y7679739D01*
X13295869Y7680294D01*
X13293466Y7680756D01*
X13291248Y7681033D01*
X13290230Y7681126D01*
X13289307Y7681218D01*
X13288474D01*
X13287827Y7681311D01*
X13287273D01*
X13286810D01*
X13286533D01*
X13286440D01*
X13284036Y7681218D01*
X13281818Y7681033D01*
X13279784Y7680663D01*
X13277934Y7680294D01*
X13276363Y7680016D01*
X13275716Y7679831D01*
X13275160Y7679646D01*
X13274698Y7679554D01*
X13274420Y7679461D01*
X13274236Y7679369D01*
X13274142D01*
X13272017Y7678444D01*
X13270074Y7677427D01*
X13268503Y7676318D01*
X13267116Y7675116D01*
X13266006Y7674099D01*
X13265266Y7673267D01*
X13264806Y7672620D01*
X13264619Y7672527D01*
Y7672435D01*
X13263419Y7670493D01*
X13262494Y7668367D01*
X13261845Y7666333D01*
X13261478Y7664391D01*
X13261198Y7662634D01*
X13261107Y7661895D01*
Y7661248D01*
X13261014Y7660785D01*
Y7660046D01*
X13261107Y7657734D01*
X13261478Y7655608D01*
X13262032Y7653851D01*
X13262585Y7652279D01*
X13263232Y7651077D01*
X13263696Y7650153D01*
X13264066Y7649598D01*
X13264250Y7649413D01*
X13265637Y7647934D01*
X13267209Y7646547D01*
X13268874Y7645438D01*
X13270537Y7644513D01*
X13272017Y7643773D01*
X13272755Y7643496D01*
X13273311Y7643311D01*
X13273773Y7643126D01*
X13274142Y7642941D01*
X13274329Y7642849D01*
X13274420D01*
X13272479Y7634528D01*
X13270815Y7635083D01*
X13269334Y7635637D01*
X13267949Y7636377D01*
X13266562Y7637024D01*
X13265359Y7637764D01*
X13264250Y7638596D01*
X13263141Y7639335D01*
X13262216Y7640075D01*
X13261478Y7640815D01*
X13260738Y7641462D01*
X13260091Y7642109D01*
X13259628Y7642571D01*
X13259164Y7643034D01*
X13258888Y7643404D01*
X13258795Y7643588D01*
X13258704Y7643681D01*
X13257870Y7644975D01*
X13257039Y7646270D01*
X13256392Y7647564D01*
X13255836Y7648951D01*
X13255005Y7651725D01*
X13254449Y7654221D01*
X13254173Y7655423D01*
X13254080Y7656440D01*
X13253989Y7657457D01*
X13253896Y7658289D01*
X13253802Y7658936D01*
Y7659861D01*
X13253989Y7662912D01*
X13254449Y7665870D01*
X13255005Y7668459D01*
X13255376Y7669661D01*
X13255743Y7670771D01*
X13256114Y7671788D01*
X13256483Y7672712D01*
X13256761Y7673452D01*
X13257039Y7674191D01*
X13257317Y7674654D01*
X13257501Y7675024D01*
X13257593Y7675301D01*
X13257686Y7675393D01*
X13259258Y7677890D01*
X13261107Y7680016D01*
X13262956Y7681865D01*
X13264806Y7683437D01*
X13266469Y7684639D01*
X13267209Y7685101D01*
X13267856Y7685471D01*
X13268318Y7685841D01*
X13268687Y7686026D01*
X13268967Y7686118D01*
X13269058Y7686211D01*
X13271924Y7687505D01*
X13274883Y7688430D01*
X13277841Y7689077D01*
X13280524Y7689539D01*
X13281725Y7689724D01*
X13282925Y7689816D01*
X13283852Y7689909D01*
X13284776D01*
X13285423Y7690001D01*
X13285977D01*
X13286346D01*
X13286440D01*
X13289767Y7689816D01*
D02*
G37*
G36*
X13277750Y7618810D02*
X13277103Y7617423D01*
X13276456Y7616037D01*
X13275807Y7614742D01*
X13275253Y7613633D01*
X13274789Y7612708D01*
X13274420Y7612153D01*
X13274329Y7612061D01*
Y7611969D01*
X13273311Y7610304D01*
X13272295Y7608825D01*
X13271368Y7607531D01*
X13270537Y7606514D01*
X13269890Y7605589D01*
X13269334Y7605034D01*
X13268967Y7604572D01*
X13268874Y7604480D01*
X13318892D01*
Y7596621D01*
X13254636D01*
Y7601706D01*
X13256207Y7602630D01*
X13257686Y7603647D01*
X13259164Y7604849D01*
X13260460Y7605959D01*
X13261569Y7607068D01*
X13262494Y7607900D01*
X13262772Y7608270D01*
X13263048Y7608548D01*
X13263141Y7608640D01*
X13263232Y7608733D01*
X13264806Y7610674D01*
X13266284Y7612616D01*
X13267580Y7614465D01*
X13268596Y7616314D01*
X13269521Y7617886D01*
X13269890Y7618533D01*
X13270168Y7619088D01*
X13270445Y7619550D01*
X13270537Y7619920D01*
X13270721Y7620105D01*
Y7620197D01*
X13278304D01*
X13277750Y7618810D01*
D02*
G37*
G36*
X13303452Y7576188D02*
X13304839Y7575911D01*
X13307426Y7575079D01*
X13309647Y7574062D01*
X13310571Y7573507D01*
X13311494Y7572952D01*
X13312328Y7572397D01*
X13312975Y7571843D01*
X13313622Y7571380D01*
X13314084Y7570918D01*
X13314455Y7570641D01*
X13314731Y7570363D01*
X13314915Y7570178D01*
X13315009Y7570086D01*
X13315842Y7568976D01*
X13316673Y7567867D01*
X13317320Y7566758D01*
X13317876Y7565556D01*
X13318799Y7563244D01*
X13319354Y7561025D01*
X13319539Y7560008D01*
X13319724Y7559084D01*
X13319817Y7558252D01*
X13319910Y7557512D01*
X13320001Y7556957D01*
Y7556125D01*
X13319910Y7554368D01*
X13319724Y7552797D01*
X13319447Y7551225D01*
X13319077Y7549746D01*
X13318614Y7548359D01*
X13318152Y7547157D01*
X13317596Y7545955D01*
X13317043Y7544938D01*
X13316580Y7543921D01*
X13316026Y7543089D01*
X13315562Y7542349D01*
X13315102Y7541794D01*
X13314731Y7541332D01*
X13314455Y7540962D01*
X13314268Y7540777D01*
X13314177Y7540685D01*
X13313068Y7539575D01*
X13311865Y7538651D01*
X13310663Y7537819D01*
X13309460Y7537079D01*
X13308353Y7536524D01*
X13307150Y7535970D01*
X13304932Y7535230D01*
X13303914Y7535045D01*
X13302989Y7534860D01*
X13302158Y7534675D01*
X13301418Y7534583D01*
X13300864Y7534490D01*
X13300401D01*
X13300124D01*
X13300031D01*
X13297812Y7534583D01*
X13295778Y7534953D01*
X13294022Y7535507D01*
X13292542Y7536062D01*
X13291341Y7536617D01*
X13290414Y7537172D01*
X13289861Y7537541D01*
X13289676Y7537634D01*
X13288289Y7538928D01*
X13287086Y7540315D01*
X13286162Y7541794D01*
X13285423Y7543274D01*
X13284868Y7544568D01*
X13284499Y7545585D01*
X13284406Y7545955D01*
X13284312Y7546232D01*
X13284221Y7546417D01*
Y7546510D01*
X13283389Y7544938D01*
X13282558Y7543644D01*
X13281631Y7542534D01*
X13280800Y7541610D01*
X13280060Y7540870D01*
X13279413Y7540315D01*
X13279044Y7540038D01*
X13278857Y7539945D01*
X13277563Y7539206D01*
X13276270Y7538651D01*
X13274976Y7538189D01*
X13273773Y7537911D01*
X13272755Y7537726D01*
X13272017Y7537634D01*
X13271461D01*
X13271277D01*
X13269705Y7537726D01*
X13268134Y7538004D01*
X13266747Y7538374D01*
X13265546Y7538836D01*
X13264528Y7539298D01*
X13263696Y7539668D01*
X13263232Y7539945D01*
X13263048Y7540038D01*
X13261662Y7540962D01*
X13260460Y7542072D01*
X13259444Y7543181D01*
X13258517Y7544291D01*
X13257870Y7545215D01*
X13257317Y7546047D01*
X13257039Y7546602D01*
X13256946Y7546695D01*
Y7546787D01*
X13256207Y7548451D01*
X13255652Y7550115D01*
X13255190Y7551780D01*
X13254912Y7553259D01*
X13254727Y7554461D01*
X13254636Y7555478D01*
Y7557789D01*
X13254820Y7559084D01*
X13255283Y7561580D01*
X13256023Y7563706D01*
X13256761Y7565556D01*
X13257224Y7566388D01*
X13257593Y7567035D01*
X13257964Y7567682D01*
X13258333Y7568144D01*
X13258611Y7568514D01*
X13258795Y7568792D01*
X13258888Y7568976D01*
X13258980Y7569069D01*
X13260738Y7570826D01*
X13262679Y7572212D01*
X13264713Y7573322D01*
X13266747Y7574246D01*
X13268503Y7574801D01*
X13269243Y7575079D01*
X13269890Y7575263D01*
X13270445Y7575356D01*
X13270815Y7575448D01*
X13271092Y7575541D01*
X13271185D01*
X13272571Y7567682D01*
X13270537Y7567312D01*
X13268781Y7566758D01*
X13267300Y7566110D01*
X13266100Y7565463D01*
X13265175Y7564816D01*
X13264528Y7564261D01*
X13264066Y7563891D01*
X13263972Y7563799D01*
X13263048Y7562597D01*
X13262309Y7561303D01*
X13261845Y7560101D01*
X13261478Y7558899D01*
X13261292Y7557789D01*
X13261107Y7556957D01*
Y7556218D01*
X13261198Y7554553D01*
X13261569Y7553074D01*
X13262032Y7551780D01*
X13262494Y7550670D01*
X13263048Y7549838D01*
X13263512Y7549191D01*
X13263881Y7548729D01*
X13263972Y7548636D01*
X13265082Y7547619D01*
X13266284Y7546879D01*
X13267487Y7546417D01*
X13268596Y7546047D01*
X13269614Y7545862D01*
X13270352Y7545678D01*
X13270908D01*
X13271001D01*
X13271092D01*
X13272108D01*
X13273035Y7545862D01*
X13274605Y7546325D01*
X13275992Y7546972D01*
X13277194Y7547712D01*
X13278026Y7548451D01*
X13278673Y7549098D01*
X13279044Y7549561D01*
X13279137Y7549653D01*
Y7549746D01*
X13279968Y7551317D01*
X13280615Y7552797D01*
X13281078Y7554368D01*
X13281355Y7555755D01*
X13281540Y7556957D01*
X13281725Y7557974D01*
Y7559176D01*
X13281631Y7559546D01*
Y7560008D01*
X13288567Y7560933D01*
X13288289Y7559731D01*
X13288104Y7558621D01*
X13287920Y7557697D01*
X13287827Y7556865D01*
X13287733Y7556218D01*
Y7555385D01*
X13287920Y7553444D01*
X13288289Y7551687D01*
X13288844Y7550115D01*
X13289491Y7548821D01*
X13290138Y7547804D01*
X13290694Y7547064D01*
X13291063Y7546602D01*
X13291248Y7546417D01*
X13292635Y7545215D01*
X13294115Y7544291D01*
X13295593Y7543644D01*
X13297072Y7543274D01*
X13298274Y7542996D01*
X13299290Y7542904D01*
X13299661Y7542811D01*
X13299937D01*
X13300124D01*
X13300217D01*
X13302251Y7542996D01*
X13304099Y7543459D01*
X13305672Y7544013D01*
X13307057Y7544753D01*
X13308167Y7545493D01*
X13309000Y7546047D01*
X13309554Y7546510D01*
X13309740Y7546695D01*
X13311034Y7548174D01*
X13311958Y7549746D01*
X13312605Y7551317D01*
X13313068Y7552797D01*
X13313344Y7554091D01*
X13313437Y7555108D01*
X13313528Y7555478D01*
Y7556033D01*
X13313437Y7557697D01*
X13313068Y7559269D01*
X13312605Y7560655D01*
X13312050Y7561765D01*
X13311588Y7562689D01*
X13311127Y7563429D01*
X13310756Y7563799D01*
X13310663Y7563984D01*
X13309369Y7565093D01*
X13307890Y7566018D01*
X13306319Y7566850D01*
X13304654Y7567497D01*
X13303267Y7567959D01*
X13302620Y7568144D01*
X13302065Y7568237D01*
X13301604Y7568329D01*
X13301233Y7568422D01*
X13301048Y7568514D01*
X13300955D01*
X13301971Y7576373D01*
X13303452Y7576188D01*
D02*
G37*
G36*
X13921896Y7409908D02*
X13923653Y7409723D01*
X13925317Y7409538D01*
X13926889Y7409169D01*
X13928368Y7408706D01*
X13929755Y7408244D01*
X13931049Y7407782D01*
X13932251Y7407227D01*
X13933269Y7406765D01*
X13934285Y7406302D01*
X13935025Y7405840D01*
X13935764Y7405378D01*
X13936227Y7405008D01*
X13936690Y7404823D01*
X13936874Y7404638D01*
X13936966Y7404546D01*
X13938261Y7403436D01*
X13939371Y7402327D01*
X13940387Y7401032D01*
X13941405Y7399738D01*
X13943068Y7397149D01*
X13944363Y7394561D01*
X13944917Y7393359D01*
X13945380Y7392249D01*
X13945750Y7391232D01*
X13946027Y7390400D01*
X13946304Y7389660D01*
X13946489Y7389106D01*
X13946582Y7388736D01*
Y7388643D01*
X13938075Y7386517D01*
X13937706Y7387996D01*
X13937244Y7389383D01*
X13936781Y7390677D01*
X13936319Y7391879D01*
X13935764Y7392989D01*
X13935210Y7393913D01*
X13934563Y7394838D01*
X13934007Y7395670D01*
X13933545Y7396410D01*
X13932991Y7396964D01*
X13932529Y7397519D01*
X13932159Y7397981D01*
X13931789Y7398259D01*
X13931511Y7398536D01*
X13931419Y7398629D01*
X13931326Y7398721D01*
X13930402Y7399461D01*
X13929385Y7400015D01*
X13927351Y7401032D01*
X13925409Y7401772D01*
X13923468Y7402234D01*
X13921803Y7402604D01*
X13921156Y7402697D01*
X13920509D01*
X13919954Y7402789D01*
X13919307D01*
X13917181Y7402697D01*
X13915147Y7402327D01*
X13913298Y7401865D01*
X13911633Y7401310D01*
X13910339Y7400755D01*
X13909784Y7400478D01*
X13909322Y7400293D01*
X13908952Y7400108D01*
X13908675Y7399923D01*
X13908490Y7399831D01*
X13908397D01*
X13906641Y7398536D01*
X13905161Y7397149D01*
X13903867Y7395578D01*
X13902850Y7394098D01*
X13902019Y7392804D01*
X13901463Y7391694D01*
X13901279Y7391232D01*
X13901093Y7390955D01*
X13901001Y7390770D01*
Y7390677D01*
X13900261Y7388274D01*
X13899707Y7385870D01*
X13899245Y7383466D01*
X13898967Y7381247D01*
X13898874Y7380230D01*
X13898782Y7379305D01*
Y7378473D01*
X13898689Y7377826D01*
Y7377271D01*
Y7376809D01*
Y7376532D01*
Y7376439D01*
X13898782Y7374035D01*
X13898967Y7371816D01*
X13899336Y7369782D01*
X13899707Y7367933D01*
X13899985Y7366361D01*
X13900169Y7365714D01*
X13900354Y7365160D01*
X13900446Y7364697D01*
X13900539Y7364420D01*
X13900632Y7364235D01*
Y7364142D01*
X13901556Y7362016D01*
X13902573Y7360074D01*
X13903682Y7358503D01*
X13904884Y7357116D01*
X13905901Y7356006D01*
X13906734Y7355267D01*
X13907381Y7354804D01*
X13907474Y7354620D01*
X13907565D01*
X13909508Y7353418D01*
X13911633Y7352493D01*
X13913667Y7351846D01*
X13915610Y7351476D01*
X13917366Y7351199D01*
X13918105Y7351106D01*
X13918752D01*
X13919215Y7351014D01*
X13919954D01*
X13922266Y7351106D01*
X13924393Y7351476D01*
X13926149Y7352031D01*
X13927721Y7352585D01*
X13928923Y7353233D01*
X13929848Y7353695D01*
X13930402Y7354065D01*
X13930586Y7354250D01*
X13932066Y7355637D01*
X13933453Y7357208D01*
X13934563Y7358873D01*
X13935487Y7360537D01*
X13936227Y7362016D01*
X13936504Y7362756D01*
X13936690Y7363310D01*
X13936874Y7363773D01*
X13937059Y7364142D01*
X13937151Y7364327D01*
Y7364420D01*
X13945473Y7362478D01*
X13944917Y7360814D01*
X13944363Y7359335D01*
X13943623Y7357948D01*
X13942976Y7356561D01*
X13942236Y7355359D01*
X13941405Y7354250D01*
X13940665Y7353140D01*
X13939925Y7352216D01*
X13939185Y7351476D01*
X13938538Y7350736D01*
X13937891Y7350089D01*
X13937428Y7349627D01*
X13936966Y7349165D01*
X13936597Y7348887D01*
X13936412Y7348795D01*
X13936319Y7348702D01*
X13935025Y7347870D01*
X13933730Y7347038D01*
X13932436Y7346391D01*
X13931049Y7345836D01*
X13928275Y7345004D01*
X13925780Y7344449D01*
X13924577Y7344172D01*
X13923560Y7344080D01*
X13922543Y7343987D01*
X13921712Y7343895D01*
X13921065Y7343802D01*
X13920139D01*
X13917088Y7343987D01*
X13914130Y7344449D01*
X13911542Y7345004D01*
X13910339Y7345374D01*
X13909229Y7345744D01*
X13908212Y7346114D01*
X13907288Y7346483D01*
X13906548Y7346761D01*
X13905809Y7347038D01*
X13905347Y7347316D01*
X13904977Y7347500D01*
X13904700Y7347593D01*
X13904607Y7347685D01*
X13902110Y7349257D01*
X13899985Y7351106D01*
X13898135Y7352955D01*
X13896564Y7354804D01*
X13895361Y7356469D01*
X13894899Y7357208D01*
X13894530Y7357855D01*
X13894159Y7358318D01*
X13893974Y7358688D01*
X13893883Y7358965D01*
X13893790Y7359057D01*
X13892496Y7361924D01*
X13891570Y7364882D01*
X13890923Y7367841D01*
X13890462Y7370522D01*
X13890276Y7371724D01*
X13890184Y7372926D01*
X13890091Y7373850D01*
Y7374775D01*
X13889999Y7375422D01*
Y7375977D01*
Y7376347D01*
Y7376439D01*
X13890184Y7379768D01*
X13890553Y7383004D01*
X13891016Y7385870D01*
X13891385Y7387256D01*
X13891663Y7388458D01*
X13891940Y7389568D01*
X13892310Y7390585D01*
X13892587Y7391509D01*
X13892772Y7392249D01*
X13893050Y7392804D01*
X13893143Y7393266D01*
X13893327Y7393544D01*
Y7393636D01*
X13894714Y7396410D01*
X13896286Y7398906D01*
X13897951Y7401032D01*
X13898782Y7401865D01*
X13899522Y7402697D01*
X13900261Y7403436D01*
X13901001Y7404083D01*
X13901648Y7404638D01*
X13902203Y7405008D01*
X13902573Y7405378D01*
X13902942Y7405655D01*
X13903127Y7405748D01*
X13903220Y7405840D01*
X13904514Y7406580D01*
X13905809Y7407227D01*
X13908582Y7408244D01*
X13911356Y7408984D01*
X13914037Y7409446D01*
X13915332Y7409631D01*
X13916441Y7409816D01*
X13917458Y7409908D01*
X13918291D01*
X13919031Y7410001D01*
X13920047D01*
X13921896Y7409908D01*
D02*
G37*
G36*
X14033121Y7344634D02*
X14028035D01*
X14027110Y7346206D01*
X14026094Y7347685D01*
X14024892Y7349165D01*
X14023782Y7350459D01*
X14022673Y7351568D01*
X14021841Y7352493D01*
X14021471Y7352770D01*
X14021194Y7353048D01*
X14021101Y7353140D01*
X14021008Y7353233D01*
X14019067Y7354804D01*
X14017126Y7356284D01*
X14015277Y7357578D01*
X14013428Y7358595D01*
X14011856Y7359520D01*
X14011208Y7359890D01*
X14010654Y7360167D01*
X14010191Y7360444D01*
X14009822Y7360537D01*
X14009637Y7360722D01*
X14009544D01*
Y7368303D01*
X14010931Y7367748D01*
X14012318Y7367101D01*
X14013705Y7366454D01*
X14014999Y7365807D01*
X14016109Y7365252D01*
X14017033Y7364790D01*
X14017587Y7364420D01*
X14017680Y7364327D01*
X14017773D01*
X14019437Y7363310D01*
X14020917Y7362293D01*
X14022211Y7361369D01*
X14023228Y7360537D01*
X14024152Y7359890D01*
X14024707Y7359335D01*
X14025169Y7358965D01*
X14025262Y7358873D01*
Y7408891D01*
X14033121D01*
Y7344634D01*
D02*
G37*
G36*
X13983379D02*
X13978294D01*
X13977370Y7346206D01*
X13976353Y7347685D01*
X13975151Y7349165D01*
X13974042Y7350459D01*
X13972932Y7351568D01*
X13972099Y7352493D01*
X13971730Y7352770D01*
X13971452Y7353048D01*
X13971359Y7353140D01*
X13971268Y7353233D01*
X13969325Y7354804D01*
X13967384Y7356284D01*
X13965535Y7357578D01*
X13963686Y7358595D01*
X13962114Y7359520D01*
X13961467Y7359890D01*
X13960912Y7360167D01*
X13960451Y7360444D01*
X13960080Y7360537D01*
X13959895Y7360722D01*
X13959802D01*
Y7368303D01*
X13961189Y7367748D01*
X13962576Y7367101D01*
X13963963Y7366454D01*
X13965257Y7365807D01*
X13966367Y7365252D01*
X13967291Y7364790D01*
X13967847Y7364420D01*
X13967940Y7364327D01*
X13968031D01*
X13969696Y7363310D01*
X13971175Y7362293D01*
X13972469Y7361369D01*
X13973486Y7360537D01*
X13974411Y7359890D01*
X13974966Y7359335D01*
X13975427Y7358965D01*
X13975520Y7358873D01*
Y7408891D01*
X13983379D01*
Y7344634D01*
D02*
G37*
D47*
X13800607Y8049393D02*
Y8250607D01*
X13419392Y8049393D02*
X13800607D01*
X13419392D02*
Y8250607D01*
X13800607D01*
X13219392Y7880607D02*
X13420607D01*
Y7499393D02*
Y7880607D01*
X13219392Y7499393D02*
X13420607D01*
X13219392D02*
Y7880607D01*
X13699393Y7309393D02*
Y7510607D01*
X14080608D01*
Y7309393D02*
Y7510607D01*
X13699393Y7309393D02*
X14080608D01*
%TF.MD5,693f4487b813c5270de3597e8217c069*%
M02*
